<svg xmlns="http://www.w3.org/2000/svg" xmlns:xlink="http://www.w3.org/1999/xlink" width="840" height="474.8"><g transform="translate(-100 -60)"><path d="M0 0h1360v1760H0z" fill="#fff"/><path d="M120 187h180v100H120z" stroke="#000" stroke-width="2" fill="#fff"/><use xlink:href="#a" transform="matrix(1,0,0,1,125,192) translate(54.075 27)"/><use xlink:href="#b" transform="matrix(1,0,0,1,125,192) translate(50.05 48.6)"/><use xlink:href="#c" transform="matrix(1,0,0,1,125,192) translate(71.525 70.2)"/><path d="M145.9 285.42v-50.2h.1V185M145.9 285.42v3M134.04 285.13v-50.07H134V185M134.04 285.13v3" stroke="#000" stroke-width="2" fill="none"/><path d="M920 230c0 27.6-49.25 50-110 50s-110-22.4-110-50 49.25-50 110-50 110 22.4 110 50z" fill="#fff"/><path d="M911.43 249.36l-.8.88-1.6 1.57-1.85 1.65-2.1 1.72-2.44 1.8-2.8 1.9-3.23 1.96-2.5 1.38m-9.8 4.66l-.67.3-5.66 2.16-6.45 2.14-7.3 2.05-.5.13m-10.6 2.33l-5.96 1.12-9.7 1.35-5.8.54m-10.82.73l-4.63.22-6.2.08-10.84-.25m-10.82-.72h-.1l-10.08-1.16-9.38-1.5-1.9-.4m-10.58-2.37l-3.87-1-6.9-2.1-6.1-2.15-3.72-1.5m-9.8-4.63l-.5-.26-3.5-2-3.03-1.95-2.63-1.84-2.28-1.77-2-1.7-1.7-1.6-1.52-1.53-.18-.2m-6.14-8.9l-.05-.1-.5-1.16-.44-1.1-.37-1.12-.3-1.1-.26-1.07-.2-1.05-.14-1.06-.1-1.06-.05-1.05v-.6l.02-1.05.08-1.06.12-1.06.17-1.06.2-1.07.28-1.07.34-1.1.4-1.1.46-1.15.35-.76m6.14-8.88l.8-.88 1.6-1.57 1.85-1.65 2.1-1.72 2.44-1.8 2.8-1.9 3.23-1.96 2.5-1.38m9.8-4.66l.67-.3 5.66-2.16 6.45-2.14 7.3-2.05.5-.13m10.6-2.33l5.96-1.12 9.7-1.35 5.8-.54m10.82-.73l4.63-.22 6.2-.08 10.84.25m10.82.72h.1l10.08 1.16 9.38 1.5 1.9.4m10.58 2.37l3.87 1 6.9 2.1 6.1 2.15 3.72 1.5m9.8 4.63l.5.26 3.5 2 3.03 1.95 2.63 1.84 2.28 1.77 2 1.7 1.7 1.6 1.52 1.53.18.2m6.14 8.9l.05.1.5 1.16.44 1.1.37 1.12.3 1.1.26 1.07.2 1.05.14 1.06.1 1.06.05 1.05v.6l-.02 1.05-.08 1.06-.12 1.06-.17 1.06-.2 1.07-.28 1.07-.34 1.1-.4 1.1-.46 1.15-.35.76" stroke="#000" stroke-width="2" fill="none"/><use xlink:href="#d" transform="matrix(1,0,0,1,705,185) translate(46.099999999999994 48.6)"/><use xlink:href="#e" transform="matrix(1,0,0,1,705,185) translate(118 48.6)"/><path d="M420 130L300 237" stroke="#000" stroke-width="2" fill="none"/><path d="M420 130l-.67-.75.67-.6zM300.67 237.75l-.67.6V237z"/><path fill="#fff" d="M355 172.7h10v21.6h-10z"/><use xlink:href="#f" transform="matrix(1,0,0,1,355,172.7) translate(0 14.4)"/><path d="M420 80h160v100H420z" stroke="#000" stroke-width="2" fill="#fff"/><use xlink:href="#g" transform="matrix(1,0,0,1,425,85) translate(42.625 37.8)"/><use xlink:href="#h" transform="matrix(1,0,0,1,425,85) translate(62.05 59.4)"/><path d="M714.9 204.85L580 130" fill="none"/><path d="M714.9 204.85l-8.98-5m-9-4.98l-17.98-9.98m-9-5l-18-9.98m-8.98-5l-18-9.97m-8.98-5l-18-9.97m-9-5L580 130" stroke="#000" stroke-width="2" fill="none"/><path d="M715.8 204.2l-.87.63-.02.02.5-.88zM580.5 129.13l-.5.87v-1.14z"/><path fill="#fff" d="M633.1 151.15h9v21.6h-9z"/><use xlink:href="#i" transform="matrix(1,0,0,1,633.0858998839617,151.14806560486352) translate(0 14.4)"/><path d="M419 331l-119-94" stroke="#000" stroke-width="2" fill="none"/><path d="M300.62 236.22l-.62.78v-1.27z"/><path fill="#fff" d="M354.5 273.2h10v21.6h-10z"/><use xlink:href="#j" transform="matrix(1,0,0,1,354.5,273.2) translate(0 14.4)"/><path d="M420 282h180v100H420z" stroke="#000" stroke-width="2" fill="#fff"/><use xlink:href="#k" transform="matrix(1,0,0,1,425,287) translate(51.55 37.8)"/><use xlink:href="#l" transform="matrix(1,0,0,1,425,287) translate(58.05 59.4)"/><path d="M434.04 380.13v-50.07H434V280M434.04 380.13v3" stroke="#000" stroke-width="2" fill="none"/><path d="M710.52 252.72L600 332" fill="none"/><path d="M710.52 252.72l-7.37 5.3m-7.36 5.27l-14.75 10.56m-7.37 5.3l-14.74 10.56m-7.36 5.28l-14.74 10.57m-7.37 5.3l-14.73 10.56m-7.37 5.28L600 332" stroke="#000" stroke-width="2" fill="none"/><path d="M711.97 252.7l.13.12-1 .72-1.16-1.63.66-.47zM614.3 327.45L600 332l8.9-12.08z"/><path d="M615.9 328l-15.9 5.05v-2.74l8.9-12.08zm-13.27 2.1l10.05-3.18-3.8-5.3z"/><path fill="#fff" d="M650.26 281.56h10v21.6h-10z"/><use xlink:href="#m" transform="matrix(1,0,0,1,650.2608366978714,281.56174992330597) translate(0 14.4)"/><path d="M260 440h240v60H260z" fill="none"/><g><use xlink:href="#n" transform="matrix(1,0,0,1,265,445) translate(0 14.4)"/><use xlink:href="#o" transform="matrix(1,0,0,1,265,445) translate(20 14.4)"/><use xlink:href="#p" transform="matrix(1,0,0,1,265,445) translate(55.900000000000006 14.4)"/><use xlink:href="#q" transform="matrix(1,0,0,1,265,445) translate(127.70000000000002 14.4)"/><use xlink:href="#r" transform="matrix(1,0,0,1,265,445) translate(166.55 14.4)"/><use xlink:href="#s" transform="matrix(1,0,0,1,265,445) translate(0 36)"/><use xlink:href="#t" transform="matrix(1,0,0,1,265,445) translate(20 36)"/><use xlink:href="#u" transform="matrix(1,0,0,1,265,445) translate(56.95 36)"/><use xlink:href="#v" transform="matrix(1,0,0,1,265,445) translate(154.75 36)"/></g><path d="M600 440h320v74.8H600z" fill="none"/><g><use xlink:href="#w" transform="matrix(1,0,0,1,605,445) translate(0 14.4)"/><use xlink:href="#x" transform="matrix(1,0,0,1,605,445) translate(19 14.4)"/><use xlink:href="#y" transform="matrix(1,0,0,1,605,445) translate(68.95 14.4)"/><use xlink:href="#z" transform="matrix(1,0,0,1,605,445) translate(120.80000000000001 14.4)"/><use xlink:href="#A" transform="matrix(1,0,0,1,605,445) translate(149.75 14.4)"/><use xlink:href="#B" transform="matrix(1,0,0,1,605,445) translate(197.7 14.4)"/><use xlink:href="#C" transform="matrix(1,0,0,1,605,445) translate(0 36)"/><use xlink:href="#D" transform="matrix(1,0,0,1,605,445) translate(20 36)"/></g><defs><path d="M240 0l2-218c-23 76-54 145-80 218h-23L58-218 59 0H30v-248h44l77 211c21-75 51-140 76-211h43V0h-30" id="E"/><path d="M141-36C126-15 110 5 73 4 37 3 15-17 15-53c-1-64 63-63 125-63 3-35-9-54-41-54-24 1-41 7-42 31l-33-3c5-37 33-52 76-52 45 0 72 20 72 64v82c-1 20 7 32 28 27v20c-31 9-61-2-59-35zM48-53c0 20 12 33 32 33 41-3 63-29 60-74-43 2-92-5-92 41" id="F"/><path d="M24-231v-30h32v30H24zM24 0v-190h32V0H24" id="G"/><path d="M24 0v-261h32V0H24" id="H"/><path d="M115-194c53 0 69 39 70 98 0 66-23 100-70 100C84 3 66-7 56-30L54 0H23l1-261h32v101c10-23 28-34 59-34zm-8 174c40 0 45-34 45-75 0-40-5-75-45-74-42 0-51 32-51 76 0 43 10 73 51 73" id="I"/><path d="M100-194c62-1 85 37 85 99 1 63-27 99-86 99S16-35 15-95c0-66 28-99 85-99zM99-20c44 1 53-31 53-75 0-43-8-75-51-75s-53 32-53 75 10 74 51 75" id="J"/><path d="M141 0L90-78 38 0H4l68-98-65-92h35l48 74 47-74h35l-64 92 68 98h-35" id="K"/><g id="a"><use transform="matrix(0.05,0,0,0.05,0,0)" xlink:href="#E"/><use transform="matrix(0.05,0,0,0.05,14.950000000000001,0)" xlink:href="#F"/><use transform="matrix(0.05,0,0,0.05,24.950000000000003,0)" xlink:href="#G"/><use transform="matrix(0.05,0,0,0.05,28.900000000000002,0)" xlink:href="#H"/><use transform="matrix(0.05,0,0,0.05,32.85,0)" xlink:href="#I"/><use transform="matrix(0.05,0,0,0.05,42.85,0)" xlink:href="#J"/><use transform="matrix(0.05,0,0,0.05,52.85,0)" xlink:href="#K"/></g><path d="M205 0l-28-72H64L36 0H1l101-248h38L239 0h-34zm-38-99l-47-123c-12 45-31 82-46 123h93" id="L"/><path d="M117-194c89-4 53 116 60 194h-32v-121c0-31-8-49-39-48C34-167 62-67 57 0H25l-1-190h30c1 10-1 24 2 32 11-22 29-35 61-36" id="M"/><path d="M179-190L93 31C79 59 56 82 12 73V49c39 6 53-20 64-50L1-190h34L92-34l54-156h33" id="N"/><path d="M9 0v-24l116-142H16v-24h144v24L44-24h123V0H9" id="O"/><path d="M100-194c63 0 86 42 84 106H49c0 40 14 67 53 68 26 1 43-12 49-29l28 8c-11 28-37 45-77 45C44 4 14-33 15-96c1-61 26-98 85-98zm52 81c6-60-76-77-97-28-3 7-6 17-6 28h103" id="P"/><path d="M114-163C36-179 61-72 57 0H25l-1-190h30c1 12-1 29 2 39 6-27 23-49 58-41v29" id="Q"/><g id="b"><use transform="matrix(0.05,0,0,0.05,0,0)" xlink:href="#L"/><use transform="matrix(0.05,0,0,0.05,12,0)" xlink:href="#M"/><use transform="matrix(0.05,0,0,0.05,22,0)" xlink:href="#F"/><use transform="matrix(0.05,0,0,0.05,32,0)" xlink:href="#H"/><use transform="matrix(0.05,0,0,0.05,35.95,0)" xlink:href="#N"/><use transform="matrix(0.05,0,0,0.05,44.95,0)" xlink:href="#O"/><use transform="matrix(0.05,0,0,0.05,53.95,0)" xlink:href="#P"/><use transform="matrix(0.05,0,0,0.05,63.95,0)" xlink:href="#Q"/></g><g id="c"><use transform="matrix(0.05,0,0,0.05,0,0)" xlink:href="#E"/><use transform="matrix(0.05,0,0,0.05,14.950000000000001,0)" xlink:href="#L"/></g><path d="M135-143c-3-34-86-38-87 0 15 53 115 12 119 90S17 21 10-45l28-5c4 36 97 45 98 0-10-56-113-15-118-90-4-57 82-63 122-42 12 7 21 19 24 35" id="R"/><g id="d"><use transform="matrix(0.05,0,0,0.05,0,0)" xlink:href="#L"/><use transform="matrix(0.05,0,0,0.05,12,0)" xlink:href="#M"/><use transform="matrix(0.05,0,0,0.05,22,0)" xlink:href="#F"/><use transform="matrix(0.05,0,0,0.05,32,0)" xlink:href="#H"/><use transform="matrix(0.05,0,0,0.05,35.95,0)" xlink:href="#N"/><use transform="matrix(0.05,0,0,0.05,44.95,0)" xlink:href="#R"/><use transform="matrix(0.05,0,0,0.05,53.95,0)" xlink:href="#G"/><use transform="matrix(0.05,0,0,0.05,57.900000000000006,0)" xlink:href="#R"/></g><path d="M233-177c-1 41-23 64-60 70L243 0h-38l-65-103H63V0H30v-248c88 3 205-21 203 71zM63-129c60-2 137 13 137-47 0-61-80-42-137-45v92" id="S"/><path d="M84 4C-5 8 30-112 23-190h32v120c0 31 7 50 39 49 72-2 45-101 50-169h31l1 190h-30c-1-10 1-25-2-33-11 22-28 36-60 37" id="T"/><g id="e"><use transform="matrix(0.05,0,0,0.05,0,0)" xlink:href="#S"/><use transform="matrix(0.05,0,0,0.05,12.950000000000001,0)" xlink:href="#T"/><use transform="matrix(0.05,0,0,0.05,22.950000000000003,0)" xlink:href="#H"/><use transform="matrix(0.05,0,0,0.05,26.900000000000002,0)" xlink:href="#P"/><use transform="matrix(0.05,0,0,0.05,36.900000000000006,0)" xlink:href="#R"/></g><use transform="matrix(0.05,0,0,0.05,0,0)" xlink:href="#F" id="f"/><path d="M101-234c-31-9-42 10-38 44h38v23H63V0H32v-167H5v-23h27c-7-52 17-82 69-68v24" id="U"/><g id="g"><use transform="matrix(0.05,0,0,0.05,0,0)" xlink:href="#E"/><use transform="matrix(0.05,0,0,0.05,14.950000000000001,0)" xlink:href="#F"/><use transform="matrix(0.05,0,0,0.05,24.950000000000003,0)" xlink:href="#G"/><use transform="matrix(0.05,0,0,0.05,28.900000000000002,0)" xlink:href="#H"/><use transform="matrix(0.05,0,0,0.05,32.85,0)" xlink:href="#U"/><use transform="matrix(0.05,0,0,0.05,37.85,0)" xlink:href="#G"/><use transform="matrix(0.05,0,0,0.05,41.800000000000004,0)" xlink:href="#H"/><use transform="matrix(0.05,0,0,0.05,45.75000000000001,0)" xlink:href="#P"/><use transform="matrix(0.05,0,0,0.05,55.75,0)" xlink:href="#R"/></g><path d="M63-220v92h138v28H63V0H30v-248h175v28H63" id="V"/><g id="h"><use transform="matrix(0.05,0,0,0.05,0,0)" xlink:href="#E"/><use transform="matrix(0.05,0,0,0.05,14.950000000000001,0)" xlink:href="#V"/></g><path d="M96-169c-40 0-48 33-48 73s9 75 48 75c24 0 41-14 43-38l32 2c-6 37-31 61-74 61-59 0-76-41-82-99-10-93 101-131 147-64 4 7 5 14 7 22l-32 3c-4-21-16-35-41-35" id="W"/><use transform="matrix(0.05,0,0,0.05,0,0)" xlink:href="#W" id="i"/><use transform="matrix(0.05,0,0,0.05,0,0)" xlink:href="#I" id="j"/><g id="k"><use transform="matrix(0.05,0,0,0.05,0,0)" xlink:href="#L"/><use transform="matrix(0.05,0,0,0.05,12,0)" xlink:href="#M"/><use transform="matrix(0.05,0,0,0.05,22,0)" xlink:href="#F"/><use transform="matrix(0.05,0,0,0.05,32,0)" xlink:href="#H"/><use transform="matrix(0.05,0,0,0.05,35.95,0)" xlink:href="#N"/><use transform="matrix(0.05,0,0,0.05,44.95,0)" xlink:href="#R"/><use transform="matrix(0.05,0,0,0.05,53.95,0)" xlink:href="#G"/><use transform="matrix(0.05,0,0,0.05,57.900000000000006,0)" xlink:href="#R"/></g><path d="M115-194c55 1 70 41 70 98S169 2 115 4C84 4 66-9 55-30l1 105H24l-1-265h31l2 30c10-21 28-34 59-34zm-8 174c40 0 45-34 45-75s-6-73-45-74c-42 0-51 32-51 76 0 43 10 73 51 73" id="X"/><path d="M59-47c-2 24 18 29 38 22v24C64 9 27 4 27-40v-127H5v-23h24l9-43h21v43h35v23H59v120" id="Y"/><g id="l"><use transform="matrix(0.05,0,0,0.05,0,0)" xlink:href="#S"/><use transform="matrix(0.05,0,0,0.05,12.950000000000001,0)" xlink:href="#P"/><use transform="matrix(0.05,0,0,0.05,22.950000000000003,0)" xlink:href="#X"/><use transform="matrix(0.05,0,0,0.05,32.95,0)" xlink:href="#J"/><use transform="matrix(0.05,0,0,0.05,42.95,0)" xlink:href="#Q"/><use transform="matrix(0.05,0,0,0.05,48.900000000000006,0)" xlink:href="#Y"/></g><path d="M85-194c31 0 48 13 60 33l-1-100h32l1 261h-30c-2-10 0-23-3-31C134-8 116 4 85 4 32 4 16-35 15-94c0-66 23-100 70-100zm9 24c-40 0-46 34-46 75 0 40 6 74 45 74 42 0 51-32 51-76 0-42-9-74-50-73" id="Z"/><use transform="matrix(0.05,0,0,0.05,0,0)" xlink:href="#Z" id="m"/><path d="M33-154v-36h34v36H33zM33 0v-36h34V0H33" id="aa"/><g id="n"><use transform="matrix(0.05,0,0,0.05,0,0)" xlink:href="#F"/><use transform="matrix(0.05,0,0,0.05,10,0)" xlink:href="#aa"/></g><path d="M63-70H37l-4-178h34zM33 0v-35h34V0H33" id="ab"/><g id="o"><use transform="matrix(0.05,0,0,0.05,0,0)" xlink:href="#E"/><use transform="matrix(0.05,0,0,0.05,14.950000000000001,0)" xlink:href="#V"/><use transform="matrix(0.05,0,0,0.05,25.900000000000002,0)" xlink:href="#ab"/></g><path d="M39-94c74 12-11 154 75 146v23c-44 4-70-10-70-52C44-23 55-84 6-82v-22c81 4-7-162 84-157h24v23c-82-15-2 131-75 144" id="ac"/><path d="M177-190C167-65 218 103 67 71c-23-6-38-20-44-43l32-5c15 47 100 32 89-28v-30C133-14 115 1 83 1 29 1 15-40 15-95c0-56 16-97 71-98 29-1 48 16 59 35 1-10 0-23 2-32h30zM94-22c36 0 50-32 50-73 0-42-14-75-50-75-39 0-46 34-46 75s6 73 46 73" id="ad"/><path d="M30-248c118-7 216 8 213 122C240-48 200 0 122 0H30v-248zM63-27c89 8 146-16 146-99s-60-101-146-95v194" id="ae"/><path d="M68-38c1 34 0 65-14 84H32c9-13 17-26 17-46H33v-38h35" id="af"/><g id="p"><use transform="matrix(0.05,0,0,0.05,0,0)" xlink:href="#ac"/><use transform="matrix(0.05,0,0,0.05,6,0)" xlink:href="#E"/><use transform="matrix(0.05,0,0,0.05,20.950000000000003,0)" xlink:href="#R"/><use transform="matrix(0.05,0,0,0.05,29.950000000000003,0)" xlink:href="#ad"/><use transform="matrix(0.05,0,0,0.05,39.95,0)" xlink:href="#ae"/><use transform="matrix(0.05,0,0,0.05,52.900000000000006,0)" xlink:href="#G"/><use transform="matrix(0.05,0,0,0.05,56.85,0)" xlink:href="#Q"/><use transform="matrix(0.05,0,0,0.05,61.80000000000001,0)" xlink:href="#af"/></g><g id="q"><use transform="matrix(0.05,0,0,0.05,0,0)" xlink:href="#V"/><use transform="matrix(0.05,0,0,0.05,10.950000000000001,0)" xlink:href="#G"/><use transform="matrix(0.05,0,0,0.05,14.9,0)" xlink:href="#H"/><use transform="matrix(0.05,0,0,0.05,18.85,0)" xlink:href="#P"/><use transform="matrix(0.05,0,0,0.05,28.85,0)" xlink:href="#af"/></g><path d="M212-179c-10-28-35-45-73-45-59 0-87 40-87 99 0 60 29 101 89 101 43 0 62-24 78-52l27 14C228-24 195 4 139 4 59 4 22-46 18-125c-6-104 99-153 187-111 19 9 31 26 39 46" id="ag"/><path d="M106-169C34-169 62-67 57 0H25v-261h32l-1 103c12-21 28-36 61-36 89 0 53 116 60 194h-32v-121c2-32-8-49-39-48" id="ah"/><path d="M76-40C78 24 84 88 6 75V52C86 64 9-79 80-94c-40-6-34-59-34-106 1-29-11-41-40-38v-23c44-4 70 10 70 52 0 47-12 108 38 105v22c-26 1-39 14-38 42" id="ai"/><g id="r"><use transform="matrix(0.05,0,0,0.05,0,0)" xlink:href="#ag"/><use transform="matrix(0.05,0,0,0.05,12.950000000000001,0)" xlink:href="#ah"/><use transform="matrix(0.05,0,0,0.05,22.950000000000003,0)" xlink:href="#F"/><use transform="matrix(0.05,0,0,0.05,32.95,0)" xlink:href="#Q"/><use transform="matrix(0.05,0,0,0.05,38.900000000000006,0)" xlink:href="#ai"/></g><g id="s"><use transform="matrix(0.05,0,0,0.05,0,0)" xlink:href="#I"/><use transform="matrix(0.05,0,0,0.05,10,0)" xlink:href="#aa"/></g><g id="t"><use transform="matrix(0.05,0,0,0.05,0,0)" xlink:href="#E"/><use transform="matrix(0.05,0,0,0.05,14.950000000000001,0)" xlink:href="#L"/><use transform="matrix(0.05,0,0,0.05,26.950000000000003,0)" xlink:href="#ab"/></g><g id="u"><use transform="matrix(0.05,0,0,0.05,0,0)" xlink:href="#ac"/><use transform="matrix(0.05,0,0,0.05,6,0)" xlink:href="#S"/><use transform="matrix(0.05,0,0,0.05,18.950000000000003,0)" xlink:href="#P"/><use transform="matrix(0.05,0,0,0.05,28.950000000000003,0)" xlink:href="#X"/><use transform="matrix(0.05,0,0,0.05,38.95,0)" xlink:href="#J"/><use transform="matrix(0.05,0,0,0.05,48.95,0)" xlink:href="#Q"/><use transform="matrix(0.05,0,0,0.05,54.900000000000006,0)" xlink:href="#Y"/><use transform="matrix(0.05,0,0,0.05,59.900000000000006,0)" xlink:href="#H"/><use transform="matrix(0.05,0,0,0.05,63.85,0)" xlink:href="#G"/><use transform="matrix(0.05,0,0,0.05,67.80000000000001,0)" xlink:href="#M"/><use transform="matrix(0.05,0,0,0.05,77.80000000000001,0)" xlink:href="#P"/><use transform="matrix(0.05,0,0,0.05,87.80000000000001,0)" xlink:href="#af"/></g><g id="v"><use transform="matrix(0.05,0,0,0.05,0,0)" xlink:href="#ag"/><use transform="matrix(0.05,0,0,0.05,12.950000000000001,0)" xlink:href="#ah"/><use transform="matrix(0.05,0,0,0.05,22.950000000000003,0)" xlink:href="#F"/><use transform="matrix(0.05,0,0,0.05,32.95,0)" xlink:href="#Q"/><use transform="matrix(0.05,0,0,0.05,38.900000000000006,0)" xlink:href="#ai"/></g><g id="w"><use transform="matrix(0.05,0,0,0.05,0,0)" xlink:href="#W"/><use transform="matrix(0.05,0,0,0.05,9,0)" xlink:href="#aa"/></g><g id="x"><use transform="matrix(0.05,0,0,0.05,0,0)" xlink:href="#ac"/><use transform="matrix(0.05,0,0,0.05,6,0)" xlink:href="#E"/><use transform="matrix(0.05,0,0,0.05,20.950000000000003,0)" xlink:href="#R"/><use transform="matrix(0.05,0,0,0.05,29.950000000000003,0)" xlink:href="#ad"/><use transform="matrix(0.05,0,0,0.05,39.95,0)" xlink:href="#af"/></g><path d="M210-169c-67 3-38 105-44 169h-31v-121c0-29-5-50-35-48C34-165 62-65 56 0H25l-1-190h30c1 10-1 24 2 32 10-44 99-50 107 0 11-21 27-35 58-36 85-2 47 119 55 194h-31v-121c0-29-5-49-35-48" id="aj"/><g id="y"><use transform="matrix(0.05,0,0,0.05,0,0)" xlink:href="#V"/><use transform="matrix(0.05,0,0,0.05,10.950000000000001,0)" xlink:href="#Q"/><use transform="matrix(0.05,0,0,0.05,16.900000000000002,0)" xlink:href="#J"/><use transform="matrix(0.05,0,0,0.05,26.900000000000002,0)" xlink:href="#aj"/><use transform="matrix(0.05,0,0,0.05,41.85,0)" xlink:href="#af"/></g><path d="M127-220V0H93v-220H8v-28h204v28h-85" id="ak"/><g id="z"><use transform="matrix(0.05,0,0,0.05,0,0)" xlink:href="#ak"/><use transform="matrix(0.05,0,0,0.05,8.950000000000001,0)" xlink:href="#J"/><use transform="matrix(0.05,0,0,0.05,18.950000000000003,0)" xlink:href="#af"/></g><g id="A"><use transform="matrix(0.05,0,0,0.05,0,0)" xlink:href="#ae"/><use transform="matrix(0.05,0,0,0.05,12.950000000000001,0)" xlink:href="#F"/><use transform="matrix(0.05,0,0,0.05,22.950000000000003,0)" xlink:href="#Y"/><use transform="matrix(0.05,0,0,0.05,27.950000000000003,0)" xlink:href="#P"/><use transform="matrix(0.05,0,0,0.05,37.95,0)" xlink:href="#af"/></g><path d="M30 0v-248h33v221h125V0H30" id="al"/><g id="B"><use transform="matrix(0.05,0,0,0.05,0,0)" xlink:href="#al"/><use transform="matrix(0.05,0,0,0.05,10,0)" xlink:href="#P"/><use transform="matrix(0.05,0,0,0.05,20,0)" xlink:href="#M"/><use transform="matrix(0.05,0,0,0.05,30,0)" xlink:href="#ad"/><use transform="matrix(0.05,0,0,0.05,40,0)" xlink:href="#Y"/><use transform="matrix(0.05,0,0,0.05,45,0)" xlink:href="#ah"/><use transform="matrix(0.05,0,0,0.05,55,0)" xlink:href="#ai"/></g><g id="C"><use transform="matrix(0.05,0,0,0.05,0,0)" xlink:href="#Z"/><use transform="matrix(0.05,0,0,0.05,10,0)" xlink:href="#aa"/></g><g id="D"><use transform="matrix(0.05,0,0,0.05,0,0)" xlink:href="#ac"/><use transform="matrix(0.05,0,0,0.05,6,0)" xlink:href="#al"/><use transform="matrix(0.05,0,0,0.05,16,0)" xlink:href="#G"/><use transform="matrix(0.05,0,0,0.05,19.95,0)" xlink:href="#M"/><use transform="matrix(0.05,0,0,0.05,29.950000000000003,0)" xlink:href="#P"/><use transform="matrix(0.05,0,0,0.05,39.95,0)" xlink:href="#ae"/><use transform="matrix(0.05,0,0,0.05,52.900000000000006,0)" xlink:href="#F"/><use transform="matrix(0.05,0,0,0.05,62.900000000000006,0)" xlink:href="#Y"/><use transform="matrix(0.05,0,0,0.05,67.9,0)" xlink:href="#F"/><use transform="matrix(0.05,0,0,0.05,77.9,0)" xlink:href="#ai"/></g></defs></g></svg>