<svg xmlns="http://www.w3.org/2000/svg" xmlns:xlink="http://www.w3.org/1999/xlink" width="1561.9" height="960.6"><g transform="translate(-219.075 -180)"><path d="M0 0h1360v1760H0z" fill="#fff"/><path d="M299.75 499.75c0 10.9-8.84 19.75-19.75 19.75-10.9 0-19.75-8.84-19.75-19.75 0-10.9 8.84-19.75 19.75-19.75 10.9 0 19.75 8.84 19.75 19.75z" stroke="#000" stroke-width="2" fill="#fff"/><path d="M240 480h80v158h-80z" fill="none"/><path d="M280 519.5v55.3l40 63.2m-40-63.2L240 638m0-98.75h80" stroke="#000" stroke-width="2" fill="none"/><use xlink:href="#a" transform="matrix(1,0,0,1,160,638) translate(81.07499999999999 14.6)"/><path d="M299.75 819.75c0 10.9-8.84 19.75-19.75 19.75-10.9 0-19.75-8.84-19.75-19.75 0-10.9 8.84-19.75 19.75-19.75 10.9 0 19.75 8.84 19.75 19.75z" stroke="#000" stroke-width="2" fill="#fff"/><path d="M240 800h80v158h-80z" fill="none"/><path d="M280 839.5v55.3l40 63.2m-40-63.2L240 958m0-98.75h80" stroke="#000" stroke-width="2" fill="none"/><use xlink:href="#b" transform="matrix(1,0,0,1,160,958) translate(98.6 14.6)"/><path d="M280 799V660" stroke="#000" stroke-width="2" fill="none"/><path d="M281 800h-2v-1h2z"/><path d="M292.73 681.52h-25.46L280 660z" fill="#fff"/><path d="M294.48 682.52h-28.96L280 658.04zm-25.45-2h21.94L280 661.96z"/><path d="M800 420c0 33.14-35.82 60-80 60s-80-26.86-80-60 35.82-60 80-60 80 26.86 80 60z" stroke="#000" stroke-width="2" fill="#fff"/><use xlink:href="#c" transform="matrix(1,0,0,1,640,360) translate(13.130000000000004 63.15)"/><use xlink:href="#d" transform="matrix(1,0,0,1,640,360) translate(92.93 63.15)"/><path d="M800 620c0 33.14-35.82 60-80 60s-80-26.86-80-60 35.82-60 80-60 80 26.86 80 60z" stroke="#000" stroke-width="2" fill="#fff"/><use xlink:href="#e" transform="matrix(1,0,0,1,640,560) translate(20.07999999999999 63.15)"/><use xlink:href="#d" transform="matrix(1,0,0,1,640,560) translate(85.98 63.15)"/><path d="M800 840c0 33.14-35.82 60-80 60s-80-26.86-80-60 35.82-60 80-60 80 26.86 80 60z" stroke="#000" stroke-width="2" fill="#fff"/><use xlink:href="#f" transform="matrix(1,0,0,1,640,780) translate(23.005000000000003 63.15)"/><use xlink:href="#g" transform="matrix(1,0,0,1,640,780) translate(72.005 63.15)"/><path d="M800 1060c0 33.14-35.82 60-80 60s-80-26.86-80-60 35.82-60 80-60 80 26.86 80 60z" stroke="#000" stroke-width="2" fill="#fff"/><use xlink:href="#h" transform="matrix(1,0,0,1,640,1000) translate(22.055 63.15)"/><use xlink:href="#g" transform="matrix(1,0,0,1,640,1000) translate(72.95500000000001 63.15)"/><path d="M1140 520c0 33.14-35.82 60-80 60s-80-26.86-80-60 35.82-60 80-60 80 26.86 80 60z" stroke="#000" stroke-width="2" fill="#fff"/><use xlink:href="#i" transform="matrix(1,0,0,1,980,460) translate(19.429999999999986 63.15)"/><use xlink:href="#j" transform="matrix(1,0,0,1,980,460) translate(90.63 63.15)"/><path d="M320 556.36l327.18-111.53" stroke="#000" stroke-width="2" fill="none"/><path d="M320.32 557.3l-.32.12v-1.06zM647.7 445.7l-.2.07-.32-.94z"/><path d="M320 570l320 50" stroke="#000" stroke-width="2" fill="none"/><path d="M320.15 569l-.15 1v-1zM640 620.38l.03.64-.18-.03.15-1z"/><path d="M320 858.25L640 840" stroke="#000" stroke-width="2" fill="none"/><path d="M320.06 859.25H320v-1zM640 840l-.06-1h.1z"/><path d="M320 858.25L640 1060" stroke="#000" stroke-width="2" fill="none"/><path d="M320.53 857.4l-.53.85v-1.18zM640 1060.38l.03.82-.56-.35.53-.85z"/><path d="M280 480l.15-7.16.42-6.67.65-6.26.87-5.9 1.06-5.6 1.25-5.3 1.43-5.1 1.58-4.86 1.75-4.7 1.9-4.53 2.08-4.38 2.24-4.28 2.4-4.18 2.6-4.1 2.8-4.02 3-3.96 3.26-3.92 3.5-3.9 3.8-3.86 4.1-3.85 4.46-3.86 4.87-3.88 5.35-3.88 5.9-3.92 6.53-3.95 7.28-4 8.17-4.05 9.26-4.12 10.57-4.18 12.22-4.24 14.3-4.32 17.07-4.37 20.8-4.4 26.2-4.42 34.76-4.35 51.48-4.24 121.28-4.63 43.94-.2 42.67 1.57 41 3.24L847.9 322l36.45 6 33.58 6.95 18.07 4.38 21.96 6.06 14.18 4.56 10.68 3.94 8.6 3.6 7.17 3.36 6.14 3.2 5.36 3.1 4.75 3 4.25 2.93 3.83 2.9 3.5 2.87 3.2 2.87 2.93 2.88 2.73 2.9 2.52 2.9 2.36 2.98 2.2 3.02 2.06 3.1 1.93 3.17 1.8 3.28 1.7 3.4 1.58 3.53 1.47 3.72 1.36 3.88 1.25 4.1 1.12 4.37 1 4.65.85 5 .68 5.4.5 5.87.28 6.42.04 3.68" stroke="#000" stroke-width="2" fill="none"/><path d="M280.1 480H279v-.05zM1061 460.03l-1-.03 1-.05z"/><path d="M980 520L800 620" fill="none"/><path d="M980 520l-8.57 4.76m-8.57 4.76l-17.15 9.53m-8.56 4.76L920 553.34m-8.57 4.77l-17.14 9.52m-8.6 4.76l-17.13 9.52m-8.57 4.77l-17.14 9.52m-8.57 4.75l-17.16 9.53m-8.57 4.76L800 620" stroke="#000" stroke-width="2" fill="none"/><path d="M980 520l-.5-.87.54-.3zM810.97 603.25l-9.25 15.8 18.3.5-.05 2-20-.55.03-1v-.38l-.06-1.5 9.3-15.9z"/><path fill="#fff" d="M836.05 559.2h107.9v21.6h-107.9z"/><use xlink:href="#k" transform="matrix(1,0,0,1,836.05,559.2) translate(0 14.4)"/><path d="M980 520L800 420" fill="none"/><path d="M980 520l-8.57-4.76m-8.57-4.76l-17.15-9.53m-8.56-4.76L920 486.66m-8.57-4.77l-17.14-9.52m-8.6-4.76l-17.13-9.52m-8.57-4.77l-17.14-9.52m-8.57-4.75l-17.16-9.53m-8.57-4.76L800 420" stroke="#000" stroke-width="2" fill="none"/><path d="M980 520.38l.03.78-.52-.3.5-.86zM820.02 420.46l-18.3.5 9.25 15.8-1.73 1-9.3-15.88.06-1.88v-.38l-.03-.62 20-.54z"/><path fill="#fff" d="M836.05 459.2h107.9v21.6h-107.9z"/><use xlink:href="#k" transform="matrix(1,0,0,1,836.05,459.2) translate(0 14.4)"/><path d="M720 680v99" fill="none"/><path d="M720 680v11m0 11v22m0 11v22m0 11v11" stroke="#000" stroke-width="2" fill="none"/><path d="M720 680h-1v-.03zm1 0h-1 1zM731.04 762.3L720.56 780 720 780h-.57l-10.47-17.7 1.72-1.02 9.32 15.76 9.32-15.76z"/><path d="M720 900v99" fill="none"/><path d="M720 900v11m0 11v22m0 11v22m0 11v11" stroke="#000" stroke-width="2" fill="none"/><path d="M720 900h-1v-.03zm1 0h-1 1zM731.04 982.3L720.56 1000l-.56-.02h-.57l-10.47-17.7 1.72-1.02 9.32 15.76 9.32-15.76z"/><path d="M720 480v79" fill="none"/><path d="M720 480v8.78m0 8.78v17.55m0 8.8v17.54m0 8.78V559" stroke="#000" stroke-width="2" fill="none"/><path d="M720 480h-1v-.03zm1 0h-1 1zM731.04 542.3L720.56 560 720 560h-.57l-10.47-17.7 1.72-1.02 9.32 15.76 9.32-15.76z"/><path d="M1739.75 439.75c0 10.9-8.84 19.75-19.75 19.75-10.9 0-19.75-8.84-19.75-19.75 0-10.9 8.84-19.75 19.75-19.75 10.9 0 19.75 8.84 19.75 19.75z" stroke="#000" stroke-width="2"/><path d="M1680 420h80v158h-80z" fill="none"/><path d="M1720 459.5v55.3l40 63.2m-40-63.2l-40 63.2m0-98.75h80" stroke="#000" stroke-width="2" fill="none"/><use xlink:href="#l" transform="matrix(1,0,0,1,1600,578) translate(81.07499999999999 14.6)"/><use xlink:href="#m" transform="matrix(1,0,0,1,1600,578) translate(110.975 14.6)"/><path d="M1520 510c0 33.14-35.82 60-80 60s-80-26.86-80-60 35.82-60 80-60 80 26.86 80 60z" stroke="#fff" stroke-width="2"/><use xlink:href="#n" transform="matrix(1,0,0,1,1360,450) translate(30.055 63.15)"/><use xlink:href="#o" transform="matrix(1,0,0,1,1360,450) translate(76.005 63.15)"/><path d="M1680 510h-159" stroke="#000" stroke-width="2" fill="none"/><path d="M1521 511h-1.03l.03-1v-.38l-.03-.62h1.03z"/><path d="M1320 260c0 33.14-35.82 60-80 60s-80-26.86-80-60 35.82-60 80-60 80 26.86 80 60z" stroke="#fff" stroke-width="2"/><use xlink:href="#p" transform="matrix(1,0,0,1,1160,200) translate(47.07999999999999 51.9)"/><use xlink:href="#q" transform="matrix(1,0,0,1,1160,200) translate(42.029999999999994 73.5)"/><path d="M1398.86 458.57l-117.72-147.14" fill="none"/><path d="M1398.86 458.57l-6.54-8.17m-6.54-8.18l-13.08-16.35m-6.54-8.17l-13.08-16.35m-6.54-8.18l-13.08-16.34m-6.54-8.18l-13.08-16.35m-6.54-8.17l-13.08-16.35m-6.54-8.18l-6.54-8.17" stroke="#000" stroke-width="2" fill="none"/><path d="M1399.8 458.16l-.94.4.78-.6zM1300.2 317.57l-.7 1.87-17.13-6.48 2.56 18.13-1.98.27-2.76-19.53 2.25-1z"/><path fill="#fff" d="M1286.05 374.2h107.9v21.6h-107.9z"/><use xlink:href="#r" transform="matrix(1,0,0,1,1286.05,374.2) translate(0 14.4)"/><path d="M1399.75 939.75c0 10.9-8.84 19.75-19.75 19.75-10.9 0-19.75-8.84-19.75-19.75 0-10.9 8.84-19.75 19.75-19.75 10.9 0 19.75 8.84 19.75 19.75z" stroke="#000" stroke-width="2"/><path d="M1340 920h80v158h-80z" fill="none"/><path d="M1380 959.5v55.3l40 63.2m-40-63.2l-40 63.2m0-98.75h80" stroke="#000" stroke-width="2" fill="none"/><g><use xlink:href="#s" transform="matrix(1,0,0,1,1260,1078) translate(62.39999999999999 14.4)"/><use xlink:href="#t" transform="matrix(1,0,0,1,1260,1078) translate(110.2 14.4)"/><use xlink:href="#u" transform="matrix(1,0,0,1,1260,1078) translate(171.65 14.4)"/><use xlink:href="#v" transform="matrix(1,0,0,1,1260,1078) translate(69.625 36)"/><use xlink:href="#w" transform="matrix(1,0,0,1,1260,1078) translate(127.575 36)"/></g><path d="M1160 940c0 33.14-35.82 60-80 60s-80-26.86-80-60 35.82-60 80-60 80 26.86 80 60z" stroke="#fff" stroke-width="2"/><g><use xlink:href="#x" transform="matrix(1,0,0,1,1000,880) translate(53.029999999999994 51.9)"/><use xlink:href="#y" transform="matrix(1,0,0,1,1000,880) translate(35.05499999999999 73.5)"/></g><path d="M1340 1010l-211.33-78" stroke="#000" stroke-width="2" fill="none"/><path d="M1340 1011.07l-.35-.13.35-.94z"/><path d="M1128.67 932l-2.82-1.04" stroke="#000" stroke-width="2" fill="none"/><defs><path d="M212-179c-10-28-35-45-73-45-59 0-87 40-87 99 0 60 29 101 89 101 43 0 62-24 78-52l27 14C228-24 195 4 139 4 59 4 22-46 18-125c-6-104 99-153 187-111 19 9 31 26 39 46" id="z"/><path d="M84 4C-5 8 30-112 23-190h32v120c0 31 7 50 39 49 72-2 45-101 50-169h31l1 190h-30c-1-10 1-25-2-33-11 22-28 36-60 37" id="A"/><path d="M135-143c-3-34-86-38-87 0 15 53 115 12 119 90S17 21 10-45l28-5c4 36 97 45 98 0-10-56-113-15-118-90-4-57 82-63 122-42 12 7 21 19 24 35" id="B"/><path d="M59-47c-2 24 18 29 38 22v24C64 9 27 4 27-40v-127H5v-23h24l9-43h21v43h35v23H59v120" id="C"/><path d="M100-194c62-1 85 37 85 99 1 63-27 99-86 99S16-35 15-95c0-66 28-99 85-99zM99-20c44 1 53-31 53-75 0-43-8-75-51-75s-53 32-53 75 10 74 51 75" id="D"/><path d="M210-169c-67 3-38 105-44 169h-31v-121c0-29-5-50-35-48C34-165 62-65 56 0H25l-1-190h30c1 10-1 24 2 32 10-44 99-50 107 0 11-21 27-35 58-36 85-2 47 119 55 194h-31v-121c0-29-5-49-35-48" id="E"/><path d="M100-194c63 0 86 42 84 106H49c0 40 14 67 53 68 26 1 43-12 49-29l28 8c-11 28-37 45-77 45C44 4 14-33 15-96c1-61 26-98 85-98zm52 81c6-60-76-77-97-28-3 7-6 17-6 28h103" id="F"/><path d="M114-163C36-179 61-72 57 0H25l-1-190h30c1 12-1 29 2 39 6-27 23-49 58-41v29" id="G"/><g id="a"><use transform="matrix(0.05,0,0,0.05,0,0)" xlink:href="#z"/><use transform="matrix(0.05,0,0,0.05,12.950000000000001,0)" xlink:href="#A"/><use transform="matrix(0.05,0,0,0.05,22.950000000000003,0)" xlink:href="#B"/><use transform="matrix(0.05,0,0,0.05,31.950000000000003,0)" xlink:href="#C"/><use transform="matrix(0.05,0,0,0.05,36.95,0)" xlink:href="#D"/><use transform="matrix(0.05,0,0,0.05,46.95,0)" xlink:href="#E"/><use transform="matrix(0.05,0,0,0.05,61.900000000000006,0)" xlink:href="#F"/><use transform="matrix(0.05,0,0,0.05,71.9,0)" xlink:href="#G"/></g><path d="M127-220V0H93v-220H8v-28h204v28h-85" id="H"/><path d="M24 0v-261h32V0H24" id="I"/><g id="b"><use transform="matrix(0.05,0,0,0.05,0,0)" xlink:href="#H"/><use transform="matrix(0.05,0,0,0.05,8.950000000000001,0)" xlink:href="#F"/><use transform="matrix(0.05,0,0,0.05,18.950000000000003,0)" xlink:href="#I"/><use transform="matrix(0.05,0,0,0.05,22.900000000000002,0)" xlink:href="#I"/><use transform="matrix(0.05,0,0,0.05,26.85,0)" xlink:href="#F"/><use transform="matrix(0.05,0,0,0.05,36.85,0)" xlink:href="#G"/></g><path d="M266 0h-40l-56-210L115 0H75L2-248h35L96-30l15-64 43-154h32l59 218 59-218h35" id="J"/><path d="M24-231v-30h32v30H24zM24 0v-190h32V0H24" id="K"/><path d="M106-169C34-169 62-67 57 0H25v-261h32l-1 103c12-21 28-36 61-36 89 0 53 116 60 194h-32v-121c2-32-8-49-39-48" id="L"/><path d="M85-194c31 0 48 13 60 33l-1-100h32l1 261h-30c-2-10 0-23-3-31C134-8 116 4 85 4 32 4 16-35 15-94c0-66 23-100 70-100zm9 24c-40 0-46 34-46 75 0 40 6 74 45 74 42 0 51-32 51-76 0-42-9-74-50-73" id="M"/><path d="M141-36C126-15 110 5 73 4 37 3 15-17 15-53c-1-64 63-63 125-63 3-35-9-54-41-54-24 1-41 7-42 31l-33-3c5-37 33-52 76-52 45 0 72 20 72 64v82c-1 20 7 32 28 27v20c-31 9-61-2-59-35zM48-53c0 20 12 33 32 33 41-3 63-29 60-74-43 2-92-5-92 41" id="N"/><path d="M206 0h-36l-40-164L89 0H53L-1-190h32L70-26l43-164h34l41 164 42-164h31" id="O"/><g id="c"><use transform="matrix(0.05,0,0,0.05,0,0)" xlink:href="#J"/><use transform="matrix(0.05,0,0,0.05,16.95,0)" xlink:href="#K"/><use transform="matrix(0.05,0,0,0.05,20.9,0)" xlink:href="#C"/><use transform="matrix(0.05,0,0,0.05,25.899999999999995,0)" xlink:href="#L"/><use transform="matrix(0.05,0,0,0.05,35.9,0)" xlink:href="#M"/><use transform="matrix(0.05,0,0,0.05,45.9,0)" xlink:href="#G"/><use transform="matrix(0.05,0,0,0.05,51.85,0)" xlink:href="#N"/><use transform="matrix(0.05,0,0,0.05,61.85,0)" xlink:href="#O"/></g><path d="M240 0l2-218c-23 76-54 145-80 218h-23L58-218 59 0H30v-248h44l77 211c21-75 51-140 76-211h43V0h-30" id="P"/><path d="M117-194c89-4 53 116 60 194h-32v-121c0-31-8-49-39-48C34-167 62-67 57 0H25l-1-190h30c1 10-1 24 2 32 11-22 29-35 61-36" id="Q"/><path d="M179-190L93 31C79 59 56 82 12 73V49c39 6 53-20 64-50L1-190h34L92-34l54-156h33" id="R"/><g id="d"><use transform="matrix(0.05,0,0,0.05,0,0)" xlink:href="#P"/><use transform="matrix(0.05,0,0,0.05,14.950000000000001,0)" xlink:href="#D"/><use transform="matrix(0.05,0,0,0.05,24.950000000000003,0)" xlink:href="#Q"/><use transform="matrix(0.05,0,0,0.05,34.95,0)" xlink:href="#F"/><use transform="matrix(0.05,0,0,0.05,44.95,0)" xlink:href="#R"/></g><path d="M30-248c118-7 216 8 213 122C240-48 200 0 122 0H30v-248zM63-27c89 8 146-16 146-99s-60-101-146-95v194" id="S"/><path d="M115-194c55 1 70 41 70 98S169 2 115 4C84 4 66-9 55-30l1 105H24l-1-265h31l2 30c10-21 28-34 59-34zm-8 174c40 0 45-34 45-75s-6-73-45-74c-42 0-51 32-51 76 0 43 10 73 51 73" id="T"/><g id="e"><use transform="matrix(0.05,0,0,0.05,0,0)" xlink:href="#S"/><use transform="matrix(0.05,0,0,0.05,12.950000000000001,0)" xlink:href="#F"/><use transform="matrix(0.05,0,0,0.05,22.950000000000003,0)" xlink:href="#T"/><use transform="matrix(0.05,0,0,0.05,32.95,0)" xlink:href="#D"/><use transform="matrix(0.05,0,0,0.05,42.95,0)" xlink:href="#B"/><use transform="matrix(0.05,0,0,0.05,51.95,0)" xlink:href="#K"/><use transform="matrix(0.05,0,0,0.05,55.900000000000006,0)" xlink:href="#C"/></g><path d="M140-251c81 0 123 46 123 126C263-46 219 4 140 4 59 4 17-45 17-125s42-126 123-126zm0 227c63 0 89-41 89-101s-29-99-89-99c-61 0-89 39-89 99S79-25 140-24" id="U"/><g id="f"><use transform="matrix(0.05,0,0,0.05,0,0)" xlink:href="#U"/><use transform="matrix(0.05,0,0,0.05,14,0)" xlink:href="#T"/><use transform="matrix(0.05,0,0,0.05,24,0)" xlink:href="#F"/><use transform="matrix(0.05,0,0,0.05,34,0)" xlink:href="#Q"/></g><path d="M205 0l-28-72H64L36 0H1l101-248h38L239 0h-34zm-38-99l-47-123c-12 45-31 82-46 123h93" id="V"/><path d="M96-169c-40 0-48 33-48 73s9 75 48 75c24 0 41-14 43-38l32 2c-6 37-31 61-74 61-59 0-76-41-82-99-10-93 101-131 147-64 4 7 5 14 7 22l-32 3c-4-21-16-35-41-35" id="W"/><g id="g"><use transform="matrix(0.05,0,0,0.05,0,0)" xlink:href="#V"/><use transform="matrix(0.05,0,0,0.05,12,0)" xlink:href="#W"/><use transform="matrix(0.05,0,0,0.05,21,0)" xlink:href="#W"/><use transform="matrix(0.05,0,0,0.05,30,0)" xlink:href="#D"/><use transform="matrix(0.05,0,0,0.05,40,0)" xlink:href="#A"/><use transform="matrix(0.05,0,0,0.05,50,0)" xlink:href="#Q"/><use transform="matrix(0.05,0,0,0.05,60,0)" xlink:href="#C"/></g><g id="h"><use transform="matrix(0.05,0,0,0.05,0,0)" xlink:href="#z"/><use transform="matrix(0.05,0,0,0.05,12.950000000000001,0)" xlink:href="#I"/><use transform="matrix(0.05,0,0,0.05,16.900000000000002,0)" xlink:href="#D"/><use transform="matrix(0.05,0,0,0.05,26.900000000000002,0)" xlink:href="#B"/><use transform="matrix(0.05,0,0,0.05,35.900000000000006,0)" xlink:href="#F"/></g><path d="M101-234c-31-9-42 10-38 44h38v23H63V0H32v-167H5v-23h27c-7-52 17-82 69-68v24" id="X"/><g id="i"><use transform="matrix(0.05,0,0,0.05,0,0)" xlink:href="#H"/><use transform="matrix(0.05,0,0,0.05,10.3,0)" xlink:href="#G"/><use transform="matrix(0.05,0,0,0.05,16.25,0)" xlink:href="#N"/><use transform="matrix(0.05,0,0,0.05,26.25,0)" xlink:href="#Q"/><use transform="matrix(0.05,0,0,0.05,36.25,0)" xlink:href="#B"/><use transform="matrix(0.05,0,0,0.05,45.25,0)" xlink:href="#X"/><use transform="matrix(0.05,0,0,0.05,50.25,0)" xlink:href="#F"/><use transform="matrix(0.05,0,0,0.05,60.25,0)" xlink:href="#G"/></g><path d="M63-220v92h138v28H63V0H30v-248h175v28H63" id="Y"/><g id="j"><use transform="matrix(0.05,0,0,0.05,0,0)" xlink:href="#Y"/><use transform="matrix(0.05,0,0,0.05,10.950000000000001,0)" xlink:href="#A"/><use transform="matrix(0.05,0,0,0.05,20.950000000000003,0)" xlink:href="#Q"/><use transform="matrix(0.05,0,0,0.05,30.950000000000003,0)" xlink:href="#M"/><use transform="matrix(0.05,0,0,0.05,40.95,0)" xlink:href="#B"/></g><path d="M18-100v-36l175-74v27L42-118l151 64v27" id="Z"/><path d="M18-27v-27l151-64-151-65v-27l175 74v36" id="aa"/><g id="k"><use transform="matrix(0.05,0,0,0.05,0,0)" xlink:href="#Z"/><use transform="matrix(0.05,0,0,0.05,10.5,0)" xlink:href="#Z"/><use transform="matrix(0.05,0,0,0.05,21,0)" xlink:href="#K"/><use transform="matrix(0.05,0,0,0.05,24.95,0)" xlink:href="#Q"/><use transform="matrix(0.05,0,0,0.05,34.95,0)" xlink:href="#W"/><use transform="matrix(0.05,0,0,0.05,43.95,0)" xlink:href="#I"/><use transform="matrix(0.05,0,0,0.05,47.900000000000006,0)" xlink:href="#A"/><use transform="matrix(0.05,0,0,0.05,57.900000000000006,0)" xlink:href="#M"/><use transform="matrix(0.05,0,0,0.05,67.9,0)" xlink:href="#F"/><use transform="matrix(0.05,0,0,0.05,77.9,0)" xlink:href="#B"/><use transform="matrix(0.05,0,0,0.05,86.9,0)" xlink:href="#aa"/><use transform="matrix(0.05,0,0,0.05,97.4,0)" xlink:href="#aa"/></g><path d="M33 0v-38h34V0H33" id="ab"/><g id="l"><use transform="matrix(0.05,0,0,0.05,0,0)" xlink:href="#P"/><use transform="matrix(0.05,0,0,0.05,14.950000000000001,0)" xlink:href="#G"/><use transform="matrix(0.05,0,0,0.05,19.900000000000002,0)" xlink:href="#ab"/></g><path d="M233-177c-1 41-23 64-60 70L243 0h-38l-65-103H63V0H30v-248c88 3 205-21 203 71zM63-129c60-2 137 13 137-47 0-61-80-42-137-45v92" id="ac"/><path d="M115-194c53 0 69 39 70 98 0 66-23 100-70 100C84 3 66-7 56-30L54 0H23l1-261h32v101c10-23 28-34 59-34zm-8 174c40 0 45-34 45-75 0-40-5-75-45-74-42 0-51 32-51 76 0 43 10 73 51 73" id="ad"/><g id="m"><use transform="matrix(0.05,0,0,0.05,0,0)" xlink:href="#ac"/><use transform="matrix(0.05,0,0,0.05,12.950000000000001,0)" xlink:href="#D"/><use transform="matrix(0.05,0,0,0.05,22.950000000000003,0)" xlink:href="#ad"/><use transform="matrix(0.05,0,0,0.05,32.95,0)" xlink:href="#D"/><use transform="matrix(0.05,0,0,0.05,42.95,0)" xlink:href="#C"/></g><path fill="#fff" d="M185-189c-5-48-123-54-124 2 14 75 158 14 163 119 3 78-121 87-175 55-17-10-28-26-33-46l33-7c5 56 141 63 141-1 0-78-155-14-162-118-5-82 145-84 179-34 5 7 8 16 11 25" id="ae"/><path fill="#fff" d="M59-47c-2 24 18 29 38 22v24C64 9 27 4 27-40v-127H5v-23h24l9-43h21v43h35v23H59v120" id="af"/><path fill="#fff" d="M100-194c63 0 86 42 84 106H49c0 40 14 67 53 68 26 1 43-12 49-29l28 8c-11 28-37 45-77 45C44 4 14-33 15-96c1-61 26-98 85-98zm52 81c6-60-76-77-97-28-3 7-6 17-6 28h103" id="ag"/><path fill="#fff" d="M141-36C126-15 110 5 73 4 37 3 15-17 15-53c-1-64 63-63 125-63 3-35-9-54-41-54-24 1-41 7-42 31l-33-3c5-37 33-52 76-52 45 0 72 20 72 64v82c-1 20 7 32 28 27v20c-31 9-61-2-59-35zM48-53c0 20 12 33 32 33 41-3 63-29 60-74-43 2-92-5-92 41" id="ah"/><path fill="#fff" d="M24 0v-261h32V0H24" id="ai"/><g id="n"><use transform="matrix(0.05,0,0,0.05,0,0)" xlink:href="#ae"/><use transform="matrix(0.05,0,0,0.05,12,0)" xlink:href="#af"/><use transform="matrix(0.05,0,0,0.05,17,0)" xlink:href="#ag"/><use transform="matrix(0.05,0,0,0.05,27,0)" xlink:href="#ah"/><use transform="matrix(0.05,0,0,0.05,37,0)" xlink:href="#ai"/></g><path fill="#fff" d="M240 0l2-218c-23 76-54 145-80 218h-23L58-218 59 0H30v-248h44l77 211c21-75 51-140 76-211h43V0h-30" id="aj"/><path fill="#fff" d="M100-194c62-1 85 37 85 99 1 63-27 99-86 99S16-35 15-95c0-66 28-99 85-99zM99-20c44 1 53-31 53-75 0-43-8-75-51-75s-53 32-53 75 10 74 51 75" id="ak"/><path fill="#fff" d="M117-194c89-4 53 116 60 194h-32v-121c0-31-8-49-39-48C34-167 62-67 57 0H25l-1-190h30c1 10-1 24 2 32 11-22 29-35 61-36" id="al"/><path fill="#fff" d="M179-190L93 31C79 59 56 82 12 73V49c39 6 53-20 64-50L1-190h34L92-34l54-156h33" id="am"/><g id="o"><use transform="matrix(0.05,0,0,0.05,0,0)" xlink:href="#aj"/><use transform="matrix(0.05,0,0,0.05,14.950000000000001,0)" xlink:href="#ak"/><use transform="matrix(0.05,0,0,0.05,24.950000000000003,0)" xlink:href="#al"/><use transform="matrix(0.05,0,0,0.05,34.95,0)" xlink:href="#ag"/><use transform="matrix(0.05,0,0,0.05,44.95,0)" xlink:href="#am"/></g><path fill="#fff" d="M190 0L58-211 59 0H30v-248h39L202-35l-2-213h31V0h-41" id="an"/><path fill="#fff" d="M206 0h-36l-40-164L89 0H53L-1-190h32L70-26l43-164h34l41 164 42-164h31" id="ao"/><path fill="#fff" d="M114-163C36-179 61-72 57 0H25l-1-190h30c1 12-1 29 2 39 6-27 23-49 58-41v29" id="ap"/><path fill="#fff" d="M143 0L79-87 56-68V0H24v-261h32v163l83-92h37l-77 82L181 0h-38" id="aq"/><g id="p"><use transform="matrix(0.05,0,0,0.05,0,0)" xlink:href="#an"/><use transform="matrix(0.05,0,0,0.05,12.950000000000001,0)" xlink:href="#ag"/><use transform="matrix(0.05,0,0,0.05,22.950000000000003,0)" xlink:href="#af"/><use transform="matrix(0.05,0,0,0.05,27.950000000000003,0)" xlink:href="#ao"/><use transform="matrix(0.05,0,0,0.05,40.900000000000006,0)" xlink:href="#ak"/><use transform="matrix(0.05,0,0,0.05,50.900000000000006,0)" xlink:href="#ap"/><use transform="matrix(0.05,0,0,0.05,56.85,0)" xlink:href="#aq"/></g><path fill="#fff" d="M30 0v-248h187v28H63v79h144v27H63v87h162V0H30" id="ar"/><path fill="#fff" d="M108 0H70L1-190h34L89-25l56-165h34" id="as"/><path fill="#fff" d="M135-143c-3-34-86-38-87 0 15 53 115 12 119 90S17 21 10-45l28-5c4 36 97 45 98 0-10-56-113-15-118-90-4-57 82-63 122-42 12 7 21 19 24 35" id="at"/><path fill="#fff" d="M85-194c31 0 48 13 60 33l-1-100h32l1 261h-30c-2-10 0-23-3-31C134-8 116 4 85 4 32 4 16-35 15-94c0-66 23-100 70-100zm9 24c-40 0-46 34-46 75 0 40 6 74 45 74 42 0 51-32 51-76 0-42-9-74-50-73" id="au"/><path fill="#fff" d="M115-194c55 1 70 41 70 98S169 2 115 4C84 4 66-9 55-30l1 105H24l-1-265h31l2 30c10-21 28-34 59-34zm-8 174c40 0 45-34 45-75s-6-73-45-74c-42 0-51 32-51 76 0 43 10 73 51 73" id="av"/><g id="q"><use transform="matrix(0.05,0,0,0.05,0,0)" xlink:href="#ar"/><use transform="matrix(0.05,0,0,0.05,12,0)" xlink:href="#as"/><use transform="matrix(0.05,0,0,0.05,21,0)" xlink:href="#ag"/><use transform="matrix(0.05,0,0,0.05,31,0)" xlink:href="#at"/><use transform="matrix(0.05,0,0,0.05,40,0)" xlink:href="#au"/><use transform="matrix(0.05,0,0,0.05,50,0)" xlink:href="#ap"/><use transform="matrix(0.05,0,0,0.05,55.95,0)" xlink:href="#ak"/><use transform="matrix(0.05,0,0,0.05,65.95,0)" xlink:href="#av"/></g><g id="r"><use transform="matrix(0.05,0,0,0.05,0,0)" xlink:href="#Z"/><use transform="matrix(0.05,0,0,0.05,10.5,0)" xlink:href="#Z"/><use transform="matrix(0.05,0,0,0.05,21,0)" xlink:href="#K"/><use transform="matrix(0.05,0,0,0.05,24.95,0)" xlink:href="#Q"/><use transform="matrix(0.05,0,0,0.05,34.95,0)" xlink:href="#W"/><use transform="matrix(0.05,0,0,0.05,43.95,0)" xlink:href="#I"/><use transform="matrix(0.05,0,0,0.05,47.900000000000006,0)" xlink:href="#A"/><use transform="matrix(0.05,0,0,0.05,57.900000000000006,0)" xlink:href="#M"/><use transform="matrix(0.05,0,0,0.05,67.9,0)" xlink:href="#F"/><use transform="matrix(0.05,0,0,0.05,77.9,0)" xlink:href="#B"/><use transform="matrix(0.05,0,0,0.05,86.9,0)" xlink:href="#aa"/><use transform="matrix(0.05,0,0,0.05,97.4,0)" xlink:href="#aa"/></g><g id="s"><use transform="matrix(0.05,0,0,0.05,0,0)" xlink:href="#H"/><use transform="matrix(0.05,0,0,0.05,9.950000000000001,0)" xlink:href="#R"/><use transform="matrix(0.05,0,0,0.05,18.950000000000003,0)" xlink:href="#G"/><use transform="matrix(0.05,0,0,0.05,24.900000000000002,0)" xlink:href="#F"/><use transform="matrix(0.05,0,0,0.05,34.900000000000006,0)" xlink:href="#I"/><use transform="matrix(0.05,0,0,0.05,38.85000000000001,0)" xlink:href="#I"/></g><path d="M143 0L79-87 56-68V0H24v-261h32v163l83-92h37l-77 82L181 0h-38" id="aw"/><g id="t"><use transform="matrix(0.05,0,0,0.05,0,0)" xlink:href="#J"/><use transform="matrix(0.05,0,0,0.05,16.599999999999998,0)" xlink:href="#F"/><use transform="matrix(0.05,0,0,0.05,26.599999999999994,0)" xlink:href="#I"/><use transform="matrix(0.05,0,0,0.05,30.549999999999997,0)" xlink:href="#I"/><use transform="matrix(0.05,0,0,0.05,34.5,0)" xlink:href="#K"/><use transform="matrix(0.05,0,0,0.05,38.45,0)" xlink:href="#W"/><use transform="matrix(0.05,0,0,0.05,47.45,0)" xlink:href="#aw"/></g><path d="M16-82v-28h88v28H16" id="ax"/><use transform="matrix(0.05,0,0,0.05,0,0)" xlink:href="#ax" id="u"/><path d="M177-190C167-65 218 103 67 71c-23-6-38-20-44-43l32-5c15 47 100 32 89-28v-30C133-14 115 1 83 1 29 1 15-40 15-95c0-56 16-97 71-98 29-1 48 16 59 35 1-10 0-23 2-32h30zM94-22c36 0 50-32 50-73 0-42-14-75-50-75-39 0-46 34-46 75s6 73 46 73" id="ay"/><g id="v"><use transform="matrix(0.05,0,0,0.05,0,0)" xlink:href="#ac"/><use transform="matrix(0.05,0,0,0.05,12.950000000000001,0)" xlink:href="#D"/><use transform="matrix(0.05,0,0,0.05,22.950000000000003,0)" xlink:href="#A"/><use transform="matrix(0.05,0,0,0.05,32.95,0)" xlink:href="#ay"/><use transform="matrix(0.05,0,0,0.05,42.95,0)" xlink:href="#F"/></g><g id="w"><use transform="matrix(0.05,0,0,0.05,0,0)" xlink:href="#H"/><use transform="matrix(0.05,0,0,0.05,8.950000000000001,0)" xlink:href="#F"/><use transform="matrix(0.05,0,0,0.05,18.950000000000003,0)" xlink:href="#I"/><use transform="matrix(0.05,0,0,0.05,22.900000000000002,0)" xlink:href="#I"/><use transform="matrix(0.05,0,0,0.05,26.85,0)" xlink:href="#F"/><use transform="matrix(0.05,0,0,0.05,36.85,0)" xlink:href="#G"/></g><g id="x"><use transform="matrix(0.05,0,0,0.05,0,0)" xlink:href="#aj"/><use transform="matrix(0.05,0,0,0.05,14.950000000000001,0)" xlink:href="#ak"/><use transform="matrix(0.05,0,0,0.05,24.950000000000003,0)" xlink:href="#al"/><use transform="matrix(0.05,0,0,0.05,34.95,0)" xlink:href="#ag"/><use transform="matrix(0.05,0,0,0.05,44.95,0)" xlink:href="#am"/></g><path fill="#fff" d="M30 0v-248h33v221h125V0H30" id="az"/><path fill="#fff" d="M84 4C-5 8 30-112 23-190h32v120c0 31 7 50 39 49 72-2 45-101 50-169h31l1 190h-30c-1-10 1-25-2-33-11 22-28 36-60 37" id="aA"/><path fill="#fff" d="M24-231v-30h32v30H24zM24 0v-190h32V0H24" id="aB"/><path fill="#fff" d="M177-190C167-65 218 103 67 71c-23-6-38-20-44-43l32-5c15 47 100 32 89-28v-30C133-14 115 1 83 1 29 1 15-40 15-95c0-56 16-97 71-98 29-1 48 16 59 35 1-10 0-23 2-32h30zM94-22c36 0 50-32 50-73 0-42-14-75-50-75-39 0-46 34-46 75s6 73 46 73" id="aC"/><g id="y"><use transform="matrix(0.05,0,0,0.05,0,0)" xlink:href="#az"/><use transform="matrix(0.05,0,0,0.05,10,0)" xlink:href="#ah"/><use transform="matrix(0.05,0,0,0.05,20,0)" xlink:href="#aA"/><use transform="matrix(0.05,0,0,0.05,30,0)" xlink:href="#al"/><use transform="matrix(0.05,0,0,0.05,40,0)" xlink:href="#au"/><use transform="matrix(0.05,0,0,0.05,50,0)" xlink:href="#ag"/><use transform="matrix(0.05,0,0,0.05,60,0)" xlink:href="#ap"/><use transform="matrix(0.05,0,0,0.05,65.95,0)" xlink:href="#aB"/><use transform="matrix(0.05,0,0,0.05,69.9,0)" xlink:href="#al"/><use transform="matrix(0.05,0,0,0.05,79.9,0)" xlink:href="#aC"/></g></defs></g></svg>