<svg xmlns="http://www.w3.org/2000/svg" xmlns:xlink="http://www.w3.org/1999/xlink" xmlns:lucid="lucid" width="1561.9" height="460"><g transform="translate(-219.075 -240)" lucid:page-tab-id="M1Huxj10LTcS"><path d="M0 0h2656v1760H0z" fill="#fff"/><path d="M299.75 499.75c0 10.9-8.84 19.75-19.75 19.75-10.9 0-19.75-8.84-19.75-19.75 0-10.9 8.84-19.75 19.75-19.75 10.9 0 19.75 8.84 19.75 19.75z" stroke="#000" stroke-width="2" fill="#fff"/><path d="M280 519.5v55.3l40 63.2m-40-63.2L240 638m0-98.75h80" stroke="#000" stroke-width="2" fill="none"/><path d="M240 480h80v180h-80z" fill="none"/><use xlink:href="#a" transform="matrix(1,0,0,1,160,638) translate(81.07499999999999 14.6)"/><path d="M800 420c0 33.14-35.82 60-80 60s-80-26.86-80-60 35.82-60 80-60 80 26.86 80 60z" stroke="#000" stroke-width="2" fill="#fff"/><use xlink:href="#b" transform="matrix(1,0,0,1,640,360) translate(13.130000000000004 63.15)"/><use xlink:href="#c" transform="matrix(1,0,0,1,640,360) translate(92.93 63.15)"/><path d="M800 620c0 33.14-35.82 60-80 60s-80-26.86-80-60 35.82-60 80-60 80 26.86 80 60z" stroke="#000" stroke-width="2" fill="#fff"/><use xlink:href="#d" transform="matrix(1,0,0,1,640,560) translate(20.07999999999999 63.15)"/><use xlink:href="#c" transform="matrix(1,0,0,1,640,560) translate(85.98 63.15)"/><path d="M1140 520c0 33.14-35.82 60-80 60s-80-26.86-80-60 35.82-60 80-60 80 26.86 80 60z" stroke="#000" stroke-width="2" fill="#fff"/><use xlink:href="#e" transform="matrix(1,0,0,1,980,460) translate(19.429999999999986 63.15)"/><use xlink:href="#f" transform="matrix(1,0,0,1,980,460) translate(90.63 63.15)"/><path d="M281.96 558.15l363.3-112.7M281.98 558.15l-3.85 1.2" stroke="#000" stroke-width="2" fill="none"/><path d="M646.74 446.04l-1.2.37-.6-1.9.74-.23z"/><path d="M282 570.14l356 49.72M282.02 570.14l-4-.55" stroke="#000" stroke-width="2" fill="none"/><path d="M639.03 619l-.03 1v.4l.03.6-1.18-.15.27-1.98zM768 313.04l41.06 3.25 38.98 4.72 36.5 6 33.6 6.96 18.1 4.4 23.1 6.35 14.35 4.62 10.68 3.95 8.54 3.57 7.12 3.34 6.1 3.18 5.3 3.05 4.7 2.97 4.2 2.9 3.8 2.9 3.46 2.84 3.17 2.84 2.92 2.85 2.7 2.87 2.5 2.9 2.34 2.95 2.2 3 2.04 3.08 1.92 3.16 1.8 3.25 1.68 3.4 1.58 3.52 1.47 3.7 1.35 3.87 1.25 4.1 1.12 4.35 1 4.65.84 5 .68 5.4.5 5.9.28 6.45.03 2.7h-2l-.04-2.65-.27-6.38-.5-5.8-.7-5.33-.82-4.92-.98-4.57-1.1-4.27-1.22-4.02-1.33-3.8-1.43-3.62-1.54-3.45-1.65-3.32-1.76-3.2-1.88-3.08-2-3-2.15-2.94-2.3-2.88-2.45-2.84-2.64-2.8-2.86-2.8-3.1-2.8-3.4-2.78-3.73-2.83-4.13-2.86-4.63-2.93-5.23-3-6-3.14-7.06-3.3-8.46-3.54-10.6-3.92-14.26-4.6-23.03-6.34-18.04-4.37-33.53-6.96-36.4-5.97-38.9-4.72-40.98-3.24-42.64-1.58-43.9.2-124 4.7-50.9 4.18-34.34 4.3-25.86 4.35-20.53 4.34-16.82 4.3-14.1 4.26-12.06 4.2-10.42 4.1-9.12 4.06-8.05 4-7.17 3.94-6.44 3.9-5.8 3.85-5.27 3.82-4.8 3.8-4.4 3.8-4.05 3.8-3.73 3.8-3.46 3.84-3.2 3.87-2.96 3.9-2.76 3.97-2.56 4.03-2.38 4.12-2.2 4.2-2.04 4.35-1.88 4.47-1.73 4.64-1.56 4.8-1.4 5.04-1.24 5.26-1.05 5.54-.87 5.85-.64 6.2-.4 6.64L281 478l-2-.05.13-6.17.42-6.7.66-6.3.88-5.94 1.08-5.62 1.25-5.34 1.42-5.1 1.6-4.9 1.75-4.7 1.9-4.56 2.1-4.42 2.23-4.3 2.42-4.18 2.6-4.1 2.8-4.04 3.03-3.97 3.24-3.93 3.5-3.9 3.8-3.86 4.1-3.85 4.47-3.86 4.86-3.86 5.33-3.88 5.87-3.9 6.5-3.94 7.25-3.98 8.13-4.03 9.2-4.1 10.5-4.14 12.12-4.2 14.2-4.28 16.9-4.33 20.6-4.38 25.96-4.36 34.42-4.3 51-4.2 124.06-4.7 44-.2z"/><path d="M281.02 478l-.02 1.12-.95-.12-1.05.03.02-1.08zM1061 459.03l-1-.03h-.92l-.1-1 2-.04zM811.43 615.3l-8.36 4.68-.97-1.74 8.35-4.7zm25.08-14.1l-16.7 9.4-1-1.75 16.73-9.4zm25.1-14.1l-16.73 9.4-.98-1.74 16.7-9.4zm8.35-4.7l-.9-1.6h3.77zm41.8-23.47l-.48.27h-4.1l3.6-2zm25.07-14.1l-16.72 9.4-.98-1.74 16.72-9.4zm25.08-14.08l-16.72 9.4-.98-1.75 16.72-9.4zm16.72-9.4l-8.36 4.7-.98-1.74 8.36-4.68z"/><path d="M979 520v.4l.03.73-.43.24-.98-1.74 1.42-.8zM813.6 602.23l-9.17 15.85 18.3.4-.04 2L801 620l10.87-18.77z"/><use xlink:href="#g" transform="matrix(1,0,0,1,836.05,559.2) translate(0 14.4)"/><path d="M978.62 518.64l-.98 1.74-8.36-4.7.98-1.74zm-16.72-9.4l-.98 1.75-16.72-9.4.98-1.75zm-25.08-14.08l-.98 1.74-16.72-9.4.98-1.73zm-25.08-14.1l-.98 1.75-3.58-2h4.1zm-38.92-21.86h-3.78l.9-1.6zm-11.23-6.3l-1 1.74-16.7-9.4.97-1.74zm-25.1-14.1l-.97 1.75-16.72-9.4 1-1.74zm-25.07-14.1l-.98 1.76-8.35-4.7.97-1.74z"/><path d="M979.03 518.87L979 520v.4l.03.76-1.4-.8.97-1.73zM822.73 421.52l-18.3.4 9.17 15.85-1.73 1L801 420l21.7-.48z"/><use xlink:href="#g" transform="matrix(1,0,0,1,836.05,459.2) translate(0 14.4)"/><path d="M720 482v8.35m0 8.36v16.7m0 8.37v16.7m0 8.36v8.35" stroke="#000" stroke-width="2" fill="none"/><path d="M720 481h1v1.03h-2v-1.06z"/><path d="M709.82 539.82L720 557.04l10.18-17.22" stroke="#000" stroke-width="2" fill="none"/><path d="M1739.75 439.75c0 10.9-8.84 19.75-19.75 19.75-10.9 0-19.75-8.84-19.75-19.75 0-10.9 8.84-19.75 19.75-19.75 10.9 0 19.75 8.84 19.75 19.75z" stroke="#000" stroke-width="2"/><path d="M1720 459.5v55.3l40 63.2m-40-63.2l-40 63.2m0-98.75h80" stroke="#000" stroke-width="2" fill="none"/><path d="M1680 420h80v180h-80z" fill="none"/><use xlink:href="#h" transform="matrix(1,0,0,1,1600,578) translate(81.07499999999999 14.6)"/><use xlink:href="#i" transform="matrix(1,0,0,1,1600,578) translate(110.975 14.6)"/><path d="M1718.13 509.5l-336.26-189M1718.1 509.5l.9.5" stroke="#000" stroke-width="2" fill="none"/><path d="M1382.38 319.63l-.98 1.74-.43-.24.03-1.12v-.4l-.03-.77z"/><path d="M1380 320c0 33.14-35.82 60-80 60s-80-26.86-80-60 35.82-60 80-60 80 26.86 80 60z" stroke="#fff" stroke-width="2"/><g><use xlink:href="#j" transform="matrix(1,0,0,1,1220,260) translate(47.07999999999999 51.9)"/><use xlink:href="#k" transform="matrix(1,0,0,1,1220,260) translate(42.029999999999994 73.5)"/></g><defs><path d="M212-179c-10-28-35-45-73-45-59 0-87 40-87 99 0 60 29 101 89 101 43 0 62-24 78-52l27 14C228-24 195 4 139 4 59 4 22-46 18-125c-6-104 99-153 187-111 19 9 31 26 39 46" id="l"/><path d="M84 4C-5 8 30-112 23-190h32v120c0 31 7 50 39 49 72-2 45-101 50-169h31l1 190h-30c-1-10 1-25-2-33-11 22-28 36-60 37" id="m"/><path d="M135-143c-3-34-86-38-87 0 15 53 115 12 119 90S17 21 10-45l28-5c4 36 97 45 98 0-10-56-113-15-118-90-4-57 82-63 122-42 12 7 21 19 24 35" id="n"/><path d="M59-47c-2 24 18 29 38 22v24C64 9 27 4 27-40v-127H5v-23h24l9-43h21v43h35v23H59v120" id="o"/><path d="M100-194c62-1 85 37 85 99 1 63-27 99-86 99S16-35 15-95c0-66 28-99 85-99zM99-20c44 1 53-31 53-75 0-43-8-75-51-75s-53 32-53 75 10 74 51 75" id="p"/><path d="M210-169c-67 3-38 105-44 169h-31v-121c0-29-5-50-35-48C34-165 62-65 56 0H25l-1-190h30c1 10-1 24 2 32 10-44 99-50 107 0 11-21 27-35 58-36 85-2 47 119 55 194h-31v-121c0-29-5-49-35-48" id="q"/><path d="M100-194c63 0 86 42 84 106H49c0 40 14 67 53 68 26 1 43-12 49-29l28 8c-11 28-37 45-77 45C44 4 14-33 15-96c1-61 26-98 85-98zm52 81c6-60-76-77-97-28-3 7-6 17-6 28h103" id="r"/><path d="M114-163C36-179 61-72 57 0H25l-1-190h30c1 12-1 29 2 39 6-27 23-49 58-41v29" id="s"/><g id="a"><use transform="matrix(0.05,0,0,0.05,0,0)" xlink:href="#l"/><use transform="matrix(0.05,0,0,0.05,12.950000000000001,0)" xlink:href="#m"/><use transform="matrix(0.05,0,0,0.05,22.950000000000003,0)" xlink:href="#n"/><use transform="matrix(0.05,0,0,0.05,31.950000000000003,0)" xlink:href="#o"/><use transform="matrix(0.05,0,0,0.05,36.95,0)" xlink:href="#p"/><use transform="matrix(0.05,0,0,0.05,46.95,0)" xlink:href="#q"/><use transform="matrix(0.05,0,0,0.05,61.900000000000006,0)" xlink:href="#r"/><use transform="matrix(0.05,0,0,0.05,71.9,0)" xlink:href="#s"/></g><path d="M266 0h-40l-56-210L115 0H75L2-248h35L96-30l15-64 43-154h32l59 218 59-218h35" id="t"/><path d="M24-231v-30h32v30H24zM24 0v-190h32V0H24" id="u"/><path d="M106-169C34-169 62-67 57 0H25v-261h32l-1 103c12-21 28-36 61-36 89 0 53 116 60 194h-32v-121c2-32-8-49-39-48" id="v"/><path d="M85-194c31 0 48 13 60 33l-1-100h32l1 261h-30c-2-10 0-23-3-31C134-8 116 4 85 4 32 4 16-35 15-94c0-66 23-100 70-100zm9 24c-40 0-46 34-46 75 0 40 6 74 45 74 42 0 51-32 51-76 0-42-9-74-50-73" id="w"/><path d="M141-36C126-15 110 5 73 4 37 3 15-17 15-53c-1-64 63-63 125-63 3-35-9-54-41-54-24 1-41 7-42 31l-33-3c5-37 33-52 76-52 45 0 72 20 72 64v82c-1 20 7 32 28 27v20c-31 9-61-2-59-35zM48-53c0 20 12 33 32 33 41-3 63-29 60-74-43 2-92-5-92 41" id="x"/><path d="M206 0h-36l-40-164L89 0H53L-1-190h32L70-26l43-164h34l41 164 42-164h31" id="y"/><g id="b"><use transform="matrix(0.05,0,0,0.05,0,0)" xlink:href="#t"/><use transform="matrix(0.05,0,0,0.05,16.95,0)" xlink:href="#u"/><use transform="matrix(0.05,0,0,0.05,20.9,0)" xlink:href="#o"/><use transform="matrix(0.05,0,0,0.05,25.899999999999995,0)" xlink:href="#v"/><use transform="matrix(0.05,0,0,0.05,35.9,0)" xlink:href="#w"/><use transform="matrix(0.05,0,0,0.05,45.9,0)" xlink:href="#s"/><use transform="matrix(0.05,0,0,0.05,51.85,0)" xlink:href="#x"/><use transform="matrix(0.05,0,0,0.05,61.85,0)" xlink:href="#y"/></g><path d="M240 0l2-218c-23 76-54 145-80 218h-23L58-218 59 0H30v-248h44l77 211c21-75 51-140 76-211h43V0h-30" id="z"/><path d="M117-194c89-4 53 116 60 194h-32v-121c0-31-8-49-39-48C34-167 62-67 57 0H25l-1-190h30c1 10-1 24 2 32 11-22 29-35 61-36" id="A"/><path d="M179-190L93 31C79 59 56 82 12 73V49c39 6 53-20 64-50L1-190h34L92-34l54-156h33" id="B"/><g id="c"><use transform="matrix(0.05,0,0,0.05,0,0)" xlink:href="#z"/><use transform="matrix(0.05,0,0,0.05,14.950000000000001,0)" xlink:href="#p"/><use transform="matrix(0.05,0,0,0.05,24.950000000000003,0)" xlink:href="#A"/><use transform="matrix(0.05,0,0,0.05,34.95,0)" xlink:href="#r"/><use transform="matrix(0.05,0,0,0.05,44.95,0)" xlink:href="#B"/></g><path d="M30-248c118-7 216 8 213 122C240-48 200 0 122 0H30v-248zM63-27c89 8 146-16 146-99s-60-101-146-95v194" id="C"/><path d="M115-194c55 1 70 41 70 98S169 2 115 4C84 4 66-9 55-30l1 105H24l-1-265h31l2 30c10-21 28-34 59-34zm-8 174c40 0 45-34 45-75s-6-73-45-74c-42 0-51 32-51 76 0 43 10 73 51 73" id="D"/><g id="d"><use transform="matrix(0.05,0,0,0.05,0,0)" xlink:href="#C"/><use transform="matrix(0.05,0,0,0.05,12.950000000000001,0)" xlink:href="#r"/><use transform="matrix(0.05,0,0,0.05,22.950000000000003,0)" xlink:href="#D"/><use transform="matrix(0.05,0,0,0.05,32.95,0)" xlink:href="#p"/><use transform="matrix(0.05,0,0,0.05,42.95,0)" xlink:href="#n"/><use transform="matrix(0.05,0,0,0.05,51.95,0)" xlink:href="#u"/><use transform="matrix(0.05,0,0,0.05,55.900000000000006,0)" xlink:href="#o"/></g><path d="M127-220V0H93v-220H8v-28h204v28h-85" id="E"/><path d="M101-234c-31-9-42 10-38 44h38v23H63V0H32v-167H5v-23h27c-7-52 17-82 69-68v24" id="F"/><g id="e"><use transform="matrix(0.05,0,0,0.05,0,0)" xlink:href="#E"/><use transform="matrix(0.05,0,0,0.05,10.3,0)" xlink:href="#s"/><use transform="matrix(0.05,0,0,0.05,16.25,0)" xlink:href="#x"/><use transform="matrix(0.05,0,0,0.05,26.25,0)" xlink:href="#A"/><use transform="matrix(0.05,0,0,0.05,36.25,0)" xlink:href="#n"/><use transform="matrix(0.05,0,0,0.05,45.25,0)" xlink:href="#F"/><use transform="matrix(0.05,0,0,0.05,50.25,0)" xlink:href="#r"/><use transform="matrix(0.05,0,0,0.05,60.25,0)" xlink:href="#s"/></g><path d="M63-220v92h138v28H63V0H30v-248h175v28H63" id="G"/><g id="f"><use transform="matrix(0.05,0,0,0.05,0,0)" xlink:href="#G"/><use transform="matrix(0.05,0,0,0.05,10.950000000000001,0)" xlink:href="#m"/><use transform="matrix(0.05,0,0,0.05,20.950000000000003,0)" xlink:href="#A"/><use transform="matrix(0.05,0,0,0.05,30.950000000000003,0)" xlink:href="#w"/><use transform="matrix(0.05,0,0,0.05,40.95,0)" xlink:href="#n"/></g><path d="M18-100v-36l175-74v27L42-118l151 64v27" id="H"/><path d="M96-169c-40 0-48 33-48 73s9 75 48 75c24 0 41-14 43-38l32 2c-6 37-31 61-74 61-59 0-76-41-82-99-10-93 101-131 147-64 4 7 5 14 7 22l-32 3c-4-21-16-35-41-35" id="I"/><path d="M24 0v-261h32V0H24" id="J"/><path d="M18-27v-27l151-64-151-65v-27l175 74v36" id="K"/><g id="g"><use transform="matrix(0.05,0,0,0.05,0,0)" xlink:href="#H"/><use transform="matrix(0.05,0,0,0.05,10.5,0)" xlink:href="#H"/><use transform="matrix(0.05,0,0,0.05,21,0)" xlink:href="#u"/><use transform="matrix(0.05,0,0,0.05,24.95,0)" xlink:href="#A"/><use transform="matrix(0.05,0,0,0.05,34.95,0)" xlink:href="#I"/><use transform="matrix(0.05,0,0,0.05,43.95,0)" xlink:href="#J"/><use transform="matrix(0.05,0,0,0.05,47.900000000000006,0)" xlink:href="#m"/><use transform="matrix(0.05,0,0,0.05,57.900000000000006,0)" xlink:href="#w"/><use transform="matrix(0.05,0,0,0.05,67.9,0)" xlink:href="#r"/><use transform="matrix(0.05,0,0,0.05,77.9,0)" xlink:href="#n"/><use transform="matrix(0.05,0,0,0.05,86.9,0)" xlink:href="#K"/><use transform="matrix(0.05,0,0,0.05,97.4,0)" xlink:href="#K"/></g><path d="M33 0v-38h34V0H33" id="L"/><g id="h"><use transform="matrix(0.05,0,0,0.05,0,0)" xlink:href="#z"/><use transform="matrix(0.05,0,0,0.05,14.950000000000001,0)" xlink:href="#s"/><use transform="matrix(0.05,0,0,0.05,19.900000000000002,0)" xlink:href="#L"/></g><path d="M233-177c-1 41-23 64-60 70L243 0h-38l-65-103H63V0H30v-248c88 3 205-21 203 71zM63-129c60-2 137 13 137-47 0-61-80-42-137-45v92" id="M"/><path d="M115-194c53 0 69 39 70 98 0 66-23 100-70 100C84 3 66-7 56-30L54 0H23l1-261h32v101c10-23 28-34 59-34zm-8 174c40 0 45-34 45-75 0-40-5-75-45-74-42 0-51 32-51 76 0 43 10 73 51 73" id="N"/><g id="i"><use transform="matrix(0.05,0,0,0.05,0,0)" xlink:href="#M"/><use transform="matrix(0.05,0,0,0.05,12.950000000000001,0)" xlink:href="#p"/><use transform="matrix(0.05,0,0,0.05,22.950000000000003,0)" xlink:href="#N"/><use transform="matrix(0.05,0,0,0.05,32.95,0)" xlink:href="#p"/><use transform="matrix(0.05,0,0,0.05,42.95,0)" xlink:href="#o"/></g><path fill="#fff" d="M190 0L58-211 59 0H30v-248h39L202-35l-2-213h31V0h-41" id="O"/><path fill="#fff" d="M100-194c63 0 86 42 84 106H49c0 40 14 67 53 68 26 1 43-12 49-29l28 8c-11 28-37 45-77 45C44 4 14-33 15-96c1-61 26-98 85-98zm52 81c6-60-76-77-97-28-3 7-6 17-6 28h103" id="P"/><path fill="#fff" d="M59-47c-2 24 18 29 38 22v24C64 9 27 4 27-40v-127H5v-23h24l9-43h21v43h35v23H59v120" id="Q"/><path fill="#fff" d="M206 0h-36l-40-164L89 0H53L-1-190h32L70-26l43-164h34l41 164 42-164h31" id="R"/><path fill="#fff" d="M100-194c62-1 85 37 85 99 1 63-27 99-86 99S16-35 15-95c0-66 28-99 85-99zM99-20c44 1 53-31 53-75 0-43-8-75-51-75s-53 32-53 75 10 74 51 75" id="S"/><path fill="#fff" d="M114-163C36-179 61-72 57 0H25l-1-190h30c1 12-1 29 2 39 6-27 23-49 58-41v29" id="T"/><path fill="#fff" d="M143 0L79-87 56-68V0H24v-261h32v163l83-92h37l-77 82L181 0h-38" id="U"/><g id="j"><use transform="matrix(0.05,0,0,0.05,0,0)" xlink:href="#O"/><use transform="matrix(0.05,0,0,0.05,12.950000000000001,0)" xlink:href="#P"/><use transform="matrix(0.05,0,0,0.05,22.950000000000003,0)" xlink:href="#Q"/><use transform="matrix(0.05,0,0,0.05,27.950000000000003,0)" xlink:href="#R"/><use transform="matrix(0.05,0,0,0.05,40.900000000000006,0)" xlink:href="#S"/><use transform="matrix(0.05,0,0,0.05,50.900000000000006,0)" xlink:href="#T"/><use transform="matrix(0.05,0,0,0.05,56.85,0)" xlink:href="#U"/></g><path fill="#fff" d="M30 0v-248h187v28H63v79h144v27H63v87h162V0H30" id="V"/><path fill="#fff" d="M108 0H70L1-190h34L89-25l56-165h34" id="W"/><path fill="#fff" d="M135-143c-3-34-86-38-87 0 15 53 115 12 119 90S17 21 10-45l28-5c4 36 97 45 98 0-10-56-113-15-118-90-4-57 82-63 122-42 12 7 21 19 24 35" id="X"/><path fill="#fff" d="M85-194c31 0 48 13 60 33l-1-100h32l1 261h-30c-2-10 0-23-3-31C134-8 116 4 85 4 32 4 16-35 15-94c0-66 23-100 70-100zm9 24c-40 0-46 34-46 75 0 40 6 74 45 74 42 0 51-32 51-76 0-42-9-74-50-73" id="Y"/><path fill="#fff" d="M115-194c55 1 70 41 70 98S169 2 115 4C84 4 66-9 55-30l1 105H24l-1-265h31l2 30c10-21 28-34 59-34zm-8 174c40 0 45-34 45-75s-6-73-45-74c-42 0-51 32-51 76 0 43 10 73 51 73" id="Z"/><g id="k"><use transform="matrix(0.05,0,0,0.05,0,0)" xlink:href="#V"/><use transform="matrix(0.05,0,0,0.05,12,0)" xlink:href="#W"/><use transform="matrix(0.05,0,0,0.05,21,0)" xlink:href="#P"/><use transform="matrix(0.05,0,0,0.05,31,0)" xlink:href="#X"/><use transform="matrix(0.05,0,0,0.05,40,0)" xlink:href="#Y"/><use transform="matrix(0.05,0,0,0.05,50,0)" xlink:href="#T"/><use transform="matrix(0.05,0,0,0.05,55.95,0)" xlink:href="#S"/><use transform="matrix(0.05,0,0,0.05,65.95,0)" xlink:href="#Z"/></g></defs></g></svg>