<svg xmlns="http://www.w3.org/2000/svg" xmlns:xlink="http://www.w3.org/1999/xlink" xmlns:lucid="lucid" width="1244.65" height="380.6"><g transform="translate(-220 -980)" lucid:page-tab-id="UQKuB2do_qyv"><path d="M0 0h2656v1760H0z" fill="#fff"/><path d="M299.75 1039.75c0 10.9-8.84 19.75-19.75 19.75-10.9 0-19.75-8.84-19.75-19.75 0-10.9 8.84-19.75 19.75-19.75 10.9 0 19.75 8.84 19.75 19.75z" stroke="#000" stroke-width="2" fill="#fff"/><path d="M280 1059.5v55.3l40 63.2m-40-63.2l-40 63.2m0-98.75h80" stroke="#000" stroke-width="2" fill="none"/><path d="M240 1020h80v180h-80z" fill="none"/><use xlink:href="#a" transform="matrix(1,0,0,1,160,1178) translate(98.6 14.6)"/><path d="M800 1060c0 33.14-35.82 60-80 60s-80-26.86-80-60 35.82-60 80-60 80 26.86 80 60z" stroke="#000" stroke-width="2" fill="#fff"/><use xlink:href="#b" transform="matrix(1,0,0,1,640,1000) translate(23.005000000000003 63.15)"/><use xlink:href="#c" transform="matrix(1,0,0,1,640,1000) translate(72.005 63.15)"/><path d="M800 1280c0 33.14-35.82 60-80 60s-80-26.86-80-60 35.82-60 80-60 80 26.86 80 60z" stroke="#000" stroke-width="2" fill="#fff"/><use xlink:href="#d" transform="matrix(1,0,0,1,640,1220) translate(22.055 63.15)"/><use xlink:href="#c" transform="matrix(1,0,0,1,640,1220) translate(72.95500000000001 63.15)"/><path d="M321 1078.2l317-18.14" stroke="#000" stroke-width="2" fill="none"/><path d="M321.08 1079.2l-1.08.05v-1h-3l-.05-.83 4.02-.23zM639 1060v.4l.03.6-1 .06-.1-2 1.1-.06z"/><path d="M320.85 1078.78l317.3 200.7" stroke="#000" stroke-width="2" fill="none"/><path d="M321.4 1077.95l-1.07 1.7-.33-.22v-1.18h-1.87l-1.2-.76 1.07-1.7zM639.04 1278.84L639 1280v.4l.03.8-1.43-.9 1.07-1.7z"/><path d="M720 1122v10.58m0 10.57v21.15m0 10.58v21.15m0 10.58v10.58" stroke="#000" stroke-width="2" fill="none"/><path d="M720 1121h1v1.03h-2v-1.06z"/><path d="M709.82 1199.82l10.18 17.22 10.18-17.22" stroke="#000" stroke-width="2" fill="none"/><path d="M1399.75 1159.75c0 10.9-8.84 19.75-19.75 19.75-10.9 0-19.75-8.84-19.75-19.75 0-10.9 8.84-19.75 19.75-19.75 10.9 0 19.75 8.84 19.75 19.75z" stroke="#000" stroke-width="2"/><path d="M1380 1179.5v55.3l40 63.2m-40-63.2l-40 63.2m0-98.75h80" stroke="#000" stroke-width="2" fill="none"/><path d="M1340 1140h80v180h-80z" fill="none"/><use xlink:href="#e" transform="matrix(1,0,0,1,1260,1298) translate(62.39999999999999 14.4)"/><use xlink:href="#f" transform="matrix(1,0,0,1,1260,1298) translate(110.2 14.4)"/><use xlink:href="#g" transform="matrix(1,0,0,1,1260,1298) translate(171.65 14.4)"/><use xlink:href="#h" transform="matrix(1,0,0,1,1260,1298) translate(69.625 36)"/><use xlink:href="#i" transform="matrix(1,0,0,1,1260,1298) translate(127.575 36)"/><path d="M1160 1160c0 33.14-35.82 60-80 60s-80-26.86-80-60 35.82-60 80-60 80 26.86 80 60z" stroke="#fff" stroke-width="2"/><use xlink:href="#j" transform="matrix(1,0,0,1,1000,1100) translate(53.029999999999994 51.9)"/><use xlink:href="#k" transform="matrix(1,0,0,1,1000,1100) translate(35.05499999999999 73.5)"/><path d="M1378.05 1229.7l-248.43-77.4M1378.02 1229.7l.98.3M1129.65 1152.3l-.98-.3" stroke="#000" stroke-width="2" fill="none"/><path d="M1003.32 1137.72l-.63 1.9-9.62-3.18.63-1.9zm-19.2-6.35l-.64 1.9-19.2-6.35.62-1.9zm-28.83-9.52l-.64 1.9-19.2-6.35.45-1.38h1.74zm-86.45-28.56l-.38 1.12h-2.6l-16.86-5.58.64-1.9zm-28.82-9.53l-.63 1.9-19.2-6.35.62-1.9zm-28.8-9.52l-.64 1.9-9.62-3.17.63-1.9z"/><path d="M1004.4 1138.08l-.82 1.63-.07.2-.83-.3.62-1.9zM821.2 1068.78l-17.9 3.9 12.04 13.8-1.5 1.32-14.27-16.34 21.2-4.63z"/><g><use xlink:href="#l" transform="matrix(1,0,0,1,847.8118064375067,1094.4190013682555) translate(0 14.4)"/></g><path d="M811.03 1263.85l-9.6 4.1-.8-1.85 9.6-4.1zm28.82-12.3l-19.2 8.2-.8-1.84 19.22-8.2zm28.83-12.3l-19.22 8.2-.78-1.84 19.2-8.18zm9.6-4.1l-.08-.2h.57zm47.5-21.8h-1.47l1.24-.52zm29.37-10.97l-19.2 8.2-.8-1.85 19.22-8.2zm28.83-12.3l-19.22 8.2-.78-1.84 19.2-8.2zm19.2-8.2l-9.6 4.1-.78-1.83 9.6-4.1z"/><path d="M1003.77 1180.68l.4.8-1 .42-.78-1.84.92-.4zM813.8 1251.44l-10.83 14.76 18.15 2.4-.26 1.97-21.5-2.83 12.84-17.48z"/><g><use xlink:href="#l" transform="matrix(1,0,0,1,847.5889000774125,1213.3562518480003) translate(0 14.4)"/></g><defs><path d="M127-220V0H93v-220H8v-28h204v28h-85" id="m"/><path d="M100-194c63 0 86 42 84 106H49c0 40 14 67 53 68 26 1 43-12 49-29l28 8c-11 28-37 45-77 45C44 4 14-33 15-96c1-61 26-98 85-98zm52 81c6-60-76-77-97-28-3 7-6 17-6 28h103" id="n"/><path d="M24 0v-261h32V0H24" id="o"/><path d="M114-163C36-179 61-72 57 0H25l-1-190h30c1 12-1 29 2 39 6-27 23-49 58-41v29" id="p"/><g id="a"><use transform="matrix(0.05,0,0,0.05,0,0)" xlink:href="#m"/><use transform="matrix(0.05,0,0,0.05,8.950000000000001,0)" xlink:href="#n"/><use transform="matrix(0.05,0,0,0.05,18.950000000000003,0)" xlink:href="#o"/><use transform="matrix(0.05,0,0,0.05,22.900000000000002,0)" xlink:href="#o"/><use transform="matrix(0.05,0,0,0.05,26.85,0)" xlink:href="#n"/><use transform="matrix(0.05,0,0,0.05,36.85,0)" xlink:href="#p"/></g><path d="M140-251c81 0 123 46 123 126C263-46 219 4 140 4 59 4 17-45 17-125s42-126 123-126zm0 227c63 0 89-41 89-101s-29-99-89-99c-61 0-89 39-89 99S79-25 140-24" id="q"/><path d="M115-194c55 1 70 41 70 98S169 2 115 4C84 4 66-9 55-30l1 105H24l-1-265h31l2 30c10-21 28-34 59-34zm-8 174c40 0 45-34 45-75s-6-73-45-74c-42 0-51 32-51 76 0 43 10 73 51 73" id="r"/><path d="M117-194c89-4 53 116 60 194h-32v-121c0-31-8-49-39-48C34-167 62-67 57 0H25l-1-190h30c1 10-1 24 2 32 11-22 29-35 61-36" id="s"/><g id="b"><use transform="matrix(0.05,0,0,0.05,0,0)" xlink:href="#q"/><use transform="matrix(0.05,0,0,0.05,14,0)" xlink:href="#r"/><use transform="matrix(0.05,0,0,0.05,24,0)" xlink:href="#n"/><use transform="matrix(0.05,0,0,0.05,34,0)" xlink:href="#s"/></g><path d="M205 0l-28-72H64L36 0H1l101-248h38L239 0h-34zm-38-99l-47-123c-12 45-31 82-46 123h93" id="t"/><path d="M96-169c-40 0-48 33-48 73s9 75 48 75c24 0 41-14 43-38l32 2c-6 37-31 61-74 61-59 0-76-41-82-99-10-93 101-131 147-64 4 7 5 14 7 22l-32 3c-4-21-16-35-41-35" id="u"/><path d="M100-194c62-1 85 37 85 99 1 63-27 99-86 99S16-35 15-95c0-66 28-99 85-99zM99-20c44 1 53-31 53-75 0-43-8-75-51-75s-53 32-53 75 10 74 51 75" id="v"/><path d="M84 4C-5 8 30-112 23-190h32v120c0 31 7 50 39 49 72-2 45-101 50-169h31l1 190h-30c-1-10 1-25-2-33-11 22-28 36-60 37" id="w"/><path d="M59-47c-2 24 18 29 38 22v24C64 9 27 4 27-40v-127H5v-23h24l9-43h21v43h35v23H59v120" id="x"/><g id="c"><use transform="matrix(0.05,0,0,0.05,0,0)" xlink:href="#t"/><use transform="matrix(0.05,0,0,0.05,12,0)" xlink:href="#u"/><use transform="matrix(0.05,0,0,0.05,21,0)" xlink:href="#u"/><use transform="matrix(0.05,0,0,0.05,30,0)" xlink:href="#v"/><use transform="matrix(0.05,0,0,0.05,40,0)" xlink:href="#w"/><use transform="matrix(0.05,0,0,0.05,50,0)" xlink:href="#s"/><use transform="matrix(0.05,0,0,0.05,60,0)" xlink:href="#x"/></g><path d="M212-179c-10-28-35-45-73-45-59 0-87 40-87 99 0 60 29 101 89 101 43 0 62-24 78-52l27 14C228-24 195 4 139 4 59 4 22-46 18-125c-6-104 99-153 187-111 19 9 31 26 39 46" id="y"/><path d="M135-143c-3-34-86-38-87 0 15 53 115 12 119 90S17 21 10-45l28-5c4 36 97 45 98 0-10-56-113-15-118-90-4-57 82-63 122-42 12 7 21 19 24 35" id="z"/><g id="d"><use transform="matrix(0.05,0,0,0.05,0,0)" xlink:href="#y"/><use transform="matrix(0.05,0,0,0.05,12.950000000000001,0)" xlink:href="#o"/><use transform="matrix(0.05,0,0,0.05,16.900000000000002,0)" xlink:href="#v"/><use transform="matrix(0.05,0,0,0.05,26.900000000000002,0)" xlink:href="#z"/><use transform="matrix(0.05,0,0,0.05,35.900000000000006,0)" xlink:href="#n"/></g><path d="M179-190L93 31C79 59 56 82 12 73V49c39 6 53-20 64-50L1-190h34L92-34l54-156h33" id="A"/><g id="e"><use transform="matrix(0.05,0,0,0.05,0,0)" xlink:href="#m"/><use transform="matrix(0.05,0,0,0.05,9.950000000000001,0)" xlink:href="#A"/><use transform="matrix(0.05,0,0,0.05,18.950000000000003,0)" xlink:href="#p"/><use transform="matrix(0.05,0,0,0.05,24.900000000000002,0)" xlink:href="#n"/><use transform="matrix(0.05,0,0,0.05,34.900000000000006,0)" xlink:href="#o"/><use transform="matrix(0.05,0,0,0.05,38.85000000000001,0)" xlink:href="#o"/></g><path d="M266 0h-40l-56-210L115 0H75L2-248h35L96-30l15-64 43-154h32l59 218 59-218h35" id="B"/><path d="M24-231v-30h32v30H24zM24 0v-190h32V0H24" id="C"/><path d="M143 0L79-87 56-68V0H24v-261h32v163l83-92h37l-77 82L181 0h-38" id="D"/><g id="f"><use transform="matrix(0.05,0,0,0.05,0,0)" xlink:href="#B"/><use transform="matrix(0.05,0,0,0.05,16.599999999999998,0)" xlink:href="#n"/><use transform="matrix(0.05,0,0,0.05,26.599999999999994,0)" xlink:href="#o"/><use transform="matrix(0.05,0,0,0.05,30.549999999999997,0)" xlink:href="#o"/><use transform="matrix(0.05,0,0,0.05,34.5,0)" xlink:href="#C"/><use transform="matrix(0.05,0,0,0.05,38.45,0)" xlink:href="#u"/><use transform="matrix(0.05,0,0,0.05,47.45,0)" xlink:href="#D"/></g><path d="M16-82v-28h88v28H16" id="E"/><use transform="matrix(0.05,0,0,0.05,0,0)" xlink:href="#E" id="g"/><path d="M233-177c-1 41-23 64-60 70L243 0h-38l-65-103H63V0H30v-248c88 3 205-21 203 71zM63-129c60-2 137 13 137-47 0-61-80-42-137-45v92" id="F"/><path d="M177-190C167-65 218 103 67 71c-23-6-38-20-44-43l32-5c15 47 100 32 89-28v-30C133-14 115 1 83 1 29 1 15-40 15-95c0-56 16-97 71-98 29-1 48 16 59 35 1-10 0-23 2-32h30zM94-22c36 0 50-32 50-73 0-42-14-75-50-75-39 0-46 34-46 75s6 73 46 73" id="G"/><g id="h"><use transform="matrix(0.05,0,0,0.05,0,0)" xlink:href="#F"/><use transform="matrix(0.05,0,0,0.05,12.950000000000001,0)" xlink:href="#v"/><use transform="matrix(0.05,0,0,0.05,22.950000000000003,0)" xlink:href="#w"/><use transform="matrix(0.05,0,0,0.05,32.95,0)" xlink:href="#G"/><use transform="matrix(0.05,0,0,0.05,42.95,0)" xlink:href="#n"/></g><g id="i"><use transform="matrix(0.05,0,0,0.05,0,0)" xlink:href="#m"/><use transform="matrix(0.05,0,0,0.05,8.950000000000001,0)" xlink:href="#n"/><use transform="matrix(0.05,0,0,0.05,18.950000000000003,0)" xlink:href="#o"/><use transform="matrix(0.05,0,0,0.05,22.900000000000002,0)" xlink:href="#o"/><use transform="matrix(0.05,0,0,0.05,26.85,0)" xlink:href="#n"/><use transform="matrix(0.05,0,0,0.05,36.85,0)" xlink:href="#p"/></g><path fill="#fff" d="M240 0l2-218c-23 76-54 145-80 218h-23L58-218 59 0H30v-248h44l77 211c21-75 51-140 76-211h43V0h-30" id="H"/><path fill="#fff" d="M100-194c62-1 85 37 85 99 1 63-27 99-86 99S16-35 15-95c0-66 28-99 85-99zM99-20c44 1 53-31 53-75 0-43-8-75-51-75s-53 32-53 75 10 74 51 75" id="I"/><path fill="#fff" d="M117-194c89-4 53 116 60 194h-32v-121c0-31-8-49-39-48C34-167 62-67 57 0H25l-1-190h30c1 10-1 24 2 32 11-22 29-35 61-36" id="J"/><path fill="#fff" d="M100-194c63 0 86 42 84 106H49c0 40 14 67 53 68 26 1 43-12 49-29l28 8c-11 28-37 45-77 45C44 4 14-33 15-96c1-61 26-98 85-98zm52 81c6-60-76-77-97-28-3 7-6 17-6 28h103" id="K"/><path fill="#fff" d="M179-190L93 31C79 59 56 82 12 73V49c39 6 53-20 64-50L1-190h34L92-34l54-156h33" id="L"/><g id="j"><use transform="matrix(0.05,0,0,0.05,0,0)" xlink:href="#H"/><use transform="matrix(0.05,0,0,0.05,14.950000000000001,0)" xlink:href="#I"/><use transform="matrix(0.05,0,0,0.05,24.950000000000003,0)" xlink:href="#J"/><use transform="matrix(0.05,0,0,0.05,34.95,0)" xlink:href="#K"/><use transform="matrix(0.05,0,0,0.05,44.95,0)" xlink:href="#L"/></g><path fill="#fff" d="M30 0v-248h33v221h125V0H30" id="M"/><path fill="#fff" d="M141-36C126-15 110 5 73 4 37 3 15-17 15-53c-1-64 63-63 125-63 3-35-9-54-41-54-24 1-41 7-42 31l-33-3c5-37 33-52 76-52 45 0 72 20 72 64v82c-1 20 7 32 28 27v20c-31 9-61-2-59-35zM48-53c0 20 12 33 32 33 41-3 63-29 60-74-43 2-92-5-92 41" id="N"/><path fill="#fff" d="M84 4C-5 8 30-112 23-190h32v120c0 31 7 50 39 49 72-2 45-101 50-169h31l1 190h-30c-1-10 1-25-2-33-11 22-28 36-60 37" id="O"/><path fill="#fff" d="M85-194c31 0 48 13 60 33l-1-100h32l1 261h-30c-2-10 0-23-3-31C134-8 116 4 85 4 32 4 16-35 15-94c0-66 23-100 70-100zm9 24c-40 0-46 34-46 75 0 40 6 74 45 74 42 0 51-32 51-76 0-42-9-74-50-73" id="P"/><path fill="#fff" d="M114-163C36-179 61-72 57 0H25l-1-190h30c1 12-1 29 2 39 6-27 23-49 58-41v29" id="Q"/><path fill="#fff" d="M24-231v-30h32v30H24zM24 0v-190h32V0H24" id="R"/><path fill="#fff" d="M177-190C167-65 218 103 67 71c-23-6-38-20-44-43l32-5c15 47 100 32 89-28v-30C133-14 115 1 83 1 29 1 15-40 15-95c0-56 16-97 71-98 29-1 48 16 59 35 1-10 0-23 2-32h30zM94-22c36 0 50-32 50-73 0-42-14-75-50-75-39 0-46 34-46 75s6 73 46 73" id="S"/><g id="k"><use transform="matrix(0.05,0,0,0.05,0,0)" xlink:href="#M"/><use transform="matrix(0.05,0,0,0.05,10,0)" xlink:href="#N"/><use transform="matrix(0.05,0,0,0.05,20,0)" xlink:href="#O"/><use transform="matrix(0.05,0,0,0.05,30,0)" xlink:href="#J"/><use transform="matrix(0.05,0,0,0.05,40,0)" xlink:href="#P"/><use transform="matrix(0.05,0,0,0.05,50,0)" xlink:href="#K"/><use transform="matrix(0.05,0,0,0.05,60,0)" xlink:href="#Q"/><use transform="matrix(0.05,0,0,0.05,65.95,0)" xlink:href="#R"/><use transform="matrix(0.05,0,0,0.05,69.9,0)" xlink:href="#J"/><use transform="matrix(0.05,0,0,0.05,79.9,0)" xlink:href="#S"/></g><path d="M18-100v-36l175-74v27L42-118l151 64v27" id="T"/><path d="M85-194c31 0 48 13 60 33l-1-100h32l1 261h-30c-2-10 0-23-3-31C134-8 116 4 85 4 32 4 16-35 15-94c0-66 23-100 70-100zm9 24c-40 0-46 34-46 75 0 40 6 74 45 74 42 0 51-32 51-76 0-42-9-74-50-73" id="U"/><path d="M18-27v-27l151-64-151-65v-27l175 74v36" id="V"/><g id="l"><use transform="matrix(0.05,0,0,0.05,0,0)" xlink:href="#T"/><use transform="matrix(0.05,0,0,0.05,10.5,0)" xlink:href="#T"/><use transform="matrix(0.05,0,0,0.05,21,0)" xlink:href="#C"/><use transform="matrix(0.05,0,0,0.05,24.95,0)" xlink:href="#s"/><use transform="matrix(0.05,0,0,0.05,34.95,0)" xlink:href="#u"/><use transform="matrix(0.05,0,0,0.05,43.95,0)" xlink:href="#o"/><use transform="matrix(0.05,0,0,0.05,47.900000000000006,0)" xlink:href="#w"/><use transform="matrix(0.05,0,0,0.05,57.900000000000006,0)" xlink:href="#U"/><use transform="matrix(0.05,0,0,0.05,67.9,0)" xlink:href="#n"/><use transform="matrix(0.05,0,0,0.05,77.9,0)" xlink:href="#z"/><use transform="matrix(0.05,0,0,0.05,86.9,0)" xlink:href="#V"/><use transform="matrix(0.05,0,0,0.05,97.4,0)" xlink:href="#V"/></g></defs></g></svg>