<svg xmlns="http://www.w3.org/2000/svg" xmlns:xlink="http://www.w3.org/1999/xlink" xmlns:lucid="lucid" width="1120" height="800"><g transform="translate(-160 0)" lucid:page-tab-id="SbXUv3KBhmLh"><path d="M0 0h1360v1760H0z" fill="#fff"/><path d="M279.75 99.75c0 10.9-8.84 19.75-19.75 19.75-10.9 0-19.75-8.84-19.75-19.75C240.25 88.85 249.1 80 260 80c10.9 0 19.75 8.84 19.75 19.75z" stroke="#000" stroke-width="2"/><path d="M260 119.5v55.3l40 63.2m-40-63.2L220 238m0-98.75h80" stroke="#000" stroke-width="2" fill="none"/><path d="M220 80h80v180h-80z" fill="none"/><use xlink:href="#a" transform="matrix(1,0,0,1,140,238) translate(88.57499999999999 14.6)"/><path d="M680 170c0 33.14-35.82 60-80 60s-80-26.86-80-60 35.82-60 80-60 80 26.86 80 60z" stroke="#fff" stroke-width="2"/><use xlink:href="#b" transform="matrix(1,0,0,1,520,110) translate(28.07999999999999 63.15)"/><use xlink:href="#c" transform="matrix(1,0,0,1,520,110) translate(89.98 63.15)"/><path d="M262 170h256M262.03 170H258" stroke="#000" stroke-width="2" fill="none"/><path d="M519 170v.4l.03.6h-1.06v-2h1.06zM931.73 141H922v-2h9.73zm19.8 0h-10.07v-2h10.06zm145.65 0h-9.73v-2h9.73zm-19.46 0h-9.25v-2h9.25z"/><path d="M922.03 141h-1.06l.03-1v-.4l-.03-.6h1.06zM1099 140l-18.67 11.04-1.02-1.72 15.77-9.32-15.76-9.32 1.03-1.72z"/><use xlink:href="#d" transform="matrix(1,0,0,1,951.5250000000001,129.2) translate(0 14.4)"/><path d="M1260 140c0 33.14-35.82 60-80 60s-80-26.86-80-60 35.82-60 80-60 80 26.86 80 60z" stroke="#000" stroke-width="2" fill="#fff"/><use xlink:href="#e" transform="matrix(1,0,0,1,1100,80) translate(33.055 63.15)"/><use xlink:href="#f" transform="matrix(1,0,0,1,1100,80) translate(70.005 63.15)"/><use xlink:href="#g" transform="matrix(1,0,0,1,1100,80) translate(116.955 63.15)"/><path d="M230 280h360v80H230z" fill="#fff"/><use xlink:href="#h" transform="matrix(1,0,0,1,230,280) translate(36.39388888888892 45.27777777777778)"/><use xlink:href="#i" transform="matrix(1,0,0,1,230,280) translate(117.75191358024693 45.27777777777778)"/><use xlink:href="#j" transform="matrix(1,0,0,1,230,280) translate(173.30746913580248 45.27777777777778)"/><path d="M180 20h460v40H180z" fill="#fff"/><use xlink:href="#k" transform="matrix(1,0,0,1,180,20) translate(26.67166666666666 22.787777777777777)"/><use xlink:href="#l" transform="matrix(1,0,0,1,180,20) translate(116.67166666666665 22.787777777777777)"/><use xlink:href="#m" transform="matrix(1,0,0,1,180,20) translate(248.46179012345678 22.787777777777777)"/><use xlink:href="#n" transform="matrix(1,0,0,1,180,20) translate(298.9556172839506 22.787777777777777)"/><use xlink:href="#o" transform="matrix(1,0,0,1,180,20) translate(380.31364197530866 22.787777777777777)"/><path d="M800 20h420v40H800z" fill="#fff"/><use xlink:href="#h" transform="matrix(1,0,0,1,800,20) translate(21.424753086419777 22.787777777777777)"/><use xlink:href="#p" transform="matrix(1,0,0,1,800,20) translate(102.7827777777778 22.787777777777777)"/><use xlink:href="#q" transform="matrix(1,0,0,1,800,20) translate(148.33833333333334 22.787777777777777)"/><use xlink:href="#r" transform="matrix(1,0,0,1,800,20) translate(195.1901851851852 22.787777777777777)"/><use xlink:href="#s" transform="matrix(1,0,0,1,800,20) translate(250.74574074074073 22.787777777777777)"/><path d="M340 420c0 33.14-35.82 60-80 60s-80-26.86-80-60 35.82-60 80-60 80 26.86 80 60z" stroke="#fff" stroke-width="2"/><use xlink:href="#b" transform="matrix(1,0,0,1,180,360) translate(20.57999999999999 63.15)"/><use xlink:href="#t" transform="matrix(1,0,0,1,180,360) translate(82.48 63.15)"/><use xlink:href="#u" transform="matrix(1,0,0,1,180,360) translate(129.43 63.15)"/><path d="M680 420c0 33.14-35.82 60-80 60s-80-26.86-80-60 35.82-60 80-60 80 26.86 80 60z" stroke="#fff" stroke-width="2"/><use xlink:href="#b" transform="matrix(1,0,0,1,520,360) translate(20.57999999999999 63.15)"/><use xlink:href="#t" transform="matrix(1,0,0,1,520,360) translate(82.48 63.15)"/><use xlink:href="#v" transform="matrix(1,0,0,1,520,360) translate(129.43 63.15)"/><path d="M351.73 421H342v-2h9.73zm146 0h-19.48v-2h19.47zm19.45 0h-9.73v-2h9.73zm-48.66 0h-7.9v-2h7.9z"/><path d="M342.03 421h-1.06l.03-1v-.4l-.03-.6h1.06zM519 420l-18.67 11.04-1.02-1.72 15.77-9.32-15.76-9.32 1.03-1.72z"/><use xlink:href="#w" transform="matrix(1,0,0,1,352.7166666666667,409.2) translate(0 14.4)"/><path d="M920 140c0 33.14-35.82 60-80 60s-80-26.86-80-60 35.82-60 80-60 80 26.86 80 60z" stroke="#fff" stroke-width="2"/><use xlink:href="#b" transform="matrix(1,0,0,1,760,80) translate(20.57999999999999 63.15)"/><use xlink:href="#t" transform="matrix(1,0,0,1,760,80) translate(82.48 63.15)"/><use xlink:href="#u" transform="matrix(1,0,0,1,760,80) translate(129.43 63.15)"/><path d="M931.73 291H922v-2h9.73zm24.32 0h-14.6v-2h14.6zm141.13 0h-9.73v-2h9.73zm-19.46 0h-13.77v-2h13.77z"/><path d="M922.03 291h-1.06l.03-1v-.4l-.03-.6h1.06zM1099 290l-18.67 11.04-1.02-1.72 15.77-9.32-15.76-9.32 1.03-1.72z"/><use xlink:href="#w" transform="matrix(1,0,0,1,956.0500000000001,279.2) translate(0 14.4)"/><path d="M1260 290c0 33.14-35.82 60-80 60s-80-26.86-80-60 35.82-60 80-60 80 26.86 80 60z" stroke="#000" stroke-width="2" fill="#fff"/><use xlink:href="#e" transform="matrix(1,0,0,1,1100,230) translate(33.055 63.15)"/><use xlink:href="#f" transform="matrix(1,0,0,1,1100,230) translate(70.005 63.15)"/><use xlink:href="#g" transform="matrix(1,0,0,1,1100,230) translate(116.955 63.15)"/><path d="M920 290c0 33.14-35.82 60-80 60s-80-26.86-80-60 35.82-60 80-60 80 26.86 80 60z" stroke="#fff" stroke-width="2"/><use xlink:href="#b" transform="matrix(1,0,0,1,760,230) translate(20.57999999999999 63.15)"/><use xlink:href="#t" transform="matrix(1,0,0,1,760,230) translate(82.48 63.15)"/><use xlink:href="#u" transform="matrix(1,0,0,1,760,230) translate(129.43 63.15)"/><path d="M920 440c0 33.14-35.82 60-80 60s-80-26.86-80-60 35.82-60 80-60 80 26.86 80 60z" stroke="#000" stroke-width="2" fill="#fff"/><use xlink:href="#e" transform="matrix(1,0,0,1,760,380) translate(33.055 63.15)"/><use xlink:href="#f" transform="matrix(1,0,0,1,760,380) translate(70.005 63.15)"/><use xlink:href="#g" transform="matrix(1,0,0,1,760,380) translate(116.955 63.15)"/><path d="M1260 440c0 33.14-35.82 60-80 60s-80-26.86-80-60 35.82-60 80-60 80 26.86 80 60z" stroke="#fff" stroke-width="2"/><use xlink:href="#b" transform="matrix(1,0,0,1,1100,380) translate(20.57999999999999 63.15)"/><use xlink:href="#t" transform="matrix(1,0,0,1,1100,380) translate(82.48 63.15)"/><use xlink:href="#u" transform="matrix(1,0,0,1,1100,380) translate(129.43 63.15)"/><path d="M931.73 441H922v-2h9.73zm22.8 0h-13.07v-2h13.06zm142.65 0h-9.73v-2h9.73zm-19.46 0h-12.25v-2h12.25z"/><path d="M922.03 441h-1.06l.03-1v-.4l-.03-.6h1.06zM1099 440l-18.67 11.04-1.02-1.72 15.77-9.32-15.76-9.32 1.03-1.72z"/><g><use xlink:href="#x" transform="matrix(1,0,0,1,954.5250000000001,429.2) translate(0 14.4)"/></g><path d="M920 580c0 33.14-35.82 60-80 60s-80-26.86-80-60 35.82-60 80-60 80 26.86 80 60z" stroke="#000" stroke-width="2" fill="#fff"/><g><use xlink:href="#e" transform="matrix(1,0,0,1,760,520) translate(33.055 63.15)"/><use xlink:href="#f" transform="matrix(1,0,0,1,760,520) translate(70.005 63.15)"/><use xlink:href="#g" transform="matrix(1,0,0,1,760,520) translate(116.955 63.15)"/></g><path d="M1260 580c0 33.14-35.82 60-80 60s-80-26.86-80-60 35.82-60 80-60 80 26.86 80 60z" stroke="#fff" stroke-width="2"/><g><use xlink:href="#b" transform="matrix(1,0,0,1,1100,520) translate(20.57999999999999 63.15)"/><use xlink:href="#t" transform="matrix(1,0,0,1,1100,520) translate(82.48 63.15)"/><use xlink:href="#u" transform="matrix(1,0,0,1,1100,520) translate(129.43 63.15)"/></g><path d="M931.73 581H922v-2h9.73zm28.27 0h-18.54v-2H960zm137.18 0h-9.73v-2h9.73zm-19.46 0H1060v-2h17.72z"/><path d="M922.03 581h-1.06l.03-1v-.4l-.03-.6h1.06zM1099 580l-18.67 11.04-1.02-1.72 15.77-9.32-15.76-9.32 1.03-1.72z"/><g><use xlink:href="#y" transform="matrix(1,0,0,1,960.0000000000001,569.2) translate(0 14.4)"/></g><path d="M920 720c0 33.14-35.82 60-80 60s-80-26.86-80-60 35.82-60 80-60 80 26.86 80 60z" stroke="#000" stroke-width="2" fill="#fff"/><g><use xlink:href="#e" transform="matrix(1,0,0,1,760,660) translate(33.055 63.15)"/><use xlink:href="#f" transform="matrix(1,0,0,1,760,660) translate(70.005 63.15)"/><use xlink:href="#g" transform="matrix(1,0,0,1,760,660) translate(116.955 63.15)"/></g><path d="M1260 720c0 33.14-35.82 60-80 60s-80-26.86-80-60 35.82-60 80-60 80 26.86 80 60z" stroke="#fff" stroke-width="2"/><g><use xlink:href="#b" transform="matrix(1,0,0,1,1100,660) translate(20.57999999999999 63.15)"/><use xlink:href="#t" transform="matrix(1,0,0,1,1100,660) translate(82.48 63.15)"/><use xlink:href="#u" transform="matrix(1,0,0,1,1100,660) translate(129.43 63.15)"/></g><path d="M931.73 721H922v-2h9.73zm21.35 0h-11.62v-2h11.62zm144.1 0h-9.73v-2h9.73zm-19.46 0h-10.8v-2h10.8z"/><path d="M922.03 721h-1.06l.03-1v-.4l-.03-.6h1.06zM1099 720l-18.67 11.04-1.02-1.72 15.77-9.32-15.76-9.32 1.03-1.72z"/><g><use xlink:href="#z" transform="matrix(1,0,0,1,953.0750000000002,709.2) translate(0 14.4)"/></g><path d="M340 600c0 33.14-35.82 60-80 60s-80-26.86-80-60 35.82-60 80-60 80 26.86 80 60z" stroke="#fff" stroke-width="2"/><g><use xlink:href="#b" transform="matrix(1,0,0,1,180,540) translate(20.57999999999999 63.15)"/><use xlink:href="#t" transform="matrix(1,0,0,1,180,540) translate(82.48 63.15)"/><use xlink:href="#u" transform="matrix(1,0,0,1,180,540) translate(129.43 63.15)"/></g><path d="M680 600c0 33.14-35.82 60-80 60s-80-26.86-80-60 35.82-60 80-60 80 26.86 80 60z" stroke="#fff" stroke-width="2"/><g><use xlink:href="#b" transform="matrix(1,0,0,1,520,540) translate(20.57999999999999 63.15)"/><use xlink:href="#t" transform="matrix(1,0,0,1,520,540) translate(82.48 63.15)"/><use xlink:href="#v" transform="matrix(1,0,0,1,520,540) translate(129.43 63.15)"/></g><path d="M351.73 601H342v-2h9.73zm146 0h-19.48v-2h19.47zm19.45 0h-9.73v-2h9.73zm-48.66 0h-9.35v-2h9.35z"/><path d="M342.03 601h-1.06l.03-1v-.4l-.03-.6h1.06zM519 600l-18.67 11.04-1.02-1.72 15.77-9.32-15.76-9.32 1.03-1.72z"/><g><use xlink:href="#A" transform="matrix(1,0,0,1,354.1666666666667,589.2) translate(0 14.4)"/></g><defs><path d="M240 0l2-218c-23 76-54 145-80 218h-23L58-218 59 0H30v-248h44l77 211c21-75 51-140 76-211h43V0h-30" id="B"/><path d="M24-231v-30h32v30H24zM24 0v-190h32V0H24" id="C"/><path d="M135-143c-3-34-86-38-87 0 15 53 115 12 119 90S17 21 10-45l28-5c4 36 97 45 98 0-10-56-113-15-118-90-4-57 82-63 122-42 12 7 21 19 24 35" id="D"/><path d="M84 4C-5 8 30-112 23-190h32v120c0 31 7 50 39 49 72-2 45-101 50-169h31l1 190h-30c-1-10 1-25-2-33-11 22-28 36-60 37" id="E"/><path d="M100-194c63 0 86 42 84 106H49c0 40 14 67 53 68 26 1 43-12 49-29l28 8c-11 28-37 45-77 45C44 4 14-33 15-96c1-61 26-98 85-98zm52 81c6-60-76-77-97-28-3 7-6 17-6 28h103" id="F"/><path d="M114-163C36-179 61-72 57 0H25l-1-190h30c1 12-1 29 2 39 6-27 23-49 58-41v29" id="G"/><g id="a"><use transform="matrix(0.05,0,0,0.05,0,0)" xlink:href="#B"/><use transform="matrix(0.05,0,0,0.05,14.950000000000001,0)" xlink:href="#C"/><use transform="matrix(0.05,0,0,0.05,18.900000000000002,0)" xlink:href="#D"/><use transform="matrix(0.05,0,0,0.05,27.900000000000002,0)" xlink:href="#E"/><use transform="matrix(0.05,0,0,0.05,37.900000000000006,0)" xlink:href="#D"/><use transform="matrix(0.05,0,0,0.05,46.900000000000006,0)" xlink:href="#F"/><use transform="matrix(0.05,0,0,0.05,56.900000000000006,0)" xlink:href="#G"/></g><path fill="#fff" d="M240 0l2-218c-23 76-54 145-80 218h-23L58-218 59 0H30v-248h44l77 211c21-75 51-140 76-211h43V0h-30" id="H"/><path fill="#fff" d="M24-231v-30h32v30H24zM24 0v-190h32V0H24" id="I"/><path fill="#fff" d="M135-143c-3-34-86-38-87 0 15 53 115 12 119 90S17 21 10-45l28-5c4 36 97 45 98 0-10-56-113-15-118-90-4-57 82-63 122-42 12 7 21 19 24 35" id="J"/><path fill="#fff" d="M84 4C-5 8 30-112 23-190h32v120c0 31 7 50 39 49 72-2 45-101 50-169h31l1 190h-30c-1-10 1-25-2-33-11 22-28 36-60 37" id="K"/><path fill="#fff" d="M100-194c63 0 86 42 84 106H49c0 40 14 67 53 68 26 1 43-12 49-29l28 8c-11 28-37 45-77 45C44 4 14-33 15-96c1-61 26-98 85-98zm52 81c6-60-76-77-97-28-3 7-6 17-6 28h103" id="L"/><g id="b"><use transform="matrix(0.05,0,0,0.05,0,0)" xlink:href="#H"/><use transform="matrix(0.05,0,0,0.05,14.950000000000001,0)" xlink:href="#I"/><use transform="matrix(0.05,0,0,0.05,18.900000000000002,0)" xlink:href="#J"/><use transform="matrix(0.05,0,0,0.05,27.900000000000002,0)" xlink:href="#K"/><use transform="matrix(0.05,0,0,0.05,37.900000000000006,0)" xlink:href="#J"/><use transform="matrix(0.05,0,0,0.05,46.900000000000006,0)" xlink:href="#L"/></g><path fill="#fff" d="M212-179c-10-28-35-45-73-45-59 0-87 40-87 99 0 60 29 101 89 101 43 0 62-24 78-52l27 14C228-24 195 4 139 4 59 4 22-46 18-125c-6-104 99-153 187-111 19 9 31 26 39 46" id="M"/><path fill="#fff" d="M141-36C126-15 110 5 73 4 37 3 15-17 15-53c-1-64 63-63 125-63 3-35-9-54-41-54-24 1-41 7-42 31l-33-3c5-37 33-52 76-52 45 0 72 20 72 64v82c-1 20 7 32 28 27v20c-31 9-61-2-59-35zM48-53c0 20 12 33 32 33 41-3 63-29 60-74-43 2-92-5-92 41" id="N"/><g id="c"><use transform="matrix(0.05,0,0,0.05,0,0)" xlink:href="#M"/><use transform="matrix(0.05,0,0,0.05,12.950000000000001,0)" xlink:href="#N"/><use transform="matrix(0.05,0,0,0.05,22.950000000000003,0)" xlink:href="#J"/><use transform="matrix(0.05,0,0,0.05,31.950000000000003,0)" xlink:href="#L"/></g><path d="M18-100v-36l175-74v27L42-118l151 64v27" id="O"/><path d="M59-47c-2 24 18 29 38 22v24C64 9 27 4 27-40v-127H5v-23h24l9-43h21v43h35v23H59v120" id="P"/><path d="M106-169C34-169 62-67 57 0H25v-261h32l-1 103c12-21 28-36 61-36 89 0 53 116 60 194h-32v-121c2-32-8-49-39-48" id="Q"/><path d="M141-36C126-15 110 5 73 4 37 3 15-17 15-53c-1-64 63-63 125-63 3-35-9-54-41-54-24 1-41 7-42 31l-33-3c5-37 33-52 76-52 45 0 72 20 72 64v82c-1 20 7 32 28 27v20c-31 9-61-2-59-35zM48-53c0 20 12 33 32 33 41-3 63-29 60-74-43 2-92-5-92 41" id="R"/><path d="M117-194c89-4 53 116 60 194h-32v-121c0-31-8-49-39-48C34-167 62-67 57 0H25l-1-190h30c1 10-1 24 2 32 11-22 29-35 61-36" id="S"/><path d="M18-27v-27l151-64-151-65v-27l175 74v36" id="T"/><g id="d"><use transform="matrix(0.05,0,0,0.05,0,0)" xlink:href="#O"/><use transform="matrix(0.05,0,0,0.05,10.5,0)" xlink:href="#O"/><use transform="matrix(0.05,0,0,0.05,21,0)" xlink:href="#P"/><use transform="matrix(0.05,0,0,0.05,26,0)" xlink:href="#Q"/><use transform="matrix(0.05,0,0,0.05,36,0)" xlink:href="#G"/><use transform="matrix(0.05,0,0,0.05,41.95,0)" xlink:href="#F"/><use transform="matrix(0.05,0,0,0.05,51.95,0)" xlink:href="#R"/><use transform="matrix(0.05,0,0,0.05,61.95,0)" xlink:href="#P"/><use transform="matrix(0.05,0,0,0.05,66.95,0)" xlink:href="#F"/><use transform="matrix(0.05,0,0,0.05,76.95,0)" xlink:href="#S"/><use transform="matrix(0.05,0,0,0.05,86.95,0)" xlink:href="#D"/><use transform="matrix(0.05,0,0,0.05,95.95,0)" xlink:href="#T"/><use transform="matrix(0.05,0,0,0.05,106.45,0)" xlink:href="#T"/></g><path d="M232-93c-1 65-40 97-104 97C67 4 28-28 28-90v-158h33c8 89-33 224 67 224 102 0 64-133 71-224h33v155" id="U"/><g id="e"><use transform="matrix(0.05,0,0,0.05,0,0)" xlink:href="#U"/><use transform="matrix(0.05,0,0,0.05,12.950000000000001,0)" xlink:href="#D"/><use transform="matrix(0.05,0,0,0.05,21.950000000000003,0)" xlink:href="#F"/></g><path d="M212-179c-10-28-35-45-73-45-59 0-87 40-87 99 0 60 29 101 89 101 43 0 62-24 78-52l27 14C228-24 195 4 139 4 59 4 22-46 18-125c-6-104 99-153 187-111 19 9 31 26 39 46" id="V"/><g id="f"><use transform="matrix(0.05,0,0,0.05,0,0)" xlink:href="#V"/><use transform="matrix(0.05,0,0,0.05,12.950000000000001,0)" xlink:href="#R"/><use transform="matrix(0.05,0,0,0.05,22.950000000000003,0)" xlink:href="#D"/><use transform="matrix(0.05,0,0,0.05,31.950000000000003,0)" xlink:href="#F"/></g><path d="M27 0v-27h64v-190l-56 39v-29l58-41h29v221h61V0H27" id="W"/><use transform="matrix(0.05,0,0,0.05,0,0)" xlink:href="#W" id="g"/><path d="M230 0l2-204L168 0h-37L68-204 70 0H24v-248h70l56 185 57-185h69V0h-46" id="X"/><path d="M25-224v-37h50v37H25zM25 0v-190h50V0H25" id="Y"/><path d="M137-138c1-29-70-34-71-4 15 46 118 7 119 86 1 83-164 76-172 9l43-7c4 19 20 25 44 25 33 8 57-30 24-41C81-84 22-81 20-136c-2-80 154-74 161-7" id="Z"/><path d="M85 4C-2 5 27-109 22-190h50c7 57-23 150 33 157 60-5 35-97 40-157h50l1 190h-47c-2-12 1-28-3-38-12 25-28 42-61 42" id="aa"/><path d="M185-48c-13 30-37 53-82 52C43 2 14-33 14-96s30-98 90-98c62 0 83 45 84 108H66c0 31 8 55 39 56 18 0 30-7 34-22zm-45-69c5-46-57-63-70-21-2 6-4 13-4 21h74" id="ab"/><g id="h"><use transform="matrix(0.06172839506172839,0,0,0.06172839506172839,0,0)" xlink:href="#X"/><use transform="matrix(0.06172839506172839,0,0,0.06172839506172839,18.456790123456788,0)" xlink:href="#Y"/><use transform="matrix(0.06172839506172839,0,0,0.06172839506172839,24.629629629629626,0)" xlink:href="#Z"/><use transform="matrix(0.06172839506172839,0,0,0.06172839506172839,36.9753086419753,0)" xlink:href="#aa"/><use transform="matrix(0.06172839506172839,0,0,0.06172839506172839,50.49382716049382,0)" xlink:href="#Z"/><use transform="matrix(0.06172839506172839,0,0,0.06172839506172839,62.8395061728395,0)" xlink:href="#ab"/></g><path d="M190-63c-7 42-38 67-86 67-59 0-84-38-90-98-12-110 154-137 174-36l-49 2c-2-19-15-32-35-32-30 0-35 28-38 64-6 74 65 87 74 30" id="ac"/><path d="M133-34C117-15 103 5 69 4 32 3 11-16 11-54c-1-60 55-63 116-61 1-26-3-47-28-47-18 1-26 9-28 27l-52-2c7-38 36-58 82-57s74 22 75 68l1 82c-1 14 12 18 25 15v27c-30 8-71 5-69-32zm-48 3c29 0 43-24 42-57-32 0-66-3-65 30 0 17 8 27 23 27" id="ad"/><g id="i"><use transform="matrix(0.06172839506172839,0,0,0.06172839506172839,0,0)" xlink:href="#ac"/><use transform="matrix(0.06172839506172839,0,0,0.06172839506172839,12.345679012345679,0)" xlink:href="#ad"/><use transform="matrix(0.06172839506172839,0,0,0.06172839506172839,24.691358024691358,0)" xlink:href="#Z"/><use transform="matrix(0.06172839506172839,0,0,0.06172839506172839,37.03703703703704,0)" xlink:href="#ab"/></g><path d="M24-248c120-7 223 5 221 122C244-46 201 0 124 0H24v-248zM76-40c74 7 117-18 117-86 0-67-45-88-117-82v168" id="ae"/><path d="M135-194c53 0 70 44 70 98 0 56-19 98-73 100-31 1-45-17-59-34 3 33 2 69 2 105H25l-1-265h48c2 10 0 23 3 31 11-24 29-35 60-35zM114-30c33 0 39-31 40-66 0-38-9-64-40-64-56 0-55 130 0 130" id="af"/><path d="M135-194c87-1 58 113 63 194h-50c-7-57 23-157-34-157-59 0-34 97-39 157H25l-1-190h47c2 12-1 28 3 38 12-26 28-41 61-42" id="ag"/><path d="M88-194c31-1 46 15 58 34l-1-101h50l1 261h-48c-2-10 0-23-3-31C134-8 116 4 84 4 32 4 16-41 15-95c0-56 19-97 73-99zm17 164c33 0 40-30 41-66 1-37-9-64-41-64s-38 30-39 65c0 43 13 65 39 65" id="ah"/><g id="j"><use transform="matrix(0.06172839506172839,0,0,0.06172839506172839,0,0)" xlink:href="#ae"/><use transform="matrix(0.06172839506172839,0,0,0.06172839506172839,15.987654320987653,0)" xlink:href="#ab"/><use transform="matrix(0.06172839506172839,0,0,0.06172839506172839,28.333333333333332,0)" xlink:href="#af"/><use transform="matrix(0.06172839506172839,0,0,0.06172839506172839,41.85185185185185,0)" xlink:href="#ab"/><use transform="matrix(0.06172839506172839,0,0,0.06172839506172839,54.197530864197525,0)" xlink:href="#ag"/><use transform="matrix(0.06172839506172839,0,0,0.06172839506172839,67.71604938271604,0)" xlink:href="#ah"/><use transform="matrix(0.06172839506172839,0,0,0.06172839506172839,81.23456790123456,0)" xlink:href="#ab"/><use transform="matrix(0.06172839506172839,0,0,0.06172839506172839,93.58024691358024,0)" xlink:href="#ag"/><use transform="matrix(0.06172839506172839,0,0,0.06172839506172839,107.09876543209876,0)" xlink:href="#ac"/><use transform="matrix(0.06172839506172839,0,0,0.06172839506172839,119.44444444444444,0)" xlink:href="#Y"/><use transform="matrix(0.06172839506172839,0,0,0.06172839506172839,125.61728395061728,0)" xlink:href="#ab"/><use transform="matrix(0.06172839506172839,0,0,0.06172839506172839,137.96296296296296,0)" xlink:href="#Z"/></g><path d="M135-150c-39-12-60 13-60 57V0H25l-1-190h47c2 13-1 29 3 40 6-28 27-53 61-41v41" id="ai"/><g id="k"><use transform="matrix(0.06172839506172839,0,0,0.06172839506172839,0,0)" xlink:href="#X"/><use transform="matrix(0.06172839506172839,0,0,0.06172839506172839,18.456790123456788,0)" xlink:href="#Y"/><use transform="matrix(0.06172839506172839,0,0,0.06172839506172839,24.629629629629626,0)" xlink:href="#Z"/><use transform="matrix(0.06172839506172839,0,0,0.06172839506172839,36.9753086419753,0)" xlink:href="#aa"/><use transform="matrix(0.06172839506172839,0,0,0.06172839506172839,50.49382716049382,0)" xlink:href="#Z"/><use transform="matrix(0.06172839506172839,0,0,0.06172839506172839,62.8395061728395,0)" xlink:href="#ab"/><use transform="matrix(0.06172839506172839,0,0,0.06172839506172839,75.18518518518518,0)" xlink:href="#ai"/></g><path d="M199 0l-22-63H83L61 0H9l90-248h61L250 0h-51zm-33-102l-36-108c-10 38-24 72-36 108h72" id="aj"/><path d="M110-194c64 0 96 36 96 99 0 64-35 99-97 99-61 0-95-36-95-99 0-62 34-99 96-99zm-1 164c35 0 45-28 45-65 0-40-10-65-43-65-34 0-45 26-45 65 0 36 10 65 43 65" id="ak"/><path d="M115-3C79 11 28 4 28-45v-112H4v-33h27l15-45h31v45h36v33H77v99c-1 23 16 31 38 25v30" id="al"/><g id="l"><use transform="matrix(0.06172839506172839,0,0,0.06172839506172839,0,0)" xlink:href="#aj"/><use transform="matrix(0.06172839506172839,0,0,0.06172839506172839,15.987654320987653,0)" xlink:href="#Z"/><use transform="matrix(0.06172839506172839,0,0,0.06172839506172839,28.333333333333332,0)" xlink:href="#Z"/><use transform="matrix(0.06172839506172839,0,0,0.06172839506172839,40.67901234567901,0)" xlink:href="#ak"/><use transform="matrix(0.06172839506172839,0,0,0.06172839506172839,54.19753086419753,0)" xlink:href="#ac"/><use transform="matrix(0.06172839506172839,0,0,0.06172839506172839,66.54320987654322,0)" xlink:href="#Y"/><use transform="matrix(0.06172839506172839,0,0,0.06172839506172839,72.71604938271605,0)" xlink:href="#ad"/><use transform="matrix(0.06172839506172839,0,0,0.06172839506172839,85.06172839506173,0)" xlink:href="#al"/><use transform="matrix(0.06172839506172839,0,0,0.06172839506172839,92.40740740740742,0)" xlink:href="#Y"/><use transform="matrix(0.06172839506172839,0,0,0.06172839506172839,98.58024691358025,0)" xlink:href="#ak"/><use transform="matrix(0.06172839506172839,0,0,0.06172839506172839,112.09876543209877,0)" xlink:href="#ag"/></g><path d="M231 0h-52l-39-155L100 0H48L-1-190h46L77-45c9-52 24-97 36-145h53l37 145 32-145h46" id="am"/><path d="M114-157C55-157 80-60 75 0H25v-261h50l-1 109c12-26 28-41 61-42 86-1 58 113 63 194h-50c-7-57 23-157-34-157" id="an"/><g id="m"><use transform="matrix(0.06172839506172839,0,0,0.06172839506172839,0,0)" xlink:href="#am"/><use transform="matrix(0.06172839506172839,0,0,0.06172839506172839,17.28395061728395,0)" xlink:href="#Y"/><use transform="matrix(0.06172839506172839,0,0,0.06172839506172839,23.456790123456788,0)" xlink:href="#al"/><use transform="matrix(0.06172839506172839,0,0,0.06172839506172839,30.80246913580247,0)" xlink:href="#an"/></g><g id="n"><use transform="matrix(0.06172839506172839,0,0,0.06172839506172839,0,0)" xlink:href="#X"/><use transform="matrix(0.06172839506172839,0,0,0.06172839506172839,18.456790123456788,0)" xlink:href="#Y"/><use transform="matrix(0.06172839506172839,0,0,0.06172839506172839,24.629629629629626,0)" xlink:href="#Z"/><use transform="matrix(0.06172839506172839,0,0,0.06172839506172839,36.9753086419753,0)" xlink:href="#aa"/><use transform="matrix(0.06172839506172839,0,0,0.06172839506172839,50.49382716049382,0)" xlink:href="#Z"/><use transform="matrix(0.06172839506172839,0,0,0.06172839506172839,62.8395061728395,0)" xlink:href="#ab"/></g><path d="M67-125c0 53 21 87 73 88 37 1 54-22 65-47l45 17C233-25 199 4 140 4 58 4 20-42 15-125 8-235 124-281 211-232c18 10 29 29 36 50l-46 12c-8-25-30-41-62-41-52 0-71 34-72 86" id="ao"/><g id="o"><use transform="matrix(0.06172839506172839,0,0,0.06172839506172839,0,0)" xlink:href="#ao"/><use transform="matrix(0.06172839506172839,0,0,0.06172839506172839,15.987654320987653,0)" xlink:href="#ad"/><use transform="matrix(0.06172839506172839,0,0,0.06172839506172839,28.333333333333332,0)" xlink:href="#Z"/><use transform="matrix(0.06172839506172839,0,0,0.06172839506172839,40.67901234567901,0)" xlink:href="#ab"/></g><g id="p"><use transform="matrix(0.06172839506172839,0,0,0.06172839506172839,0,0)" xlink:href="#ad"/><use transform="matrix(0.06172839506172839,0,0,0.06172839506172839,12.345679012345679,0)" xlink:href="#ag"/><use transform="matrix(0.06172839506172839,0,0,0.06172839506172839,25.864197530864196,0)" xlink:href="#ah"/></g><path d="M238-95c0 69-44 99-111 99C63 4 22-25 22-93v-155h51v151c-1 38 19 59 55 60 90 1 49-130 58-211h52v153" id="ap"/><g id="q"><use transform="matrix(0.06172839506172839,0,0,0.06172839506172839,0,0)" xlink:href="#ap"/><use transform="matrix(0.06172839506172839,0,0,0.06172839506172839,15.987654320987653,0)" xlink:href="#Z"/><use transform="matrix(0.06172839506172839,0,0,0.06172839506172839,28.333333333333332,0)" xlink:href="#ab"/></g><g id="r"><use transform="matrix(0.06172839506172839,0,0,0.06172839506172839,0,0)" xlink:href="#ac"/><use transform="matrix(0.06172839506172839,0,0,0.06172839506172839,12.345679012345679,0)" xlink:href="#ad"/><use transform="matrix(0.06172839506172839,0,0,0.06172839506172839,24.691358024691358,0)" xlink:href="#Z"/><use transform="matrix(0.06172839506172839,0,0,0.06172839506172839,37.03703703703704,0)" xlink:href="#ab"/></g><g id="s"><use transform="matrix(0.06172839506172839,0,0,0.06172839506172839,0,0)" xlink:href="#ah"/><use transform="matrix(0.06172839506172839,0,0,0.06172839506172839,13.518518518518517,0)" xlink:href="#ab"/><use transform="matrix(0.06172839506172839,0,0,0.06172839506172839,25.864197530864196,0)" xlink:href="#af"/><use transform="matrix(0.06172839506172839,0,0,0.06172839506172839,39.382716049382715,0)" xlink:href="#ab"/><use transform="matrix(0.06172839506172839,0,0,0.06172839506172839,51.72839506172839,0)" xlink:href="#ag"/><use transform="matrix(0.06172839506172839,0,0,0.06172839506172839,65.24691358024691,0)" xlink:href="#ah"/><use transform="matrix(0.06172839506172839,0,0,0.06172839506172839,78.76543209876543,0)" xlink:href="#ab"/><use transform="matrix(0.06172839506172839,0,0,0.06172839506172839,91.11111111111111,0)" xlink:href="#ag"/><use transform="matrix(0.06172839506172839,0,0,0.06172839506172839,104.62962962962963,0)" xlink:href="#ac"/><use transform="matrix(0.06172839506172839,0,0,0.06172839506172839,116.97530864197532,0)" xlink:href="#Y"/><use transform="matrix(0.06172839506172839,0,0,0.06172839506172839,123.14814814814815,0)" xlink:href="#ab"/><use transform="matrix(0.06172839506172839,0,0,0.06172839506172839,135.49382716049382,0)" xlink:href="#Z"/></g><g id="t"><use transform="matrix(0.05,0,0,0.05,0,0)" xlink:href="#M"/><use transform="matrix(0.05,0,0,0.05,12.950000000000001,0)" xlink:href="#N"/><use transform="matrix(0.05,0,0,0.05,22.950000000000003,0)" xlink:href="#J"/><use transform="matrix(0.05,0,0,0.05,31.950000000000003,0)" xlink:href="#L"/></g><path fill="#fff" d="M27 0v-27h64v-190l-56 39v-29l58-41h29v221h61V0H27" id="aq"/><use transform="matrix(0.05,0,0,0.05,0,0)" xlink:href="#aq" id="u"/><path fill="#fff" d="M101-251c82-7 93 87 43 132L82-64C71-53 59-42 53-27h129V0H18c2-99 128-94 128-182 0-28-16-43-45-43s-46 15-49 41l-32-3c6-41 34-60 81-64" id="ar"/><use transform="matrix(0.05,0,0,0.05,0,0)" xlink:href="#ar" id="v"/><path d="M96-169c-40 0-48 33-48 73s9 75 48 75c24 0 41-14 43-38l32 2c-6 37-31 61-74 61-59 0-76-41-82-99-10-93 101-131 147-64 4 7 5 14 7 22l-32 3c-4-21-16-35-41-35" id="as"/><path d="M24 0v-261h32V0H24" id="at"/><path d="M85-194c31 0 48 13 60 33l-1-100h32l1 261h-30c-2-10 0-23-3-31C134-8 116 4 85 4 32 4 16-35 15-94c0-66 23-100 70-100zm9 24c-40 0-46 34-46 75 0 40 6 74 45 74 42 0 51-32 51-76 0-42-9-74-50-73" id="au"/><g id="w"><use transform="matrix(0.05,0,0,0.05,0,0)" xlink:href="#O"/><use transform="matrix(0.05,0,0,0.05,10.5,0)" xlink:href="#O"/><use transform="matrix(0.05,0,0,0.05,21,0)" xlink:href="#C"/><use transform="matrix(0.05,0,0,0.05,24.95,0)" xlink:href="#S"/><use transform="matrix(0.05,0,0,0.05,34.95,0)" xlink:href="#as"/><use transform="matrix(0.05,0,0,0.05,43.95,0)" xlink:href="#at"/><use transform="matrix(0.05,0,0,0.05,47.900000000000006,0)" xlink:href="#E"/><use transform="matrix(0.05,0,0,0.05,57.900000000000006,0)" xlink:href="#au"/><use transform="matrix(0.05,0,0,0.05,67.9,0)" xlink:href="#F"/><use transform="matrix(0.05,0,0,0.05,77.9,0)" xlink:href="#D"/><use transform="matrix(0.05,0,0,0.05,86.9,0)" xlink:href="#T"/><use transform="matrix(0.05,0,0,0.05,97.4,0)" xlink:href="#T"/></g><path d="M115-194c55 1 70 41 70 98S169 2 115 4C84 4 66-9 55-30l1 105H24l-1-265h31l2 30c10-21 28-34 59-34zm-8 174c40 0 45-34 45-75s-6-73-45-74c-42 0-51 32-51 76 0 43 10 73 51 73" id="av"/><path d="M108 0H70L1-190h34L89-25l56-165h34" id="aw"/><g id="x"><use transform="matrix(0.05,0,0,0.05,0,0)" xlink:href="#O"/><use transform="matrix(0.05,0,0,0.05,10.5,0)" xlink:href="#O"/><use transform="matrix(0.05,0,0,0.05,21,0)" xlink:href="#av"/><use transform="matrix(0.05,0,0,0.05,31,0)" xlink:href="#G"/><use transform="matrix(0.05,0,0,0.05,36.95,0)" xlink:href="#F"/><use transform="matrix(0.05,0,0,0.05,46.95,0)" xlink:href="#aw"/><use transform="matrix(0.05,0,0,0.05,55.95,0)" xlink:href="#F"/><use transform="matrix(0.05,0,0,0.05,65.95,0)" xlink:href="#S"/><use transform="matrix(0.05,0,0,0.05,75.95,0)" xlink:href="#P"/><use transform="matrix(0.05,0,0,0.05,80.95,0)" xlink:href="#D"/><use transform="matrix(0.05,0,0,0.05,89.95,0)" xlink:href="#T"/><use transform="matrix(0.05,0,0,0.05,100.45,0)" xlink:href="#T"/></g><g id="y"><use transform="matrix(0.05,0,0,0.05,0,0)" xlink:href="#O"/><use transform="matrix(0.05,0,0,0.05,10.5,0)" xlink:href="#O"/><use transform="matrix(0.05,0,0,0.05,21,0)" xlink:href="#au"/><use transform="matrix(0.05,0,0,0.05,31,0)" xlink:href="#F"/><use transform="matrix(0.05,0,0,0.05,41,0)" xlink:href="#P"/><use transform="matrix(0.05,0,0,0.05,46,0)" xlink:href="#F"/><use transform="matrix(0.05,0,0,0.05,56,0)" xlink:href="#as"/><use transform="matrix(0.05,0,0,0.05,65,0)" xlink:href="#P"/><use transform="matrix(0.05,0,0,0.05,70,0)" xlink:href="#D"/><use transform="matrix(0.05,0,0,0.05,79,0)" xlink:href="#T"/><use transform="matrix(0.05,0,0,0.05,89.5,0)" xlink:href="#T"/></g><path d="M210-169c-67 3-38 105-44 169h-31v-121c0-29-5-50-35-48C34-165 62-65 56 0H25l-1-190h30c1 10-1 24 2 32 10-44 99-50 107 0 11-21 27-35 58-36 85-2 47 119 55 194h-31v-121c0-29-5-49-35-48" id="ax"/><path d="M177-190C167-65 218 103 67 71c-23-6-38-20-44-43l32-5c15 47 100 32 89-28v-30C133-14 115 1 83 1 29 1 15-40 15-95c0-56 16-97 71-98 29-1 48 16 59 35 1-10 0-23 2-32h30zM94-22c36 0 50-32 50-73 0-42-14-75-50-75-39 0-46 34-46 75s6 73 46 73" id="ay"/><g id="z"><use transform="matrix(0.05,0,0,0.05,0,0)" xlink:href="#O"/><use transform="matrix(0.05,0,0,0.05,10.5,0)" xlink:href="#O"/><use transform="matrix(0.05,0,0,0.05,21,0)" xlink:href="#ax"/><use transform="matrix(0.05,0,0,0.05,35.95,0)" xlink:href="#C"/><use transform="matrix(0.05,0,0,0.05,39.900000000000006,0)" xlink:href="#P"/><use transform="matrix(0.05,0,0,0.05,44.900000000000006,0)" xlink:href="#C"/><use transform="matrix(0.05,0,0,0.05,48.85000000000001,0)" xlink:href="#ay"/><use transform="matrix(0.05,0,0,0.05,58.85,0)" xlink:href="#R"/><use transform="matrix(0.05,0,0,0.05,68.85000000000001,0)" xlink:href="#P"/><use transform="matrix(0.05,0,0,0.05,73.85000000000001,0)" xlink:href="#F"/><use transform="matrix(0.05,0,0,0.05,83.85000000000001,0)" xlink:href="#D"/><use transform="matrix(0.05,0,0,0.05,92.85000000000001,0)" xlink:href="#T"/><use transform="matrix(0.05,0,0,0.05,103.35000000000001,0)" xlink:href="#T"/></g><path d="M141 0L90-78 38 0H4l68-98-65-92h35l48 74 47-74h35l-64 92 68 98h-35" id="az"/><g id="A"><use transform="matrix(0.05,0,0,0.05,0,0)" xlink:href="#O"/><use transform="matrix(0.05,0,0,0.05,10.5,0)" xlink:href="#O"/><use transform="matrix(0.05,0,0,0.05,21,0)" xlink:href="#F"/><use transform="matrix(0.05,0,0,0.05,31,0)" xlink:href="#az"/><use transform="matrix(0.05,0,0,0.05,40,0)" xlink:href="#P"/><use transform="matrix(0.05,0,0,0.05,45,0)" xlink:href="#F"/><use transform="matrix(0.05,0,0,0.05,55,0)" xlink:href="#S"/><use transform="matrix(0.05,0,0,0.05,65,0)" xlink:href="#au"/><use transform="matrix(0.05,0,0,0.05,75,0)" xlink:href="#D"/><use transform="matrix(0.05,0,0,0.05,84,0)" xlink:href="#T"/><use transform="matrix(0.05,0,0,0.05,94.5,0)" xlink:href="#T"/></g></defs></g></svg>