<svg xmlns="http://www.w3.org/2000/svg" xmlns:xlink="http://www.w3.org/1999/xlink" xmlns:lucid="lucid" width="1456.03" height="670"><g transform="translate(-220 -800)" lucid:page-tab-id="UQKuB2do_qyv"><path d="M0 0h2656v1760H0z" fill="#fff"/><path d="M299.75 1039.75c0 10.9-8.84 19.75-19.75 19.75-10.9 0-19.75-8.84-19.75-19.75 0-10.9 8.84-19.75 19.75-19.75 10.9 0 19.75 8.84 19.75 19.75z" stroke="#000" stroke-width="2" fill="#fff"/><path d="M280 1059.5v55.3l40 63.2m-40-63.2l-40 63.2m0-98.75h80" stroke="#000" stroke-width="2" fill="none"/><path d="M240 1020h80v180h-80z" fill="none"/><use xlink:href="#a" transform="matrix(1,0,0,1,160,1178) translate(98.6 14.6)"/><path d="M800 1060c0 33.14-35.82 60-80 60s-80-26.86-80-60 35.82-60 80-60 80 26.86 80 60z" stroke="#000" stroke-width="2" fill="#fff"/><use xlink:href="#b" transform="matrix(1,0,0,1,640,1000) translate(23.005000000000003 63.15)"/><use xlink:href="#c" transform="matrix(1,0,0,1,640,1000) translate(72.005 63.15)"/><path d="M800 1280c0 33.14-35.82 60-80 60s-80-26.86-80-60 35.82-60 80-60 80 26.86 80 60z" stroke="#000" stroke-width="2" fill="#fff"/><use xlink:href="#d" transform="matrix(1,0,0,1,640,1220) translate(22.055 63.15)"/><use xlink:href="#c" transform="matrix(1,0,0,1,640,1220) translate(72.95500000000001 63.15)"/><path d="M321 1078.2l317-18.14" stroke="#000" stroke-width="2" fill="none"/><path d="M321.08 1079.2l-1.08.05v-1h-3l-.05-.83 4.02-.23zM639 1060v.4l.03.6-1 .06-.1-2 1.1-.06z"/><path d="M320.85 1078.78l317.3 200.7" stroke="#000" stroke-width="2" fill="none"/><path d="M321.4 1077.95l-1.07 1.7-.33-.22v-1.18h-1.87l-1.2-.76 1.07-1.7zM639.04 1278.84L639 1280v.4l.03.8-1.43-.9 1.07-1.7z"/><path d="M720 1122v10.58m0 10.57v21.15m0 10.58v21.15m0 10.58v10.58" stroke="#000" stroke-width="2" fill="none"/><path d="M720 1121h1v1.03h-2v-1.06z"/><path d="M709.82 1199.82l10.18 17.22 10.18-17.22" stroke="#000" stroke-width="2" fill="none"/><path d="M1399.75 1159.75c0 10.9-8.84 19.75-19.75 19.75-10.9 0-19.75-8.84-19.75-19.75 0-10.9 8.84-19.75 19.75-19.75 10.9 0 19.75 8.84 19.75 19.75z" stroke="#000" stroke-width="2"/><path d="M1380 1179.5v55.3l40 63.2m-40-63.2l-40 63.2m0-98.75h80" stroke="#000" stroke-width="2" fill="none"/><path d="M1340 1140h80v180h-80z" fill="none"/><use xlink:href="#e" transform="matrix(1,0,0,1,1260,1298) translate(62.39999999999999 14.4)"/><use xlink:href="#f" transform="matrix(1,0,0,1,1260,1298) translate(110.2 14.4)"/><use xlink:href="#g" transform="matrix(1,0,0,1,1260,1298) translate(171.65 14.4)"/><use xlink:href="#h" transform="matrix(1,0,0,1,1260,1298) translate(69.625 36)"/><use xlink:href="#i" transform="matrix(1,0,0,1,1260,1298) translate(127.575 36)"/><path d="M1160 1160c0 33.14-35.82 60-80 60s-80-26.86-80-60 35.82-60 80-60 80 26.86 80 60z" stroke="#fff" stroke-width="2"/><use xlink:href="#j" transform="matrix(1,0,0,1,1000,1100) translate(53.029999999999994 51.9)"/><use xlink:href="#k" transform="matrix(1,0,0,1,1000,1100) translate(35.05499999999999 73.5)"/><path d="M1378.34 1228.75l-.6 1.9-164.1-51.13h6.72zm-226.04-70.43v2.1l-22.98-7.17.6-1.9z"/><path d="M1379.3 1229.05l-.6 1.9-.98-.3.6-1.9zM1129.94 1151.35l-.6 1.9-.97-.3.6-1.9zM1003.32 1137.72l-.63 1.9-9.62-3.18.63-1.9zm-19.2-6.35l-.64 1.9-19.2-6.35.62-1.9zm-28.83-9.52l-.64 1.9-19.2-6.35.45-1.38h1.74zm-86.45-28.56l-.38 1.12h-2.6l-16.86-5.58.64-1.9zm-28.82-9.53l-.63 1.9-19.2-6.35.62-1.9zm-28.8-9.52l-.64 1.9-9.62-3.17.63-1.9z"/><path d="M1004.4 1138.08l-.82 1.63-.07.2-.83-.3.62-1.9zM821.2 1068.78l-17.9 3.9 12.04 13.8-1.5 1.32-14.27-16.34 21.2-4.63z"/><use xlink:href="#l" transform="matrix(1,0,0,1,847.8118064375067,1094.4190013682555) translate(0 14.4)"/><path d="M811.03 1263.85l-9.6 4.1-.8-1.85 9.6-4.1zm28.82-12.3l-19.2 8.2-.8-1.84 19.22-8.2zm28.83-12.3l-19.22 8.2-.78-1.84 19.2-8.18zm9.6-4.1l-.08-.2h.57zm47.5-21.8h-1.47l1.24-.52zm29.37-10.97l-19.2 8.2-.8-1.85 19.22-8.2zm28.83-12.3l-19.22 8.2-.78-1.84 19.2-8.2zm19.2-8.2l-9.6 4.1-.78-1.83 9.6-4.1z"/><path d="M1003.77 1180.68l.4.8-1 .42-.78-1.84.92-.4zM813.8 1251.44l-10.83 14.76 18.15 2.4-.26 1.97-21.5-2.83 12.84-17.48z"/><use xlink:href="#l" transform="matrix(1,0,0,1,847.5889000774125,1213.3562518480003) translate(0 14.4)"/><path d="M1200 1348.8c0 33.12-35.82 60-80 60s-80-26.88-80-60c0-33.15 35.82-60 80-60s80 26.85 80 60z" stroke="#000" stroke-width="2" fill="#fff"/><use xlink:href="#m" transform="matrix(1,0,0,1,1040,1288.7873853892634) translate(33.07999999999999 63.15)"/><use xlink:href="#n" transform="matrix(1,0,0,1,1040,1288.7873853892634) translate(68.07999999999998 63.15)"/><path d="M1087.7 1291.65l-1.8.86-3.9-8.16 1.8-.86zm-7.78-16.34l-1.8.87-2.43-5.07h2.2zm-12.3-25.8h-2.22l-6.75-14.17 1.8-.86zm-11.05-23.2l-1.8.87-3.9-8.17 1.8-.86z"/><path d="M1088.2 1292.7l-.9.25-1 .38-.42-.84 1.8-.87zM1069 1229.03l-1.13 1.66-15.2-10.23-1.62 18.24-2-.17 1.94-21.6z"/><use xlink:href="#o" transform="matrix(1,0,0,1,1021.6567737365467,1249.5010865731351) translate(0 14.4)"/><path d="M1619.75 1289.75c0 10.9-8.84 19.75-19.75 19.75-10.9 0-19.75-8.84-19.75-19.75 0-10.9 8.84-19.75 19.75-19.75 10.9 0 19.75 8.84 19.75 19.75z" stroke="#000" stroke-width="2" fill="#fff"/><path d="M1600 1309.5v55.3l40 63.2m-40-63.2l-40 63.2m0-98.75h80" stroke="#000" stroke-width="2" fill="none"/><path d="M1560 1270h80v180h-80z" fill="none"/><use xlink:href="#p" transform="matrix(1,0,0,1,1480,1428) translate(66.07499999999999 14.6)"/><use xlink:href="#q" transform="matrix(1,0,0,1,1480,1428) translate(112.07499999999999 14.6)"/><use xlink:href="#r" transform="matrix(1,0,0,1,1480,1428) translate(123.02499999999999 14.6)"/><path d="M1598 1348.77l-396.06 1.9M1597.97 1348.77l4.03-.02" stroke="#000" stroke-width="2" fill="none"/><path d="M1201.97 1351.67h-1.06l.07-2h1z"/><path d="M1340 980c0 33.14-35.82 60-80 60s-80-26.86-80-60 35.82-60 80-60 80 26.86 80 60z" stroke="#fff" stroke-width="2"/><use xlink:href="#s" transform="matrix(1,0,0,1,1180,920) translate(23.62999999999999 51.9)"/><use xlink:href="#t" transform="matrix(1,0,0,1,1180,920) translate(65.53 51.9)"/><use xlink:href="#u" transform="matrix(1,0,0,1,1180,920) translate(27.58 73.5)"/><use xlink:href="#v" transform="matrix(1,0,0,1,1180,920) translate(68.47999999999999 73.5)"/><path d="M1090.45 1095.14l-9.12 4.33-.86-1.8 9.12-4.34zm27.36-13.02l-18.23 8.68-.86-1.8 18.25-8.68zm9.13-4.33l-.54-1.14h2.9zm45.1-22.74h-2l1.63-.77zm27.85-11.97l-18.24 8.66-.86-1.8 18.24-8.68zm18.24-8.7l-9.12 4.35-.86-1.8 9.12-4.35z"/><path d="M1081.15 1099.04l-1.14-.04h-.92l-1.54.06 2.96-1.4zM1219.33 1032.73l-12.12 18-1.65-1.13 10.23-15.2-18.23-1.63.18-2z"/><use xlink:href="#l" transform="matrix(1,0,0,1,1095.7154751181909,1055.0633958375713) translate(0 14.4)"/><path d="M1166.76 1285.74l-3.6 9.37-1.88-.7 3.6-9.38zm10.82-28.1l-7.22 18.74-1.86-.72 7.2-18.73zm10.83-28.08l-7.2 18.73-1.88-.73 7.22-18.73zm10.83-28.1l-7.22 18.74-1.85-.72 7.2-18.73zm3.6-9.35l-1.86-.7 4.58-11.88h2.14zm18.05-46.8l-4.87 12.62h-2.13l5.14-13.35zm10.83-28.1l-7.2 18.73-1.88-.72 7.22-18.72zm10.83-28.1l-7.22 18.74-1.85-.72 7.22-18.73zm10.83-28.08l-7.22 18.73-1.87-.72 7.22-18.73zm7.2-18.73l-3.6 9.36-1.86-.72 3.6-9.37z"/><path d="M1260 1041h1.08l-.52 1.32-1.86-.72.24-.63zM1162.97 1292.78l14.37-11.36 1.24 1.57-17.02 13.44-3.6-21.4 1.98-.32z"/><use xlink:href="#w" transform="matrix(1,0,0,1,1152.3048593728513,1157.9217567900687) translate(0 14.4)"/><path d="M1040 920c0 33.14-35.82 60-80 60s-80-26.86-80-60 35.82-60 80-60 80 26.86 80 60z" stroke="#000" stroke-width="2" fill="#fff"/><use xlink:href="#x" transform="matrix(1,0,0,1,880,860) translate(46.53 48.15)"/><use xlink:href="#y" transform="matrix(1,0,0,1,880,860) translate(11.029999999999996 69.75)"/><use xlink:href="#z" transform="matrix(1,0,0,1,880,860) translate(81.03 69.75)"/><path d="M1177.73 978.36l-.8 1.83-9.02-3.93.8-1.84zm-18.05-7.85l-.8 1.84-18.06-7.85.8-1.84zm-27.1-11.77l-.78 1.84-9.37-4.08h5zm-54.82-23.84h-5l-13.2-5.73.8-1.84zm-26.42-11.5l-.8 1.84-9.02-3.92.8-1.84z"/><path d="M1042.34 919.5l-.8 1.83-.57-.25.03-1.07v-.4l-.03-.7zM1179 980l-21.52 2.68-.25-1.98 18.17-2.27-10.74-14.83 1.62-1.17z"/><g><use xlink:href="#A" transform="matrix(1,0,0,1,1044.6192890828893,934.8931686309326) translate(0 14.4)"/></g><path d="M599.75 839.75c0 10.9-8.84 19.75-19.75 19.75-10.9 0-19.75-8.84-19.75-19.75 0-10.9 8.84-19.75 19.75-19.75 10.9 0 19.75 8.84 19.75 19.75z" stroke="#000" stroke-width="2" fill="#fff"/><path d="M580 859.5v55.3l40 63.2m-40-63.2L540 978m0-98.75h80" stroke="#000" stroke-width="2" fill="none"/><path d="M540 820h80v180h-80z" fill="none"/><g><use xlink:href="#B" transform="matrix(1,0,0,1,460,978) translate(61.55 14.6)"/><use xlink:href="#C" transform="matrix(1,0,0,1,460,978) translate(107.55 14.6)"/></g><path d="M582 910.03l296 9.94M582.03 910.03l-4.03-.13" stroke="#000" stroke-width="2" fill="none"/><path d="M879.03 919l-.03 1v.4l.03.6-1.1-.03.08-2zM1077.47 1097.05l-1.42 1.42-7.74-7.74 1.43-1.4zm-15.48-15.47l-1.42 1.4-15.48-15.46 1.42-1.42zm-23.22-23.2l-1.4 1.4-15.5-15.47 1.43-1.4zm-37.62-37.63h-2.13l1.07-1.07zm-8.8-8.8l-1.4 1.4-15.5-15.46 1.43-1.43zm-23.2-23.2l-1.42 1.4-7.74-7.74 1.4-1.4z"/><path d="M960 981h.92l.47-.02-1.38 1.45-1.48-1.47zM1078.04 1099.04l-21-5.4.5-1.93 17.73 4.57-4.56-17.74 1.95-.5z"/><g><use xlink:href="#A" transform="matrix(1,0,0,1,955.0739685884279,1020.7489771423686) translate(0 14.4)"/></g><defs><path d="M127-220V0H93v-220H8v-28h204v28h-85" id="D"/><path d="M100-194c63 0 86 42 84 106H49c0 40 14 67 53 68 26 1 43-12 49-29l28 8c-11 28-37 45-77 45C44 4 14-33 15-96c1-61 26-98 85-98zm52 81c6-60-76-77-97-28-3 7-6 17-6 28h103" id="E"/><path d="M24 0v-261h32V0H24" id="F"/><path d="M114-163C36-179 61-72 57 0H25l-1-190h30c1 12-1 29 2 39 6-27 23-49 58-41v29" id="G"/><g id="a"><use transform="matrix(0.05,0,0,0.05,0,0)" xlink:href="#D"/><use transform="matrix(0.05,0,0,0.05,8.950000000000001,0)" xlink:href="#E"/><use transform="matrix(0.05,0,0,0.05,18.950000000000003,0)" xlink:href="#F"/><use transform="matrix(0.05,0,0,0.05,22.900000000000002,0)" xlink:href="#F"/><use transform="matrix(0.05,0,0,0.05,26.85,0)" xlink:href="#E"/><use transform="matrix(0.05,0,0,0.05,36.85,0)" xlink:href="#G"/></g><path d="M140-251c81 0 123 46 123 126C263-46 219 4 140 4 59 4 17-45 17-125s42-126 123-126zm0 227c63 0 89-41 89-101s-29-99-89-99c-61 0-89 39-89 99S79-25 140-24" id="H"/><path d="M115-194c55 1 70 41 70 98S169 2 115 4C84 4 66-9 55-30l1 105H24l-1-265h31l2 30c10-21 28-34 59-34zm-8 174c40 0 45-34 45-75s-6-73-45-74c-42 0-51 32-51 76 0 43 10 73 51 73" id="I"/><path d="M117-194c89-4 53 116 60 194h-32v-121c0-31-8-49-39-48C34-167 62-67 57 0H25l-1-190h30c1 10-1 24 2 32 11-22 29-35 61-36" id="J"/><g id="b"><use transform="matrix(0.05,0,0,0.05,0,0)" xlink:href="#H"/><use transform="matrix(0.05,0,0,0.05,14,0)" xlink:href="#I"/><use transform="matrix(0.05,0,0,0.05,24,0)" xlink:href="#E"/><use transform="matrix(0.05,0,0,0.05,34,0)" xlink:href="#J"/></g><path d="M205 0l-28-72H64L36 0H1l101-248h38L239 0h-34zm-38-99l-47-123c-12 45-31 82-46 123h93" id="K"/><path d="M96-169c-40 0-48 33-48 73s9 75 48 75c24 0 41-14 43-38l32 2c-6 37-31 61-74 61-59 0-76-41-82-99-10-93 101-131 147-64 4 7 5 14 7 22l-32 3c-4-21-16-35-41-35" id="L"/><path d="M100-194c62-1 85 37 85 99 1 63-27 99-86 99S16-35 15-95c0-66 28-99 85-99zM99-20c44 1 53-31 53-75 0-43-8-75-51-75s-53 32-53 75 10 74 51 75" id="M"/><path d="M84 4C-5 8 30-112 23-190h32v120c0 31 7 50 39 49 72-2 45-101 50-169h31l1 190h-30c-1-10 1-25-2-33-11 22-28 36-60 37" id="N"/><path d="M59-47c-2 24 18 29 38 22v24C64 9 27 4 27-40v-127H5v-23h24l9-43h21v43h35v23H59v120" id="O"/><g id="c"><use transform="matrix(0.05,0,0,0.05,0,0)" xlink:href="#K"/><use transform="matrix(0.05,0,0,0.05,12,0)" xlink:href="#L"/><use transform="matrix(0.05,0,0,0.05,21,0)" xlink:href="#L"/><use transform="matrix(0.05,0,0,0.05,30,0)" xlink:href="#M"/><use transform="matrix(0.05,0,0,0.05,40,0)" xlink:href="#N"/><use transform="matrix(0.05,0,0,0.05,50,0)" xlink:href="#J"/><use transform="matrix(0.05,0,0,0.05,60,0)" xlink:href="#O"/></g><path d="M212-179c-10-28-35-45-73-45-59 0-87 40-87 99 0 60 29 101 89 101 43 0 62-24 78-52l27 14C228-24 195 4 139 4 59 4 22-46 18-125c-6-104 99-153 187-111 19 9 31 26 39 46" id="P"/><path d="M135-143c-3-34-86-38-87 0 15 53 115 12 119 90S17 21 10-45l28-5c4 36 97 45 98 0-10-56-113-15-118-90-4-57 82-63 122-42 12 7 21 19 24 35" id="Q"/><g id="d"><use transform="matrix(0.05,0,0,0.05,0,0)" xlink:href="#P"/><use transform="matrix(0.05,0,0,0.05,12.950000000000001,0)" xlink:href="#F"/><use transform="matrix(0.05,0,0,0.05,16.900000000000002,0)" xlink:href="#M"/><use transform="matrix(0.05,0,0,0.05,26.900000000000002,0)" xlink:href="#Q"/><use transform="matrix(0.05,0,0,0.05,35.900000000000006,0)" xlink:href="#E"/></g><path d="M179-190L93 31C79 59 56 82 12 73V49c39 6 53-20 64-50L1-190h34L92-34l54-156h33" id="R"/><g id="e"><use transform="matrix(0.05,0,0,0.05,0,0)" xlink:href="#D"/><use transform="matrix(0.05,0,0,0.05,9.950000000000001,0)" xlink:href="#R"/><use transform="matrix(0.05,0,0,0.05,18.950000000000003,0)" xlink:href="#G"/><use transform="matrix(0.05,0,0,0.05,24.900000000000002,0)" xlink:href="#E"/><use transform="matrix(0.05,0,0,0.05,34.900000000000006,0)" xlink:href="#F"/><use transform="matrix(0.05,0,0,0.05,38.85000000000001,0)" xlink:href="#F"/></g><path d="M266 0h-40l-56-210L115 0H75L2-248h35L96-30l15-64 43-154h32l59 218 59-218h35" id="S"/><path d="M24-231v-30h32v30H24zM24 0v-190h32V0H24" id="T"/><path d="M143 0L79-87 56-68V0H24v-261h32v163l83-92h37l-77 82L181 0h-38" id="U"/><g id="f"><use transform="matrix(0.05,0,0,0.05,0,0)" xlink:href="#S"/><use transform="matrix(0.05,0,0,0.05,16.599999999999998,0)" xlink:href="#E"/><use transform="matrix(0.05,0,0,0.05,26.599999999999994,0)" xlink:href="#F"/><use transform="matrix(0.05,0,0,0.05,30.549999999999997,0)" xlink:href="#F"/><use transform="matrix(0.05,0,0,0.05,34.5,0)" xlink:href="#T"/><use transform="matrix(0.05,0,0,0.05,38.45,0)" xlink:href="#L"/><use transform="matrix(0.05,0,0,0.05,47.45,0)" xlink:href="#U"/></g><path d="M16-82v-28h88v28H16" id="V"/><use transform="matrix(0.05,0,0,0.05,0,0)" xlink:href="#V" id="g"/><path d="M233-177c-1 41-23 64-60 70L243 0h-38l-65-103H63V0H30v-248c88 3 205-21 203 71zM63-129c60-2 137 13 137-47 0-61-80-42-137-45v92" id="W"/><path d="M177-190C167-65 218 103 67 71c-23-6-38-20-44-43l32-5c15 47 100 32 89-28v-30C133-14 115 1 83 1 29 1 15-40 15-95c0-56 16-97 71-98 29-1 48 16 59 35 1-10 0-23 2-32h30zM94-22c36 0 50-32 50-73 0-42-14-75-50-75-39 0-46 34-46 75s6 73 46 73" id="X"/><g id="h"><use transform="matrix(0.05,0,0,0.05,0,0)" xlink:href="#W"/><use transform="matrix(0.05,0,0,0.05,12.950000000000001,0)" xlink:href="#M"/><use transform="matrix(0.05,0,0,0.05,22.950000000000003,0)" xlink:href="#N"/><use transform="matrix(0.05,0,0,0.05,32.95,0)" xlink:href="#X"/><use transform="matrix(0.05,0,0,0.05,42.95,0)" xlink:href="#E"/></g><g id="i"><use transform="matrix(0.05,0,0,0.05,0,0)" xlink:href="#D"/><use transform="matrix(0.05,0,0,0.05,8.950000000000001,0)" xlink:href="#E"/><use transform="matrix(0.05,0,0,0.05,18.950000000000003,0)" xlink:href="#F"/><use transform="matrix(0.05,0,0,0.05,22.900000000000002,0)" xlink:href="#F"/><use transform="matrix(0.05,0,0,0.05,26.85,0)" xlink:href="#E"/><use transform="matrix(0.05,0,0,0.05,36.85,0)" xlink:href="#G"/></g><path fill="#fff" d="M240 0l2-218c-23 76-54 145-80 218h-23L58-218 59 0H30v-248h44l77 211c21-75 51-140 76-211h43V0h-30" id="Y"/><path fill="#fff" d="M100-194c62-1 85 37 85 99 1 63-27 99-86 99S16-35 15-95c0-66 28-99 85-99zM99-20c44 1 53-31 53-75 0-43-8-75-51-75s-53 32-53 75 10 74 51 75" id="Z"/><path fill="#fff" d="M117-194c89-4 53 116 60 194h-32v-121c0-31-8-49-39-48C34-167 62-67 57 0H25l-1-190h30c1 10-1 24 2 32 11-22 29-35 61-36" id="aa"/><path fill="#fff" d="M100-194c63 0 86 42 84 106H49c0 40 14 67 53 68 26 1 43-12 49-29l28 8c-11 28-37 45-77 45C44 4 14-33 15-96c1-61 26-98 85-98zm52 81c6-60-76-77-97-28-3 7-6 17-6 28h103" id="ab"/><path fill="#fff" d="M179-190L93 31C79 59 56 82 12 73V49c39 6 53-20 64-50L1-190h34L92-34l54-156h33" id="ac"/><g id="j"><use transform="matrix(0.05,0,0,0.05,0,0)" xlink:href="#Y"/><use transform="matrix(0.05,0,0,0.05,14.950000000000001,0)" xlink:href="#Z"/><use transform="matrix(0.05,0,0,0.05,24.950000000000003,0)" xlink:href="#aa"/><use transform="matrix(0.05,0,0,0.05,34.95,0)" xlink:href="#ab"/><use transform="matrix(0.05,0,0,0.05,44.95,0)" xlink:href="#ac"/></g><path fill="#fff" d="M30 0v-248h33v221h125V0H30" id="ad"/><path fill="#fff" d="M141-36C126-15 110 5 73 4 37 3 15-17 15-53c-1-64 63-63 125-63 3-35-9-54-41-54-24 1-41 7-42 31l-33-3c5-37 33-52 76-52 45 0 72 20 72 64v82c-1 20 7 32 28 27v20c-31 9-61-2-59-35zM48-53c0 20 12 33 32 33 41-3 63-29 60-74-43 2-92-5-92 41" id="ae"/><path fill="#fff" d="M84 4C-5 8 30-112 23-190h32v120c0 31 7 50 39 49 72-2 45-101 50-169h31l1 190h-30c-1-10 1-25-2-33-11 22-28 36-60 37" id="af"/><path fill="#fff" d="M85-194c31 0 48 13 60 33l-1-100h32l1 261h-30c-2-10 0-23-3-31C134-8 116 4 85 4 32 4 16-35 15-94c0-66 23-100 70-100zm9 24c-40 0-46 34-46 75 0 40 6 74 45 74 42 0 51-32 51-76 0-42-9-74-50-73" id="ag"/><path fill="#fff" d="M114-163C36-179 61-72 57 0H25l-1-190h30c1 12-1 29 2 39 6-27 23-49 58-41v29" id="ah"/><path fill="#fff" d="M24-231v-30h32v30H24zM24 0v-190h32V0H24" id="ai"/><path fill="#fff" d="M177-190C167-65 218 103 67 71c-23-6-38-20-44-43l32-5c15 47 100 32 89-28v-30C133-14 115 1 83 1 29 1 15-40 15-95c0-56 16-97 71-98 29-1 48 16 59 35 1-10 0-23 2-32h30zM94-22c36 0 50-32 50-73 0-42-14-75-50-75-39 0-46 34-46 75s6 73 46 73" id="aj"/><g id="k"><use transform="matrix(0.05,0,0,0.05,0,0)" xlink:href="#ad"/><use transform="matrix(0.05,0,0,0.05,10,0)" xlink:href="#ae"/><use transform="matrix(0.05,0,0,0.05,20,0)" xlink:href="#af"/><use transform="matrix(0.05,0,0,0.05,30,0)" xlink:href="#aa"/><use transform="matrix(0.05,0,0,0.05,40,0)" xlink:href="#ag"/><use transform="matrix(0.05,0,0,0.05,50,0)" xlink:href="#ab"/><use transform="matrix(0.05,0,0,0.05,60,0)" xlink:href="#ah"/><use transform="matrix(0.05,0,0,0.05,65.95,0)" xlink:href="#ai"/><use transform="matrix(0.05,0,0,0.05,69.9,0)" xlink:href="#aa"/><use transform="matrix(0.05,0,0,0.05,79.9,0)" xlink:href="#aj"/></g><path d="M18-100v-36l175-74v27L42-118l151 64v27" id="ak"/><path d="M85-194c31 0 48 13 60 33l-1-100h32l1 261h-30c-2-10 0-23-3-31C134-8 116 4 85 4 32 4 16-35 15-94c0-66 23-100 70-100zm9 24c-40 0-46 34-46 75 0 40 6 74 45 74 42 0 51-32 51-76 0-42-9-74-50-73" id="al"/><path d="M18-27v-27l151-64-151-65v-27l175 74v36" id="am"/><g id="l"><use transform="matrix(0.05,0,0,0.05,0,0)" xlink:href="#ak"/><use transform="matrix(0.05,0,0,0.05,10.5,0)" xlink:href="#ak"/><use transform="matrix(0.05,0,0,0.05,21,0)" xlink:href="#T"/><use transform="matrix(0.05,0,0,0.05,24.95,0)" xlink:href="#J"/><use transform="matrix(0.05,0,0,0.05,34.95,0)" xlink:href="#L"/><use transform="matrix(0.05,0,0,0.05,43.95,0)" xlink:href="#F"/><use transform="matrix(0.05,0,0,0.05,47.900000000000006,0)" xlink:href="#N"/><use transform="matrix(0.05,0,0,0.05,57.900000000000006,0)" xlink:href="#al"/><use transform="matrix(0.05,0,0,0.05,67.9,0)" xlink:href="#E"/><use transform="matrix(0.05,0,0,0.05,77.9,0)" xlink:href="#Q"/><use transform="matrix(0.05,0,0,0.05,86.9,0)" xlink:href="#am"/><use transform="matrix(0.05,0,0,0.05,97.4,0)" xlink:href="#am"/></g><path d="M30 0v-248h33v221h125V0H30" id="an"/><g id="m"><use transform="matrix(0.05,0,0,0.05,0,0)" xlink:href="#an"/><use transform="matrix(0.05,0,0,0.05,10,0)" xlink:href="#M"/><use transform="matrix(0.05,0,0,0.05,20,0)" xlink:href="#X"/></g><path d="M108 0H70L1-190h34L89-25l56-165h34" id="ao"/><path d="M206 0h-36l-40-164L89 0H53L-1-190h32L70-26l43-164h34l41 164 42-164h31" id="ap"/><g id="n"><use transform="matrix(0.05,0,0,0.05,0,0)" xlink:href="#W"/><use transform="matrix(0.05,0,0,0.05,12.950000000000001,0)" xlink:href="#E"/><use transform="matrix(0.05,0,0,0.05,22.950000000000003,0)" xlink:href="#ao"/><use transform="matrix(0.05,0,0,0.05,31.950000000000003,0)" xlink:href="#T"/><use transform="matrix(0.05,0,0,0.05,35.900000000000006,0)" xlink:href="#E"/><use transform="matrix(0.05,0,0,0.05,45.900000000000006,0)" xlink:href="#ap"/></g><g id="o"><use transform="matrix(0.05,0,0,0.05,0,0)" xlink:href="#ak"/><use transform="matrix(0.05,0,0,0.05,10.5,0)" xlink:href="#ak"/><use transform="matrix(0.05,0,0,0.05,21,0)" xlink:href="#al"/><use transform="matrix(0.05,0,0,0.05,31,0)" xlink:href="#E"/><use transform="matrix(0.05,0,0,0.05,41,0)" xlink:href="#O"/><use transform="matrix(0.05,0,0,0.05,46,0)" xlink:href="#E"/><use transform="matrix(0.05,0,0,0.05,56,0)" xlink:href="#L"/><use transform="matrix(0.05,0,0,0.05,65,0)" xlink:href="#O"/><use transform="matrix(0.05,0,0,0.05,70,0)" xlink:href="#Q"/><use transform="matrix(0.05,0,0,0.05,79,0)" xlink:href="#am"/><use transform="matrix(0.05,0,0,0.05,89.5,0)" xlink:href="#am"/></g><path d="M185-189c-5-48-123-54-124 2 14 75 158 14 163 119 3 78-121 87-175 55-17-10-28-26-33-46l33-7c5 56 141 63 141-1 0-78-155-14-162-118-5-82 145-84 179-34 5 7 8 16 11 25" id="aq"/><g id="p"><use transform="matrix(0.05,0,0,0.05,0,0)" xlink:href="#aq"/><use transform="matrix(0.05,0,0,0.05,12,0)" xlink:href="#L"/><use transform="matrix(0.05,0,0,0.05,21,0)" xlink:href="#M"/><use transform="matrix(0.05,0,0,0.05,31,0)" xlink:href="#O"/><use transform="matrix(0.05,0,0,0.05,36,0)" xlink:href="#O"/></g><use transform="matrix(0.05,0,0,0.05,0,0)" xlink:href="#V" id="q"/><path d="M210-169c-67 3-38 105-44 169h-31v-121c0-29-5-50-35-48C34-165 62-65 56 0H25l-1-190h30c1 10-1 24 2 32 10-44 99-50 107 0 11-21 27-35 58-36 85-2 47 119 55 194h-31v-121c0-29-5-49-35-48" id="ar"/><g id="r"><use transform="matrix(0.05,0,0,0.05,0,0)" xlink:href="#K"/><use transform="matrix(0.05,0,0,0.05,12,0)" xlink:href="#al"/><use transform="matrix(0.05,0,0,0.05,22,0)" xlink:href="#ar"/><use transform="matrix(0.05,0,0,0.05,36.95,0)" xlink:href="#T"/><use transform="matrix(0.05,0,0,0.05,40.900000000000006,0)" xlink:href="#J"/></g><path fill="#fff" d="M197 0v-115H63V0H30v-248h33v105h134v-105h34V0h-34" id="as"/><g id="s"><use transform="matrix(0.05,0,0,0.05,0,0)" xlink:href="#as"/><use transform="matrix(0.05,0,0,0.05,12.950000000000001,0)" xlink:href="#ai"/><use transform="matrix(0.05,0,0,0.05,16.900000000000002,0)" xlink:href="#ag"/><use transform="matrix(0.05,0,0,0.05,26.900000000000002,0)" xlink:href="#ab"/></g><path fill="#fff" d="M205 0l-28-72H64L36 0H1l101-248h38L239 0h-34zm-38-99l-47-123c-12 45-31 82-46 123h93" id="at"/><path fill="#fff" d="M96-169c-40 0-48 33-48 73s9 75 48 75c24 0 41-14 43-38l32 2c-6 37-31 61-74 61-59 0-76-41-82-99-10-93 101-131 147-64 4 7 5 14 7 22l-32 3c-4-21-16-35-41-35" id="au"/><path fill="#fff" d="M59-47c-2 24 18 29 38 22v24C64 9 27 4 27-40v-127H5v-23h24l9-43h21v43h35v23H59v120" id="av"/><path fill="#fff" d="M108 0H70L1-190h34L89-25l56-165h34" id="aw"/><path fill="#fff" d="M135-143c-3-34-86-38-87 0 15 53 115 12 119 90S17 21 10-45l28-5c4 36 97 45 98 0-10-56-113-15-118-90-4-57 82-63 122-42 12 7 21 19 24 35" id="ax"/><g id="t"><use transform="matrix(0.05,0,0,0.05,0,0)" xlink:href="#at"/><use transform="matrix(0.05,0,0,0.05,12,0)" xlink:href="#au"/><use transform="matrix(0.05,0,0,0.05,21,0)" xlink:href="#av"/><use transform="matrix(0.05,0,0,0.05,26,0)" xlink:href="#ai"/><use transform="matrix(0.05,0,0,0.05,29.950000000000003,0)" xlink:href="#aw"/><use transform="matrix(0.05,0,0,0.05,38.95,0)" xlink:href="#ai"/><use transform="matrix(0.05,0,0,0.05,42.900000000000006,0)" xlink:href="#av"/><use transform="matrix(0.05,0,0,0.05,47.900000000000006,0)" xlink:href="#ai"/><use transform="matrix(0.05,0,0,0.05,51.85,0)" xlink:href="#ab"/><use transform="matrix(0.05,0,0,0.05,61.85,0)" xlink:href="#ax"/></g><path fill="#fff" d="M101-234c-31-9-42 10-38 44h38v23H63V0H32v-167H5v-23h27c-7-52 17-82 69-68v24" id="ay"/><path fill="#fff" d="M210-169c-67 3-38 105-44 169h-31v-121c0-29-5-50-35-48C34-165 62-65 56 0H25l-1-190h30c1 10-1 24 2 32 10-44 99-50 107 0 11-21 27-35 58-36 85-2 47 119 55 194h-31v-121c0-29-5-49-35-48" id="az"/><g id="u"><use transform="matrix(0.05,0,0,0.05,0,0)" xlink:href="#ay"/><use transform="matrix(0.05,0,0,0.05,5,0)" xlink:href="#ah"/><use transform="matrix(0.05,0,0,0.05,10.95,0)" xlink:href="#Z"/><use transform="matrix(0.05,0,0,0.05,20.95,0)" xlink:href="#az"/></g><g id="v"><use transform="matrix(0.05,0,0,0.05,0,0)" xlink:href="#ad"/><use transform="matrix(0.05,0,0,0.05,10,0)" xlink:href="#Z"/><use transform="matrix(0.05,0,0,0.05,20,0)" xlink:href="#aj"/><use transform="matrix(0.05,0,0,0.05,30,0)" xlink:href="#aj"/><use transform="matrix(0.05,0,0,0.05,40,0)" xlink:href="#ai"/><use transform="matrix(0.05,0,0,0.05,43.95,0)" xlink:href="#aa"/><use transform="matrix(0.05,0,0,0.05,53.95,0)" xlink:href="#aj"/></g><path d="M106-169C34-169 62-67 57 0H25v-261h32l-1 103c12-21 28-36 61-36 89 0 53 116 60 194h-32v-121c2-32-8-49-39-48" id="aA"/><path d="M141-36C126-15 110 5 73 4 37 3 15-17 15-53c-1-64 63-63 125-63 3-35-9-54-41-54-24 1-41 7-42 31l-33-3c5-37 33-52 76-52 45 0 72 20 72 64v82c-1 20 7 32 28 27v20c-31 9-61-2-59-35zM48-53c0 20 12 33 32 33 41-3 63-29 60-74-43 2-92-5-92 41" id="aB"/><g id="w"><use transform="matrix(0.05,0,0,0.05,0,0)" xlink:href="#ak"/><use transform="matrix(0.05,0,0,0.05,10.5,0)" xlink:href="#ak"/><use transform="matrix(0.05,0,0,0.05,21,0)" xlink:href="#O"/><use transform="matrix(0.05,0,0,0.05,26,0)" xlink:href="#aA"/><use transform="matrix(0.05,0,0,0.05,36,0)" xlink:href="#G"/><use transform="matrix(0.05,0,0,0.05,41.95,0)" xlink:href="#E"/><use transform="matrix(0.05,0,0,0.05,51.95,0)" xlink:href="#aB"/><use transform="matrix(0.05,0,0,0.05,61.95,0)" xlink:href="#O"/><use transform="matrix(0.05,0,0,0.05,66.95,0)" xlink:href="#E"/><use transform="matrix(0.05,0,0,0.05,76.95,0)" xlink:href="#J"/><use transform="matrix(0.05,0,0,0.05,86.95,0)" xlink:href="#Q"/><use transform="matrix(0.05,0,0,0.05,95.95,0)" xlink:href="#am"/><use transform="matrix(0.05,0,0,0.05,106.45,0)" xlink:href="#am"/></g><g id="x"><use transform="matrix(0.05,0,0,0.05,0,0)" xlink:href="#K"/><use transform="matrix(0.05,0,0,0.05,12,0)" xlink:href="#I"/><use transform="matrix(0.05,0,0,0.05,22,0)" xlink:href="#I"/><use transform="matrix(0.05,0,0,0.05,32,0)" xlink:href="#G"/><use transform="matrix(0.05,0,0,0.05,37.95,0)" xlink:href="#M"/><use transform="matrix(0.05,0,0,0.05,47.95,0)" xlink:href="#ao"/><use transform="matrix(0.05,0,0,0.05,56.95,0)" xlink:href="#E"/></g><g id="y"><use transform="matrix(0.05,0,0,0.05,0,0)" xlink:href="#K"/><use transform="matrix(0.05,0,0,0.05,12,0)" xlink:href="#L"/><use transform="matrix(0.05,0,0,0.05,21,0)" xlink:href="#L"/><use transform="matrix(0.05,0,0,0.05,30,0)" xlink:href="#M"/><use transform="matrix(0.05,0,0,0.05,40,0)" xlink:href="#N"/><use transform="matrix(0.05,0,0,0.05,50,0)" xlink:href="#J"/><use transform="matrix(0.05,0,0,0.05,60,0)" xlink:href="#O"/></g><g id="z"><use transform="matrix(0.05,0,0,0.05,0,0)" xlink:href="#H"/><use transform="matrix(0.05,0,0,0.05,14,0)" xlink:href="#I"/><use transform="matrix(0.05,0,0,0.05,24,0)" xlink:href="#E"/><use transform="matrix(0.05,0,0,0.05,34,0)" xlink:href="#J"/><use transform="matrix(0.05,0,0,0.05,44,0)" xlink:href="#T"/><use transform="matrix(0.05,0,0,0.05,47.95,0)" xlink:href="#J"/><use transform="matrix(0.05,0,0,0.05,57.95,0)" xlink:href="#X"/></g><g id="A"><use transform="matrix(0.05,0,0,0.05,0,0)" xlink:href="#ak"/><use transform="matrix(0.05,0,0,0.05,10.5,0)" xlink:href="#ak"/><use transform="matrix(0.05,0,0,0.05,21,0)" xlink:href="#I"/><use transform="matrix(0.05,0,0,0.05,31,0)" xlink:href="#G"/><use transform="matrix(0.05,0,0,0.05,36.95,0)" xlink:href="#E"/><use transform="matrix(0.05,0,0,0.05,46.95,0)" xlink:href="#ao"/><use transform="matrix(0.05,0,0,0.05,55.95,0)" xlink:href="#E"/><use transform="matrix(0.05,0,0,0.05,65.95,0)" xlink:href="#J"/><use transform="matrix(0.05,0,0,0.05,75.95,0)" xlink:href="#O"/><use transform="matrix(0.05,0,0,0.05,80.95,0)" xlink:href="#Q"/><use transform="matrix(0.05,0,0,0.05,89.95,0)" xlink:href="#am"/><use transform="matrix(0.05,0,0,0.05,100.45,0)" xlink:href="#am"/></g><path d="M160-131c35 5 61 23 61 61C221 17 115-2 30 0v-248c76 3 177-17 177 60 0 33-19 50-47 57zm-97-11c50-1 110 9 110-42 0-47-63-36-110-37v79zm0 115c55-2 124 14 124-45 0-56-70-42-124-44v89" id="aC"/><g id="B"><use transform="matrix(0.05,0,0,0.05,0,0)" xlink:href="#aC"/><use transform="matrix(0.05,0,0,0.05,12,0)" xlink:href="#aB"/><use transform="matrix(0.05,0,0,0.05,22,0)" xlink:href="#J"/><use transform="matrix(0.05,0,0,0.05,32,0)" xlink:href="#U"/></g><path d="M240 0l2-218c-23 76-54 145-80 218h-23L58-218 59 0H30v-248h44l77 211c21-75 51-140 76-211h43V0h-30" id="aD"/><g id="C"><use transform="matrix(0.05,0,0,0.05,0,0)" xlink:href="#aD"/><use transform="matrix(0.05,0,0,0.05,14.950000000000001,0)" xlink:href="#aB"/><use transform="matrix(0.05,0,0,0.05,24.950000000000003,0)" xlink:href="#J"/><use transform="matrix(0.05,0,0,0.05,34.95,0)" xlink:href="#aB"/><use transform="matrix(0.05,0,0,0.05,44.95,0)" xlink:href="#X"/><use transform="matrix(0.05,0,0,0.05,54.95,0)" xlink:href="#E"/><use transform="matrix(0.05,0,0,0.05,64.95,0)" xlink:href="#G"/></g></defs></g></svg>