<svg xmlns="http://www.w3.org/2000/svg" xmlns:xlink="http://www.w3.org/1999/xlink" width="799" height="140"><g transform="translate(-100 -142)"><path d="M0 0h1360v1760H0z" fill="#fff"/><path d="M120 162h180v100H120z" stroke="#000" stroke-width="2" fill="#fff"/><use xlink:href="#a" transform="matrix(1,0,0,1,125,167) translate(51.05 48.6)"/><path d="M145.9 260.42v-50.2h.1V160M145.9 260.42v3M134.04 260.13v-50.07H134V160M134.04 260.13v3" stroke="#000" stroke-width="2" fill="none"/><path d="M879 212c0 27.6-49.25 50-110 50s-110-22.4-110-50 49.25-50 110-50 110 22.4 110 50z" fill="#fff"/><path d="M870.43 231.36l-.8.88-1.6 1.57-1.85 1.65-2.1 1.72-2.44 1.8-2.8 1.9-3.23 1.96-2.5 1.38m-9.8 4.66l-.67.3-5.66 2.16-6.45 2.14-7.3 2.05-.5.13m-10.6 2.33l-5.96 1.12-9.7 1.35-5.8.54m-10.82.73l-4.63.22-6.2.08-10.84-.25m-10.82-.72h-.1l-10.08-1.16-9.38-1.5-1.9-.4m-10.58-2.37l-3.87-1-6.9-2.1-6.1-2.15-3.72-1.5m-9.8-4.63l-.5-.26-3.5-2-3.03-1.95-2.63-1.84-2.28-1.77-2-1.7-1.7-1.6-1.52-1.53-.18-.2m-6.14-8.9l-.05-.1-.5-1.16-.44-1.1-.37-1.12-.3-1.1-.26-1.07-.2-1.05-.14-1.06-.1-1.06-.05-1.05v-.6l.02-1.05.08-1.06.12-1.06.17-1.06.2-1.07.28-1.07.34-1.1.4-1.1.46-1.15.35-.76m6.14-8.88l.8-.88 1.6-1.57 1.85-1.65 2.1-1.72 2.44-1.8 2.8-1.9 3.23-1.96 2.5-1.38m9.8-4.66l.67-.3 5.66-2.16 6.45-2.14 7.3-2.05.5-.13m10.6-2.33l5.96-1.12 9.7-1.35 5.8-.54m10.82-.73l4.63-.22 6.2-.08 10.84.25m10.82.72h.1l10.08 1.16 9.38 1.5 1.9.4m10.58 2.37l3.87 1 6.9 2.1 6.1 2.15 3.72 1.5m9.8 4.63l.5.26 3.5 2 3.03 1.95 2.63 1.84 2.28 1.77 2 1.7 1.7 1.6 1.52 1.53.18.2m6.14 8.9l.05.1.5 1.16.44 1.1.37 1.12.3 1.1.26 1.07.2 1.05.14 1.06.1 1.06.05 1.05v.6l-.02 1.05-.08 1.06-.12 1.06-.17 1.06-.2 1.07-.28 1.07-.34 1.1-.4 1.1-.46 1.15-.35.76" stroke="#000" stroke-width="2" fill="none"/><use xlink:href="#b" transform="matrix(1,0,0,1,664,167) translate(53.599999999999994 48.6)"/><path d="M420 212H300" stroke="#000" stroke-width="2" fill="none"/><path d="M659 212h-79" fill="none"/><path d="M659 212h-8.78m-8.78 0H623.9m-8.8 0h-17.54m-8.78 0H580" stroke="#000" stroke-width="2" fill="none"/><path d="M659 212v.6l.03.4H659v-2h.02zM594.27 216.64L580 212l14.27-4.64z"/><path d="M595.27 218L580 213.06v-2.1l15.27-4.96zm-12.03-6l10.03 3.26v-6.52z"/><path d="M420 162h160v100H420z" stroke="#000" stroke-width="2" fill="#fff"/><use xlink:href="#c" transform="matrix(1,0,0,1,425,167) translate(18.099999999999994 48.6)"/><use xlink:href="#d" transform="matrix(1,0,0,1,425,167) translate(70.05 48.6)"/><defs><path d="M240 0l2-218c-23 76-54 145-80 218h-23L58-218 59 0H30v-248h44l77 211c21-75 51-140 76-211h43V0h-30" id="e"/><path d="M141-36C126-15 110 5 73 4 37 3 15-17 15-53c-1-64 63-63 125-63 3-35-9-54-41-54-24 1-41 7-42 31l-33-3c5-37 33-52 76-52 45 0 72 20 72 64v82c-1 20 7 32 28 27v20c-31 9-61-2-59-35zM48-53c0 20 12 33 32 33 41-3 63-29 60-74-43 2-92-5-92 41" id="f"/><path d="M96-169c-40 0-48 33-48 73s9 75 48 75c24 0 41-14 43-38l32 2c-6 37-31 61-74 61-59 0-76-41-82-99-10-93 101-131 147-64 4 7 5 14 7 22l-32 3c-4-21-16-35-41-35" id="g"/><path d="M106-169C34-169 62-67 57 0H25v-261h32l-1 103c12-21 28-36 61-36 89 0 53 116 60 194h-32v-121c2-32-8-49-39-48" id="h"/><path d="M24-231v-30h32v30H24zM24 0v-190h32V0H24" id="i"/><path d="M117-194c89-4 53 116 60 194h-32v-121c0-31-8-49-39-48C34-167 62-67 57 0H25l-1-190h30c1 10-1 24 2 32 11-22 29-35 61-36" id="j"/><path d="M100-194c63 0 86 42 84 106H49c0 40 14 67 53 68 26 1 43-12 49-29l28 8c-11 28-37 45-77 45C44 4 14-33 15-96c1-61 26-98 85-98zm52 81c6-60-76-77-97-28-3 7-6 17-6 28h103" id="k"/><g id="a"><use transform="matrix(0.05,0,0,0.05,0,0)" xlink:href="#e"/><use transform="matrix(0.05,0,0,0.05,14.950000000000001,0)" xlink:href="#f"/><use transform="matrix(0.05,0,0,0.05,24.950000000000003,0)" xlink:href="#g"/><use transform="matrix(0.05,0,0,0.05,33.95,0)" xlink:href="#h"/><use transform="matrix(0.05,0,0,0.05,43.95,0)" xlink:href="#i"/><use transform="matrix(0.05,0,0,0.05,47.900000000000006,0)" xlink:href="#j"/><use transform="matrix(0.05,0,0,0.05,57.900000000000006,0)" xlink:href="#k"/></g><path d="M233-177c-1 41-23 64-60 70L243 0h-38l-65-103H63V0H30v-248c88 3 205-21 203 71zM63-129c60-2 137 13 137-47 0-61-80-42-137-45v92" id="l"/><path d="M145-31C134-9 116 4 85 4 32 4 16-35 15-94c0-59 17-99 70-100 32-1 48 14 60 33 0-11-1-24 2-32h30l-1 268h-32zM93-21c41 0 51-33 51-76s-8-73-50-73c-40 0-46 35-46 75s5 74 45 74" id="m"/><path d="M84 4C-5 8 30-112 23-190h32v120c0 31 7 50 39 49 72-2 45-101 50-169h31l1 190h-30c-1-10 1-25-2-33-11 22-28 36-60 37" id="n"/><path d="M114-163C36-179 61-72 57 0H25l-1-190h30c1 12-1 29 2 39 6-27 23-49 58-41v29" id="o"/><path d="M210-169c-67 3-38 105-44 169h-31v-121c0-29-5-50-35-48C34-165 62-65 56 0H25l-1-190h30c1 10-1 24 2 32 10-44 99-50 107 0 11-21 27-35 58-36 85-2 47 119 55 194h-31v-121c0-29-5-49-35-48" id="p"/><path d="M59-47c-2 24 18 29 38 22v24C64 9 27 4 27-40v-127H5v-23h24l9-43h21v43h35v23H59v120" id="q"/><g id="b"><use transform="matrix(0.05,0,0,0.05,0,0)" xlink:href="#l"/><use transform="matrix(0.05,0,0,0.05,12.950000000000001,0)" xlink:href="#k"/><use transform="matrix(0.05,0,0,0.05,22.950000000000003,0)" xlink:href="#m"/><use transform="matrix(0.05,0,0,0.05,32.95,0)" xlink:href="#n"/><use transform="matrix(0.05,0,0,0.05,42.95,0)" xlink:href="#i"/><use transform="matrix(0.05,0,0,0.05,46.900000000000006,0)" xlink:href="#o"/><use transform="matrix(0.05,0,0,0.05,52.85,0)" xlink:href="#k"/><use transform="matrix(0.05,0,0,0.05,62.85,0)" xlink:href="#p"/><use transform="matrix(0.05,0,0,0.05,77.80000000000001,0)" xlink:href="#k"/><use transform="matrix(0.05,0,0,0.05,87.80000000000001,0)" xlink:href="#j"/><use transform="matrix(0.05,0,0,0.05,97.80000000000001,0)" xlink:href="#q"/></g><path d="M143 4C61 4 22-44 18-125c-5-107 100-154 193-111 17 8 29 25 37 43l-32 9c-13-25-37-40-76-40-61 0-88 39-88 99 0 61 29 100 91 101 35 0 62-11 79-27v-45h-74v-28h105v86C228-13 192 4 143 4" id="r"/><path d="M108 0H70L1-190h34L89-25l56-165h34" id="s"/><g id="c"><use transform="matrix(0.05,0,0,0.05,0,0)" xlink:href="#r"/><use transform="matrix(0.05,0,0,0.05,14,0)" xlink:href="#i"/><use transform="matrix(0.05,0,0,0.05,17.95,0)" xlink:href="#s"/><use transform="matrix(0.05,0,0,0.05,26.950000000000003,0)" xlink:href="#k"/><use transform="matrix(0.05,0,0,0.05,36.95,0)" xlink:href="#j"/></g><path d="M30-248c118-7 216 8 213 122C240-48 200 0 122 0H30v-248zM63-27c89 8 146-16 146-99s-60-101-146-95v194" id="t"/><path d="M100-194c62-1 85 37 85 99 1 63-27 99-86 99S16-35 15-95c0-66 28-99 85-99zM99-20c44 1 53-31 53-75 0-43-8-75-51-75s-53 32-53 75 10 74 51 75" id="u"/><g id="d"><use transform="matrix(0.05,0,0,0.05,0,0)" xlink:href="#t"/><use transform="matrix(0.05,0,0,0.05,12.950000000000001,0)" xlink:href="#u"/><use transform="matrix(0.05,0,0,0.05,22.950000000000003,0)" xlink:href="#p"/><use transform="matrix(0.05,0,0,0.05,37.900000000000006,0)" xlink:href="#f"/><use transform="matrix(0.05,0,0,0.05,47.900000000000006,0)" xlink:href="#i"/><use transform="matrix(0.05,0,0,0.05,51.85,0)" xlink:href="#j"/></g></defs></g></svg>