<svg xmlns="http://www.w3.org/2000/svg" xmlns:xlink="http://www.w3.org/1999/xlink" width="881.33" height="720"><g transform="translate(-298.6666666666667 -100)"><path d="M0 0h1360v1760H0z" fill="#fff"/><path d="M318.67 587.33h240v60h-240z" fill="none"/><use xlink:href="#a" transform="matrix(1,0,0,1,318.6666666666667,587.3333333333334) translate(73.05 33.6)"/><use xlink:href="#b" transform="matrix(1,0,0,1,318.6666666666667,587.3333333333334) translate(91 33.6)"/><use xlink:href="#c" transform="matrix(1,0,0,1,318.6666666666667,587.3333333333334) translate(147.95 33.6)"/><path d="M440 120h330v140H440z" stroke="#000" stroke-width="2" fill="#fff"/><use xlink:href="#d" transform="matrix(1,0,0,1,445,125) translate(100.79999999999998 25.39999999999999)"/><use xlink:href="#e" transform="matrix(1,0,0,1,445,125) translate(137.29999999999998 25.39999999999999)"/><use xlink:href="#f" transform="matrix(1,0,0,1,445,125) translate(191.25 25.39999999999999)"/><use xlink:href="#g" transform="matrix(1,0,0,1,445,125) translate(23.625 46.99999999999999)"/><use xlink:href="#h" transform="matrix(1,0,0,1,445,125) translate(79.575 46.99999999999999)"/><use xlink:href="#i" transform="matrix(1,0,0,1,445,125) translate(109.525 46.99999999999999)"/><use xlink:href="#j" transform="matrix(1,0,0,1,445,125) translate(166.47500000000002 46.99999999999999)"/><use xlink:href="#k" transform="matrix(1,0,0,1,445,125) translate(214.425 46.99999999999999)"/><use xlink:href="#l" transform="matrix(1,0,0,1,445,125) translate(124.625 68.6)"/><use xlink:href="#m" transform="matrix(1,0,0,1,445,125) translate(4.699999999999989 90.20000000000002)"/><use xlink:href="#n" transform="matrix(1,0,0,1,445,125) translate(34.69999999999999 90.20000000000002)"/><use xlink:href="#o" transform="matrix(1,0,0,1,445,125) translate(117.5 90.20000000000002)"/><use xlink:href="#p" transform="matrix(1,0,0,1,445,125) translate(137.5 90.20000000000002)"/><use xlink:href="#q" transform="matrix(1,0,0,1,445,125) translate(216.5 90.20000000000002)"/><use xlink:href="#r" transform="matrix(1,0,0,1,445,125) translate(240.5 90.20000000000002)"/><use xlink:href="#s" transform="matrix(1,0,0,1,445,125) translate(44.64999999999998 111.80000000000001)"/><use xlink:href="#t" transform="matrix(1,0,0,1,445,125) translate(88.64999999999998 111.80000000000001)"/><use xlink:href="#u" transform="matrix(1,0,0,1,445,125) translate(107.59999999999998 111.80000000000001)"/><use xlink:href="#v" transform="matrix(1,0,0,1,445,125) translate(180.5 111.80000000000001)"/><path d="M1112 131c26.5 0 48 26.42 48 59s-21.5 59-48 59H968c-26.5 0-48-26.42-48-59s21.5-59 48-59z" stroke="#000" stroke-width="2" fill="#fff"/><use xlink:href="#w" transform="matrix(1,0,0,1,925,136) translate(43.69999999999999 25.69999999999999)"/><use xlink:href="#x" transform="matrix(1,0,0,1,925,136) translate(121.39999999999999 25.69999999999999)"/><use xlink:href="#y" transform="matrix(1,0,0,1,925,136) translate(15.625 47.29999999999999)"/><use xlink:href="#z" transform="matrix(1,0,0,1,925,136) translate(136.47500000000002 47.29999999999999)"/><use xlink:href="#A" transform="matrix(1,0,0,1,925,136) translate(162.425 47.29999999999999)"/><use xlink:href="#B" transform="matrix(1,0,0,1,925,136) translate(11.799999999999997 68.89999999999999)"/><use xlink:href="#C" transform="matrix(1,0,0,1,925,136) translate(59.75 68.89999999999999)"/><use xlink:href="#D" transform="matrix(1,0,0,1,925,136) translate(146.7 68.89999999999999)"/><use xlink:href="#E" transform="matrix(1,0,0,1,925,136) translate(177.64999999999998 68.89999999999999)"/><use xlink:href="#F" transform="matrix(1,0,0,1,925,136) translate(67.7 90.5)"/><use xlink:href="#G" transform="matrix(1,0,0,1,925,136) translate(96.35 90.5)"/><path d="M770 190h150" stroke="#000" stroke-width="2" fill="none"/><path d="M770 191v-2zM920 190l-14.27 4.64v-9.28z"/><path d="M920.04 188.96L920 190l.02 1.04-15.3 4.97v-12zm-13.3 4.3l10.02-3.26-10.03-3.26z"/><path fill="#fff" d="M796.53 179.2h96.96v21.6h-96.97z"/><use xlink:href="#H" transform="matrix(1,0,0,1,796.5255624971875,179.20000000000002) translate(0 14.4)"/><use xlink:href="#I" transform="matrix(1,0,0,1,796.5255624971875,179.20000000000002) translate(18.95 14.4)"/><use xlink:href="#J" transform="matrix(1,0,0,1,796.5255624971875,179.20000000000002) translate(81.95 14.4)"/><path d="M1112 280c26.5 0 48 24.58 48 54.9s-21.5 54.9-48 54.9H968c-26.5 0-48-24.58-48-54.9s21.5-54.9 48-54.9z" stroke="#000" stroke-width="2" fill="#fff"/><g><use xlink:href="#K" transform="matrix(1,0,0,1,925,285) translate(11.249999999999986 32)"/><use xlink:href="#L" transform="matrix(1,0,0,1,925,285) translate(127.9 32)"/><use xlink:href="#M" transform="matrix(1,0,0,1,925,285) translate(5.674999999999997 53.6)"/><use xlink:href="#N" transform="matrix(1,0,0,1,925,285) translate(66.575 53.6)"/><use xlink:href="#O" transform="matrix(1,0,0,1,925,285) translate(86.575 53.6)"/><use xlink:href="#P" transform="matrix(1,0,0,1,925,285) translate(166.375 53.6)"/><use xlink:href="#Q" transform="matrix(1,0,0,1,925,285) translate(210.375 53.6)"/><use xlink:href="#R" transform="matrix(1,0,0,1,925,285) translate(19.125 75.2)"/><use xlink:href="#S" transform="matrix(1,0,0,1,925,285) translate(83.025 75.2)"/><use xlink:href="#T" transform="matrix(1,0,0,1,925,285) translate(142.97500000000002 75.2)"/></g><path d="M770 190l3.76.12 3.55.36 3.4.57 3.28.78 3.2 1 3.17 1.2 3.16 1.47 3.2 1.75 3.28 2.08 3.4 2.5 3.57 3 3.85 3.73 4.25 4.68 4.87 6.16 6 8.72 8.94 15.14 10.14 19.2 16.13 29.57 6.75 10.4 5.23 7 4.47 5.2 4 4.05 3.66 3.27 3.46 2.68 3.3 2.24 3.23 1.87 3.17 1.57 3.16 1.33 3.18 1.07 3.24.87 3.35.65 3.48.44 3.68.22 1.52.02" stroke="#000" stroke-width="2" fill="none"/><path d="M770.14 189l-.14 1v-1zM920 334.9l-14.77 2.6 1.3-9.17z"/><path d="M920.05 333.8l-.05 1.1v1l-15.95 2.83 1.67-11.9zm-13.64 2.5l10.4-1.85-9.48-4.62z"/><path fill="#fff" d="M796.52 251.65h96.96v21.6h-96.96z"/><g><use xlink:href="#H" transform="matrix(1,0,0,1,796.5244620984407,251.64900543597452) translate(0 14.4)"/><use xlink:href="#I" transform="matrix(1,0,0,1,796.5244620984407,251.64900543597452) translate(18.95 14.4)"/><use xlink:href="#J" transform="matrix(1,0,0,1,796.5244620984407,251.64900543597452) translate(81.95 14.4)"/></g><path d="M472 320h298l-32 120H440z" stroke="#000" stroke-width="2" fill="#fff"/><g><use xlink:href="#U" transform="matrix(1,0,0,1,445,325) translate(36.150000000000006 47.8)"/><use xlink:href="#V" transform="matrix(1,0,0,1,445,325) translate(41.150000000000006 47.8)"/><use xlink:href="#W" transform="matrix(1,0,0,1,445,325) translate(123.00000000000001 47.8)"/><use xlink:href="#X" transform="matrix(1,0,0,1,445,325) translate(205.9 47.8)"/><use xlink:href="#Y" transform="matrix(1,0,0,1,445,325) translate(229.9 47.8)"/><use xlink:href="#Z" transform="matrix(1,0,0,1,445,325) translate(34.675 69.4)"/><use xlink:href="#aa" transform="matrix(1,0,0,1,445,325) translate(59.675 69.4)"/><use xlink:href="#ab" transform="matrix(1,0,0,1,445,325) translate(132.575 69.4)"/><use xlink:href="#ac" transform="matrix(1,0,0,1,445,325) translate(213.425 69.4)"/></g><path d="M605 260l.67 59" stroke="#000" stroke-width="2" fill="none"/><path d="M604 260h1.08zM605.67 319l-4.8-14.2 9.27-.12z"/><path d="M606.4 320h-1.45l-5.47-16.2 12.03-.13zm-4.14-14.23l3.37 10 3.15-10.07z"/><path fill="#fff" d="M558.38 278.7h93.9v21.6h-93.9z"/><g><use xlink:href="#ad" transform="matrix(1,0,0,1,558.3832371610924,278.70044249557503) translate(0 14.4)"/><use xlink:href="#ae" transform="matrix(1,0,0,1,558.3832371610924,278.70044249557503) translate(17.95 14.4)"/><use xlink:href="#af" transform="matrix(1,0,0,1,558.3832371610924,278.70044249557503) translate(74.9 14.4)"/></g><path d="M320 500h240v98H320z" stroke="#000" stroke-width="2" fill="#fff"/><g><use xlink:href="#ag" transform="matrix(1,0,0,1,325,505) translate(7.674999999999997 26)"/><use xlink:href="#ah" transform="matrix(1,0,0,1,325,505) translate(67.575 26)"/><use xlink:href="#ai" transform="matrix(1,0,0,1,325,505) translate(150.425 26)"/><use xlink:href="#aj" transform="matrix(1,0,0,1,325,505) translate(43.175 47.6)"/><use xlink:href="#ak" transform="matrix(1,0,0,1,325,505) translate(118.925 47.6)"/><use xlink:href="#al" transform="matrix(1,0,0,1,325,505) translate(65.525 69.2)"/></g><path d="M605 440v.5l-.06.48-.07.48-.1.48-.14.48-.17.5-.2.5-.27.52-.3.54-.38.57-.45.6-.54.64-.66.7-.8.75-1.02.84-1.3.93-1.68 1.08-2.25 1.27-3.12 1.5-4.55 1.85-7.15 2.4-12.88 3.5L522.5 470l-45.32 9.1-12.44 3.4-6.96 2.38-4.46 1.84-3.07 1.48-2.22 1.25-1.66 1.07-1.27.94-1 .83-.8.75-.66.7-.54.63-.44.6-.36.57-.3.54-.26.5-.2.5-.18.5-.13.5-.1.47-.07.48-.05.48v.47" stroke="#000" stroke-width="2" fill="none"/><path d="M605.78 440.63L605 440h1.3zM452.6 491.85L440 500l5.4-14z"/><path d="M454.3 491.94L441.83 500h-2.9l6.02-15.64zm-12.26 5.55l8.85-5.74-5.07-4.1z"/><path fill="#fff" d="M486.86 456.94h93.9v21.6h-93.9z"/><g><use xlink:href="#ad" transform="matrix(1,0,0,1,486.86408143630416,456.93855203036253) translate(0 14.4)"/><use xlink:href="#ae" transform="matrix(1,0,0,1,486.86408143630416,456.93855203036253) translate(17.95 14.4)"/><use xlink:href="#af" transform="matrix(1,0,0,1,486.86408143630416,456.93855203036253) translate(74.9 14.4)"/></g><path d="M520 720c0 44.18-35.82 80-80 80s-80-35.82-80-80 35.82-80 80-80 80 35.82 80 80z" stroke="#000" stroke-width="2" fill="#fff"/><g><use xlink:href="#am" transform="matrix(1,0,0,1,365,645) translate(2.924999999999997 46.19999999999999)"/><use xlink:href="#an" transform="matrix(1,0,0,1,365,645) translate(91.825 46.19999999999999)"/><use xlink:href="#ao" transform="matrix(1,0,0,1,365,645) translate(18.574999999999996 67.8)"/><use xlink:href="#ap" transform="matrix(1,0,0,1,365,645) translate(37.52499999999999 67.8)"/><use xlink:href="#aq" transform="matrix(1,0,0,1,365,645) translate(116.42500000000001 67.8)"/><use xlink:href="#T" transform="matrix(1,0,0,1,365,645) translate(41.05 89.4)"/><use xlink:href="#ar" transform="matrix(1,0,0,1,365,645) translate(25.525 111)"/></g><path d="M440 598v41" stroke="#000" stroke-width="2" fill="none"/><path d="M441 598h-2 2zM440 639l-4.64-14.27h9.28z"/><path d="M440.72 640.02L440 640H439.27L434 623.73h12zm-3.98-14.3l3.26 10.04 3.26-10.03z"/><defs><path d="M24-231v-30h32v30H24zM24 0v-190h32V0H24" id="as"/><path d="M135-143c-3-34-86-38-87 0 15 53 115 12 119 90S17 21 10-45l28-5c4 36 97 45 98 0-10-56-113-15-118-90-4-57 82-63 122-42 12 7 21 19 24 35" id="at"/><g id="a"><use transform="matrix(0.05,0,0,0.05,0,0)" xlink:href="#as"/><use transform="matrix(0.05,0,0,0.05,3.95,0)" xlink:href="#at"/></g><path d="M100-194c62-1 85 37 85 99 1 63-27 99-86 99S16-35 15-95c0-66 28-99 85-99zM99-20c44 1 53-31 53-75 0-43-8-75-51-75s-53 32-53 75 10 74 51 75" id="au"/><path d="M24 0v-261h32V0H24" id="av"/><path d="M108 0H70L1-190h34L89-25l56-165h34" id="aw"/><path d="M100-194c63 0 86 42 84 106H49c0 40 14 67 53 68 26 1 43-12 49-29l28 8c-11 28-37 45-77 45C44 4 14-33 15-96c1-61 26-98 85-98zm52 81c6-60-76-77-97-28-3 7-6 17-6 28h103" id="ax"/><path d="M85-194c31 0 48 13 60 33l-1-100h32l1 261h-30c-2-10 0-23-3-31C134-8 116 4 85 4 32 4 16-35 15-94c0-66 23-100 70-100zm9 24c-40 0-46 34-46 75 0 40 6 74 45 74 42 0 51-32 51-76 0-42-9-74-50-73" id="ay"/><g id="b"><use transform="matrix(0.05,0,0,0.05,0,0)" xlink:href="#at"/><use transform="matrix(0.05,0,0,0.05,9,0)" xlink:href="#au"/><use transform="matrix(0.05,0,0,0.05,19,0)" xlink:href="#av"/><use transform="matrix(0.05,0,0,0.05,22.95,0)" xlink:href="#aw"/><use transform="matrix(0.05,0,0,0.05,31.950000000000003,0)" xlink:href="#ax"/><use transform="matrix(0.05,0,0,0.05,41.95,0)" xlink:href="#ay"/></g><path d="M115-194c53 0 69 39 70 98 0 66-23 100-70 100C84 3 66-7 56-30L54 0H23l1-261h32v101c10-23 28-34 59-34zm-8 174c40 0 45-34 45-75 0-40-5-75-45-74-42 0-51 32-51 76 0 43 10 73 51 73" id="az"/><path d="M179-190L93 31C79 59 56 82 12 73V49c39 6 53-20 64-50L1-190h34L92-34l54-156h33" id="aA"/><g id="c"><use transform="matrix(0.05,0,0,0.05,0,0)" xlink:href="#az"/><use transform="matrix(0.05,0,0,0.05,10,0)" xlink:href="#aA"/></g><path d="M136-208V0H84v-208H4v-40h212v40h-80" id="aB"/><path d="M110-194c64 0 96 36 96 99 0 64-35 99-97 99-61 0-95-36-95-99 0-62 34-99 96-99zm-1 164c35 0 45-28 45-65 0-40-10-65-43-65-34 0-45 26-45 65 0 36 10 65 43 65" id="aC"/><path d="M135-194c53 0 70 44 70 98 0 56-19 98-73 100-31 1-45-17-59-34 3 33 2 69 2 105H25l-1-265h48c2 10 0 23 3 31 11-24 29-35 60-35zM114-30c33 0 39-31 40-66 0-38-9-64-40-64-56 0-55 130 0 130" id="aD"/><g id="d"><use transform="matrix(0.05,0,0,0.05,0,0)" xlink:href="#aB"/><use transform="matrix(0.05,0,0,0.05,9.600000000000001,0)" xlink:href="#aC"/><use transform="matrix(0.05,0,0,0.05,20.550000000000004,0)" xlink:href="#aD"/></g><path d="M67-125c0 53 21 87 73 88 37 1 54-22 65-47l45 17C233-25 199 4 140 4 58 4 20-42 15-125 8-235 124-281 211-232c18 10 29 29 36 50l-46 12c-8-25-30-41-62-41-52 0-71 34-72 86" id="aE"/><path d="M25 0v-261h50V0H25" id="aF"/><path d="M133-34C117-15 103 5 69 4 32 3 11-16 11-54c-1-60 55-63 116-61 1-26-3-47-28-47-18 1-26 9-28 27l-52-2c7-38 36-58 82-57s74 22 75 68l1 82c-1 14 12 18 25 15v27c-30 8-71 5-69-32zm-48 3c29 0 43-24 42-57-32 0-66-3-65 30 0 17 8 27 23 27" id="aG"/><path d="M25-224v-37h50v37H25zM25 0v-190h50V0H25" id="aH"/><path d="M220-157c-53 9-28 100-34 157h-49v-107c1-27-5-49-29-50C55-147 81-57 75 0H25l-1-190h47c2 12-1 28 3 38 10-53 101-56 108 0 13-22 24-43 59-42 82 1 51 116 57 194h-49v-107c-1-25-5-48-29-50" id="aI"/><g id="e"><use transform="matrix(0.05,0,0,0.05,0,0)" xlink:href="#aE"/><use transform="matrix(0.05,0,0,0.05,12.950000000000001,0)" xlink:href="#aF"/><use transform="matrix(0.05,0,0,0.05,17.950000000000003,0)" xlink:href="#aG"/><use transform="matrix(0.05,0,0,0.05,27.950000000000003,0)" xlink:href="#aH"/><use transform="matrix(0.05,0,0,0.05,32.95,0)" xlink:href="#aI"/></g><path d="M23 0v-37h61v-169l-59 37v-38l62-41h46v211h57V0H23" id="aJ"/><path d="M33-154v-36h34v36H33zM33 0v-36h34V0H33" id="aK"/><g id="f"><use transform="matrix(0.05,0,0,0.05,0,0)" xlink:href="#aE"/><use transform="matrix(0.05,0,0,0.05,12.950000000000001,0)" xlink:href="#aJ"/><use transform="matrix(0.05,0,0,0.05,22.950000000000003,0)" xlink:href="#aK"/></g><path fill="#3aa6dd" d="M140-251c81 0 123 46 123 126C263-46 219 4 140 4 59 4 17-45 17-125s42-126 123-126zm0 227c63 0 89-41 89-101s-29-99-89-99c-61 0-89 39-89 99S79-25 140-24" id="aL"/><path fill="#3aa6dd" d="M30-248c87 1 191-15 191 75 0 78-77 80-158 76V0H30v-248zm33 125c57 0 124 11 124-50 0-59-68-47-124-48v98" id="aM"/><path fill="#3aa6dd" d="M30-248c118-7 216 8 213 122C240-48 200 0 122 0H30v-248zM63-27c89 8 146-16 146-99s-60-101-146-95v194" id="aN"/><g id="g"><use transform="matrix(0.05,0,0,0.05,0,0)" xlink:href="#aL"/><use transform="matrix(0.05,0,0,0.05,14,0)" xlink:href="#aM"/><use transform="matrix(0.05,0,0,0.05,26,0)" xlink:href="#aM"/><use transform="matrix(0.05,0,0,0.05,38,0)" xlink:href="#aN"/></g><path fill="#3aa6dd" d="M190 0L58-211 59 0H30v-248h39L202-35l-2-213h31V0h-41" id="aO"/><path fill="#3aa6dd" d="M30 0v-248h187v28H63v79h144v27H63v87h162V0H30" id="aP"/><g id="h"><use transform="matrix(0.05,0,0,0.05,0,0)" xlink:href="#aO"/><use transform="matrix(0.05,0,0,0.05,12.950000000000001,0)" xlink:href="#aP"/></g><path fill="#3aa6dd" d="M135-143c-3-34-86-38-87 0 15 53 115 12 119 90S17 21 10-45l28-5c4 36 97 45 98 0-10-56-113-15-118-90-4-57 82-63 122-42 12 7 21 19 24 35" id="aQ"/><path fill="#3aa6dd" d="M84 4C-5 8 30-112 23-190h32v120c0 31 7 50 39 49 72-2 45-101 50-169h31l1 190h-30c-1-10 1-25-2-33-11 22-28 36-60 37" id="aR"/><path fill="#3aa6dd" d="M115-194c55 1 70 41 70 98S169 2 115 4C84 4 66-9 55-30l1 105H24l-1-265h31l2 30c10-21 28-34 59-34zm-8 174c40 0 45-34 45-75s-6-73-45-74c-42 0-51 32-51 76 0 43 10 73 51 73" id="aS"/><path fill="#3aa6dd" d="M24 0v-261h32V0H24" id="aT"/><path fill="#3aa6dd" d="M179-190L93 31C79 59 56 82 12 73V49c39 6 53-20 64-50L1-190h34L92-34l54-156h33" id="aU"/><g id="i"><use transform="matrix(0.05,0,0,0.05,0,0)" xlink:href="#aQ"/><use transform="matrix(0.05,0,0,0.05,9,0)" xlink:href="#aR"/><use transform="matrix(0.05,0,0,0.05,19,0)" xlink:href="#aS"/><use transform="matrix(0.05,0,0,0.05,29,0)" xlink:href="#aS"/><use transform="matrix(0.05,0,0,0.05,39,0)" xlink:href="#aT"/><use transform="matrix(0.05,0,0,0.05,42.95,0)" xlink:href="#aU"/></g><path fill="#3aa6dd" d="M96-169c-40 0-48 33-48 73s9 75 48 75c24 0 41-14 43-38l32 2c-6 37-31 61-74 61-59 0-76-41-82-99-10-93 101-131 147-64 4 7 5 14 7 22l-32 3c-4-21-16-35-41-35" id="aV"/><path fill="#3aa6dd" d="M106-169C34-169 62-67 57 0H25v-261h32l-1 103c12-21 28-36 61-36 89 0 53 116 60 194h-32v-121c2-32-8-49-39-48" id="aW"/><path fill="#3aa6dd" d="M141-36C126-15 110 5 73 4 37 3 15-17 15-53c-1-64 63-63 125-63 3-35-9-54-41-54-24 1-41 7-42 31l-33-3c5-37 33-52 76-52 45 0 72 20 72 64v82c-1 20 7 32 28 27v20c-31 9-61-2-59-35zM48-53c0 20 12 33 32 33 41-3 63-29 60-74-43 2-92-5-92 41" id="aX"/><path fill="#3aa6dd" d="M24-231v-30h32v30H24zM24 0v-190h32V0H24" id="aY"/><path fill="#3aa6dd" d="M117-194c89-4 53 116 60 194h-32v-121c0-31-8-49-39-48C34-167 62-67 57 0H25l-1-190h30c1 10-1 24 2 32 11-22 29-35 61-36" id="aZ"/><g id="j"><use transform="matrix(0.05,0,0,0.05,0,0)" xlink:href="#aV"/><use transform="matrix(0.05,0,0,0.05,9,0)" xlink:href="#aW"/><use transform="matrix(0.05,0,0,0.05,19,0)" xlink:href="#aX"/><use transform="matrix(0.05,0,0,0.05,29,0)" xlink:href="#aY"/><use transform="matrix(0.05,0,0,0.05,32.95,0)" xlink:href="#aZ"/></g><path fill="#3aa6dd" d="M114-163C36-179 61-72 57 0H25l-1-190h30c1 12-1 29 2 39 6-27 23-49 58-41v29" id="ba"/><path fill="#3aa6dd" d="M100-194c62-1 85 37 85 99 1 63-27 99-86 99S16-35 15-95c0-66 28-99 85-99zM99-20c44 1 53-31 53-75 0-43-8-75-51-75s-53 32-53 75 10 74 51 75" id="bb"/><path fill="#3aa6dd" d="M100-194c63 0 86 42 84 106H49c0 40 14 67 53 68 26 1 43-12 49-29l28 8c-11 28-37 45-77 45C44 4 14-33 15-96c1-61 26-98 85-98zm52 81c6-60-76-77-97-28-3 7-6 17-6 28h103" id="bc"/><g id="k"><use transform="matrix(0.05,0,0,0.05,0,0)" xlink:href="#aS"/><use transform="matrix(0.05,0,0,0.05,10,0)" xlink:href="#ba"/><use transform="matrix(0.05,0,0,0.05,15.949999999999998,0)" xlink:href="#bb"/><use transform="matrix(0.05,0,0,0.05,25.950000000000003,0)" xlink:href="#aV"/><use transform="matrix(0.05,0,0,0.05,34.95,0)" xlink:href="#bc"/><use transform="matrix(0.05,0,0,0.05,44.95,0)" xlink:href="#aQ"/><use transform="matrix(0.05,0,0,0.05,53.95,0)" xlink:href="#aQ"/><use transform="matrix(0.05,0,0,0.05,62.95,0)" xlink:href="#bc"/><use transform="matrix(0.05,0,0,0.05,72.95,0)" xlink:href="#aQ"/></g><path fill="#7ab648" d="M210-169c-67 3-38 105-44 169h-31v-121c0-29-5-50-35-48C34-165 62-65 56 0H25l-1-190h30c1 10-1 24 2 32 10-44 99-50 107 0 11-21 27-35 58-36 85-2 47 119 55 194h-31v-121c0-29-5-49-35-48" id="bd"/><path fill="#7ab648" d="M24-231v-30h32v30H24zM24 0v-190h32V0H24" id="be"/><path fill="#7ab648" d="M117-194c89-4 53 116 60 194h-32v-121c0-31-8-49-39-48C34-167 62-67 57 0H25l-1-190h30c1 10-1 24 2 32 11-22 29-35 61-36" id="bf"/><path fill="#7ab648" d="M9 0v-24l116-142H16v-24h144v24L44-24h123V0H9" id="bg"/><path fill="#7ab648" d="M100-194c63 0 86 42 84 106H49c0 40 14 67 53 68 26 1 43-12 49-29l28 8c-11 28-37 45-77 45C44 4 14-33 15-96c1-61 26-98 85-98zm52 81c6-60-76-77-97-28-3 7-6 17-6 28h103" id="bh"/><g id="l"><use transform="matrix(0.05,0,0,0.05,0,0)" xlink:href="#bd"/><use transform="matrix(0.05,0,0,0.05,14.950000000000001,0)" xlink:href="#be"/><use transform="matrix(0.05,0,0,0.05,18.900000000000002,0)" xlink:href="#bf"/><use transform="matrix(0.05,0,0,0.05,28.900000000000002,0)" xlink:href="#be"/><use transform="matrix(0.05,0,0,0.05,32.85,0)" xlink:href="#bd"/><use transform="matrix(0.05,0,0,0.05,47.800000000000004,0)" xlink:href="#be"/><use transform="matrix(0.05,0,0,0.05,51.75,0)" xlink:href="#bg"/><use transform="matrix(0.05,0,0,0.05,60.75,0)" xlink:href="#bh"/></g><path fill="#ef8d22" d="M59-47c-2 24 18 29 38 22v24C64 9 27 4 27-40v-127H5v-23h24l9-43h21v43h35v23H59v120" id="bi"/><path fill="#ef8d22" d="M106-169C34-169 62-67 57 0H25v-261h32l-1 103c12-21 28-36 61-36 89 0 53 116 60 194h-32v-121c2-32-8-49-39-48" id="bj"/><path fill="#ef8d22" d="M100-194c63 0 86 42 84 106H49c0 40 14 67 53 68 26 1 43-12 49-29l28 8c-11 28-37 45-77 45C44 4 14-33 15-96c1-61 26-98 85-98zm52 81c6-60-76-77-97-28-3 7-6 17-6 28h103" id="bk"/><g id="m"><use transform="matrix(0.05,0,0,0.05,0,0)" xlink:href="#bi"/><use transform="matrix(0.05,0,0,0.05,5,0)" xlink:href="#bj"/><use transform="matrix(0.05,0,0,0.05,15,0)" xlink:href="#bk"/></g><path fill="#ef8d22" d="M115-194c55 1 70 41 70 98S169 2 115 4C84 4 66-9 55-30l1 105H24l-1-265h31l2 30c10-21 28-34 59-34zm-8 174c40 0 45-34 45-75s-6-73-45-74c-42 0-51 32-51 76 0 43 10 73 51 73" id="bl"/><path fill="#ef8d22" d="M100-194c62-1 85 37 85 99 1 63-27 99-86 99S16-35 15-95c0-66 28-99 85-99zM99-20c44 1 53-31 53-75 0-43-8-75-51-75s-53 32-53 75 10 74 51 75" id="bm"/><path fill="#ef8d22" d="M135-143c-3-34-86-38-87 0 15 53 115 12 119 90S17 21 10-45l28-5c4 36 97 45 98 0-10-56-113-15-118-90-4-57 82-63 122-42 12 7 21 19 24 35" id="bn"/><path fill="#ef8d22" d="M24-231v-30h32v30H24zM24 0v-190h32V0H24" id="bo"/><path fill="#ef8d22" d="M115-194c53 0 69 39 70 98 0 66-23 100-70 100C84 3 66-7 56-30L54 0H23l1-261h32v101c10-23 28-34 59-34zm-8 174c40 0 45-34 45-75 0-40-5-75-45-74-42 0-51 32-51 76 0 43 10 73 51 73" id="bp"/><path fill="#ef8d22" d="M24 0v-261h32V0H24" id="bq"/><path fill="#ef8d22" d="M179-190L93 31C79 59 56 82 12 73V49c39 6 53-20 64-50L1-190h34L92-34l54-156h33" id="br"/><g id="n"><use transform="matrix(0.05,0,0,0.05,0,0)" xlink:href="#bl"/><use transform="matrix(0.05,0,0,0.05,10,0)" xlink:href="#bm"/><use transform="matrix(0.05,0,0,0.05,20,0)" xlink:href="#bn"/><use transform="matrix(0.05,0,0,0.05,29,0)" xlink:href="#bn"/><use transform="matrix(0.05,0,0,0.05,38,0)" xlink:href="#bo"/><use transform="matrix(0.05,0,0,0.05,41.95,0)" xlink:href="#bp"/><use transform="matrix(0.05,0,0,0.05,51.95,0)" xlink:href="#bo"/><use transform="matrix(0.05,0,0,0.05,55.900000000000006,0)" xlink:href="#bq"/><use transform="matrix(0.05,0,0,0.05,59.85,0)" xlink:href="#bo"/><use transform="matrix(0.05,0,0,0.05,63.80000000000001,0)" xlink:href="#bi"/><use transform="matrix(0.05,0,0,0.05,68.80000000000001,0)" xlink:href="#br"/></g><path fill="#ef8d22" d="M101-234c-31-9-42 10-38 44h38v23H63V0H32v-167H5v-23h27c-7-52 17-82 69-68v24" id="bs"/><g id="o"><use transform="matrix(0.05,0,0,0.05,0,0)" xlink:href="#bm"/><use transform="matrix(0.05,0,0,0.05,10,0)" xlink:href="#bs"/></g><path fill="#ef8d22" d="M141-36C126-15 110 5 73 4 37 3 15-17 15-53c-1-64 63-63 125-63 3-35-9-54-41-54-24 1-41 7-42 31l-33-3c5-37 33-52 76-52 45 0 72 20 72 64v82c-1 20 7 32 28 27v20c-31 9-61-2-59-35zM48-53c0 20 12 33 32 33 41-3 63-29 60-74-43 2-92-5-92 41" id="bt"/><path fill="#ef8d22" d="M177-190C167-65 218 103 67 71c-23-6-38-20-44-43l32-5c15 47 100 32 89-28v-30C133-14 115 1 83 1 29 1 15-40 15-95c0-56 16-97 71-98 29-1 48 16 59 35 1-10 0-23 2-32h30zM94-22c36 0 50-32 50-73 0-42-14-75-50-75-39 0-46 34-46 75s6 73 46 73" id="bu"/><g id="p"><use transform="matrix(0.05,0,0,0.05,0,0)" xlink:href="#bn"/><use transform="matrix(0.05,0,0,0.05,9,0)" xlink:href="#bt"/><use transform="matrix(0.05,0,0,0.05,19,0)" xlink:href="#bp"/><use transform="matrix(0.05,0,0,0.05,29,0)" xlink:href="#bm"/><use transform="matrix(0.05,0,0,0.05,39,0)" xlink:href="#bi"/><use transform="matrix(0.05,0,0,0.05,44,0)" xlink:href="#bt"/><use transform="matrix(0.05,0,0,0.05,54,0)" xlink:href="#bu"/><use transform="matrix(0.05,0,0,0.05,64,0)" xlink:href="#bk"/></g><g id="q"><use transform="matrix(0.05,0,0,0.05,0,0)" xlink:href="#bp"/><use transform="matrix(0.05,0,0,0.05,10,0)" xlink:href="#br"/></g><path fill="#ef8d22" d="M210-169c-67 3-38 105-44 169h-31v-121c0-29-5-50-35-48C34-165 62-65 56 0H25l-1-190h30c1 10-1 24 2 32 10-44 99-50 107 0 11-21 27-35 58-36 85-2 47 119 55 194h-31v-121c0-29-5-49-35-48" id="bv"/><path fill="#ef8d22" d="M96-169c-40 0-48 33-48 73s9 75 48 75c24 0 41-14 43-38l32 2c-6 37-31 61-74 61-59 0-76-41-82-99-10-93 101-131 147-64 4 7 5 14 7 22l-32 3c-4-21-16-35-41-35" id="bw"/><path fill="#ef8d22" d="M84 4C-5 8 30-112 23-190h32v120c0 31 7 50 39 49 72-2 45-101 50-169h31l1 190h-30c-1-10 1-25-2-33-11 22-28 36-60 37" id="bx"/><g id="r"><use transform="matrix(0.05,0,0,0.05,0,0)" xlink:href="#bv"/><use transform="matrix(0.05,0,0,0.05,14.950000000000001,0)" xlink:href="#bt"/><use transform="matrix(0.05,0,0,0.05,24.950000000000003,0)" xlink:href="#bq"/><use transform="matrix(0.05,0,0,0.05,28.900000000000002,0)" xlink:href="#bo"/><use transform="matrix(0.05,0,0,0.05,32.85,0)" xlink:href="#bw"/><use transform="matrix(0.05,0,0,0.05,41.85,0)" xlink:href="#bo"/><use transform="matrix(0.05,0,0,0.05,45.800000000000004,0)" xlink:href="#bm"/><use transform="matrix(0.05,0,0,0.05,55.800000000000004,0)" xlink:href="#bx"/><use transform="matrix(0.05,0,0,0.05,65.80000000000001,0)" xlink:href="#bn"/></g><path fill="#ef8d22" d="M85-194c31 0 48 13 60 33l-1-100h32l1 261h-30c-2-10 0-23-3-31C134-8 116 4 85 4 32 4 16-35 15-94c0-66 23-100 70-100zm9 24c-40 0-46 34-46 75 0 40 6 74 45 74 42 0 51-32 51-76 0-42-9-74-50-73" id="by"/><g id="s"><use transform="matrix(0.05,0,0,0.05,0,0)" xlink:href="#bw"/><use transform="matrix(0.05,0,0,0.05,9,0)" xlink:href="#bm"/><use transform="matrix(0.05,0,0,0.05,19,0)" xlink:href="#by"/><use transform="matrix(0.05,0,0,0.05,29,0)" xlink:href="#bk"/></g><path fill="#ef8d22" d="M117-194c89-4 53 116 60 194h-32v-121c0-31-8-49-39-48C34-167 62-67 57 0H25l-1-190h30c1 10-1 24 2 32 11-22 29-35 61-36" id="bz"/><g id="t"><use transform="matrix(0.05,0,0,0.05,0,0)" xlink:href="#bo"/><use transform="matrix(0.05,0,0,0.05,3.95,0)" xlink:href="#bz"/></g><path fill="#ef8d22" d="M206 0h-36l-40-164L89 0H53L-1-190h32L70-26l43-164h34l41 164 42-164h31" id="bA"/><path fill="#ef8d22" d="M114-163C36-179 61-72 57 0H25l-1-190h30c1 12-1 29 2 39 6-27 23-49 58-41v29" id="bB"/><g id="u"><use transform="matrix(0.05,0,0,0.05,0,0)" xlink:href="#bn"/><use transform="matrix(0.05,0,0,0.05,9,0)" xlink:href="#bm"/><use transform="matrix(0.05,0,0,0.05,19,0)" xlink:href="#bs"/><use transform="matrix(0.05,0,0,0.05,24,0)" xlink:href="#bi"/><use transform="matrix(0.05,0,0,0.05,29,0)" xlink:href="#bA"/><use transform="matrix(0.05,0,0,0.05,41.95,0)" xlink:href="#bt"/><use transform="matrix(0.05,0,0,0.05,51.95,0)" xlink:href="#bB"/><use transform="matrix(0.05,0,0,0.05,57.900000000000006,0)" xlink:href="#bk"/></g><g id="v"><use transform="matrix(0.05,0,0,0.05,0,0)" xlink:href="#bt"/><use transform="matrix(0.05,0,0,0.05,10,0)" xlink:href="#bl"/><use transform="matrix(0.05,0,0,0.05,20,0)" xlink:href="#bl"/><use transform="matrix(0.05,0,0,0.05,30,0)" xlink:href="#bq"/><use transform="matrix(0.05,0,0,0.05,33.95,0)" xlink:href="#bo"/><use transform="matrix(0.05,0,0,0.05,37.900000000000006,0)" xlink:href="#bw"/><use transform="matrix(0.05,0,0,0.05,46.900000000000006,0)" xlink:href="#bt"/><use transform="matrix(0.05,0,0,0.05,56.900000000000006,0)" xlink:href="#bi"/><use transform="matrix(0.05,0,0,0.05,61.900000000000006,0)" xlink:href="#bo"/><use transform="matrix(0.05,0,0,0.05,65.85000000000001,0)" xlink:href="#bm"/><use transform="matrix(0.05,0,0,0.05,75.85000000000001,0)" xlink:href="#bz"/><use transform="matrix(0.05,0,0,0.05,85.85000000000001,0)" xlink:href="#bn"/></g><path d="M135-194c87-1 58 113 63 194h-50c-7-57 23-157-34-157-59 0-34 97-39 157H25l-1-190h47c2 12-1 28 3 38 12-26 28-41 61-42" id="bC"/><path d="M115-3C79 11 28 4 28-45v-112H4v-33h27l15-45h31v45h36v33H77v99c-1 23 16 31 38 25v30" id="bD"/><path d="M185-48c-13 30-37 53-82 52C43 2 14-33 14-96s30-98 90-98c62 0 83 45 84 108H66c0 31 8 55 39 56 18 0 30-7 34-22zm-45-69c5-46-57-63-70-21-2 6-4 13-4 21h74" id="bE"/><path d="M144 0l-44-69L55 0H2l70-98-66-92h53l41 62 40-62h54l-67 91 71 99h-54" id="bF"/><path d="M35-132v-50h50v50H35zM35 0v-49h50V0H35" id="bG"/><g id="w"><use transform="matrix(0.05,0,0,0.05,0,0)" xlink:href="#aE"/><use transform="matrix(0.05,0,0,0.05,12.950000000000001,0)" xlink:href="#aC"/><use transform="matrix(0.05,0,0,0.05,23.900000000000002,0)" xlink:href="#bC"/><use transform="matrix(0.05,0,0,0.05,34.85,0)" xlink:href="#bD"/><use transform="matrix(0.05,0,0,0.05,40.800000000000004,0)" xlink:href="#bE"/><use transform="matrix(0.05,0,0,0.05,50.800000000000004,0)" xlink:href="#bF"/><use transform="matrix(0.05,0,0,0.05,60.800000000000004,0)" xlink:href="#bD"/><use transform="matrix(0.05,0,0,0.05,66.75,0)" xlink:href="#bG"/></g><path d="M185-189c-5-48-123-54-124 2 14 75 158 14 163 119 3 78-121 87-175 55-17-10-28-26-33-46l33-7c5 56 141 63 141-1 0-78-155-14-162-118-5-82 145-84 179-34 5 7 8 16 11 25" id="bH"/><path d="M96-169c-40 0-48 33-48 73s9 75 48 75c24 0 41-14 43-38l32 2c-6 37-31 61-74 61-59 0-76-41-82-99-10-93 101-131 147-64 4 7 5 14 7 22l-32 3c-4-21-16-35-41-35" id="bI"/><path d="M84 4C-5 8 30-112 23-190h32v120c0 31 7 50 39 49 72-2 45-101 50-169h31l1 190h-30c-1-10 1-25-2-33-11 22-28 36-60 37" id="bJ"/><path d="M114-163C36-179 61-72 57 0H25l-1-190h30c1 12-1 29 2 39 6-27 23-49 58-41v29" id="bK"/><path d="M59-47c-2 24 18 29 38 22v24C64 9 27 4 27-40v-127H5v-23h24l9-43h21v43h35v23H59v120" id="bL"/><g id="x"><use transform="matrix(0.05,0,0,0.05,0,0)" xlink:href="#bH"/><use transform="matrix(0.05,0,0,0.05,12,0)" xlink:href="#ax"/><use transform="matrix(0.05,0,0,0.05,22,0)" xlink:href="#bI"/><use transform="matrix(0.05,0,0,0.05,31,0)" xlink:href="#bJ"/><use transform="matrix(0.05,0,0,0.05,41,0)" xlink:href="#bK"/><use transform="matrix(0.05,0,0,0.05,46.95,0)" xlink:href="#as"/><use transform="matrix(0.05,0,0,0.05,50.900000000000006,0)" xlink:href="#bL"/><use transform="matrix(0.05,0,0,0.05,55.900000000000006,0)" xlink:href="#aA"/></g><path d="M117-194c89-4 53 116 60 194h-32v-121c0-31-8-49-39-48C34-167 62-67 57 0H25l-1-190h30c1 10-1 24 2 32 11-22 29-35 61-36" id="bM"/><path d="M141-36C126-15 110 5 73 4 37 3 15-17 15-53c-1-64 63-63 125-63 3-35-9-54-41-54-24 1-41 7-42 31l-33-3c5-37 33-52 76-52 45 0 72 20 72 64v82c-1 20 7 32 28 27v20c-31 9-61-2-59-35zM48-53c0 20 12 33 32 33 41-3 63-29 60-74-43 2-92-5-92 41" id="bN"/><g id="y"><use transform="matrix(0.05,0,0,0.05,0,0)" xlink:href="#bI"/><use transform="matrix(0.05,0,0,0.05,9,0)" xlink:href="#au"/><use transform="matrix(0.05,0,0,0.05,19,0)" xlink:href="#bM"/><use transform="matrix(0.05,0,0,0.05,29,0)" xlink:href="#at"/><use transform="matrix(0.05,0,0,0.05,38,0)" xlink:href="#as"/><use transform="matrix(0.05,0,0,0.05,41.95,0)" xlink:href="#ay"/><use transform="matrix(0.05,0,0,0.05,51.95,0)" xlink:href="#ax"/><use transform="matrix(0.05,0,0,0.05,61.95,0)" xlink:href="#bK"/><use transform="matrix(0.05,0,0,0.05,67.9,0)" xlink:href="#bN"/><use transform="matrix(0.05,0,0,0.05,77.9,0)" xlink:href="#bL"/><use transform="matrix(0.05,0,0,0.05,82.9,0)" xlink:href="#as"/><use transform="matrix(0.05,0,0,0.05,86.85000000000001,0)" xlink:href="#au"/><use transform="matrix(0.05,0,0,0.05,96.85000000000001,0)" xlink:href="#bM"/><use transform="matrix(0.05,0,0,0.05,106.85000000000001,0)" xlink:href="#at"/></g><path d="M101-234c-31-9-42 10-38 44h38v23H63V0H32v-167H5v-23h27c-7-52 17-82 69-68v24" id="bO"/><g id="z"><use transform="matrix(0.05,0,0,0.05,0,0)" xlink:href="#bO"/><use transform="matrix(0.05,0,0,0.05,5,0)" xlink:href="#au"/><use transform="matrix(0.05,0,0,0.05,15,0)" xlink:href="#bK"/></g><path d="M115-194c55 1 70 41 70 98S169 2 115 4C84 4 66-9 55-30l1 105H24l-1-265h31l2 30c10-21 28-34 59-34zm-8 174c40 0 45-34 45-75s-6-73-45-74c-42 0-51 32-51 76 0 43 10 73 51 73" id="bP"/><g id="A"><use transform="matrix(0.05,0,0,0.05,0,0)" xlink:href="#at"/><use transform="matrix(0.05,0,0,0.05,9,0)" xlink:href="#bJ"/><use transform="matrix(0.05,0,0,0.05,19,0)" xlink:href="#bP"/><use transform="matrix(0.05,0,0,0.05,29,0)" xlink:href="#bP"/><use transform="matrix(0.05,0,0,0.05,39,0)" xlink:href="#av"/><use transform="matrix(0.05,0,0,0.05,42.95,0)" xlink:href="#aA"/></g><path d="M106-169C34-169 62-67 57 0H25v-261h32l-1 103c12-21 28-36 61-36 89 0 53 116 60 194h-32v-121c2-32-8-49-39-48" id="bQ"/><g id="B"><use transform="matrix(0.05,0,0,0.05,0,0)" xlink:href="#bI"/><use transform="matrix(0.05,0,0,0.05,9,0)" xlink:href="#bQ"/><use transform="matrix(0.05,0,0,0.05,19,0)" xlink:href="#bN"/><use transform="matrix(0.05,0,0,0.05,29,0)" xlink:href="#as"/><use transform="matrix(0.05,0,0,0.05,32.95,0)" xlink:href="#bM"/></g><g id="C"><use transform="matrix(0.05,0,0,0.05,0,0)" xlink:href="#bP"/><use transform="matrix(0.05,0,0,0.05,10,0)" xlink:href="#bK"/><use transform="matrix(0.05,0,0,0.05,15.949999999999998,0)" xlink:href="#au"/><use transform="matrix(0.05,0,0,0.05,25.950000000000003,0)" xlink:href="#bI"/><use transform="matrix(0.05,0,0,0.05,34.95,0)" xlink:href="#ax"/><use transform="matrix(0.05,0,0,0.05,44.95,0)" xlink:href="#at"/><use transform="matrix(0.05,0,0,0.05,53.95,0)" xlink:href="#at"/><use transform="matrix(0.05,0,0,0.05,62.95,0)" xlink:href="#ax"/><use transform="matrix(0.05,0,0,0.05,72.95,0)" xlink:href="#at"/></g><g id="D"><use transform="matrix(0.05,0,0,0.05,0,0)" xlink:href="#bP"/><use transform="matrix(0.05,0,0,0.05,10,0)" xlink:href="#ax"/><use transform="matrix(0.05,0,0,0.05,20,0)" xlink:href="#bK"/></g><path d="M190 0L58-211 59 0H30v-248h39L202-35l-2-213h31V0h-41" id="bR"/><path d="M33 0v-248h34V0H33" id="bS"/><path d="M127-220V0H93v-220H8v-28h204v28h-85" id="bT"/><g id="E"><use transform="matrix(0.05,0,0,0.05,0,0)" xlink:href="#bR"/><use transform="matrix(0.05,0,0,0.05,12.950000000000001,0)" xlink:href="#bS"/><use transform="matrix(0.05,0,0,0.05,17.950000000000003,0)" xlink:href="#bH"/><use transform="matrix(0.05,0,0,0.05,29.950000000000003,0)" xlink:href="#bT"/></g><path d="M30-248c87 1 191-15 191 75 0 78-77 80-158 76V0H30v-248zm33 125c57 0 124 11 124-50 0-59-68-47-124-48v98" id="bU"/><g id="F"><use transform="matrix(0.05,0,0,0.05,0,0)" xlink:href="#bH"/><use transform="matrix(0.05,0,0,0.05,12,0)" xlink:href="#bU"/></g><path d="M134-131c28 9 52 24 51 62-1 50-34 73-85 73S17-19 16-69c0-36 21-54 49-61-75-25-45-126 34-121 46 3 78 18 79 63 0 33-17 51-44 57zm-34-11c31 1 46-15 46-44 0-28-17-43-47-42-29 0-46 13-45 42 1 28 16 44 46 44zm1 122c35 0 51-18 51-52 0-30-18-46-53-46-33 0-51 17-51 47 0 34 19 51 53 51" id="bV"/><path d="M101-251c68 0 85 55 85 127S166 4 100 4C33 4 14-52 14-124c0-73 17-127 87-127zm-1 229c47 0 54-49 54-102s-4-102-53-102c-51 0-55 48-55 102 0 53 5 102 54 102" id="bW"/><path d="M16-82v-28h88v28H16" id="bX"/><path d="M27 0v-27h64v-190l-56 39v-29l58-41h29v221h61V0H27" id="bY"/><path d="M110-160c48 1 74 30 74 79 0 53-28 85-80 85-65 0-83-55-86-122-5-90 50-162 133-122 14 7 22 21 27 39l-31 6c-5-40-67-38-82-6-9 19-15 44-15 74 11-20 30-34 60-33zm-7 138c34 0 49-23 49-58s-16-56-50-56c-29 0-50 16-49 49 1 36 15 65 50 65" id="bZ"/><g id="G"><use transform="matrix(0.05,0,0,0.05,0,0)" xlink:href="#bV"/><use transform="matrix(0.05,0,0,0.05,10,0)" xlink:href="#bW"/><use transform="matrix(0.05,0,0,0.05,20,0)" xlink:href="#bW"/><use transform="matrix(0.05,0,0,0.05,30,0)" xlink:href="#bX"/><use transform="matrix(0.05,0,0,0.05,35.95,0)" xlink:href="#bY"/><use transform="matrix(0.05,0,0,0.05,45.95,0)" xlink:href="#bZ"/><use transform="matrix(0.05,0,0,0.05,55.95,0)" xlink:href="#bW"/></g><g id="H"><use transform="matrix(0.05,0,0,0.05,0,0)" xlink:href="#as"/><use transform="matrix(0.05,0,0,0.05,3.95,0)" xlink:href="#bM"/></g><path d="M141 0L90-78 38 0H4l68-98-65-92h35l48 74 47-74h35l-64 92 68 98h-35" id="ca"/><g id="I"><use transform="matrix(0.05,0,0,0.05,0,0)" xlink:href="#bI"/><use transform="matrix(0.05,0,0,0.05,9,0)" xlink:href="#au"/><use transform="matrix(0.05,0,0,0.05,19,0)" xlink:href="#bM"/><use transform="matrix(0.05,0,0,0.05,29,0)" xlink:href="#bL"/><use transform="matrix(0.05,0,0,0.05,34,0)" xlink:href="#ax"/><use transform="matrix(0.05,0,0,0.05,44,0)" xlink:href="#ca"/><use transform="matrix(0.05,0,0,0.05,53,0)" xlink:href="#bL"/></g><g id="J"><use transform="matrix(0.05,0,0,0.05,0,0)" xlink:href="#au"/><use transform="matrix(0.05,0,0,0.05,10,0)" xlink:href="#bO"/></g><path d="M176-78C186 10 51 31 16-35c-5-9-9-19-11-32l52-8c4 21 12 37 35 38 23 0 32-16 32-40v-130H75v-41h101v170" id="cb"/><path d="M85 4C-2 5 27-109 22-190h50c7 57-23 150 33 157 60-5 35-97 40-157h50l1 190h-47c-2-12 1-28-3-38-12 25-28 42-61 42" id="cc"/><path d="M137-138c1-29-70-34-71-4 15 46 118 7 119 86 1 83-164 76-172 9l43-7c4 19 20 25 44 25 33 8 57-30 24-41C81-84 22-81 20-136c-2-80 154-74 161-7" id="cd"/><path d="M121-226c-27-7-43 5-38 36h38v33H83V0H34v-157H6v-33h28c-9-59 32-81 87-68v32" id="ce"/><path d="M190-63c-7 42-38 67-86 67-59 0-84-38-90-98-12-110 154-137 174-36l-49 2c-2-19-15-32-35-32-30 0-35 28-38 64-6 74 65 87 74 30" id="cf"/><g id="K"><use transform="matrix(0.05,0,0,0.05,0,0)" xlink:href="#cb"/><use transform="matrix(0.05,0,0,0.05,10,0)" xlink:href="#cc"/><use transform="matrix(0.05,0,0,0.05,20.950000000000003,0)" xlink:href="#cd"/><use transform="matrix(0.05,0,0,0.05,30.950000000000003,0)" xlink:href="#bD"/><use transform="matrix(0.05,0,0,0.05,36.900000000000006,0)" xlink:href="#aH"/><use transform="matrix(0.05,0,0,0.05,41.900000000000006,0)" xlink:href="#ce"/><use transform="matrix(0.05,0,0,0.05,47.85000000000001,0)" xlink:href="#aH"/><use transform="matrix(0.05,0,0,0.05,52.85,0)" xlink:href="#cf"/><use transform="matrix(0.05,0,0,0.05,62.85,0)" xlink:href="#aG"/><use transform="matrix(0.05,0,0,0.05,72.85000000000001,0)" xlink:href="#bD"/><use transform="matrix(0.05,0,0,0.05,78.80000000000001,0)" xlink:href="#aH"/><use transform="matrix(0.05,0,0,0.05,83.80000000000001,0)" xlink:href="#aC"/><use transform="matrix(0.05,0,0,0.05,94.75000000000001,0)" xlink:href="#bC"/><use transform="matrix(0.05,0,0,0.05,105.7,0)" xlink:href="#bG"/></g><path d="M177-190C167-65 218 103 67 71c-23-6-38-20-44-43l32-5c15 47 100 32 89-28v-30C133-14 115 1 83 1 29 1 15-40 15-95c0-56 16-97 71-98 29-1 48 16 59 35 1-10 0-23 2-32h30zM94-22c36 0 50-32 50-73 0-42-14-75-50-75-39 0-46 34-46 75s6 73 46 73" id="cg"/><g id="L"><use transform="matrix(0.05,0,0,0.05,0,0)" xlink:href="#bS"/><use transform="matrix(0.05,0,0,0.05,5,0)" xlink:href="#bM"/><use transform="matrix(0.05,0,0,0.05,15,0)" xlink:href="#bL"/><use transform="matrix(0.05,0,0,0.05,20,0)" xlink:href="#ax"/><use transform="matrix(0.05,0,0,0.05,30,0)" xlink:href="#av"/><use transform="matrix(0.05,0,0,0.05,33.95,0)" xlink:href="#av"/><use transform="matrix(0.05,0,0,0.05,37.900000000000006,0)" xlink:href="#as"/><use transform="matrix(0.05,0,0,0.05,41.85000000000001,0)" xlink:href="#cg"/><use transform="matrix(0.05,0,0,0.05,51.85,0)" xlink:href="#ax"/><use transform="matrix(0.05,0,0,0.05,61.85,0)" xlink:href="#bM"/><use transform="matrix(0.05,0,0,0.05,71.85000000000001,0)" xlink:href="#bI"/><use transform="matrix(0.05,0,0,0.05,80.85000000000001,0)" xlink:href="#ax"/></g><g id="M"><use transform="matrix(0.05,0,0,0.05,0,0)" xlink:href="#bK"/><use transform="matrix(0.05,0,0,0.05,5.95,0)" xlink:href="#ax"/><use transform="matrix(0.05,0,0,0.05,15.949999999999998,0)" xlink:href="#bP"/><use transform="matrix(0.05,0,0,0.05,25.950000000000003,0)" xlink:href="#au"/><use transform="matrix(0.05,0,0,0.05,35.95,0)" xlink:href="#bK"/><use transform="matrix(0.05,0,0,0.05,41.900000000000006,0)" xlink:href="#bL"/><use transform="matrix(0.05,0,0,0.05,46.900000000000006,0)" xlink:href="#at"/></g><g id="N"><use transform="matrix(0.05,0,0,0.05,0,0)" xlink:href="#au"/><use transform="matrix(0.05,0,0,0.05,10,0)" xlink:href="#bO"/></g><path d="M210-169c-67 3-38 105-44 169h-31v-121c0-29-5-50-35-48C34-165 62-65 56 0H25l-1-190h30c1 10-1 24 2 32 10-44 99-50 107 0 11-21 27-35 58-36 85-2 47 119 55 194h-31v-121c0-29-5-49-35-48" id="ch"/><g id="O"><use transform="matrix(0.05,0,0,0.05,0,0)" xlink:href="#ch"/><use transform="matrix(0.05,0,0,0.05,14.950000000000001,0)" xlink:href="#bN"/><use transform="matrix(0.05,0,0,0.05,24.950000000000003,0)" xlink:href="#av"/><use transform="matrix(0.05,0,0,0.05,28.900000000000002,0)" xlink:href="#as"/><use transform="matrix(0.05,0,0,0.05,32.85,0)" xlink:href="#bI"/><use transform="matrix(0.05,0,0,0.05,41.85,0)" xlink:href="#as"/><use transform="matrix(0.05,0,0,0.05,45.800000000000004,0)" xlink:href="#au"/><use transform="matrix(0.05,0,0,0.05,55.800000000000004,0)" xlink:href="#bJ"/><use transform="matrix(0.05,0,0,0.05,65.80000000000001,0)" xlink:href="#at"/></g><g id="P"><use transform="matrix(0.05,0,0,0.05,0,0)" xlink:href="#bI"/><use transform="matrix(0.05,0,0,0.05,9,0)" xlink:href="#au"/><use transform="matrix(0.05,0,0,0.05,19,0)" xlink:href="#ay"/><use transform="matrix(0.05,0,0,0.05,29,0)" xlink:href="#ax"/></g><g id="Q"><use transform="matrix(0.05,0,0,0.05,0,0)" xlink:href="#as"/><use transform="matrix(0.05,0,0,0.05,3.95,0)" xlink:href="#bM"/></g><g id="R"><use transform="matrix(0.05,0,0,0.05,0,0)" xlink:href="#bM"/><use transform="matrix(0.05,0,0,0.05,10,0)" xlink:href="#bJ"/><use transform="matrix(0.05,0,0,0.05,20,0)" xlink:href="#bI"/><use transform="matrix(0.05,0,0,0.05,29,0)" xlink:href="#av"/><use transform="matrix(0.05,0,0,0.05,32.95,0)" xlink:href="#ax"/><use transform="matrix(0.05,0,0,0.05,42.95,0)" xlink:href="#bN"/><use transform="matrix(0.05,0,0,0.05,52.95,0)" xlink:href="#bK"/></g><g id="S"><use transform="matrix(0.05,0,0,0.05,0,0)" xlink:href="#ax"/><use transform="matrix(0.05,0,0,0.05,10,0)" xlink:href="#bM"/><use transform="matrix(0.05,0,0,0.05,20,0)" xlink:href="#ax"/><use transform="matrix(0.05,0,0,0.05,30,0)" xlink:href="#bK"/><use transform="matrix(0.05,0,0,0.05,35.95,0)" xlink:href="#cg"/><use transform="matrix(0.05,0,0,0.05,45.95,0)" xlink:href="#aA"/></g><path d="M206 0h-36l-40-164L89 0H53L-1-190h32L70-26l43-164h34l41 164 42-164h31" id="ci"/><g id="T"><use transform="matrix(0.05,0,0,0.05,0,0)" xlink:href="#at"/><use transform="matrix(0.05,0,0,0.05,9,0)" xlink:href="#au"/><use transform="matrix(0.05,0,0,0.05,19,0)" xlink:href="#bO"/><use transform="matrix(0.05,0,0,0.05,24,0)" xlink:href="#bL"/><use transform="matrix(0.05,0,0,0.05,29,0)" xlink:href="#ci"/><use transform="matrix(0.05,0,0,0.05,41.95,0)" xlink:href="#bN"/><use transform="matrix(0.05,0,0,0.05,51.95,0)" xlink:href="#bK"/><use transform="matrix(0.05,0,0,0.05,57.900000000000006,0)" xlink:href="#ax"/></g><path d="M169-182c-1-43-94-46-97-3 18 66 151 10 154 114 3 95-165 93-204 36-6-8-10-19-12-30l50-8c3 46 112 56 116 5-17-69-150-10-154-114-4-87 153-88 188-35 5 8 8 18 10 28" id="cj"/><path d="M135-150c-39-12-60 13-60 57V0H25l-1-190h47c2 13-1 29 3 40 6-28 27-53 61-41v41" id="ck"/><path d="M195-6C206 82 75 100 31 46c-4-6-6-13-8-21l49-6c3 16 16 24 34 25 40 0 42-37 40-79-11 22-30 35-61 35-53 0-70-43-70-97 0-56 18-96 73-97 30 0 46 14 59 34l2-30h47zm-90-29c32 0 41-27 41-63 0-35-9-62-40-62-32 0-39 29-40 63 0 36 9 62 39 62" id="cl"/><path d="M123 10C108 53 80 86 19 72V37c35 8 53-11 59-39L3-190h52l48 148c12-52 28-100 44-148h51" id="cm"/><g id="V"><use transform="matrix(0.05,0,0,0.05,0,0)" xlink:href="#cj"/><use transform="matrix(0.05,0,0,0.05,12,0)" xlink:href="#bD"/><use transform="matrix(0.05,0,0,0.05,17.95,0)" xlink:href="#ck"/><use transform="matrix(0.05,0,0,0.05,24.95,0)" xlink:href="#aG"/><use transform="matrix(0.05,0,0,0.05,34.95,0)" xlink:href="#bD"/><use transform="matrix(0.05,0,0,0.05,40.900000000000006,0)" xlink:href="#bE"/><use transform="matrix(0.05,0,0,0.05,50.900000000000006,0)" xlink:href="#cl"/><use transform="matrix(0.05,0,0,0.05,61.85,0)" xlink:href="#cm"/><use transform="matrix(0.05,0,0,0.05,71.85000000000001,0)" xlink:href="#aK"/></g><path d="M205 0l-28-72H64L36 0H1l101-248h38L239 0h-34zm-38-99l-47-123c-12 45-31 82-46 123h93" id="cn"/><g id="W"><use transform="matrix(0.05,0,0,0.05,0,0)" xlink:href="#cn"/><use transform="matrix(0.05,0,0,0.05,12,0)" xlink:href="#bK"/><use transform="matrix(0.05,0,0,0.05,17.95,0)" xlink:href="#cg"/><use transform="matrix(0.05,0,0,0.05,27.950000000000003,0)" xlink:href="#bJ"/><use transform="matrix(0.05,0,0,0.05,37.95,0)" xlink:href="#ch"/><use transform="matrix(0.05,0,0,0.05,52.900000000000006,0)" xlink:href="#ax"/><use transform="matrix(0.05,0,0,0.05,62.900000000000006,0)" xlink:href="#bM"/><use transform="matrix(0.05,0,0,0.05,72.9,0)" xlink:href="#bL"/></g><g id="X"><use transform="matrix(0.05,0,0,0.05,0,0)" xlink:href="#az"/><use transform="matrix(0.05,0,0,0.05,10,0)" xlink:href="#aA"/></g><g id="Y"><use transform="matrix(0.05,0,0,0.05,0,0)" xlink:href="#bN"/><use transform="matrix(0.05,0,0,0.05,10,0)" xlink:href="#bP"/><use transform="matrix(0.05,0,0,0.05,20,0)" xlink:href="#bP"/><use transform="matrix(0.05,0,0,0.05,30,0)" xlink:href="#ax"/><use transform="matrix(0.05,0,0,0.05,40,0)" xlink:href="#bN"/><use transform="matrix(0.05,0,0,0.05,50,0)" xlink:href="#av"/></g><g id="Z"><use transform="matrix(0.05,0,0,0.05,0,0)" xlink:href="#bL"/><use transform="matrix(0.05,0,0,0.05,5,0)" xlink:href="#au"/></g><g id="aa"><use transform="matrix(0.05,0,0,0.05,0,0)" xlink:href="#at"/><use transform="matrix(0.05,0,0,0.05,9,0)" xlink:href="#au"/><use transform="matrix(0.05,0,0,0.05,19,0)" xlink:href="#bO"/><use transform="matrix(0.05,0,0,0.05,24,0)" xlink:href="#bL"/><use transform="matrix(0.05,0,0,0.05,29,0)" xlink:href="#ci"/><use transform="matrix(0.05,0,0,0.05,41.95,0)" xlink:href="#bN"/><use transform="matrix(0.05,0,0,0.05,51.95,0)" xlink:href="#bK"/><use transform="matrix(0.05,0,0,0.05,57.900000000000006,0)" xlink:href="#ax"/></g><path d="M145-31C134-9 116 4 85 4 32 4 16-35 15-94c0-59 17-99 70-100 32-1 48 14 60 33 0-11-1-24 2-32h30l-1 268h-32zM93-21c41 0 51-33 51-76s-8-73-50-73c-40 0-46 35-46 75s5 74 45 74" id="co"/><g id="ab"><use transform="matrix(0.05,0,0,0.05,0,0)" xlink:href="#bN"/><use transform="matrix(0.05,0,0,0.05,10,0)" xlink:href="#co"/><use transform="matrix(0.05,0,0,0.05,20,0)" xlink:href="#bJ"/><use transform="matrix(0.05,0,0,0.05,30,0)" xlink:href="#as"/><use transform="matrix(0.05,0,0,0.05,33.95,0)" xlink:href="#at"/><use transform="matrix(0.05,0,0,0.05,42.95,0)" xlink:href="#as"/><use transform="matrix(0.05,0,0,0.05,46.900000000000006,0)" xlink:href="#bL"/><use transform="matrix(0.05,0,0,0.05,51.900000000000006,0)" xlink:href="#as"/><use transform="matrix(0.05,0,0,0.05,55.85,0)" xlink:href="#au"/><use transform="matrix(0.05,0,0,0.05,65.85000000000001,0)" xlink:href="#bM"/></g><g id="ac"><use transform="matrix(0.05,0,0,0.05,0,0)" xlink:href="#bP"/><use transform="matrix(0.05,0,0,0.05,10,0)" xlink:href="#bK"/><use transform="matrix(0.05,0,0,0.05,15.949999999999998,0)" xlink:href="#bN"/><use transform="matrix(0.05,0,0,0.05,25.950000000000003,0)" xlink:href="#bI"/><use transform="matrix(0.05,0,0,0.05,34.95,0)" xlink:href="#bL"/><use transform="matrix(0.05,0,0,0.05,39.95,0)" xlink:href="#as"/><use transform="matrix(0.05,0,0,0.05,43.900000000000006,0)" xlink:href="#bI"/><use transform="matrix(0.05,0,0,0.05,52.900000000000006,0)" xlink:href="#ax"/><use transform="matrix(0.05,0,0,0.05,62.900000000000006,0)" xlink:href="#at"/></g><g id="ad"><use transform="matrix(0.05,0,0,0.05,0,0)" xlink:href="#as"/><use transform="matrix(0.05,0,0,0.05,3.95,0)" xlink:href="#at"/></g><g id="ae"><use transform="matrix(0.05,0,0,0.05,0,0)" xlink:href="#at"/><use transform="matrix(0.05,0,0,0.05,9,0)" xlink:href="#au"/><use transform="matrix(0.05,0,0,0.05,19,0)" xlink:href="#av"/><use transform="matrix(0.05,0,0,0.05,22.95,0)" xlink:href="#aw"/><use transform="matrix(0.05,0,0,0.05,31.950000000000003,0)" xlink:href="#ax"/><use transform="matrix(0.05,0,0,0.05,41.95,0)" xlink:href="#ay"/></g><g id="af"><use transform="matrix(0.05,0,0,0.05,0,0)" xlink:href="#az"/><use transform="matrix(0.05,0,0,0.05,10,0)" xlink:href="#aA"/></g><g id="ag"><use transform="matrix(0.05,0,0,0.05,0,0)" xlink:href="#aE"/><use transform="matrix(0.05,0,0,0.05,12.950000000000001,0)" xlink:href="#aF"/><use transform="matrix(0.05,0,0,0.05,17.950000000000003,0)" xlink:href="#aG"/><use transform="matrix(0.05,0,0,0.05,27.950000000000003,0)" xlink:href="#aH"/><use transform="matrix(0.05,0,0,0.05,32.95,0)" xlink:href="#aI"/><use transform="matrix(0.05,0,0,0.05,48.95,0)" xlink:href="#bG"/></g><path fill="#3aa6dd" d="M205 0l-28-72H64L36 0H1l101-248h38L239 0h-34zm-38-99l-47-123c-12 45-31 82-46 123h93" id="cp"/><path fill="#3aa6dd" d="M145-31C134-9 116 4 85 4 32 4 16-35 15-94c0-59 17-99 70-100 32-1 48 14 60 33 0-11-1-24 2-32h30l-1 268h-32zM93-21c41 0 51-33 51-76s-8-73-50-73c-40 0-46 35-46 75s5 74 45 74" id="cq"/><path fill="#3aa6dd" d="M59-47c-2 24 18 29 38 22v24C64 9 27 4 27-40v-127H5v-23h24l9-43h21v43h35v23H59v120" id="cr"/><g id="ah"><use transform="matrix(0.05,0,0,0.05,0,0)" xlink:href="#cp"/><use transform="matrix(0.05,0,0,0.05,12,0)" xlink:href="#cq"/><use transform="matrix(0.05,0,0,0.05,22,0)" xlink:href="#aR"/><use transform="matrix(0.05,0,0,0.05,32,0)" xlink:href="#aY"/><use transform="matrix(0.05,0,0,0.05,35.95,0)" xlink:href="#aQ"/><use transform="matrix(0.05,0,0,0.05,44.95,0)" xlink:href="#aY"/><use transform="matrix(0.05,0,0,0.05,48.900000000000006,0)" xlink:href="#cr"/><use transform="matrix(0.05,0,0,0.05,53.900000000000006,0)" xlink:href="#aY"/><use transform="matrix(0.05,0,0,0.05,57.85,0)" xlink:href="#bb"/><use transform="matrix(0.05,0,0,0.05,67.85000000000001,0)" xlink:href="#aZ"/></g><g id="ai"><use transform="matrix(0.05,0,0,0.05,0,0)" xlink:href="#aS"/><use transform="matrix(0.05,0,0,0.05,10,0)" xlink:href="#ba"/><use transform="matrix(0.05,0,0,0.05,15.949999999999998,0)" xlink:href="#aX"/><use transform="matrix(0.05,0,0,0.05,25.950000000000003,0)" xlink:href="#aV"/><use transform="matrix(0.05,0,0,0.05,34.95,0)" xlink:href="#cr"/><use transform="matrix(0.05,0,0,0.05,39.95,0)" xlink:href="#aY"/><use transform="matrix(0.05,0,0,0.05,43.900000000000006,0)" xlink:href="#aV"/><use transform="matrix(0.05,0,0,0.05,52.900000000000006,0)" xlink:href="#bc"/><use transform="matrix(0.05,0,0,0.05,62.900000000000006,0)" xlink:href="#aQ"/></g><path fill="#19967d" d="M210-169c-67 3-38 105-44 169h-31v-121c0-29-5-50-35-48C34-165 62-65 56 0H25l-1-190h30c1 10-1 24 2 32 10-44 99-50 107 0 11-21 27-35 58-36 85-2 47 119 55 194h-31v-121c0-29-5-49-35-48" id="cs"/><path fill="#19967d" d="M24-231v-30h32v30H24zM24 0v-190h32V0H24" id="ct"/><path fill="#19967d" d="M117-194c89-4 53 116 60 194h-32v-121c0-31-8-49-39-48C34-167 62-67 57 0H25l-1-190h30c1 10-1 24 2 32 11-22 29-35 61-36" id="cu"/><path fill="#19967d" d="M9 0v-24l116-142H16v-24h144v24L44-24h123V0H9" id="cv"/><path fill="#19967d" d="M100-194c63 0 86 42 84 106H49c0 40 14 67 53 68 26 1 43-12 49-29l28 8c-11 28-37 45-77 45C44 4 14-33 15-96c1-61 26-98 85-98zm52 81c6-60-76-77-97-28-3 7-6 17-6 28h103" id="cw"/><g id="aj"><use transform="matrix(0.05,0,0,0.05,0,0)" xlink:href="#cs"/><use transform="matrix(0.05,0,0,0.05,14.950000000000001,0)" xlink:href="#ct"/><use transform="matrix(0.05,0,0,0.05,18.900000000000002,0)" xlink:href="#cu"/><use transform="matrix(0.05,0,0,0.05,28.900000000000002,0)" xlink:href="#ct"/><use transform="matrix(0.05,0,0,0.05,32.85,0)" xlink:href="#cs"/><use transform="matrix(0.05,0,0,0.05,47.800000000000004,0)" xlink:href="#ct"/><use transform="matrix(0.05,0,0,0.05,51.75,0)" xlink:href="#cv"/><use transform="matrix(0.05,0,0,0.05,60.75,0)" xlink:href="#cw"/></g><g id="ak"><use transform="matrix(0.05,0,0,0.05,0,0)" xlink:href="#bn"/><use transform="matrix(0.05,0,0,0.05,9,0)" xlink:href="#bm"/><use transform="matrix(0.05,0,0,0.05,19,0)" xlink:href="#bs"/><use transform="matrix(0.05,0,0,0.05,24,0)" xlink:href="#bi"/><use transform="matrix(0.05,0,0,0.05,29,0)" xlink:href="#bA"/><use transform="matrix(0.05,0,0,0.05,41.95,0)" xlink:href="#bt"/><use transform="matrix(0.05,0,0,0.05,51.95,0)" xlink:href="#bB"/><use transform="matrix(0.05,0,0,0.05,57.900000000000006,0)" xlink:href="#bk"/></g><path fill="#ef8d22" d="M143 0L79-87 56-68V0H24v-261h32v163l83-92h37l-77 82L181 0h-38" id="cx"/><g id="al"><use transform="matrix(0.05,0,0,0.05,0,0)" xlink:href="#bA"/><use transform="matrix(0.05,0,0,0.05,12.950000000000001,0)" xlink:href="#bk"/><use transform="matrix(0.05,0,0,0.05,22.950000000000003,0)" xlink:href="#bt"/><use transform="matrix(0.05,0,0,0.05,32.95,0)" xlink:href="#cx"/><use transform="matrix(0.05,0,0,0.05,41.95,0)" xlink:href="#bz"/><use transform="matrix(0.05,0,0,0.05,51.95,0)" xlink:href="#bk"/><use transform="matrix(0.05,0,0,0.05,61.95,0)" xlink:href="#bn"/><use transform="matrix(0.05,0,0,0.05,70.95,0)" xlink:href="#bn"/><use transform="matrix(0.05,0,0,0.05,79.95,0)" xlink:href="#bk"/><use transform="matrix(0.05,0,0,0.05,89.95,0)" xlink:href="#bn"/></g><path d="M24 0v-248h195v40H76v63h132v40H76v65h150V0H24" id="cy"/><path d="M128 0H69L1-190h53L99-40l48-150h52" id="cz"/><path d="M88-194c31-1 46 15 58 34l-1-101h50l1 261h-48c-2-10 0-23-3-31C134-8 116 4 84 4 32 4 16-41 15-95c0-56 19-97 73-99zm17 164c33 0 40-30 41-66 1-37-9-64-41-64s-38 30-39 65c0 43 13 65 39 65" id="cA"/><g id="am"><use transform="matrix(0.05,0,0,0.05,0,0)" xlink:href="#cy"/><use transform="matrix(0.05,0,0,0.05,12,0)" xlink:href="#cz"/><use transform="matrix(0.05,0,0,0.05,22,0)" xlink:href="#aH"/><use transform="matrix(0.05,0,0,0.05,27,0)" xlink:href="#cA"/><use transform="matrix(0.05,0,0,0.05,37.95,0)" xlink:href="#bE"/><use transform="matrix(0.05,0,0,0.05,47.95,0)" xlink:href="#bC"/><use transform="matrix(0.05,0,0,0.05,58.900000000000006,0)" xlink:href="#cf"/><use transform="matrix(0.05,0,0,0.05,68.9,0)" xlink:href="#bE"/><use transform="matrix(0.05,0,0,0.05,78.9,0)" xlink:href="#aK"/></g><g id="an"><use transform="matrix(0.05,0,0,0.05,0,0)" xlink:href="#bT"/><use transform="matrix(0.05,0,0,0.05,10.3,0)" xlink:href="#bK"/><use transform="matrix(0.05,0,0,0.05,16.25,0)" xlink:href="#ax"/><use transform="matrix(0.05,0,0,0.05,26.25,0)" xlink:href="#bM"/><use transform="matrix(0.05,0,0,0.05,36.25,0)" xlink:href="#ay"/><use transform="matrix(0.05,0,0,0.05,46.25,0)" xlink:href="#at"/></g><g id="ao"><use transform="matrix(0.05,0,0,0.05,0,0)" xlink:href="#as"/><use transform="matrix(0.05,0,0,0.05,3.95,0)" xlink:href="#bM"/></g><g id="ap"><use transform="matrix(0.05,0,0,0.05,0,0)" xlink:href="#bK"/><use transform="matrix(0.05,0,0,0.05,5.95,0)" xlink:href="#ax"/><use transform="matrix(0.05,0,0,0.05,15.949999999999998,0)" xlink:href="#ay"/><use transform="matrix(0.05,0,0,0.05,25.950000000000003,0)" xlink:href="#bJ"/><use transform="matrix(0.05,0,0,0.05,35.95,0)" xlink:href="#bI"/><use transform="matrix(0.05,0,0,0.05,44.95,0)" xlink:href="#bL"/><use transform="matrix(0.05,0,0,0.05,49.95,0)" xlink:href="#as"/><use transform="matrix(0.05,0,0,0.05,53.900000000000006,0)" xlink:href="#au"/><use transform="matrix(0.05,0,0,0.05,63.900000000000006,0)" xlink:href="#bM"/></g><g id="aq"><use transform="matrix(0.05,0,0,0.05,0,0)" xlink:href="#au"/><use transform="matrix(0.05,0,0,0.05,10,0)" xlink:href="#bO"/></g><path d="M143 0L79-87 56-68V0H24v-261h32v163l83-92h37l-77 82L181 0h-38" id="cB"/><g id="ar"><use transform="matrix(0.05,0,0,0.05,0,0)" xlink:href="#ci"/><use transform="matrix(0.05,0,0,0.05,12.950000000000001,0)" xlink:href="#ax"/><use transform="matrix(0.05,0,0,0.05,22.950000000000003,0)" xlink:href="#bN"/><use transform="matrix(0.05,0,0,0.05,32.95,0)" xlink:href="#cB"/><use transform="matrix(0.05,0,0,0.05,41.95,0)" xlink:href="#bM"/><use transform="matrix(0.05,0,0,0.05,51.95,0)" xlink:href="#ax"/><use transform="matrix(0.05,0,0,0.05,61.95,0)" xlink:href="#at"/><use transform="matrix(0.05,0,0,0.05,70.95,0)" xlink:href="#at"/><use transform="matrix(0.05,0,0,0.05,79.95,0)" xlink:href="#ax"/><use transform="matrix(0.05,0,0,0.05,89.95,0)" xlink:href="#at"/></g></defs></g></svg>