<svg xmlns="http://www.w3.org/2000/svg" xmlns:xlink="http://www.w3.org/1999/xlink" width="1360" height="1760"><g transform="translate(0 0)"><path d="M0 0h1360v1760H0z" fill="#fff"/><path d="M390 80h205.83v98H390z" stroke="#000" stroke-width="2" fill="#fff"/><use xlink:href="#a" transform="matrix(1,0,0,1,395,85) translate(38.79999999999999 26)"/><use xlink:href="#b" transform="matrix(1,0,0,1,395,85) translate(75.3 26)"/><use xlink:href="#c" transform="matrix(1,0,0,1,395,85) translate(129.25 26)"/><use xlink:href="#d" transform="matrix(1,0,0,1,395,85) translate(11.099999999999994 47.6)"/><use xlink:href="#e" transform="matrix(1,0,0,1,395,85) translate(47.05 47.6)"/><use xlink:href="#f" transform="matrix(1,0,0,1,395,85) translate(92.94999999999999 47.6)"/><use xlink:href="#g" transform="matrix(1,0,0,1,395,85) translate(126.94999999999999 47.6)"/><use xlink:href="#h" transform="matrix(1,0,0,1,395,85) translate(146.95 47.6)"/><use xlink:href="#i" transform="matrix(1,0,0,1,395,85) translate(45.025 69.2)"/><use xlink:href="#j" transform="matrix(1,0,0,1,395,85) translate(80.025 69.2)"/><use xlink:href="#k" transform="matrix(1,0,0,1,395,85) translate(126.975 69.2)"/><path d="M492.92 178l.02.9.05.9.08.86.13.86.17.86.2.85.24.85.3.85.3.85.37.87.4.88.48.9.53.9.6.94.66.97.76 1 .86 1.04.98 1.08 1.12 1.15 1.3 1.22 1.5 1.28 1.73 1.38 2.04 1.5 2.45 1.62 2.95 1.8 3.66 2 4.63 2.28 6.04 2.68 8.36 3.3 12.93 4.48 83.66 25.4 8.36 3.3 6.04 2.68 4.62 2.3 3.66 2 2.96 1.78 2.45 1.63 2.06 1.5 1.74 1.37 1.5 1.28 1.3 1.2 1.1 1.16 1 1.08.85 1.04.76 1 .68.97.6.94.52.9.47.9.4.88.37.87.32.85.28.85.24.85.2.85.16.86.13.86.1.87.04.9.03.9" stroke="#000" stroke-width="2" fill="none"/><path d="M491.98 178.34l-.13-.34h1.07zM675.33 281l-9.2-11.85 8.73-3.14z"/><path d="M676.37 282h-1.53l-10.34-13.32 11.3-4.08zm-8.6-12.37l6.47 8.33-.34-10.54z"/><path d="M566 282h205.83v98H566z" stroke="#000" stroke-width="2" fill="#fff"/><use xlink:href="#l" transform="matrix(1,0,0,1,571,287) translate(56.574999999999996 15.19999999999999)"/><use xlink:href="#m" transform="matrix(1,0,0,1,571,287) translate(110.525 15.19999999999999)"/><use xlink:href="#n" transform="matrix(1,0,0,1,571,287) translate(11.625 36.79999999999999)"/><use xlink:href="#o" transform="matrix(1,0,0,1,571,287) translate(73.575 36.79999999999999)"/><use xlink:href="#p" transform="matrix(1,0,0,1,571,287) translate(118.525 36.79999999999999)"/><use xlink:href="#q" transform="matrix(1,0,0,1,571,287) translate(30.599999999999994 58.39999999999999)"/><use xlink:href="#r" transform="matrix(1,0,0,1,571,287) translate(108.45 58.39999999999999)"/><use xlink:href="#s" transform="matrix(1,0,0,1,571,287) translate(65.525 80)"/><path d="M749 540c0 44.18-35.82 80-80 80s-80-35.82-80-80 35.82-80 80-80 80 35.82 80 80z" stroke="#000" stroke-width="2" fill="#fff"/><use xlink:href="#t" transform="matrix(1,0,0,1,594,465) translate(33.05 46.19999999999999)"/><use xlink:href="#u" transform="matrix(1,0,0,1,594,465) translate(21.574999999999996 67.8)"/><use xlink:href="#v" transform="matrix(1,0,0,1,594,465) translate(80.475 67.8)"/><use xlink:href="#w" transform="matrix(1,0,0,1,594,465) translate(100.475 67.8)"/><use xlink:href="#x" transform="matrix(1,0,0,1,594,465) translate(5.625 89.4)"/><use xlink:href="#y" transform="matrix(1,0,0,1,594,465) translate(78.47500000000001 89.4)"/><use xlink:href="#z" transform="matrix(1,0,0,1,594,465) translate(119.375 89.4)"/><use xlink:href="#A" transform="matrix(1,0,0,1,594,465) translate(14.049999999999997 111)"/><use xlink:href="#B" transform="matrix(1,0,0,1,594,465) translate(73 111)"/><path d="M702 732.5c0 17.95-14.77 32.5-33 32.5s-33-14.55-33-32.5 14.77-32.5 33-32.5 33 14.55 33 32.5z" stroke="#000" stroke-width="2" fill="#ccc"/><use xlink:href="#C" transform="matrix(1,0,0,1,641,705) translate(28 32.9)"/><path d="M669 620v79" stroke="#000" stroke-width="2" fill="none"/><path d="M669 620h.68l.32-.02v.02h-2v-.03zM669 699l-4.64-14.27h9.28z"/><path d="M669.7 700.05l-.7-.05-.72.02-5.3-16.3h12.03zm-3.96-14.32l3.26 10.03 3.26-10.03z"/><path d="M833 89c17.67 0 32 17.9 32 40s-14.33 40-32 40h-96c-17.67 0-32-17.9-32-40s14.33-40 32-40z" stroke="#000" stroke-width="2" fill="#fff"/><g><use xlink:href="#D" transform="matrix(1,0,0,1,710,94) translate(20.674999999999997 27.799999999999997)"/><use xlink:href="#E" transform="matrix(1,0,0,1,710,94) translate(98.375 27.799999999999997)"/><use xlink:href="#e" transform="matrix(1,0,0,1,710,94) translate(6.075000000000003 49.4)"/><use xlink:href="#F" transform="matrix(1,0,0,1,710,94) translate(51.975 49.4)"/><use xlink:href="#G" transform="matrix(1,0,0,1,710,94) translate(69.925 49.4)"/><use xlink:href="#H" transform="matrix(1,0,0,1,710,94) translate(103.925 49.4)"/></g><path d="M595.83 129H704" stroke="#000" stroke-width="2" fill="none"/><path d="M595.83 130v-2zM704 129l-14.27 4.64v-9.28z"/><path d="M705.04 128.3l-.04.7.03.72-16.3 5.3v-12.03zm-14.3 3.96l10.02-3.26-10.03-3.26z"/><path d="M180 280h260v100H180z" stroke="#000" stroke-width="2" fill="#a3d977"/><path d="M206 280v100m208-100v100" stroke="#000" stroke-width="2" fill="none"/><g><use xlink:href="#I" transform="matrix(1,0,0,1,212.5,280) translate(19.64999999999999 21.19999999999999)"/><use xlink:href="#J" transform="matrix(1,0,0,1,212.5,280) translate(104.5 21.19999999999999)"/><use xlink:href="#K" transform="matrix(1,0,0,1,212.5,280) translate(154.35000000000002 21.19999999999999)"/><use xlink:href="#L" transform="matrix(1,0,0,1,212.5,280) translate(3.125 42.79999999999999)"/><use xlink:href="#M" transform="matrix(1,0,0,1,212.5,280) translate(77.92500000000001 42.79999999999999)"/><use xlink:href="#N" transform="matrix(1,0,0,1,212.5,280) translate(92.92500000000001 42.79999999999999)"/><use xlink:href="#O" transform="matrix(1,0,0,1,212.5,280) translate(137.925 42.79999999999999)"/><use xlink:href="#P" transform="matrix(1,0,0,1,212.5,280) translate(18.075000000000003 64.39999999999999)"/><use xlink:href="#Q" transform="matrix(1,0,0,1,212.5,280) translate(86.025 64.39999999999999)"/><use xlink:href="#R" transform="matrix(1,0,0,1,212.5,280) translate(113.97500000000001 64.39999999999999)"/><use xlink:href="#S" transform="matrix(1,0,0,1,212.5,280) translate(147.97500000000002 64.39999999999999)"/><use xlink:href="#T" transform="matrix(1,0,0,1,212.5,280) translate(81 86)"/></g><path d="M492.92 178l-.02.9-.06.85-.1.85-.1.85-.17.83-.2.84-.23.83-.27.83-.3.84-.37.85-.4.86-.46.88-.52.9-.58.92-.66.95-.75.98-.84 1.02-.98 1.07-1.1 1.12-1.26 1.2-1.47 1.26-1.72 1.35-2.02 1.46-2.4 1.6-2.9 1.76-3.6 1.96-4.53 2.25-5.92 2.63-8.15 3.22-12.47 4.32-33.68 9.93-40.16 11.73-12.48 4.32-8.15 3.22L338 250l-4.54 2.24-3.6 1.97-2.9 1.77-2.4 1.6-2.02 1.46-1.72 1.35-1.46 1.27-1.27 1.2-1.1 1.1-.97 1.08-.85 1.02-.74.98-.66.95-.58.92-.52.9-.46.87-.4.86-.36.85-.3.84-.3.83-.22.83-.2.84-.15.83-.14.85-.1.85-.04.86-.02.9" stroke="#000" stroke-width="2" fill="none"/><path d="M493.86 178.35l-.95-.35H494zM319.27 268.2L310 280l.57-15z"/><path d="M320.9 267.75L311.28 280H309l.63-16.4zm-9.78 9.2l6.52-8.28-6.12-2.25z"/><path d="M343 492.5c0 17.95-14.77 32.5-33 32.5s-33-14.55-33-32.5 14.77-32.5 33-32.5 33 14.55 33 32.5z" stroke="#000" stroke-width="2" fill="#ccc"/><g><use xlink:href="#C" transform="matrix(1,0,0,1,282,464.999115014625) translate(28 32.9)"/></g><path d="M310 381v78" stroke="#000" stroke-width="2" fill="none"/><path d="M311 381h-2v-1h2zM310 459l-4.64-14.27h9.28z"/><path d="M310.7 460.05l-.7-.05-.72.02-5.3-16.3h12.03zm-3.96-14.32l3.26 10.03 3.26-10.03z"/><path d="M668.94 380l.06 80" stroke="#000" stroke-width="2" fill="none"/><path d="M669.94 380h-2 2zM669 460l-4.65-14.26h9.27z"/><path d="M670.04 460.03L669 460h-.68l-.37.02-4.97-15.28H675zm-4.3-13.3l3.26 10.03 3.25-10.03z"/><defs><path d="M136-208V0H84v-208H4v-40h212v40h-80" id="U"/><path d="M110-194c64 0 96 36 96 99 0 64-35 99-97 99-61 0-95-36-95-99 0-62 34-99 96-99zm-1 164c35 0 45-28 45-65 0-40-10-65-43-65-34 0-45 26-45 65 0 36 10 65 43 65" id="V"/><path d="M135-194c53 0 70 44 70 98 0 56-19 98-73 100-31 1-45-17-59-34 3 33 2 69 2 105H25l-1-265h48c2 10 0 23 3 31 11-24 29-35 60-35zM114-30c33 0 39-31 40-66 0-38-9-64-40-64-56 0-55 130 0 130" id="W"/><g id="a"><use transform="matrix(0.05,0,0,0.05,0,0)" xlink:href="#U"/><use transform="matrix(0.05,0,0,0.05,9.600000000000001,0)" xlink:href="#V"/><use transform="matrix(0.05,0,0,0.05,20.550000000000004,0)" xlink:href="#W"/></g><path d="M67-125c0 53 21 87 73 88 37 1 54-22 65-47l45 17C233-25 199 4 140 4 58 4 20-42 15-125 8-235 124-281 211-232c18 10 29 29 36 50l-46 12c-8-25-30-41-62-41-52 0-71 34-72 86" id="X"/><path d="M25 0v-261h50V0H25" id="Y"/><path d="M133-34C117-15 103 5 69 4 32 3 11-16 11-54c-1-60 55-63 116-61 1-26-3-47-28-47-18 1-26 9-28 27l-52-2c7-38 36-58 82-57s74 22 75 68l1 82c-1 14 12 18 25 15v27c-30 8-71 5-69-32zm-48 3c29 0 43-24 42-57-32 0-66-3-65 30 0 17 8 27 23 27" id="Z"/><path d="M25-224v-37h50v37H25zM25 0v-190h50V0H25" id="aa"/><path d="M220-157c-53 9-28 100-34 157h-49v-107c1-27-5-49-29-50C55-147 81-57 75 0H25l-1-190h47c2 12-1 28 3 38 10-53 101-56 108 0 13-22 24-43 59-42 82 1 51 116 57 194h-49v-107c-1-25-5-48-29-50" id="ab"/><g id="b"><use transform="matrix(0.05,0,0,0.05,0,0)" xlink:href="#X"/><use transform="matrix(0.05,0,0,0.05,12.950000000000001,0)" xlink:href="#Y"/><use transform="matrix(0.05,0,0,0.05,17.950000000000003,0)" xlink:href="#Z"/><use transform="matrix(0.05,0,0,0.05,27.950000000000003,0)" xlink:href="#aa"/><use transform="matrix(0.05,0,0,0.05,32.95,0)" xlink:href="#ab"/></g><path d="M23 0v-37h61v-169l-59 37v-38l62-41h46v211h57V0H23" id="ac"/><path d="M33-154v-36h34v36H33zM33 0v-36h34V0H33" id="ad"/><g id="c"><use transform="matrix(0.05,0,0,0.05,0,0)" xlink:href="#X"/><use transform="matrix(0.05,0,0,0.05,12.950000000000001,0)" xlink:href="#ac"/><use transform="matrix(0.05,0,0,0.05,22.950000000000003,0)" xlink:href="#ad"/></g><path d="M127-220V0H93v-220H8v-28h204v28h-85" id="ae"/><path d="M106-169C34-169 62-67 57 0H25v-261h32l-1 103c12-21 28-36 61-36 89 0 53 116 60 194h-32v-121c2-32-8-49-39-48" id="af"/><path d="M100-194c63 0 86 42 84 106H49c0 40 14 67 53 68 26 1 43-12 49-29l28 8c-11 28-37 45-77 45C44 4 14-33 15-96c1-61 26-98 85-98zm52 81c6-60-76-77-97-28-3 7-6 17-6 28h103" id="ag"/><g id="d"><use transform="matrix(0.05,0,0,0.05,0,0)" xlink:href="#ae"/><use transform="matrix(0.05,0,0,0.05,10.950000000000001,0)" xlink:href="#af"/><use transform="matrix(0.05,0,0,0.05,20.950000000000003,0)" xlink:href="#ag"/></g><path d="M114-163C36-179 61-72 57 0H25l-1-190h30c1 12-1 29 2 39 6-27 23-49 58-41v29" id="ah"/><path d="M100-194c62-1 85 37 85 99 1 63-27 99-86 99S16-35 15-95c0-66 28-99 85-99zM99-20c44 1 53-31 53-75 0-43-8-75-51-75s-53 32-53 75 10 74 51 75" id="ai"/><path d="M210-169c-67 3-38 105-44 169h-31v-121c0-29-5-50-35-48C34-165 62-65 56 0H25l-1-190h30c1 10-1 24 2 32 10-44 99-50 107 0 11-21 27-35 58-36 85-2 47 119 55 194h-31v-121c0-29-5-49-35-48" id="aj"/><g id="e"><use transform="matrix(0.05,0,0,0.05,0,0)" xlink:href="#ah"/><use transform="matrix(0.05,0,0,0.05,5.95,0)" xlink:href="#ai"/><use transform="matrix(0.05,0,0,0.05,15.949999999999998,0)" xlink:href="#ai"/><use transform="matrix(0.05,0,0,0.05,25.950000000000003,0)" xlink:href="#aj"/></g><path d="M141-36C126-15 110 5 73 4 37 3 15-17 15-53c-1-64 63-63 125-63 3-35-9-54-41-54-24 1-41 7-42 31l-33-3c5-37 33-52 76-52 45 0 72 20 72 64v82c-1 20 7 32 28 27v20c-31 9-61-2-59-35zM48-53c0 20 12 33 32 33 41-3 63-29 60-74-43 2-92-5-92 41" id="ak"/><path d="M135-143c-3-34-86-38-87 0 15 53 115 12 119 90S17 21 10-45l28-5c4 36 97 45 98 0-10-56-113-15-118-90-4-57 82-63 122-42 12 7 21 19 24 35" id="al"/><g id="f"><use transform="matrix(0.05,0,0,0.05,0,0)" xlink:href="#af"/><use transform="matrix(0.05,0,0,0.05,10,0)" xlink:href="#ak"/><use transform="matrix(0.05,0,0,0.05,20,0)" xlink:href="#al"/></g><path d="M59-47c-2 24 18 29 38 22v24C64 9 27 4 27-40v-127H5v-23h24l9-43h21v43h35v23H59v120" id="am"/><g id="g"><use transform="matrix(0.05,0,0,0.05,0,0)" xlink:href="#ak"/><use transform="matrix(0.05,0,0,0.05,10,0)" xlink:href="#am"/></g><path d="M24 0v-261h32V0H24" id="an"/><g id="h"><use transform="matrix(0.05,0,0,0.05,0,0)" xlink:href="#an"/><use transform="matrix(0.05,0,0,0.05,3.95,0)" xlink:href="#ag"/><use transform="matrix(0.05,0,0,0.05,13.949999999999998,0)" xlink:href="#ak"/><use transform="matrix(0.05,0,0,0.05,23.95,0)" xlink:href="#al"/><use transform="matrix(0.05,0,0,0.05,32.95,0)" xlink:href="#am"/></g><path d="M117-194c89-4 53 116 60 194h-32v-121c0-31-8-49-39-48C34-167 62-67 57 0H25l-1-190h30c1 10-1 24 2 32 11-22 29-35 61-36" id="ao"/><g id="i"><use transform="matrix(0.05,0,0,0.05,0,0)" xlink:href="#ai"/><use transform="matrix(0.05,0,0,0.05,10,0)" xlink:href="#ao"/><use transform="matrix(0.05,0,0,0.05,20,0)" xlink:href="#ag"/></g><path d="M115-194c53 0 69 39 70 98 0 66-23 100-70 100C84 3 66-7 56-30L54 0H23l1-261h32v101c10-23 28-34 59-34zm-8 174c40 0 45-34 45-75 0-40-5-75-45-74-42 0-51 32-51 76 0 43 10 73 51 73" id="ap"/><path d="M96-169c-40 0-48 33-48 73s9 75 48 75c24 0 41-14 43-38l32 2c-6 37-31 61-74 61-59 0-76-41-82-99-10-93 101-131 147-64 4 7 5 14 7 22l-32 3c-4-21-16-35-41-35" id="aq"/><path d="M143 0L79-87 56-68V0H24v-261h32v163l83-92h37l-77 82L181 0h-38" id="ar"/><g id="j"><use transform="matrix(0.05,0,0,0.05,0,0)" xlink:href="#ap"/><use transform="matrix(0.05,0,0,0.05,10,0)" xlink:href="#an"/><use transform="matrix(0.05,0,0,0.05,13.949999999999998,0)" xlink:href="#ak"/><use transform="matrix(0.05,0,0,0.05,23.95,0)" xlink:href="#aq"/><use transform="matrix(0.05,0,0,0.05,32.95,0)" xlink:href="#ar"/></g><g id="k"><use transform="matrix(0.05,0,0,0.05,0,0)" xlink:href="#aq"/><use transform="matrix(0.05,0,0,0.05,9,0)" xlink:href="#ak"/><use transform="matrix(0.05,0,0,0.05,19,0)" xlink:href="#am"/></g><g id="l"><use transform="matrix(0.05,0,0,0.05,0,0)" xlink:href="#X"/><use transform="matrix(0.05,0,0,0.05,12.950000000000001,0)" xlink:href="#Y"/><use transform="matrix(0.05,0,0,0.05,17.950000000000003,0)" xlink:href="#Z"/><use transform="matrix(0.05,0,0,0.05,27.950000000000003,0)" xlink:href="#aa"/><use transform="matrix(0.05,0,0,0.05,32.95,0)" xlink:href="#ab"/></g><path d="M182-182c0 78-84 86-111 141h115V0H12c-6-101 99-100 120-180 1-22-12-31-33-32-23 0-32 14-35 34l-49-3c5-45 32-70 84-70 51 0 83 22 83 69" id="as"/><path d="M35-132v-50h50v50H35zM35 0v-49h50V0H35" id="at"/><g id="m"><use transform="matrix(0.05,0,0,0.05,0,0)" xlink:href="#X"/><use transform="matrix(0.05,0,0,0.05,12.950000000000001,0)" xlink:href="#as"/><use transform="matrix(0.05,0,0,0.05,22.950000000000003,0)" xlink:href="#at"/></g><path d="M185-189c-5-48-123-54-124 2 14 75 158 14 163 119 3 78-121 87-175 55-17-10-28-26-33-46l33-7c5 56 141 63 141-1 0-78-155-14-162-118-5-82 145-84 179-34 5 7 8 16 11 25" id="au"/><g id="n"><use transform="matrix(0.05,0,0,0.05,0,0)" xlink:href="#au"/><use transform="matrix(0.05,0,0,0.05,12,0)" xlink:href="#ag"/><use transform="matrix(0.05,0,0,0.05,22,0)" xlink:href="#ak"/><use transform="matrix(0.05,0,0,0.05,32,0)" xlink:href="#ah"/><use transform="matrix(0.05,0,0,0.05,37.95,0)" xlink:href="#aq"/><use transform="matrix(0.05,0,0,0.05,46.95,0)" xlink:href="#af"/></g><g id="o"><use transform="matrix(0.05,0,0,0.05,0,0)" xlink:href="#am"/><use transform="matrix(0.05,0,0,0.05,5,0)" xlink:href="#ag"/><use transform="matrix(0.05,0,0,0.05,15,0)" xlink:href="#ak"/><use transform="matrix(0.05,0,0,0.05,25,0)" xlink:href="#aj"/></g><path d="M101-234c-31-9-42 10-38 44h38v23H63V0H32v-167H5v-23h27c-7-52 17-82 69-68v24" id="av"/><path d="M206 0h-36l-40-164L89 0H53L-1-190h32L70-26l43-164h34l41 164 42-164h31" id="aw"/><path d="M85-194c31 0 48 13 60 33l-1-100h32l1 261h-30c-2-10 0-23-3-31C134-8 116 4 85 4 32 4 16-35 15-94c0-66 23-100 70-100zm9 24c-40 0-46 34-46 75 0 40 6 74 45 74 42 0 51-32 51-76 0-42-9-74-50-73" id="ax"/><g id="p"><use transform="matrix(0.05,0,0,0.05,0,0)" xlink:href="#av"/><use transform="matrix(0.05,0,0,0.05,5,0)" xlink:href="#ai"/><use transform="matrix(0.05,0,0,0.05,15,0)" xlink:href="#an"/><use transform="matrix(0.05,0,0,0.05,18.95,0)" xlink:href="#an"/><use transform="matrix(0.05,0,0,0.05,22.9,0)" xlink:href="#ai"/><use transform="matrix(0.05,0,0,0.05,32.9,0)" xlink:href="#aw"/><use transform="matrix(0.05,0,0,0.05,45.85,0)" xlink:href="#ag"/><use transform="matrix(0.05,0,0,0.05,55.85,0)" xlink:href="#ax"/></g><path d="M194 0L95-120 63-95V0H30v-248h33v124l119-124h40L117-140 236 0h-42" id="ay"/><path d="M24-231v-30h32v30H24zM24 0v-190h32V0H24" id="az"/><path d="M179-190L93 31C79 59 56 82 12 73V49c39 6 53-20 64-50L1-190h34L92-34l54-156h33" id="aA"/><path d="M16-82v-28h88v28H16" id="aB"/><g id="q"><use transform="matrix(0.05,0,0,0.05,0,0)" xlink:href="#ay"/><use transform="matrix(0.05,0,0,0.05,12,0)" xlink:href="#az"/><use transform="matrix(0.05,0,0,0.05,15.949999999999998,0)" xlink:href="#am"/><use transform="matrix(0.05,0,0,0.05,20.95,0)" xlink:href="#am"/><use transform="matrix(0.05,0,0,0.05,25.950000000000003,0)" xlink:href="#aA"/><use transform="matrix(0.05,0,0,0.05,34.95,0)" xlink:href="#aB"/><use transform="matrix(0.05,0,0,0.05,40.900000000000006,0)" xlink:href="#ar"/><use transform="matrix(0.05,0,0,0.05,49.900000000000006,0)" xlink:href="#az"/><use transform="matrix(0.05,0,0,0.05,53.85,0)" xlink:href="#am"/><use transform="matrix(0.05,0,0,0.05,58.85,0)" xlink:href="#am"/><use transform="matrix(0.05,0,0,0.05,63.85,0)" xlink:href="#aA"/></g><g id="r"><use transform="matrix(0.05,0,0,0.05,0,0)" xlink:href="#au"/><use transform="matrix(0.05,0,0,0.05,12,0)" xlink:href="#ag"/><use transform="matrix(0.05,0,0,0.05,22,0)" xlink:href="#ak"/><use transform="matrix(0.05,0,0,0.05,32,0)" xlink:href="#ah"/><use transform="matrix(0.05,0,0,0.05,37.95,0)" xlink:href="#aq"/><use transform="matrix(0.05,0,0,0.05,46.95,0)" xlink:href="#af"/></g><path d="M30-248c87 1 191-15 191 75 0 78-77 80-158 76V0H30v-248zm33 125c57 0 124 11 124-50 0-59-68-47-124-48v98" id="aC"/><g id="s"><use transform="matrix(0.05,0,0,0.05,0,0)" xlink:href="#aC"/><use transform="matrix(0.05,0,0,0.05,12,0)" xlink:href="#ah"/><use transform="matrix(0.05,0,0,0.05,17.95,0)" xlink:href="#ai"/><use transform="matrix(0.05,0,0,0.05,27.950000000000003,0)" xlink:href="#aq"/><use transform="matrix(0.05,0,0,0.05,36.95,0)" xlink:href="#ag"/><use transform="matrix(0.05,0,0,0.05,46.95,0)" xlink:href="#al"/><use transform="matrix(0.05,0,0,0.05,55.95,0)" xlink:href="#al"/></g><path d="M24 0v-248h195v40H76v63h132v40H76v65h150V0H24" id="aD"/><path d="M128 0H69L1-190h53L99-40l48-150h52" id="aE"/><path d="M88-194c31-1 46 15 58 34l-1-101h50l1 261h-48c-2-10 0-23-3-31C134-8 116 4 84 4 32 4 16-41 15-95c0-56 19-97 73-99zm17 164c33 0 40-30 41-66 1-37-9-64-41-64s-38 30-39 65c0 43 13 65 39 65" id="aF"/><path d="M185-48c-13 30-37 53-82 52C43 2 14-33 14-96s30-98 90-98c62 0 83 45 84 108H66c0 31 8 55 39 56 18 0 30-7 34-22zm-45-69c5-46-57-63-70-21-2 6-4 13-4 21h74" id="aG"/><path d="M135-194c87-1 58 113 63 194h-50c-7-57 23-157-34-157-59 0-34 97-39 157H25l-1-190h47c2 12-1 28 3 38 12-26 28-41 61-42" id="aH"/><path d="M190-63c-7 42-38 67-86 67-59 0-84-38-90-98-12-110 154-137 174-36l-49 2c-2-19-15-32-35-32-30 0-35 28-38 64-6 74 65 87 74 30" id="aI"/><g id="t"><use transform="matrix(0.05,0,0,0.05,0,0)" xlink:href="#aD"/><use transform="matrix(0.05,0,0,0.05,12,0)" xlink:href="#aE"/><use transform="matrix(0.05,0,0,0.05,22,0)" xlink:href="#aa"/><use transform="matrix(0.05,0,0,0.05,27,0)" xlink:href="#aF"/><use transform="matrix(0.05,0,0,0.05,37.95,0)" xlink:href="#aG"/><use transform="matrix(0.05,0,0,0.05,47.95,0)" xlink:href="#aH"/><use transform="matrix(0.05,0,0,0.05,58.900000000000006,0)" xlink:href="#aI"/><use transform="matrix(0.05,0,0,0.05,68.9,0)" xlink:href="#aG"/><use transform="matrix(0.05,0,0,0.05,78.9,0)" xlink:href="#ad"/></g><path d="M233-177c-1 41-23 64-60 70L243 0h-38l-65-103H63V0H30v-248c88 3 205-21 203 71zM63-129c60-2 137 13 137-47 0-61-80-42-137-45v92" id="aJ"/><path d="M115-194c55 1 70 41 70 98S169 2 115 4C84 4 66-9 55-30l1 105H24l-1-265h31l2 30c10-21 28-34 59-34zm-8 174c40 0 45-34 45-75s-6-73-45-74c-42 0-51 32-51 76 0 43 10 73 51 73" id="aK"/><g id="u"><use transform="matrix(0.05,0,0,0.05,0,0)" xlink:href="#aJ"/><use transform="matrix(0.05,0,0,0.05,12.950000000000001,0)" xlink:href="#ag"/><use transform="matrix(0.05,0,0,0.05,22.950000000000003,0)" xlink:href="#aK"/><use transform="matrix(0.05,0,0,0.05,32.95,0)" xlink:href="#ai"/><use transform="matrix(0.05,0,0,0.05,42.95,0)" xlink:href="#ah"/><use transform="matrix(0.05,0,0,0.05,48.900000000000006,0)" xlink:href="#am"/></g><g id="v"><use transform="matrix(0.05,0,0,0.05,0,0)" xlink:href="#ai"/><use transform="matrix(0.05,0,0,0.05,10,0)" xlink:href="#av"/></g><path d="M212-179c-10-28-35-45-73-45-59 0-87 40-87 99 0 60 29 101 89 101 43 0 62-24 78-52l27 14C228-24 195 4 139 4 59 4 22-46 18-125c-6-104 99-153 187-111 19 9 31 26 39 46" id="aL"/><g id="w"><use transform="matrix(0.05,0,0,0.05,0,0)" xlink:href="#aL"/><use transform="matrix(0.05,0,0,0.05,12.950000000000001,0)" xlink:href="#ak"/><use transform="matrix(0.05,0,0,0.05,22.950000000000003,0)" xlink:href="#am"/></g><path d="M63-220v92h138v28H63V0H30v-248h175v28H63" id="aM"/><path d="M177-190C167-65 218 103 67 71c-23-6-38-20-44-43l32-5c15 47 100 32 89-28v-30C133-14 115 1 83 1 29 1 15-40 15-95c0-56 16-97 71-98 29-1 48 16 59 35 1-10 0-23 2-32h30zM94-22c36 0 50-32 50-73 0-42-14-75-50-75-39 0-46 34-46 75s6 73 46 73" id="aN"/><g id="x"><use transform="matrix(0.05,0,0,0.05,0,0)" xlink:href="#aM"/><use transform="matrix(0.05,0,0,0.05,10.950000000000001,0)" xlink:href="#az"/><use transform="matrix(0.05,0,0,0.05,14.9,0)" xlink:href="#ao"/><use transform="matrix(0.05,0,0,0.05,24.900000000000002,0)" xlink:href="#ax"/><use transform="matrix(0.05,0,0,0.05,34.900000000000006,0)" xlink:href="#az"/><use transform="matrix(0.05,0,0,0.05,38.85000000000001,0)" xlink:href="#ao"/><use transform="matrix(0.05,0,0,0.05,48.85000000000001,0)" xlink:href="#aN"/><use transform="matrix(0.05,0,0,0.05,58.85,0)" xlink:href="#al"/></g><g id="y"><use transform="matrix(0.05,0,0,0.05,0,0)" xlink:href="#av"/><use transform="matrix(0.05,0,0,0.05,5,0)" xlink:href="#ah"/><use transform="matrix(0.05,0,0,0.05,10.95,0)" xlink:href="#ai"/><use transform="matrix(0.05,0,0,0.05,20.95,0)" xlink:href="#aj"/></g><g id="z"><use transform="matrix(0.05,0,0,0.05,0,0)" xlink:href="#am"/><use transform="matrix(0.05,0,0,0.05,5,0)" xlink:href="#af"/><use transform="matrix(0.05,0,0,0.05,15,0)" xlink:href="#ag"/></g><g id="A"><use transform="matrix(0.05,0,0,0.05,0,0)" xlink:href="#al"/><use transform="matrix(0.05,0,0,0.05,9,0)" xlink:href="#ag"/><use transform="matrix(0.05,0,0,0.05,19,0)" xlink:href="#ak"/><use transform="matrix(0.05,0,0,0.05,29,0)" xlink:href="#ah"/><use transform="matrix(0.05,0,0,0.05,34.95,0)" xlink:href="#aq"/><use transform="matrix(0.05,0,0,0.05,43.95,0)" xlink:href="#af"/></g><g id="B"><use transform="matrix(0.05,0,0,0.05,0,0)" xlink:href="#aK"/><use transform="matrix(0.05,0,0,0.05,10,0)" xlink:href="#ah"/><use transform="matrix(0.05,0,0,0.05,15.949999999999998,0)" xlink:href="#ai"/><use transform="matrix(0.05,0,0,0.05,25.950000000000003,0)" xlink:href="#aq"/><use transform="matrix(0.05,0,0,0.05,34.95,0)" xlink:href="#ag"/><use transform="matrix(0.05,0,0,0.05,44.95,0)" xlink:href="#al"/><use transform="matrix(0.05,0,0,0.05,53.95,0)" xlink:href="#al"/></g><path d="M115-3C79 11 28 4 28-45v-112H4v-33h27l15-45h31v45h36v33H77v99c-1 23 16 31 38 25v30" id="aO"/><path d="M144 0l-44-69L55 0H2l70-98-66-92h53l41 62 40-62h54l-67 91 71 99h-54" id="aP"/><g id="D"><use transform="matrix(0.05,0,0,0.05,0,0)" xlink:href="#X"/><use transform="matrix(0.05,0,0,0.05,12.950000000000001,0)" xlink:href="#V"/><use transform="matrix(0.05,0,0,0.05,23.900000000000002,0)" xlink:href="#aH"/><use transform="matrix(0.05,0,0,0.05,34.85,0)" xlink:href="#aO"/><use transform="matrix(0.05,0,0,0.05,40.800000000000004,0)" xlink:href="#aG"/><use transform="matrix(0.05,0,0,0.05,50.800000000000004,0)" xlink:href="#aP"/><use transform="matrix(0.05,0,0,0.05,60.800000000000004,0)" xlink:href="#aO"/><use transform="matrix(0.05,0,0,0.05,66.75,0)" xlink:href="#at"/></g><g id="E"><use transform="matrix(0.05,0,0,0.05,0,0)" xlink:href="#ae"/><use transform="matrix(0.05,0,0,0.05,10.950000000000001,0)" xlink:href="#af"/><use transform="matrix(0.05,0,0,0.05,20.950000000000003,0)" xlink:href="#ag"/></g><g id="F"><use transform="matrix(0.05,0,0,0.05,0,0)" xlink:href="#az"/><use transform="matrix(0.05,0,0,0.05,3.95,0)" xlink:href="#al"/></g><path d="M33 0v-248h34V0H33" id="aQ"/><g id="G"><use transform="matrix(0.05,0,0,0.05,0,0)" xlink:href="#aC"/><use transform="matrix(0.05,0,0,0.05,12,0)" xlink:href="#ay"/><use transform="matrix(0.05,0,0,0.05,24,0)" xlink:href="#aQ"/></g><path d="M155-56V0h-30v-56H8v-25l114-167h33v167h35v25h-35zm-30-156c-27 46-58 90-88 131h88v-131" id="aR"/><path d="M101-251c68 0 85 55 85 127S166 4 100 4C33 4 14-52 14-124c0-73 17-127 87-127zm-1 229c47 0 54-49 54-102s-4-102-53-102c-51 0-55 48-55 102 0 53 5 102 54 102" id="aS"/><path d="M27 0v-27h64v-190l-56 39v-29l58-41h29v221h61V0H27" id="aT"/><g id="H"><use transform="matrix(0.05,0,0,0.05,0,0)" xlink:href="#aR"/><use transform="matrix(0.05,0,0,0.05,10,0)" xlink:href="#aS"/><use transform="matrix(0.05,0,0,0.05,20,0)" xlink:href="#aS"/><use transform="matrix(0.05,0,0,0.05,30,0)" xlink:href="#aT"/></g><path d="M24 0v-248h52V0H24" id="aU"/><path d="M121-226c-27-7-43 5-38 36h38v33H83V0H34v-157H6v-33h28c-9-59 32-81 87-68v32" id="aV"/><path d="M135-150c-39-12-60 13-60 57V0H25l-1-190h47c2 13-1 29 3 40 6-28 27-53 61-41v41" id="aW"/><g id="I"><use transform="matrix(0.05,0,0,0.05,0,0)" xlink:href="#aU"/><use transform="matrix(0.05,0,0,0.05,5,0)" xlink:href="#aH"/><use transform="matrix(0.05,0,0,0.05,15.950000000000001,0)" xlink:href="#aV"/><use transform="matrix(0.05,0,0,0.05,21.900000000000002,0)" xlink:href="#aG"/><use transform="matrix(0.05,0,0,0.05,31.900000000000002,0)" xlink:href="#aW"/><use transform="matrix(0.05,0,0,0.05,38.900000000000006,0)" xlink:href="#aG"/><use transform="matrix(0.05,0,0,0.05,48.900000000000006,0)" xlink:href="#aH"/><use transform="matrix(0.05,0,0,0.05,59.85,0)" xlink:href="#aI"/><use transform="matrix(0.05,0,0,0.05,69.85000000000001,0)" xlink:href="#aG"/></g><path d="M240-174c0 40-23 61-54 70L253 0h-59l-57-94H76V0H24v-248c93 4 217-23 216 74zM76-134c48-2 112 12 112-38 0-48-66-32-112-35v73" id="aX"/><path d="M85 4C-2 5 27-109 22-190h50c7 57-23 150 33 157 60-5 35-97 40-157h50l1 190h-47c-2-12 1-28-3-38-12 25-28 42-61 42" id="aY"/><g id="J"><use transform="matrix(0.05,0,0,0.05,0,0)" xlink:href="#aX"/><use transform="matrix(0.05,0,0,0.05,12.950000000000001,0)" xlink:href="#aY"/><use transform="matrix(0.05,0,0,0.05,23.900000000000002,0)" xlink:href="#Y"/><use transform="matrix(0.05,0,0,0.05,28.900000000000002,0)" xlink:href="#aG"/><use transform="matrix(0.05,0,0,0.05,38.900000000000006,0)" xlink:href="#at"/></g><path d="M160-131c35 5 61 23 61 61C221 17 115-2 30 0v-248c76 3 177-17 177 60 0 33-19 50-47 57zm-97-11c50-1 110 9 110-42 0-47-63-36-110-37v79zm0 115c55-2 124 14 124-45 0-56-70-42-124-44v89" id="aZ"/><g id="K"><use transform="matrix(0.05,0,0,0.05,0,0)" xlink:href="#aZ"/><use transform="matrix(0.05,0,0,0.05,12,0)" xlink:href="#aA"/></g><g id="L"><use transform="matrix(0.05,0,0,0.05,0,0)" xlink:href="#av"/><use transform="matrix(0.05,0,0,0.05,5,0)" xlink:href="#ai"/><use transform="matrix(0.05,0,0,0.05,15,0)" xlink:href="#an"/><use transform="matrix(0.05,0,0,0.05,18.95,0)" xlink:href="#an"/><use transform="matrix(0.05,0,0,0.05,22.9,0)" xlink:href="#ai"/><use transform="matrix(0.05,0,0,0.05,32.9,0)" xlink:href="#aw"/><use transform="matrix(0.05,0,0,0.05,45.85,0)" xlink:href="#az"/><use transform="matrix(0.05,0,0,0.05,49.800000000000004,0)" xlink:href="#ao"/><use transform="matrix(0.05,0,0,0.05,59.800000000000004,0)" xlink:href="#aN"/></g><use transform="matrix(0.05,0,0,0.05,0,0)" xlink:href="#ak" id="M"/><g id="N"><use transform="matrix(0.05,0,0,0.05,0,0)" xlink:href="#aN"/><use transform="matrix(0.05,0,0,0.05,10,0)" xlink:href="#ai"/><use transform="matrix(0.05,0,0,0.05,20,0)" xlink:href="#ai"/><use transform="matrix(0.05,0,0,0.05,30,0)" xlink:href="#ax"/></g><g id="O"><use transform="matrix(0.05,0,0,0.05,0,0)" xlink:href="#al"/><use transform="matrix(0.05,0,0,0.05,9,0)" xlink:href="#ag"/><use transform="matrix(0.05,0,0,0.05,19,0)" xlink:href="#ak"/><use transform="matrix(0.05,0,0,0.05,29,0)" xlink:href="#ah"/><use transform="matrix(0.05,0,0,0.05,34.95,0)" xlink:href="#aq"/><use transform="matrix(0.05,0,0,0.05,43.95,0)" xlink:href="#af"/></g><g id="P"><use transform="matrix(0.05,0,0,0.05,0,0)" xlink:href="#aK"/><use transform="matrix(0.05,0,0,0.05,10,0)" xlink:href="#ah"/><use transform="matrix(0.05,0,0,0.05,15.949999999999998,0)" xlink:href="#ai"/><use transform="matrix(0.05,0,0,0.05,25.950000000000003,0)" xlink:href="#aq"/><use transform="matrix(0.05,0,0,0.05,34.95,0)" xlink:href="#ag"/><use transform="matrix(0.05,0,0,0.05,44.95,0)" xlink:href="#al"/><use transform="matrix(0.05,0,0,0.05,53.95,0)" xlink:href="#al"/></g><g id="Q"><use transform="matrix(0.05,0,0,0.05,0,0)" xlink:href="#aw"/><use transform="matrix(0.05,0,0,0.05,12.950000000000001,0)" xlink:href="#ag"/></g><g id="R"><use transform="matrix(0.05,0,0,0.05,0,0)" xlink:href="#aq"/><use transform="matrix(0.05,0,0,0.05,9,0)" xlink:href="#ak"/><use transform="matrix(0.05,0,0,0.05,19,0)" xlink:href="#ao"/></g><g id="S"><use transform="matrix(0.05,0,0,0.05,0,0)" xlink:href="#av"/><use transform="matrix(0.05,0,0,0.05,5,0)" xlink:href="#az"/><use transform="matrix(0.05,0,0,0.05,8.95,0)" xlink:href="#ao"/><use transform="matrix(0.05,0,0,0.05,18.95,0)" xlink:href="#ax"/></g><g id="T"><use transform="matrix(0.05,0,0,0.05,0,0)" xlink:href="#aq"/><use transform="matrix(0.05,0,0,0.05,9,0)" xlink:href="#ak"/><use transform="matrix(0.05,0,0,0.05,19,0)" xlink:href="#am"/><use transform="matrix(0.05,0,0,0.05,24,0)" xlink:href="#al"/></g></defs></g></svg>