<svg xmlns="http://www.w3.org/2000/svg" xmlns:xlink="http://www.w3.org/1999/xlink" xmlns:lucid="lucid" width="1565.83" height="176"><g transform="translate(400 -940)" lucid:page-tab-id="u6cyebZNDH~y"><path d="M-1296 0h2656v1760h-2656z" fill="#fff"/><path d="M-380 960h205.83v98H-380zM940 971.5h205.83v98H940z" stroke="#000" stroke-opacity="0" stroke-width="2" fill-opacity="0"/><path d="M240 960h205.83v98H240z" stroke="#000" stroke-width="2" fill="#fff"/><use xlink:href="#a" transform="matrix(1,0,0,1,245,965) translate(36.64999999999999 36.8)"/><use xlink:href="#b" transform="matrix(1,0,0,1,245,965) translate(130.45 36.8)"/><use xlink:href="#c" transform="matrix(1,0,0,1,245,965) translate(26.099999999999994 58.4)"/><use xlink:href="#d" transform="matrix(1,0,0,1,245,965) translate(88 58.4)"/><use xlink:href="#e" transform="matrix(1,0,0,1,245,965) translate(105.95 58.4)"/><use xlink:href="#f" transform="matrix(1,0,0,1,245,965) translate(130.95 58.4)"/><path d="M336.5 1058l28.5 19-28.5 19-28.5-19z" stroke="#000" stroke-width="2"/><defs><path d="M169-182c-1-43-94-46-97-3 18 66 151 10 154 114 3 95-165 93-204 36-6-8-10-19-12-30l50-8c3 46 112 56 116 5-17-69-150-10-154-114-4-87 153-88 188-35 5 8 8 18 10 28" id="g"/><path d="M85 4C-2 5 27-109 22-190h50c7 57-23 150 33 157 60-5 35-97 40-157h50l1 190h-47c-2-12 1-28-3-38-12 25-28 42-61 42" id="h"/><path d="M135-194c52 0 70 43 70 98 0 56-19 99-73 100-30 1-46-15-58-35L72 0H24l1-261h50v104c11-23 29-37 60-37zM114-30c31 0 40-27 40-66 0-37-7-63-39-63s-41 28-41 65c0 36 8 64 40 64" id="i"/><path d="M14-72v-43h91v43H14" id="j"/><path d="M67-125c0 53 21 87 73 88 37 1 54-22 65-47l45 17C233-25 199 4 140 4 58 4 20-42 15-125 8-235 124-281 211-232c18 10 29 29 36 50l-46 12c-8-25-30-41-62-41-52 0-71 34-72 86" id="k"/><path d="M25 0v-261h50V0H25" id="l"/><path d="M133-34C117-15 103 5 69 4 32 3 11-16 11-54c-1-60 55-63 116-61 1-26-3-47-28-47-18 1-26 9-28 27l-52-2c7-38 36-58 82-57s74 22 75 68l1 82c-1 14 12 18 25 15v27c-30 8-71 5-69-32zm-48 3c29 0 43-24 42-57-32 0-66-3-65 30 0 17 8 27 23 27" id="m"/><path d="M25-224v-37h50v37H25zM25 0v-190h50V0H25" id="n"/><path d="M220-157c-53 9-28 100-34 157h-49v-107c1-27-5-49-29-50C55-147 81-57 75 0H25l-1-190h47c2 12-1 28 3 38 10-53 101-56 108 0 13-22 24-43 59-42 82 1 51 116 57 194h-49v-107c-1-25-5-48-29-50" id="o"/><g id="a"><use transform="matrix(0.05,0,0,0.05,0,0)" xlink:href="#g"/><use transform="matrix(0.05,0,0,0.05,12,0)" xlink:href="#h"/><use transform="matrix(0.05,0,0,0.05,22.950000000000003,0)" xlink:href="#i"/><use transform="matrix(0.05,0,0,0.05,33.900000000000006,0)" xlink:href="#j"/><use transform="matrix(0.05,0,0,0.05,39.85000000000001,0)" xlink:href="#k"/><use transform="matrix(0.05,0,0,0.05,52.80000000000001,0)" xlink:href="#l"/><use transform="matrix(0.05,0,0,0.05,57.80000000000001,0)" xlink:href="#m"/><use transform="matrix(0.05,0,0,0.05,67.80000000000001,0)" xlink:href="#n"/><use transform="matrix(0.05,0,0,0.05,72.80000000000001,0)" xlink:href="#o"/></g><path d="M115-159c48 0 72 30 72 78 0 54-30 85-83 85-64 0-91-50-91-122 0-98 58-163 141-120 15 8 21 24 27 44l-47 6c-5-31-48-31-61-4-7 14-11 33-11 60 9-17 28-27 53-27zM102-35c24 0 36-20 36-45s-11-43-37-43c-23 0-36 14-36 38 0 27 11 50 37 50" id="p"/><path d="M35-132v-50h50v50H35zM35 0v-49h50V0H35" id="q"/><g id="b"><use transform="matrix(0.05,0,0,0.05,0,0)" xlink:href="#k"/><use transform="matrix(0.05,0,0,0.05,12.950000000000001,0)" xlink:href="#p"/><use transform="matrix(0.05,0,0,0.05,22.950000000000003,0)" xlink:href="#q"/></g><path d="M127-220V0H93v-220H8v-28h204v28h-85" id="r"/><path d="M206 0h-36l-40-164L89 0H53L-1-190h32L70-26l43-164h34l41 164 42-164h31" id="s"/><path d="M100-194c63 0 86 42 84 106H49c0 40 14 67 53 68 26 1 43-12 49-29l28 8c-11 28-37 45-77 45C44 4 14-33 15-96c1-61 26-98 85-98zm52 81c6-60-76-77-97-28-3 7-6 17-6 28h103" id="t"/><path d="M59-47c-2 24 18 29 38 22v24C64 9 27 4 27-40v-127H5v-23h24l9-43h21v43h35v23H59v120" id="u"/><path d="M179-190L93 31C79 59 56 82 12 73V49c39 6 53-20 64-50L1-190h34L92-34l54-156h33" id="v"/><g id="c"><use transform="matrix(0.05,0,0,0.05,0,0)" xlink:href="#r"/><use transform="matrix(0.05,0,0,0.05,9.950000000000001,0)" xlink:href="#s"/><use transform="matrix(0.05,0,0,0.05,22.900000000000002,0)" xlink:href="#t"/><use transform="matrix(0.05,0,0,0.05,32.900000000000006,0)" xlink:href="#t"/><use transform="matrix(0.05,0,0,0.05,42.900000000000006,0)" xlink:href="#u"/><use transform="matrix(0.05,0,0,0.05,47.900000000000006,0)" xlink:href="#v"/></g><path d="M24-231v-30h32v30H24zM24 0v-190h32V0H24" id="w"/><path d="M135-143c-3-34-86-38-87 0 15 53 115 12 119 90S17 21 10-45l28-5c4 36 97 45 98 0-10-56-113-15-118-90-4-57 82-63 122-42 12 7 21 19 24 35" id="x"/><g id="d"><use transform="matrix(0.05,0,0,0.05,0,0)" xlink:href="#w"/><use transform="matrix(0.05,0,0,0.05,3.95,0)" xlink:href="#x"/></g><path d="M141-36C126-15 110 5 73 4 37 3 15-17 15-53c-1-64 63-63 125-63 3-35-9-54-41-54-24 1-41 7-42 31l-33-3c5-37 33-52 76-52 45 0 72 20 72 64v82c-1 20 7 32 28 27v20c-31 9-61-2-59-35zM48-53c0 20 12 33 32 33 41-3 63-29 60-74-43 2-92-5-92 41" id="y"/><path d="M117-194c89-4 53 116 60 194h-32v-121c0-31-8-49-39-48C34-167 62-67 57 0H25l-1-190h30c1 10-1 24 2 32 11-22 29-35 61-36" id="z"/><g id="e"><use transform="matrix(0.05,0,0,0.05,0,0)" xlink:href="#y"/><use transform="matrix(0.05,0,0,0.05,10,0)" xlink:href="#z"/></g><path d="M85-194c31 0 48 13 60 33l-1-100h32l1 261h-30c-2-10 0-23-3-31C134-8 116 4 85 4 32 4 16-35 15-94c0-66 23-100 70-100zm9 24c-40 0-46 34-46 75 0 40 6 74 45 74 42 0 51-32 51-76 0-42-9-74-50-73" id="A"/><path d="M84 4C-5 8 30-112 23-190h32v120c0 31 7 50 39 49 72-2 45-101 50-169h31l1 190h-30c-1-10 1-25-2-33-11 22-28 36-60 37" id="B"/><path d="M24 0v-261h32V0H24" id="C"/><g id="f"><use transform="matrix(0.05,0,0,0.05,0,0)" xlink:href="#y"/><use transform="matrix(0.05,0,0,0.05,10,0)" xlink:href="#A"/><use transform="matrix(0.05,0,0,0.05,20,0)" xlink:href="#B"/><use transform="matrix(0.05,0,0,0.05,30,0)" xlink:href="#C"/><use transform="matrix(0.05,0,0,0.05,33.95,0)" xlink:href="#u"/></g></defs></g></svg>