<svg xmlns="http://www.w3.org/2000/svg" xmlns:xlink="http://www.w3.org/1999/xlink" width="695" height="400"><g transform="translate(-160 0)"><path d="M0 0h1360v1760H0z" fill="#fff"/><path d="M360 20h205.83v98H360z" stroke="#000" stroke-width="2" fill="#fff"/><use xlink:href="#a" transform="matrix(1,0,0,1,365,25) translate(38.79999999999999 36.8)"/><use xlink:href="#b" transform="matrix(1,0,0,1,365,25) translate(75.3 36.8)"/><use xlink:href="#c" transform="matrix(1,0,0,1,365,25) translate(129.25 36.8)"/><use xlink:href="#d" transform="matrix(1,0,0,1,365,25) translate(38.099999999999994 58.4)"/><use xlink:href="#e" transform="matrix(1,0,0,1,365,25) translate(100 58.4)"/><use xlink:href="#f" transform="matrix(1,0,0,1,365,25) translate(134 58.4)"/><path d="M803 29c17.67 0 32 17.9 32 40s-14.33 40-32 40h-96c-17.67 0-32-17.9-32-40s14.33-40 32-40z" stroke="#000" stroke-width="2" fill="#fff"/><use xlink:href="#g" transform="matrix(1,0,0,1,680,34) translate(7.699999999999989 27.799999999999997)"/><use xlink:href="#h" transform="matrix(1,0,0,1,680,34) translate(85.39999999999999 27.799999999999997)"/><use xlink:href="#i" transform="matrix(1,0,0,1,680,34) translate(27.099999999999994 49.4)"/><use xlink:href="#j" transform="matrix(1,0,0,1,680,34) translate(45.05 49.4)"/><use xlink:href="#k" transform="matrix(1,0,0,1,680,34) translate(70.05 49.4)"/><path d="M180 280h260v100H180z" stroke="#000" stroke-width="2" fill="#a3d977"/><path d="M206 280v100m208-100v100" stroke="#000" stroke-width="2" fill="none"/><use xlink:href="#l" transform="matrix(1,0,0,1,212.5,280) translate(25.14999999999999 32)"/><use xlink:href="#m" transform="matrix(1,0,0,1,212.5,280) translate(110 32)"/><use xlink:href="#n" transform="matrix(1,0,0,1,212.5,280) translate(159.85000000000002 32)"/><use xlink:href="#o" transform="matrix(1,0,0,1,212.5,280) translate(10.625 53.6)"/><use xlink:href="#i" transform="matrix(1,0,0,1,212.5,280) translate(67.575 53.6)"/><use xlink:href="#p" transform="matrix(1,0,0,1,212.5,280) translate(85.525 53.6)"/><use xlink:href="#q" transform="matrix(1,0,0,1,212.5,280) translate(100.525 53.6)"/><use xlink:href="#r" transform="matrix(1,0,0,1,212.5,280) translate(135.425 53.6)"/><use xlink:href="#s" transform="matrix(1,0,0,1,212.5,280) translate(175.425 53.6)"/><use xlink:href="#e" transform="matrix(1,0,0,1,212.5,280) translate(71.525 75.2)"/><use xlink:href="#t" transform="matrix(1,0,0,1,212.5,280) translate(105.525 75.2)"/><path d="M462.92 118l-.06 2.64-.16 2.54-.26 2.45-.35 2.38-.45 2.32-.53 2.27-.62 2.22-.72 2.2-.8 2.2-.93 2.17-1.02 2.16-1.15 2.2-1.28 2.2-1.43 2.26-1.6 2.3-1.8 2.36-2 2.44-2.3 2.55-2.63 2.68-3.04 2.85-3.56 3.08-4.27 3.38-5.28 3.82-6.86 4.54-9.94 6-56.83 31.56-6.85 4.54-5.27 3.82-4.27 3.38-3.56 3.08-3.04 2.85-2.63 2.68-2.3 2.55-2.02 2.44-1.8 2.36-1.6 2.3-1.42 2.25-1.26 2.2-1.15 2.2-1.04 2.18-.9 2.2-.82 2.18-.72 2.2-.62 2.23-.54 2.28-.44 2.3-.35 2.4-.26 2.44-.15 2.54L310 280" stroke="#000" stroke-width="2" fill="none"/><path d="M463.9 118.13l-1-.13h1.02zM316.38 266.42L310 280l-2.82-14.73z"/><path d="M317.87 265.6L311.1 280h-2.12l-3.04-15.9zm-7.47 11.2l4.5-9.56-6.48-.8z"/><path d="M565.83 69H674" stroke="#000" stroke-width="2" fill="none"/><path d="M565.83 70v-2zM674 69l-14.27 4.64v-9.28z"/><path d="M675.04 68.3l-.04.7.03.72-16.3 5.3V62.98zm-14.3 3.96L670.75 69l-10.03-3.26z"/><defs><path d="M136-208V0H84v-208H4v-40h212v40h-80" id="u"/><path d="M110-194c64 0 96 36 96 99 0 64-35 99-97 99-61 0-95-36-95-99 0-62 34-99 96-99zm-1 164c35 0 45-28 45-65 0-40-10-65-43-65-34 0-45 26-45 65 0 36 10 65 43 65" id="v"/><path d="M135-194c53 0 70 44 70 98 0 56-19 98-73 100-31 1-45-17-59-34 3 33 2 69 2 105H25l-1-265h48c2 10 0 23 3 31 11-24 29-35 60-35zM114-30c33 0 39-31 40-66 0-38-9-64-40-64-56 0-55 130 0 130" id="w"/><g id="a"><use transform="matrix(0.05,0,0,0.05,0,0)" xlink:href="#u"/><use transform="matrix(0.05,0,0,0.05,9.600000000000001,0)" xlink:href="#v"/><use transform="matrix(0.05,0,0,0.05,20.550000000000004,0)" xlink:href="#w"/></g><path d="M67-125c0 53 21 87 73 88 37 1 54-22 65-47l45 17C233-25 199 4 140 4 58 4 20-42 15-125 8-235 124-281 211-232c18 10 29 29 36 50l-46 12c-8-25-30-41-62-41-52 0-71 34-72 86" id="x"/><path d="M25 0v-261h50V0H25" id="y"/><path d="M133-34C117-15 103 5 69 4 32 3 11-16 11-54c-1-60 55-63 116-61 1-26-3-47-28-47-18 1-26 9-28 27l-52-2c7-38 36-58 82-57s74 22 75 68l1 82c-1 14 12 18 25 15v27c-30 8-71 5-69-32zm-48 3c29 0 43-24 42-57-32 0-66-3-65 30 0 17 8 27 23 27" id="z"/><path d="M25-224v-37h50v37H25zM25 0v-190h50V0H25" id="A"/><path d="M220-157c-53 9-28 100-34 157h-49v-107c1-27-5-49-29-50C55-147 81-57 75 0H25l-1-190h47c2 12-1 28 3 38 10-53 101-56 108 0 13-22 24-43 59-42 82 1 51 116 57 194h-49v-107c-1-25-5-48-29-50" id="B"/><g id="b"><use transform="matrix(0.05,0,0,0.05,0,0)" xlink:href="#x"/><use transform="matrix(0.05,0,0,0.05,12.950000000000001,0)" xlink:href="#y"/><use transform="matrix(0.05,0,0,0.05,17.950000000000003,0)" xlink:href="#z"/><use transform="matrix(0.05,0,0,0.05,27.950000000000003,0)" xlink:href="#A"/><use transform="matrix(0.05,0,0,0.05,32.95,0)" xlink:href="#B"/></g><path d="M23 0v-37h61v-169l-59 37v-38l62-41h46v211h57V0H23" id="C"/><path d="M33-154v-36h34v36H33zM33 0v-36h34V0H33" id="D"/><g id="c"><use transform="matrix(0.05,0,0,0.05,0,0)" xlink:href="#x"/><use transform="matrix(0.05,0,0,0.05,12.950000000000001,0)" xlink:href="#C"/><use transform="matrix(0.05,0,0,0.05,22.950000000000003,0)" xlink:href="#D"/></g><path d="M127-220V0H93v-220H8v-28h204v28h-85" id="E"/><path d="M206 0h-36l-40-164L89 0H53L-1-190h32L70-26l43-164h34l41 164 42-164h31" id="F"/><path d="M100-194c63 0 86 42 84 106H49c0 40 14 67 53 68 26 1 43-12 49-29l28 8c-11 28-37 45-77 45C44 4 14-33 15-96c1-61 26-98 85-98zm52 81c6-60-76-77-97-28-3 7-6 17-6 28h103" id="G"/><path d="M59-47c-2 24 18 29 38 22v24C64 9 27 4 27-40v-127H5v-23h24l9-43h21v43h35v23H59v120" id="H"/><path d="M179-190L93 31C79 59 56 82 12 73V49c39 6 53-20 64-50L1-190h34L92-34l54-156h33" id="I"/><g id="d"><use transform="matrix(0.05,0,0,0.05,0,0)" xlink:href="#E"/><use transform="matrix(0.05,0,0,0.05,9.950000000000001,0)" xlink:href="#F"/><use transform="matrix(0.05,0,0,0.05,22.900000000000002,0)" xlink:href="#G"/><use transform="matrix(0.05,0,0,0.05,32.900000000000006,0)" xlink:href="#G"/><use transform="matrix(0.05,0,0,0.05,42.900000000000006,0)" xlink:href="#H"/><use transform="matrix(0.05,0,0,0.05,47.900000000000006,0)" xlink:href="#I"/></g><path d="M96-169c-40 0-48 33-48 73s9 75 48 75c24 0 41-14 43-38l32 2c-6 37-31 61-74 61-59 0-76-41-82-99-10-93 101-131 147-64 4 7 5 14 7 22l-32 3c-4-21-16-35-41-35" id="J"/><path d="M141-36C126-15 110 5 73 4 37 3 15-17 15-53c-1-64 63-63 125-63 3-35-9-54-41-54-24 1-41 7-42 31l-33-3c5-37 33-52 76-52 45 0 72 20 72 64v82c-1 20 7 32 28 27v20c-31 9-61-2-59-35zM48-53c0 20 12 33 32 33 41-3 63-29 60-74-43 2-92-5-92 41" id="K"/><path d="M117-194c89-4 53 116 60 194h-32v-121c0-31-8-49-39-48C34-167 62-67 57 0H25l-1-190h30c1 10-1 24 2 32 11-22 29-35 61-36" id="L"/><g id="e"><use transform="matrix(0.05,0,0,0.05,0,0)" xlink:href="#J"/><use transform="matrix(0.05,0,0,0.05,9,0)" xlink:href="#K"/><use transform="matrix(0.05,0,0,0.05,19,0)" xlink:href="#L"/></g><path d="M63-220v92h138v28H63V0H30v-248h175v28H63" id="M"/><path d="M24 0v-261h32V0H24" id="N"/><g id="f"><use transform="matrix(0.05,0,0,0.05,0,0)" xlink:href="#M"/><use transform="matrix(0.05,0,0,0.05,10.950000000000001,0)" xlink:href="#N"/><use transform="matrix(0.05,0,0,0.05,14.9,0)" xlink:href="#I"/></g><path d="M135-194c87-1 58 113 63 194h-50c-7-57 23-157-34-157-59 0-34 97-39 157H25l-1-190h47c2 12-1 28 3 38 12-26 28-41 61-42" id="O"/><path d="M115-3C79 11 28 4 28-45v-112H4v-33h27l15-45h31v45h36v33H77v99c-1 23 16 31 38 25v30" id="P"/><path d="M185-48c-13 30-37 53-82 52C43 2 14-33 14-96s30-98 90-98c62 0 83 45 84 108H66c0 31 8 55 39 56 18 0 30-7 34-22zm-45-69c5-46-57-63-70-21-2 6-4 13-4 21h74" id="Q"/><path d="M144 0l-44-69L55 0H2l70-98-66-92h53l41 62 40-62h54l-67 91 71 99h-54" id="R"/><path d="M35-132v-50h50v50H35zM35 0v-49h50V0H35" id="S"/><g id="g"><use transform="matrix(0.05,0,0,0.05,0,0)" xlink:href="#x"/><use transform="matrix(0.05,0,0,0.05,12.950000000000001,0)" xlink:href="#v"/><use transform="matrix(0.05,0,0,0.05,23.900000000000002,0)" xlink:href="#O"/><use transform="matrix(0.05,0,0,0.05,34.85,0)" xlink:href="#P"/><use transform="matrix(0.05,0,0,0.05,40.800000000000004,0)" xlink:href="#Q"/><use transform="matrix(0.05,0,0,0.05,50.800000000000004,0)" xlink:href="#R"/><use transform="matrix(0.05,0,0,0.05,60.800000000000004,0)" xlink:href="#P"/><use transform="matrix(0.05,0,0,0.05,66.75,0)" xlink:href="#S"/></g><g id="h"><use transform="matrix(0.05,0,0,0.05,0,0)" xlink:href="#E"/><use transform="matrix(0.05,0,0,0.05,9.950000000000001,0)" xlink:href="#F"/><use transform="matrix(0.05,0,0,0.05,22.900000000000002,0)" xlink:href="#G"/><use transform="matrix(0.05,0,0,0.05,32.900000000000006,0)" xlink:href="#G"/><use transform="matrix(0.05,0,0,0.05,42.900000000000006,0)" xlink:href="#H"/><use transform="matrix(0.05,0,0,0.05,47.900000000000006,0)" xlink:href="#I"/></g><path d="M24-231v-30h32v30H24zM24 0v-190h32V0H24" id="T"/><path d="M135-143c-3-34-86-38-87 0 15 53 115 12 119 90S17 21 10-45l28-5c4 36 97 45 98 0-10-56-113-15-118-90-4-57 82-63 122-42 12 7 21 19 24 35" id="U"/><g id="i"><use transform="matrix(0.05,0,0,0.05,0,0)" xlink:href="#T"/><use transform="matrix(0.05,0,0,0.05,3.95,0)" xlink:href="#U"/></g><g id="j"><use transform="matrix(0.05,0,0,0.05,0,0)" xlink:href="#K"/><use transform="matrix(0.05,0,0,0.05,10,0)" xlink:href="#L"/></g><path d="M210-169c-67 3-38 105-44 169h-31v-121c0-29-5-50-35-48C34-165 62-65 56 0H25l-1-190h30c1 10-1 24 2 32 10-44 99-50 107 0 11-21 27-35 58-36 85-2 47 119 55 194h-31v-121c0-29-5-49-35-48" id="V"/><g id="k"><use transform="matrix(0.05,0,0,0.05,0,0)" xlink:href="#K"/><use transform="matrix(0.05,0,0,0.05,10,0)" xlink:href="#L"/><use transform="matrix(0.05,0,0,0.05,20,0)" xlink:href="#T"/><use transform="matrix(0.05,0,0,0.05,23.95,0)" xlink:href="#V"/><use transform="matrix(0.05,0,0,0.05,38.9,0)" xlink:href="#K"/><use transform="matrix(0.05,0,0,0.05,48.9,0)" xlink:href="#N"/></g><path d="M24 0v-248h52V0H24" id="W"/><path d="M121-226c-27-7-43 5-38 36h38v33H83V0H34v-157H6v-33h28c-9-59 32-81 87-68v32" id="X"/><path d="M135-150c-39-12-60 13-60 57V0H25l-1-190h47c2 13-1 29 3 40 6-28 27-53 61-41v41" id="Y"/><path d="M190-63c-7 42-38 67-86 67-59 0-84-38-90-98-12-110 154-137 174-36l-49 2c-2-19-15-32-35-32-30 0-35 28-38 64-6 74 65 87 74 30" id="Z"/><g id="l"><use transform="matrix(0.05,0,0,0.05,0,0)" xlink:href="#W"/><use transform="matrix(0.05,0,0,0.05,5,0)" xlink:href="#O"/><use transform="matrix(0.05,0,0,0.05,15.950000000000001,0)" xlink:href="#X"/><use transform="matrix(0.05,0,0,0.05,21.900000000000002,0)" xlink:href="#Q"/><use transform="matrix(0.05,0,0,0.05,31.900000000000002,0)" xlink:href="#Y"/><use transform="matrix(0.05,0,0,0.05,38.900000000000006,0)" xlink:href="#Q"/><use transform="matrix(0.05,0,0,0.05,48.900000000000006,0)" xlink:href="#O"/><use transform="matrix(0.05,0,0,0.05,59.85,0)" xlink:href="#Z"/><use transform="matrix(0.05,0,0,0.05,69.85000000000001,0)" xlink:href="#Q"/></g><path d="M240-174c0 40-23 61-54 70L253 0h-59l-57-94H76V0H24v-248c93 4 217-23 216 74zM76-134c48-2 112 12 112-38 0-48-66-32-112-35v73" id="aa"/><path d="M85 4C-2 5 27-109 22-190h50c7 57-23 150 33 157 60-5 35-97 40-157h50l1 190h-47c-2-12 1-28-3-38-12 25-28 42-61 42" id="ab"/><g id="m"><use transform="matrix(0.05,0,0,0.05,0,0)" xlink:href="#aa"/><use transform="matrix(0.05,0,0,0.05,12.950000000000001,0)" xlink:href="#ab"/><use transform="matrix(0.05,0,0,0.05,23.900000000000002,0)" xlink:href="#y"/><use transform="matrix(0.05,0,0,0.05,28.900000000000002,0)" xlink:href="#Q"/><use transform="matrix(0.05,0,0,0.05,38.900000000000006,0)" xlink:href="#S"/></g><path d="M33 0v-248h34V0H33" id="ac"/><path d="M101-234c-31-9-42 10-38 44h38v23H63V0H32v-167H5v-23h27c-7-52 17-82 69-68v24" id="ad"/><g id="n"><use transform="matrix(0.05,0,0,0.05,0,0)" xlink:href="#ac"/><use transform="matrix(0.05,0,0,0.05,5,0)" xlink:href="#ad"/></g><g id="o"><use transform="matrix(0.05,0,0,0.05,0,0)" xlink:href="#H"/><use transform="matrix(0.05,0,0,0.05,5,0)" xlink:href="#F"/><use transform="matrix(0.05,0,0,0.05,17.950000000000003,0)" xlink:href="#G"/><use transform="matrix(0.05,0,0,0.05,27.950000000000003,0)" xlink:href="#G"/><use transform="matrix(0.05,0,0,0.05,37.95,0)" xlink:href="#H"/><use transform="matrix(0.05,0,0,0.05,42.95,0)" xlink:href="#I"/></g><use transform="matrix(0.05,0,0,0.05,0,0)" xlink:href="#K" id="p"/><path d="M115-194c53 0 69 39 70 98 0 66-23 100-70 100C84 3 66-7 56-30L54 0H23l1-261h32v101c10-23 28-34 59-34zm-8 174c40 0 45-34 45-75 0-40-5-75-45-74-42 0-51 32-51 76 0 43 10 73 51 73" id="ae"/><path d="M114-163C36-179 61-72 57 0H25l-1-190h30c1 12-1 29 2 39 6-27 23-49 58-41v29" id="af"/><path d="M85-194c31 0 48 13 60 33l-1-100h32l1 261h-30c-2-10 0-23-3-31C134-8 116 4 85 4 32 4 16-35 15-94c0-66 23-100 70-100zm9 24c-40 0-46 34-46 75 0 40 6 74 45 74 42 0 51-32 51-76 0-42-9-74-50-73" id="ag"/><g id="q"><use transform="matrix(0.05,0,0,0.05,0,0)" xlink:href="#ae"/><use transform="matrix(0.05,0,0,0.05,10,0)" xlink:href="#T"/><use transform="matrix(0.05,0,0,0.05,13.949999999999998,0)" xlink:href="#af"/><use transform="matrix(0.05,0,0,0.05,19.9,0)" xlink:href="#ag"/></g><path d="M106-169C34-169 62-67 57 0H25v-261h32l-1 103c12-21 28-36 61-36 89 0 53 116 60 194h-32v-121c2-32-8-49-39-48" id="ah"/><g id="r"><use transform="matrix(0.05,0,0,0.05,0,0)" xlink:href="#H"/><use transform="matrix(0.05,0,0,0.05,5,0)" xlink:href="#ah"/><use transform="matrix(0.05,0,0,0.05,15,0)" xlink:href="#G"/><use transform="matrix(0.05,0,0,0.05,25,0)" xlink:href="#L"/></g><g id="s"><use transform="matrix(0.05,0,0,0.05,0,0)" xlink:href="#T"/><use transform="matrix(0.05,0,0,0.05,3.95,0)" xlink:href="#H"/></g><g id="t"><use transform="matrix(0.05,0,0,0.05,0,0)" xlink:href="#ad"/><use transform="matrix(0.05,0,0,0.05,5,0)" xlink:href="#N"/><use transform="matrix(0.05,0,0,0.05,8.95,0)" xlink:href="#I"/></g></defs></g></svg>