<svg xmlns="http://www.w3.org/2000/svg" xmlns:xlink="http://www.w3.org/1999/xlink" xmlns:lucid="lucid" width="2594.51" height="1829.02"><g transform="translate(0 0)" lucid:page-tab-id="0_0"><path d="M0 0h2594.5v1829.02H0z" fill="#fff"/><path d="M1351.5 672.58h200l20 20v80h-220z" stroke="#d9be60" stroke-width="2" fill="#ffdf71"/><path d="M1551.5 672.58l20 20h-20z" fill="#d9be60"/><use xlink:href="#a" transform="matrix(1,0,0,1,1356.5,677.5848830190944) translate(22.69999999999999 37.8)"/><use xlink:href="#b" transform="matrix(1,0,0,1,1356.5,677.5848830190944) translate(99.45 37.8)"/><use xlink:href="#c" transform="matrix(1,0,0,1,1356.5,677.5848830190944) translate(132.4 37.8)"/><use xlink:href="#d" transform="matrix(1,0,0,1,1356.5,677.5848830190944) translate(24.599999999999994 59.4)"/><use xlink:href="#e" transform="matrix(1,0,0,1,1356.5,677.5848830190944) translate(86.5 59.4)"/><use xlink:href="#f" transform="matrix(1,0,0,1,1356.5,677.5848830190944) translate(104.45 59.4)"/><use xlink:href="#g" transform="matrix(1,0,0,1,1356.5,677.5848830190944) translate(119.45 59.4)"/><path d="M1180 292.58h200l20 20v80h-220z" stroke="#d9be60" stroke-width="2" fill="#ffdf71"/><path d="M1380 292.58l20 20h-20z" fill="#d9be60"/><use xlink:href="#a" transform="matrix(1,0,0,1,1185,297.5848830190943) translate(22.69999999999999 37.8)"/><use xlink:href="#h" transform="matrix(1,0,0,1,1185,297.5848830190943) translate(99.45 37.8)"/><use xlink:href="#c" transform="matrix(1,0,0,1,1185,297.5848830190943) translate(132.4 37.8)"/><use xlink:href="#d" transform="matrix(1,0,0,1,1185,297.5848830190943) translate(27.625 59.4)"/><use xlink:href="#e" transform="matrix(1,0,0,1,1185,297.5848830190943) translate(89.525 59.4)"/><use xlink:href="#i" transform="matrix(1,0,0,1,1185,297.5848830190943) translate(107.47500000000001 59.4)"/><use xlink:href="#f" transform="matrix(1,0,0,1,1185,297.5848830190943) translate(137.47500000000002 59.4)"/><use xlink:href="#j" transform="matrix(1,0,0,1,1185,297.5848830190943) translate(152.47500000000002 59.4)"/><path d="M980 32.58h205.83v98H980z" stroke="#000" stroke-width="2" fill="#fff"/><use xlink:href="#k" transform="matrix(1,0,0,1,984.9999999999999,37.584883019094335) translate(38.79999999999999 36.8)"/><use xlink:href="#l" transform="matrix(1,0,0,1,984.9999999999999,37.584883019094335) translate(75.3 36.8)"/><use xlink:href="#m" transform="matrix(1,0,0,1,984.9999999999999,37.584883019094335) translate(129.25 36.8)"/><use xlink:href="#n" transform="matrix(1,0,0,1,984.9999999999999,37.584883019094335) translate(38.099999999999994 58.4)"/><use xlink:href="#o" transform="matrix(1,0,0,1,984.9999999999999,37.584883019094335) translate(100 58.4)"/><use xlink:href="#p" transform="matrix(1,0,0,1,984.9999999999999,37.584883019094335) translate(134 58.4)"/><path d="M1342.92 570.6l.05 2.08.14 2 .25 1.9.32 1.83.4 1.8.48 1.74.57 1.72.65 1.7.75 1.7.85 1.68.97 1.7 1.1 1.75 1.25 1.77 1.43 1.85 1.66 1.92 1.93 2.05 2.3 2.2 2.83 2.42 3.55 2.78 4.82 3.38 7.86 4.97 28.6 17.04 4.83 3.37 3.56 2.78 2.8 2.43 2.32 2.2 1.95 2.05 1.66 1.92 1.43 1.85 1.25 1.78 1.1 1.74.97 1.7.85 1.7.75 1.7.65 1.7.57 1.7.48 1.75.4 1.8.32 1.83.23 1.9.15 2 .05 2.08" stroke="#000" stroke-width="2" fill="none"/><path d="M1341.93 570.77l-.03-.2h1.02zM1432 672.58l-7.23-13.14 9.1-1.74z"/><path d="M1433 672.58h-2.14l-7.63-13.86 11.8-2.26zm-6.7-12.4l5.1 9.23 1.3-10.46z"/><path d="M1082.92 130.6l.04 1.93.12 1.9.2 1.83.26 1.8.34 1.78.4 1.76.5 1.73.56 1.74.64 1.73.73 1.74.83 1.75.93 1.76 1.04 1.8 1.16 1.83 1.3 1.87 1.48 1.94 1.67 2.02 1.9 2.1 2.14 2.18 2.46 2.3 2.85 2.47 3.34 2.64 3.94 2.88 4.77 3.16 5.9 3.56 7.55 4.14 10.3 5.1 16.3 7.22 75.45 30.87 10.3 5.1 7.55 4.14 5.9 3.56 4.76 3.16 3.96 2.86 3.34 2.64 2.85 2.46 2.46 2.3 2.16 2.2 1.88 2.1 1.67 2 1.48 1.94 1.3 1.88 1.17 1.84 1.04 1.8.92 1.76.82 1.75.73 1.74.64 1.73.58 1.73.48 1.74.4 1.76.35 1.78.28 1.8.2 1.85.1 1.9.05 1.93" stroke="#000" stroke-width="2" fill="none"/><path d="M1081.93 130.76l-.03-.18h1.03zM1289.33 291.58l-6.96-13.28 9.14-1.56z"/><path d="M1290.2 292.58h-1.47l-7.9-15.04 11.87-2zm-6.3-13.53l4.9 9.34 1.52-10.44z"/><path d="M1380 832.58h205.83v98H1380z" stroke="#000" stroke-width="2" fill="#fff"/><use xlink:href="#q" transform="matrix(1,0,0,1,1385,837.5848830190944) translate(9.150000000000006 26)"/><use xlink:href="#r" transform="matrix(1,0,0,1,1385,837.5848830190944) translate(63.10000000000001 26)"/><use xlink:href="#s" transform="matrix(1,0,0,1,1385,837.5848830190944) translate(97.00000000000001 26)"/><use xlink:href="#t" transform="matrix(1,0,0,1,1385,837.5848830190944) translate(158.9 26)"/><use xlink:href="#u" transform="matrix(1,0,0,1,1385,837.5848830190944) translate(176.85 26)"/><use xlink:href="#v" transform="matrix(1,0,0,1,1385,837.5848830190944) translate(40.074999999999996 47.6)"/><use xlink:href="#w" transform="matrix(1,0,0,1,1385,837.5848830190944) translate(110.92500000000001 47.6)"/><use xlink:href="#x" transform="matrix(1,0,0,1,1385,837.5848830190944) translate(130.925 47.6)"/><use xlink:href="#y" transform="matrix(1,0,0,1,1385,837.5848830190944) translate(22.125 69.2)"/><use xlink:href="#z" transform="matrix(1,0,0,1,1385,837.5848830190944) translate(69.025 69.2)"/><use xlink:href="#A" transform="matrix(1,0,0,1,1385,837.5848830190944) translate(112.925 69.2)"/><path d="M700 632.58h205.83v98H700z" stroke="#000" stroke-width="2" fill="#fff"/><use xlink:href="#q" transform="matrix(1,0,0,1,705,637.5848830190944) translate(4.150000000000006 36.8)"/><use xlink:href="#r" transform="matrix(1,0,0,1,705,637.5848830190944) translate(58.10000000000001 36.8)"/><use xlink:href="#s" transform="matrix(1,0,0,1,705,637.5848830190944) translate(92.00000000000001 36.8)"/><use xlink:href="#t" transform="matrix(1,0,0,1,705,637.5848830190944) translate(153.9 36.8)"/><use xlink:href="#B" transform="matrix(1,0,0,1,705,637.5848830190944) translate(171.85 36.8)"/><use xlink:href="#C" transform="matrix(1,0,0,1,705,637.5848830190944) translate(78.525 58.4)"/><path d="M1240 472.58h205.83v98H1240z" stroke="#000" stroke-width="2" fill="#fff"/><use xlink:href="#q" transform="matrix(1,0,0,1,1245,477.5848830190944) translate(56.574999999999996 36.8)"/><use xlink:href="#D" transform="matrix(1,0,0,1,1245,477.5848830190944) translate(110.525 36.8)"/><use xlink:href="#E" transform="matrix(1,0,0,1,1245,477.5848830190944) translate(4.674999999999997 58.4)"/><use xlink:href="#t" transform="matrix(1,0,0,1,1245,477.5848830190944) translate(66.575 58.4)"/><use xlink:href="#F" transform="matrix(1,0,0,1,1245,477.5848830190944) translate(84.525 58.4)"/><use xlink:href="#G" transform="matrix(1,0,0,1,1245,477.5848830190944) translate(99.525 58.4)"/><use xlink:href="#H" transform="matrix(1,0,0,1,1245,477.5848830190944) translate(161.425 58.4)"/><path d="M851.67 575.12l-.12 2.77-.33 2.47-.5 2.3-.68 2.14-.86 2.1-1.07 2.07-1.35 2.13-1.75 2.3-2.43 2.64-4.13 3.76-14.17 11.86-2.43 2.66-1.76 2.3-1.35 2.12-1.08 2.07-.86 2.1-.7 2.15-.5 2.28-.32 2.48-.1 2.78" stroke="#000" stroke-width="2" fill="none"/><path d="M852.63 575.38l-1.93-.52.2-.74h2.07zM823.35 620l-8.18 12.58-.77-14.98z"/><path d="M824.94 619.4l-8.58 13.18h-2.2l-.83-16.3zM816 629.46l5.76-8.84-6.3-1.7z"/><path d="M1290 392.6l.1 3.06.26 2.8.4 2.58.56 2.43.68 2.3.8 2.25.97 2.2 1.12 2.18 1.32 2.24 1.6 2.33 2 2.52 2.6 2.9 3.98 3.92 17.02 15.44 2.6 2.92 2 2.52 1.6 2.33 1.32 2.24 1.13 2.2.96 2.18.8 2.24.68 2.3.56 2.43.4 2.6.28 2.78.1 3.08" stroke="#000" stroke-width="2" fill="none"/><path d="M1289 392.76l-.02-.18h1.03zM1335.83 471.58l-7-13.26 9.14-1.58z"/><path d="M1336.7 472.58h-1.47l-7.92-15 11.86-2.06zm-6.34-13.5l4.92 9.32 1.5-10.44z"/><path d="M1461.5 772.6l.25 6.06.6 4.8.88 4.07 1.16 3.8 1.62 4.05 8.43 17.47 1.16 3.8.88 4.07.6 4.8.25 6.06" stroke="#000" stroke-width="2" fill="none"/><path d="M1460.5 772.7v-.12h1zM1477.33 831.58l-6.23-13.64 9.2-1.06z"/><path d="M1478.15 832.58h-1.46l-7.08-15.47 11.94-1.37zm-5.57-13.8l4.38 9.6 2.1-10.35z"/><path d="M803 730.58l28.5 19-28.5 19-28.5-19z" stroke="#000" stroke-width="2"/><path d="M1600 1092.58c0 44.2-35.82 80-80 80s-80-35.8-80-80c0-44.18 35.82-80 80-80s80 35.82 80 80z" stroke="#000" stroke-width="2" fill="#fff"/><use xlink:href="#I" transform="matrix(1,0,0,1,1445,1017.5836830310941) translate(33.05 57)"/><use xlink:href="#J" transform="matrix(1,0,0,1,1445,1017.5836830310941) translate(0.42499999999998295 78.60000000000001)"/><use xlink:href="#K" transform="matrix(1,0,0,1,1445,1017.5836830310941) translate(74.725 78.60000000000001)"/><use xlink:href="#L" transform="matrix(1,0,0,1,1445,1017.5836830310941) translate(116.625 78.60000000000001)"/><use xlink:href="#M" transform="matrix(1,0,0,1,1445,1017.5836830310941) translate(45.05 100.20000000000002)"/><path d="M1482.92 930.6l.1 3.88.33 3.47.48 3.15.63 2.9.77 2.75.92 2.63 1.08 2.57 1.27 2.58 1.52 2.66 1.9 2.9 2.58 3.45 5.3 6.2 8.6 9.87 2.6 3.46 1.9 2.9 1.52 2.66 1.27 2.58 1.07 2.57.9 2.62.78 2.74.63 2.9.5 3.16.3 3.47.12 3.88" stroke="#000" stroke-width="2" fill="none"/><path d="M1481.93 930.72l-.02-.14h1.03zM1520 1012.58l-6.45-13.54 9.2-1.2z"/><path d="M1521 1012.62l-1-.04h-.68l-.42.02-6.84-14.37 11.92-1.56zm-5.95-12.77l4.53 9.52 1.93-10.36z"/><path d="M1080 672.58h200l20 20v80h-220z" stroke="#d9be60" stroke-width="2" fill="#ffdf71"/><path d="M1280 672.58l20 20h-20z" fill="#d9be60"/><use xlink:href="#a" transform="matrix(1,0,0,1,1085,677.5848830190944) translate(22.69999999999999 37.8)"/><use xlink:href="#b" transform="matrix(1,0,0,1,1085,677.5848830190944) translate(99.45 37.8)"/><use xlink:href="#c" transform="matrix(1,0,0,1,1085,677.5848830190944) translate(132.4 37.8)"/><use xlink:href="#d" transform="matrix(1,0,0,1,1085,677.5848830190944) translate(13.599999999999994 59.4)"/><use xlink:href="#e" transform="matrix(1,0,0,1,1085,677.5848830190944) translate(75.5 59.4)"/><use xlink:href="#N" transform="matrix(1,0,0,1,1085,677.5848830190944) translate(93.45 59.4)"/><path d="M1342.92 570.6l-.03 1.44-.1 1.4-.16 1.36-.2 1.33-.26 1.3-.3 1.3-.38 1.26-.43 1.25-.48 1.25-.57 1.26-.62 1.27-.7 1.28-.78 1.3-.9 1.35-1 1.36-1.12 1.42-1.28 1.47-1.47 1.53-1.7 1.63-1.96 1.73-2.34 1.86-2.78 2.05-3.44 2.32-4.38 2.67-6 3.28-9.75 4.82-38.4 17.8-6 3.28-4.4 2.67-3.42 2.3-2.8 2.06-2.3 1.88-1.98 1.73-1.7 1.64-1.46 1.54-1.3 1.46-1.12 1.42-1 1.36-.88 1.34-.8 1.3-.7 1.28-.62 1.27-.55 1.27-.5 1.25-.4 1.26-.38 1.27-.33 1.28-.26 1.3-.2 1.34-.14 1.36-.1 1.4-.02 1.45" stroke="#000" stroke-width="2" fill="none"/><path d="M1343.9 570.82l-1-.24h1.05zM1235.9 659.8l-7.86 12.78-1.14-14.95z"/><path d="M1237.48 659.17l-8.27 13.4h-2.16l-1.24-16.24zm-8.68 10.27l5.53-8.98-6.33-1.54z"/><path d="M1072.17 832.58H1278v98h-205.83z" stroke="#000" stroke-width="2" fill="#fff"/><use xlink:href="#O" transform="matrix(1,0,0,1,1077.166666666667,837.5835704114133) translate(30.625 36.8)"/><use xlink:href="#s" transform="matrix(1,0,0,1,1077.166666666667,837.5835704114133) translate(90.525 36.8)"/><use xlink:href="#P" transform="matrix(1,0,0,1,1077.166666666667,837.5835704114133) translate(152.425 36.8)"/><use xlink:href="#Q" transform="matrix(1,0,0,1,1077.166666666667,837.5835704114133) translate(39.599999999999994 58.4)"/><use xlink:href="#R" transform="matrix(1,0,0,1,1077.166666666667,837.5835704114133) translate(122.45 58.4)"/><path d="M1190 772.6l-.2 4.52-.47 3.8-.7 3.3-.94 3.05-1.18 2.93-1.55 3.07-2.33 3.77-9.6 13.86-1.56 3.06-1.17 2.94-.92 3.04-.7 3.32-.5 3.8-.18 4.52" stroke="#000" stroke-width="2" fill="none"/><path d="M1191 772.74l-1-.16h1zM1174.8 818.22l-6.8 13.36-2.35-14.8z"/><path d="M1176.32 817.44l-7.7 15.14h-1.47l-2.7-17zm-7.8 10.95l4.77-9.4-6.45-1.03z"/><path d="M1160 1090.58c0 44.2-35.82 80-80 80s-80-35.8-80-80c0-44.18 35.82-80 80-80s80 35.82 80 80z" stroke="#000" stroke-width="2" fill="#fff"/><use xlink:href="#S" transform="matrix(1,0,0,1,1005,1015.5835704114133) translate(33.05 57)"/><use xlink:href="#T" transform="matrix(1,0,0,1,1005,1015.5835704114133) translate(24.549999999999997 78.60000000000001)"/><use xlink:href="#U" transform="matrix(1,0,0,1,1005,1015.5835704114133) translate(96.45 78.60000000000001)"/><use xlink:href="#V" transform="matrix(1,0,0,1,1005,1015.5835704114133) translate(51.55 100.20000000000002)"/><path d="M1175.08 930.58l-.03 1.3-.1 1.26-.16 1.2-.23 1.2-.28 1.16-.35 1.15-.4 1.14-.5 1.14-.54 1.16-.63 1.17-.74 1.2-.85 1.22-1 1.27-1.14 1.34-1.35 1.42-1.6 1.5-1.94 1.64-2.37 1.8-3.02 2.05-3.96 2.4-5.67 3.03-10.3 4.82-31.12 13.68-5.67 3.03-3.96 2.4-3 2.04-2.38 1.8-1.93 1.64-1.6 1.5-1.36 1.42-1.15 1.34-1 1.27-.85 1.23-.74 1.2-.62 1.17-.56 1.16-.48 1.14-.4 1.15-.35 1.15-.3 1.16-.2 1.2-.17 1.2-.1 1.25-.03 1.3" stroke="#000" stroke-width="2" fill="none"/><path d="M1176.03 930.9l-.95-.32h1.06zM1088.85 998.47l-8.85 12.1.04-15z"/><path d="M1090.47 997.95l-9.26 12.67-1.2-.04h-.68l-.32.02.05-16.4zm-9.46 9.56l6.23-8.5-6.2-2.04z"/><path d="M1113 1263.08c0 17.95-14.77 32.5-33 32.5s-33-14.55-33-32.5 14.77-32.5 33-32.5 33 14.55 33 32.5z" stroke="#000" stroke-width="2" fill="#ccc"/><path d="M1080 1170.58v59" stroke="#000" stroke-width="2" fill="none"/><path d="M1080 1170.58h1-2v-.03zM1080 1229.58l-4.64-14.26h9.28z"/><path d="M1080.7 1230.64l-.7-.06-.72.02-5.3-16.28h12.03zm-3.96-14.32l3.26 10.03 3.26-10.03z"/><path d="M1532 1214.82h170.36l20.3 20.3v81.23H1532z" stroke="#82b3ce" stroke-width="2" fill="#99d2f2"/><path d="M1702.36 1214.82l20.3 20.3h-20.3z" fill="#82b3ce"/><use xlink:href="#W" transform="matrix(1,0,0,1,1537,1219.8166316283477) translate(10.674999999999997 28)"/><use xlink:href="#X" transform="matrix(1,0,0,1,1537,1219.8166316283477) translate(115.425 28)"/><use xlink:href="#Y" transform="matrix(1,0,0,1,1537,1219.8166316283477) translate(21.57499999999999 49.6)"/><use xlink:href="#Z" transform="matrix(1,0,0,1,1537,1219.8166316283477) translate(51.57499999999999 49.6)"/><use xlink:href="#aa" transform="matrix(1,0,0,1,1537,1219.8166316283477) translate(93.475 49.6)"/><use xlink:href="#ab" transform="matrix(1,0,0,1,1537,1219.8166316283477) translate(127.475 49.6)"/><use xlink:href="#ac" transform="matrix(1,0,0,1,1537,1219.8166316283477) translate(36.55 71.2)"/><path d="M1560 1352.58h245v98h-245z" stroke="#000" stroke-width="2" fill="#fff"/><use xlink:href="#O" transform="matrix(1,0,0,1,1565,1357.583683031094) translate(2.674999999999997 26)"/><use xlink:href="#ad" transform="matrix(1,0,0,1,1565,1357.583683031094) translate(62.575 26)"/><use xlink:href="#K" transform="matrix(1,0,0,1,1565,1357.583683031094) translate(98.525 26)"/><use xlink:href="#ae" transform="matrix(1,0,0,1,1565,1357.583683031094) translate(140.425 26)"/><use xlink:href="#af" transform="matrix(1,0,0,1,1565,1357.583683031094) translate(203.325 26)"/><use xlink:href="#ag" transform="matrix(1,0,0,1,1565,1357.583683031094) translate(25.125 47.6)"/><use xlink:href="#ah" transform="matrix(1,0,0,1,1565,1357.583683031094) translate(50.125 47.6)"/><use xlink:href="#ai" transform="matrix(1,0,0,1,1565,1357.583683031094) translate(76.05 69.2)"/><use xlink:href="#aj" transform="matrix(1,0,0,1,1565,1357.583683031094) translate(130.95 69.2)"/><path d="M1780 1572.58c0 44.2-35.82 80-80 80s-80-35.8-80-80c0-44.18 35.82-80 80-80s80 35.82 80 80z" stroke="#000" stroke-width="2" fill="#fff"/><g><use xlink:href="#ak" transform="matrix(1,0,0,1,1624.9999999999998,1497.583683031094) translate(33.05 67.8)"/><use xlink:href="#al" transform="matrix(1,0,0,1,1624.9999999999998,1497.583683031094) translate(11.549999999999997 89.4)"/><use xlink:href="#am" transform="matrix(1,0,0,1,1624.9999999999998,1497.583683031094) translate(46.55 89.4)"/></g><path d="M1682.5 1450.58l.23 3.9.68 3.65 1.2 3.82 2.4 5.17 7.32 14.02 1.25 3.98.7 3.85.23 2.73" stroke="#000" stroke-width="2" fill="none"/><path d="M1681.53 1450.82l-.06-.24h1.03zM1696.5 1491.7l-8.4-12.42 8.9-2.57z"/><path d="M1697.47 1492.66l-1.5.06-9.48-14.02 11.54-3.34zm-7.78-12.8l5.9 8.73.35-10.55z"/><path d="M1627.33 1316.35l.07 1.2.2 1.1.32 1.1.46 1.07.64 1.12.88 1.2 1.23 1.3 1.83 1.55 2.98 1.97 6.43 3.23 19.7 8.77 2.97 1.97 1.83 1.55 1.23 1.3.88 1.2.64 1.1.46 1.1.32 1.08.2 1.1.07 1.2" stroke="#000" stroke-width="2" fill="none"/><path d="M1626.53 1316.94l-.44-.6h1.23zM1670.67 1351.58l-12.18-8.75 7.46-5.5z"/><path d="M1672.05 1352.58h-1.7l-13.57-9.74 9.7-7.12zm-11.86-9.76l8.55 6.16-3.3-10.02z"/><path d="M1520 1172.58v.32l.03.32.04.3.06.3.07.32.08.3.1.32.14.32.14.33.18.34.2.35.23.34.27.38.32.4.37.4.44.46.52.48.62.52.77.57.93.63 1.18.7 1.53.83 2 .95 2.76 1.14 4 1.4 6.38 1.9 13.65 3.3 39.26 8.7 6.38 1.9 4 1.4 2.75 1.15 2 .94 1.52.8 1.2.72.93.63.76.57.63.52.53.48.44.45.37.42.32.38.28.38.23.35.2.36.17.33.15.32.13.32.1.3.1.32.06.3.06.32.04.3.02.32v.32" stroke="#000" stroke-width="2" fill="none"/><path d="M1520 1172.58l-.7.7-.76-.74zM1619.67 1213.82l-13.36-6.84 6.58-6.54z"/><path d="M1621.3 1214.82h-1.87l-14.8-7.57 8.52-8.5zm-13.3-8.1l9.38 4.8-4.77-9.4z"/><path d="M1766 1727.08c0 17.95-14.77 32.5-33 32.5s-33-14.55-33-32.5 14.77-32.5 33-32.5 33 14.55 33 32.5z" stroke="#000" stroke-width="2" fill="#ccc"/><path d="M1700 1652.58l.16 2.76.45 2.45.72 2.3 1 2.26 1.46 2.4 2.22 2.86 5.74 5.62 7.8 7.52 2.42 3.08 1.6 2.66 1.14 2.56.82 2.64.48 2.6" stroke="#000" stroke-width="2" fill="none"/><path d="M1700 1652.58l-.94.35-.14-.38zM1726 1694.3l-10.28-10.92 8.38-3.96z"/><path d="M1727.12 1695.16l-1.04.14-.4.12-11.63-12.36 10.87-5.13zm-9.73-11.46l7.22 7.67-1.33-10.46z"/><path d="M1423 41.58c17.67 0 32 17.9 32 40s-14.33 40-32 40h-96c-17.67 0-32-17.9-32-40s14.33-40 32-40z" stroke="#000" stroke-width="2" fill="#fff"/><g><use xlink:href="#an" transform="matrix(1,0,0,1,1300,46.584883019094335) translate(7.699999999999989 27.799999999999997)"/><use xlink:href="#ao" transform="matrix(1,0,0,1,1300,46.584883019094335) translate(85.39999999999999 27.799999999999997)"/><use xlink:href="#ap" transform="matrix(1,0,0,1,1300,46.584883019094335) translate(27.099999999999994 49.4)"/><use xlink:href="#aq" transform="matrix(1,0,0,1,1300,46.584883019094335) translate(45.05 49.4)"/><use xlink:href="#ar" transform="matrix(1,0,0,1,1300,46.584883019094335) translate(70.05 49.4)"/></g><path d="M1185.83 81.58H1294" stroke="#000" stroke-width="2" fill="none"/><path d="M1185.83 82.58v-2zM1294 81.58l-14.27 4.64v-9.27z"/><path d="M1295.04 80.87l-.04.7.03.73-16.3 5.3V75.57zm-14.3 3.97l10.02-3.26-10.03-3.25z"/><path d="M800 292.58h260v100H800z" stroke="#000" stroke-width="2" fill="#a3d977"/><path d="M826 292.58v100m208-100v100" stroke="#000" stroke-width="2" fill="none"/><g><use xlink:href="#as" transform="matrix(1,0,0,1,832.5,292.5848830190943) translate(25.14999999999999 32)"/><use xlink:href="#at" transform="matrix(1,0,0,1,832.5,292.5848830190943) translate(110 32)"/><use xlink:href="#au" transform="matrix(1,0,0,1,832.5,292.5848830190943) translate(159.85000000000002 32)"/><use xlink:href="#av" transform="matrix(1,0,0,1,832.5,292.5848830190943) translate(10.625 53.6)"/><use xlink:href="#ap" transform="matrix(1,0,0,1,832.5,292.5848830190943) translate(67.575 53.6)"/><use xlink:href="#aw" transform="matrix(1,0,0,1,832.5,292.5848830190943) translate(85.525 53.6)"/><use xlink:href="#ax" transform="matrix(1,0,0,1,832.5,292.5848830190943) translate(100.525 53.6)"/><use xlink:href="#ay" transform="matrix(1,0,0,1,832.5,292.5848830190943) translate(135.425 53.6)"/><use xlink:href="#az" transform="matrix(1,0,0,1,832.5,292.5848830190943) translate(175.425 53.6)"/><use xlink:href="#o" transform="matrix(1,0,0,1,832.5,292.5848830190943) translate(71.525 75.2)"/><use xlink:href="#aA" transform="matrix(1,0,0,1,832.5,292.5848830190943) translate(105.525 75.2)"/></g><path d="M1082.92 130.6l-.06 2.63-.16 2.53-.26 2.45-.35 2.4-.45 2.3-.53 2.28-.62 2.23-.72 2.2-.8 2.2-.93 2.17-1.02 2.18-1.15 2.2-1.28 2.2-1.43 2.26-1.6 2.3-1.8 2.36-2 2.45-2.3 2.56-2.63 2.67-3.04 2.86-3.56 3.06-4.27 3.38-5.28 3.82-6.86 4.55-9.94 6-56.83 31.56-6.85 4.55-5.27 3.83-4.27 3.38-3.56 3.08-3.04 2.85-2.63 2.68-2.3 2.56-2.02 2.45-1.8 2.37-1.6 2.3-1.42 2.24-1.26 2.23-1.15 2.2-1.04 2.17-.9 2.18-.82 2.18-.72 2.2-.62 2.23-.54 2.26-.44 2.32-.35 2.38-.26 2.45-.15 2.54-.05 2.64" stroke="#000" stroke-width="2" fill="none"/><path d="M1083.9 130.7l-1-.12h1.02zM936.38 279L930 292.6l-2.82-14.73z"/><path d="M937.87 278.2l-6.77 14.38h-2.12l-3.04-15.9zm-7.47 11.17l4.5-9.54-6.48-.8z"/><path d="M1640 668.58h300v126h-300z" stroke="#000" stroke-width="2" fill="#a3d977"/><path d="M1670 668.58v126m240-126v126" stroke="#000" stroke-width="2" fill="none"/><g><use xlink:href="#as" transform="matrix(1,0,0,1,1677.5,668.5848830190944) translate(28.69999999999999 23.39999999999999)"/><use xlink:href="#at" transform="matrix(1,0,0,1,1677.5,668.5848830190944) translate(113.55 23.39999999999999)"/><use xlink:href="#aB" transform="matrix(1,0,0,1,1677.5,668.5848830190944) translate(163.4 23.39999999999999)"/><use xlink:href="#aC" transform="matrix(1,0,0,1,1677.5,668.5848830190944) translate(178.4 23.39999999999999)"/><use xlink:href="#aD" transform="matrix(1,0,0,1,1677.5,668.5848830190944) translate(28.025000000000006 44.99999999999999)"/><use xlink:href="#aE" transform="matrix(1,0,0,1,1677.5,668.5848830190944) translate(87.025 44.99999999999999)"/><use xlink:href="#aF" transform="matrix(1,0,0,1,1677.5,668.5848830190944) translate(122.025 44.99999999999999)"/><use xlink:href="#aG" transform="matrix(1,0,0,1,1677.5,668.5848830190944) translate(186.975 44.99999999999999)"/><use xlink:href="#aH" transform="matrix(1,0,0,1,1677.5,668.5848830190944) translate(0.6999999999999886 66.6)"/><use xlink:href="#ax" transform="matrix(1,0,0,1,1677.5,668.5848830190944) translate(62.599999999999994 66.6)"/><use xlink:href="#aI" transform="matrix(1,0,0,1,1677.5,668.5848830190944) translate(97.5 66.6)"/><use xlink:href="#aJ" transform="matrix(1,0,0,1,1677.5,668.5848830190944) translate(138.4 66.6)"/><use xlink:href="#aK" transform="matrix(1,0,0,1,1677.5,668.5848830190944) translate(185.3 66.6)"/><use xlink:href="#aL" transform="matrix(1,0,0,1,1677.5,668.5848830190944) translate(6.574999999999989 88.20000000000002)"/><use xlink:href="#aM" transform="matrix(1,0,0,1,1677.5,668.5848830190944) translate(51.57499999999999 88.20000000000002)"/><use xlink:href="#ay" transform="matrix(1,0,0,1,1677.5,668.5848830190944) translate(126.475 88.20000000000002)"/><use xlink:href="#aN" transform="matrix(1,0,0,1,1677.5,668.5848830190944) translate(166.475 88.20000000000002)"/><use xlink:href="#o" transform="matrix(1,0,0,1,1677.5,668.5848830190944) translate(86.525 109.80000000000001)"/><use xlink:href="#aA" transform="matrix(1,0,0,1,1677.5,668.5848830190944) translate(120.525 109.80000000000001)"/></g><path d="M1342.92 570.6v.32l.02.34.04.33.05.32.06.34.07.34.1.34.1.35.14.34.17.37.17.38.2.4.23.38.27.42.3.43.35.47.38.48.46.5.53.55.62.58.72.63.86.7 1.03.74 1.26.82 1.52.92 1.88 1.03 2.37 1.2 3.06 1.35 4.03 1.6 5.5 1.9 7.8 2.34 11.7 2.98 19.03 4 36.1 6 280.9 35.6 19.03 4 11.68 3 7.8 2.34 5.5 1.9 4.04 1.6 3.06 1.36 2.38 1.18 1.88 1.03 1.52.9 1.24.83 1.03.75.86.68.72.63.62.57.53.54.46.52.4.48.35.46.3.43.26.4.23.4.2.4.18.36.15.37.13.35.12.35.1.34.07.34.07.35.04.33.03.33.02.35v.33" stroke="#000" stroke-width="2" fill="none"/><path d="M1342.13 571.2l-.48-.62h1.27zM1790 668.58l-12.44-8.37 7.3-5.7z"/><path d="M1791.06 668.58h-2.85l-12.34-8.3 9.47-7.42zm-11.8-8.43l8.75 5.9-3.6-9.92z"/><path d="M1366 1090.58c0 44.2-35.82 80-80 80s-80-35.8-80-80c0-44.18 35.82-80 80-80s80 35.82 80 80z" stroke="#000" stroke-width="2" fill="#fff"/><g><use xlink:href="#aO" transform="matrix(1,0,0,1,1211,1015.5835704114133) translate(33.05 57)"/><use xlink:href="#aP" transform="matrix(1,0,0,1,1211,1015.5835704114133) translate(20.125 78.60000000000001)"/><use xlink:href="#aQ" transform="matrix(1,0,0,1,1211,1015.5835704114133) translate(72.975 78.60000000000001)"/><use xlink:href="#aR" transform="matrix(1,0,0,1,1211,1015.5835704114133) translate(38.05 100.20000000000002)"/></g><path d="M1319 1263.08c0 17.95-14.77 32.5-33 32.5s-33-14.55-33-32.5 14.77-32.5 33-32.5 33 14.55 33 32.5z" stroke="#000" stroke-width="2" fill="#ccc"/><path d="M1286 1170.58v59" stroke="#000" stroke-width="2" fill="none"/><path d="M1286 1170.58h1-2v-.03zM1286 1229.58l-4.64-14.26h9.28z"/><path d="M1286.7 1230.64l-.7-.06-.72.02-5.3-16.28h12.03zm-3.96-14.32l3.26 10.03 3.26-10.03z"/><path d="M1175.08 930.58l.02.97.07.93.1.9.14.9.2.9.22.87.26.87.3.87.36.86.4.88.46.9.52.9.6.94.65.95.76 1 .87 1.02 1 1.08 1.13 1.13 1.33 1.2 1.57 1.3 1.85 1.4 2.25 1.54 2.77 1.73 3.53 1.97 4.7 2.36 6.85 3.05 13.62 5.33 31.5 11.82 6.85 3.06 4.7 2.37 3.53 1.97 2.77 1.72 2.25 1.54 1.86 1.4 1.56 1.3 1.33 1.2 1.15 1.14 1 1.08.85 1.03.76 1 .68.94.6.92.5.9.46.9.4.88.36.88.3.87.27.87.22.88.17.88.14.9.12.9.06.94.02.96" stroke="#000" stroke-width="2" fill="none"/><path d="M1174.15 930.94l-.13-.36h1.07zM1286 1010.58l-9.34-11.73 8.68-3.25z"/><path d="M1287 1010.6l-1-.02h-.68l-.58.03-9.72-12.2 11.26-4.22zm-8.7-11.3l6.57 8.25-.47-10.53z"/><path d="M757 472.58h170.36l20.3 20.3v81.24H757z" stroke="#d97a6d" stroke-width="2" fill="#ff8f80"/><path d="M927.36 472.58l20.3 20.3h-20.3z" fill="#d97a6d"/><g><use xlink:href="#aS" transform="matrix(1,0,0,1,762,477.5848830190945) translate(18.19999999999999 38.8)"/><use xlink:href="#aT" transform="matrix(1,0,0,1,762,477.5848830190945) translate(107.89999999999999 38.8)"/><use xlink:href="#d" transform="matrix(1,0,0,1,762,477.5848830190945) translate(12.649999999999991 60.4)"/><use xlink:href="#e" transform="matrix(1,0,0,1,762,477.5848830190945) translate(74.55 60.4)"/><use xlink:href="#f" transform="matrix(1,0,0,1,762,477.5848830190945) translate(92.5 60.4)"/><use xlink:href="#aU" transform="matrix(1,0,0,1,762,477.5848830190945) translate(107.5 60.4)"/></g><path d="M930 392.6l-.07 2.14-.2 2.02-.3 1.92-.4 1.84-.53 1.8-.64 1.74-.76 1.74-.9 1.74-1.04 1.76-1.25 1.82-1.48 1.9-1.8 2-2.24 2.22-2.9 2.5-4.03 3.1-7.03 4.65-22.2 13.84-4.04 3.08-2.9 2.5-2.23 2.22-1.8 2.02-1.5 1.9-1.24 1.8-1.04 1.77-.9 1.74-.75 1.74-.63 1.76-.52 1.8-.42 1.83-.3 1.9-.2 2.03-.06 2.15" stroke="#000" stroke-width="2" fill="none"/><path d="M930.97 392.82l-.97-.24h1.03zM871.55 458.82l-7.88 12.76-1.13-14.95z"/><path d="M873.13 458.18l-8.9 14.4h-1.5l-1.3-17.25zm-8.7 10.26l5.55-8.97-6.34-1.55z"/><path d="M1823 865.08c0 17.95-14.77 32.5-33 32.5s-33-14.55-33-32.5c0-17.94 14.77-32.5 33-32.5s33 14.56 33 32.5z" stroke="#000" stroke-width="2" fill="#ccc"/><path d="M1790 794.6v36.98" stroke="#000" stroke-width="2" fill="none"/><path d="M1791 794.6h-2v-.02h2zM1790 831.58l-4.64-14.26h9.28z"/><path d="M1790.7 832.64l-.7-.06-.72.02-5.3-16.28h12.03zm-3.96-14.32l3.26 10.03 3.26-10.03z"/><defs><path d="M240-174c0 40-23 61-54 70L253 0h-59l-57-94H76V0H24v-248c93 4 217-23 216 74zM76-134c48-2 112 12 112-38 0-48-66-32-112-35v73" id="aV"/><path d="M185-48c-13 30-37 53-82 52C43 2 14-33 14-96s30-98 90-98c62 0 83 45 84 108H66c0 31 8 55 39 56 18 0 30-7 34-22zm-45-69c5-46-57-63-70-21-2 6-4 13-4 21h74" id="aW"/><path d="M135-194c52 0 70 43 70 98 0 56-19 99-73 100-30 1-46-15-58-35L72 0H24l1-261h50v104c11-23 29-37 60-37zM114-30c31 0 40-27 40-66 0-37-7-63-39-63s-41 28-41 65c0 36 8 64 40 64" id="aX"/><path d="M85 4C-2 5 27-109 22-190h50c7 57-23 150 33 157 60-5 35-97 40-157h50l1 190h-47c-2-12 1-28-3-38-12 25-28 42-61 42" id="aY"/><path d="M115-3C79 11 28 4 28-45v-112H4v-33h27l15-45h31v45h36v33H77v99c-1 23 16 31 38 25v30" id="aZ"/><path d="M133-34C117-15 103 5 69 4 32 3 11-16 11-54c-1-60 55-63 116-61 1-26-3-47-28-47-18 1-26 9-28 27l-52-2c7-38 36-58 82-57s74 22 75 68l1 82c-1 14 12 18 25 15v27c-30 8-71 5-69-32zm-48 3c29 0 43-24 42-57-32 0-66-3-65 30 0 17 8 27 23 27" id="ba"/><path d="M25 0v-261h50V0H25" id="bb"/><g id="a"><use transform="matrix(0.05,0,0,0.05,0,0)" xlink:href="#aV"/><use transform="matrix(0.05,0,0,0.05,12.950000000000001,0)" xlink:href="#aW"/><use transform="matrix(0.05,0,0,0.05,22.950000000000003,0)" xlink:href="#aX"/><use transform="matrix(0.05,0,0,0.05,33.900000000000006,0)" xlink:href="#aY"/><use transform="matrix(0.05,0,0,0.05,44.85000000000001,0)" xlink:href="#aZ"/><use transform="matrix(0.05,0,0,0.05,50.80000000000001,0)" xlink:href="#aZ"/><use transform="matrix(0.05,0,0,0.05,56.750000000000014,0)" xlink:href="#ba"/><use transform="matrix(0.05,0,0,0.05,66.75000000000001,0)" xlink:href="#bb"/></g><path d="M233-177c-1 41-23 64-60 70L243 0h-38l-65-103H63V0H30v-248c88 3 205-21 203 71zM63-129c60-2 137 13 137-47 0-61-80-42-137-45v92" id="bc"/><path d="M27 0v-27h64v-190l-56 39v-29l58-41h29v221h61V0H27" id="bd"/><path d="M33-154v-36h34v36H33zM33 0v-36h34V0H33" id="be"/><g id="b"><use transform="matrix(0.05,0,0,0.05,0,0)" xlink:href="#bc"/><use transform="matrix(0.05,0,0,0.05,12.950000000000001,0)" xlink:href="#bd"/><use transform="matrix(0.05,0,0,0.05,22.950000000000003,0)" xlink:href="#be"/></g><path d="M232-93c-1 65-40 97-104 97C67 4 28-28 28-90v-158h33c8 89-33 224 67 224 102 0 64-133 71-224h33v155" id="bf"/><path d="M117-194c89-4 53 116 60 194h-32v-121c0-31-8-49-39-48C34-167 62-67 57 0H25l-1-190h30c1 10-1 24 2 32 11-22 29-35 61-36" id="bg"/><path d="M24 0v-261h32V0H24" id="bh"/><path d="M100-194c63 0 86 42 84 106H49c0 40 14 67 53 68 26 1 43-12 49-29l28 8c-11 28-37 45-77 45C44 4 14-33 15-96c1-61 26-98 85-98zm52 81c6-60-76-77-97-28-3 7-6 17-6 28h103" id="bi"/><path d="M135-143c-3-34-86-38-87 0 15 53 115 12 119 90S17 21 10-45l28-5c4 36 97 45 98 0-10-56-113-15-118-90-4-57 82-63 122-42 12 7 21 19 24 35" id="bj"/><g id="c"><use transform="matrix(0.05,0,0,0.05,0,0)" xlink:href="#bf"/><use transform="matrix(0.05,0,0,0.05,12.950000000000001,0)" xlink:href="#bg"/><use transform="matrix(0.05,0,0,0.05,22.950000000000003,0)" xlink:href="#bh"/><use transform="matrix(0.05,0,0,0.05,26.900000000000002,0)" xlink:href="#bi"/><use transform="matrix(0.05,0,0,0.05,36.900000000000006,0)" xlink:href="#bj"/><use transform="matrix(0.05,0,0,0.05,45.900000000000006,0)" xlink:href="#bj"/></g><path d="M127-220V0H93v-220H8v-28h204v28h-85" id="bk"/><path d="M206 0h-36l-40-164L89 0H53L-1-190h32L70-26l43-164h34l41 164 42-164h31" id="bl"/><path d="M59-47c-2 24 18 29 38 22v24C64 9 27 4 27-40v-127H5v-23h24l9-43h21v43h35v23H59v120" id="bm"/><path d="M179-190L93 31C79 59 56 82 12 73V49c39 6 53-20 64-50L1-190h34L92-34l54-156h33" id="bn"/><g id="d"><use transform="matrix(0.05,0,0,0.05,0,0)" xlink:href="#bk"/><use transform="matrix(0.05,0,0,0.05,9.950000000000001,0)" xlink:href="#bl"/><use transform="matrix(0.05,0,0,0.05,22.900000000000002,0)" xlink:href="#bi"/><use transform="matrix(0.05,0,0,0.05,32.900000000000006,0)" xlink:href="#bi"/><use transform="matrix(0.05,0,0,0.05,42.900000000000006,0)" xlink:href="#bm"/><use transform="matrix(0.05,0,0,0.05,47.900000000000006,0)" xlink:href="#bn"/></g><path d="M24-231v-30h32v30H24zM24 0v-190h32V0H24" id="bo"/><g id="e"><use transform="matrix(0.05,0,0,0.05,0,0)" xlink:href="#bo"/><use transform="matrix(0.05,0,0,0.05,3.95,0)" xlink:href="#bj"/></g><path d="M141-36C126-15 110 5 73 4 37 3 15-17 15-53c-1-64 63-63 125-63 3-35-9-54-41-54-24 1-41 7-42 31l-33-3c5-37 33-52 76-52 45 0 72 20 72 64v82c-1 20 7 32 28 27v20c-31 9-61-2-59-35zM48-53c0 20 12 33 32 33 41-3 63-29 60-74-43 2-92-5-92 41" id="bp"/><use transform="matrix(0.05,0,0,0.05,0,0)" xlink:href="#bp" id="f"/><path d="M30-248c87 1 191-15 191 75 0 78-77 80-158 76V0H30v-248zm33 125c57 0 124 11 124-50 0-59-68-47-124-48v98" id="bq"/><path d="M177-190C167-65 218 103 67 71c-23-6-38-20-44-43l32-5c15 47 100 32 89-28v-30C133-14 115 1 83 1 29 1 15-40 15-95c0-56 16-97 71-98 29-1 48 16 59 35 1-10 0-23 2-32h30zM94-22c36 0 50-32 50-73 0-42-14-75-50-75-39 0-46 34-46 75s6 73 46 73" id="br"/><path d="M84 4C-5 8 30-112 23-190h32v120c0 31 7 50 39 49 72-2 45-101 50-169h31l1 190h-30c-1-10 1-25-2-33-11 22-28 36-60 37" id="bs"/><g id="g"><use transform="matrix(0.05,0,0,0.05,0,0)" xlink:href="#bq"/><use transform="matrix(0.05,0,0,0.05,12,0)" xlink:href="#bi"/><use transform="matrix(0.05,0,0,0.05,22,0)" xlink:href="#bg"/><use transform="matrix(0.05,0,0,0.05,32,0)" xlink:href="#br"/><use transform="matrix(0.05,0,0,0.05,42,0)" xlink:href="#bs"/><use transform="matrix(0.05,0,0,0.05,52,0)" xlink:href="#bo"/><use transform="matrix(0.05,0,0,0.05,55.95,0)" xlink:href="#bg"/></g><path d="M101-251c82-7 93 87 43 132L82-64C71-53 59-42 53-27h129V0H18c2-99 128-94 128-182 0-28-16-43-45-43s-46 15-49 41l-32-3c6-41 34-60 81-64" id="bt"/><g id="h"><use transform="matrix(0.05,0,0,0.05,0,0)" xlink:href="#bc"/><use transform="matrix(0.05,0,0,0.05,12.950000000000001,0)" xlink:href="#bt"/><use transform="matrix(0.05,0,0,0.05,22.950000000000003,0)" xlink:href="#be"/></g><path d="M100-194c62-1 85 37 85 99 1 63-27 99-86 99S16-35 15-95c0-66 28-99 85-99zM99-20c44 1 53-31 53-75 0-43-8-75-51-75s-53 32-53 75 10 74 51 75" id="bu"/><g id="i"><use transform="matrix(0.05,0,0,0.05,0,0)" xlink:href="#bg"/><use transform="matrix(0.05,0,0,0.05,10,0)" xlink:href="#bu"/><use transform="matrix(0.05,0,0,0.05,20,0)" xlink:href="#bm"/></g><path d="M115-194c53 0 69 39 70 98 0 66-23 100-70 100C84 3 66-7 56-30L54 0H23l1-261h32v101c10-23 28-34 59-34zm-8 174c40 0 45-34 45-75 0-40-5-75-45-74-42 0-51 32-51 76 0 43 10 73 51 73" id="bv"/><path d="M114-163C36-179 61-72 57 0H25l-1-190h30c1 12-1 29 2 39 6-27 23-49 58-41v29" id="bw"/><path d="M85-194c31 0 48 13 60 33l-1-100h32l1 261h-30c-2-10 0-23-3-31C134-8 116 4 85 4 32 4 16-35 15-94c0-66 23-100 70-100zm9 24c-40 0-46 34-46 75 0 40 6 74 45 74 42 0 51-32 51-76 0-42-9-74-50-73" id="bx"/><g id="j"><use transform="matrix(0.05,0,0,0.05,0,0)" xlink:href="#bv"/><use transform="matrix(0.05,0,0,0.05,10,0)" xlink:href="#bo"/><use transform="matrix(0.05,0,0,0.05,13.949999999999998,0)" xlink:href="#bw"/><use transform="matrix(0.05,0,0,0.05,19.9,0)" xlink:href="#bx"/></g><path d="M136-208V0H84v-208H4v-40h212v40h-80" id="by"/><path d="M110-194c64 0 96 36 96 99 0 64-35 99-97 99-61 0-95-36-95-99 0-62 34-99 96-99zm-1 164c35 0 45-28 45-65 0-40-10-65-43-65-34 0-45 26-45 65 0 36 10 65 43 65" id="bz"/><path d="M135-194c53 0 70 44 70 98 0 56-19 98-73 100-31 1-45-17-59-34 3 33 2 69 2 105H25l-1-265h48c2 10 0 23 3 31 11-24 29-35 60-35zM114-30c33 0 39-31 40-66 0-38-9-64-40-64-56 0-55 130 0 130" id="bA"/><g id="k"><use transform="matrix(0.05,0,0,0.05,0,0)" xlink:href="#by"/><use transform="matrix(0.05,0,0,0.05,9.600000000000001,0)" xlink:href="#bz"/><use transform="matrix(0.05,0,0,0.05,20.550000000000004,0)" xlink:href="#bA"/></g><path d="M67-125c0 53 21 87 73 88 37 1 54-22 65-47l45 17C233-25 199 4 140 4 58 4 20-42 15-125 8-235 124-281 211-232c18 10 29 29 36 50l-46 12c-8-25-30-41-62-41-52 0-71 34-72 86" id="bB"/><path d="M25-224v-37h50v37H25zM25 0v-190h50V0H25" id="bC"/><path d="M220-157c-53 9-28 100-34 157h-49v-107c1-27-5-49-29-50C55-147 81-57 75 0H25l-1-190h47c2 12-1 28 3 38 10-53 101-56 108 0 13-22 24-43 59-42 82 1 51 116 57 194h-49v-107c-1-25-5-48-29-50" id="bD"/><g id="l"><use transform="matrix(0.05,0,0,0.05,0,0)" xlink:href="#bB"/><use transform="matrix(0.05,0,0,0.05,12.950000000000001,0)" xlink:href="#bb"/><use transform="matrix(0.05,0,0,0.05,17.950000000000003,0)" xlink:href="#ba"/><use transform="matrix(0.05,0,0,0.05,27.950000000000003,0)" xlink:href="#bC"/><use transform="matrix(0.05,0,0,0.05,32.95,0)" xlink:href="#bD"/></g><path d="M23 0v-37h61v-169l-59 37v-38l62-41h46v211h57V0H23" id="bE"/><g id="m"><use transform="matrix(0.05,0,0,0.05,0,0)" xlink:href="#bB"/><use transform="matrix(0.05,0,0,0.05,12.950000000000001,0)" xlink:href="#bE"/><use transform="matrix(0.05,0,0,0.05,22.950000000000003,0)" xlink:href="#be"/></g><g id="n"><use transform="matrix(0.05,0,0,0.05,0,0)" xlink:href="#bk"/><use transform="matrix(0.05,0,0,0.05,9.950000000000001,0)" xlink:href="#bl"/><use transform="matrix(0.05,0,0,0.05,22.900000000000002,0)" xlink:href="#bi"/><use transform="matrix(0.05,0,0,0.05,32.900000000000006,0)" xlink:href="#bi"/><use transform="matrix(0.05,0,0,0.05,42.900000000000006,0)" xlink:href="#bm"/><use transform="matrix(0.05,0,0,0.05,47.900000000000006,0)" xlink:href="#bn"/></g><path d="M96-169c-40 0-48 33-48 73s9 75 48 75c24 0 41-14 43-38l32 2c-6 37-31 61-74 61-59 0-76-41-82-99-10-93 101-131 147-64 4 7 5 14 7 22l-32 3c-4-21-16-35-41-35" id="bF"/><g id="o"><use transform="matrix(0.05,0,0,0.05,0,0)" xlink:href="#bF"/><use transform="matrix(0.05,0,0,0.05,9,0)" xlink:href="#bp"/><use transform="matrix(0.05,0,0,0.05,19,0)" xlink:href="#bg"/></g><path d="M63-220v92h138v28H63V0H30v-248h175v28H63" id="bG"/><g id="p"><use transform="matrix(0.05,0,0,0.05,0,0)" xlink:href="#bG"/><use transform="matrix(0.05,0,0,0.05,10.950000000000001,0)" xlink:href="#bh"/><use transform="matrix(0.05,0,0,0.05,14.9,0)" xlink:href="#bn"/></g><g id="q"><use transform="matrix(0.05,0,0,0.05,0,0)" xlink:href="#bB"/><use transform="matrix(0.05,0,0,0.05,12.950000000000001,0)" xlink:href="#bb"/><use transform="matrix(0.05,0,0,0.05,17.950000000000003,0)" xlink:href="#ba"/><use transform="matrix(0.05,0,0,0.05,27.950000000000003,0)" xlink:href="#bC"/><use transform="matrix(0.05,0,0,0.05,32.95,0)" xlink:href="#bD"/></g><path d="M182-182c0 78-84 86-111 141h115V0H12c-6-101 99-100 120-180 1-22-12-31-33-32-23 0-32 14-35 34l-49-3c5-45 32-70 84-70 51 0 83 22 83 69" id="bH"/><path d="M35-132v-50h50v50H35zM35 0v-49h50V0H35" id="bI"/><g id="r"><use transform="matrix(0.05,0,0,0.05,0,0)" xlink:href="#bB"/><use transform="matrix(0.05,0,0,0.05,12.950000000000001,0)" xlink:href="#bH"/><use transform="matrix(0.05,0,0,0.05,22.950000000000003,0)" xlink:href="#bI"/></g><g id="s"><use transform="matrix(0.05,0,0,0.05,0,0)" xlink:href="#bk"/><use transform="matrix(0.05,0,0,0.05,9.950000000000001,0)" xlink:href="#bl"/><use transform="matrix(0.05,0,0,0.05,22.900000000000002,0)" xlink:href="#bi"/><use transform="matrix(0.05,0,0,0.05,32.900000000000006,0)" xlink:href="#bi"/><use transform="matrix(0.05,0,0,0.05,42.900000000000006,0)" xlink:href="#bm"/><use transform="matrix(0.05,0,0,0.05,47.900000000000006,0)" xlink:href="#bn"/></g><g id="t"><use transform="matrix(0.05,0,0,0.05,0,0)" xlink:href="#bo"/><use transform="matrix(0.05,0,0,0.05,3.95,0)" xlink:href="#bj"/></g><use transform="matrix(0.05,0,0,0.05,0,0)" xlink:href="#bp" id="u"/><path d="M210-169c-67 3-38 105-44 169h-31v-121c0-29-5-50-35-48C34-165 62-65 56 0H25l-1-190h30c1 10-1 24 2 32 10-44 99-50 107 0 11-21 27-35 58-36 85-2 47 119 55 194h-31v-121c0-29-5-49-35-48" id="bJ"/><g id="v"><use transform="matrix(0.05,0,0,0.05,0,0)" xlink:href="#bJ"/><use transform="matrix(0.05,0,0,0.05,14.950000000000001,0)" xlink:href="#bi"/><use transform="matrix(0.05,0,0,0.05,24.950000000000003,0)" xlink:href="#bJ"/><use transform="matrix(0.05,0,0,0.05,39.900000000000006,0)" xlink:href="#bv"/><use transform="matrix(0.05,0,0,0.05,49.900000000000006,0)" xlink:href="#bi"/><use transform="matrix(0.05,0,0,0.05,59.900000000000006,0)" xlink:href="#bw"/></g><path d="M101-234c-31-9-42 10-38 44h38v23H63V0H32v-167H5v-23h27c-7-52 17-82 69-68v24" id="bK"/><g id="w"><use transform="matrix(0.05,0,0,0.05,0,0)" xlink:href="#bu"/><use transform="matrix(0.05,0,0,0.05,10,0)" xlink:href="#bK"/></g><path d="M106-169C34-169 62-67 57 0H25v-261h32l-1 103c12-21 28-36 61-36 89 0 53 116 60 194h-32v-121c2-32-8-49-39-48" id="bL"/><g id="x"><use transform="matrix(0.05,0,0,0.05,0,0)" xlink:href="#bm"/><use transform="matrix(0.05,0,0,0.05,5,0)" xlink:href="#bL"/><use transform="matrix(0.05,0,0,0.05,15,0)" xlink:href="#bi"/></g><g id="y"><use transform="matrix(0.05,0,0,0.05,0,0)" xlink:href="#bK"/><use transform="matrix(0.05,0,0,0.05,5,0)" xlink:href="#bh"/><use transform="matrix(0.05,0,0,0.05,8.95,0)" xlink:href="#bn"/><use transform="matrix(0.05,0,0,0.05,17.95,0)" xlink:href="#bo"/><use transform="matrix(0.05,0,0,0.05,21.9,0)" xlink:href="#bg"/><use transform="matrix(0.05,0,0,0.05,31.899999999999995,0)" xlink:href="#br"/></g><g id="z"><use transform="matrix(0.05,0,0,0.05,0,0)" xlink:href="#bv"/><use transform="matrix(0.05,0,0,0.05,10,0)" xlink:href="#bo"/><use transform="matrix(0.05,0,0,0.05,13.949999999999998,0)" xlink:href="#bw"/><use transform="matrix(0.05,0,0,0.05,19.9,0)" xlink:href="#bx"/><use transform="matrix(0.05,0,0,0.05,29.899999999999995,0)" xlink:href="#bj"/></g><path d="M115-194c55 1 70 41 70 98S169 2 115 4C84 4 66-9 55-30l1 105H24l-1-265h31l2 30c10-21 28-34 59-34zm-8 174c40 0 45-34 45-75s-6-73-45-74c-42 0-51 32-51 76 0 43 10 73 51 73" id="bM"/><g id="A"><use transform="matrix(0.05,0,0,0.05,0,0)" xlink:href="#bj"/><use transform="matrix(0.05,0,0,0.05,9,0)" xlink:href="#bM"/><use transform="matrix(0.05,0,0,0.05,19,0)" xlink:href="#bi"/><use transform="matrix(0.05,0,0,0.05,29,0)" xlink:href="#bF"/><use transform="matrix(0.05,0,0,0.05,38,0)" xlink:href="#bo"/><use transform="matrix(0.05,0,0,0.05,41.95,0)" xlink:href="#bi"/><use transform="matrix(0.05,0,0,0.05,51.95,0)" xlink:href="#bj"/></g><g id="B"><use transform="matrix(0.05,0,0,0.05,0,0)" xlink:href="#bp"/><use transform="matrix(0.05,0,0,0.05,10,0)" xlink:href="#bg"/></g><g id="C"><use transform="matrix(0.05,0,0,0.05,0,0)" xlink:href="#bp"/><use transform="matrix(0.05,0,0,0.05,10,0)" xlink:href="#bx"/><use transform="matrix(0.05,0,0,0.05,20,0)" xlink:href="#bs"/><use transform="matrix(0.05,0,0,0.05,30,0)" xlink:href="#bh"/><use transform="matrix(0.05,0,0,0.05,33.95,0)" xlink:href="#bm"/></g><g id="D"><use transform="matrix(0.05,0,0,0.05,0,0)" xlink:href="#bB"/><use transform="matrix(0.05,0,0,0.05,12.950000000000001,0)" xlink:href="#bH"/><use transform="matrix(0.05,0,0,0.05,22.950000000000003,0)" xlink:href="#bI"/></g><g id="E"><use transform="matrix(0.05,0,0,0.05,0,0)" xlink:href="#bk"/><use transform="matrix(0.05,0,0,0.05,9.950000000000001,0)" xlink:href="#bl"/><use transform="matrix(0.05,0,0,0.05,22.900000000000002,0)" xlink:href="#bi"/><use transform="matrix(0.05,0,0,0.05,32.900000000000006,0)" xlink:href="#bi"/><use transform="matrix(0.05,0,0,0.05,42.900000000000006,0)" xlink:href="#bm"/><use transform="matrix(0.05,0,0,0.05,47.900000000000006,0)" xlink:href="#bn"/></g><use transform="matrix(0.05,0,0,0.05,0,0)" xlink:href="#bp" id="F"/><g id="G"><use transform="matrix(0.05,0,0,0.05,0,0)" xlink:href="#bl"/><use transform="matrix(0.05,0,0,0.05,12.950000000000001,0)" xlink:href="#bo"/><use transform="matrix(0.05,0,0,0.05,16.900000000000002,0)" xlink:href="#bg"/><use transform="matrix(0.05,0,0,0.05,26.900000000000002,0)" xlink:href="#br"/><use transform="matrix(0.05,0,0,0.05,36.900000000000006,0)" xlink:href="#bi"/><use transform="matrix(0.05,0,0,0.05,46.900000000000006,0)" xlink:href="#bx"/></g><g id="H"><use transform="matrix(0.05,0,0,0.05,0,0)" xlink:href="#bv"/><use transform="matrix(0.05,0,0,0.05,10,0)" xlink:href="#bo"/><use transform="matrix(0.05,0,0,0.05,13.949999999999998,0)" xlink:href="#bw"/><use transform="matrix(0.05,0,0,0.05,19.9,0)" xlink:href="#bx"/></g><path d="M24 0v-248h195v40H76v63h132v40H76v65h150V0H24" id="bN"/><path d="M128 0H69L1-190h53L99-40l48-150h52" id="bO"/><path d="M88-194c31-1 46 15 58 34l-1-101h50l1 261h-48c-2-10 0-23-3-31C134-8 116 4 84 4 32 4 16-41 15-95c0-56 19-97 73-99zm17 164c33 0 40-30 41-66 1-37-9-64-41-64s-38 30-39 65c0 43 13 65 39 65" id="bP"/><path d="M135-194c87-1 58 113 63 194h-50c-7-57 23-157-34-157-59 0-34 97-39 157H25l-1-190h47c2 12-1 28 3 38 12-26 28-41 61-42" id="bQ"/><path d="M190-63c-7 42-38 67-86 67-59 0-84-38-90-98-12-110 154-137 174-36l-49 2c-2-19-15-32-35-32-30 0-35 28-38 64-6 74 65 87 74 30" id="bR"/><g id="I"><use transform="matrix(0.05,0,0,0.05,0,0)" xlink:href="#bN"/><use transform="matrix(0.05,0,0,0.05,12,0)" xlink:href="#bO"/><use transform="matrix(0.05,0,0,0.05,22,0)" xlink:href="#bC"/><use transform="matrix(0.05,0,0,0.05,27,0)" xlink:href="#bP"/><use transform="matrix(0.05,0,0,0.05,37.95,0)" xlink:href="#aW"/><use transform="matrix(0.05,0,0,0.05,47.95,0)" xlink:href="#bQ"/><use transform="matrix(0.05,0,0,0.05,58.900000000000006,0)" xlink:href="#bR"/><use transform="matrix(0.05,0,0,0.05,68.9,0)" xlink:href="#aW"/><use transform="matrix(0.05,0,0,0.05,78.9,0)" xlink:href="#be"/></g><path d="M47-170H22l-4-78h33" id="bS"/><g id="J"><use transform="matrix(0.05,0,0,0.05,0,0)" xlink:href="#bk"/><use transform="matrix(0.05,0,0,0.05,9.950000000000001,0)" xlink:href="#bl"/><use transform="matrix(0.05,0,0,0.05,22.900000000000002,0)" xlink:href="#bi"/><use transform="matrix(0.05,0,0,0.05,32.900000000000006,0)" xlink:href="#bi"/><use transform="matrix(0.05,0,0,0.05,42.900000000000006,0)" xlink:href="#bm"/><use transform="matrix(0.05,0,0,0.05,47.900000000000006,0)" xlink:href="#bn"/><use transform="matrix(0.05,0,0,0.05,56.900000000000006,0)" xlink:href="#bS"/><use transform="matrix(0.05,0,0,0.05,60.300000000000004,0)" xlink:href="#bj"/></g><path d="M30-248c118-7 216 8 213 122C240-48 200 0 122 0H30v-248zM63-27c89 8 146-16 146-99s-60-101-146-95v194" id="bT"/><path d="M190 0L58-211 59 0H30v-248h39L202-35l-2-213h31V0h-41" id="bU"/><path d="M205 0l-28-72H64L36 0H1l101-248h38L239 0h-34zm-38-99l-47-123c-12 45-31 82-46 123h93" id="bV"/><g id="K"><use transform="matrix(0.05,0,0,0.05,0,0)" xlink:href="#bT"/><use transform="matrix(0.05,0,0,0.05,12.950000000000001,0)" xlink:href="#bU"/><use transform="matrix(0.05,0,0,0.05,25.900000000000002,0)" xlink:href="#bV"/></g><g id="L"><use transform="matrix(0.05,0,0,0.05,0,0)" xlink:href="#bk"/><use transform="matrix(0.05,0,0,0.05,8.950000000000001,0)" xlink:href="#bi"/><use transform="matrix(0.05,0,0,0.05,18.950000000000003,0)" xlink:href="#bj"/><use transform="matrix(0.05,0,0,0.05,27.950000000000003,0)" xlink:href="#bm"/></g><g id="M"><use transform="matrix(0.05,0,0,0.05,0,0)" xlink:href="#bc"/><use transform="matrix(0.05,0,0,0.05,12.950000000000001,0)" xlink:href="#bi"/><use transform="matrix(0.05,0,0,0.05,22.950000000000003,0)" xlink:href="#bj"/><use transform="matrix(0.05,0,0,0.05,31.950000000000003,0)" xlink:href="#bs"/><use transform="matrix(0.05,0,0,0.05,41.95,0)" xlink:href="#bh"/><use transform="matrix(0.05,0,0,0.05,45.900000000000006,0)" xlink:href="#bm"/><use transform="matrix(0.05,0,0,0.05,50.900000000000006,0)" xlink:href="#bj"/></g><g id="N"><use transform="matrix(0.05,0,0,0.05,0,0)" xlink:href="#bL"/><use transform="matrix(0.05,0,0,0.05,10,0)" xlink:href="#bp"/><use transform="matrix(0.05,0,0,0.05,20,0)" xlink:href="#bg"/><use transform="matrix(0.05,0,0,0.05,30,0)" xlink:href="#bx"/><use transform="matrix(0.05,0,0,0.05,40,0)" xlink:href="#bo"/><use transform="matrix(0.05,0,0,0.05,43.95,0)" xlink:href="#bF"/><use transform="matrix(0.05,0,0,0.05,52.95,0)" xlink:href="#bp"/><use transform="matrix(0.05,0,0,0.05,62.95,0)" xlink:href="#bM"/><use transform="matrix(0.05,0,0,0.05,72.95,0)" xlink:href="#bM"/><use transform="matrix(0.05,0,0,0.05,82.95,0)" xlink:href="#bi"/><use transform="matrix(0.05,0,0,0.05,92.95,0)" xlink:href="#bx"/></g><g id="O"><use transform="matrix(0.05,0,0,0.05,0,0)" xlink:href="#bB"/><use transform="matrix(0.05,0,0,0.05,12.950000000000001,0)" xlink:href="#bb"/><use transform="matrix(0.05,0,0,0.05,17.950000000000003,0)" xlink:href="#ba"/><use transform="matrix(0.05,0,0,0.05,27.950000000000003,0)" xlink:href="#bC"/><use transform="matrix(0.05,0,0,0.05,32.95,0)" xlink:href="#bD"/><use transform="matrix(0.05,0,0,0.05,48.95,0)" xlink:href="#bI"/></g><g id="P"><use transform="matrix(0.05,0,0,0.05,0,0)" xlink:href="#bo"/><use transform="matrix(0.05,0,0,0.05,3.95,0)" xlink:href="#bj"/></g><g id="Q"><use transform="matrix(0.05,0,0,0.05,0,0)" xlink:href="#bM"/><use transform="matrix(0.05,0,0,0.05,10,0)" xlink:href="#bL"/><use transform="matrix(0.05,0,0,0.05,20,0)" xlink:href="#bn"/><use transform="matrix(0.05,0,0,0.05,29,0)" xlink:href="#bj"/><use transform="matrix(0.05,0,0,0.05,38,0)" xlink:href="#bo"/><use transform="matrix(0.05,0,0,0.05,41.95,0)" xlink:href="#bF"/><use transform="matrix(0.05,0,0,0.05,50.95,0)" xlink:href="#bp"/><use transform="matrix(0.05,0,0,0.05,60.95,0)" xlink:href="#bh"/><use transform="matrix(0.05,0,0,0.05,64.9,0)" xlink:href="#bh"/><use transform="matrix(0.05,0,0,0.05,68.85000000000001,0)" xlink:href="#bn"/></g><g id="R"><use transform="matrix(0.05,0,0,0.05,0,0)" xlink:href="#bp"/><use transform="matrix(0.05,0,0,0.05,10,0)" xlink:href="#bv"/><use transform="matrix(0.05,0,0,0.05,20,0)" xlink:href="#bh"/><use transform="matrix(0.05,0,0,0.05,23.95,0)" xlink:href="#bi"/></g><g id="S"><use transform="matrix(0.05,0,0,0.05,0,0)" xlink:href="#bN"/><use transform="matrix(0.05,0,0,0.05,12,0)" xlink:href="#bO"/><use transform="matrix(0.05,0,0,0.05,22,0)" xlink:href="#bC"/><use transform="matrix(0.05,0,0,0.05,27,0)" xlink:href="#bP"/><use transform="matrix(0.05,0,0,0.05,37.95,0)" xlink:href="#aW"/><use transform="matrix(0.05,0,0,0.05,47.95,0)" xlink:href="#bQ"/><use transform="matrix(0.05,0,0,0.05,58.900000000000006,0)" xlink:href="#bR"/><use transform="matrix(0.05,0,0,0.05,68.9,0)" xlink:href="#aW"/><use transform="matrix(0.05,0,0,0.05,78.9,0)" xlink:href="#be"/></g><g id="T"><use transform="matrix(0.05,0,0,0.05,0,0)" xlink:href="#bq"/><use transform="matrix(0.05,0,0,0.05,12,0)" xlink:href="#bL"/><use transform="matrix(0.05,0,0,0.05,22,0)" xlink:href="#bn"/><use transform="matrix(0.05,0,0,0.05,31,0)" xlink:href="#bj"/><use transform="matrix(0.05,0,0,0.05,40,0)" xlink:href="#bo"/><use transform="matrix(0.05,0,0,0.05,43.95,0)" xlink:href="#bF"/><use transform="matrix(0.05,0,0,0.05,52.95,0)" xlink:href="#bp"/><use transform="matrix(0.05,0,0,0.05,62.95,0)" xlink:href="#bh"/></g><g id="U"><use transform="matrix(0.05,0,0,0.05,0,0)" xlink:href="#bm"/><use transform="matrix(0.05,0,0,0.05,5,0)" xlink:href="#bi"/><use transform="matrix(0.05,0,0,0.05,15,0)" xlink:href="#bj"/><use transform="matrix(0.05,0,0,0.05,24,0)" xlink:href="#bm"/></g><g id="V"><use transform="matrix(0.05,0,0,0.05,0,0)" xlink:href="#bw"/><use transform="matrix(0.05,0,0,0.05,5.95,0)" xlink:href="#bi"/><use transform="matrix(0.05,0,0,0.05,15.949999999999998,0)" xlink:href="#bM"/><use transform="matrix(0.05,0,0,0.05,25.950000000000003,0)" xlink:href="#bu"/><use transform="matrix(0.05,0,0,0.05,35.95,0)" xlink:href="#bw"/><use transform="matrix(0.05,0,0,0.05,41.900000000000006,0)" xlink:href="#bm"/></g><path d="M238-95c0 69-44 99-111 99C63 4 22-25 22-93v-155h51v151c-1 38 19 59 55 60 90 1 49-130 58-211h52v153" id="bW"/><path d="M135-150c-39-12-60 13-60 57V0H25l-1-190h47c2 13-1 29 3 40 6-28 27-53 61-41v41" id="bX"/><g id="W"><use transform="matrix(0.05,0,0,0.05,0,0)" xlink:href="#bW"/><use transform="matrix(0.05,0,0,0.05,12.950000000000001,0)" xlink:href="#bQ"/><use transform="matrix(0.05,0,0,0.05,23.900000000000002,0)" xlink:href="#bP"/><use transform="matrix(0.05,0,0,0.05,34.85,0)" xlink:href="#aW"/><use transform="matrix(0.05,0,0,0.05,44.85,0)" xlink:href="#bX"/><use transform="matrix(0.05,0,0,0.05,51.85,0)" xlink:href="#bD"/><use transform="matrix(0.05,0,0,0.05,67.85,0)" xlink:href="#bC"/><use transform="matrix(0.05,0,0,0.05,72.85,0)" xlink:href="#bQ"/><use transform="matrix(0.05,0,0,0.05,83.8,0)" xlink:href="#aW"/><use transform="matrix(0.05,0,0,0.05,93.8,0)" xlink:href="#bI"/></g><g id="X"><use transform="matrix(0.05,0,0,0.05,0,0)" xlink:href="#bf"/><use transform="matrix(0.05,0,0,0.05,12.950000000000001,0)" xlink:href="#bg"/><use transform="matrix(0.05,0,0,0.05,22.950000000000003,0)" xlink:href="#bh"/><use transform="matrix(0.05,0,0,0.05,26.900000000000002,0)" xlink:href="#bi"/><use transform="matrix(0.05,0,0,0.05,36.900000000000006,0)" xlink:href="#bj"/><use transform="matrix(0.05,0,0,0.05,45.900000000000006,0)" xlink:href="#bj"/></g><g id="Y"><use transform="matrix(0.05,0,0,0.05,0,0)" xlink:href="#bm"/><use transform="matrix(0.05,0,0,0.05,5,0)" xlink:href="#bL"/><use transform="matrix(0.05,0,0,0.05,15,0)" xlink:href="#bi"/></g><g id="Z"><use transform="matrix(0.05,0,0,0.05,0,0)" xlink:href="#bT"/><use transform="matrix(0.05,0,0,0.05,12.950000000000001,0)" xlink:href="#bU"/><use transform="matrix(0.05,0,0,0.05,25.900000000000002,0)" xlink:href="#bV"/></g><g id="aa"><use transform="matrix(0.05,0,0,0.05,0,0)" xlink:href="#bm"/><use transform="matrix(0.05,0,0,0.05,5,0)" xlink:href="#bi"/><use transform="matrix(0.05,0,0,0.05,15,0)" xlink:href="#bj"/><use transform="matrix(0.05,0,0,0.05,24,0)" xlink:href="#bm"/></g><g id="ab"><use transform="matrix(0.05,0,0,0.05,0,0)" xlink:href="#bl"/><use transform="matrix(0.05,0,0,0.05,12.950000000000001,0)" xlink:href="#bp"/><use transform="matrix(0.05,0,0,0.05,22.950000000000003,0)" xlink:href="#bj"/></g><g id="ac"><use transform="matrix(0.05,0,0,0.05,0,0)" xlink:href="#bF"/><use transform="matrix(0.05,0,0,0.05,9,0)" xlink:href="#bu"/><use transform="matrix(0.05,0,0,0.05,19,0)" xlink:href="#bg"/><use transform="matrix(0.05,0,0,0.05,29,0)" xlink:href="#bm"/><use transform="matrix(0.05,0,0,0.05,34,0)" xlink:href="#bp"/><use transform="matrix(0.05,0,0,0.05,44,0)" xlink:href="#bJ"/><use transform="matrix(0.05,0,0,0.05,58.95,0)" xlink:href="#bo"/><use transform="matrix(0.05,0,0,0.05,62.900000000000006,0)" xlink:href="#bg"/><use transform="matrix(0.05,0,0,0.05,72.9,0)" xlink:href="#bp"/><use transform="matrix(0.05,0,0,0.05,82.9,0)" xlink:href="#bm"/><use transform="matrix(0.05,0,0,0.05,87.9,0)" xlink:href="#bi"/><use transform="matrix(0.05,0,0,0.05,97.9,0)" xlink:href="#bx"/></g><g id="ad"><use transform="matrix(0.05,0,0,0.05,0,0)" xlink:href="#bk"/><use transform="matrix(0.05,0,0,0.05,10.950000000000001,0)" xlink:href="#bL"/><use transform="matrix(0.05,0,0,0.05,20.950000000000003,0)" xlink:href="#bi"/></g><g id="ae"><use transform="matrix(0.05,0,0,0.05,0,0)" xlink:href="#bj"/><use transform="matrix(0.05,0,0,0.05,9,0)" xlink:href="#bp"/><use transform="matrix(0.05,0,0,0.05,19,0)" xlink:href="#bJ"/><use transform="matrix(0.05,0,0,0.05,33.95,0)" xlink:href="#bM"/><use transform="matrix(0.05,0,0,0.05,43.95,0)" xlink:href="#bh"/><use transform="matrix(0.05,0,0,0.05,47.900000000000006,0)" xlink:href="#bi"/></g><g id="af"><use transform="matrix(0.05,0,0,0.05,0,0)" xlink:href="#bL"/><use transform="matrix(0.05,0,0,0.05,10,0)" xlink:href="#bp"/><use transform="matrix(0.05,0,0,0.05,20,0)" xlink:href="#bx"/></g><g id="ag"><use transform="matrix(0.05,0,0,0.05,0,0)" xlink:href="#bg"/><use transform="matrix(0.05,0,0,0.05,10,0)" xlink:href="#bu"/></g><path d="M16-82v-28h88v28H16" id="bY"/><g id="ah"><use transform="matrix(0.05,0,0,0.05,0,0)" xlink:href="#bF"/><use transform="matrix(0.05,0,0,0.05,9,0)" xlink:href="#bw"/><use transform="matrix(0.05,0,0,0.05,14.949999999999998,0)" xlink:href="#bu"/><use transform="matrix(0.05,0,0,0.05,24.95,0)" xlink:href="#bj"/><use transform="matrix(0.05,0,0,0.05,33.95,0)" xlink:href="#bj"/><use transform="matrix(0.05,0,0,0.05,42.95,0)" xlink:href="#bY"/><use transform="matrix(0.05,0,0,0.05,48.900000000000006,0)" xlink:href="#bF"/><use transform="matrix(0.05,0,0,0.05,57.900000000000006,0)" xlink:href="#bu"/><use transform="matrix(0.05,0,0,0.05,67.9,0)" xlink:href="#bg"/><use transform="matrix(0.05,0,0,0.05,77.9,0)" xlink:href="#bm"/><use transform="matrix(0.05,0,0,0.05,82.9,0)" xlink:href="#bp"/><use transform="matrix(0.05,0,0,0.05,92.9,0)" xlink:href="#bJ"/><use transform="matrix(0.05,0,0,0.05,107.85000000000001,0)" xlink:href="#bo"/><use transform="matrix(0.05,0,0,0.05,111.80000000000001,0)" xlink:href="#bg"/><use transform="matrix(0.05,0,0,0.05,121.80000000000001,0)" xlink:href="#bp"/><use transform="matrix(0.05,0,0,0.05,131.8,0)" xlink:href="#bm"/><use transform="matrix(0.05,0,0,0.05,136.8,0)" xlink:href="#bo"/><use transform="matrix(0.05,0,0,0.05,140.75,0)" xlink:href="#bu"/><use transform="matrix(0.05,0,0,0.05,150.75,0)" xlink:href="#bg"/></g><g id="ai"><use transform="matrix(0.05,0,0,0.05,0,0)" xlink:href="#bx"/><use transform="matrix(0.05,0,0,0.05,10,0)" xlink:href="#bs"/><use transform="matrix(0.05,0,0,0.05,20,0)" xlink:href="#bw"/><use transform="matrix(0.05,0,0,0.05,25.950000000000003,0)" xlink:href="#bo"/><use transform="matrix(0.05,0,0,0.05,29.899999999999995,0)" xlink:href="#bg"/><use transform="matrix(0.05,0,0,0.05,39.9,0)" xlink:href="#br"/></g><g id="aj"><use transform="matrix(0.05,0,0,0.05,0,0)" xlink:href="#bm"/><use transform="matrix(0.05,0,0,0.05,5,0)" xlink:href="#bi"/><use transform="matrix(0.05,0,0,0.05,15,0)" xlink:href="#bj"/><use transform="matrix(0.05,0,0,0.05,24,0)" xlink:href="#bm"/></g><g id="ak"><use transform="matrix(0.05,0,0,0.05,0,0)" xlink:href="#bN"/><use transform="matrix(0.05,0,0,0.05,12,0)" xlink:href="#bO"/><use transform="matrix(0.05,0,0,0.05,22,0)" xlink:href="#bC"/><use transform="matrix(0.05,0,0,0.05,27,0)" xlink:href="#bP"/><use transform="matrix(0.05,0,0,0.05,37.95,0)" xlink:href="#aW"/><use transform="matrix(0.05,0,0,0.05,47.95,0)" xlink:href="#bQ"/><use transform="matrix(0.05,0,0,0.05,58.900000000000006,0)" xlink:href="#bR"/><use transform="matrix(0.05,0,0,0.05,68.9,0)" xlink:href="#aW"/><use transform="matrix(0.05,0,0,0.05,78.9,0)" xlink:href="#be"/></g><path d="M30 0v-248h33v221h125V0H30" id="bZ"/><g id="al"><use transform="matrix(0.05,0,0,0.05,0,0)" xlink:href="#bZ"/><use transform="matrix(0.05,0,0,0.05,10,0)" xlink:href="#bp"/><use transform="matrix(0.05,0,0,0.05,20,0)" xlink:href="#bv"/></g><g id="am"><use transform="matrix(0.05,0,0,0.05,0,0)" xlink:href="#bq"/><use transform="matrix(0.05,0,0,0.05,12,0)" xlink:href="#bw"/><use transform="matrix(0.05,0,0,0.05,17.95,0)" xlink:href="#bu"/><use transform="matrix(0.05,0,0,0.05,27.950000000000003,0)" xlink:href="#bF"/><use transform="matrix(0.05,0,0,0.05,36.95,0)" xlink:href="#bi"/><use transform="matrix(0.05,0,0,0.05,46.95,0)" xlink:href="#bx"/><use transform="matrix(0.05,0,0,0.05,56.95,0)" xlink:href="#bs"/><use transform="matrix(0.05,0,0,0.05,66.95,0)" xlink:href="#bw"/><use transform="matrix(0.05,0,0,0.05,72.9,0)" xlink:href="#bi"/><use transform="matrix(0.05,0,0,0.05,82.9,0)" xlink:href="#bj"/></g><path d="M144 0l-44-69L55 0H2l70-98-66-92h53l41 62 40-62h54l-67 91 71 99h-54" id="ca"/><g id="an"><use transform="matrix(0.05,0,0,0.05,0,0)" xlink:href="#bB"/><use transform="matrix(0.05,0,0,0.05,12.950000000000001,0)" xlink:href="#bz"/><use transform="matrix(0.05,0,0,0.05,23.900000000000002,0)" xlink:href="#bQ"/><use transform="matrix(0.05,0,0,0.05,34.85,0)" xlink:href="#aZ"/><use transform="matrix(0.05,0,0,0.05,40.800000000000004,0)" xlink:href="#aW"/><use transform="matrix(0.05,0,0,0.05,50.800000000000004,0)" xlink:href="#ca"/><use transform="matrix(0.05,0,0,0.05,60.800000000000004,0)" xlink:href="#aZ"/><use transform="matrix(0.05,0,0,0.05,66.75,0)" xlink:href="#bI"/></g><g id="ao"><use transform="matrix(0.05,0,0,0.05,0,0)" xlink:href="#bk"/><use transform="matrix(0.05,0,0,0.05,9.950000000000001,0)" xlink:href="#bl"/><use transform="matrix(0.05,0,0,0.05,22.900000000000002,0)" xlink:href="#bi"/><use transform="matrix(0.05,0,0,0.05,32.900000000000006,0)" xlink:href="#bi"/><use transform="matrix(0.05,0,0,0.05,42.900000000000006,0)" xlink:href="#bm"/><use transform="matrix(0.05,0,0,0.05,47.900000000000006,0)" xlink:href="#bn"/></g><g id="ap"><use transform="matrix(0.05,0,0,0.05,0,0)" xlink:href="#bo"/><use transform="matrix(0.05,0,0,0.05,3.95,0)" xlink:href="#bj"/></g><g id="aq"><use transform="matrix(0.05,0,0,0.05,0,0)" xlink:href="#bp"/><use transform="matrix(0.05,0,0,0.05,10,0)" xlink:href="#bg"/></g><g id="ar"><use transform="matrix(0.05,0,0,0.05,0,0)" xlink:href="#bp"/><use transform="matrix(0.05,0,0,0.05,10,0)" xlink:href="#bg"/><use transform="matrix(0.05,0,0,0.05,20,0)" xlink:href="#bo"/><use transform="matrix(0.05,0,0,0.05,23.95,0)" xlink:href="#bJ"/><use transform="matrix(0.05,0,0,0.05,38.9,0)" xlink:href="#bp"/><use transform="matrix(0.05,0,0,0.05,48.9,0)" xlink:href="#bh"/></g><path d="M24 0v-248h52V0H24" id="cb"/><path d="M121-226c-27-7-43 5-38 36h38v33H83V0H34v-157H6v-33h28c-9-59 32-81 87-68v32" id="cc"/><g id="as"><use transform="matrix(0.05,0,0,0.05,0,0)" xlink:href="#cb"/><use transform="matrix(0.05,0,0,0.05,5,0)" xlink:href="#bQ"/><use transform="matrix(0.05,0,0,0.05,15.950000000000001,0)" xlink:href="#cc"/><use transform="matrix(0.05,0,0,0.05,21.900000000000002,0)" xlink:href="#aW"/><use transform="matrix(0.05,0,0,0.05,31.900000000000002,0)" xlink:href="#bX"/><use transform="matrix(0.05,0,0,0.05,38.900000000000006,0)" xlink:href="#aW"/><use transform="matrix(0.05,0,0,0.05,48.900000000000006,0)" xlink:href="#bQ"/><use transform="matrix(0.05,0,0,0.05,59.85,0)" xlink:href="#bR"/><use transform="matrix(0.05,0,0,0.05,69.85000000000001,0)" xlink:href="#aW"/></g><g id="at"><use transform="matrix(0.05,0,0,0.05,0,0)" xlink:href="#aV"/><use transform="matrix(0.05,0,0,0.05,12.950000000000001,0)" xlink:href="#aY"/><use transform="matrix(0.05,0,0,0.05,23.900000000000002,0)" xlink:href="#bb"/><use transform="matrix(0.05,0,0,0.05,28.900000000000002,0)" xlink:href="#aW"/><use transform="matrix(0.05,0,0,0.05,38.900000000000006,0)" xlink:href="#bI"/></g><path d="M33 0v-248h34V0H33" id="cd"/><g id="au"><use transform="matrix(0.05,0,0,0.05,0,0)" xlink:href="#cd"/><use transform="matrix(0.05,0,0,0.05,5,0)" xlink:href="#bK"/></g><g id="av"><use transform="matrix(0.05,0,0,0.05,0,0)" xlink:href="#bm"/><use transform="matrix(0.05,0,0,0.05,5,0)" xlink:href="#bl"/><use transform="matrix(0.05,0,0,0.05,17.950000000000003,0)" xlink:href="#bi"/><use transform="matrix(0.05,0,0,0.05,27.950000000000003,0)" xlink:href="#bi"/><use transform="matrix(0.05,0,0,0.05,37.95,0)" xlink:href="#bm"/><use transform="matrix(0.05,0,0,0.05,42.95,0)" xlink:href="#bn"/></g><use transform="matrix(0.05,0,0,0.05,0,0)" xlink:href="#bp" id="aw"/><g id="ax"><use transform="matrix(0.05,0,0,0.05,0,0)" xlink:href="#bv"/><use transform="matrix(0.05,0,0,0.05,10,0)" xlink:href="#bo"/><use transform="matrix(0.05,0,0,0.05,13.949999999999998,0)" xlink:href="#bw"/><use transform="matrix(0.05,0,0,0.05,19.9,0)" xlink:href="#bx"/></g><g id="ay"><use transform="matrix(0.05,0,0,0.05,0,0)" xlink:href="#bm"/><use transform="matrix(0.05,0,0,0.05,5,0)" xlink:href="#bL"/><use transform="matrix(0.05,0,0,0.05,15,0)" xlink:href="#bi"/><use transform="matrix(0.05,0,0,0.05,25,0)" xlink:href="#bg"/></g><g id="az"><use transform="matrix(0.05,0,0,0.05,0,0)" xlink:href="#bo"/><use transform="matrix(0.05,0,0,0.05,3.95,0)" xlink:href="#bm"/></g><g id="aA"><use transform="matrix(0.05,0,0,0.05,0,0)" xlink:href="#bK"/><use transform="matrix(0.05,0,0,0.05,5,0)" xlink:href="#bh"/><use transform="matrix(0.05,0,0,0.05,8.95,0)" xlink:href="#bn"/></g><g id="aB"><use transform="matrix(0.05,0,0,0.05,0,0)" xlink:href="#cd"/><use transform="matrix(0.05,0,0,0.05,5,0)" xlink:href="#bK"/></g><g id="aC"><use transform="matrix(0.05,0,0,0.05,0,0)" xlink:href="#bp"/><use transform="matrix(0.05,0,0,0.05,10,0)" xlink:href="#bh"/><use transform="matrix(0.05,0,0,0.05,13.949999999999998,0)" xlink:href="#bh"/></g><g id="aD"><use transform="matrix(0.05,0,0,0.05,0,0)" xlink:href="#bx"/><use transform="matrix(0.05,0,0,0.05,10,0)" xlink:href="#bu"/><use transform="matrix(0.05,0,0,0.05,20,0)" xlink:href="#bs"/><use transform="matrix(0.05,0,0,0.05,30,0)" xlink:href="#bv"/><use transform="matrix(0.05,0,0,0.05,40,0)" xlink:href="#bm"/><use transform="matrix(0.05,0,0,0.05,45,0)" xlink:href="#bj"/></g><g id="aE"><use transform="matrix(0.05,0,0,0.05,0,0)" xlink:href="#bm"/><use transform="matrix(0.05,0,0,0.05,5,0)" xlink:href="#bL"/><use transform="matrix(0.05,0,0,0.05,15,0)" xlink:href="#bp"/><use transform="matrix(0.05,0,0,0.05,25,0)" xlink:href="#bm"/></g><path d="M108 0H70L1-190h34L89-25l56-165h34" id="ce"/><g id="aF"><use transform="matrix(0.05,0,0,0.05,0,0)" xlink:href="#bM"/><use transform="matrix(0.05,0,0,0.05,10,0)" xlink:href="#bw"/><use transform="matrix(0.05,0,0,0.05,15.949999999999998,0)" xlink:href="#bi"/><use transform="matrix(0.05,0,0,0.05,25.950000000000003,0)" xlink:href="#ce"/><use transform="matrix(0.05,0,0,0.05,34.95,0)" xlink:href="#bi"/><use transform="matrix(0.05,0,0,0.05,44.95,0)" xlink:href="#bg"/><use transform="matrix(0.05,0,0,0.05,54.95,0)" xlink:href="#bm"/></g><use transform="matrix(0.05,0,0,0.05,0,0)" xlink:href="#bp" id="aG"/><g id="aH"><use transform="matrix(0.05,0,0,0.05,0,0)" xlink:href="#bl"/><use transform="matrix(0.05,0,0,0.05,12.950000000000001,0)" xlink:href="#bo"/><use transform="matrix(0.05,0,0,0.05,16.900000000000002,0)" xlink:href="#bg"/><use transform="matrix(0.05,0,0,0.05,26.900000000000002,0)" xlink:href="#br"/><use transform="matrix(0.05,0,0,0.05,36.900000000000006,0)" xlink:href="#bi"/><use transform="matrix(0.05,0,0,0.05,46.900000000000006,0)" xlink:href="#bx"/></g><g id="aI"><use transform="matrix(0.05,0,0,0.05,0,0)" xlink:href="#bK"/><use transform="matrix(0.05,0,0,0.05,5,0)" xlink:href="#bw"/><use transform="matrix(0.05,0,0,0.05,10.95,0)" xlink:href="#bu"/><use transform="matrix(0.05,0,0,0.05,20.95,0)" xlink:href="#bJ"/></g><g id="aJ"><use transform="matrix(0.05,0,0,0.05,0,0)" xlink:href="#bK"/><use transform="matrix(0.05,0,0,0.05,5,0)" xlink:href="#bh"/><use transform="matrix(0.05,0,0,0.05,8.95,0)" xlink:href="#bn"/><use transform="matrix(0.05,0,0,0.05,17.95,0)" xlink:href="#bo"/><use transform="matrix(0.05,0,0,0.05,21.9,0)" xlink:href="#bg"/><use transform="matrix(0.05,0,0,0.05,31.899999999999995,0)" xlink:href="#br"/></g><g id="aK"><use transform="matrix(0.05,0,0,0.05,0,0)" xlink:href="#bL"/><use transform="matrix(0.05,0,0,0.05,10,0)" xlink:href="#bp"/><use transform="matrix(0.05,0,0,0.05,20,0)" xlink:href="#ce"/><use transform="matrix(0.05,0,0,0.05,29,0)" xlink:href="#bi"/></g><g id="aL"><use transform="matrix(0.05,0,0,0.05,0,0)" xlink:href="#bv"/><use transform="matrix(0.05,0,0,0.05,10,0)" xlink:href="#bi"/><use transform="matrix(0.05,0,0,0.05,20,0)" xlink:href="#bi"/><use transform="matrix(0.05,0,0,0.05,30,0)" xlink:href="#bg"/></g><g id="aM"><use transform="matrix(0.05,0,0,0.05,0,0)" xlink:href="#bw"/><use transform="matrix(0.05,0,0,0.05,5.95,0)" xlink:href="#bi"/><use transform="matrix(0.05,0,0,0.05,15.949999999999998,0)" xlink:href="#bJ"/><use transform="matrix(0.05,0,0,0.05,30.899999999999995,0)" xlink:href="#bu"/><use transform="matrix(0.05,0,0,0.05,40.9,0)" xlink:href="#ce"/><use transform="matrix(0.05,0,0,0.05,49.9,0)" xlink:href="#bi"/><use transform="matrix(0.05,0,0,0.05,59.900000000000006,0)" xlink:href="#bx"/></g><g id="aN"><use transform="matrix(0.05,0,0,0.05,0,0)" xlink:href="#bm"/><use transform="matrix(0.05,0,0,0.05,5,0)" xlink:href="#bl"/><use transform="matrix(0.05,0,0,0.05,17.950000000000003,0)" xlink:href="#bi"/><use transform="matrix(0.05,0,0,0.05,27.950000000000003,0)" xlink:href="#bi"/><use transform="matrix(0.05,0,0,0.05,37.95,0)" xlink:href="#bm"/><use transform="matrix(0.05,0,0,0.05,42.95,0)" xlink:href="#bn"/></g><g id="aO"><use transform="matrix(0.05,0,0,0.05,0,0)" xlink:href="#bN"/><use transform="matrix(0.05,0,0,0.05,12,0)" xlink:href="#bO"/><use transform="matrix(0.05,0,0,0.05,22,0)" xlink:href="#bC"/><use transform="matrix(0.05,0,0,0.05,27,0)" xlink:href="#bP"/><use transform="matrix(0.05,0,0,0.05,37.95,0)" xlink:href="#aW"/><use transform="matrix(0.05,0,0,0.05,47.95,0)" xlink:href="#bQ"/><use transform="matrix(0.05,0,0,0.05,58.900000000000006,0)" xlink:href="#bR"/><use transform="matrix(0.05,0,0,0.05,68.9,0)" xlink:href="#aW"/><use transform="matrix(0.05,0,0,0.05,78.9,0)" xlink:href="#be"/></g><g id="aP"><use transform="matrix(0.05,0,0,0.05,0,0)" xlink:href="#bG"/><use transform="matrix(0.05,0,0,0.05,10.950000000000001,0)" xlink:href="#bh"/><use transform="matrix(0.05,0,0,0.05,14.9,0)" xlink:href="#bn"/><use transform="matrix(0.05,0,0,0.05,23.900000000000002,0)" xlink:href="#bo"/><use transform="matrix(0.05,0,0,0.05,27.85,0)" xlink:href="#bg"/><use transform="matrix(0.05,0,0,0.05,37.85,0)" xlink:href="#br"/></g><g id="aQ"><use transform="matrix(0.05,0,0,0.05,0,0)" xlink:href="#bk"/><use transform="matrix(0.05,0,0,0.05,9.950000000000001,0)" xlink:href="#bl"/><use transform="matrix(0.05,0,0,0.05,22.900000000000002,0)" xlink:href="#bi"/><use transform="matrix(0.05,0,0,0.05,32.900000000000006,0)" xlink:href="#bi"/><use transform="matrix(0.05,0,0,0.05,42.900000000000006,0)" xlink:href="#bm"/><use transform="matrix(0.05,0,0,0.05,47.900000000000006,0)" xlink:href="#bn"/></g><path d="M185-189c-5-48-123-54-124 2 14 75 158 14 163 119 3 78-121 87-175 55-17-10-28-26-33-46l33-7c5 56 141 63 141-1 0-78-155-14-162-118-5-82 145-84 179-34 5 7 8 16 11 25" id="cf"/><g id="aR"><use transform="matrix(0.05,0,0,0.05,0,0)" xlink:href="#cf"/><use transform="matrix(0.05,0,0,0.05,12,0)" xlink:href="#bo"/><use transform="matrix(0.05,0,0,0.05,15.949999999999998,0)" xlink:href="#br"/><use transform="matrix(0.05,0,0,0.05,25.950000000000003,0)" xlink:href="#bL"/><use transform="matrix(0.05,0,0,0.05,35.95,0)" xlink:href="#bm"/><use transform="matrix(0.05,0,0,0.05,40.95,0)" xlink:href="#bo"/><use transform="matrix(0.05,0,0,0.05,44.900000000000006,0)" xlink:href="#bg"/><use transform="matrix(0.05,0,0,0.05,54.900000000000006,0)" xlink:href="#br"/><use transform="matrix(0.05,0,0,0.05,64.9,0)" xlink:href="#bj"/></g><g id="aS"><use transform="matrix(0.05,0,0,0.05,0,0)" xlink:href="#bW"/><use transform="matrix(0.05,0,0,0.05,12.950000000000001,0)" xlink:href="#bQ"/><use transform="matrix(0.05,0,0,0.05,23.900000000000002,0)" xlink:href="#bP"/><use transform="matrix(0.05,0,0,0.05,34.85,0)" xlink:href="#aW"/><use transform="matrix(0.05,0,0,0.05,44.85,0)" xlink:href="#bX"/><use transform="matrix(0.05,0,0,0.05,51.85,0)" xlink:href="#bR"/><use transform="matrix(0.05,0,0,0.05,61.85,0)" xlink:href="#aY"/><use transform="matrix(0.05,0,0,0.05,72.8,0)" xlink:href="#aZ"/><use transform="matrix(0.05,0,0,0.05,78.75,0)" xlink:href="#bI"/></g><g id="aT"><use transform="matrix(0.05,0,0,0.05,0,0)" xlink:href="#bf"/><use transform="matrix(0.05,0,0,0.05,12.950000000000001,0)" xlink:href="#bg"/><use transform="matrix(0.05,0,0,0.05,22.950000000000003,0)" xlink:href="#bh"/><use transform="matrix(0.05,0,0,0.05,26.900000000000002,0)" xlink:href="#bi"/><use transform="matrix(0.05,0,0,0.05,36.900000000000006,0)" xlink:href="#bj"/><use transform="matrix(0.05,0,0,0.05,45.900000000000006,0)" xlink:href="#bj"/></g><path d="M24-231v-30h32v30H24zM-9 49c24 4 33-6 33-30v-209h32V24c2 40-23 58-65 49V49" id="cg"/><g id="aU"><use transform="matrix(0.05,0,0,0.05,0,0)" xlink:href="#cg"/><use transform="matrix(0.05,0,0,0.05,3.95,0)" xlink:href="#bs"/><use transform="matrix(0.05,0,0,0.05,13.949999999999998,0)" xlink:href="#ce"/><use transform="matrix(0.05,0,0,0.05,22.95,0)" xlink:href="#bi"/><use transform="matrix(0.05,0,0,0.05,32.95,0)" xlink:href="#bg"/><use transform="matrix(0.05,0,0,0.05,42.95,0)" xlink:href="#bo"/><use transform="matrix(0.05,0,0,0.05,46.900000000000006,0)" xlink:href="#bh"/><use transform="matrix(0.05,0,0,0.05,50.85000000000001,0)" xlink:href="#bi"/></g></defs></g></svg>