<svg xmlns="http://www.w3.org/2000/svg" xmlns:xlink="http://www.w3.org/1999/xlink" xmlns:lucid="lucid" width="1565.83" height="725"><g transform="translate(300 -60)" lucid:page-tab-id="0_0"><path d="M-1296 0h2656v1760h-2656z" fill="#fff"/><path d="M390 80h205.83v98H390z" stroke="#000" stroke-width="2" fill="#fff"/><use xlink:href="#a" transform="matrix(1,0,0,1,395,85) translate(38.79999999999999 26)"/><use xlink:href="#b" transform="matrix(1,0,0,1,395,85) translate(75.3 26)"/><use xlink:href="#c" transform="matrix(1,0,0,1,395,85) translate(129.25 26)"/><use xlink:href="#d" transform="matrix(1,0,0,1,395,85) translate(11.099999999999994 47.6)"/><use xlink:href="#e" transform="matrix(1,0,0,1,395,85) translate(47.05 47.6)"/><use xlink:href="#f" transform="matrix(1,0,0,1,395,85) translate(92.94999999999999 47.6)"/><use xlink:href="#g" transform="matrix(1,0,0,1,395,85) translate(126.94999999999999 47.6)"/><use xlink:href="#h" transform="matrix(1,0,0,1,395,85) translate(146.95 47.6)"/><use xlink:href="#i" transform="matrix(1,0,0,1,395,85) translate(45.025 69.2)"/><use xlink:href="#j" transform="matrix(1,0,0,1,395,85) translate(80.025 69.2)"/><use xlink:href="#k" transform="matrix(1,0,0,1,395,85) translate(126.975 69.2)"/><path d="M492.94 180l.05.76.08.85.12.86.16.84.2.83.23.83.27.84.3.84.37.85.4.85.46.88.52.9.58.92.66.95.75.98.86 1.03.96 1.08 1.1 1.12 1.27 1.2 1.46 1.26 1.72 1.35 2.02 1.48 2.4 1.6 2.92 1.76 3.6 1.98 4.54 2.25 5.93 2.63 8.17 3.23 12.55 4.34 85.56 25.8 8.18 3.23 5.93 2.63 4.53 2.25 3.6 1.98 2.9 1.76 2.42 1.6 2.02 1.47 1.72 1.34 1.46 1.27 1.26 1.2.74.75" stroke="#000" stroke-width="2" fill="none"/><path d="M493.94 180l-2 .05-.02-1.05h2z"/><path d="M674 278.05l-10.05-11.13 8.46-3.8z" stroke="#000" stroke-width="2"/><path d="M566 282h205.83v98H566z" stroke="#000" stroke-width="2" fill="#fff"/><use xlink:href="#l" transform="matrix(1,0,0,1,571,287) translate(56.574999999999996 15.19999999999999)"/><use xlink:href="#m" transform="matrix(1,0,0,1,571,287) translate(110.525 15.19999999999999)"/><use xlink:href="#n" transform="matrix(1,0,0,1,571,287) translate(11.625 36.79999999999999)"/><use xlink:href="#o" transform="matrix(1,0,0,1,571,287) translate(73.575 36.79999999999999)"/><use xlink:href="#p" transform="matrix(1,0,0,1,571,287) translate(118.525 36.79999999999999)"/><use xlink:href="#q" transform="matrix(1,0,0,1,571,287) translate(30.599999999999994 58.39999999999999)"/><use xlink:href="#r" transform="matrix(1,0,0,1,571,287) translate(108.45 58.39999999999999)"/><use xlink:href="#s" transform="matrix(1,0,0,1,571,287) translate(65.525 80)"/><path d="M749 540c0 44.18-35.82 80-80 80s-80-35.82-80-80 35.82-80 80-80 80 35.82 80 80z" stroke="#000" stroke-width="2" fill="#fff"/><use xlink:href="#t" transform="matrix(1,0,0,1,594,465) translate(19.549999999999997 46.19999999999999)"/><use xlink:href="#u" transform="matrix(1,0,0,1,594,465) translate(103.45 46.19999999999999)"/><use xlink:href="#v" transform="matrix(1,0,0,1,594,465) translate(21.574999999999996 67.8)"/><use xlink:href="#w" transform="matrix(1,0,0,1,594,465) translate(80.475 67.8)"/><use xlink:href="#x" transform="matrix(1,0,0,1,594,465) translate(100.475 67.8)"/><use xlink:href="#y" transform="matrix(1,0,0,1,594,465) translate(5.625 89.4)"/><use xlink:href="#z" transform="matrix(1,0,0,1,594,465) translate(78.47500000000001 89.4)"/><use xlink:href="#A" transform="matrix(1,0,0,1,594,465) translate(119.375 89.4)"/><use xlink:href="#B" transform="matrix(1,0,0,1,594,465) translate(14.049999999999997 111)"/><use xlink:href="#C" transform="matrix(1,0,0,1,594,465) translate(73 111)"/><path d="M702 732.5c0 17.95-14.77 32.5-33 32.5s-33-14.55-33-32.5 14.77-32.5 33-32.5 33 14.55 33 32.5z" stroke="#000" stroke-width="2" fill="#ccc"/><path d="M669 622v58.5" stroke="#000" stroke-width="2" fill="none"/><path d="M669 621h1v1.03h-2v-1.06z"/><path d="M669 695.76l-4.64-14.26h9.28z" stroke="#000" stroke-width="2"/><path d="M833 89c17.67 0 32 17.9 32 40s-14.33 40-32 40h-96c-17.67 0-32-17.9-32-40s14.33-40 32-40z" stroke="#000" stroke-width="2" fill="#fff"/><g><use xlink:href="#D" transform="matrix(1,0,0,1,710,94) translate(1.2249999999999943 27.799999999999997)"/><use xlink:href="#E" transform="matrix(1,0,0,1,710,94) translate(72.975 27.799999999999997)"/><use xlink:href="#F" transform="matrix(1,0,0,1,710,94) translate(117.825 27.799999999999997)"/><use xlink:href="#G" transform="matrix(1,0,0,1,710,94) translate(11.075000000000003 49.4)"/><use xlink:href="#H" transform="matrix(1,0,0,1,710,94) translate(56.975 49.4)"/><use xlink:href="#I" transform="matrix(1,0,0,1,710,94) translate(74.925 49.4)"/><use xlink:href="#J" transform="matrix(1,0,0,1,710,94) translate(108.925 49.4)"/></g><path d="M597.83 129h87.67" stroke="#000" stroke-width="2" fill="none"/><path d="M597.86 130h-1.03v-2h1.03z"/><path d="M700.76 129l-14.26 4.64v-9.28z" stroke="#000" stroke-width="2"/><path d="M180 280h260v100H180z" stroke="#000" stroke-width="2" fill="#a3d977"/><path d="M206 280v100m208-100v100" stroke="#000" stroke-width="2" fill="none"/><g><use xlink:href="#K" transform="matrix(1,0,0,1,212.5,280) translate(3.174999999999997 21.19999999999999)"/><use xlink:href="#L" transform="matrix(1,0,0,1,212.5,280) translate(88.025 21.19999999999999)"/><use xlink:href="#M" transform="matrix(1,0,0,1,212.5,280) translate(131.925 21.19999999999999)"/><use xlink:href="#N" transform="matrix(1,0,0,1,212.5,280) translate(170.825 21.19999999999999)"/><use xlink:href="#O" transform="matrix(1,0,0,1,212.5,280) translate(3.125 42.79999999999999)"/><use xlink:href="#P" transform="matrix(1,0,0,1,212.5,280) translate(77.92500000000001 42.79999999999999)"/><use xlink:href="#Q" transform="matrix(1,0,0,1,212.5,280) translate(92.92500000000001 42.79999999999999)"/><use xlink:href="#R" transform="matrix(1,0,0,1,212.5,280) translate(137.925 42.79999999999999)"/><use xlink:href="#S" transform="matrix(1,0,0,1,212.5,280) translate(18.075000000000003 64.39999999999999)"/><use xlink:href="#T" transform="matrix(1,0,0,1,212.5,280) translate(86.025 64.39999999999999)"/><use xlink:href="#U" transform="matrix(1,0,0,1,212.5,280) translate(113.97500000000001 64.39999999999999)"/><use xlink:href="#V" transform="matrix(1,0,0,1,212.5,280) translate(147.97500000000002 64.39999999999999)"/><use xlink:href="#W" transform="matrix(1,0,0,1,212.5,280) translate(81 86)"/></g><path d="M492.9 180l-.05.68-.1.83-.1.82-.16.8-.2.8-.23.8-.26.8-.3.82-.33.82-.4.83-.44.83-.5.87-.56.9-.64.9-.72.95-.8 1-.94 1.03-1.06 1.08-1.23 1.15-1.42 1.24-1.65 1.3-1.96 1.43-2.33 1.54-2.8 1.72-3.48 1.9-4.38 2.17-5.7 2.52-7.8 3.08-11.8 4.08-25.1 7.47-53.08 15.17-11.77 4.08-7.82 3.08-5.7 2.53-4.38 2.18-3.48 1.9-2.82 1.7-2.33 1.55-1.95 1.42-1.66 1.3-1.42 1.24-1.22 1.14-.23.23" stroke="#000" stroke-width="2" fill="none"/><path d="M493.9 180.05l-2-.04.02-1h2z"/><path d="M311.36 276.07l1.8-14.9 8.42 3.9z" stroke="#000" stroke-width="2"/><path d="M343 492.5c0 17.95-14.77 32.5-33 32.5s-33-14.55-33-32.5 14.77-32.5 33-32.5 33 14.55 33 32.5z" stroke="#000" stroke-width="2" fill="#ccc"/><path d="M310 382v58.5" stroke="#000" stroke-width="2" fill="none"/><path d="M311 382.03h-2V381h2z"/><path d="M310 455.76l-4.64-14.26h9.28z" stroke="#000" stroke-width="2"/><path d="M668.92 382l.06 58.5" stroke="#000" stroke-width="2" fill="none"/><path d="M669.92 382.03h-2V381h2z"/><path d="M669 455.76l-4.65-14.26h9.27z" stroke="#000" stroke-width="2"/><path d="M-280 268.25h205.83v98H-280zM1040 279.75h205.83v98H1040z" stroke="#000" stroke-opacity="0" stroke-width="2" fill-opacity="0"/><defs><path d="M136-208V0H84v-208H4v-40h212v40h-80" id="X"/><path d="M110-194c64 0 96 36 96 99 0 64-35 99-97 99-61 0-95-36-95-99 0-62 34-99 96-99zm-1 164c35 0 45-28 45-65 0-40-10-65-43-65-34 0-45 26-45 65 0 36 10 65 43 65" id="Y"/><path d="M135-194c53 0 70 44 70 98 0 56-19 98-73 100-31 1-45-17-59-34 3 33 2 69 2 105H25l-1-265h48c2 10 0 23 3 31 11-24 29-35 60-35zM114-30c33 0 39-31 40-66 0-38-9-64-40-64-56 0-55 130 0 130" id="Z"/><g id="a"><use transform="matrix(0.05,0,0,0.05,0,0)" xlink:href="#X"/><use transform="matrix(0.05,0,0,0.05,9.600000000000001,0)" xlink:href="#Y"/><use transform="matrix(0.05,0,0,0.05,20.550000000000004,0)" xlink:href="#Z"/></g><path d="M67-125c0 53 21 87 73 88 37 1 54-22 65-47l45 17C233-25 199 4 140 4 58 4 20-42 15-125 8-235 124-281 211-232c18 10 29 29 36 50l-46 12c-8-25-30-41-62-41-52 0-71 34-72 86" id="aa"/><path d="M25 0v-261h50V0H25" id="ab"/><path d="M133-34C117-15 103 5 69 4 32 3 11-16 11-54c-1-60 55-63 116-61 1-26-3-47-28-47-18 1-26 9-28 27l-52-2c7-38 36-58 82-57s74 22 75 68l1 82c-1 14 12 18 25 15v27c-30 8-71 5-69-32zm-48 3c29 0 43-24 42-57-32 0-66-3-65 30 0 17 8 27 23 27" id="ac"/><path d="M25-224v-37h50v37H25zM25 0v-190h50V0H25" id="ad"/><path d="M220-157c-53 9-28 100-34 157h-49v-107c1-27-5-49-29-50C55-147 81-57 75 0H25l-1-190h47c2 12-1 28 3 38 10-53 101-56 108 0 13-22 24-43 59-42 82 1 51 116 57 194h-49v-107c-1-25-5-48-29-50" id="ae"/><g id="b"><use transform="matrix(0.05,0,0,0.05,0,0)" xlink:href="#aa"/><use transform="matrix(0.05,0,0,0.05,12.950000000000001,0)" xlink:href="#ab"/><use transform="matrix(0.05,0,0,0.05,17.950000000000003,0)" xlink:href="#ac"/><use transform="matrix(0.05,0,0,0.05,27.950000000000003,0)" xlink:href="#ad"/><use transform="matrix(0.05,0,0,0.05,32.95,0)" xlink:href="#ae"/></g><path d="M23 0v-37h61v-169l-59 37v-38l62-41h46v211h57V0H23" id="af"/><path d="M33-154v-36h34v36H33zM33 0v-36h34V0H33" id="ag"/><g id="c"><use transform="matrix(0.05,0,0,0.05,0,0)" xlink:href="#aa"/><use transform="matrix(0.05,0,0,0.05,12.950000000000001,0)" xlink:href="#af"/><use transform="matrix(0.05,0,0,0.05,22.950000000000003,0)" xlink:href="#ag"/></g><path d="M127-220V0H93v-220H8v-28h204v28h-85" id="ah"/><path d="M106-169C34-169 62-67 57 0H25v-261h32l-1 103c12-21 28-36 61-36 89 0 53 116 60 194h-32v-121c2-32-8-49-39-48" id="ai"/><path d="M100-194c63 0 86 42 84 106H49c0 40 14 67 53 68 26 1 43-12 49-29l28 8c-11 28-37 45-77 45C44 4 14-33 15-96c1-61 26-98 85-98zm52 81c6-60-76-77-97-28-3 7-6 17-6 28h103" id="aj"/><g id="d"><use transform="matrix(0.05,0,0,0.05,0,0)" xlink:href="#ah"/><use transform="matrix(0.05,0,0,0.05,10.950000000000001,0)" xlink:href="#ai"/><use transform="matrix(0.05,0,0,0.05,20.950000000000003,0)" xlink:href="#aj"/></g><path d="M114-163C36-179 61-72 57 0H25l-1-190h30c1 12-1 29 2 39 6-27 23-49 58-41v29" id="ak"/><path d="M100-194c62-1 85 37 85 99 1 63-27 99-86 99S16-35 15-95c0-66 28-99 85-99zM99-20c44 1 53-31 53-75 0-43-8-75-51-75s-53 32-53 75 10 74 51 75" id="al"/><path d="M210-169c-67 3-38 105-44 169h-31v-121c0-29-5-50-35-48C34-165 62-65 56 0H25l-1-190h30c1 10-1 24 2 32 10-44 99-50 107 0 11-21 27-35 58-36 85-2 47 119 55 194h-31v-121c0-29-5-49-35-48" id="am"/><g id="e"><use transform="matrix(0.05,0,0,0.05,0,0)" xlink:href="#ak"/><use transform="matrix(0.05,0,0,0.05,5.95,0)" xlink:href="#al"/><use transform="matrix(0.05,0,0,0.05,15.949999999999998,0)" xlink:href="#al"/><use transform="matrix(0.05,0,0,0.05,25.950000000000003,0)" xlink:href="#am"/></g><path d="M141-36C126-15 110 5 73 4 37 3 15-17 15-53c-1-64 63-63 125-63 3-35-9-54-41-54-24 1-41 7-42 31l-33-3c5-37 33-52 76-52 45 0 72 20 72 64v82c-1 20 7 32 28 27v20c-31 9-61-2-59-35zM48-53c0 20 12 33 32 33 41-3 63-29 60-74-43 2-92-5-92 41" id="an"/><path d="M135-143c-3-34-86-38-87 0 15 53 115 12 119 90S17 21 10-45l28-5c4 36 97 45 98 0-10-56-113-15-118-90-4-57 82-63 122-42 12 7 21 19 24 35" id="ao"/><g id="f"><use transform="matrix(0.05,0,0,0.05,0,0)" xlink:href="#ai"/><use transform="matrix(0.05,0,0,0.05,10,0)" xlink:href="#an"/><use transform="matrix(0.05,0,0,0.05,20,0)" xlink:href="#ao"/></g><path d="M59-47c-2 24 18 29 38 22v24C64 9 27 4 27-40v-127H5v-23h24l9-43h21v43h35v23H59v120" id="ap"/><g id="g"><use transform="matrix(0.05,0,0,0.05,0,0)" xlink:href="#an"/><use transform="matrix(0.05,0,0,0.05,10,0)" xlink:href="#ap"/></g><path d="M24 0v-261h32V0H24" id="aq"/><g id="h"><use transform="matrix(0.05,0,0,0.05,0,0)" xlink:href="#aq"/><use transform="matrix(0.05,0,0,0.05,3.95,0)" xlink:href="#aj"/><use transform="matrix(0.05,0,0,0.05,13.949999999999998,0)" xlink:href="#an"/><use transform="matrix(0.05,0,0,0.05,23.95,0)" xlink:href="#ao"/><use transform="matrix(0.05,0,0,0.05,32.95,0)" xlink:href="#ap"/></g><path d="M117-194c89-4 53 116 60 194h-32v-121c0-31-8-49-39-48C34-167 62-67 57 0H25l-1-190h30c1 10-1 24 2 32 11-22 29-35 61-36" id="ar"/><g id="i"><use transform="matrix(0.05,0,0,0.05,0,0)" xlink:href="#al"/><use transform="matrix(0.05,0,0,0.05,10,0)" xlink:href="#ar"/><use transform="matrix(0.05,0,0,0.05,20,0)" xlink:href="#aj"/></g><path d="M115-194c53 0 69 39 70 98 0 66-23 100-70 100C84 3 66-7 56-30L54 0H23l1-261h32v101c10-23 28-34 59-34zm-8 174c40 0 45-34 45-75 0-40-5-75-45-74-42 0-51 32-51 76 0 43 10 73 51 73" id="as"/><path d="M96-169c-40 0-48 33-48 73s9 75 48 75c24 0 41-14 43-38l32 2c-6 37-31 61-74 61-59 0-76-41-82-99-10-93 101-131 147-64 4 7 5 14 7 22l-32 3c-4-21-16-35-41-35" id="at"/><path d="M143 0L79-87 56-68V0H24v-261h32v163l83-92h37l-77 82L181 0h-38" id="au"/><g id="j"><use transform="matrix(0.05,0,0,0.05,0,0)" xlink:href="#as"/><use transform="matrix(0.05,0,0,0.05,10,0)" xlink:href="#aq"/><use transform="matrix(0.05,0,0,0.05,13.949999999999998,0)" xlink:href="#an"/><use transform="matrix(0.05,0,0,0.05,23.95,0)" xlink:href="#at"/><use transform="matrix(0.05,0,0,0.05,32.95,0)" xlink:href="#au"/></g><g id="k"><use transform="matrix(0.05,0,0,0.05,0,0)" xlink:href="#at"/><use transform="matrix(0.05,0,0,0.05,9,0)" xlink:href="#an"/><use transform="matrix(0.05,0,0,0.05,19,0)" xlink:href="#ap"/></g><g id="l"><use transform="matrix(0.05,0,0,0.05,0,0)" xlink:href="#aa"/><use transform="matrix(0.05,0,0,0.05,12.950000000000001,0)" xlink:href="#ab"/><use transform="matrix(0.05,0,0,0.05,17.950000000000003,0)" xlink:href="#ac"/><use transform="matrix(0.05,0,0,0.05,27.950000000000003,0)" xlink:href="#ad"/><use transform="matrix(0.05,0,0,0.05,32.95,0)" xlink:href="#ae"/></g><path d="M182-182c0 78-84 86-111 141h115V0H12c-6-101 99-100 120-180 1-22-12-31-33-32-23 0-32 14-35 34l-49-3c5-45 32-70 84-70 51 0 83 22 83 69" id="av"/><path d="M35-132v-50h50v50H35zM35 0v-49h50V0H35" id="aw"/><g id="m"><use transform="matrix(0.05,0,0,0.05,0,0)" xlink:href="#aa"/><use transform="matrix(0.05,0,0,0.05,12.950000000000001,0)" xlink:href="#av"/><use transform="matrix(0.05,0,0,0.05,22.950000000000003,0)" xlink:href="#aw"/></g><path d="M185-189c-5-48-123-54-124 2 14 75 158 14 163 119 3 78-121 87-175 55-17-10-28-26-33-46l33-7c5 56 141 63 141-1 0-78-155-14-162-118-5-82 145-84 179-34 5 7 8 16 11 25" id="ax"/><g id="n"><use transform="matrix(0.05,0,0,0.05,0,0)" xlink:href="#ax"/><use transform="matrix(0.05,0,0,0.05,12,0)" xlink:href="#aj"/><use transform="matrix(0.05,0,0,0.05,22,0)" xlink:href="#an"/><use transform="matrix(0.05,0,0,0.05,32,0)" xlink:href="#ak"/><use transform="matrix(0.05,0,0,0.05,37.95,0)" xlink:href="#at"/><use transform="matrix(0.05,0,0,0.05,46.95,0)" xlink:href="#ai"/></g><g id="o"><use transform="matrix(0.05,0,0,0.05,0,0)" xlink:href="#ap"/><use transform="matrix(0.05,0,0,0.05,5,0)" xlink:href="#aj"/><use transform="matrix(0.05,0,0,0.05,15,0)" xlink:href="#an"/><use transform="matrix(0.05,0,0,0.05,25,0)" xlink:href="#am"/></g><path d="M101-234c-31-9-42 10-38 44h38v23H63V0H32v-167H5v-23h27c-7-52 17-82 69-68v24" id="ay"/><path d="M206 0h-36l-40-164L89 0H53L-1-190h32L70-26l43-164h34l41 164 42-164h31" id="az"/><path d="M85-194c31 0 48 13 60 33l-1-100h32l1 261h-30c-2-10 0-23-3-31C134-8 116 4 85 4 32 4 16-35 15-94c0-66 23-100 70-100zm9 24c-40 0-46 34-46 75 0 40 6 74 45 74 42 0 51-32 51-76 0-42-9-74-50-73" id="aA"/><g id="p"><use transform="matrix(0.05,0,0,0.05,0,0)" xlink:href="#ay"/><use transform="matrix(0.05,0,0,0.05,5,0)" xlink:href="#al"/><use transform="matrix(0.05,0,0,0.05,15,0)" xlink:href="#aq"/><use transform="matrix(0.05,0,0,0.05,18.95,0)" xlink:href="#aq"/><use transform="matrix(0.05,0,0,0.05,22.9,0)" xlink:href="#al"/><use transform="matrix(0.05,0,0,0.05,32.9,0)" xlink:href="#az"/><use transform="matrix(0.05,0,0,0.05,45.85,0)" xlink:href="#aj"/><use transform="matrix(0.05,0,0,0.05,55.85,0)" xlink:href="#aA"/></g><path d="M194 0L95-120 63-95V0H30v-248h33v124l119-124h40L117-140 236 0h-42" id="aB"/><path d="M24-231v-30h32v30H24zM24 0v-190h32V0H24" id="aC"/><path d="M179-190L93 31C79 59 56 82 12 73V49c39 6 53-20 64-50L1-190h34L92-34l54-156h33" id="aD"/><path d="M16-82v-28h88v28H16" id="aE"/><g id="q"><use transform="matrix(0.05,0,0,0.05,0,0)" xlink:href="#aB"/><use transform="matrix(0.05,0,0,0.05,12,0)" xlink:href="#aC"/><use transform="matrix(0.05,0,0,0.05,15.949999999999998,0)" xlink:href="#ap"/><use transform="matrix(0.05,0,0,0.05,20.95,0)" xlink:href="#ap"/><use transform="matrix(0.05,0,0,0.05,25.950000000000003,0)" xlink:href="#aD"/><use transform="matrix(0.05,0,0,0.05,34.95,0)" xlink:href="#aE"/><use transform="matrix(0.05,0,0,0.05,40.900000000000006,0)" xlink:href="#au"/><use transform="matrix(0.05,0,0,0.05,49.900000000000006,0)" xlink:href="#aC"/><use transform="matrix(0.05,0,0,0.05,53.85,0)" xlink:href="#ap"/><use transform="matrix(0.05,0,0,0.05,58.85,0)" xlink:href="#ap"/><use transform="matrix(0.05,0,0,0.05,63.85,0)" xlink:href="#aD"/></g><g id="r"><use transform="matrix(0.05,0,0,0.05,0,0)" xlink:href="#ax"/><use transform="matrix(0.05,0,0,0.05,12,0)" xlink:href="#aj"/><use transform="matrix(0.05,0,0,0.05,22,0)" xlink:href="#an"/><use transform="matrix(0.05,0,0,0.05,32,0)" xlink:href="#ak"/><use transform="matrix(0.05,0,0,0.05,37.95,0)" xlink:href="#at"/><use transform="matrix(0.05,0,0,0.05,46.95,0)" xlink:href="#ai"/></g><path d="M30-248c87 1 191-15 191 75 0 78-77 80-158 76V0H30v-248zm33 125c57 0 124 11 124-50 0-59-68-47-124-48v98" id="aF"/><g id="s"><use transform="matrix(0.05,0,0,0.05,0,0)" xlink:href="#aF"/><use transform="matrix(0.05,0,0,0.05,12,0)" xlink:href="#ak"/><use transform="matrix(0.05,0,0,0.05,17.95,0)" xlink:href="#al"/><use transform="matrix(0.05,0,0,0.05,27.950000000000003,0)" xlink:href="#at"/><use transform="matrix(0.05,0,0,0.05,36.95,0)" xlink:href="#aj"/><use transform="matrix(0.05,0,0,0.05,46.95,0)" xlink:href="#ao"/><use transform="matrix(0.05,0,0,0.05,55.95,0)" xlink:href="#ao"/></g><path d="M24 0v-248h195v40H76v63h132v40H76v65h150V0H24" id="aG"/><path d="M128 0H69L1-190h53L99-40l48-150h52" id="aH"/><path d="M88-194c31-1 46 15 58 34l-1-101h50l1 261h-48c-2-10 0-23-3-31C134-8 116 4 84 4 32 4 16-41 15-95c0-56 19-97 73-99zm17 164c33 0 40-30 41-66 1-37-9-64-41-64s-38 30-39 65c0 43 13 65 39 65" id="aI"/><path d="M185-48c-13 30-37 53-82 52C43 2 14-33 14-96s30-98 90-98c62 0 83 45 84 108H66c0 31 8 55 39 56 18 0 30-7 34-22zm-45-69c5-46-57-63-70-21-2 6-4 13-4 21h74" id="aJ"/><path d="M135-194c87-1 58 113 63 194h-50c-7-57 23-157-34-157-59 0-34 97-39 157H25l-1-190h47c2 12-1 28 3 38 12-26 28-41 61-42" id="aK"/><path d="M190-63c-7 42-38 67-86 67-59 0-84-38-90-98-12-110 154-137 174-36l-49 2c-2-19-15-32-35-32-30 0-35 28-38 64-6 74 65 87 74 30" id="aL"/><g id="t"><use transform="matrix(0.05,0,0,0.05,0,0)" xlink:href="#aG"/><use transform="matrix(0.05,0,0,0.05,12,0)" xlink:href="#aH"/><use transform="matrix(0.05,0,0,0.05,22,0)" xlink:href="#ad"/><use transform="matrix(0.05,0,0,0.05,27,0)" xlink:href="#aI"/><use transform="matrix(0.05,0,0,0.05,37.95,0)" xlink:href="#aJ"/><use transform="matrix(0.05,0,0,0.05,47.95,0)" xlink:href="#aK"/><use transform="matrix(0.05,0,0,0.05,58.900000000000006,0)" xlink:href="#aL"/><use transform="matrix(0.05,0,0,0.05,68.9,0)" xlink:href="#aJ"/></g><g id="u"><use transform="matrix(0.05,0,0,0.05,0,0)" xlink:href="#aG"/><use transform="matrix(0.05,0,0,0.05,12,0)" xlink:href="#af"/><use transform="matrix(0.05,0,0,0.05,22,0)" xlink:href="#ag"/></g><path d="M233-177c-1 41-23 64-60 70L243 0h-38l-65-103H63V0H30v-248c88 3 205-21 203 71zM63-129c60-2 137 13 137-47 0-61-80-42-137-45v92" id="aM"/><path d="M115-194c55 1 70 41 70 98S169 2 115 4C84 4 66-9 55-30l1 105H24l-1-265h31l2 30c10-21 28-34 59-34zm-8 174c40 0 45-34 45-75s-6-73-45-74c-42 0-51 32-51 76 0 43 10 73 51 73" id="aN"/><g id="v"><use transform="matrix(0.05,0,0,0.05,0,0)" xlink:href="#aM"/><use transform="matrix(0.05,0,0,0.05,12.950000000000001,0)" xlink:href="#aj"/><use transform="matrix(0.05,0,0,0.05,22.950000000000003,0)" xlink:href="#aN"/><use transform="matrix(0.05,0,0,0.05,32.95,0)" xlink:href="#al"/><use transform="matrix(0.05,0,0,0.05,42.95,0)" xlink:href="#ak"/><use transform="matrix(0.05,0,0,0.05,48.900000000000006,0)" xlink:href="#ap"/></g><g id="w"><use transform="matrix(0.05,0,0,0.05,0,0)" xlink:href="#al"/><use transform="matrix(0.05,0,0,0.05,10,0)" xlink:href="#ay"/></g><path d="M212-179c-10-28-35-45-73-45-59 0-87 40-87 99 0 60 29 101 89 101 43 0 62-24 78-52l27 14C228-24 195 4 139 4 59 4 22-46 18-125c-6-104 99-153 187-111 19 9 31 26 39 46" id="aO"/><g id="x"><use transform="matrix(0.05,0,0,0.05,0,0)" xlink:href="#aO"/><use transform="matrix(0.05,0,0,0.05,12.950000000000001,0)" xlink:href="#an"/><use transform="matrix(0.05,0,0,0.05,22.950000000000003,0)" xlink:href="#ap"/></g><path d="M63-220v92h138v28H63V0H30v-248h175v28H63" id="aP"/><path d="M177-190C167-65 218 103 67 71c-23-6-38-20-44-43l32-5c15 47 100 32 89-28v-30C133-14 115 1 83 1 29 1 15-40 15-95c0-56 16-97 71-98 29-1 48 16 59 35 1-10 0-23 2-32h30zM94-22c36 0 50-32 50-73 0-42-14-75-50-75-39 0-46 34-46 75s6 73 46 73" id="aQ"/><g id="y"><use transform="matrix(0.05,0,0,0.05,0,0)" xlink:href="#aP"/><use transform="matrix(0.05,0,0,0.05,10.950000000000001,0)" xlink:href="#aC"/><use transform="matrix(0.05,0,0,0.05,14.9,0)" xlink:href="#ar"/><use transform="matrix(0.05,0,0,0.05,24.900000000000002,0)" xlink:href="#aA"/><use transform="matrix(0.05,0,0,0.05,34.900000000000006,0)" xlink:href="#aC"/><use transform="matrix(0.05,0,0,0.05,38.85000000000001,0)" xlink:href="#ar"/><use transform="matrix(0.05,0,0,0.05,48.85000000000001,0)" xlink:href="#aQ"/><use transform="matrix(0.05,0,0,0.05,58.85,0)" xlink:href="#ao"/></g><g id="z"><use transform="matrix(0.05,0,0,0.05,0,0)" xlink:href="#ay"/><use transform="matrix(0.05,0,0,0.05,5,0)" xlink:href="#ak"/><use transform="matrix(0.05,0,0,0.05,10.95,0)" xlink:href="#al"/><use transform="matrix(0.05,0,0,0.05,20.95,0)" xlink:href="#am"/></g><g id="A"><use transform="matrix(0.05,0,0,0.05,0,0)" xlink:href="#ap"/><use transform="matrix(0.05,0,0,0.05,5,0)" xlink:href="#ai"/><use transform="matrix(0.05,0,0,0.05,15,0)" xlink:href="#aj"/></g><g id="B"><use transform="matrix(0.05,0,0,0.05,0,0)" xlink:href="#ao"/><use transform="matrix(0.05,0,0,0.05,9,0)" xlink:href="#aj"/><use transform="matrix(0.05,0,0,0.05,19,0)" xlink:href="#an"/><use transform="matrix(0.05,0,0,0.05,29,0)" xlink:href="#ak"/><use transform="matrix(0.05,0,0,0.05,34.95,0)" xlink:href="#at"/><use transform="matrix(0.05,0,0,0.05,43.95,0)" xlink:href="#ai"/></g><g id="C"><use transform="matrix(0.05,0,0,0.05,0,0)" xlink:href="#aN"/><use transform="matrix(0.05,0,0,0.05,10,0)" xlink:href="#ak"/><use transform="matrix(0.05,0,0,0.05,15.949999999999998,0)" xlink:href="#al"/><use transform="matrix(0.05,0,0,0.05,25.950000000000003,0)" xlink:href="#at"/><use transform="matrix(0.05,0,0,0.05,34.95,0)" xlink:href="#aj"/><use transform="matrix(0.05,0,0,0.05,44.95,0)" xlink:href="#ao"/><use transform="matrix(0.05,0,0,0.05,53.95,0)" xlink:href="#ao"/></g><path d="M115-3C79 11 28 4 28-45v-112H4v-33h27l15-45h31v45h36v33H77v99c-1 23 16 31 38 25v30" id="aR"/><path d="M144 0l-44-69L55 0H2l70-98-66-92h53l41 62 40-62h54l-67 91 71 99h-54" id="aS"/><g id="D"><use transform="matrix(0.05,0,0,0.05,0,0)" xlink:href="#aa"/><use transform="matrix(0.05,0,0,0.05,12.950000000000001,0)" xlink:href="#Y"/><use transform="matrix(0.05,0,0,0.05,23.900000000000002,0)" xlink:href="#aK"/><use transform="matrix(0.05,0,0,0.05,34.85,0)" xlink:href="#aR"/><use transform="matrix(0.05,0,0,0.05,40.800000000000004,0)" xlink:href="#aJ"/><use transform="matrix(0.05,0,0,0.05,50.800000000000004,0)" xlink:href="#aS"/><use transform="matrix(0.05,0,0,0.05,60.800000000000004,0)" xlink:href="#aR"/></g><g id="E"><use transform="matrix(0.05,0,0,0.05,0,0)" xlink:href="#aa"/><use transform="matrix(0.05,0,0,0.05,12.950000000000001,0)" xlink:href="#X"/><use transform="matrix(0.05,0,0,0.05,23.900000000000002,0)" xlink:href="#af"/><use transform="matrix(0.05,0,0,0.05,33.900000000000006,0)" xlink:href="#aw"/></g><g id="F"><use transform="matrix(0.05,0,0,0.05,0,0)" xlink:href="#ah"/><use transform="matrix(0.05,0,0,0.05,10.950000000000001,0)" xlink:href="#ai"/><use transform="matrix(0.05,0,0,0.05,20.950000000000003,0)" xlink:href="#aj"/></g><g id="G"><use transform="matrix(0.05,0,0,0.05,0,0)" xlink:href="#ak"/><use transform="matrix(0.05,0,0,0.05,5.95,0)" xlink:href="#al"/><use transform="matrix(0.05,0,0,0.05,15.949999999999998,0)" xlink:href="#al"/><use transform="matrix(0.05,0,0,0.05,25.950000000000003,0)" xlink:href="#am"/></g><g id="H"><use transform="matrix(0.05,0,0,0.05,0,0)" xlink:href="#aC"/><use transform="matrix(0.05,0,0,0.05,3.95,0)" xlink:href="#ao"/></g><path d="M33 0v-248h34V0H33" id="aT"/><g id="I"><use transform="matrix(0.05,0,0,0.05,0,0)" xlink:href="#aF"/><use transform="matrix(0.05,0,0,0.05,12,0)" xlink:href="#aB"/><use transform="matrix(0.05,0,0,0.05,24,0)" xlink:href="#aT"/></g><path d="M155-56V0h-30v-56H8v-25l114-167h33v167h35v25h-35zm-30-156c-27 46-58 90-88 131h88v-131" id="aU"/><path d="M27 0v-27h64v-190l-56 39v-29l58-41h29v221h61V0H27" id="aV"/><path d="M126-127c33 6 58 20 58 59 0 88-139 92-164 29-3-8-5-16-6-25l32-3c6 27 21 44 54 44 32 0 52-15 52-46 0-38-36-46-79-43v-28c39 1 72-4 72-42 0-27-17-43-46-43-28 0-47 15-49 41l-32-3c6-42 35-63 81-64 48-1 79 21 79 65 0 36-21 52-52 59" id="aW"/><g id="J"><use transform="matrix(0.05,0,0,0.05,0,0)" xlink:href="#aU"/><use transform="matrix(0.05,0,0,0.05,10,0)" xlink:href="#aV"/><use transform="matrix(0.05,0,0,0.05,20,0)" xlink:href="#aW"/></g><path d="M24 0v-248h52V0H24" id="aX"/><path d="M121-226c-27-7-43 5-38 36h38v33H83V0H34v-157H6v-33h28c-9-59 32-81 87-68v32" id="aY"/><path d="M135-150c-39-12-60 13-60 57V0H25l-1-190h47c2 13-1 29 3 40 6-28 27-53 61-41v41" id="aZ"/><g id="K"><use transform="matrix(0.05,0,0,0.05,0,0)" xlink:href="#aX"/><use transform="matrix(0.05,0,0,0.05,5,0)" xlink:href="#aK"/><use transform="matrix(0.05,0,0,0.05,15.950000000000001,0)" xlink:href="#aY"/><use transform="matrix(0.05,0,0,0.05,21.900000000000002,0)" xlink:href="#aJ"/><use transform="matrix(0.05,0,0,0.05,31.900000000000002,0)" xlink:href="#aZ"/><use transform="matrix(0.05,0,0,0.05,38.900000000000006,0)" xlink:href="#aJ"/><use transform="matrix(0.05,0,0,0.05,48.900000000000006,0)" xlink:href="#aK"/><use transform="matrix(0.05,0,0,0.05,59.85,0)" xlink:href="#aL"/><use transform="matrix(0.05,0,0,0.05,69.85000000000001,0)" xlink:href="#aJ"/></g><path d="M240-174c0 40-23 61-54 70L253 0h-59l-57-94H76V0H24v-248c93 4 217-23 216 74zM76-134c48-2 112 12 112-38 0-48-66-32-112-35v73" id="ba"/><path d="M85 4C-2 5 27-109 22-190h50c7 57-23 150 33 157 60-5 35-97 40-157h50l1 190h-47c-2-12 1-28-3-38-12 25-28 42-61 42" id="bb"/><g id="L"><use transform="matrix(0.05,0,0,0.05,0,0)" xlink:href="#ba"/><use transform="matrix(0.05,0,0,0.05,12.950000000000001,0)" xlink:href="#bb"/><use transform="matrix(0.05,0,0,0.05,23.900000000000002,0)" xlink:href="#ab"/><use transform="matrix(0.05,0,0,0.05,28.900000000000002,0)" xlink:href="#aJ"/></g><g id="M"><use transform="matrix(0.05,0,0,0.05,0,0)" xlink:href="#aX"/><use transform="matrix(0.05,0,0,0.05,5,0)" xlink:href="#ba"/><use transform="matrix(0.05,0,0,0.05,17.950000000000003,0)" xlink:href="#af"/><use transform="matrix(0.05,0,0,0.05,27.950000000000003,0)" xlink:href="#aw"/></g><path d="M160-131c35 5 61 23 61 61C221 17 115-2 30 0v-248c76 3 177-17 177 60 0 33-19 50-47 57zm-97-11c50-1 110 9 110-42 0-47-63-36-110-37v79zm0 115c55-2 124 14 124-45 0-56-70-42-124-44v89" id="bc"/><g id="N"><use transform="matrix(0.05,0,0,0.05,0,0)" xlink:href="#bc"/><use transform="matrix(0.05,0,0,0.05,12,0)" xlink:href="#aD"/></g><g id="O"><use transform="matrix(0.05,0,0,0.05,0,0)" xlink:href="#ay"/><use transform="matrix(0.05,0,0,0.05,5,0)" xlink:href="#al"/><use transform="matrix(0.05,0,0,0.05,15,0)" xlink:href="#aq"/><use transform="matrix(0.05,0,0,0.05,18.95,0)" xlink:href="#aq"/><use transform="matrix(0.05,0,0,0.05,22.9,0)" xlink:href="#al"/><use transform="matrix(0.05,0,0,0.05,32.9,0)" xlink:href="#az"/><use transform="matrix(0.05,0,0,0.05,45.85,0)" xlink:href="#aC"/><use transform="matrix(0.05,0,0,0.05,49.800000000000004,0)" xlink:href="#ar"/><use transform="matrix(0.05,0,0,0.05,59.800000000000004,0)" xlink:href="#aQ"/></g><use transform="matrix(0.05,0,0,0.05,0,0)" xlink:href="#an" id="P"/><g id="Q"><use transform="matrix(0.05,0,0,0.05,0,0)" xlink:href="#aQ"/><use transform="matrix(0.05,0,0,0.05,10,0)" xlink:href="#al"/><use transform="matrix(0.05,0,0,0.05,20,0)" xlink:href="#al"/><use transform="matrix(0.05,0,0,0.05,30,0)" xlink:href="#aA"/></g><g id="R"><use transform="matrix(0.05,0,0,0.05,0,0)" xlink:href="#ao"/><use transform="matrix(0.05,0,0,0.05,9,0)" xlink:href="#aj"/><use transform="matrix(0.05,0,0,0.05,19,0)" xlink:href="#an"/><use transform="matrix(0.05,0,0,0.05,29,0)" xlink:href="#ak"/><use transform="matrix(0.05,0,0,0.05,34.95,0)" xlink:href="#at"/><use transform="matrix(0.05,0,0,0.05,43.95,0)" xlink:href="#ai"/></g><g id="S"><use transform="matrix(0.05,0,0,0.05,0,0)" xlink:href="#aN"/><use transform="matrix(0.05,0,0,0.05,10,0)" xlink:href="#ak"/><use transform="matrix(0.05,0,0,0.05,15.949999999999998,0)" xlink:href="#al"/><use transform="matrix(0.05,0,0,0.05,25.950000000000003,0)" xlink:href="#at"/><use transform="matrix(0.05,0,0,0.05,34.95,0)" xlink:href="#aj"/><use transform="matrix(0.05,0,0,0.05,44.95,0)" xlink:href="#ao"/><use transform="matrix(0.05,0,0,0.05,53.95,0)" xlink:href="#ao"/></g><g id="T"><use transform="matrix(0.05,0,0,0.05,0,0)" xlink:href="#az"/><use transform="matrix(0.05,0,0,0.05,12.950000000000001,0)" xlink:href="#aj"/></g><g id="U"><use transform="matrix(0.05,0,0,0.05,0,0)" xlink:href="#at"/><use transform="matrix(0.05,0,0,0.05,9,0)" xlink:href="#an"/><use transform="matrix(0.05,0,0,0.05,19,0)" xlink:href="#ar"/></g><g id="V"><use transform="matrix(0.05,0,0,0.05,0,0)" xlink:href="#ay"/><use transform="matrix(0.05,0,0,0.05,5,0)" xlink:href="#aC"/><use transform="matrix(0.05,0,0,0.05,8.95,0)" xlink:href="#ar"/><use transform="matrix(0.05,0,0,0.05,18.95,0)" xlink:href="#aA"/></g><g id="W"><use transform="matrix(0.05,0,0,0.05,0,0)" xlink:href="#at"/><use transform="matrix(0.05,0,0,0.05,9,0)" xlink:href="#an"/><use transform="matrix(0.05,0,0,0.05,19,0)" xlink:href="#ap"/><use transform="matrix(0.05,0,0,0.05,24,0)" xlink:href="#ao"/></g></defs></g></svg>