<svg xmlns="http://www.w3.org/2000/svg" xmlns:xlink="http://www.w3.org/1999/xlink" xmlns:lucid="lucid" width="2656" height="3456"><g transform="translate(0 0)" lucid:page-tab-id="0_0"><path d="M1231.5 680h200l20 20v80h-220z" stroke="#d9be60" stroke-width="2" fill="#ffdf71"/><path d="M1431.5 680v20h20" fill="#d9be60"/><use xlink:href="#a" transform="matrix(1,0,0,1,1236.5,685) translate(22.69999999999999 37.8)"/><use xlink:href="#b" transform="matrix(1,0,0,1,1236.5,685) translate(99.45 37.8)"/><use xlink:href="#c" transform="matrix(1,0,0,1,1236.5,685) translate(132.4 37.8)"/><use xlink:href="#d" transform="matrix(1,0,0,1,1236.5,685) translate(24.599999999999994 59.4)"/><use xlink:href="#e" transform="matrix(1,0,0,1,1236.5,685) translate(86.5 59.4)"/><use xlink:href="#f" transform="matrix(1,0,0,1,1236.5,685) translate(104.45 59.4)"/><use xlink:href="#g" transform="matrix(1,0,0,1,1236.5,685) translate(119.45 59.4)"/><path d="M1080 300h200l20 20v80h-220z" stroke="#d9be60" stroke-width="2" fill="#ffdf71"/><path d="M1280 300v20h20" fill="#d9be60"/><use xlink:href="#a" transform="matrix(1,0,0,1,1085,305) translate(22.69999999999999 37.8)"/><use xlink:href="#h" transform="matrix(1,0,0,1,1085,305) translate(99.45 37.8)"/><use xlink:href="#c" transform="matrix(1,0,0,1,1085,305) translate(132.4 37.8)"/><use xlink:href="#d" transform="matrix(1,0,0,1,1085,305) translate(27.625 59.4)"/><use xlink:href="#e" transform="matrix(1,0,0,1,1085,305) translate(89.525 59.4)"/><use xlink:href="#i" transform="matrix(1,0,0,1,1085,305) translate(107.47500000000001 59.4)"/><use xlink:href="#f" transform="matrix(1,0,0,1,1085,305) translate(137.47500000000002 59.4)"/><use xlink:href="#j" transform="matrix(1,0,0,1,1085,305) translate(152.47500000000002 59.4)"/><path d="M1094.17 100H1300v98h-205.83z" stroke="#000" stroke-width="2" fill="#fff"/><use xlink:href="#k" transform="matrix(1,0,0,1,1099.166666666667,105) translate(38.79999999999999 36.8)"/><use xlink:href="#l" transform="matrix(1,0,0,1,1099.166666666667,105) translate(75.3 36.8)"/><use xlink:href="#m" transform="matrix(1,0,0,1,1099.166666666667,105) translate(129.25 36.8)"/><use xlink:href="#n" transform="matrix(1,0,0,1,1099.166666666667,105) translate(38.099999999999994 58.4)"/><use xlink:href="#o" transform="matrix(1,0,0,1,1099.166666666667,105) translate(100 58.4)"/><use xlink:href="#p" transform="matrix(1,0,0,1,1099.166666666667,105) translate(134 58.4)"/><path d="M1222.92 579l.05 2.06.15 1.97.23 1.88.32 1.82.4 1.77.5 1.7.56 1.7.67 1.7.75 1.66.87 1.7.98 1.7 1.13 1.72 1.28 1.78 1.5 1.85 1.72 1.95 2.02 2.07 2.44 2.24 3 2.5 3.85 2.9 5.42 3.66 10.67 6.42 22.16 12.94 5.42 3.66 3.86 2.9 3 2.5 2.42 2.24 2.03 2.07 1.73 1.94 1.48 1.84 1.3 1.78 1.12 1.73 1 1.7.2.42" stroke="#000" stroke-width="2" fill="none"/><path d="M1223.9 578.8l-1.96.4-.24-1.2h2.04zM1310.64 675.86l-7.9-12.76 9-2.2z"/><path d="M1311.4 679l-10.23-16.54 11.68-2.86zm-7.08-15.25l5.55 8.96.78-10.5z"/><path d="M1197.08 199l-.42 18.6-.95 12.8-1.84 14.37-3.15 22.82-.94 12.8v.37" stroke="#000" stroke-width="2" fill="none"/><path d="M1198.08 199.02l-2-.04.03-.98h2zM1194.37 281.6l-4.96 14.16-4.3-14.36z"/><path d="M1195.77 280.64l-6.44 18.36-5.58-18.63zm-6.3 11.9l3.5-9.96-6.52-.15z"/><path d="M1260 840h205.83v98H1260z" stroke="#000" stroke-width="2" fill="#fff"/><use xlink:href="#q" transform="matrix(1,0,0,1,1265,845) translate(9.150000000000006 26)"/><use xlink:href="#r" transform="matrix(1,0,0,1,1265,845) translate(63.10000000000001 26)"/><use xlink:href="#s" transform="matrix(1,0,0,1,1265,845) translate(97.00000000000001 26)"/><use xlink:href="#t" transform="matrix(1,0,0,1,1265,845) translate(158.9 26)"/><use xlink:href="#u" transform="matrix(1,0,0,1,1265,845) translate(176.85 26)"/><use xlink:href="#v" transform="matrix(1,0,0,1,1265,845) translate(40.074999999999996 47.6)"/><use xlink:href="#w" transform="matrix(1,0,0,1,1265,845) translate(110.92500000000001 47.6)"/><use xlink:href="#x" transform="matrix(1,0,0,1,1265,845) translate(130.925 47.6)"/><use xlink:href="#y" transform="matrix(1,0,0,1,1265,845) translate(22.125 69.2)"/><use xlink:href="#z" transform="matrix(1,0,0,1,1265,845) translate(69.025 69.2)"/><use xlink:href="#A" transform="matrix(1,0,0,1,1265,845) translate(112.925 69.2)"/><path d="M1120 480h205.83v98H1120z" stroke="#000" stroke-width="2" fill="#fff"/><use xlink:href="#q" transform="matrix(1,0,0,1,1125,485) translate(56.574999999999996 36.8)"/><use xlink:href="#B" transform="matrix(1,0,0,1,1125,485) translate(110.525 36.8)"/><use xlink:href="#C" transform="matrix(1,0,0,1,1125,485) translate(4.674999999999997 58.4)"/><use xlink:href="#t" transform="matrix(1,0,0,1,1125,485) translate(66.575 58.4)"/><use xlink:href="#D" transform="matrix(1,0,0,1,1125,485) translate(84.525 58.4)"/><use xlink:href="#E" transform="matrix(1,0,0,1,1125,485) translate(99.525 58.4)"/><use xlink:href="#F" transform="matrix(1,0,0,1,1125,485) translate(161.425 58.4)"/><path d="M1190 401l.16 5.18.42 4.4.63 3.88.8 3.52 1 3.3 1.16 3.2 1.46 3.27 1.93 3.7 3.55 5.8 7.18 11.3 1.94 3.7 1.45 3.28 1.18 3.2.66 2.24" stroke="#000" stroke-width="2" fill="none"/><path d="M1191 400.9l-2 .2-.1-1.1h2zM1215.42 475.8l-6.42-13.57 9.2-1.18z"/><path d="M1215.83 479l-8.32-17.58 11.93-1.54zm-5.33-15.95l4.5 9.53 1.96-10.36z"/><path d="M1341.5 781l.25 5.97.6 4.7.88 4.03 1.16 3.74 1.64 4.02 8.4 17.1.15.5" stroke="#000" stroke-width="2" fill="none"/><path d="M1342.5 780.88l-2 .24-.13-1.12h2.02zM1356.85 835.8l-6.74-13.4 9.17-1.4z"/><path d="M1357.33 839l-8.73-17.38 11.88-1.82zm-5.7-15.82l4.73 9.42 1.7-10.4z"/><path d="M1480 1100c0 44.18-35.82 80-80 80s-80-35.82-80-80 35.82-80 80-80 80 35.82 80 80z" stroke="#000" stroke-width="2" fill="#fff"/><use xlink:href="#G" transform="matrix(1,0,0,1,1325,1024.9988000119995) translate(33.05 57)"/><use xlink:href="#H" transform="matrix(1,0,0,1,1325,1024.9988000119995) translate(0.42499999999998295 78.60000000000001)"/><use xlink:href="#I" transform="matrix(1,0,0,1,1325,1024.9988000119995) translate(74.725 78.60000000000001)"/><use xlink:href="#J" transform="matrix(1,0,0,1,1325,1024.9988000119995) translate(116.625 78.60000000000001)"/><use xlink:href="#K" transform="matrix(1,0,0,1,1325,1024.9988000119995) translate(45.05 100.20000000000002)"/><path d="M1362.92 939l.1 3.8.33 3.38.48 3.08.64 2.85.77 2.7.92 2.57 1.1 2.52 1.28 2.54 1.55 2.64 1.95 2.9 2.7 3.5 16.12 18.55 1.96 2.9 1.55 2.63 1.3 2.54 1.07 2.53.18.5" stroke="#000" stroke-width="2" fill="none"/><path d="M1363.9 938.86l-1.97.28-.16-1.14h2.02zM1399.45 1015.8l-6.98-13.27 9.14-1.57z"/><path d="M1400 1019l-9.06-17.22 11.85-2.03zm-6-15.7l4.9 9.32 1.52-10.44z"/><path d="M960 680h200l20 20v80H960z" stroke="#d9be60" stroke-width="2" fill="#ffdf71"/><path d="M1160 680v20h20" fill="#d9be60"/><use xlink:href="#a" transform="matrix(1,0,0,1,965,685) translate(22.69999999999999 37.8)"/><use xlink:href="#b" transform="matrix(1,0,0,1,965,685) translate(99.45 37.8)"/><use xlink:href="#c" transform="matrix(1,0,0,1,965,685) translate(132.4 37.8)"/><use xlink:href="#d" transform="matrix(1,0,0,1,965,685) translate(13.599999999999994 59.4)"/><use xlink:href="#e" transform="matrix(1,0,0,1,965,685) translate(75.5 59.4)"/><use xlink:href="#L" transform="matrix(1,0,0,1,965,685) translate(93.45 59.4)"/><path d="M1222.92 579l-.03 1.42-.1 1.36-.15 1.33-.2 1.3-.25 1.28-.3 1.25-.37 1.24-.42 1.23-.47 1.23-.55 1.23-.6 1.24-.7 1.25-.8 1.28-.86 1.3-1 1.35-1.1 1.4-1.3 1.43-1.45 1.53-1.7 1.6-1.95 1.7-2.33 1.86-2.8 2.02-3.47 2.3-4.44 2.65-6.12 3.3-10.23 4.96-37 16.9-6.13 3.3-4.44 2.66-3.45 2.28-2.8 2.03-2.33 1.86-1.97 1.7-1.68 1.6-1.46 1.53-1.3 1.43-1.1 1.4-1 1.33-.52.77" stroke="#000" stroke-width="2" fill="none"/><path d="M1223.9 579.25l-1.95-.5.2-.75h2.05zM1118.38 663.64l-8.63 12.27-.23-15z"/><path d="M1120 663.08L1108.8 679l-.3-19.45zm-9.3 9.73l6.07-8.6-6.23-1.93z"/><path d="M952.17 840H1158v98H952.17z" stroke="#000" stroke-width="2" fill="#fff"/><use xlink:href="#M" transform="matrix(1,0,0,1,957.1666666666669,844.998687392319) translate(30.625 36.8)"/><use xlink:href="#s" transform="matrix(1,0,0,1,957.1666666666669,844.998687392319) translate(90.525 36.8)"/><use xlink:href="#N" transform="matrix(1,0,0,1,957.1666666666669,844.998687392319) translate(152.425 36.8)"/><use xlink:href="#O" transform="matrix(1,0,0,1,957.1666666666669,844.998687392319) translate(39.599999999999994 58.4)"/><use xlink:href="#P" transform="matrix(1,0,0,1,957.1666666666669,844.998687392319) translate(122.45 58.4)"/><path d="M1070 781l-.2 4.46-.47 3.73-.7 3.25-.94 3-1.2 2.9-1.56 3.04-2.4 3.76-9.48 13.45-1.38 2.7" stroke="#000" stroke-width="2" fill="none"/><path d="M1071 781.16l-2-.32.15-.84h2.03zM1056.1 822.8l-7.44 13.03-1.64-14.9z"/><path d="M1057.65 822.1L1048 839l-2.12-19.34zm-8.33 10.56l5.23-9.15-6.38-1.32z"/><path d="M1040 1098c0 44.18-35.82 80-80 80s-80-35.82-80-80 35.82-80 80-80 80 35.82 80 80z" stroke="#000" stroke-width="2" fill="#fff"/><use xlink:href="#Q" transform="matrix(1,0,0,1,885,1022.998687392319) translate(33.05 57)"/><use xlink:href="#R" transform="matrix(1,0,0,1,885,1022.998687392319) translate(24.549999999999997 78.60000000000001)"/><use xlink:href="#S" transform="matrix(1,0,0,1,885,1022.998687392319) translate(96.45 78.60000000000001)"/><use xlink:href="#T" transform="matrix(1,0,0,1,885,1022.998687392319) translate(51.55 100.20000000000002)"/><path d="M1055.08 939l-.03 1.24-.1 1.2-.15 1.15-.2 1.12-.27 1.1-.33 1.1-.4 1.1-.45 1.1-.53 1.1-.6 1.13-.72 1.14-.8 1.17-.96 1.23-1.1 1.28-1.3 1.36-1.54 1.44-1.85 1.57-2.27 1.73-2.87 1.94-3.75 2.28-5.3 2.83-8.97 4.2-35.06 15.14-5.3 2.83-3.75 2.27-2.86 1.95-2.27 1.73-1.85 1.56-1.54 1.46-1.07 1.13" stroke="#000" stroke-width="2" fill="none"/><path d="M1056.03 939.33l-1.9-.66.24-.67h2.12zM971.03 1002.64l-9.78 11.37 1.23-14.94z"/><path d="M972.7 1002.25L960 1017l1.6-19.4zm-10.2 8.78l6.88-8-6.02-2.5z"/><path d="M993 1270.5c0 17.95-14.77 32.5-33 32.5s-33-14.55-33-32.5 14.77-32.5 33-32.5 33 14.55 33 32.5z" stroke="#000" stroke-width="2" fill="#ccc"/><path d="M960 1179v39.76" stroke="#000" stroke-width="2" fill="none"/><path d="M960 1178h.68l.32-.02v1.02h-2v-1.03zM960 1233.76l-4.64-14.26h9.28z"/><path d="M960 1237l-6-18.5h12zm-3.26-16.5l3.26 10.03 3.26-10.03z"/><path d="M1412 1222.23h170.36l20.3 20.3v81.24H1412z" stroke="#82b3ce" stroke-width="2" fill="#99d2f2"/><path d="M1582.36 1222.23v20.3h20.3" fill="#82b3ce"/><use xlink:href="#U" transform="matrix(1,0,0,1,1417,1227.2317486092534) translate(10.674999999999997 28)"/><use xlink:href="#V" transform="matrix(1,0,0,1,1417,1227.2317486092534) translate(115.425 28)"/><use xlink:href="#W" transform="matrix(1,0,0,1,1417,1227.2317486092534) translate(21.57499999999999 49.6)"/><use xlink:href="#X" transform="matrix(1,0,0,1,1417,1227.2317486092534) translate(51.57499999999999 49.6)"/><use xlink:href="#Y" transform="matrix(1,0,0,1,1417,1227.2317486092534) translate(93.475 49.6)"/><use xlink:href="#Z" transform="matrix(1,0,0,1,1417,1227.2317486092534) translate(127.475 49.6)"/><use xlink:href="#aa" transform="matrix(1,0,0,1,1417,1227.2317486092534) translate(36.55 71.2)"/><path d="M1440 1360h245v98h-245z" stroke="#000" stroke-width="2" fill="#fff"/><use xlink:href="#M" transform="matrix(1,0,0,1,1445,1364.9988000119997) translate(2.674999999999997 26)"/><use xlink:href="#ab" transform="matrix(1,0,0,1,1445,1364.9988000119997) translate(62.575 26)"/><use xlink:href="#I" transform="matrix(1,0,0,1,1445,1364.9988000119997) translate(98.525 26)"/><use xlink:href="#ac" transform="matrix(1,0,0,1,1445,1364.9988000119997) translate(140.425 26)"/><use xlink:href="#ad" transform="matrix(1,0,0,1,1445,1364.9988000119997) translate(203.325 26)"/><use xlink:href="#ae" transform="matrix(1,0,0,1,1445,1364.9988000119997) translate(25.125 47.6)"/><use xlink:href="#af" transform="matrix(1,0,0,1,1445,1364.9988000119997) translate(50.125 47.6)"/><use xlink:href="#ag" transform="matrix(1,0,0,1,1445,1364.9988000119997) translate(76.05 69.2)"/><use xlink:href="#ah" transform="matrix(1,0,0,1,1445,1364.9988000119997) translate(130.95 69.2)"/><path d="M1660 1580c0 44.18-35.82 80-80 80s-80-35.82-80-80 35.82-80 80-80 80 35.82 80 80z" stroke="#000" stroke-width="2" fill="#fff"/><g><use xlink:href="#ai" transform="matrix(1,0,0,1,1505,1504.9988000119997) translate(33.05 67.8)"/><use xlink:href="#aj" transform="matrix(1,0,0,1,1505,1504.9988000119997) translate(11.549999999999997 89.4)"/><use xlink:href="#ak" transform="matrix(1,0,0,1,1505,1504.9988000119997) translate(46.55 89.4)"/></g><path d="M1562.5 1459l.23 3.8.68 3.58 1.22 3.74 2.4 5.08 3.7 6.86" stroke="#000" stroke-width="2" fill="none"/><path d="M1563.47 1458.75l-1.94.5-.32-1.25h2.08zM1575.46 1496.05l-8.98-12.02 8.78-2.98z"/><path d="M1576.5 1499.1l-11.64-15.57 11.38-3.87zm-8.4-14.57l6.32 8.45-.14-10.54z"/><path d="M1507.33 1324.77l.07 1.12.18 1.05.3 1.03.45 1.03.6 1.07.85 1.13 1.17 1.26 1.75 1.48 2.82 1.87 5.86 2.96 17.6 7.67" stroke="#000" stroke-width="2" fill="none"/><path d="M1508.13 1324.16l-1.6 1.22-1.23-1.6h2.53zM1548.46 1356.63l-13.1-7.3 6.8-6.3z"/><path d="M1550.67 1359l-17-9.46 8.8-8.2zm-13.63-9.87l9.22 5.13-4.44-9.57z"/><path d="M1400 1181v.3l.03.3.04.3.05.3.07.28.07.3.1.3.12.3.13.3.17.33.2.34.2.35.27.34.3.38.36.4.43.43.5.46.6.5.74.56.9.6 1.14.7 1.46.77 1.93.9 2.64 1.1 3.82 1.35 6.07 1.8 12.33 3 42.6 9.26 6.07 1.8 3.1 1.1" stroke="#000" stroke-width="2" fill="none"/><path d="M1400 1180h.4l.3.28-1.4 1.44-1.85-1.8zM1497.2 1219.15l-13.92-5.62 5.96-7.1z"/><path d="M1499.67 1221.23l-18.04-7.3 7.73-9.2zm-14.74-8.1l9.78 3.94-5.57-8.95z"/><path d="M1646 1734.5c0 17.95-14.77 32.5-33 32.5s-33-14.55-33-32.5 14.77-32.5 33-32.5 33 14.55 33 32.5z" stroke="#000" stroke-width="2" fill="#ccc"/><path d="M1580 1661l.16 2.7.45 2.42.73 2.26 1.02 2.23 1.46 2.37 2.28 2.8 10.84 10.7" stroke="#000" stroke-width="2" fill="none"/><path d="M1580 1660h.68l.25.64-1.86.7-.54-1.4zM1604.34 1698.94l-11.27-9.9 7.96-4.73z"/><path d="M1606 1701.72l-14.63-12.83 10.33-6.16zm-11.24-12.52l7.93 6.95-2.34-10.28z"/><path d="M1508 109c17.67 0 32 17.9 32 40s-14.33 40-32 40h-96c-17.67 0-32-17.9-32-40s14.33-40 32-40z" stroke="#000" stroke-width="2" fill="#fff"/><g><use xlink:href="#al" transform="matrix(1,0,0,1,1385,114) translate(7.699999999999989 27.799999999999997)"/><use xlink:href="#am" transform="matrix(1,0,0,1,1385,114) translate(85.39999999999999 27.799999999999997)"/><use xlink:href="#an" transform="matrix(1,0,0,1,1385,114) translate(27.099999999999994 49.4)"/><use xlink:href="#ao" transform="matrix(1,0,0,1,1385,114) translate(45.05 49.4)"/><use xlink:href="#ap" transform="matrix(1,0,0,1,1385,114) translate(70.05 49.4)"/></g><path d="M1301 149h59.76" stroke="#000" stroke-width="2" fill="none"/><path d="M1301 150h-1v-2h1zM1375.76 149l-14.26 4.64v-9.28z"/><path d="M1379 149l-18.5 6v-12zm-16.5 3.26l10.03-3.26-10.03-3.26z"/><path d="M1520 676h300v126h-300z" stroke="#000" stroke-width="2" fill="#a3d977"/><path d="M1550 676v126m240-126v126" stroke="#000" stroke-width="2" fill="none"/><g><use xlink:href="#aq" transform="matrix(1,0,0,1,1557.5,676) translate(28.69999999999999 23.39999999999999)"/><use xlink:href="#ar" transform="matrix(1,0,0,1,1557.5,676) translate(113.55 23.39999999999999)"/><use xlink:href="#as" transform="matrix(1,0,0,1,1557.5,676) translate(163.4 23.39999999999999)"/><use xlink:href="#at" transform="matrix(1,0,0,1,1557.5,676) translate(178.4 23.39999999999999)"/><use xlink:href="#au" transform="matrix(1,0,0,1,1557.5,676) translate(28.025000000000006 44.99999999999999)"/><use xlink:href="#av" transform="matrix(1,0,0,1,1557.5,676) translate(87.025 44.99999999999999)"/><use xlink:href="#aw" transform="matrix(1,0,0,1,1557.5,676) translate(122.025 44.99999999999999)"/><use xlink:href="#ax" transform="matrix(1,0,0,1,1557.5,676) translate(186.975 44.99999999999999)"/><use xlink:href="#ay" transform="matrix(1,0,0,1,1557.5,676) translate(0.6999999999999886 66.6)"/><use xlink:href="#az" transform="matrix(1,0,0,1,1557.5,676) translate(62.599999999999994 66.6)"/><use xlink:href="#aA" transform="matrix(1,0,0,1,1557.5,676) translate(97.5 66.6)"/><use xlink:href="#aB" transform="matrix(1,0,0,1,1557.5,676) translate(138.4 66.6)"/><use xlink:href="#aC" transform="matrix(1,0,0,1,1557.5,676) translate(185.3 66.6)"/><use xlink:href="#aD" transform="matrix(1,0,0,1,1557.5,676) translate(6.574999999999989 88.20000000000002)"/><use xlink:href="#aE" transform="matrix(1,0,0,1,1557.5,676) translate(51.57499999999999 88.20000000000002)"/><use xlink:href="#aF" transform="matrix(1,0,0,1,1557.5,676) translate(126.475 88.20000000000002)"/><use xlink:href="#aG" transform="matrix(1,0,0,1,1557.5,676) translate(166.475 88.20000000000002)"/><use xlink:href="#o" transform="matrix(1,0,0,1,1557.5,676) translate(86.525 109.80000000000001)"/><use xlink:href="#aH" transform="matrix(1,0,0,1,1557.5,676) translate(120.525 109.80000000000001)"/></g><path d="M1222.92 579v.32l.02.32.04.32.04.33.07.3.06.33.1.33.1.34.13.34.14.35.17.35.2.37.22.38.26.4.3.42.32.43.38.47.44.5.52.5.6.57.7.6.83.65 1 .72 1.2.8 1.45.88 1.82 1 2.3 1.14 2.95 1.3 3.9 1.54 5.3 1.85 7.56 2.25 11.3 2.9 18.4 3.85 34.64 5.77 286.76 35.83 18.4 3.86 11.3 2.9 7.54 2.25 5.32 1.86 3.9 1.54 2.96 1.3 1.57.8" stroke="#000" stroke-width="2" fill="none"/><path d="M1223.7 578.37l-1.56 1.26-1.32-1.63h2.57zM1667.8 672.63l-13.12-7.27 6.78-6.32z"/><path d="M1670 675l-17-9.43 8.78-8.2zm-13.64-9.85l9.23 5.12-4.47-9.56z"/><path d="M1246 1098c0 44.18-35.82 80-80 80s-80-35.82-80-80 35.82-80 80-80 80 35.82 80 80z" stroke="#000" stroke-width="2" fill="#fff"/><g><use xlink:href="#aI" transform="matrix(1,0,0,1,1091,1022.998687392319) translate(33.05 57)"/><use xlink:href="#aJ" transform="matrix(1,0,0,1,1091,1022.998687392319) translate(20.125 78.60000000000001)"/><use xlink:href="#aK" transform="matrix(1,0,0,1,1091,1022.998687392319) translate(72.975 78.60000000000001)"/><use xlink:href="#aL" transform="matrix(1,0,0,1,1091,1022.998687392319) translate(38.05 100.20000000000002)"/></g><path d="M1199 1270.5c0 17.95-14.77 32.5-33 32.5s-33-14.55-33-32.5 14.77-32.5 33-32.5 33 14.55 33 32.5z" stroke="#000" stroke-width="2" fill="#ccc"/><path d="M1166 1179v39.76" stroke="#000" stroke-width="2" fill="none"/><path d="M1166 1178h.68l.32-.02v1.02h-2v-1.03zM1166 1233.76l-4.64-14.26h9.28z"/><path d="M1166 1237l-6-18.5h12zm-3.26-16.5l3.26 10.03 3.26-10.03z"/><path d="M1055.08 939l.02.9.06.9.1.87.14.86.17.84.2.83.26.84.3.83.33.83.4.85.43.85.48.87.57.9.64.9.7.96.84 1 .95 1.02 1.1 1.1 1.27 1.15 1.5 1.24 1.78 1.34 2.16 1.48 2.66 1.64 3.36 1.9 4.44 2.22 6.36 2.84 11.36 4.44 37.08 13.64 6.36 2.84 4.44 2.23 3.36 1.9 2.66 1.64 2.15 1.48 1.78 1.34 1.5 1.24 1.3 1.16.12.13" stroke="#000" stroke-width="2" fill="none"/><path d="M1056 938.63l-1.85.74-.53-1.37h2.14zM1164.62 1014.07l-10.3-10.9 8.38-3.97z"/><path d="M1166 1017l-13.35-14.15 10.87-5.15zm-10-13.52l7.23 7.67-1.35-10.46z"/><path d="M1720 1086.23h205.83v98H1720z" stroke="#000" stroke-width="2" fill="#fff"/><g><use xlink:href="#aM" transform="matrix(1,0,0,1,1725,1091.2317486092534) translate(4.150000000000006 36.8)"/><use xlink:href="#aN" transform="matrix(1,0,0,1,1725,1091.2317486092534) translate(58.10000000000001 36.8)"/><use xlink:href="#aO" transform="matrix(1,0,0,1,1725,1091.2317486092534) translate(92.00000000000001 36.8)"/><use xlink:href="#aP" transform="matrix(1,0,0,1,1725,1091.2317486092534) translate(153.9 36.8)"/><use xlink:href="#aQ" transform="matrix(1,0,0,1,1725,1091.2317486092534) translate(171.85 36.8)"/><use xlink:href="#aR" transform="matrix(1,0,0,1,1725,1091.2317486092534) translate(78.525 58.4)"/></g><path d="M1698.5 962.54l.04 1.7.1 1.63.17 1.6.24 1.55.3 1.53.34 1.5.4 1.48.5 1.47.54 1.47.6 1.46.7 1.48.78 1.5.87 1.5.97 1.53 1.1 1.57 1.22 1.6 1.38 1.68 1.56 1.73 1.8 1.83 2.04 1.93 2.38 2.05 2.8 2.23 3.35 2.43 4.12 2.73 5.24 3.16 7.17 3.94 11.84 5.83 43.66 20.34 7.18 3.93 5.25 3.18 4.12 2.73 3.35 2.44 2.8 2.22 2.38 2.05 2.05 1.93 1.78 1.82 1.58 1.74 1.38 1.66 1.22 1.6 1.1 1.58.97 1.53.86 1.5.44.82" stroke="#000" stroke-width="2" fill="none"/><path d="M1699.48 962.34l-1.96.4-.24-1.2h2.04zM1834.65 1082.1l-7.88-12.77 9-2.2z"/><path d="M1835.42 1085.23l-10.23-16.55 11.68-2.85zm-7.08-15.26l5.54 8.97.8-10.5z"/><path d="M1823 1184.23l28.5 19-28.5 19-28.5-19z" stroke="#000" stroke-width="2"/><path d="M1603.83 860h170.36l20.3 20.3v81.23h-190.67z" stroke="#d97a6d" stroke-width="2" fill="#ff8f80"/><path d="M1774.2 860v20.3h20.3" fill="#d97a6d"/><g><use xlink:href="#aS" transform="matrix(1,0,0,1,1608.833333333333,865) translate(18.19999999999999 38.8)"/><use xlink:href="#aT" transform="matrix(1,0,0,1,1608.833333333333,865) translate(107.89999999999999 38.8)"/><use xlink:href="#d" transform="matrix(1,0,0,1,1608.833333333333,865) translate(12.649999999999991 60.4)"/><use xlink:href="#e" transform="matrix(1,0,0,1,1608.833333333333,865) translate(74.55 60.4)"/><use xlink:href="#f" transform="matrix(1,0,0,1,1608.833333333333,865) translate(92.5 60.4)"/><use xlink:href="#aU" transform="matrix(1,0,0,1,1608.833333333333,865) translate(107.5 60.4)"/></g><path d="M1670 803l.1 2.45.3 2.22.47 2.07.64 1.96.82 1.92 1.03 1.9 1.3 1.98 1.67 2.1 2.28 2.4 3.48 3.06L1701.9 840l2.24 2.35" stroke="#000" stroke-width="2" fill="none"/><path d="M1670.96 802.7l-1.92.6-.4-1.3h2.1zM1709.35 855.98l-9.42-11.68 8.66-3.3z"/><path d="M1710.5 859l-12.2-15.14 11.22-4.3zm-8.93-14.26l6.62 8.2-.54-10.52z"/><defs><path d="M240-174c0 40-23 61-54 70L253 0h-59l-57-94H76V0H24v-248c93 4 217-23 216 74zM76-134c48-2 112 12 112-38 0-48-66-32-112-35v73" id="aV"/><path d="M185-48c-13 30-37 53-82 52C43 2 14-33 14-96s30-98 90-98c62 0 83 45 84 108H66c0 31 8 55 39 56 18 0 30-7 34-22zm-45-69c5-46-57-63-70-21-2 6-4 13-4 21h74" id="aW"/><path d="M135-194c52 0 70 43 70 98 0 56-19 99-73 100-30 1-46-15-58-35L72 0H24l1-261h50v104c11-23 29-37 60-37zM114-30c31 0 40-27 40-66 0-37-7-63-39-63s-41 28-41 65c0 36 8 64 40 64" id="aX"/><path d="M85 4C-2 5 27-109 22-190h50c7 57-23 150 33 157 60-5 35-97 40-157h50l1 190h-47c-2-12 1-28-3-38-12 25-28 42-61 42" id="aY"/><path d="M115-3C79 11 28 4 28-45v-112H4v-33h27l15-45h31v45h36v33H77v99c-1 23 16 31 38 25v30" id="aZ"/><path d="M133-34C117-15 103 5 69 4 32 3 11-16 11-54c-1-60 55-63 116-61 1-26-3-47-28-47-18 1-26 9-28 27l-52-2c7-38 36-58 82-57s74 22 75 68l1 82c-1 14 12 18 25 15v27c-30 8-71 5-69-32zm-48 3c29 0 43-24 42-57-32 0-66-3-65 30 0 17 8 27 23 27" id="ba"/><path d="M25 0v-261h50V0H25" id="bb"/><g id="a"><use transform="matrix(0.05,0,0,0.05,0,0)" xlink:href="#aV"/><use transform="matrix(0.05,0,0,0.05,12.950000000000001,0)" xlink:href="#aW"/><use transform="matrix(0.05,0,0,0.05,22.950000000000003,0)" xlink:href="#aX"/><use transform="matrix(0.05,0,0,0.05,33.900000000000006,0)" xlink:href="#aY"/><use transform="matrix(0.05,0,0,0.05,44.85000000000001,0)" xlink:href="#aZ"/><use transform="matrix(0.05,0,0,0.05,50.80000000000001,0)" xlink:href="#aZ"/><use transform="matrix(0.05,0,0,0.05,56.750000000000014,0)" xlink:href="#ba"/><use transform="matrix(0.05,0,0,0.05,66.75000000000001,0)" xlink:href="#bb"/></g><path d="M233-177c-1 41-23 64-60 70L243 0h-38l-65-103H63V0H30v-248c88 3 205-21 203 71zM63-129c60-2 137 13 137-47 0-61-80-42-137-45v92" id="bc"/><path d="M27 0v-27h64v-190l-56 39v-29l58-41h29v221h61V0H27" id="bd"/><path d="M33-154v-36h34v36H33zM33 0v-36h34V0H33" id="be"/><g id="b"><use transform="matrix(0.05,0,0,0.05,0,0)" xlink:href="#bc"/><use transform="matrix(0.05,0,0,0.05,12.950000000000001,0)" xlink:href="#bd"/><use transform="matrix(0.05,0,0,0.05,22.950000000000003,0)" xlink:href="#be"/></g><path d="M232-93c-1 65-40 97-104 97C67 4 28-28 28-90v-158h33c8 89-33 224 67 224 102 0 64-133 71-224h33v155" id="bf"/><path d="M117-194c89-4 53 116 60 194h-32v-121c0-31-8-49-39-48C34-167 62-67 57 0H25l-1-190h30c1 10-1 24 2 32 11-22 29-35 61-36" id="bg"/><path d="M24 0v-261h32V0H24" id="bh"/><path d="M100-194c63 0 86 42 84 106H49c0 40 14 67 53 68 26 1 43-12 49-29l28 8c-11 28-37 45-77 45C44 4 14-33 15-96c1-61 26-98 85-98zm52 81c6-60-76-77-97-28-3 7-6 17-6 28h103" id="bi"/><path d="M135-143c-3-34-86-38-87 0 15 53 115 12 119 90S17 21 10-45l28-5c4 36 97 45 98 0-10-56-113-15-118-90-4-57 82-63 122-42 12 7 21 19 24 35" id="bj"/><g id="c"><use transform="matrix(0.05,0,0,0.05,0,0)" xlink:href="#bf"/><use transform="matrix(0.05,0,0,0.05,12.950000000000001,0)" xlink:href="#bg"/><use transform="matrix(0.05,0,0,0.05,22.950000000000003,0)" xlink:href="#bh"/><use transform="matrix(0.05,0,0,0.05,26.900000000000002,0)" xlink:href="#bi"/><use transform="matrix(0.05,0,0,0.05,36.900000000000006,0)" xlink:href="#bj"/><use transform="matrix(0.05,0,0,0.05,45.900000000000006,0)" xlink:href="#bj"/></g><path d="M127-220V0H93v-220H8v-28h204v28h-85" id="bk"/><path d="M206 0h-36l-40-164L89 0H53L-1-190h32L70-26l43-164h34l41 164 42-164h31" id="bl"/><path d="M59-47c-2 24 18 29 38 22v24C64 9 27 4 27-40v-127H5v-23h24l9-43h21v43h35v23H59v120" id="bm"/><path d="M179-190L93 31C79 59 56 82 12 73V49c39 6 53-20 64-50L1-190h34L92-34l54-156h33" id="bn"/><g id="d"><use transform="matrix(0.05,0,0,0.05,0,0)" xlink:href="#bk"/><use transform="matrix(0.05,0,0,0.05,9.950000000000001,0)" xlink:href="#bl"/><use transform="matrix(0.05,0,0,0.05,22.900000000000002,0)" xlink:href="#bi"/><use transform="matrix(0.05,0,0,0.05,32.900000000000006,0)" xlink:href="#bi"/><use transform="matrix(0.05,0,0,0.05,42.900000000000006,0)" xlink:href="#bm"/><use transform="matrix(0.05,0,0,0.05,47.900000000000006,0)" xlink:href="#bn"/></g><path d="M24-231v-30h32v30H24zM24 0v-190h32V0H24" id="bo"/><g id="e"><use transform="matrix(0.05,0,0,0.05,0,0)" xlink:href="#bo"/><use transform="matrix(0.05,0,0,0.05,3.95,0)" xlink:href="#bj"/></g><path d="M141-36C126-15 110 5 73 4 37 3 15-17 15-53c-1-64 63-63 125-63 3-35-9-54-41-54-24 1-41 7-42 31l-33-3c5-37 33-52 76-52 45 0 72 20 72 64v82c-1 20 7 32 28 27v20c-31 9-61-2-59-35zM48-53c0 20 12 33 32 33 41-3 63-29 60-74-43 2-92-5-92 41" id="bp"/><use transform="matrix(0.05,0,0,0.05,0,0)" xlink:href="#bp" id="f"/><path d="M30-248c87 1 191-15 191 75 0 78-77 80-158 76V0H30v-248zm33 125c57 0 124 11 124-50 0-59-68-47-124-48v98" id="bq"/><path d="M177-190C167-65 218 103 67 71c-23-6-38-20-44-43l32-5c15 47 100 32 89-28v-30C133-14 115 1 83 1 29 1 15-40 15-95c0-56 16-97 71-98 29-1 48 16 59 35 1-10 0-23 2-32h30zM94-22c36 0 50-32 50-73 0-42-14-75-50-75-39 0-46 34-46 75s6 73 46 73" id="br"/><path d="M84 4C-5 8 30-112 23-190h32v120c0 31 7 50 39 49 72-2 45-101 50-169h31l1 190h-30c-1-10 1-25-2-33-11 22-28 36-60 37" id="bs"/><g id="g"><use transform="matrix(0.05,0,0,0.05,0,0)" xlink:href="#bq"/><use transform="matrix(0.05,0,0,0.05,12,0)" xlink:href="#bi"/><use transform="matrix(0.05,0,0,0.05,22,0)" xlink:href="#bg"/><use transform="matrix(0.05,0,0,0.05,32,0)" xlink:href="#br"/><use transform="matrix(0.05,0,0,0.05,42,0)" xlink:href="#bs"/><use transform="matrix(0.05,0,0,0.05,52,0)" xlink:href="#bo"/><use transform="matrix(0.05,0,0,0.05,55.95,0)" xlink:href="#bg"/></g><path d="M101-251c82-7 93 87 43 132L82-64C71-53 59-42 53-27h129V0H18c2-99 128-94 128-182 0-28-16-43-45-43s-46 15-49 41l-32-3c6-41 34-60 81-64" id="bt"/><g id="h"><use transform="matrix(0.05,0,0,0.05,0,0)" xlink:href="#bc"/><use transform="matrix(0.05,0,0,0.05,12.950000000000001,0)" xlink:href="#bt"/><use transform="matrix(0.05,0,0,0.05,22.950000000000003,0)" xlink:href="#be"/></g><path d="M100-194c62-1 85 37 85 99 1 63-27 99-86 99S16-35 15-95c0-66 28-99 85-99zM99-20c44 1 53-31 53-75 0-43-8-75-51-75s-53 32-53 75 10 74 51 75" id="bu"/><g id="i"><use transform="matrix(0.05,0,0,0.05,0,0)" xlink:href="#bg"/><use transform="matrix(0.05,0,0,0.05,10,0)" xlink:href="#bu"/><use transform="matrix(0.05,0,0,0.05,20,0)" xlink:href="#bm"/></g><path d="M115-194c53 0 69 39 70 98 0 66-23 100-70 100C84 3 66-7 56-30L54 0H23l1-261h32v101c10-23 28-34 59-34zm-8 174c40 0 45-34 45-75 0-40-5-75-45-74-42 0-51 32-51 76 0 43 10 73 51 73" id="bv"/><path d="M114-163C36-179 61-72 57 0H25l-1-190h30c1 12-1 29 2 39 6-27 23-49 58-41v29" id="bw"/><path d="M85-194c31 0 48 13 60 33l-1-100h32l1 261h-30c-2-10 0-23-3-31C134-8 116 4 85 4 32 4 16-35 15-94c0-66 23-100 70-100zm9 24c-40 0-46 34-46 75 0 40 6 74 45 74 42 0 51-32 51-76 0-42-9-74-50-73" id="bx"/><g id="j"><use transform="matrix(0.05,0,0,0.05,0,0)" xlink:href="#bv"/><use transform="matrix(0.05,0,0,0.05,10,0)" xlink:href="#bo"/><use transform="matrix(0.05,0,0,0.05,13.949999999999998,0)" xlink:href="#bw"/><use transform="matrix(0.05,0,0,0.05,19.9,0)" xlink:href="#bx"/></g><path d="M136-208V0H84v-208H4v-40h212v40h-80" id="by"/><path d="M110-194c64 0 96 36 96 99 0 64-35 99-97 99-61 0-95-36-95-99 0-62 34-99 96-99zm-1 164c35 0 45-28 45-65 0-40-10-65-43-65-34 0-45 26-45 65 0 36 10 65 43 65" id="bz"/><path d="M135-194c53 0 70 44 70 98 0 56-19 98-73 100-31 1-45-17-59-34 3 33 2 69 2 105H25l-1-265h48c2 10 0 23 3 31 11-24 29-35 60-35zM114-30c33 0 39-31 40-66 0-38-9-64-40-64-56 0-55 130 0 130" id="bA"/><g id="k"><use transform="matrix(0.05,0,0,0.05,0,0)" xlink:href="#by"/><use transform="matrix(0.05,0,0,0.05,9.600000000000001,0)" xlink:href="#bz"/><use transform="matrix(0.05,0,0,0.05,20.550000000000004,0)" xlink:href="#bA"/></g><path d="M67-125c0 53 21 87 73 88 37 1 54-22 65-47l45 17C233-25 199 4 140 4 58 4 20-42 15-125 8-235 124-281 211-232c18 10 29 29 36 50l-46 12c-8-25-30-41-62-41-52 0-71 34-72 86" id="bB"/><path d="M25-224v-37h50v37H25zM25 0v-190h50V0H25" id="bC"/><path d="M220-157c-53 9-28 100-34 157h-49v-107c1-27-5-49-29-50C55-147 81-57 75 0H25l-1-190h47c2 12-1 28 3 38 10-53 101-56 108 0 13-22 24-43 59-42 82 1 51 116 57 194h-49v-107c-1-25-5-48-29-50" id="bD"/><g id="l"><use transform="matrix(0.05,0,0,0.05,0,0)" xlink:href="#bB"/><use transform="matrix(0.05,0,0,0.05,12.950000000000001,0)" xlink:href="#bb"/><use transform="matrix(0.05,0,0,0.05,17.950000000000003,0)" xlink:href="#ba"/><use transform="matrix(0.05,0,0,0.05,27.950000000000003,0)" xlink:href="#bC"/><use transform="matrix(0.05,0,0,0.05,32.95,0)" xlink:href="#bD"/></g><path d="M23 0v-37h61v-169l-59 37v-38l62-41h46v211h57V0H23" id="bE"/><g id="m"><use transform="matrix(0.05,0,0,0.05,0,0)" xlink:href="#bB"/><use transform="matrix(0.05,0,0,0.05,12.950000000000001,0)" xlink:href="#bE"/><use transform="matrix(0.05,0,0,0.05,22.950000000000003,0)" xlink:href="#be"/></g><g id="n"><use transform="matrix(0.05,0,0,0.05,0,0)" xlink:href="#bk"/><use transform="matrix(0.05,0,0,0.05,9.950000000000001,0)" xlink:href="#bl"/><use transform="matrix(0.05,0,0,0.05,22.900000000000002,0)" xlink:href="#bi"/><use transform="matrix(0.05,0,0,0.05,32.900000000000006,0)" xlink:href="#bi"/><use transform="matrix(0.05,0,0,0.05,42.900000000000006,0)" xlink:href="#bm"/><use transform="matrix(0.05,0,0,0.05,47.900000000000006,0)" xlink:href="#bn"/></g><path d="M96-169c-40 0-48 33-48 73s9 75 48 75c24 0 41-14 43-38l32 2c-6 37-31 61-74 61-59 0-76-41-82-99-10-93 101-131 147-64 4 7 5 14 7 22l-32 3c-4-21-16-35-41-35" id="bF"/><g id="o"><use transform="matrix(0.05,0,0,0.05,0,0)" xlink:href="#bF"/><use transform="matrix(0.05,0,0,0.05,9,0)" xlink:href="#bp"/><use transform="matrix(0.05,0,0,0.05,19,0)" xlink:href="#bg"/></g><path d="M63-220v92h138v28H63V0H30v-248h175v28H63" id="bG"/><g id="p"><use transform="matrix(0.05,0,0,0.05,0,0)" xlink:href="#bG"/><use transform="matrix(0.05,0,0,0.05,10.950000000000001,0)" xlink:href="#bh"/><use transform="matrix(0.05,0,0,0.05,14.9,0)" xlink:href="#bn"/></g><g id="q"><use transform="matrix(0.05,0,0,0.05,0,0)" xlink:href="#bB"/><use transform="matrix(0.05,0,0,0.05,12.950000000000001,0)" xlink:href="#bb"/><use transform="matrix(0.05,0,0,0.05,17.950000000000003,0)" xlink:href="#ba"/><use transform="matrix(0.05,0,0,0.05,27.950000000000003,0)" xlink:href="#bC"/><use transform="matrix(0.05,0,0,0.05,32.95,0)" xlink:href="#bD"/></g><path d="M182-182c0 78-84 86-111 141h115V0H12c-6-101 99-100 120-180 1-22-12-31-33-32-23 0-32 14-35 34l-49-3c5-45 32-70 84-70 51 0 83 22 83 69" id="bH"/><path d="M35-132v-50h50v50H35zM35 0v-49h50V0H35" id="bI"/><g id="r"><use transform="matrix(0.05,0,0,0.05,0,0)" xlink:href="#bB"/><use transform="matrix(0.05,0,0,0.05,12.950000000000001,0)" xlink:href="#bH"/><use transform="matrix(0.05,0,0,0.05,22.950000000000003,0)" xlink:href="#bI"/></g><g id="s"><use transform="matrix(0.05,0,0,0.05,0,0)" xlink:href="#bk"/><use transform="matrix(0.05,0,0,0.05,9.950000000000001,0)" xlink:href="#bl"/><use transform="matrix(0.05,0,0,0.05,22.900000000000002,0)" xlink:href="#bi"/><use transform="matrix(0.05,0,0,0.05,32.900000000000006,0)" xlink:href="#bi"/><use transform="matrix(0.05,0,0,0.05,42.900000000000006,0)" xlink:href="#bm"/><use transform="matrix(0.05,0,0,0.05,47.900000000000006,0)" xlink:href="#bn"/></g><g id="t"><use transform="matrix(0.05,0,0,0.05,0,0)" xlink:href="#bo"/><use transform="matrix(0.05,0,0,0.05,3.95,0)" xlink:href="#bj"/></g><use transform="matrix(0.05,0,0,0.05,0,0)" xlink:href="#bp" id="u"/><path d="M210-169c-67 3-38 105-44 169h-31v-121c0-29-5-50-35-48C34-165 62-65 56 0H25l-1-190h30c1 10-1 24 2 32 10-44 99-50 107 0 11-21 27-35 58-36 85-2 47 119 55 194h-31v-121c0-29-5-49-35-48" id="bJ"/><g id="v"><use transform="matrix(0.05,0,0,0.05,0,0)" xlink:href="#bJ"/><use transform="matrix(0.05,0,0,0.05,14.950000000000001,0)" xlink:href="#bi"/><use transform="matrix(0.05,0,0,0.05,24.950000000000003,0)" xlink:href="#bJ"/><use transform="matrix(0.05,0,0,0.05,39.900000000000006,0)" xlink:href="#bv"/><use transform="matrix(0.05,0,0,0.05,49.900000000000006,0)" xlink:href="#bi"/><use transform="matrix(0.05,0,0,0.05,59.900000000000006,0)" xlink:href="#bw"/></g><path d="M101-234c-31-9-42 10-38 44h38v23H63V0H32v-167H5v-23h27c-7-52 17-82 69-68v24" id="bK"/><g id="w"><use transform="matrix(0.05,0,0,0.05,0,0)" xlink:href="#bu"/><use transform="matrix(0.05,0,0,0.05,10,0)" xlink:href="#bK"/></g><path d="M106-169C34-169 62-67 57 0H25v-261h32l-1 103c12-21 28-36 61-36 89 0 53 116 60 194h-32v-121c2-32-8-49-39-48" id="bL"/><g id="x"><use transform="matrix(0.05,0,0,0.05,0,0)" xlink:href="#bm"/><use transform="matrix(0.05,0,0,0.05,5,0)" xlink:href="#bL"/><use transform="matrix(0.05,0,0,0.05,15,0)" xlink:href="#bi"/></g><g id="y"><use transform="matrix(0.05,0,0,0.05,0,0)" xlink:href="#bK"/><use transform="matrix(0.05,0,0,0.05,5,0)" xlink:href="#bh"/><use transform="matrix(0.05,0,0,0.05,8.95,0)" xlink:href="#bn"/><use transform="matrix(0.05,0,0,0.05,17.95,0)" xlink:href="#bo"/><use transform="matrix(0.05,0,0,0.05,21.9,0)" xlink:href="#bg"/><use transform="matrix(0.05,0,0,0.05,31.899999999999995,0)" xlink:href="#br"/></g><g id="z"><use transform="matrix(0.05,0,0,0.05,0,0)" xlink:href="#bv"/><use transform="matrix(0.05,0,0,0.05,10,0)" xlink:href="#bo"/><use transform="matrix(0.05,0,0,0.05,13.949999999999998,0)" xlink:href="#bw"/><use transform="matrix(0.05,0,0,0.05,19.9,0)" xlink:href="#bx"/><use transform="matrix(0.05,0,0,0.05,29.899999999999995,0)" xlink:href="#bj"/></g><path d="M115-194c55 1 70 41 70 98S169 2 115 4C84 4 66-9 55-30l1 105H24l-1-265h31l2 30c10-21 28-34 59-34zm-8 174c40 0 45-34 45-75s-6-73-45-74c-42 0-51 32-51 76 0 43 10 73 51 73" id="bM"/><g id="A"><use transform="matrix(0.05,0,0,0.05,0,0)" xlink:href="#bj"/><use transform="matrix(0.05,0,0,0.05,9,0)" xlink:href="#bM"/><use transform="matrix(0.05,0,0,0.05,19,0)" xlink:href="#bi"/><use transform="matrix(0.05,0,0,0.05,29,0)" xlink:href="#bF"/><use transform="matrix(0.05,0,0,0.05,38,0)" xlink:href="#bo"/><use transform="matrix(0.05,0,0,0.05,41.95,0)" xlink:href="#bi"/><use transform="matrix(0.05,0,0,0.05,51.95,0)" xlink:href="#bj"/></g><g id="B"><use transform="matrix(0.05,0,0,0.05,0,0)" xlink:href="#bB"/><use transform="matrix(0.05,0,0,0.05,12.950000000000001,0)" xlink:href="#bH"/><use transform="matrix(0.05,0,0,0.05,22.950000000000003,0)" xlink:href="#bI"/></g><g id="C"><use transform="matrix(0.05,0,0,0.05,0,0)" xlink:href="#bk"/><use transform="matrix(0.05,0,0,0.05,9.950000000000001,0)" xlink:href="#bl"/><use transform="matrix(0.05,0,0,0.05,22.900000000000002,0)" xlink:href="#bi"/><use transform="matrix(0.05,0,0,0.05,32.900000000000006,0)" xlink:href="#bi"/><use transform="matrix(0.05,0,0,0.05,42.900000000000006,0)" xlink:href="#bm"/><use transform="matrix(0.05,0,0,0.05,47.900000000000006,0)" xlink:href="#bn"/></g><use transform="matrix(0.05,0,0,0.05,0,0)" xlink:href="#bp" id="D"/><g id="E"><use transform="matrix(0.05,0,0,0.05,0,0)" xlink:href="#bl"/><use transform="matrix(0.05,0,0,0.05,12.950000000000001,0)" xlink:href="#bo"/><use transform="matrix(0.05,0,0,0.05,16.900000000000002,0)" xlink:href="#bg"/><use transform="matrix(0.05,0,0,0.05,26.900000000000002,0)" xlink:href="#br"/><use transform="matrix(0.05,0,0,0.05,36.900000000000006,0)" xlink:href="#bi"/><use transform="matrix(0.05,0,0,0.05,46.900000000000006,0)" xlink:href="#bx"/></g><g id="F"><use transform="matrix(0.05,0,0,0.05,0,0)" xlink:href="#bv"/><use transform="matrix(0.05,0,0,0.05,10,0)" xlink:href="#bo"/><use transform="matrix(0.05,0,0,0.05,13.949999999999998,0)" xlink:href="#bw"/><use transform="matrix(0.05,0,0,0.05,19.9,0)" xlink:href="#bx"/></g><path d="M24 0v-248h195v40H76v63h132v40H76v65h150V0H24" id="bN"/><path d="M128 0H69L1-190h53L99-40l48-150h52" id="bO"/><path d="M88-194c31-1 46 15 58 34l-1-101h50l1 261h-48c-2-10 0-23-3-31C134-8 116 4 84 4 32 4 16-41 15-95c0-56 19-97 73-99zm17 164c33 0 40-30 41-66 1-37-9-64-41-64s-38 30-39 65c0 43 13 65 39 65" id="bP"/><path d="M135-194c87-1 58 113 63 194h-50c-7-57 23-157-34-157-59 0-34 97-39 157H25l-1-190h47c2 12-1 28 3 38 12-26 28-41 61-42" id="bQ"/><path d="M190-63c-7 42-38 67-86 67-59 0-84-38-90-98-12-110 154-137 174-36l-49 2c-2-19-15-32-35-32-30 0-35 28-38 64-6 74 65 87 74 30" id="bR"/><g id="G"><use transform="matrix(0.05,0,0,0.05,0,0)" xlink:href="#bN"/><use transform="matrix(0.05,0,0,0.05,12,0)" xlink:href="#bO"/><use transform="matrix(0.05,0,0,0.05,22,0)" xlink:href="#bC"/><use transform="matrix(0.05,0,0,0.05,27,0)" xlink:href="#bP"/><use transform="matrix(0.05,0,0,0.05,37.95,0)" xlink:href="#aW"/><use transform="matrix(0.05,0,0,0.05,47.95,0)" xlink:href="#bQ"/><use transform="matrix(0.05,0,0,0.05,58.900000000000006,0)" xlink:href="#bR"/><use transform="matrix(0.05,0,0,0.05,68.9,0)" xlink:href="#aW"/><use transform="matrix(0.05,0,0,0.05,78.9,0)" xlink:href="#be"/></g><path d="M47-170H22l-4-78h33" id="bS"/><g id="H"><use transform="matrix(0.05,0,0,0.05,0,0)" xlink:href="#bk"/><use transform="matrix(0.05,0,0,0.05,9.950000000000001,0)" xlink:href="#bl"/><use transform="matrix(0.05,0,0,0.05,22.900000000000002,0)" xlink:href="#bi"/><use transform="matrix(0.05,0,0,0.05,32.900000000000006,0)" xlink:href="#bi"/><use transform="matrix(0.05,0,0,0.05,42.900000000000006,0)" xlink:href="#bm"/><use transform="matrix(0.05,0,0,0.05,47.900000000000006,0)" xlink:href="#bn"/><use transform="matrix(0.05,0,0,0.05,56.900000000000006,0)" xlink:href="#bS"/><use transform="matrix(0.05,0,0,0.05,60.300000000000004,0)" xlink:href="#bj"/></g><path d="M30-248c118-7 216 8 213 122C240-48 200 0 122 0H30v-248zM63-27c89 8 146-16 146-99s-60-101-146-95v194" id="bT"/><path d="M190 0L58-211 59 0H30v-248h39L202-35l-2-213h31V0h-41" id="bU"/><path d="M205 0l-28-72H64L36 0H1l101-248h38L239 0h-34zm-38-99l-47-123c-12 45-31 82-46 123h93" id="bV"/><g id="I"><use transform="matrix(0.05,0,0,0.05,0,0)" xlink:href="#bT"/><use transform="matrix(0.05,0,0,0.05,12.950000000000001,0)" xlink:href="#bU"/><use transform="matrix(0.05,0,0,0.05,25.900000000000002,0)" xlink:href="#bV"/></g><g id="J"><use transform="matrix(0.05,0,0,0.05,0,0)" xlink:href="#bk"/><use transform="matrix(0.05,0,0,0.05,8.950000000000001,0)" xlink:href="#bi"/><use transform="matrix(0.05,0,0,0.05,18.950000000000003,0)" xlink:href="#bj"/><use transform="matrix(0.05,0,0,0.05,27.950000000000003,0)" xlink:href="#bm"/></g><g id="K"><use transform="matrix(0.05,0,0,0.05,0,0)" xlink:href="#bc"/><use transform="matrix(0.05,0,0,0.05,12.950000000000001,0)" xlink:href="#bi"/><use transform="matrix(0.05,0,0,0.05,22.950000000000003,0)" xlink:href="#bj"/><use transform="matrix(0.05,0,0,0.05,31.950000000000003,0)" xlink:href="#bs"/><use transform="matrix(0.05,0,0,0.05,41.95,0)" xlink:href="#bh"/><use transform="matrix(0.05,0,0,0.05,45.900000000000006,0)" xlink:href="#bm"/><use transform="matrix(0.05,0,0,0.05,50.900000000000006,0)" xlink:href="#bj"/></g><g id="L"><use transform="matrix(0.05,0,0,0.05,0,0)" xlink:href="#bL"/><use transform="matrix(0.05,0,0,0.05,10,0)" xlink:href="#bp"/><use transform="matrix(0.05,0,0,0.05,20,0)" xlink:href="#bg"/><use transform="matrix(0.05,0,0,0.05,30,0)" xlink:href="#bx"/><use transform="matrix(0.05,0,0,0.05,40,0)" xlink:href="#bo"/><use transform="matrix(0.05,0,0,0.05,43.95,0)" xlink:href="#bF"/><use transform="matrix(0.05,0,0,0.05,52.95,0)" xlink:href="#bp"/><use transform="matrix(0.05,0,0,0.05,62.95,0)" xlink:href="#bM"/><use transform="matrix(0.05,0,0,0.05,72.95,0)" xlink:href="#bM"/><use transform="matrix(0.05,0,0,0.05,82.95,0)" xlink:href="#bi"/><use transform="matrix(0.05,0,0,0.05,92.95,0)" xlink:href="#bx"/></g><g id="M"><use transform="matrix(0.05,0,0,0.05,0,0)" xlink:href="#bB"/><use transform="matrix(0.05,0,0,0.05,12.950000000000001,0)" xlink:href="#bb"/><use transform="matrix(0.05,0,0,0.05,17.950000000000003,0)" xlink:href="#ba"/><use transform="matrix(0.05,0,0,0.05,27.950000000000003,0)" xlink:href="#bC"/><use transform="matrix(0.05,0,0,0.05,32.95,0)" xlink:href="#bD"/><use transform="matrix(0.05,0,0,0.05,48.95,0)" xlink:href="#bI"/></g><g id="N"><use transform="matrix(0.05,0,0,0.05,0,0)" xlink:href="#bo"/><use transform="matrix(0.05,0,0,0.05,3.95,0)" xlink:href="#bj"/></g><g id="O"><use transform="matrix(0.05,0,0,0.05,0,0)" xlink:href="#bM"/><use transform="matrix(0.05,0,0,0.05,10,0)" xlink:href="#bL"/><use transform="matrix(0.05,0,0,0.05,20,0)" xlink:href="#bn"/><use transform="matrix(0.05,0,0,0.05,29,0)" xlink:href="#bj"/><use transform="matrix(0.05,0,0,0.05,38,0)" xlink:href="#bo"/><use transform="matrix(0.05,0,0,0.05,41.95,0)" xlink:href="#bF"/><use transform="matrix(0.05,0,0,0.05,50.95,0)" xlink:href="#bp"/><use transform="matrix(0.05,0,0,0.05,60.95,0)" xlink:href="#bh"/><use transform="matrix(0.05,0,0,0.05,64.9,0)" xlink:href="#bh"/><use transform="matrix(0.05,0,0,0.05,68.85000000000001,0)" xlink:href="#bn"/></g><g id="P"><use transform="matrix(0.05,0,0,0.05,0,0)" xlink:href="#bp"/><use transform="matrix(0.05,0,0,0.05,10,0)" xlink:href="#bv"/><use transform="matrix(0.05,0,0,0.05,20,0)" xlink:href="#bh"/><use transform="matrix(0.05,0,0,0.05,23.95,0)" xlink:href="#bi"/></g><g id="Q"><use transform="matrix(0.05,0,0,0.05,0,0)" xlink:href="#bN"/><use transform="matrix(0.05,0,0,0.05,12,0)" xlink:href="#bO"/><use transform="matrix(0.05,0,0,0.05,22,0)" xlink:href="#bC"/><use transform="matrix(0.05,0,0,0.05,27,0)" xlink:href="#bP"/><use transform="matrix(0.05,0,0,0.05,37.95,0)" xlink:href="#aW"/><use transform="matrix(0.05,0,0,0.05,47.95,0)" xlink:href="#bQ"/><use transform="matrix(0.05,0,0,0.05,58.900000000000006,0)" xlink:href="#bR"/><use transform="matrix(0.05,0,0,0.05,68.9,0)" xlink:href="#aW"/><use transform="matrix(0.05,0,0,0.05,78.9,0)" xlink:href="#be"/></g><g id="R"><use transform="matrix(0.05,0,0,0.05,0,0)" xlink:href="#bq"/><use transform="matrix(0.05,0,0,0.05,12,0)" xlink:href="#bL"/><use transform="matrix(0.05,0,0,0.05,22,0)" xlink:href="#bn"/><use transform="matrix(0.05,0,0,0.05,31,0)" xlink:href="#bj"/><use transform="matrix(0.05,0,0,0.05,40,0)" xlink:href="#bo"/><use transform="matrix(0.05,0,0,0.05,43.95,0)" xlink:href="#bF"/><use transform="matrix(0.05,0,0,0.05,52.95,0)" xlink:href="#bp"/><use transform="matrix(0.05,0,0,0.05,62.95,0)" xlink:href="#bh"/></g><g id="S"><use transform="matrix(0.05,0,0,0.05,0,0)" xlink:href="#bm"/><use transform="matrix(0.05,0,0,0.05,5,0)" xlink:href="#bi"/><use transform="matrix(0.05,0,0,0.05,15,0)" xlink:href="#bj"/><use transform="matrix(0.05,0,0,0.05,24,0)" xlink:href="#bm"/></g><g id="T"><use transform="matrix(0.05,0,0,0.05,0,0)" xlink:href="#bw"/><use transform="matrix(0.05,0,0,0.05,5.95,0)" xlink:href="#bi"/><use transform="matrix(0.05,0,0,0.05,15.949999999999998,0)" xlink:href="#bM"/><use transform="matrix(0.05,0,0,0.05,25.950000000000003,0)" xlink:href="#bu"/><use transform="matrix(0.05,0,0,0.05,35.95,0)" xlink:href="#bw"/><use transform="matrix(0.05,0,0,0.05,41.900000000000006,0)" xlink:href="#bm"/></g><path d="M238-95c0 69-44 99-111 99C63 4 22-25 22-93v-155h51v151c-1 38 19 59 55 60 90 1 49-130 58-211h52v153" id="bW"/><path d="M135-150c-39-12-60 13-60 57V0H25l-1-190h47c2 13-1 29 3 40 6-28 27-53 61-41v41" id="bX"/><g id="U"><use transform="matrix(0.05,0,0,0.05,0,0)" xlink:href="#bW"/><use transform="matrix(0.05,0,0,0.05,12.950000000000001,0)" xlink:href="#bQ"/><use transform="matrix(0.05,0,0,0.05,23.900000000000002,0)" xlink:href="#bP"/><use transform="matrix(0.05,0,0,0.05,34.85,0)" xlink:href="#aW"/><use transform="matrix(0.05,0,0,0.05,44.85,0)" xlink:href="#bX"/><use transform="matrix(0.05,0,0,0.05,51.85,0)" xlink:href="#bD"/><use transform="matrix(0.05,0,0,0.05,67.85,0)" xlink:href="#bC"/><use transform="matrix(0.05,0,0,0.05,72.85,0)" xlink:href="#bQ"/><use transform="matrix(0.05,0,0,0.05,83.8,0)" xlink:href="#aW"/><use transform="matrix(0.05,0,0,0.05,93.8,0)" xlink:href="#bI"/></g><g id="V"><use transform="matrix(0.05,0,0,0.05,0,0)" xlink:href="#bf"/><use transform="matrix(0.05,0,0,0.05,12.950000000000001,0)" xlink:href="#bg"/><use transform="matrix(0.05,0,0,0.05,22.950000000000003,0)" xlink:href="#bh"/><use transform="matrix(0.05,0,0,0.05,26.900000000000002,0)" xlink:href="#bi"/><use transform="matrix(0.05,0,0,0.05,36.900000000000006,0)" xlink:href="#bj"/><use transform="matrix(0.05,0,0,0.05,45.900000000000006,0)" xlink:href="#bj"/></g><g id="W"><use transform="matrix(0.05,0,0,0.05,0,0)" xlink:href="#bm"/><use transform="matrix(0.05,0,0,0.05,5,0)" xlink:href="#bL"/><use transform="matrix(0.05,0,0,0.05,15,0)" xlink:href="#bi"/></g><g id="X"><use transform="matrix(0.05,0,0,0.05,0,0)" xlink:href="#bT"/><use transform="matrix(0.05,0,0,0.05,12.950000000000001,0)" xlink:href="#bU"/><use transform="matrix(0.05,0,0,0.05,25.900000000000002,0)" xlink:href="#bV"/></g><g id="Y"><use transform="matrix(0.05,0,0,0.05,0,0)" xlink:href="#bm"/><use transform="matrix(0.05,0,0,0.05,5,0)" xlink:href="#bi"/><use transform="matrix(0.05,0,0,0.05,15,0)" xlink:href="#bj"/><use transform="matrix(0.05,0,0,0.05,24,0)" xlink:href="#bm"/></g><g id="Z"><use transform="matrix(0.05,0,0,0.05,0,0)" xlink:href="#bl"/><use transform="matrix(0.05,0,0,0.05,12.950000000000001,0)" xlink:href="#bp"/><use transform="matrix(0.05,0,0,0.05,22.950000000000003,0)" xlink:href="#bj"/></g><g id="aa"><use transform="matrix(0.05,0,0,0.05,0,0)" xlink:href="#bF"/><use transform="matrix(0.05,0,0,0.05,9,0)" xlink:href="#bu"/><use transform="matrix(0.05,0,0,0.05,19,0)" xlink:href="#bg"/><use transform="matrix(0.05,0,0,0.05,29,0)" xlink:href="#bm"/><use transform="matrix(0.05,0,0,0.05,34,0)" xlink:href="#bp"/><use transform="matrix(0.05,0,0,0.05,44,0)" xlink:href="#bJ"/><use transform="matrix(0.05,0,0,0.05,58.95,0)" xlink:href="#bo"/><use transform="matrix(0.05,0,0,0.05,62.900000000000006,0)" xlink:href="#bg"/><use transform="matrix(0.05,0,0,0.05,72.9,0)" xlink:href="#bp"/><use transform="matrix(0.05,0,0,0.05,82.9,0)" xlink:href="#bm"/><use transform="matrix(0.05,0,0,0.05,87.9,0)" xlink:href="#bi"/><use transform="matrix(0.05,0,0,0.05,97.9,0)" xlink:href="#bx"/></g><g id="ab"><use transform="matrix(0.05,0,0,0.05,0,0)" xlink:href="#bk"/><use transform="matrix(0.05,0,0,0.05,10.950000000000001,0)" xlink:href="#bL"/><use transform="matrix(0.05,0,0,0.05,20.950000000000003,0)" xlink:href="#bi"/></g><g id="ac"><use transform="matrix(0.05,0,0,0.05,0,0)" xlink:href="#bj"/><use transform="matrix(0.05,0,0,0.05,9,0)" xlink:href="#bp"/><use transform="matrix(0.05,0,0,0.05,19,0)" xlink:href="#bJ"/><use transform="matrix(0.05,0,0,0.05,33.95,0)" xlink:href="#bM"/><use transform="matrix(0.05,0,0,0.05,43.95,0)" xlink:href="#bh"/><use transform="matrix(0.05,0,0,0.05,47.900000000000006,0)" xlink:href="#bi"/></g><g id="ad"><use transform="matrix(0.05,0,0,0.05,0,0)" xlink:href="#bL"/><use transform="matrix(0.05,0,0,0.05,10,0)" xlink:href="#bp"/><use transform="matrix(0.05,0,0,0.05,20,0)" xlink:href="#bx"/></g><g id="ae"><use transform="matrix(0.05,0,0,0.05,0,0)" xlink:href="#bg"/><use transform="matrix(0.05,0,0,0.05,10,0)" xlink:href="#bu"/></g><path d="M16-82v-28h88v28H16" id="bY"/><g id="af"><use transform="matrix(0.05,0,0,0.05,0,0)" xlink:href="#bF"/><use transform="matrix(0.05,0,0,0.05,9,0)" xlink:href="#bw"/><use transform="matrix(0.05,0,0,0.05,14.949999999999998,0)" xlink:href="#bu"/><use transform="matrix(0.05,0,0,0.05,24.95,0)" xlink:href="#bj"/><use transform="matrix(0.05,0,0,0.05,33.95,0)" xlink:href="#bj"/><use transform="matrix(0.05,0,0,0.05,42.95,0)" xlink:href="#bY"/><use transform="matrix(0.05,0,0,0.05,48.900000000000006,0)" xlink:href="#bF"/><use transform="matrix(0.05,0,0,0.05,57.900000000000006,0)" xlink:href="#bu"/><use transform="matrix(0.05,0,0,0.05,67.9,0)" xlink:href="#bg"/><use transform="matrix(0.05,0,0,0.05,77.9,0)" xlink:href="#bm"/><use transform="matrix(0.05,0,0,0.05,82.9,0)" xlink:href="#bp"/><use transform="matrix(0.05,0,0,0.05,92.9,0)" xlink:href="#bJ"/><use transform="matrix(0.05,0,0,0.05,107.85000000000001,0)" xlink:href="#bo"/><use transform="matrix(0.05,0,0,0.05,111.80000000000001,0)" xlink:href="#bg"/><use transform="matrix(0.05,0,0,0.05,121.80000000000001,0)" xlink:href="#bp"/><use transform="matrix(0.05,0,0,0.05,131.8,0)" xlink:href="#bm"/><use transform="matrix(0.05,0,0,0.05,136.8,0)" xlink:href="#bo"/><use transform="matrix(0.05,0,0,0.05,140.75,0)" xlink:href="#bu"/><use transform="matrix(0.05,0,0,0.05,150.75,0)" xlink:href="#bg"/></g><g id="ag"><use transform="matrix(0.05,0,0,0.05,0,0)" xlink:href="#bx"/><use transform="matrix(0.05,0,0,0.05,10,0)" xlink:href="#bs"/><use transform="matrix(0.05,0,0,0.05,20,0)" xlink:href="#bw"/><use transform="matrix(0.05,0,0,0.05,25.950000000000003,0)" xlink:href="#bo"/><use transform="matrix(0.05,0,0,0.05,29.899999999999995,0)" xlink:href="#bg"/><use transform="matrix(0.05,0,0,0.05,39.9,0)" xlink:href="#br"/></g><g id="ah"><use transform="matrix(0.05,0,0,0.05,0,0)" xlink:href="#bm"/><use transform="matrix(0.05,0,0,0.05,5,0)" xlink:href="#bi"/><use transform="matrix(0.05,0,0,0.05,15,0)" xlink:href="#bj"/><use transform="matrix(0.05,0,0,0.05,24,0)" xlink:href="#bm"/></g><g id="ai"><use transform="matrix(0.05,0,0,0.05,0,0)" xlink:href="#bN"/><use transform="matrix(0.05,0,0,0.05,12,0)" xlink:href="#bO"/><use transform="matrix(0.05,0,0,0.05,22,0)" xlink:href="#bC"/><use transform="matrix(0.05,0,0,0.05,27,0)" xlink:href="#bP"/><use transform="matrix(0.05,0,0,0.05,37.95,0)" xlink:href="#aW"/><use transform="matrix(0.05,0,0,0.05,47.95,0)" xlink:href="#bQ"/><use transform="matrix(0.05,0,0,0.05,58.900000000000006,0)" xlink:href="#bR"/><use transform="matrix(0.05,0,0,0.05,68.9,0)" xlink:href="#aW"/><use transform="matrix(0.05,0,0,0.05,78.9,0)" xlink:href="#be"/></g><path d="M30 0v-248h33v221h125V0H30" id="bZ"/><g id="aj"><use transform="matrix(0.05,0,0,0.05,0,0)" xlink:href="#bZ"/><use transform="matrix(0.05,0,0,0.05,10,0)" xlink:href="#bp"/><use transform="matrix(0.05,0,0,0.05,20,0)" xlink:href="#bv"/></g><g id="ak"><use transform="matrix(0.05,0,0,0.05,0,0)" xlink:href="#bq"/><use transform="matrix(0.05,0,0,0.05,12,0)" xlink:href="#bw"/><use transform="matrix(0.05,0,0,0.05,17.95,0)" xlink:href="#bu"/><use transform="matrix(0.05,0,0,0.05,27.950000000000003,0)" xlink:href="#bF"/><use transform="matrix(0.05,0,0,0.05,36.95,0)" xlink:href="#bi"/><use transform="matrix(0.05,0,0,0.05,46.95,0)" xlink:href="#bx"/><use transform="matrix(0.05,0,0,0.05,56.95,0)" xlink:href="#bs"/><use transform="matrix(0.05,0,0,0.05,66.95,0)" xlink:href="#bw"/><use transform="matrix(0.05,0,0,0.05,72.9,0)" xlink:href="#bi"/><use transform="matrix(0.05,0,0,0.05,82.9,0)" xlink:href="#bj"/></g><path d="M144 0l-44-69L55 0H2l70-98-66-92h53l41 62 40-62h54l-67 91 71 99h-54" id="ca"/><g id="al"><use transform="matrix(0.05,0,0,0.05,0,0)" xlink:href="#bB"/><use transform="matrix(0.05,0,0,0.05,12.950000000000001,0)" xlink:href="#bz"/><use transform="matrix(0.05,0,0,0.05,23.900000000000002,0)" xlink:href="#bQ"/><use transform="matrix(0.05,0,0,0.05,34.85,0)" xlink:href="#aZ"/><use transform="matrix(0.05,0,0,0.05,40.800000000000004,0)" xlink:href="#aW"/><use transform="matrix(0.05,0,0,0.05,50.800000000000004,0)" xlink:href="#ca"/><use transform="matrix(0.05,0,0,0.05,60.800000000000004,0)" xlink:href="#aZ"/><use transform="matrix(0.05,0,0,0.05,66.75,0)" xlink:href="#bI"/></g><g id="am"><use transform="matrix(0.05,0,0,0.05,0,0)" xlink:href="#bk"/><use transform="matrix(0.05,0,0,0.05,9.950000000000001,0)" xlink:href="#bl"/><use transform="matrix(0.05,0,0,0.05,22.900000000000002,0)" xlink:href="#bi"/><use transform="matrix(0.05,0,0,0.05,32.900000000000006,0)" xlink:href="#bi"/><use transform="matrix(0.05,0,0,0.05,42.900000000000006,0)" xlink:href="#bm"/><use transform="matrix(0.05,0,0,0.05,47.900000000000006,0)" xlink:href="#bn"/></g><g id="an"><use transform="matrix(0.05,0,0,0.05,0,0)" xlink:href="#bo"/><use transform="matrix(0.05,0,0,0.05,3.95,0)" xlink:href="#bj"/></g><g id="ao"><use transform="matrix(0.05,0,0,0.05,0,0)" xlink:href="#bp"/><use transform="matrix(0.05,0,0,0.05,10,0)" xlink:href="#bg"/></g><g id="ap"><use transform="matrix(0.05,0,0,0.05,0,0)" xlink:href="#bp"/><use transform="matrix(0.05,0,0,0.05,10,0)" xlink:href="#bg"/><use transform="matrix(0.05,0,0,0.05,20,0)" xlink:href="#bo"/><use transform="matrix(0.05,0,0,0.05,23.95,0)" xlink:href="#bJ"/><use transform="matrix(0.05,0,0,0.05,38.9,0)" xlink:href="#bp"/><use transform="matrix(0.05,0,0,0.05,48.9,0)" xlink:href="#bh"/></g><path d="M24 0v-248h52V0H24" id="cb"/><path d="M121-226c-27-7-43 5-38 36h38v33H83V0H34v-157H6v-33h28c-9-59 32-81 87-68v32" id="cc"/><g id="aq"><use transform="matrix(0.05,0,0,0.05,0,0)" xlink:href="#cb"/><use transform="matrix(0.05,0,0,0.05,5,0)" xlink:href="#bQ"/><use transform="matrix(0.05,0,0,0.05,15.950000000000001,0)" xlink:href="#cc"/><use transform="matrix(0.05,0,0,0.05,21.900000000000002,0)" xlink:href="#aW"/><use transform="matrix(0.05,0,0,0.05,31.900000000000002,0)" xlink:href="#bX"/><use transform="matrix(0.05,0,0,0.05,38.900000000000006,0)" xlink:href="#aW"/><use transform="matrix(0.05,0,0,0.05,48.900000000000006,0)" xlink:href="#bQ"/><use transform="matrix(0.05,0,0,0.05,59.85,0)" xlink:href="#bR"/><use transform="matrix(0.05,0,0,0.05,69.85000000000001,0)" xlink:href="#aW"/></g><g id="ar"><use transform="matrix(0.05,0,0,0.05,0,0)" xlink:href="#aV"/><use transform="matrix(0.05,0,0,0.05,12.950000000000001,0)" xlink:href="#aY"/><use transform="matrix(0.05,0,0,0.05,23.900000000000002,0)" xlink:href="#bb"/><use transform="matrix(0.05,0,0,0.05,28.900000000000002,0)" xlink:href="#aW"/><use transform="matrix(0.05,0,0,0.05,38.900000000000006,0)" xlink:href="#bI"/></g><path d="M33 0v-248h34V0H33" id="cd"/><g id="as"><use transform="matrix(0.05,0,0,0.05,0,0)" xlink:href="#cd"/><use transform="matrix(0.05,0,0,0.05,5,0)" xlink:href="#bK"/></g><g id="at"><use transform="matrix(0.05,0,0,0.05,0,0)" xlink:href="#bp"/><use transform="matrix(0.05,0,0,0.05,10,0)" xlink:href="#bh"/><use transform="matrix(0.05,0,0,0.05,13.949999999999998,0)" xlink:href="#bh"/></g><g id="au"><use transform="matrix(0.05,0,0,0.05,0,0)" xlink:href="#bx"/><use transform="matrix(0.05,0,0,0.05,10,0)" xlink:href="#bu"/><use transform="matrix(0.05,0,0,0.05,20,0)" xlink:href="#bs"/><use transform="matrix(0.05,0,0,0.05,30,0)" xlink:href="#bv"/><use transform="matrix(0.05,0,0,0.05,40,0)" xlink:href="#bm"/><use transform="matrix(0.05,0,0,0.05,45,0)" xlink:href="#bj"/></g><g id="av"><use transform="matrix(0.05,0,0,0.05,0,0)" xlink:href="#bm"/><use transform="matrix(0.05,0,0,0.05,5,0)" xlink:href="#bL"/><use transform="matrix(0.05,0,0,0.05,15,0)" xlink:href="#bp"/><use transform="matrix(0.05,0,0,0.05,25,0)" xlink:href="#bm"/></g><path d="M108 0H70L1-190h34L89-25l56-165h34" id="ce"/><g id="aw"><use transform="matrix(0.05,0,0,0.05,0,0)" xlink:href="#bM"/><use transform="matrix(0.05,0,0,0.05,10,0)" xlink:href="#bw"/><use transform="matrix(0.05,0,0,0.05,15.949999999999998,0)" xlink:href="#bi"/><use transform="matrix(0.05,0,0,0.05,25.950000000000003,0)" xlink:href="#ce"/><use transform="matrix(0.05,0,0,0.05,34.95,0)" xlink:href="#bi"/><use transform="matrix(0.05,0,0,0.05,44.95,0)" xlink:href="#bg"/><use transform="matrix(0.05,0,0,0.05,54.95,0)" xlink:href="#bm"/></g><use transform="matrix(0.05,0,0,0.05,0,0)" xlink:href="#bp" id="ax"/><g id="ay"><use transform="matrix(0.05,0,0,0.05,0,0)" xlink:href="#bl"/><use transform="matrix(0.05,0,0,0.05,12.950000000000001,0)" xlink:href="#bo"/><use transform="matrix(0.05,0,0,0.05,16.900000000000002,0)" xlink:href="#bg"/><use transform="matrix(0.05,0,0,0.05,26.900000000000002,0)" xlink:href="#br"/><use transform="matrix(0.05,0,0,0.05,36.900000000000006,0)" xlink:href="#bi"/><use transform="matrix(0.05,0,0,0.05,46.900000000000006,0)" xlink:href="#bx"/></g><g id="az"><use transform="matrix(0.05,0,0,0.05,0,0)" xlink:href="#bv"/><use transform="matrix(0.05,0,0,0.05,10,0)" xlink:href="#bo"/><use transform="matrix(0.05,0,0,0.05,13.949999999999998,0)" xlink:href="#bw"/><use transform="matrix(0.05,0,0,0.05,19.9,0)" xlink:href="#bx"/></g><g id="aA"><use transform="matrix(0.05,0,0,0.05,0,0)" xlink:href="#bK"/><use transform="matrix(0.05,0,0,0.05,5,0)" xlink:href="#bw"/><use transform="matrix(0.05,0,0,0.05,10.95,0)" xlink:href="#bu"/><use transform="matrix(0.05,0,0,0.05,20.95,0)" xlink:href="#bJ"/></g><g id="aB"><use transform="matrix(0.05,0,0,0.05,0,0)" xlink:href="#bK"/><use transform="matrix(0.05,0,0,0.05,5,0)" xlink:href="#bh"/><use transform="matrix(0.05,0,0,0.05,8.95,0)" xlink:href="#bn"/><use transform="matrix(0.05,0,0,0.05,17.95,0)" xlink:href="#bo"/><use transform="matrix(0.05,0,0,0.05,21.9,0)" xlink:href="#bg"/><use transform="matrix(0.05,0,0,0.05,31.899999999999995,0)" xlink:href="#br"/></g><g id="aC"><use transform="matrix(0.05,0,0,0.05,0,0)" xlink:href="#bL"/><use transform="matrix(0.05,0,0,0.05,10,0)" xlink:href="#bp"/><use transform="matrix(0.05,0,0,0.05,20,0)" xlink:href="#ce"/><use transform="matrix(0.05,0,0,0.05,29,0)" xlink:href="#bi"/></g><g id="aD"><use transform="matrix(0.05,0,0,0.05,0,0)" xlink:href="#bv"/><use transform="matrix(0.05,0,0,0.05,10,0)" xlink:href="#bi"/><use transform="matrix(0.05,0,0,0.05,20,0)" xlink:href="#bi"/><use transform="matrix(0.05,0,0,0.05,30,0)" xlink:href="#bg"/></g><g id="aE"><use transform="matrix(0.05,0,0,0.05,0,0)" xlink:href="#bw"/><use transform="matrix(0.05,0,0,0.05,5.95,0)" xlink:href="#bi"/><use transform="matrix(0.05,0,0,0.05,15.949999999999998,0)" xlink:href="#bJ"/><use transform="matrix(0.05,0,0,0.05,30.899999999999995,0)" xlink:href="#bu"/><use transform="matrix(0.05,0,0,0.05,40.9,0)" xlink:href="#ce"/><use transform="matrix(0.05,0,0,0.05,49.9,0)" xlink:href="#bi"/><use transform="matrix(0.05,0,0,0.05,59.900000000000006,0)" xlink:href="#bx"/></g><g id="aF"><use transform="matrix(0.05,0,0,0.05,0,0)" xlink:href="#bm"/><use transform="matrix(0.05,0,0,0.05,5,0)" xlink:href="#bL"/><use transform="matrix(0.05,0,0,0.05,15,0)" xlink:href="#bi"/><use transform="matrix(0.05,0,0,0.05,25,0)" xlink:href="#bg"/></g><g id="aG"><use transform="matrix(0.05,0,0,0.05,0,0)" xlink:href="#bm"/><use transform="matrix(0.05,0,0,0.05,5,0)" xlink:href="#bl"/><use transform="matrix(0.05,0,0,0.05,17.950000000000003,0)" xlink:href="#bi"/><use transform="matrix(0.05,0,0,0.05,27.950000000000003,0)" xlink:href="#bi"/><use transform="matrix(0.05,0,0,0.05,37.95,0)" xlink:href="#bm"/><use transform="matrix(0.05,0,0,0.05,42.95,0)" xlink:href="#bn"/></g><g id="aH"><use transform="matrix(0.05,0,0,0.05,0,0)" xlink:href="#bK"/><use transform="matrix(0.05,0,0,0.05,5,0)" xlink:href="#bh"/><use transform="matrix(0.05,0,0,0.05,8.95,0)" xlink:href="#bn"/></g><g id="aI"><use transform="matrix(0.05,0,0,0.05,0,0)" xlink:href="#bN"/><use transform="matrix(0.05,0,0,0.05,12,0)" xlink:href="#bO"/><use transform="matrix(0.05,0,0,0.05,22,0)" xlink:href="#bC"/><use transform="matrix(0.05,0,0,0.05,27,0)" xlink:href="#bP"/><use transform="matrix(0.05,0,0,0.05,37.95,0)" xlink:href="#aW"/><use transform="matrix(0.05,0,0,0.05,47.95,0)" xlink:href="#bQ"/><use transform="matrix(0.05,0,0,0.05,58.900000000000006,0)" xlink:href="#bR"/><use transform="matrix(0.05,0,0,0.05,68.9,0)" xlink:href="#aW"/><use transform="matrix(0.05,0,0,0.05,78.9,0)" xlink:href="#be"/></g><g id="aJ"><use transform="matrix(0.05,0,0,0.05,0,0)" xlink:href="#bG"/><use transform="matrix(0.05,0,0,0.05,10.950000000000001,0)" xlink:href="#bh"/><use transform="matrix(0.05,0,0,0.05,14.9,0)" xlink:href="#bn"/><use transform="matrix(0.05,0,0,0.05,23.900000000000002,0)" xlink:href="#bo"/><use transform="matrix(0.05,0,0,0.05,27.85,0)" xlink:href="#bg"/><use transform="matrix(0.05,0,0,0.05,37.85,0)" xlink:href="#br"/></g><g id="aK"><use transform="matrix(0.05,0,0,0.05,0,0)" xlink:href="#bk"/><use transform="matrix(0.05,0,0,0.05,9.950000000000001,0)" xlink:href="#bl"/><use transform="matrix(0.05,0,0,0.05,22.900000000000002,0)" xlink:href="#bi"/><use transform="matrix(0.05,0,0,0.05,32.900000000000006,0)" xlink:href="#bi"/><use transform="matrix(0.05,0,0,0.05,42.900000000000006,0)" xlink:href="#bm"/><use transform="matrix(0.05,0,0,0.05,47.900000000000006,0)" xlink:href="#bn"/></g><path d="M185-189c-5-48-123-54-124 2 14 75 158 14 163 119 3 78-121 87-175 55-17-10-28-26-33-46l33-7c5 56 141 63 141-1 0-78-155-14-162-118-5-82 145-84 179-34 5 7 8 16 11 25" id="cf"/><g id="aL"><use transform="matrix(0.05,0,0,0.05,0,0)" xlink:href="#cf"/><use transform="matrix(0.05,0,0,0.05,12,0)" xlink:href="#bo"/><use transform="matrix(0.05,0,0,0.05,15.949999999999998,0)" xlink:href="#br"/><use transform="matrix(0.05,0,0,0.05,25.950000000000003,0)" xlink:href="#bL"/><use transform="matrix(0.05,0,0,0.05,35.95,0)" xlink:href="#bm"/><use transform="matrix(0.05,0,0,0.05,40.95,0)" xlink:href="#bo"/><use transform="matrix(0.05,0,0,0.05,44.900000000000006,0)" xlink:href="#bg"/><use transform="matrix(0.05,0,0,0.05,54.900000000000006,0)" xlink:href="#br"/><use transform="matrix(0.05,0,0,0.05,64.9,0)" xlink:href="#bj"/></g><g id="aM"><use transform="matrix(0.05,0,0,0.05,0,0)" xlink:href="#bB"/><use transform="matrix(0.05,0,0,0.05,12.950000000000001,0)" xlink:href="#bb"/><use transform="matrix(0.05,0,0,0.05,17.950000000000003,0)" xlink:href="#ba"/><use transform="matrix(0.05,0,0,0.05,27.950000000000003,0)" xlink:href="#bC"/><use transform="matrix(0.05,0,0,0.05,32.95,0)" xlink:href="#bD"/></g><g id="aN"><use transform="matrix(0.05,0,0,0.05,0,0)" xlink:href="#bB"/><use transform="matrix(0.05,0,0,0.05,12.950000000000001,0)" xlink:href="#bH"/><use transform="matrix(0.05,0,0,0.05,22.950000000000003,0)" xlink:href="#bI"/></g><g id="aO"><use transform="matrix(0.05,0,0,0.05,0,0)" xlink:href="#bk"/><use transform="matrix(0.05,0,0,0.05,9.950000000000001,0)" xlink:href="#bl"/><use transform="matrix(0.05,0,0,0.05,22.900000000000002,0)" xlink:href="#bi"/><use transform="matrix(0.05,0,0,0.05,32.900000000000006,0)" xlink:href="#bi"/><use transform="matrix(0.05,0,0,0.05,42.900000000000006,0)" xlink:href="#bm"/><use transform="matrix(0.05,0,0,0.05,47.900000000000006,0)" xlink:href="#bn"/></g><g id="aP"><use transform="matrix(0.05,0,0,0.05,0,0)" xlink:href="#bo"/><use transform="matrix(0.05,0,0,0.05,3.95,0)" xlink:href="#bj"/></g><g id="aQ"><use transform="matrix(0.05,0,0,0.05,0,0)" xlink:href="#bp"/><use transform="matrix(0.05,0,0,0.05,10,0)" xlink:href="#bg"/></g><g id="aR"><use transform="matrix(0.05,0,0,0.05,0,0)" xlink:href="#bp"/><use transform="matrix(0.05,0,0,0.05,10,0)" xlink:href="#bx"/><use transform="matrix(0.05,0,0,0.05,20,0)" xlink:href="#bs"/><use transform="matrix(0.05,0,0,0.05,30,0)" xlink:href="#bh"/><use transform="matrix(0.05,0,0,0.05,33.95,0)" xlink:href="#bm"/></g><g id="aS"><use transform="matrix(0.05,0,0,0.05,0,0)" xlink:href="#bW"/><use transform="matrix(0.05,0,0,0.05,12.950000000000001,0)" xlink:href="#bQ"/><use transform="matrix(0.05,0,0,0.05,23.900000000000002,0)" xlink:href="#bP"/><use transform="matrix(0.05,0,0,0.05,34.85,0)" xlink:href="#aW"/><use transform="matrix(0.05,0,0,0.05,44.85,0)" xlink:href="#bX"/><use transform="matrix(0.05,0,0,0.05,51.85,0)" xlink:href="#bR"/><use transform="matrix(0.05,0,0,0.05,61.85,0)" xlink:href="#aY"/><use transform="matrix(0.05,0,0,0.05,72.8,0)" xlink:href="#aZ"/><use transform="matrix(0.05,0,0,0.05,78.75,0)" xlink:href="#bI"/></g><g id="aT"><use transform="matrix(0.05,0,0,0.05,0,0)" xlink:href="#bf"/><use transform="matrix(0.05,0,0,0.05,12.950000000000001,0)" xlink:href="#bg"/><use transform="matrix(0.05,0,0,0.05,22.950000000000003,0)" xlink:href="#bh"/><use transform="matrix(0.05,0,0,0.05,26.900000000000002,0)" xlink:href="#bi"/><use transform="matrix(0.05,0,0,0.05,36.900000000000006,0)" xlink:href="#bj"/><use transform="matrix(0.05,0,0,0.05,45.900000000000006,0)" xlink:href="#bj"/></g><path d="M24-231v-30h32v30H24zM-9 49c24 4 33-6 33-30v-209h32V24c2 40-23 58-65 49V49" id="cg"/><g id="aU"><use transform="matrix(0.05,0,0,0.05,0,0)" xlink:href="#cg"/><use transform="matrix(0.05,0,0,0.05,3.95,0)" xlink:href="#bs"/><use transform="matrix(0.05,0,0,0.05,13.949999999999998,0)" xlink:href="#ce"/><use transform="matrix(0.05,0,0,0.05,22.95,0)" xlink:href="#bi"/><use transform="matrix(0.05,0,0,0.05,32.95,0)" xlink:href="#bg"/><use transform="matrix(0.05,0,0,0.05,42.95,0)" xlink:href="#bo"/><use transform="matrix(0.05,0,0,0.05,46.900000000000006,0)" xlink:href="#bh"/><use transform="matrix(0.05,0,0,0.05,50.85000000000001,0)" xlink:href="#bi"/></g></defs></g></svg>