<svg xmlns="http://www.w3.org/2000/svg" xmlns:xlink="http://www.w3.org/1999/xlink" width="720" height="945"><g transform="translate(-1000 -600)"><path d="M0 0h1360v1760H0z" fill="#fff"/><path d="M1383 620h205.83v98H1383z" stroke="#000" stroke-width="2" fill="#fff"/><use xlink:href="#a" transform="matrix(1,0,0,1,1388,625.001312607681) translate(9.150000000000006 26)"/><use xlink:href="#b" transform="matrix(1,0,0,1,1388,625.001312607681) translate(63.10000000000001 26)"/><use xlink:href="#c" transform="matrix(1,0,0,1,1388,625.001312607681) translate(97.00000000000001 26)"/><use xlink:href="#d" transform="matrix(1,0,0,1,1388,625.001312607681) translate(158.9 26)"/><use xlink:href="#e" transform="matrix(1,0,0,1,1388,625.001312607681) translate(176.85 26)"/><use xlink:href="#f" transform="matrix(1,0,0,1,1388,625.001312607681) translate(40.074999999999996 47.6)"/><use xlink:href="#g" transform="matrix(1,0,0,1,1388,625.001312607681) translate(110.92500000000001 47.6)"/><use xlink:href="#h" transform="matrix(1,0,0,1,1388,625.001312607681) translate(130.925 47.6)"/><use xlink:href="#i" transform="matrix(1,0,0,1,1388,625.001312607681) translate(27.125 69.2)"/><use xlink:href="#j" transform="matrix(1,0,0,1,1388,625.001312607681) translate(74.025 69.2)"/><use xlink:href="#k" transform="matrix(1,0,0,1,1388,625.001312607681) translate(117.925 69.2)"/><path d="M1620 844.77c0 44.18-35.82 80-80 80s-80-35.82-80-80c0-44.2 35.82-80 80-80s80 35.8 80 80z" stroke="#000" stroke-width="2" fill="#fff"/><use xlink:href="#l" transform="matrix(1,0,0,1,1465,769.7671640224271) translate(33.05 57)"/><use xlink:href="#m" transform="matrix(1,0,0,1,1465,769.7671640224271) translate(0.42499999999998295 78.60000000000001)"/><use xlink:href="#n" transform="matrix(1,0,0,1,1465,769.7671640224271) translate(74.725 78.60000000000001)"/><use xlink:href="#o" transform="matrix(1,0,0,1,1465,769.7671640224271) translate(116.625 78.60000000000001)"/><use xlink:href="#p" transform="matrix(1,0,0,1,1465,769.7671640224271) translate(45.05 100.20000000000002)"/><path d="M1485.92 718l.06 1.35.18 1.28.28 1.23.4 1.2.54 1.2.7 1.23.87 1.28 1.15 1.38 1.52 1.52 2.12 1.74 3.16 2.15 5.6 3.08 26.52 12.55 3.16 2.15 2.1 1.74 1.54 1.5 1.15 1.4.88 1.28.7 1.23.52 1.2.4 1.2.3 1.24.17 1.27.06 1.37" stroke="#000" stroke-width="2" fill="none"/><path d="M1485.04 718.48l-.26-.48h1.14zM1540 764.77l-10.9-10.3 8.12-4.44z"/><path d="M1541.02 764.8l-1.02-.03h-.68l-.74.03-11.18-10.54 10.55-5.77zm-10.24-10.1l7.67 7.23-1.96-10.37z"/><path d="M1075.17 620H1281v98h-205.83z" stroke="#000" stroke-width="2" fill="#fff"/><use xlink:href="#q" transform="matrix(1,0,0,1,1080.166666666667,625) translate(30.625 36.8)"/><use xlink:href="#c" transform="matrix(1,0,0,1,1080.166666666667,625) translate(90.525 36.8)"/><use xlink:href="#r" transform="matrix(1,0,0,1,1080.166666666667,625) translate(152.425 36.8)"/><use xlink:href="#s" transform="matrix(1,0,0,1,1080.166666666667,625) translate(39.599999999999994 58.4)"/><use xlink:href="#t" transform="matrix(1,0,0,1,1080.166666666667,625) translate(122.45 58.4)"/><path d="M1180 842.77c0 44.18-35.82 80-80 80s-80-35.82-80-80c0-44.2 35.82-80 80-80s80 35.8 80 80z" stroke="#000" stroke-width="2" fill="#fff"/><use xlink:href="#u" transform="matrix(1,0,0,1,1025,767.7670514027463) translate(33.05 57)"/><use xlink:href="#v" transform="matrix(1,0,0,1,1025,767.7670514027463) translate(24.549999999999997 78.60000000000001)"/><use xlink:href="#w" transform="matrix(1,0,0,1,1025,767.7670514027463) translate(96.45 78.60000000000001)"/><use xlink:href="#x" transform="matrix(1,0,0,1,1025,767.7670514027463) translate(51.55 100.20000000000002)"/><path d="M1178.08 718l-.02.6-.05.6-.1.57-.12.58-.17.57-.2.58-.26.58-.3.6-.4.62-.44.65-.55.7-.66.72-.83.8-1.02.87-1.3.97-1.72 1.12-2.32 1.3-3.32 1.6-5.3 2.14-11.68 3.82-28.2 8.62-5.3 2.14-3.33 1.6-2.32 1.3-1.7 1.12-1.3.97-1.04.87-.8.8-.67.73-.55.7-.45.64-.38.62-.3.6-.27.57-.2.58-.18.57-.13.57-.1.57-.05.6-.02.6" stroke="#000" stroke-width="2" fill="none"/><path d="M1178.88 718.6l-.8-.6h1.26zM1112.3 754.2l-12.3 8.57 4.93-14.17z"/><path d="M1114 754.24l-12.32 8.58-1.68-.05h-.68l-.4.02 5.5-15.83zm-12.04 5.95l8.65-6.03-5.18-3.94z"/><path d="M1132 1011.76c0 17.95-14.77 32.5-33 32.5s-33-14.55-33-32.5 14.77-32.5 33-32.5 33 14.55 33 32.5z" stroke="#000" stroke-width="2" fill="#ccc"/><use xlink:href="#y" transform="matrix(1,0,0,1,1070.9999999930933,984.2633203847727) translate(28 32.9)"/><path d="M1100 922.77l-1 55.5" stroke="#000" stroke-width="2" fill="none"/><path d="M1100 922.77h.68l.32-.02v.04l-2-.05zM1103.9 964.08l-4.9 14.18-4.38-14.34z"/><path d="M1105.3 963.1l-5.6 16.22-.7-.06-.73.02-5-16.4zm-6.24 11.93l3.44-9.97-6.52-.12z"/><path d="M1460 971.53h170.36l20.3 20.3v81.24H1460z" stroke="#82b3ce" stroke-width="2" fill="#99d2f2"/><path d="M1630.36 971.53l20.3 20.3h-20.3z" fill="#82b3ce"/><use xlink:href="#z" transform="matrix(1,0,0,1,1465,976.5330154371732) translate(10.674999999999997 28)"/><use xlink:href="#A" transform="matrix(1,0,0,1,1465,976.5330154371732) translate(115.425 28)"/><use xlink:href="#B" transform="matrix(1,0,0,1,1465,976.5330154371732) translate(21.57499999999999 49.6)"/><use xlink:href="#C" transform="matrix(1,0,0,1,1465,976.5330154371732) translate(51.57499999999999 49.6)"/><use xlink:href="#D" transform="matrix(1,0,0,1,1465,976.5330154371732) translate(93.475 49.6)"/><use xlink:href="#E" transform="matrix(1,0,0,1,1465,976.5330154371732) translate(127.475 49.6)"/><use xlink:href="#F" transform="matrix(1,0,0,1,1465,976.5330154371732) translate(36.55 71.2)"/><path d="M1455 1119.83h245v98h-245z" stroke="#000" stroke-width="2" fill="#fff"/><use xlink:href="#q" transform="matrix(1,0,0,1,1459.9999999999998,1124.832969657412) translate(8.625 26)"/><use xlink:href="#G" transform="matrix(1,0,0,1,1459.9999999999998,1124.832969657412) translate(68.525 26)"/><use xlink:href="#H" transform="matrix(1,0,0,1,1459.9999999999998,1124.832969657412) translate(104.47500000000001 26)"/><use xlink:href="#I" transform="matrix(1,0,0,1,1459.9999999999998,1124.832969657412) translate(167.375 26)"/><use xlink:href="#J" transform="matrix(1,0,0,1,1459.9999999999998,1124.832969657412) translate(207.375 26)"/><use xlink:href="#K" transform="matrix(1,0,0,1,1459.9999999999998,1124.832969657412) translate(10.174999999999997 47.6)"/><use xlink:href="#L" transform="matrix(1,0,0,1,1459.9999999999998,1124.832969657412) translate(175.925 47.6)"/><use xlink:href="#M" transform="matrix(1,0,0,1,1459.9999999999998,1124.832969657412) translate(103.5 69.2)"/><path d="M1695 1344.6c0 44.18-35.82 80-80 80s-80-35.82-80-80 35.82-80 80-80 80 35.82 80 80z" stroke="#000" stroke-width="2" fill="#fff"/><g><use xlink:href="#N" transform="matrix(1,0,0,1,1540,1269.598821072158) translate(33.05 67.8)"/><use xlink:href="#O" transform="matrix(1,0,0,1,1540,1269.598821072158) translate(11.549999999999997 89.4)"/><use xlink:href="#P" transform="matrix(1,0,0,1,1540,1269.598821072158) translate(46.55 89.4)"/></g><path d="M1577.5 1217.83l.13 2.4.35 2.17.56 2 .77 1.9 1.03 1.93 1.37 2 1.9 2.2 2.96 2.76 18.63 14.26 1.95 2.28 1.4 2.06 1.08 2 .8 2 .58 2.08.38 2.26.12 1.57" stroke="#000" stroke-width="2" fill="none"/><path d="M1576.57 1218.2l-.14-.37h1.07zM1611.5 1263.7l-9.8-11.34 8.54-3.6z"/><path d="M1612.58 1264.67l-1.52.06-11.02-12.76 11.1-4.66zm-9.23-11.92l6.9 7.98-.9-10.5z"/><path d="M1555.33 1073.07l.35 6.77.8 4.95 1.25 4.4 6.78 17.9.82 4.96.35 6.77" stroke="#000" stroke-width="2" fill="none"/><path d="M1554.34 1073.2l-.02-.13h1.02zM1565.67 1118.83l-6.78-13.38 9.15-1.43z"/><path d="M1566.52 1119.83h-1.47l-7.67-15.16 11.88-1.85zm-6.1-13.6l4.75 9.4 1.68-10.4z"/><path d="M1540 924.77l.43 8.6 1 6.03 5.8 22.53.44 8.6" stroke="#000" stroke-width="2" fill="none"/><path d="M1540 924.77l-1 .1v-.13zM1547.67 970.53l-6.53-13.5 9.18-1.26z"/><path d="M1548.5 971.53h-1.46l-7.4-15.3 11.9-1.64zm-5.86-13.7l4.6 9.5 1.85-10.38z"/><path d="M1700 1492.5c0 17.95-14.77 32.5-33 32.5s-33-14.55-33-32.5 14.77-32.5 33-32.5 33 14.55 33 32.5z" stroke="#000" stroke-width="2" fill="#ccc"/><g><use xlink:href="#y" transform="matrix(1,0,0,1,1639,1465) translate(28 32.9)"/></g><path d="M1615 1424.6l.1 1.88.27 1.6.4 1.4.52 1.28.64 1.2.8 1.13 1 1.13 1.28 1.16 1.7 1.22 2.46 1.37 4.16 1.74 21.5 7.16 2.68 1.5 1.9 1.36 1.42 1.3 1.13 1.28.92 1.3.75 1.4.6 1.48.48 1.65.27 1.55" stroke="#000" stroke-width="2" fill="none"/><path d="M1615 1424.6l-.86.5-.32-.54zM1660 1459.72l-12-9 7.56-5.33z"/><path d="M1661.3 1460.55l-1.22.17-.3.08-13.5-10.1 9.83-6.92zm-11.6-9.8l8.43 6.32-3.1-10.07z"/><path d="M1386 842.77c0 44.18-35.82 80-80 80s-80-35.82-80-80c0-44.2 35.82-80 80-80s80 35.8 80 80z" stroke="#000" stroke-width="2" fill="#fff"/><g><use xlink:href="#Q" transform="matrix(1,0,0,1,1231,767.7670514027463) translate(33.05 57)"/><use xlink:href="#R" transform="matrix(1,0,0,1,1231,767.7670514027463) translate(20.125 78.60000000000001)"/><use xlink:href="#S" transform="matrix(1,0,0,1,1231,767.7670514027463) translate(72.975 78.60000000000001)"/><use xlink:href="#T" transform="matrix(1,0,0,1,1231,767.7670514027463) translate(38.05 100.20000000000002)"/></g><path d="M1338 1011.76c0 17.95-14.77 32.5-33 32.5s-33-14.55-33-32.5 14.77-32.5 33-32.5 33 14.55 33 32.5z" stroke="#000" stroke-width="2" fill="#ccc"/><g><use xlink:href="#y" transform="matrix(1,0,0,1,1276.9999999930933,984.2633203847727) translate(28 32.9)"/></g><path d="M1306 922.77l-1 55.5" stroke="#000" stroke-width="2" fill="none"/><path d="M1306 922.77h.68l.32-.02v.04l-2-.05zM1309.9 964.08l-4.9 14.18-4.38-14.34z"/><path d="M1311.3 963.1l-5.6 16.22-.7-.06-.73.02-5-16.4zm-6.24 11.93l3.44-9.97-6.52-.12z"/><path d="M1178.08 718v.25l.02.24.03.23.03.24.05.23.07.24.06.25.08.23.1.25.1.25.13.26.14.25.16.27.18.3.2.28.24.3.27.32.3.34.36.36.4.38.48.4.55.44.65.48.8.52.94.58 1.17.64 1.47.73 1.88.83 2.47.97 3.36 1.17 4.86 1.46 7.64 1.95 15.2 3.18 54.37 10.23 7.64 1.94 4.85 1.45 3.37 1.16 2.47.98 1.88.83 1.47.73 1.17.65.95.57.78.53.66.47.55.44.47.4.4.4.35.35.3.34.27.32.23.3.2.3.2.28.14.28.15.26.12.26.1.25.1.24.08.24.07.24.05.24.05.24.03.24.03.24v.24l.02.25" stroke="#000" stroke-width="2" fill="none"/><path d="M1177.4 718.72l-.76-.72h1.44zM1306 762.77l-13.5-6.56 6.44-6.67z"/><path d="M1307.15 762.8l-1.15-.03h-.68l-1.48.06-13-6.32 8.33-8.65zm-12.97-6.9l9.5 4.62-4.98-9.3z"/><defs><path d="M67-125c0 53 21 87 73 88 37 1 54-22 65-47l45 17C233-25 199 4 140 4 58 4 20-42 15-125 8-235 124-281 211-232c18 10 29 29 36 50l-46 12c-8-25-30-41-62-41-52 0-71 34-72 86" id="U"/><path d="M25 0v-261h50V0H25" id="V"/><path d="M133-34C117-15 103 5 69 4 32 3 11-16 11-54c-1-60 55-63 116-61 1-26-3-47-28-47-18 1-26 9-28 27l-52-2c7-38 36-58 82-57s74 22 75 68l1 82c-1 14 12 18 25 15v27c-30 8-71 5-69-32zm-48 3c29 0 43-24 42-57-32 0-66-3-65 30 0 17 8 27 23 27" id="W"/><path d="M25-224v-37h50v37H25zM25 0v-190h50V0H25" id="X"/><path d="M220-157c-53 9-28 100-34 157h-49v-107c1-27-5-49-29-50C55-147 81-57 75 0H25l-1-190h47c2 12-1 28 3 38 10-53 101-56 108 0 13-22 24-43 59-42 82 1 51 116 57 194h-49v-107c-1-25-5-48-29-50" id="Y"/><g id="a"><use transform="matrix(0.05,0,0,0.05,0,0)" xlink:href="#U"/><use transform="matrix(0.05,0,0,0.05,12.950000000000001,0)" xlink:href="#V"/><use transform="matrix(0.05,0,0,0.05,17.950000000000003,0)" xlink:href="#W"/><use transform="matrix(0.05,0,0,0.05,27.950000000000003,0)" xlink:href="#X"/><use transform="matrix(0.05,0,0,0.05,32.95,0)" xlink:href="#Y"/></g><path d="M182-182c0 78-84 86-111 141h115V0H12c-6-101 99-100 120-180 1-22-12-31-33-32-23 0-32 14-35 34l-49-3c5-45 32-70 84-70 51 0 83 22 83 69" id="Z"/><path d="M35-132v-50h50v50H35zM35 0v-49h50V0H35" id="aa"/><g id="b"><use transform="matrix(0.05,0,0,0.05,0,0)" xlink:href="#U"/><use transform="matrix(0.05,0,0,0.05,12.950000000000001,0)" xlink:href="#Z"/><use transform="matrix(0.05,0,0,0.05,22.950000000000003,0)" xlink:href="#aa"/></g><path d="M127-220V0H93v-220H8v-28h204v28h-85" id="ab"/><path d="M206 0h-36l-40-164L89 0H53L-1-190h32L70-26l43-164h34l41 164 42-164h31" id="ac"/><path d="M100-194c63 0 86 42 84 106H49c0 40 14 67 53 68 26 1 43-12 49-29l28 8c-11 28-37 45-77 45C44 4 14-33 15-96c1-61 26-98 85-98zm52 81c6-60-76-77-97-28-3 7-6 17-6 28h103" id="ad"/><path d="M59-47c-2 24 18 29 38 22v24C64 9 27 4 27-40v-127H5v-23h24l9-43h21v43h35v23H59v120" id="ae"/><path d="M179-190L93 31C79 59 56 82 12 73V49c39 6 53-20 64-50L1-190h34L92-34l54-156h33" id="af"/><g id="c"><use transform="matrix(0.05,0,0,0.05,0,0)" xlink:href="#ab"/><use transform="matrix(0.05,0,0,0.05,9.950000000000001,0)" xlink:href="#ac"/><use transform="matrix(0.05,0,0,0.05,22.900000000000002,0)" xlink:href="#ad"/><use transform="matrix(0.05,0,0,0.05,32.900000000000006,0)" xlink:href="#ad"/><use transform="matrix(0.05,0,0,0.05,42.900000000000006,0)" xlink:href="#ae"/><use transform="matrix(0.05,0,0,0.05,47.900000000000006,0)" xlink:href="#af"/></g><path d="M24-231v-30h32v30H24zM24 0v-190h32V0H24" id="ag"/><path d="M135-143c-3-34-86-38-87 0 15 53 115 12 119 90S17 21 10-45l28-5c4 36 97 45 98 0-10-56-113-15-118-90-4-57 82-63 122-42 12 7 21 19 24 35" id="ah"/><g id="d"><use transform="matrix(0.05,0,0,0.05,0,0)" xlink:href="#ag"/><use transform="matrix(0.05,0,0,0.05,3.95,0)" xlink:href="#ah"/></g><path d="M141-36C126-15 110 5 73 4 37 3 15-17 15-53c-1-64 63-63 125-63 3-35-9-54-41-54-24 1-41 7-42 31l-33-3c5-37 33-52 76-52 45 0 72 20 72 64v82c-1 20 7 32 28 27v20c-31 9-61-2-59-35zM48-53c0 20 12 33 32 33 41-3 63-29 60-74-43 2-92-5-92 41" id="ai"/><use transform="matrix(0.05,0,0,0.05,0,0)" xlink:href="#ai" id="e"/><path d="M210-169c-67 3-38 105-44 169h-31v-121c0-29-5-50-35-48C34-165 62-65 56 0H25l-1-190h30c1 10-1 24 2 32 10-44 99-50 107 0 11-21 27-35 58-36 85-2 47 119 55 194h-31v-121c0-29-5-49-35-48" id="aj"/><path d="M115-194c53 0 69 39 70 98 0 66-23 100-70 100C84 3 66-7 56-30L54 0H23l1-261h32v101c10-23 28-34 59-34zm-8 174c40 0 45-34 45-75 0-40-5-75-45-74-42 0-51 32-51 76 0 43 10 73 51 73" id="ak"/><path d="M114-163C36-179 61-72 57 0H25l-1-190h30c1 12-1 29 2 39 6-27 23-49 58-41v29" id="al"/><g id="f"><use transform="matrix(0.05,0,0,0.05,0,0)" xlink:href="#aj"/><use transform="matrix(0.05,0,0,0.05,14.950000000000001,0)" xlink:href="#ad"/><use transform="matrix(0.05,0,0,0.05,24.950000000000003,0)" xlink:href="#aj"/><use transform="matrix(0.05,0,0,0.05,39.900000000000006,0)" xlink:href="#ak"/><use transform="matrix(0.05,0,0,0.05,49.900000000000006,0)" xlink:href="#ad"/><use transform="matrix(0.05,0,0,0.05,59.900000000000006,0)" xlink:href="#al"/></g><path d="M100-194c62-1 85 37 85 99 1 63-27 99-86 99S16-35 15-95c0-66 28-99 85-99zM99-20c44 1 53-31 53-75 0-43-8-75-51-75s-53 32-53 75 10 74 51 75" id="am"/><path d="M101-234c-31-9-42 10-38 44h38v23H63V0H32v-167H5v-23h27c-7-52 17-82 69-68v24" id="an"/><g id="g"><use transform="matrix(0.05,0,0,0.05,0,0)" xlink:href="#am"/><use transform="matrix(0.05,0,0,0.05,10,0)" xlink:href="#an"/></g><path d="M106-169C34-169 62-67 57 0H25v-261h32l-1 103c12-21 28-36 61-36 89 0 53 116 60 194h-32v-121c2-32-8-49-39-48" id="ao"/><g id="h"><use transform="matrix(0.05,0,0,0.05,0,0)" xlink:href="#ae"/><use transform="matrix(0.05,0,0,0.05,5,0)" xlink:href="#ao"/><use transform="matrix(0.05,0,0,0.05,15,0)" xlink:href="#ad"/></g><path d="M24 0v-261h32V0H24" id="ap"/><path d="M117-194c89-4 53 116 60 194h-32v-121c0-31-8-49-39-48C34-167 62-67 57 0H25l-1-190h30c1 10-1 24 2 32 11-22 29-35 61-36" id="aq"/><path d="M177-190C167-65 218 103 67 71c-23-6-38-20-44-43l32-5c15 47 100 32 89-28v-30C133-14 115 1 83 1 29 1 15-40 15-95c0-56 16-97 71-98 29-1 48 16 59 35 1-10 0-23 2-32h30zM94-22c36 0 50-32 50-73 0-42-14-75-50-75-39 0-46 34-46 75s6 73 46 73" id="ar"/><g id="i"><use transform="matrix(0.05,0,0,0.05,0,0)" xlink:href="#an"/><use transform="matrix(0.05,0,0,0.05,5,0)" xlink:href="#ap"/><use transform="matrix(0.05,0,0,0.05,8.95,0)" xlink:href="#af"/><use transform="matrix(0.05,0,0,0.05,17.95,0)" xlink:href="#ag"/><use transform="matrix(0.05,0,0,0.05,21.9,0)" xlink:href="#aq"/><use transform="matrix(0.05,0,0,0.05,31.899999999999995,0)" xlink:href="#ar"/></g><path d="M85-194c31 0 48 13 60 33l-1-100h32l1 261h-30c-2-10 0-23-3-31C134-8 116 4 85 4 32 4 16-35 15-94c0-66 23-100 70-100zm9 24c-40 0-46 34-46 75 0 40 6 74 45 74 42 0 51-32 51-76 0-42-9-74-50-73" id="as"/><g id="j"><use transform="matrix(0.05,0,0,0.05,0,0)" xlink:href="#ak"/><use transform="matrix(0.05,0,0,0.05,10,0)" xlink:href="#ag"/><use transform="matrix(0.05,0,0,0.05,13.949999999999998,0)" xlink:href="#al"/><use transform="matrix(0.05,0,0,0.05,19.9,0)" xlink:href="#as"/><use transform="matrix(0.05,0,0,0.05,29.899999999999995,0)" xlink:href="#ah"/></g><path d="M115-194c55 1 70 41 70 98S169 2 115 4C84 4 66-9 55-30l1 105H24l-1-265h31l2 30c10-21 28-34 59-34zm-8 174c40 0 45-34 45-75s-6-73-45-74c-42 0-51 32-51 76 0 43 10 73 51 73" id="at"/><path d="M96-169c-40 0-48 33-48 73s9 75 48 75c24 0 41-14 43-38l32 2c-6 37-31 61-74 61-59 0-76-41-82-99-10-93 101-131 147-64 4 7 5 14 7 22l-32 3c-4-21-16-35-41-35" id="au"/><g id="k"><use transform="matrix(0.05,0,0,0.05,0,0)" xlink:href="#ah"/><use transform="matrix(0.05,0,0,0.05,9,0)" xlink:href="#at"/><use transform="matrix(0.05,0,0,0.05,19,0)" xlink:href="#ag"/><use transform="matrix(0.05,0,0,0.05,22.95,0)" xlink:href="#au"/><use transform="matrix(0.05,0,0,0.05,31.950000000000003,0)" xlink:href="#ad"/><use transform="matrix(0.05,0,0,0.05,41.95,0)" xlink:href="#ah"/></g><path d="M24 0v-248h195v40H76v63h132v40H76v65h150V0H24" id="av"/><path d="M128 0H69L1-190h53L99-40l48-150h52" id="aw"/><path d="M88-194c31-1 46 15 58 34l-1-101h50l1 261h-48c-2-10 0-23-3-31C134-8 116 4 84 4 32 4 16-41 15-95c0-56 19-97 73-99zm17 164c33 0 40-30 41-66 1-37-9-64-41-64s-38 30-39 65c0 43 13 65 39 65" id="ax"/><path d="M185-48c-13 30-37 53-82 52C43 2 14-33 14-96s30-98 90-98c62 0 83 45 84 108H66c0 31 8 55 39 56 18 0 30-7 34-22zm-45-69c5-46-57-63-70-21-2 6-4 13-4 21h74" id="ay"/><path d="M135-194c87-1 58 113 63 194h-50c-7-57 23-157-34-157-59 0-34 97-39 157H25l-1-190h47c2 12-1 28 3 38 12-26 28-41 61-42" id="az"/><path d="M190-63c-7 42-38 67-86 67-59 0-84-38-90-98-12-110 154-137 174-36l-49 2c-2-19-15-32-35-32-30 0-35 28-38 64-6 74 65 87 74 30" id="aA"/><path d="M33-154v-36h34v36H33zM33 0v-36h34V0H33" id="aB"/><g id="l"><use transform="matrix(0.05,0,0,0.05,0,0)" xlink:href="#av"/><use transform="matrix(0.05,0,0,0.05,12,0)" xlink:href="#aw"/><use transform="matrix(0.05,0,0,0.05,22,0)" xlink:href="#X"/><use transform="matrix(0.05,0,0,0.05,27,0)" xlink:href="#ax"/><use transform="matrix(0.05,0,0,0.05,37.95,0)" xlink:href="#ay"/><use transform="matrix(0.05,0,0,0.05,47.95,0)" xlink:href="#az"/><use transform="matrix(0.05,0,0,0.05,58.900000000000006,0)" xlink:href="#aA"/><use transform="matrix(0.05,0,0,0.05,68.9,0)" xlink:href="#ay"/><use transform="matrix(0.05,0,0,0.05,78.9,0)" xlink:href="#aB"/></g><path d="M47-170H22l-4-78h33" id="aC"/><g id="m"><use transform="matrix(0.05,0,0,0.05,0,0)" xlink:href="#ab"/><use transform="matrix(0.05,0,0,0.05,9.950000000000001,0)" xlink:href="#ac"/><use transform="matrix(0.05,0,0,0.05,22.900000000000002,0)" xlink:href="#ad"/><use transform="matrix(0.05,0,0,0.05,32.900000000000006,0)" xlink:href="#ad"/><use transform="matrix(0.05,0,0,0.05,42.900000000000006,0)" xlink:href="#ae"/><use transform="matrix(0.05,0,0,0.05,47.900000000000006,0)" xlink:href="#af"/><use transform="matrix(0.05,0,0,0.05,56.900000000000006,0)" xlink:href="#aC"/><use transform="matrix(0.05,0,0,0.05,60.300000000000004,0)" xlink:href="#ah"/></g><path d="M30-248c118-7 216 8 213 122C240-48 200 0 122 0H30v-248zM63-27c89 8 146-16 146-99s-60-101-146-95v194" id="aD"/><path d="M190 0L58-211 59 0H30v-248h39L202-35l-2-213h31V0h-41" id="aE"/><path d="M205 0l-28-72H64L36 0H1l101-248h38L239 0h-34zm-38-99l-47-123c-12 45-31 82-46 123h93" id="aF"/><g id="n"><use transform="matrix(0.05,0,0,0.05,0,0)" xlink:href="#aD"/><use transform="matrix(0.05,0,0,0.05,12.950000000000001,0)" xlink:href="#aE"/><use transform="matrix(0.05,0,0,0.05,25.900000000000002,0)" xlink:href="#aF"/></g><g id="o"><use transform="matrix(0.05,0,0,0.05,0,0)" xlink:href="#ab"/><use transform="matrix(0.05,0,0,0.05,8.950000000000001,0)" xlink:href="#ad"/><use transform="matrix(0.05,0,0,0.05,18.950000000000003,0)" xlink:href="#ah"/><use transform="matrix(0.05,0,0,0.05,27.950000000000003,0)" xlink:href="#ae"/></g><path d="M233-177c-1 41-23 64-60 70L243 0h-38l-65-103H63V0H30v-248c88 3 205-21 203 71zM63-129c60-2 137 13 137-47 0-61-80-42-137-45v92" id="aG"/><path d="M84 4C-5 8 30-112 23-190h32v120c0 31 7 50 39 49 72-2 45-101 50-169h31l1 190h-30c-1-10 1-25-2-33-11 22-28 36-60 37" id="aH"/><g id="p"><use transform="matrix(0.05,0,0,0.05,0,0)" xlink:href="#aG"/><use transform="matrix(0.05,0,0,0.05,12.950000000000001,0)" xlink:href="#ad"/><use transform="matrix(0.05,0,0,0.05,22.950000000000003,0)" xlink:href="#ah"/><use transform="matrix(0.05,0,0,0.05,31.950000000000003,0)" xlink:href="#aH"/><use transform="matrix(0.05,0,0,0.05,41.95,0)" xlink:href="#ap"/><use transform="matrix(0.05,0,0,0.05,45.900000000000006,0)" xlink:href="#ae"/><use transform="matrix(0.05,0,0,0.05,50.900000000000006,0)" xlink:href="#ah"/></g><g id="q"><use transform="matrix(0.05,0,0,0.05,0,0)" xlink:href="#U"/><use transform="matrix(0.05,0,0,0.05,12.950000000000001,0)" xlink:href="#V"/><use transform="matrix(0.05,0,0,0.05,17.950000000000003,0)" xlink:href="#W"/><use transform="matrix(0.05,0,0,0.05,27.950000000000003,0)" xlink:href="#X"/><use transform="matrix(0.05,0,0,0.05,32.95,0)" xlink:href="#Y"/><use transform="matrix(0.05,0,0,0.05,48.95,0)" xlink:href="#aa"/></g><g id="r"><use transform="matrix(0.05,0,0,0.05,0,0)" xlink:href="#ag"/><use transform="matrix(0.05,0,0,0.05,3.95,0)" xlink:href="#ah"/></g><g id="s"><use transform="matrix(0.05,0,0,0.05,0,0)" xlink:href="#at"/><use transform="matrix(0.05,0,0,0.05,10,0)" xlink:href="#ao"/><use transform="matrix(0.05,0,0,0.05,20,0)" xlink:href="#af"/><use transform="matrix(0.05,0,0,0.05,29,0)" xlink:href="#ah"/><use transform="matrix(0.05,0,0,0.05,38,0)" xlink:href="#ag"/><use transform="matrix(0.05,0,0,0.05,41.95,0)" xlink:href="#au"/><use transform="matrix(0.05,0,0,0.05,50.95,0)" xlink:href="#ai"/><use transform="matrix(0.05,0,0,0.05,60.95,0)" xlink:href="#ap"/><use transform="matrix(0.05,0,0,0.05,64.9,0)" xlink:href="#ap"/><use transform="matrix(0.05,0,0,0.05,68.85000000000001,0)" xlink:href="#af"/></g><g id="t"><use transform="matrix(0.05,0,0,0.05,0,0)" xlink:href="#ai"/><use transform="matrix(0.05,0,0,0.05,10,0)" xlink:href="#ak"/><use transform="matrix(0.05,0,0,0.05,20,0)" xlink:href="#ap"/><use transform="matrix(0.05,0,0,0.05,23.95,0)" xlink:href="#ad"/></g><g id="u"><use transform="matrix(0.05,0,0,0.05,0,0)" xlink:href="#av"/><use transform="matrix(0.05,0,0,0.05,12,0)" xlink:href="#aw"/><use transform="matrix(0.05,0,0,0.05,22,0)" xlink:href="#X"/><use transform="matrix(0.05,0,0,0.05,27,0)" xlink:href="#ax"/><use transform="matrix(0.05,0,0,0.05,37.95,0)" xlink:href="#ay"/><use transform="matrix(0.05,0,0,0.05,47.95,0)" xlink:href="#az"/><use transform="matrix(0.05,0,0,0.05,58.900000000000006,0)" xlink:href="#aA"/><use transform="matrix(0.05,0,0,0.05,68.9,0)" xlink:href="#ay"/><use transform="matrix(0.05,0,0,0.05,78.9,0)" xlink:href="#aB"/></g><path d="M30-248c87 1 191-15 191 75 0 78-77 80-158 76V0H30v-248zm33 125c57 0 124 11 124-50 0-59-68-47-124-48v98" id="aI"/><g id="v"><use transform="matrix(0.05,0,0,0.05,0,0)" xlink:href="#aI"/><use transform="matrix(0.05,0,0,0.05,12,0)" xlink:href="#ao"/><use transform="matrix(0.05,0,0,0.05,22,0)" xlink:href="#af"/><use transform="matrix(0.05,0,0,0.05,31,0)" xlink:href="#ah"/><use transform="matrix(0.05,0,0,0.05,40,0)" xlink:href="#ag"/><use transform="matrix(0.05,0,0,0.05,43.95,0)" xlink:href="#au"/><use transform="matrix(0.05,0,0,0.05,52.95,0)" xlink:href="#ai"/><use transform="matrix(0.05,0,0,0.05,62.95,0)" xlink:href="#ap"/></g><g id="w"><use transform="matrix(0.05,0,0,0.05,0,0)" xlink:href="#ae"/><use transform="matrix(0.05,0,0,0.05,5,0)" xlink:href="#ad"/><use transform="matrix(0.05,0,0,0.05,15,0)" xlink:href="#ah"/><use transform="matrix(0.05,0,0,0.05,24,0)" xlink:href="#ae"/></g><g id="x"><use transform="matrix(0.05,0,0,0.05,0,0)" xlink:href="#al"/><use transform="matrix(0.05,0,0,0.05,5.95,0)" xlink:href="#ad"/><use transform="matrix(0.05,0,0,0.05,15.949999999999998,0)" xlink:href="#at"/><use transform="matrix(0.05,0,0,0.05,25.950000000000003,0)" xlink:href="#am"/><use transform="matrix(0.05,0,0,0.05,35.95,0)" xlink:href="#al"/><use transform="matrix(0.05,0,0,0.05,41.900000000000006,0)" xlink:href="#ae"/></g><path d="M238-95c0 69-44 99-111 99C63 4 22-25 22-93v-155h51v151c-1 38 19 59 55 60 90 1 49-130 58-211h52v153" id="aJ"/><path d="M135-150c-39-12-60 13-60 57V0H25l-1-190h47c2 13-1 29 3 40 6-28 27-53 61-41v41" id="aK"/><g id="z"><use transform="matrix(0.05,0,0,0.05,0,0)" xlink:href="#aJ"/><use transform="matrix(0.05,0,0,0.05,12.950000000000001,0)" xlink:href="#az"/><use transform="matrix(0.05,0,0,0.05,23.900000000000002,0)" xlink:href="#ax"/><use transform="matrix(0.05,0,0,0.05,34.85,0)" xlink:href="#ay"/><use transform="matrix(0.05,0,0,0.05,44.85,0)" xlink:href="#aK"/><use transform="matrix(0.05,0,0,0.05,51.85,0)" xlink:href="#Y"/><use transform="matrix(0.05,0,0,0.05,67.85,0)" xlink:href="#X"/><use transform="matrix(0.05,0,0,0.05,72.85,0)" xlink:href="#az"/><use transform="matrix(0.05,0,0,0.05,83.8,0)" xlink:href="#ay"/><use transform="matrix(0.05,0,0,0.05,93.8,0)" xlink:href="#aa"/></g><path d="M232-93c-1 65-40 97-104 97C67 4 28-28 28-90v-158h33c8 89-33 224 67 224 102 0 64-133 71-224h33v155" id="aL"/><g id="A"><use transform="matrix(0.05,0,0,0.05,0,0)" xlink:href="#aL"/><use transform="matrix(0.05,0,0,0.05,12.950000000000001,0)" xlink:href="#aq"/><use transform="matrix(0.05,0,0,0.05,22.950000000000003,0)" xlink:href="#ap"/><use transform="matrix(0.05,0,0,0.05,26.900000000000002,0)" xlink:href="#ad"/><use transform="matrix(0.05,0,0,0.05,36.900000000000006,0)" xlink:href="#ah"/><use transform="matrix(0.05,0,0,0.05,45.900000000000006,0)" xlink:href="#ah"/></g><g id="B"><use transform="matrix(0.05,0,0,0.05,0,0)" xlink:href="#ae"/><use transform="matrix(0.05,0,0,0.05,5,0)" xlink:href="#ao"/><use transform="matrix(0.05,0,0,0.05,15,0)" xlink:href="#ad"/></g><g id="C"><use transform="matrix(0.05,0,0,0.05,0,0)" xlink:href="#aD"/><use transform="matrix(0.05,0,0,0.05,12.950000000000001,0)" xlink:href="#aE"/><use transform="matrix(0.05,0,0,0.05,25.900000000000002,0)" xlink:href="#aF"/></g><g id="D"><use transform="matrix(0.05,0,0,0.05,0,0)" xlink:href="#ae"/><use transform="matrix(0.05,0,0,0.05,5,0)" xlink:href="#ad"/><use transform="matrix(0.05,0,0,0.05,15,0)" xlink:href="#ah"/><use transform="matrix(0.05,0,0,0.05,24,0)" xlink:href="#ae"/></g><g id="E"><use transform="matrix(0.05,0,0,0.05,0,0)" xlink:href="#ac"/><use transform="matrix(0.05,0,0,0.05,12.950000000000001,0)" xlink:href="#ai"/><use transform="matrix(0.05,0,0,0.05,22.950000000000003,0)" xlink:href="#ah"/></g><g id="F"><use transform="matrix(0.05,0,0,0.05,0,0)" xlink:href="#au"/><use transform="matrix(0.05,0,0,0.05,9,0)" xlink:href="#am"/><use transform="matrix(0.05,0,0,0.05,19,0)" xlink:href="#aq"/><use transform="matrix(0.05,0,0,0.05,29,0)" xlink:href="#ae"/><use transform="matrix(0.05,0,0,0.05,34,0)" xlink:href="#ai"/><use transform="matrix(0.05,0,0,0.05,44,0)" xlink:href="#aj"/><use transform="matrix(0.05,0,0,0.05,58.95,0)" xlink:href="#ag"/><use transform="matrix(0.05,0,0,0.05,62.900000000000006,0)" xlink:href="#aq"/><use transform="matrix(0.05,0,0,0.05,72.9,0)" xlink:href="#ai"/><use transform="matrix(0.05,0,0,0.05,82.9,0)" xlink:href="#ae"/><use transform="matrix(0.05,0,0,0.05,87.9,0)" xlink:href="#ad"/><use transform="matrix(0.05,0,0,0.05,97.9,0)" xlink:href="#as"/></g><g id="G"><use transform="matrix(0.05,0,0,0.05,0,0)" xlink:href="#ab"/><use transform="matrix(0.05,0,0,0.05,10.950000000000001,0)" xlink:href="#ao"/><use transform="matrix(0.05,0,0,0.05,20.950000000000003,0)" xlink:href="#ad"/></g><g id="H"><use transform="matrix(0.05,0,0,0.05,0,0)" xlink:href="#ah"/><use transform="matrix(0.05,0,0,0.05,9,0)" xlink:href="#ai"/><use transform="matrix(0.05,0,0,0.05,19,0)" xlink:href="#aj"/><use transform="matrix(0.05,0,0,0.05,33.95,0)" xlink:href="#at"/><use transform="matrix(0.05,0,0,0.05,43.95,0)" xlink:href="#ap"/><use transform="matrix(0.05,0,0,0.05,47.900000000000006,0)" xlink:href="#ad"/></g><g id="I"><use transform="matrix(0.05,0,0,0.05,0,0)" xlink:href="#ao"/><use transform="matrix(0.05,0,0,0.05,10,0)" xlink:href="#ai"/><use transform="matrix(0.05,0,0,0.05,20,0)" xlink:href="#as"/></g><g id="J"><use transform="matrix(0.05,0,0,0.05,0,0)" xlink:href="#aq"/><use transform="matrix(0.05,0,0,0.05,10,0)" xlink:href="#am"/></g><path d="M16-82v-28h88v28H16" id="aM"/><g id="K"><use transform="matrix(0.05,0,0,0.05,0,0)" xlink:href="#au"/><use transform="matrix(0.05,0,0,0.05,9,0)" xlink:href="#al"/><use transform="matrix(0.05,0,0,0.05,14.949999999999998,0)" xlink:href="#am"/><use transform="matrix(0.05,0,0,0.05,24.95,0)" xlink:href="#ah"/><use transform="matrix(0.05,0,0,0.05,33.95,0)" xlink:href="#ah"/><use transform="matrix(0.05,0,0,0.05,42.95,0)" xlink:href="#aM"/><use transform="matrix(0.05,0,0,0.05,48.900000000000006,0)" xlink:href="#au"/><use transform="matrix(0.05,0,0,0.05,57.900000000000006,0)" xlink:href="#am"/><use transform="matrix(0.05,0,0,0.05,67.9,0)" xlink:href="#aq"/><use transform="matrix(0.05,0,0,0.05,77.9,0)" xlink:href="#ae"/><use transform="matrix(0.05,0,0,0.05,82.9,0)" xlink:href="#ai"/><use transform="matrix(0.05,0,0,0.05,92.9,0)" xlink:href="#aj"/><use transform="matrix(0.05,0,0,0.05,107.85000000000001,0)" xlink:href="#ag"/><use transform="matrix(0.05,0,0,0.05,111.80000000000001,0)" xlink:href="#aq"/><use transform="matrix(0.05,0,0,0.05,121.80000000000001,0)" xlink:href="#ai"/><use transform="matrix(0.05,0,0,0.05,131.8,0)" xlink:href="#ae"/><use transform="matrix(0.05,0,0,0.05,136.8,0)" xlink:href="#ag"/><use transform="matrix(0.05,0,0,0.05,140.75,0)" xlink:href="#am"/><use transform="matrix(0.05,0,0,0.05,150.75,0)" xlink:href="#aq"/></g><g id="L"><use transform="matrix(0.05,0,0,0.05,0,0)" xlink:href="#as"/><use transform="matrix(0.05,0,0,0.05,10,0)" xlink:href="#aH"/><use transform="matrix(0.05,0,0,0.05,20,0)" xlink:href="#al"/><use transform="matrix(0.05,0,0,0.05,25.950000000000003,0)" xlink:href="#ag"/><use transform="matrix(0.05,0,0,0.05,29.899999999999995,0)" xlink:href="#aq"/><use transform="matrix(0.05,0,0,0.05,39.9,0)" xlink:href="#ar"/></g><g id="M"><use transform="matrix(0.05,0,0,0.05,0,0)" xlink:href="#ae"/><use transform="matrix(0.05,0,0,0.05,5,0)" xlink:href="#ad"/><use transform="matrix(0.05,0,0,0.05,15,0)" xlink:href="#ah"/><use transform="matrix(0.05,0,0,0.05,24,0)" xlink:href="#ae"/></g><g id="N"><use transform="matrix(0.05,0,0,0.05,0,0)" xlink:href="#av"/><use transform="matrix(0.05,0,0,0.05,12,0)" xlink:href="#aw"/><use transform="matrix(0.05,0,0,0.05,22,0)" xlink:href="#X"/><use transform="matrix(0.05,0,0,0.05,27,0)" xlink:href="#ax"/><use transform="matrix(0.05,0,0,0.05,37.95,0)" xlink:href="#ay"/><use transform="matrix(0.05,0,0,0.05,47.95,0)" xlink:href="#az"/><use transform="matrix(0.05,0,0,0.05,58.900000000000006,0)" xlink:href="#aA"/><use transform="matrix(0.05,0,0,0.05,68.9,0)" xlink:href="#ay"/><use transform="matrix(0.05,0,0,0.05,78.9,0)" xlink:href="#aB"/></g><path d="M30 0v-248h33v221h125V0H30" id="aN"/><g id="O"><use transform="matrix(0.05,0,0,0.05,0,0)" xlink:href="#aN"/><use transform="matrix(0.05,0,0,0.05,10,0)" xlink:href="#ai"/><use transform="matrix(0.05,0,0,0.05,20,0)" xlink:href="#ak"/></g><g id="P"><use transform="matrix(0.05,0,0,0.05,0,0)" xlink:href="#aI"/><use transform="matrix(0.05,0,0,0.05,12,0)" xlink:href="#al"/><use transform="matrix(0.05,0,0,0.05,17.95,0)" xlink:href="#am"/><use transform="matrix(0.05,0,0,0.05,27.950000000000003,0)" xlink:href="#au"/><use transform="matrix(0.05,0,0,0.05,36.95,0)" xlink:href="#ad"/><use transform="matrix(0.05,0,0,0.05,46.95,0)" xlink:href="#as"/><use transform="matrix(0.05,0,0,0.05,56.95,0)" xlink:href="#aH"/><use transform="matrix(0.05,0,0,0.05,66.95,0)" xlink:href="#al"/><use transform="matrix(0.05,0,0,0.05,72.9,0)" xlink:href="#ad"/><use transform="matrix(0.05,0,0,0.05,82.9,0)" xlink:href="#ah"/></g><g id="Q"><use transform="matrix(0.05,0,0,0.05,0,0)" xlink:href="#av"/><use transform="matrix(0.05,0,0,0.05,12,0)" xlink:href="#aw"/><use transform="matrix(0.05,0,0,0.05,22,0)" xlink:href="#X"/><use transform="matrix(0.05,0,0,0.05,27,0)" xlink:href="#ax"/><use transform="matrix(0.05,0,0,0.05,37.95,0)" xlink:href="#ay"/><use transform="matrix(0.05,0,0,0.05,47.95,0)" xlink:href="#az"/><use transform="matrix(0.05,0,0,0.05,58.900000000000006,0)" xlink:href="#aA"/><use transform="matrix(0.05,0,0,0.05,68.9,0)" xlink:href="#ay"/><use transform="matrix(0.05,0,0,0.05,78.9,0)" xlink:href="#aB"/></g><path d="M63-220v92h138v28H63V0H30v-248h175v28H63" id="aO"/><g id="R"><use transform="matrix(0.05,0,0,0.05,0,0)" xlink:href="#aO"/><use transform="matrix(0.05,0,0,0.05,10.950000000000001,0)" xlink:href="#ap"/><use transform="matrix(0.05,0,0,0.05,14.9,0)" xlink:href="#af"/><use transform="matrix(0.05,0,0,0.05,23.900000000000002,0)" xlink:href="#ag"/><use transform="matrix(0.05,0,0,0.05,27.85,0)" xlink:href="#aq"/><use transform="matrix(0.05,0,0,0.05,37.85,0)" xlink:href="#ar"/></g><g id="S"><use transform="matrix(0.05,0,0,0.05,0,0)" xlink:href="#ab"/><use transform="matrix(0.05,0,0,0.05,9.950000000000001,0)" xlink:href="#ac"/><use transform="matrix(0.05,0,0,0.05,22.900000000000002,0)" xlink:href="#ad"/><use transform="matrix(0.05,0,0,0.05,32.900000000000006,0)" xlink:href="#ad"/><use transform="matrix(0.05,0,0,0.05,42.900000000000006,0)" xlink:href="#ae"/><use transform="matrix(0.05,0,0,0.05,47.900000000000006,0)" xlink:href="#af"/></g><path d="M185-189c-5-48-123-54-124 2 14 75 158 14 163 119 3 78-121 87-175 55-17-10-28-26-33-46l33-7c5 56 141 63 141-1 0-78-155-14-162-118-5-82 145-84 179-34 5 7 8 16 11 25" id="aP"/><g id="T"><use transform="matrix(0.05,0,0,0.05,0,0)" xlink:href="#aP"/><use transform="matrix(0.05,0,0,0.05,12,0)" xlink:href="#ag"/><use transform="matrix(0.05,0,0,0.05,15.949999999999998,0)" xlink:href="#ar"/><use transform="matrix(0.05,0,0,0.05,25.950000000000003,0)" xlink:href="#ao"/><use transform="matrix(0.05,0,0,0.05,35.95,0)" xlink:href="#ae"/><use transform="matrix(0.05,0,0,0.05,40.95,0)" xlink:href="#ag"/><use transform="matrix(0.05,0,0,0.05,44.900000000000006,0)" xlink:href="#aq"/><use transform="matrix(0.05,0,0,0.05,54.900000000000006,0)" xlink:href="#ar"/><use transform="matrix(0.05,0,0,0.05,64.9,0)" xlink:href="#ah"/></g></defs></g></svg>