<svg xmlns="http://www.w3.org/2000/svg" xmlns:xlink="http://www.w3.org/1999/xlink" width="300" height="265.5"><g transform="translate(-860 -256.50059999400014)"><path d="M0 0h1360v1760H0z" fill="#fff"/><path d="M880 276.5h260v100H880z" stroke="#000" stroke-width="2" fill="#a3d977"/><path d="M906 276.5v100m208-100v100" stroke="#000" stroke-width="2" fill="none"/><use xlink:href="#a" transform="matrix(1,0,0,1,912.5,276.50059999400014) translate(25.14999999999999 32)"/><use xlink:href="#b" transform="matrix(1,0,0,1,912.5,276.50059999400014) translate(110 32)"/><use xlink:href="#c" transform="matrix(1,0,0,1,912.5,276.50059999400014) translate(159.85000000000002 32)"/><use xlink:href="#d" transform="matrix(1,0,0,1,912.5,276.50059999400014) translate(10.625 53.6)"/><use xlink:href="#e" transform="matrix(1,0,0,1,912.5,276.50059999400014) translate(67.575 53.6)"/><use xlink:href="#f" transform="matrix(1,0,0,1,912.5,276.50059999400014) translate(85.525 53.6)"/><use xlink:href="#g" transform="matrix(1,0,0,1,912.5,276.50059999400014) translate(100.525 53.6)"/><use xlink:href="#h" transform="matrix(1,0,0,1,912.5,276.50059999400014) translate(135.425 53.6)"/><use xlink:href="#i" transform="matrix(1,0,0,1,912.5,276.50059999400014) translate(175.425 53.6)"/><use xlink:href="#j" transform="matrix(1,0,0,1,912.5,276.50059999400014) translate(71.525 75.2)"/><use xlink:href="#k" transform="matrix(1,0,0,1,912.5,276.50059999400014) translate(105.525 75.2)"/><path d="M1043 469.5c0 17.95-14.77 32.5-33 32.5s-33-14.55-33-32.5 14.77-32.5 33-32.5 33 14.55 33 32.5z" stroke="#000" stroke-width="2" fill="#ccc"/><g><use xlink:href="#l" transform="matrix(1,0,0,1,982,441.999115014625) translate(28 32.9)"/></g><path d="M1010 377v59" stroke="#000" stroke-width="2" fill="none"/><path d="M1010 436l-4.64-14.27h9.28z"/><path d="M1010.7 437.05l-.7-.05-.72.02-5.3-16.3h12.03zm-3.96-14.32l3.26 10.03 3.26-10.03z"/><path d="M1010 376.5V437" stroke="#000" stroke-width="2" fill="none"/><path d="M1011 376.5h-2 2zM1010 437l-4.64-14.27h9.28z"/><path d="M1011.03 437.08L1010 437l-1.04.03-4.97-15.3h12zm-4.3-13.35l3.27 10.03 3.26-10.03z"/><defs><path d="M24 0v-248h52V0H24" id="m"/><path d="M135-194c87-1 58 113 63 194h-50c-7-57 23-157-34-157-59 0-34 97-39 157H25l-1-190h47c2 12-1 28 3 38 12-26 28-41 61-42" id="n"/><path d="M121-226c-27-7-43 5-38 36h38v33H83V0H34v-157H6v-33h28c-9-59 32-81 87-68v32" id="o"/><path d="M185-48c-13 30-37 53-82 52C43 2 14-33 14-96s30-98 90-98c62 0 83 45 84 108H66c0 31 8 55 39 56 18 0 30-7 34-22zm-45-69c5-46-57-63-70-21-2 6-4 13-4 21h74" id="p"/><path d="M135-150c-39-12-60 13-60 57V0H25l-1-190h47c2 13-1 29 3 40 6-28 27-53 61-41v41" id="q"/><path d="M190-63c-7 42-38 67-86 67-59 0-84-38-90-98-12-110 154-137 174-36l-49 2c-2-19-15-32-35-32-30 0-35 28-38 64-6 74 65 87 74 30" id="r"/><g id="a"><use transform="matrix(0.05,0,0,0.05,0,0)" xlink:href="#m"/><use transform="matrix(0.05,0,0,0.05,5,0)" xlink:href="#n"/><use transform="matrix(0.05,0,0,0.05,15.950000000000001,0)" xlink:href="#o"/><use transform="matrix(0.05,0,0,0.05,21.900000000000002,0)" xlink:href="#p"/><use transform="matrix(0.05,0,0,0.05,31.900000000000002,0)" xlink:href="#q"/><use transform="matrix(0.05,0,0,0.05,38.900000000000006,0)" xlink:href="#p"/><use transform="matrix(0.05,0,0,0.05,48.900000000000006,0)" xlink:href="#n"/><use transform="matrix(0.05,0,0,0.05,59.85,0)" xlink:href="#r"/><use transform="matrix(0.05,0,0,0.05,69.85000000000001,0)" xlink:href="#p"/></g><path d="M240-174c0 40-23 61-54 70L253 0h-59l-57-94H76V0H24v-248c93 4 217-23 216 74zM76-134c48-2 112 12 112-38 0-48-66-32-112-35v73" id="s"/><path d="M85 4C-2 5 27-109 22-190h50c7 57-23 150 33 157 60-5 35-97 40-157h50l1 190h-47c-2-12 1-28-3-38-12 25-28 42-61 42" id="t"/><path d="M25 0v-261h50V0H25" id="u"/><path d="M35-132v-50h50v50H35zM35 0v-49h50V0H35" id="v"/><g id="b"><use transform="matrix(0.05,0,0,0.05,0,0)" xlink:href="#s"/><use transform="matrix(0.05,0,0,0.05,12.950000000000001,0)" xlink:href="#t"/><use transform="matrix(0.05,0,0,0.05,23.900000000000002,0)" xlink:href="#u"/><use transform="matrix(0.05,0,0,0.05,28.900000000000002,0)" xlink:href="#p"/><use transform="matrix(0.05,0,0,0.05,38.900000000000006,0)" xlink:href="#v"/></g><path d="M33 0v-248h34V0H33" id="w"/><path d="M101-234c-31-9-42 10-38 44h38v23H63V0H32v-167H5v-23h27c-7-52 17-82 69-68v24" id="x"/><g id="c"><use transform="matrix(0.05,0,0,0.05,0,0)" xlink:href="#w"/><use transform="matrix(0.05,0,0,0.05,5,0)" xlink:href="#x"/></g><path d="M59-47c-2 24 18 29 38 22v24C64 9 27 4 27-40v-127H5v-23h24l9-43h21v43h35v23H59v120" id="y"/><path d="M206 0h-36l-40-164L89 0H53L-1-190h32L70-26l43-164h34l41 164 42-164h31" id="z"/><path d="M100-194c63 0 86 42 84 106H49c0 40 14 67 53 68 26 1 43-12 49-29l28 8c-11 28-37 45-77 45C44 4 14-33 15-96c1-61 26-98 85-98zm52 81c6-60-76-77-97-28-3 7-6 17-6 28h103" id="A"/><path d="M179-190L93 31C79 59 56 82 12 73V49c39 6 53-20 64-50L1-190h34L92-34l54-156h33" id="B"/><g id="d"><use transform="matrix(0.05,0,0,0.05,0,0)" xlink:href="#y"/><use transform="matrix(0.05,0,0,0.05,5,0)" xlink:href="#z"/><use transform="matrix(0.05,0,0,0.05,17.950000000000003,0)" xlink:href="#A"/><use transform="matrix(0.05,0,0,0.05,27.950000000000003,0)" xlink:href="#A"/><use transform="matrix(0.05,0,0,0.05,37.95,0)" xlink:href="#y"/><use transform="matrix(0.05,0,0,0.05,42.95,0)" xlink:href="#B"/></g><path d="M24-231v-30h32v30H24zM24 0v-190h32V0H24" id="C"/><path d="M135-143c-3-34-86-38-87 0 15 53 115 12 119 90S17 21 10-45l28-5c4 36 97 45 98 0-10-56-113-15-118-90-4-57 82-63 122-42 12 7 21 19 24 35" id="D"/><g id="e"><use transform="matrix(0.05,0,0,0.05,0,0)" xlink:href="#C"/><use transform="matrix(0.05,0,0,0.05,3.95,0)" xlink:href="#D"/></g><path d="M141-36C126-15 110 5 73 4 37 3 15-17 15-53c-1-64 63-63 125-63 3-35-9-54-41-54-24 1-41 7-42 31l-33-3c5-37 33-52 76-52 45 0 72 20 72 64v82c-1 20 7 32 28 27v20c-31 9-61-2-59-35zM48-53c0 20 12 33 32 33 41-3 63-29 60-74-43 2-92-5-92 41" id="E"/><use transform="matrix(0.05,0,0,0.05,0,0)" xlink:href="#E" id="f"/><path d="M115-194c53 0 69 39 70 98 0 66-23 100-70 100C84 3 66-7 56-30L54 0H23l1-261h32v101c10-23 28-34 59-34zm-8 174c40 0 45-34 45-75 0-40-5-75-45-74-42 0-51 32-51 76 0 43 10 73 51 73" id="F"/><path d="M114-163C36-179 61-72 57 0H25l-1-190h30c1 12-1 29 2 39 6-27 23-49 58-41v29" id="G"/><path d="M85-194c31 0 48 13 60 33l-1-100h32l1 261h-30c-2-10 0-23-3-31C134-8 116 4 85 4 32 4 16-35 15-94c0-66 23-100 70-100zm9 24c-40 0-46 34-46 75 0 40 6 74 45 74 42 0 51-32 51-76 0-42-9-74-50-73" id="H"/><g id="g"><use transform="matrix(0.05,0,0,0.05,0,0)" xlink:href="#F"/><use transform="matrix(0.05,0,0,0.05,10,0)" xlink:href="#C"/><use transform="matrix(0.05,0,0,0.05,13.949999999999998,0)" xlink:href="#G"/><use transform="matrix(0.05,0,0,0.05,19.9,0)" xlink:href="#H"/></g><path d="M106-169C34-169 62-67 57 0H25v-261h32l-1 103c12-21 28-36 61-36 89 0 53 116 60 194h-32v-121c2-32-8-49-39-48" id="I"/><path d="M117-194c89-4 53 116 60 194h-32v-121c0-31-8-49-39-48C34-167 62-67 57 0H25l-1-190h30c1 10-1 24 2 32 11-22 29-35 61-36" id="J"/><g id="h"><use transform="matrix(0.05,0,0,0.05,0,0)" xlink:href="#y"/><use transform="matrix(0.05,0,0,0.05,5,0)" xlink:href="#I"/><use transform="matrix(0.05,0,0,0.05,15,0)" xlink:href="#A"/><use transform="matrix(0.05,0,0,0.05,25,0)" xlink:href="#J"/></g><g id="i"><use transform="matrix(0.05,0,0,0.05,0,0)" xlink:href="#C"/><use transform="matrix(0.05,0,0,0.05,3.95,0)" xlink:href="#y"/></g><path d="M96-169c-40 0-48 33-48 73s9 75 48 75c24 0 41-14 43-38l32 2c-6 37-31 61-74 61-59 0-76-41-82-99-10-93 101-131 147-64 4 7 5 14 7 22l-32 3c-4-21-16-35-41-35" id="K"/><g id="j"><use transform="matrix(0.05,0,0,0.05,0,0)" xlink:href="#K"/><use transform="matrix(0.05,0,0,0.05,9,0)" xlink:href="#E"/><use transform="matrix(0.05,0,0,0.05,19,0)" xlink:href="#J"/></g><path d="M24 0v-261h32V0H24" id="L"/><g id="k"><use transform="matrix(0.05,0,0,0.05,0,0)" xlink:href="#x"/><use transform="matrix(0.05,0,0,0.05,5,0)" xlink:href="#L"/><use transform="matrix(0.05,0,0,0.05,8.95,0)" xlink:href="#B"/></g></defs></g></svg>