<svg xmlns="http://www.w3.org/2000/svg" xmlns:xlink="http://www.w3.org/1999/xlink" xmlns:lucid="lucid" width="1565.83" height="431.5"><g transform="translate(120 -26.50059999400014)" lucid:page-tab-id="u6cyebZNDH~y"><path d="M-1296 0h3952v1760h-3952z" fill="#fff"/><path d="M374.17 46.5H580v98H374.17z" stroke="#000" stroke-width="2" fill="#fff"/><use xlink:href="#a" transform="matrix(1,0,0,1,379.16666666666674,51.50059999400014) translate(38.324999999999996 36.8)"/><use xlink:href="#b" transform="matrix(1,0,0,1,379.16666666666674,51.50059999400014) translate(129.725 36.8)"/><use xlink:href="#c" transform="matrix(1,0,0,1,379.16666666666674,51.50059999400014) translate(38.099999999999994 58.4)"/><use xlink:href="#d" transform="matrix(1,0,0,1,379.16666666666674,51.50059999400014) translate(100 58.4)"/><use xlink:href="#e" transform="matrix(1,0,0,1,379.16666666666674,51.50059999400014) translate(134 58.4)"/><path d="M768 55.5c17.67 0 32 17.9 32 40s-14.33 40-32 40h-96c-17.67 0-32-17.9-32-40s14.33-40 32-40z" stroke="#000" stroke-width="2" fill="#fff"/><use xlink:href="#f" transform="matrix(1,0,0,1,645,60.50059999400014) translate(19.199999999999996 17)"/><use xlink:href="#g" transform="matrix(1,0,0,1,645,60.50059999400014) translate(96.9 17)"/><use xlink:href="#h" transform="matrix(1,0,0,1,645,60.50059999400014) translate(25.074999999999996 38.6)"/><use xlink:href="#i" transform="matrix(1,0,0,1,645,60.50059999400014) translate(86.975 38.6)"/><use xlink:href="#j" transform="matrix(1,0,0,1,645,60.50059999400014) translate(104.92500000000001 38.6)"/><use xlink:href="#k" transform="matrix(1,0,0,1,645,60.50059999400014) translate(48.575 60.2)"/><path d="M582 95.5h38.5" stroke="#000" stroke-width="2" fill="none"/><path d="M582.03 96.5H581v-2h1.03z"/><path d="M635.76 95.5l-14.26 4.64v-9.27z" stroke="#000" stroke-width="2"/><path d="M-100 328.5h205.83v98H-100zM1220 340h205.83v98H1220z" stroke="#000" stroke-opacity="0" stroke-width="2" fill-opacity="0"/><defs><path d="M136-208V0H84v-208H4v-40h212v40h-80" id="l"/><path d="M110-194c64 0 96 36 96 99 0 64-35 99-97 99-61 0-95-36-95-99 0-62 34-99 96-99zm-1 164c35 0 45-28 45-65 0-40-10-65-43-65-34 0-45 26-45 65 0 36 10 65 43 65" id="m"/><path d="M135-194c53 0 70 44 70 98 0 56-19 98-73 100-31 1-45-17-59-34 3 33 2 69 2 105H25l-1-265h48c2 10 0 23 3 31 11-24 29-35 60-35zM114-30c33 0 39-31 40-66 0-38-9-64-40-64-56 0-55 130 0 130" id="n"/><path d="M14-72v-43h91v43H14" id="o"/><path d="M67-125c0 53 21 87 73 88 37 1 54-22 65-47l45 17C233-25 199 4 140 4 58 4 20-42 15-125 8-235 124-281 211-232c18 10 29 29 36 50l-46 12c-8-25-30-41-62-41-52 0-71 34-72 86" id="p"/><path d="M25 0v-261h50V0H25" id="q"/><path d="M133-34C117-15 103 5 69 4 32 3 11-16 11-54c-1-60 55-63 116-61 1-26-3-47-28-47-18 1-26 9-28 27l-52-2c7-38 36-58 82-57s74 22 75 68l1 82c-1 14 12 18 25 15v27c-30 8-71 5-69-32zm-48 3c29 0 43-24 42-57-32 0-66-3-65 30 0 17 8 27 23 27" id="r"/><path d="M25-224v-37h50v37H25zM25 0v-190h50V0H25" id="s"/><path d="M220-157c-53 9-28 100-34 157h-49v-107c1-27-5-49-29-50C55-147 81-57 75 0H25l-1-190h47c2 12-1 28 3 38 10-53 101-56 108 0 13-22 24-43 59-42 82 1 51 116 57 194h-49v-107c-1-25-5-48-29-50" id="t"/><g id="a"><use transform="matrix(0.05,0,0,0.05,0,0)" xlink:href="#l"/><use transform="matrix(0.05,0,0,0.05,9.600000000000001,0)" xlink:href="#m"/><use transform="matrix(0.05,0,0,0.05,20.550000000000004,0)" xlink:href="#n"/><use transform="matrix(0.05,0,0,0.05,31.500000000000007,0)" xlink:href="#o"/><use transform="matrix(0.05,0,0,0.05,37.45000000000001,0)" xlink:href="#p"/><use transform="matrix(0.05,0,0,0.05,50.40000000000001,0)" xlink:href="#q"/><use transform="matrix(0.05,0,0,0.05,55.40000000000001,0)" xlink:href="#r"/><use transform="matrix(0.05,0,0,0.05,65.4,0)" xlink:href="#s"/><use transform="matrix(0.05,0,0,0.05,70.4,0)" xlink:href="#t"/></g><path d="M23 0v-37h61v-169l-59 37v-38l62-41h46v211h57V0H23" id="u"/><path d="M33-154v-36h34v36H33zM33 0v-36h34V0H33" id="v"/><g id="b"><use transform="matrix(0.05,0,0,0.05,0,0)" xlink:href="#p"/><use transform="matrix(0.05,0,0,0.05,12.950000000000001,0)" xlink:href="#u"/><use transform="matrix(0.05,0,0,0.05,22.950000000000003,0)" xlink:href="#v"/></g><path d="M127-220V0H93v-220H8v-28h204v28h-85" id="w"/><path d="M206 0h-36l-40-164L89 0H53L-1-190h32L70-26l43-164h34l41 164 42-164h31" id="x"/><path d="M100-194c63 0 86 42 84 106H49c0 40 14 67 53 68 26 1 43-12 49-29l28 8c-11 28-37 45-77 45C44 4 14-33 15-96c1-61 26-98 85-98zm52 81c6-60-76-77-97-28-3 7-6 17-6 28h103" id="y"/><path d="M59-47c-2 24 18 29 38 22v24C64 9 27 4 27-40v-127H5v-23h24l9-43h21v43h35v23H59v120" id="z"/><path d="M179-190L93 31C79 59 56 82 12 73V49c39 6 53-20 64-50L1-190h34L92-34l54-156h33" id="A"/><g id="c"><use transform="matrix(0.05,0,0,0.05,0,0)" xlink:href="#w"/><use transform="matrix(0.05,0,0,0.05,9.950000000000001,0)" xlink:href="#x"/><use transform="matrix(0.05,0,0,0.05,22.900000000000002,0)" xlink:href="#y"/><use transform="matrix(0.05,0,0,0.05,32.900000000000006,0)" xlink:href="#y"/><use transform="matrix(0.05,0,0,0.05,42.900000000000006,0)" xlink:href="#z"/><use transform="matrix(0.05,0,0,0.05,47.900000000000006,0)" xlink:href="#A"/></g><path d="M96-169c-40 0-48 33-48 73s9 75 48 75c24 0 41-14 43-38l32 2c-6 37-31 61-74 61-59 0-76-41-82-99-10-93 101-131 147-64 4 7 5 14 7 22l-32 3c-4-21-16-35-41-35" id="B"/><path d="M141-36C126-15 110 5 73 4 37 3 15-17 15-53c-1-64 63-63 125-63 3-35-9-54-41-54-24 1-41 7-42 31l-33-3c5-37 33-52 76-52 45 0 72 20 72 64v82c-1 20 7 32 28 27v20c-31 9-61-2-59-35zM48-53c0 20 12 33 32 33 41-3 63-29 60-74-43 2-92-5-92 41" id="C"/><path d="M117-194c89-4 53 116 60 194h-32v-121c0-31-8-49-39-48C34-167 62-67 57 0H25l-1-190h30c1 10-1 24 2 32 11-22 29-35 61-36" id="D"/><g id="d"><use transform="matrix(0.05,0,0,0.05,0,0)" xlink:href="#B"/><use transform="matrix(0.05,0,0,0.05,9,0)" xlink:href="#C"/><use transform="matrix(0.05,0,0,0.05,19,0)" xlink:href="#D"/></g><path d="M63-220v92h138v28H63V0H30v-248h175v28H63" id="E"/><path d="M24 0v-261h32V0H24" id="F"/><g id="e"><use transform="matrix(0.05,0,0,0.05,0,0)" xlink:href="#E"/><use transform="matrix(0.05,0,0,0.05,10.950000000000001,0)" xlink:href="#F"/><use transform="matrix(0.05,0,0,0.05,14.9,0)" xlink:href="#A"/></g><path d="M135-194c87-1 58 113 63 194h-50c-7-57 23-157-34-157-59 0-34 97-39 157H25l-1-190h47c2 12-1 28 3 38 12-26 28-41 61-42" id="G"/><path d="M115-3C79 11 28 4 28-45v-112H4v-33h27l15-45h31v45h36v33H77v99c-1 23 16 31 38 25v30" id="H"/><path d="M185-48c-13 30-37 53-82 52C43 2 14-33 14-96s30-98 90-98c62 0 83 45 84 108H66c0 31 8 55 39 56 18 0 30-7 34-22zm-45-69c5-46-57-63-70-21-2 6-4 13-4 21h74" id="I"/><path d="M144 0l-44-69L55 0H2l70-98-66-92h53l41 62 40-62h54l-67 91 71 99h-54" id="J"/><path d="M35-132v-50h50v50H35zM35 0v-49h50V0H35" id="K"/><g id="f"><use transform="matrix(0.05,0,0,0.05,0,0)" xlink:href="#p"/><use transform="matrix(0.05,0,0,0.05,12.950000000000001,0)" xlink:href="#m"/><use transform="matrix(0.05,0,0,0.05,23.900000000000002,0)" xlink:href="#G"/><use transform="matrix(0.05,0,0,0.05,34.85,0)" xlink:href="#H"/><use transform="matrix(0.05,0,0,0.05,40.800000000000004,0)" xlink:href="#I"/><use transform="matrix(0.05,0,0,0.05,50.800000000000004,0)" xlink:href="#J"/><use transform="matrix(0.05,0,0,0.05,60.800000000000004,0)" xlink:href="#H"/><use transform="matrix(0.05,0,0,0.05,66.75,0)" xlink:href="#K"/></g><g id="g"><use transform="matrix(0.05,0,0,0.05,0,0)" xlink:href="#p"/><use transform="matrix(0.05,0,0,0.05,12.950000000000001,0)" xlink:href="#l"/><use transform="matrix(0.05,0,0,0.05,23.900000000000002,0)" xlink:href="#u"/></g><g id="h"><use transform="matrix(0.05,0,0,0.05,0,0)" xlink:href="#w"/><use transform="matrix(0.05,0,0,0.05,9.950000000000001,0)" xlink:href="#x"/><use transform="matrix(0.05,0,0,0.05,22.900000000000002,0)" xlink:href="#y"/><use transform="matrix(0.05,0,0,0.05,32.900000000000006,0)" xlink:href="#y"/><use transform="matrix(0.05,0,0,0.05,42.900000000000006,0)" xlink:href="#z"/><use transform="matrix(0.05,0,0,0.05,47.900000000000006,0)" xlink:href="#A"/></g><path d="M24-231v-30h32v30H24zM24 0v-190h32V0H24" id="L"/><path d="M135-143c-3-34-86-38-87 0 15 53 115 12 119 90S17 21 10-45l28-5c4 36 97 45 98 0-10-56-113-15-118-90-4-57 82-63 122-42 12 7 21 19 24 35" id="M"/><g id="i"><use transform="matrix(0.05,0,0,0.05,0,0)" xlink:href="#L"/><use transform="matrix(0.05,0,0,0.05,3.95,0)" xlink:href="#M"/></g><g id="j"><use transform="matrix(0.05,0,0,0.05,0,0)" xlink:href="#C"/><use transform="matrix(0.05,0,0,0.05,10,0)" xlink:href="#D"/></g><path d="M210-169c-67 3-38 105-44 169h-31v-121c0-29-5-50-35-48C34-165 62-65 56 0H25l-1-190h30c1 10-1 24 2 32 10-44 99-50 107 0 11-21 27-35 58-36 85-2 47 119 55 194h-31v-121c0-29-5-49-35-48" id="N"/><g id="k"><use transform="matrix(0.05,0,0,0.05,0,0)" xlink:href="#C"/><use transform="matrix(0.05,0,0,0.05,10,0)" xlink:href="#D"/><use transform="matrix(0.05,0,0,0.05,20,0)" xlink:href="#L"/><use transform="matrix(0.05,0,0,0.05,23.95,0)" xlink:href="#N"/><use transform="matrix(0.05,0,0,0.05,38.9,0)" xlink:href="#C"/><use transform="matrix(0.05,0,0,0.05,48.9,0)" xlink:href="#F"/></g></defs></g></svg>