<svg xmlns="http://www.w3.org/2000/svg" xmlns:xlink="http://www.w3.org/1999/xlink" width="1360" height="1760"><g transform="translate(0 0)"><path d="M0 0h1360v1760H0z" fill="#fff"/><path d="M731.5 660h200l20 20v80h-220z" stroke="#d9be60" stroke-width="2" fill="#ffdf71"/><path d="M931.5 660l20 20h-20z" fill="#d9be60"/><use xlink:href="#a" transform="matrix(1,0,0,1,736.5,665) translate(22.69999999999999 37.8)"/><use xlink:href="#b" transform="matrix(1,0,0,1,736.5,665) translate(99.45 37.8)"/><use xlink:href="#c" transform="matrix(1,0,0,1,736.5,665) translate(132.4 37.8)"/><use xlink:href="#d" transform="matrix(1,0,0,1,736.5,665) translate(24.599999999999994 59.4)"/><use xlink:href="#e" transform="matrix(1,0,0,1,736.5,665) translate(86.5 59.4)"/><use xlink:href="#f" transform="matrix(1,0,0,1,736.5,665) translate(104.45 59.4)"/><use xlink:href="#g" transform="matrix(1,0,0,1,736.5,665) translate(119.45 59.4)"/><path d="M560 280h200l20 20v80H560z" stroke="#d9be60" stroke-width="2" fill="#ffdf71"/><path d="M760 280l20 20h-20z" fill="#d9be60"/><use xlink:href="#h" transform="matrix(1,0,0,1,565,285) translate(22.69999999999999 27)"/><use xlink:href="#i" transform="matrix(1,0,0,1,565,285) translate(99.45 27)"/><use xlink:href="#j" transform="matrix(1,0,0,1,565,285) translate(132.4 27)"/><use xlink:href="#k" transform="matrix(1,0,0,1,565,285) translate(17.549999999999997 48.6)"/><use xlink:href="#l" transform="matrix(1,0,0,1,565,285) translate(79.45 48.6)"/><use xlink:href="#m" transform="matrix(1,0,0,1,565,285) translate(123.45 48.6)"/><use xlink:href="#n" transform="matrix(1,0,0,1,565,285) translate(153.45 48.6)"/><use xlink:href="#o" transform="matrix(1,0,0,1,565,285) translate(82.05 70.2)"/><path d="M360 20h205.83v98H360z" stroke="#000" stroke-width="2" fill="#fff"/><use xlink:href="#p" transform="matrix(1,0,0,1,365,25) translate(38.79999999999999 36.8)"/><use xlink:href="#q" transform="matrix(1,0,0,1,365,25) translate(75.3 36.8)"/><use xlink:href="#r" transform="matrix(1,0,0,1,365,25) translate(129.25 36.8)"/><use xlink:href="#s" transform="matrix(1,0,0,1,365,25) translate(38.099999999999994 58.4)"/><use xlink:href="#t" transform="matrix(1,0,0,1,365,25) translate(100 58.4)"/><use xlink:href="#u" transform="matrix(1,0,0,1,365,25) translate(134 58.4)"/><path d="M722.92 558l.05 2.1.14 1.98.25 1.9.32 1.85.4 1.78.48 1.76.57 1.7.65 1.7.75 1.7.85 1.7.97 1.7 1.1 1.74 1.25 1.8 1.43 1.83 1.66 1.93 1.93 2.04 2.3 2.2 2.83 2.43 3.55 2.78 4.82 3.4 7.86 4.96 28.6 17.04 4.83 3.4 3.56 2.77 2.8 2.42 2.32 2.2 1.95 2.04 1.66 1.93 1.43 1.84 1.25 1.8 1.1 1.73.97 1.7.85 1.7.75 1.7.65 1.7.57 1.7.48 1.76.4 1.77.32 1.84.23 1.92.15 2L812 660" stroke="#000" stroke-width="2" fill="none"/><path d="M721.93 558.2l-.03-.2h1.02zM812 660l-7.23-13.14 9.1-1.74z"/><path d="M813 660h-2.14l-7.63-13.86 11.8-2.26zm-6.7-12.42l5.1 9.24 1.3-10.46z"/><path d="M462.92 118l.04 1.94.12 1.9.2 1.83.26 1.8.34 1.8.4 1.74.5 1.75.56 1.73.64 1.73.73 1.75.83 1.75.93 1.77 1.04 1.8 1.16 1.84 1.3 1.9 1.48 1.93 1.67 2 1.9 2.1 2.14 2.18 2.46 2.32 2.85 2.46 3.34 2.64 3.94 2.87 4.77 3.16 5.9 3.56 7.55 4.14 10.3 5.1 16.3 7.22L612 217.54l10.3 5.1 7.55 4.14 5.9 3.56 4.76 3.17 3.96 2.88 3.34 2.64 2.85 2.46 2.46 2.3 2.16 2.2 1.88 2.1 1.67 2 1.48 1.93 1.3 1.9 1.17 1.83 1.04 1.8.92 1.77.82 1.75.73 1.74.64 1.72.58 1.73.48 1.74.4 1.74.35 1.78.28 1.8.2 1.85.1 1.9.05 1.93" stroke="#000" stroke-width="2" fill="none"/><path d="M461.93 118.17l-.03-.17h1.03zM669.33 279l-6.96-13.3 9.14-1.54z"/><path d="M670.2 280h-1.47l-7.9-15.04 11.87-2.02zm-6.3-13.53l4.9 9.34 1.52-10.42z"/><path d="M760 820h205.83v98H760z" stroke="#000" stroke-width="2" fill="#fff"/><use xlink:href="#v" transform="matrix(1,0,0,1,765,825) translate(9.150000000000006 26)"/><use xlink:href="#w" transform="matrix(1,0,0,1,765,825) translate(63.10000000000001 26)"/><use xlink:href="#x" transform="matrix(1,0,0,1,765,825) translate(97.00000000000001 26)"/><use xlink:href="#y" transform="matrix(1,0,0,1,765,825) translate(158.9 26)"/><use xlink:href="#z" transform="matrix(1,0,0,1,765,825) translate(176.85 26)"/><use xlink:href="#A" transform="matrix(1,0,0,1,765,825) translate(40.074999999999996 47.6)"/><use xlink:href="#B" transform="matrix(1,0,0,1,765,825) translate(110.92500000000001 47.6)"/><use xlink:href="#C" transform="matrix(1,0,0,1,765,825) translate(130.925 47.6)"/><use xlink:href="#D" transform="matrix(1,0,0,1,765,825) translate(27.125 69.2)"/><use xlink:href="#E" transform="matrix(1,0,0,1,765,825) translate(74.025 69.2)"/><use xlink:href="#F" transform="matrix(1,0,0,1,765,825) translate(117.925 69.2)"/><path d="M80 620h205.83v98H80z" stroke="#000" stroke-width="2" fill="#fff"/><use xlink:href="#v" transform="matrix(1,0,0,1,85,625) translate(4.150000000000006 36.8)"/><use xlink:href="#w" transform="matrix(1,0,0,1,85,625) translate(58.10000000000001 36.8)"/><use xlink:href="#x" transform="matrix(1,0,0,1,85,625) translate(92.00000000000001 36.8)"/><use xlink:href="#y" transform="matrix(1,0,0,1,85,625) translate(153.9 36.8)"/><use xlink:href="#G" transform="matrix(1,0,0,1,85,625) translate(171.85 36.8)"/><use xlink:href="#H" transform="matrix(1,0,0,1,85,625) translate(78.525 58.4)"/><path d="M620 460h205.83v98H620z" stroke="#000" stroke-width="2" fill="#fff"/><use xlink:href="#I" transform="matrix(1,0,0,1,625,465) translate(56.574999999999996 36.8)"/><use xlink:href="#J" transform="matrix(1,0,0,1,625,465) translate(110.525 36.8)"/><use xlink:href="#K" transform="matrix(1,0,0,1,625,465) translate(4.674999999999997 58.4)"/><use xlink:href="#L" transform="matrix(1,0,0,1,625,465) translate(66.575 58.4)"/><use xlink:href="#M" transform="matrix(1,0,0,1,625,465) translate(84.525 58.4)"/><use xlink:href="#N" transform="matrix(1,0,0,1,625,465) translate(99.525 58.4)"/><use xlink:href="#O" transform="matrix(1,0,0,1,625,465) translate(161.425 58.4)"/><path d="M231.67 562.53l-.12 2.78-.33 2.5-.5 2.27-.68 2.16-.86 2.08-1.07 2.08-1.35 2.13-1.75 2.3-2.43 2.66-4.13 3.76-14.17 11.86-2.43 2.65-1.76 2.3-1.35 2.12-1.08 2.07-.86 2.1-.7 2.14-.5 2.28-.32 2.5-.1 2.76" stroke="#000" stroke-width="2" fill="none"/><path d="M232.63 562.8l-1.93-.52.2-.75h2.07zM203.35 607.43L195.17 620l-.77-14.98z"/><path d="M204.94 606.82L196.36 620h-2.2l-.83-16.3zM196 616.87l5.76-8.83-6.3-1.7z"/><path d="M670 380l.1 3.07.26 2.8.4 2.6.56 2.42.68 2.3.8 2.24.97 2.2 1.12 2.18 1.32 2.23 1.6 2.33 2 2.53 2.6 2.92 3.98 3.92 17.02 15.44 2.6 2.9 2 2.54 1.6 2.33 1.32 2.23 1.13 2.2.96 2.18.8 2.24.68 2.3.56 2.44.4 2.6.28 2.8.1 3.06" stroke="#000" stroke-width="2" fill="none"/><path d="M669 380.17L669 380H670zM715.83 459l-7-13.27 9.14-1.58z"/><path d="M716.7 460h-1.47l-7.92-15.02 11.86-2.05zm-6.34-13.52l4.92 9.33 1.5-10.43z"/><path d="M841.5 760l.25 6.07.6 4.8.88 4.08 1.16 3.8 1.62 4.05 8.43 17.46 1.16 3.8.88 4.08.6 4.8.25 6.06" stroke="#000" stroke-width="2" fill="none"/><path d="M840.5 760.12V760h1zM857.33 819l-6.23-13.64 9.2-1.06z"/><path d="M858.15 820h-1.46l-7.08-15.48 11.94-1.37zm-5.57-13.8l4.38 9.6 2.1-10.35z"/><path d="M183 718l28.5 19-28.5 19-28.5-19z" stroke="#000" stroke-width="2"/><path d="M980 1080c0 44.18-35.82 80-80 80s-80-35.82-80-80 35.82-80 80-80 80 35.82 80 80z" stroke="#000" stroke-width="2" fill="#fff"/><use xlink:href="#P" transform="matrix(1,0,0,1,825,1004.9988000119997) translate(33.05 57)"/><use xlink:href="#Q" transform="matrix(1,0,0,1,825,1004.9988000119997) translate(0.42499999999998295 78.60000000000001)"/><use xlink:href="#R" transform="matrix(1,0,0,1,825,1004.9988000119997) translate(74.725 78.60000000000001)"/><use xlink:href="#S" transform="matrix(1,0,0,1,825,1004.9988000119997) translate(116.625 78.60000000000001)"/><use xlink:href="#T" transform="matrix(1,0,0,1,825,1004.9988000119997) translate(45.05 100.20000000000002)"/><path d="M871.53 918l.15 4.98.4 4.3.57 3.8.75 3.46.9 3.23 1.1 3.1 1.3 3.1 1.6 3.28 2.2 3.83 12.73 19.67 1.6 3.27 1.3 3.1 1.1 3.1.9 3.24.75 3.46.58 3.8.4 4.3.14 4.98" stroke="#000" stroke-width="2" fill="none"/><path d="M870.53 918.1v-.1h1zM900 1000l-6.05-13.72 9.22-.94z"/><path d="M901.02 1000.03L900 1000h-.68l-.4.02-6.45-14.6 11.97-1.22zm-5.6-12.9l4.25 9.65 2.23-10.3z"/><path d="M460 660h200l20 20v80H460z" stroke="#d9be60" stroke-width="2" fill="#ffdf71"/><path d="M660 660l20 20h-20z" fill="#d9be60"/><use xlink:href="#a" transform="matrix(1,0,0,1,465,665) translate(22.69999999999999 37.8)"/><use xlink:href="#b" transform="matrix(1,0,0,1,465,665) translate(99.45 37.8)"/><use xlink:href="#c" transform="matrix(1,0,0,1,465,665) translate(132.4 37.8)"/><use xlink:href="#d" transform="matrix(1,0,0,1,465,665) translate(13.599999999999994 59.4)"/><use xlink:href="#e" transform="matrix(1,0,0,1,465,665) translate(75.5 59.4)"/><use xlink:href="#U" transform="matrix(1,0,0,1,465,665) translate(93.45 59.4)"/><path d="M722.92 558l-.03 1.45-.1 1.4-.16 1.37-.2 1.33-.26 1.3-.3 1.28-.38 1.27-.43 1.26-.48 1.26-.57 1.26-.62 1.26-.7 1.3-.78 1.3-.9 1.32-1 1.37-1.12 1.4-1.28 1.48-1.47 1.55-1.7 1.62-1.96 1.74-2.34 1.88-2.78 2.05-3.44 2.3-4.38 2.67-6 3.3-9.75 4.82-38.4 17.78-6 3.3-4.4 2.67-3.42 2.3-2.8 2.05-2.3 1.87-1.98 1.73-1.7 1.62-1.46 1.54-1.3 1.46-1.12 1.4-1 1.38-.88 1.33-.8 1.3-.7 1.3-.62 1.25-.55 1.26-.5 1.26-.4 1.26-.38 1.27-.33 1.28-.26 1.3-.2 1.33-.14 1.36-.1 1.4-.02 1.46" stroke="#000" stroke-width="2" fill="none"/><path d="M723.9 558.24l-1-.24h1.05zM615.9 647.23L608.05 660l-1.14-14.96z"/><path d="M617.48 646.58L609.2 660h-2.16l-1.24-16.25zm-8.68 10.28l5.53-8.98-6.33-1.54z"/><path d="M452.17 820H658v98H452.17z" stroke="#000" stroke-width="2" fill="#fff"/><use xlink:href="#V" transform="matrix(1,0,0,1,457.16666666666686,824.998687392319) translate(30.625 36.8)"/><use xlink:href="#x" transform="matrix(1,0,0,1,457.16666666666686,824.998687392319) translate(90.525 36.8)"/><use xlink:href="#W" transform="matrix(1,0,0,1,457.16666666666686,824.998687392319) translate(152.425 36.8)"/><use xlink:href="#X" transform="matrix(1,0,0,1,457.16666666666686,824.998687392319) translate(39.599999999999994 58.4)"/><use xlink:href="#Y" transform="matrix(1,0,0,1,457.16666666666686,824.998687392319) translate(122.45 58.4)"/><path d="M570 760l-.2 4.53-.47 3.8-.7 3.3-.94 3.05-1.18 2.94-1.55 3.06-2.33 3.77-9.6 13.87-1.56 3.06-1.17 2.94-.92 3.03-.7 3.32-.5 3.8L548 819" stroke="#000" stroke-width="2" fill="none"/><path d="M571 760.16l-1-.16h1zM554.8 805.63L548 819l-2.35-14.82z"/><path d="M556.32 804.86l-7.7 15.14h-1.47l-2.7-17.02zm-7.8 10.94l4.77-9.4-6.45-1z"/><path d="M540 1078c0 44.18-35.82 80-80 80s-80-35.82-80-80 35.82-80 80-80 80 35.82 80 80z" stroke="#000" stroke-width="2" fill="#fff"/><use xlink:href="#Z" transform="matrix(1,0,0,1,385,1002.998687392319) translate(33.05 57)"/><use xlink:href="#aa" transform="matrix(1,0,0,1,385,1002.998687392319) translate(24.549999999999997 78.60000000000001)"/><use xlink:href="#ab" transform="matrix(1,0,0,1,385,1002.998687392319) translate(96.45 78.60000000000001)"/><use xlink:href="#ac" transform="matrix(1,0,0,1,385,1002.998687392319) translate(51.55 100.20000000000002)"/><path d="M555.08 918l-.03 1.3-.1 1.25-.16 1.22-.23 1.18-.28 1.16-.35 1.17-.4 1.14-.5 1.16-.54 1.15-.63 1.18-.74 1.2-.85 1.23-1 1.3-1.14 1.32-1.35 1.4-1.6 1.52-1.94 1.64-2.37 1.8-3.02 2.04-3.96 2.4-5.67 3.03-10.3 4.8-31.12 13.7-5.67 3.03-3.96 2.4-3 2.04-2.38 1.8-1.93 1.64-1.6 1.5-1.36 1.42-1.15 1.33-1 1.3-.85 1.22-.74 1.2-.62 1.17-.56 1.14-.48 1.15-.4 1.13-.35 1.15-.3 1.17-.2 1.18-.17 1.22-.1 1.25-.03 1.3" stroke="#000" stroke-width="2" fill="none"/><path d="M556.03 918.3l-.95-.3h1.06zM468.85 985.9L460 998l.04-15z"/><path d="M470.47 985.37l-9.26 12.67-1.2-.04h-1l.05-16.38zm-9.46 9.55l6.23-8.5-6.2-2.04z"/><path d="M493 1250.5c0 17.95-14.77 32.5-33 32.5s-33-14.55-33-32.5 14.77-32.5 33-32.5 33 14.55 33 32.5z" stroke="#000" stroke-width="2" fill="#ccc"/><use xlink:href="#ad" transform="matrix(1,0,0,1,432,1222.998687392319) translate(28 32.9)"/><path d="M460 1158v59" stroke="#000" stroke-width="2" fill="none"/><path d="M460 1158h.68l.32-.02v.02h-2v-.03zM460 1217l-4.64-14.27h9.28z"/><path d="M460.7 1218.05l-.7-.05-.72.02-5.3-16.3h12.03zm-3.96-14.32l3.26 10.03 3.26-10.03z"/><path d="M912 1202.23h170.36l20.3 20.3v81.24H912z" stroke="#82b3ce" stroke-width="2" fill="#99d2f2"/><path d="M1082.36 1202.23l20.3 20.3h-20.3z" fill="#82b3ce"/><use xlink:href="#ae" transform="matrix(1,0,0,1,917,1207.2317486092534) translate(10.674999999999997 28)"/><use xlink:href="#af" transform="matrix(1,0,0,1,917,1207.2317486092534) translate(115.425 28)"/><use xlink:href="#ag" transform="matrix(1,0,0,1,917,1207.2317486092534) translate(21.57499999999999 49.6)"/><use xlink:href="#ah" transform="matrix(1,0,0,1,917,1207.2317486092534) translate(51.57499999999999 49.6)"/><use xlink:href="#ai" transform="matrix(1,0,0,1,917,1207.2317486092534) translate(93.475 49.6)"/><use xlink:href="#aj" transform="matrix(1,0,0,1,917,1207.2317486092534) translate(127.475 49.6)"/><use xlink:href="#ak" transform="matrix(1,0,0,1,917,1207.2317486092534) translate(36.55 71.2)"/><path d="M940 1340h245v98H940z" stroke="#000" stroke-width="2" fill="#fff"/><use xlink:href="#V" transform="matrix(1,0,0,1,944.9999999999999,1344.9988000119997) translate(8.625 26)"/><use xlink:href="#al" transform="matrix(1,0,0,1,944.9999999999999,1344.9988000119997) translate(68.525 26)"/><use xlink:href="#am" transform="matrix(1,0,0,1,944.9999999999999,1344.9988000119997) translate(104.47500000000001 26)"/><use xlink:href="#an" transform="matrix(1,0,0,1,944.9999999999999,1344.9988000119997) translate(167.375 26)"/><use xlink:href="#ao" transform="matrix(1,0,0,1,944.9999999999999,1344.9988000119997) translate(207.375 26)"/><use xlink:href="#ap" transform="matrix(1,0,0,1,944.9999999999999,1344.9988000119997) translate(10.174999999999997 47.6)"/><use xlink:href="#aq" transform="matrix(1,0,0,1,944.9999999999999,1344.9988000119997) translate(175.925 47.6)"/><use xlink:href="#ar" transform="matrix(1,0,0,1,944.9999999999999,1344.9988000119997) translate(103.5 69.2)"/><path d="M1160 1560c0 44.18-35.82 80-80 80s-80-35.82-80-80 35.82-80 80-80 80 35.82 80 80z" stroke="#000" stroke-width="2" fill="#fff"/><g><use xlink:href="#as" transform="matrix(1,0,0,1,1005,1484.9988000119997) translate(33.05 67.8)"/><use xlink:href="#at" transform="matrix(1,0,0,1,1005,1484.9988000119997) translate(11.549999999999997 89.4)"/><use xlink:href="#au" transform="matrix(1,0,0,1,1005,1484.9988000119997) translate(46.55 89.4)"/></g><path d="M1062.5 1438l.23 3.9.68 3.65 1.2 3.82 2.4 5.17 7.32 14 1.25 4 .7 3.84.23 2.73" stroke="#000" stroke-width="2" fill="none"/><path d="M1061.53 1438.24l-.06-.24h1.03zM1076.5 1479.1l-8.4-12.4 8.9-2.58z"/><path d="M1077.47 1480.07l-1.5.06-9.48-14.02 11.54-3.32zm-7.78-12.8l5.9 8.73.35-10.54z"/><path d="M1007.33 1303.77l.07 1.2.2 1.1.32 1.1.46 1.07.64 1.1.88 1.2 1.23 1.32 1.83 1.55 2.98 1.98 6.43 3.23 19.7 8.78 2.97 1.98 1.83 1.54 1.23 1.32.88 1.2.64 1.1.46 1.1.32 1.07.2 1.1.07 1.2" stroke="#000" stroke-width="2" fill="none"/><path d="M1006.53 1304.36l-.44-.6h1.23zM1050.67 1339l-12.18-8.75 7.46-5.5z"/><path d="M1052.05 1340h-1.7l-13.57-9.75 9.7-7.1zm-11.86-9.76l8.55 6.15-3.3-10.02z"/><path d="M900 1160v.32l.03.3.04.32.06.3.07.32.08.3.1.32.14.32.14.32.18.34.2.34.23.36.27.37.32.4.37.42.44.44.52.47.62.52.77.56.93.64 1.18.7 1.53.82 2 .95 2.76 1.13 4 1.4 6.38 1.92 13.65 3.3 39.26 8.7 6.38 1.9 4 1.4 2.75 1.14 2 .95 1.52.82 1.2.7.93.65.76.57.63.52.53.48.44.44.37.42.32.4.28.37.23.36.2.34.17.34.15.33.13.32.1.3.1.32.06.3.06.32.04.3.02.3v.33" stroke="#000" stroke-width="2" fill="none"/><path d="M900 1160l-.7.7-.76-.75zM999.67 1201.23l-13.36-6.83 6.58-6.55z"/><path d="M1001.3 1202.23h-1.87l-14.8-7.57 8.52-8.5zm-13.3-8.1l9.38 4.8-4.77-9.4z"/><path d="M1146 1714.5c0 17.95-14.77 32.5-33 32.5s-33-14.55-33-32.5 14.77-32.5 33-32.5 33 14.55 33 32.5z" stroke="#000" stroke-width="2" fill="#ccc"/><g><use xlink:href="#ad" transform="matrix(1,0,0,1,1085,1686.9988000119997) translate(28 32.9)"/></g><path d="M1080 1640l.16 2.75.45 2.46.72 2.3 1 2.28 1.46 2.4 2.22 2.85 5.74 5.63 7.8 7.5 2.42 3.1 1.6 2.65 1.14 2.58.82 2.64.48 2.6" stroke="#000" stroke-width="2" fill="none"/><path d="M1080 1640l-.94.34-.14-.37zM1106 1681.72l-10.28-10.93 8.38-3.96z"/><path d="M1107.12 1682.58l-1.04.13-.4.13-11.63-12.35 10.87-5.13zm-9.73-11.47l7.22 7.7-1.33-10.47z"/><path d="M803 29c17.67 0 32 17.9 32 40s-14.33 40-32 40h-96c-17.67 0-32-17.9-32-40s14.33-40 32-40z" stroke="#000" stroke-width="2" fill="#fff"/><g><use xlink:href="#av" transform="matrix(1,0,0,1,680,34) translate(7.699999999999989 27.799999999999997)"/><use xlink:href="#aw" transform="matrix(1,0,0,1,680,34) translate(85.39999999999999 27.799999999999997)"/><use xlink:href="#ax" transform="matrix(1,0,0,1,680,34) translate(27.099999999999994 49.4)"/><use xlink:href="#ay" transform="matrix(1,0,0,1,680,34) translate(45.05 49.4)"/><use xlink:href="#az" transform="matrix(1,0,0,1,680,34) translate(70.05 49.4)"/></g><path d="M565.83 69H674" stroke="#000" stroke-width="2" fill="none"/><path d="M565.83 70v-2zM674 69l-14.27 4.64v-9.28z"/><path d="M675.04 68.3l-.04.7.03.72-16.3 5.3V62.98zm-14.3 3.96L670.75 69l-10.03-3.26z"/><path d="M180 280h260v100H180z" stroke="#000" stroke-width="2" fill="#a3d977"/><path d="M206 280v100m208-100v100" stroke="#000" stroke-width="2" fill="none"/><g><use xlink:href="#aA" transform="matrix(1,0,0,1,212.5,280) translate(25.14999999999999 32)"/><use xlink:href="#aB" transform="matrix(1,0,0,1,212.5,280) translate(110 32)"/><use xlink:href="#aC" transform="matrix(1,0,0,1,212.5,280) translate(159.85000000000002 32)"/><use xlink:href="#aD" transform="matrix(1,0,0,1,212.5,280) translate(10.625 53.6)"/><use xlink:href="#ax" transform="matrix(1,0,0,1,212.5,280) translate(67.575 53.6)"/><use xlink:href="#aE" transform="matrix(1,0,0,1,212.5,280) translate(85.525 53.6)"/><use xlink:href="#aF" transform="matrix(1,0,0,1,212.5,280) translate(100.525 53.6)"/><use xlink:href="#aG" transform="matrix(1,0,0,1,212.5,280) translate(135.425 53.6)"/><use xlink:href="#aH" transform="matrix(1,0,0,1,212.5,280) translate(175.425 53.6)"/><use xlink:href="#t" transform="matrix(1,0,0,1,212.5,280) translate(71.525 75.2)"/><use xlink:href="#aI" transform="matrix(1,0,0,1,212.5,280) translate(105.525 75.2)"/></g><path d="M462.92 118l-.06 2.64-.16 2.54-.26 2.45-.35 2.38-.45 2.32-.53 2.27-.62 2.22-.72 2.2-.8 2.2-.93 2.17-1.02 2.16-1.15 2.2-1.28 2.2-1.43 2.26-1.6 2.3-1.8 2.36-2 2.44-2.3 2.55-2.63 2.68-3.04 2.85-3.56 3.08-4.27 3.38-5.28 3.82-6.86 4.54-9.94 6-56.83 31.56-6.85 4.54-5.27 3.82-4.27 3.38-3.56 3.08-3.04 2.85-2.63 2.68-2.3 2.55-2.02 2.44-1.8 2.36-1.6 2.3-1.42 2.25-1.26 2.2-1.15 2.2-1.04 2.18-.9 2.2-.82 2.18-.72 2.2-.62 2.23-.54 2.28-.44 2.3-.35 2.4-.26 2.44-.15 2.54L310 280" stroke="#000" stroke-width="2" fill="none"/><path d="M463.9 118.13l-1-.13h1.02zM316.38 266.42L310 280l-2.82-14.73z"/><path d="M317.87 265.6L311.1 280h-2.12l-3.04-15.9zm-7.47 11.2l4.5-9.56-6.48-.8z"/><path d="M1020 656h300v126h-300z" stroke="#000" stroke-width="2" fill="#a3d977"/><path d="M1050 656v126m240-126v126" stroke="#000" stroke-width="2" fill="none"/><g><use xlink:href="#aA" transform="matrix(1,0,0,1,1057.5,656) translate(28.69999999999999 23.39999999999999)"/><use xlink:href="#aB" transform="matrix(1,0,0,1,1057.5,656) translate(113.55 23.39999999999999)"/><use xlink:href="#aJ" transform="matrix(1,0,0,1,1057.5,656) translate(163.4 23.39999999999999)"/><use xlink:href="#aK" transform="matrix(1,0,0,1,1057.5,656) translate(178.4 23.39999999999999)"/><use xlink:href="#aL" transform="matrix(1,0,0,1,1057.5,656) translate(28.025000000000006 44.99999999999999)"/><use xlink:href="#aM" transform="matrix(1,0,0,1,1057.5,656) translate(87.025 44.99999999999999)"/><use xlink:href="#aN" transform="matrix(1,0,0,1,1057.5,656) translate(122.025 44.99999999999999)"/><use xlink:href="#aO" transform="matrix(1,0,0,1,1057.5,656) translate(186.975 44.99999999999999)"/><use xlink:href="#aP" transform="matrix(1,0,0,1,1057.5,656) translate(0.6999999999999886 66.6)"/><use xlink:href="#aF" transform="matrix(1,0,0,1,1057.5,656) translate(62.599999999999994 66.6)"/><use xlink:href="#aQ" transform="matrix(1,0,0,1,1057.5,656) translate(97.5 66.6)"/><use xlink:href="#aR" transform="matrix(1,0,0,1,1057.5,656) translate(138.4 66.6)"/><use xlink:href="#aS" transform="matrix(1,0,0,1,1057.5,656) translate(185.3 66.6)"/><use xlink:href="#aT" transform="matrix(1,0,0,1,1057.5,656) translate(6.574999999999989 88.20000000000002)"/><use xlink:href="#aU" transform="matrix(1,0,0,1,1057.5,656) translate(51.57499999999999 88.20000000000002)"/><use xlink:href="#aG" transform="matrix(1,0,0,1,1057.5,656) translate(126.475 88.20000000000002)"/><use xlink:href="#aV" transform="matrix(1,0,0,1,1057.5,656) translate(166.475 88.20000000000002)"/><use xlink:href="#t" transform="matrix(1,0,0,1,1057.5,656) translate(86.525 109.80000000000001)"/><use xlink:href="#aI" transform="matrix(1,0,0,1,1057.5,656) translate(120.525 109.80000000000001)"/></g><path d="M722.92 558v.34l.02.33.04.34.05.34.06.33.07.34.1.36.1.34.14.36.17.36.17.38.2.38.23.4.27.4.3.45.35.45.38.48.46.5.53.56.62.58.72.62.86.7 1.03.73 1.26.83 1.52.92 1.88 1.03 2.37 1.18 3.06 1.36 4.03 1.6 5.5 1.9 7.8 2.35 11.7 3 19.03 4 36.1 6 280.9 35.6 19.03 4 11.68 3 7.8 2.33 5.5 1.9 4.04 1.6 3.06 1.36 2.38 1.17 1.88 1.03 1.52.92 1.24.83 1.03.74.86.68.72.62.62.58.53.55.46.5.4.5.35.44.3.44.26.42.23.4.2.38.18.38.15.36.13.36.12.34.1.35.07.33.07.33.04.33.03.33.02.33v.34" stroke="#000" stroke-width="2" fill="none"/><path d="M722.13 558.62l-.48-.62h1.27zM1170 656l-12.44-8.38 7.3-5.7z"/><path d="M1171.06 656h-2.85l-12.34-8.32 9.47-7.4zm-11.8-8.44l8.75 5.9-3.6-9.92z"/><path d="M746 1078c0 44.18-35.82 80-80 80s-80-35.82-80-80 35.82-80 80-80 80 35.82 80 80z" stroke="#000" stroke-width="2" fill="#fff"/><g><use xlink:href="#aW" transform="matrix(1,0,0,1,591,1002.998687392319) translate(33.05 57)"/><use xlink:href="#aX" transform="matrix(1,0,0,1,591,1002.998687392319) translate(20.125 78.60000000000001)"/><use xlink:href="#aY" transform="matrix(1,0,0,1,591,1002.998687392319) translate(72.975 78.60000000000001)"/><use xlink:href="#aZ" transform="matrix(1,0,0,1,591,1002.998687392319) translate(38.05 100.20000000000002)"/></g><path d="M699 1250.5c0 17.95-14.77 32.5-33 32.5s-33-14.55-33-32.5 14.77-32.5 33-32.5 33 14.55 33 32.5z" stroke="#000" stroke-width="2" fill="#ccc"/><g><use xlink:href="#ad" transform="matrix(1,0,0,1,638,1222.998687392319) translate(28 32.9)"/></g><path d="M666 1158v59" stroke="#000" stroke-width="2" fill="none"/><path d="M666 1158h.68l.32-.02v.02h-2v-.03zM666 1217l-4.64-14.27h9.28z"/><path d="M666.7 1218.05l-.7-.05-.72.02-5.3-16.3h12.03zm-3.96-14.32l3.26 10.03 3.26-10.03z"/><path d="M555.08 918l.02.96.07.93.1.9.14.9.2.9.22.86.26.87.3.87.36.88.4.88.46.9.52.9.6.93.65.95.76 1 .87 1 1 1.1 1.13 1.13 1.33 1.2 1.57 1.3 1.85 1.4 2.25 1.54 2.77 1.72 3.53 1.98 4.7 2.36 6.85 3.05 13.62 5.32 31.5 11.82 6.85 3.05 4.7 2.36 3.53 1.98 2.77 1.72 2.25 1.54 1.86 1.4 1.56 1.3 1.33 1.2 1.15 1.14 1 1.07.85 1.03.76 1 .68.95.6.94.5.9.46.9.4.88.36.87.3.86.27.87.22.88.17.9.14.9.12.9.06.94.02.96" stroke="#000" stroke-width="2" fill="none"/><path d="M554.15 918.35l-.13-.35h1.07zM666 998l-9.34-11.74 8.68-3.25z"/><path d="M667 998.03l-1-.03h-.68l-.58.02-9.72-12.2 11.26-4.23zm-8.7-11.3l6.57 8.24-.47-10.54z"/><path d="M137 460h170.36l20.3 20.3v81.23H137z" stroke="#d97a6d" stroke-width="2" fill="#ff8f80"/><path d="M307.36 460l20.3 20.3h-20.3z" fill="#d97a6d"/><g><use xlink:href="#ba" transform="matrix(1,0,0,1,142,465) translate(18.19999999999999 38.8)"/><use xlink:href="#bb" transform="matrix(1,0,0,1,142,465) translate(107.89999999999999 38.8)"/><use xlink:href="#d" transform="matrix(1,0,0,1,142,465) translate(12.649999999999991 60.4)"/><use xlink:href="#e" transform="matrix(1,0,0,1,142,465) translate(74.55 60.4)"/><use xlink:href="#f" transform="matrix(1,0,0,1,142,465) translate(92.5 60.4)"/><use xlink:href="#bc" transform="matrix(1,0,0,1,142,465) translate(107.5 60.4)"/></g><path d="M310 380l-.07 2.16-.2 2.02-.3 1.92-.4 1.84-.53 1.8-.64 1.74-.76 1.73-.9 1.75-1.04 1.77-1.25 1.8-1.48 1.9-1.8 2.03-2.24 2.2-2.9 2.52-4.03 3.07-7.03 4.67-22.2 13.86-4.04 3.07-2.9 2.5-2.23 2.22-1.8 2.02-1.5 1.9-1.24 1.8-1.04 1.78-.9 1.74-.75 1.72-.63 1.75-.52 1.8-.42 1.83-.3 1.92-.2 2.02-.06 2.16" stroke="#000" stroke-width="2" fill="none"/><path d="M310.97 380.24L310 380h1.03zM251.55 446.24L243.67 459l-1.13-14.96z"/><path d="M253.13 445.6l-8.9 14.4h-1.5l-1.3-17.26zm-8.7 10.26l5.55-8.98-6.34-1.54z"/><path d="M1203 852.5c0 17.95-14.77 32.5-33 32.5s-33-14.55-33-32.5 14.77-32.5 33-32.5 33 14.55 33 32.5z" stroke="#000" stroke-width="2" fill="#ccc"/><g><use xlink:href="#ad" transform="matrix(1,0,0,1,1142,825) translate(28 32.9)"/></g><path d="M1170 782v37" stroke="#000" stroke-width="2" fill="none"/><path d="M1171 782h-2 2zM1170 819l-4.64-14.27h9.28z"/><path d="M1170.7 820.05l-.7-.05-.72.02-5.3-16.3h12.03zm-3.96-14.32l3.26 10.03 3.26-10.03z"/><defs><path d="M240-174c0 40-23 61-54 70L253 0h-59l-57-94H76V0H24v-248c93 4 217-23 216 74zM76-134c48-2 112 12 112-38 0-48-66-32-112-35v73" id="bd"/><path d="M185-48c-13 30-37 53-82 52C43 2 14-33 14-96s30-98 90-98c62 0 83 45 84 108H66c0 31 8 55 39 56 18 0 30-7 34-22zm-45-69c5-46-57-63-70-21-2 6-4 13-4 21h74" id="be"/><path d="M135-194c52 0 70 43 70 98 0 56-19 99-73 100-30 1-46-15-58-35L72 0H24l1-261h50v104c11-23 29-37 60-37zM114-30c31 0 40-27 40-66 0-37-7-63-39-63s-41 28-41 65c0 36 8 64 40 64" id="bf"/><path d="M85 4C-2 5 27-109 22-190h50c7 57-23 150 33 157 60-5 35-97 40-157h50l1 190h-47c-2-12 1-28-3-38-12 25-28 42-61 42" id="bg"/><path d="M115-3C79 11 28 4 28-45v-112H4v-33h27l15-45h31v45h36v33H77v99c-1 23 16 31 38 25v30" id="bh"/><path d="M133-34C117-15 103 5 69 4 32 3 11-16 11-54c-1-60 55-63 116-61 1-26-3-47-28-47-18 1-26 9-28 27l-52-2c7-38 36-58 82-57s74 22 75 68l1 82c-1 14 12 18 25 15v27c-30 8-71 5-69-32zm-48 3c29 0 43-24 42-57-32 0-66-3-65 30 0 17 8 27 23 27" id="bi"/><path d="M25 0v-261h50V0H25" id="bj"/><g id="a"><use transform="matrix(0.05,0,0,0.05,0,0)" xlink:href="#bd"/><use transform="matrix(0.05,0,0,0.05,12.950000000000001,0)" xlink:href="#be"/><use transform="matrix(0.05,0,0,0.05,22.950000000000003,0)" xlink:href="#bf"/><use transform="matrix(0.05,0,0,0.05,33.900000000000006,0)" xlink:href="#bg"/><use transform="matrix(0.05,0,0,0.05,44.85000000000001,0)" xlink:href="#bh"/><use transform="matrix(0.05,0,0,0.05,50.80000000000001,0)" xlink:href="#bh"/><use transform="matrix(0.05,0,0,0.05,56.750000000000014,0)" xlink:href="#bi"/><use transform="matrix(0.05,0,0,0.05,66.75000000000001,0)" xlink:href="#bj"/></g><path d="M233-177c-1 41-23 64-60 70L243 0h-38l-65-103H63V0H30v-248c88 3 205-21 203 71zM63-129c60-2 137 13 137-47 0-61-80-42-137-45v92" id="bk"/><path d="M27 0v-27h64v-190l-56 39v-29l58-41h29v221h61V0H27" id="bl"/><path d="M33-154v-36h34v36H33zM33 0v-36h34V0H33" id="bm"/><g id="b"><use transform="matrix(0.05,0,0,0.05,0,0)" xlink:href="#bk"/><use transform="matrix(0.05,0,0,0.05,12.950000000000001,0)" xlink:href="#bl"/><use transform="matrix(0.05,0,0,0.05,22.950000000000003,0)" xlink:href="#bm"/></g><path d="M232-93c-1 65-40 97-104 97C67 4 28-28 28-90v-158h33c8 89-33 224 67 224 102 0 64-133 71-224h33v155" id="bn"/><path d="M117-194c89-4 53 116 60 194h-32v-121c0-31-8-49-39-48C34-167 62-67 57 0H25l-1-190h30c1 10-1 24 2 32 11-22 29-35 61-36" id="bo"/><path d="M24 0v-261h32V0H24" id="bp"/><path d="M100-194c63 0 86 42 84 106H49c0 40 14 67 53 68 26 1 43-12 49-29l28 8c-11 28-37 45-77 45C44 4 14-33 15-96c1-61 26-98 85-98zm52 81c6-60-76-77-97-28-3 7-6 17-6 28h103" id="bq"/><path d="M135-143c-3-34-86-38-87 0 15 53 115 12 119 90S17 21 10-45l28-5c4 36 97 45 98 0-10-56-113-15-118-90-4-57 82-63 122-42 12 7 21 19 24 35" id="br"/><g id="c"><use transform="matrix(0.05,0,0,0.05,0,0)" xlink:href="#bn"/><use transform="matrix(0.05,0,0,0.05,12.950000000000001,0)" xlink:href="#bo"/><use transform="matrix(0.05,0,0,0.05,22.950000000000003,0)" xlink:href="#bp"/><use transform="matrix(0.05,0,0,0.05,26.900000000000002,0)" xlink:href="#bq"/><use transform="matrix(0.05,0,0,0.05,36.900000000000006,0)" xlink:href="#br"/><use transform="matrix(0.05,0,0,0.05,45.900000000000006,0)" xlink:href="#br"/></g><path d="M127-220V0H93v-220H8v-28h204v28h-85" id="bs"/><path d="M206 0h-36l-40-164L89 0H53L-1-190h32L70-26l43-164h34l41 164 42-164h31" id="bt"/><path d="M59-47c-2 24 18 29 38 22v24C64 9 27 4 27-40v-127H5v-23h24l9-43h21v43h35v23H59v120" id="bu"/><path d="M179-190L93 31C79 59 56 82 12 73V49c39 6 53-20 64-50L1-190h34L92-34l54-156h33" id="bv"/><g id="d"><use transform="matrix(0.05,0,0,0.05,0,0)" xlink:href="#bs"/><use transform="matrix(0.05,0,0,0.05,9.950000000000001,0)" xlink:href="#bt"/><use transform="matrix(0.05,0,0,0.05,22.900000000000002,0)" xlink:href="#bq"/><use transform="matrix(0.05,0,0,0.05,32.900000000000006,0)" xlink:href="#bq"/><use transform="matrix(0.05,0,0,0.05,42.900000000000006,0)" xlink:href="#bu"/><use transform="matrix(0.05,0,0,0.05,47.900000000000006,0)" xlink:href="#bv"/></g><path d="M24-231v-30h32v30H24zM24 0v-190h32V0H24" id="bw"/><g id="e"><use transform="matrix(0.05,0,0,0.05,0,0)" xlink:href="#bw"/><use transform="matrix(0.05,0,0,0.05,3.95,0)" xlink:href="#br"/></g><path d="M141-36C126-15 110 5 73 4 37 3 15-17 15-53c-1-64 63-63 125-63 3-35-9-54-41-54-24 1-41 7-42 31l-33-3c5-37 33-52 76-52 45 0 72 20 72 64v82c-1 20 7 32 28 27v20c-31 9-61-2-59-35zM48-53c0 20 12 33 32 33 41-3 63-29 60-74-43 2-92-5-92 41" id="bx"/><use transform="matrix(0.05,0,0,0.05,0,0)" xlink:href="#bx" id="f"/><path d="M30-248c87 1 191-15 191 75 0 78-77 80-158 76V0H30v-248zm33 125c57 0 124 11 124-50 0-59-68-47-124-48v98" id="by"/><path d="M177-190C167-65 218 103 67 71c-23-6-38-20-44-43l32-5c15 47 100 32 89-28v-30C133-14 115 1 83 1 29 1 15-40 15-95c0-56 16-97 71-98 29-1 48 16 59 35 1-10 0-23 2-32h30zM94-22c36 0 50-32 50-73 0-42-14-75-50-75-39 0-46 34-46 75s6 73 46 73" id="bz"/><path d="M84 4C-5 8 30-112 23-190h32v120c0 31 7 50 39 49 72-2 45-101 50-169h31l1 190h-30c-1-10 1-25-2-33-11 22-28 36-60 37" id="bA"/><g id="g"><use transform="matrix(0.05,0,0,0.05,0,0)" xlink:href="#by"/><use transform="matrix(0.05,0,0,0.05,12,0)" xlink:href="#bq"/><use transform="matrix(0.05,0,0,0.05,22,0)" xlink:href="#bo"/><use transform="matrix(0.05,0,0,0.05,32,0)" xlink:href="#bz"/><use transform="matrix(0.05,0,0,0.05,42,0)" xlink:href="#bA"/><use transform="matrix(0.05,0,0,0.05,52,0)" xlink:href="#bw"/><use transform="matrix(0.05,0,0,0.05,55.95,0)" xlink:href="#bo"/></g><g id="h"><use transform="matrix(0.05,0,0,0.05,0,0)" xlink:href="#bd"/><use transform="matrix(0.05,0,0,0.05,12.950000000000001,0)" xlink:href="#be"/><use transform="matrix(0.05,0,0,0.05,22.950000000000003,0)" xlink:href="#bf"/><use transform="matrix(0.05,0,0,0.05,33.900000000000006,0)" xlink:href="#bg"/><use transform="matrix(0.05,0,0,0.05,44.85000000000001,0)" xlink:href="#bh"/><use transform="matrix(0.05,0,0,0.05,50.80000000000001,0)" xlink:href="#bh"/><use transform="matrix(0.05,0,0,0.05,56.750000000000014,0)" xlink:href="#bi"/><use transform="matrix(0.05,0,0,0.05,66.75000000000001,0)" xlink:href="#bj"/></g><path d="M101-251c82-7 93 87 43 132L82-64C71-53 59-42 53-27h129V0H18c2-99 128-94 128-182 0-28-16-43-45-43s-46 15-49 41l-32-3c6-41 34-60 81-64" id="bB"/><g id="i"><use transform="matrix(0.05,0,0,0.05,0,0)" xlink:href="#bk"/><use transform="matrix(0.05,0,0,0.05,12.950000000000001,0)" xlink:href="#bB"/><use transform="matrix(0.05,0,0,0.05,22.950000000000003,0)" xlink:href="#bm"/></g><g id="j"><use transform="matrix(0.05,0,0,0.05,0,0)" xlink:href="#bn"/><use transform="matrix(0.05,0,0,0.05,12.950000000000001,0)" xlink:href="#bo"/><use transform="matrix(0.05,0,0,0.05,22.950000000000003,0)" xlink:href="#bp"/><use transform="matrix(0.05,0,0,0.05,26.900000000000002,0)" xlink:href="#bq"/><use transform="matrix(0.05,0,0,0.05,36.900000000000006,0)" xlink:href="#br"/><use transform="matrix(0.05,0,0,0.05,45.900000000000006,0)" xlink:href="#br"/></g><g id="k"><use transform="matrix(0.05,0,0,0.05,0,0)" xlink:href="#bs"/><use transform="matrix(0.05,0,0,0.05,9.950000000000001,0)" xlink:href="#bt"/><use transform="matrix(0.05,0,0,0.05,22.900000000000002,0)" xlink:href="#bq"/><use transform="matrix(0.05,0,0,0.05,32.900000000000006,0)" xlink:href="#bq"/><use transform="matrix(0.05,0,0,0.05,42.900000000000006,0)" xlink:href="#bu"/><use transform="matrix(0.05,0,0,0.05,47.900000000000006,0)" xlink:href="#bv"/></g><path d="M85-194c31 0 48 13 60 33l-1-100h32l1 261h-30c-2-10 0-23-3-31C134-8 116 4 85 4 32 4 16-35 15-94c0-66 23-100 70-100zm9 24c-40 0-46 34-46 75 0 40 6 74 45 74 42 0 51-32 51-76 0-42-9-74-50-73" id="bC"/><path d="M100-194c62-1 85 37 85 99 1 63-27 99-86 99S16-35 15-95c0-66 28-99 85-99zM99-20c44 1 53-31 53-75 0-43-8-75-51-75s-53 32-53 75 10 74 51 75" id="bD"/><g id="l"><use transform="matrix(0.05,0,0,0.05,0,0)" xlink:href="#bC"/><use transform="matrix(0.05,0,0,0.05,10,0)" xlink:href="#bD"/><use transform="matrix(0.05,0,0,0.05,20,0)" xlink:href="#bq"/><use transform="matrix(0.05,0,0,0.05,30,0)" xlink:href="#br"/></g><g id="m"><use transform="matrix(0.05,0,0,0.05,0,0)" xlink:href="#bo"/><use transform="matrix(0.05,0,0,0.05,10,0)" xlink:href="#bD"/><use transform="matrix(0.05,0,0,0.05,20,0)" xlink:href="#bu"/></g><path d="M106-169C34-169 62-67 57 0H25v-261h32l-1 103c12-21 28-36 61-36 89 0 53 116 60 194h-32v-121c2-32-8-49-39-48" id="bE"/><path d="M108 0H70L1-190h34L89-25l56-165h34" id="bF"/><g id="n"><use transform="matrix(0.05,0,0,0.05,0,0)" xlink:href="#bE"/><use transform="matrix(0.05,0,0,0.05,10,0)" xlink:href="#bx"/><use transform="matrix(0.05,0,0,0.05,20,0)" xlink:href="#bF"/><use transform="matrix(0.05,0,0,0.05,29,0)" xlink:href="#bq"/></g><g id="o"><use transform="matrix(0.05,0,0,0.05,0,0)" xlink:href="#bt"/><use transform="matrix(0.05,0,0,0.05,12.950000000000001,0)" xlink:href="#bw"/><use transform="matrix(0.05,0,0,0.05,16.900000000000002,0)" xlink:href="#bo"/><use transform="matrix(0.05,0,0,0.05,26.900000000000002,0)" xlink:href="#bz"/><use transform="matrix(0.05,0,0,0.05,36.900000000000006,0)" xlink:href="#br"/></g><path d="M136-208V0H84v-208H4v-40h212v40h-80" id="bG"/><path d="M110-194c64 0 96 36 96 99 0 64-35 99-97 99-61 0-95-36-95-99 0-62 34-99 96-99zm-1 164c35 0 45-28 45-65 0-40-10-65-43-65-34 0-45 26-45 65 0 36 10 65 43 65" id="bH"/><path d="M135-194c53 0 70 44 70 98 0 56-19 98-73 100-31 1-45-17-59-34 3 33 2 69 2 105H25l-1-265h48c2 10 0 23 3 31 11-24 29-35 60-35zM114-30c33 0 39-31 40-66 0-38-9-64-40-64-56 0-55 130 0 130" id="bI"/><g id="p"><use transform="matrix(0.05,0,0,0.05,0,0)" xlink:href="#bG"/><use transform="matrix(0.05,0,0,0.05,9.600000000000001,0)" xlink:href="#bH"/><use transform="matrix(0.05,0,0,0.05,20.550000000000004,0)" xlink:href="#bI"/></g><path d="M67-125c0 53 21 87 73 88 37 1 54-22 65-47l45 17C233-25 199 4 140 4 58 4 20-42 15-125 8-235 124-281 211-232c18 10 29 29 36 50l-46 12c-8-25-30-41-62-41-52 0-71 34-72 86" id="bJ"/><path d="M25-224v-37h50v37H25zM25 0v-190h50V0H25" id="bK"/><path d="M220-157c-53 9-28 100-34 157h-49v-107c1-27-5-49-29-50C55-147 81-57 75 0H25l-1-190h47c2 12-1 28 3 38 10-53 101-56 108 0 13-22 24-43 59-42 82 1 51 116 57 194h-49v-107c-1-25-5-48-29-50" id="bL"/><g id="q"><use transform="matrix(0.05,0,0,0.05,0,0)" xlink:href="#bJ"/><use transform="matrix(0.05,0,0,0.05,12.950000000000001,0)" xlink:href="#bj"/><use transform="matrix(0.05,0,0,0.05,17.950000000000003,0)" xlink:href="#bi"/><use transform="matrix(0.05,0,0,0.05,27.950000000000003,0)" xlink:href="#bK"/><use transform="matrix(0.05,0,0,0.05,32.95,0)" xlink:href="#bL"/></g><path d="M23 0v-37h61v-169l-59 37v-38l62-41h46v211h57V0H23" id="bM"/><g id="r"><use transform="matrix(0.05,0,0,0.05,0,0)" xlink:href="#bJ"/><use transform="matrix(0.05,0,0,0.05,12.950000000000001,0)" xlink:href="#bM"/><use transform="matrix(0.05,0,0,0.05,22.950000000000003,0)" xlink:href="#bm"/></g><g id="s"><use transform="matrix(0.05,0,0,0.05,0,0)" xlink:href="#bs"/><use transform="matrix(0.05,0,0,0.05,9.950000000000001,0)" xlink:href="#bt"/><use transform="matrix(0.05,0,0,0.05,22.900000000000002,0)" xlink:href="#bq"/><use transform="matrix(0.05,0,0,0.05,32.900000000000006,0)" xlink:href="#bq"/><use transform="matrix(0.05,0,0,0.05,42.900000000000006,0)" xlink:href="#bu"/><use transform="matrix(0.05,0,0,0.05,47.900000000000006,0)" xlink:href="#bv"/></g><path d="M96-169c-40 0-48 33-48 73s9 75 48 75c24 0 41-14 43-38l32 2c-6 37-31 61-74 61-59 0-76-41-82-99-10-93 101-131 147-64 4 7 5 14 7 22l-32 3c-4-21-16-35-41-35" id="bN"/><g id="t"><use transform="matrix(0.05,0,0,0.05,0,0)" xlink:href="#bN"/><use transform="matrix(0.05,0,0,0.05,9,0)" xlink:href="#bx"/><use transform="matrix(0.05,0,0,0.05,19,0)" xlink:href="#bo"/></g><path d="M63-220v92h138v28H63V0H30v-248h175v28H63" id="bO"/><g id="u"><use transform="matrix(0.05,0,0,0.05,0,0)" xlink:href="#bO"/><use transform="matrix(0.05,0,0,0.05,10.950000000000001,0)" xlink:href="#bp"/><use transform="matrix(0.05,0,0,0.05,14.9,0)" xlink:href="#bv"/></g><g id="v"><use transform="matrix(0.05,0,0,0.05,0,0)" xlink:href="#bJ"/><use transform="matrix(0.05,0,0,0.05,12.950000000000001,0)" xlink:href="#bj"/><use transform="matrix(0.05,0,0,0.05,17.950000000000003,0)" xlink:href="#bi"/><use transform="matrix(0.05,0,0,0.05,27.950000000000003,0)" xlink:href="#bK"/><use transform="matrix(0.05,0,0,0.05,32.95,0)" xlink:href="#bL"/></g><path d="M182-182c0 78-84 86-111 141h115V0H12c-6-101 99-100 120-180 1-22-12-31-33-32-23 0-32 14-35 34l-49-3c5-45 32-70 84-70 51 0 83 22 83 69" id="bP"/><path d="M35-132v-50h50v50H35zM35 0v-49h50V0H35" id="bQ"/><g id="w"><use transform="matrix(0.05,0,0,0.05,0,0)" xlink:href="#bJ"/><use transform="matrix(0.05,0,0,0.05,12.950000000000001,0)" xlink:href="#bP"/><use transform="matrix(0.05,0,0,0.05,22.950000000000003,0)" xlink:href="#bQ"/></g><g id="x"><use transform="matrix(0.05,0,0,0.05,0,0)" xlink:href="#bs"/><use transform="matrix(0.05,0,0,0.05,9.950000000000001,0)" xlink:href="#bt"/><use transform="matrix(0.05,0,0,0.05,22.900000000000002,0)" xlink:href="#bq"/><use transform="matrix(0.05,0,0,0.05,32.900000000000006,0)" xlink:href="#bq"/><use transform="matrix(0.05,0,0,0.05,42.900000000000006,0)" xlink:href="#bu"/><use transform="matrix(0.05,0,0,0.05,47.900000000000006,0)" xlink:href="#bv"/></g><g id="y"><use transform="matrix(0.05,0,0,0.05,0,0)" xlink:href="#bw"/><use transform="matrix(0.05,0,0,0.05,3.95,0)" xlink:href="#br"/></g><use transform="matrix(0.05,0,0,0.05,0,0)" xlink:href="#bx" id="z"/><path d="M210-169c-67 3-38 105-44 169h-31v-121c0-29-5-50-35-48C34-165 62-65 56 0H25l-1-190h30c1 10-1 24 2 32 10-44 99-50 107 0 11-21 27-35 58-36 85-2 47 119 55 194h-31v-121c0-29-5-49-35-48" id="bR"/><path d="M115-194c53 0 69 39 70 98 0 66-23 100-70 100C84 3 66-7 56-30L54 0H23l1-261h32v101c10-23 28-34 59-34zm-8 174c40 0 45-34 45-75 0-40-5-75-45-74-42 0-51 32-51 76 0 43 10 73 51 73" id="bS"/><path d="M114-163C36-179 61-72 57 0H25l-1-190h30c1 12-1 29 2 39 6-27 23-49 58-41v29" id="bT"/><g id="A"><use transform="matrix(0.05,0,0,0.05,0,0)" xlink:href="#bR"/><use transform="matrix(0.05,0,0,0.05,14.950000000000001,0)" xlink:href="#bq"/><use transform="matrix(0.05,0,0,0.05,24.950000000000003,0)" xlink:href="#bR"/><use transform="matrix(0.05,0,0,0.05,39.900000000000006,0)" xlink:href="#bS"/><use transform="matrix(0.05,0,0,0.05,49.900000000000006,0)" xlink:href="#bq"/><use transform="matrix(0.05,0,0,0.05,59.900000000000006,0)" xlink:href="#bT"/></g><path d="M101-234c-31-9-42 10-38 44h38v23H63V0H32v-167H5v-23h27c-7-52 17-82 69-68v24" id="bU"/><g id="B"><use transform="matrix(0.05,0,0,0.05,0,0)" xlink:href="#bD"/><use transform="matrix(0.05,0,0,0.05,10,0)" xlink:href="#bU"/></g><g id="C"><use transform="matrix(0.05,0,0,0.05,0,0)" xlink:href="#bu"/><use transform="matrix(0.05,0,0,0.05,5,0)" xlink:href="#bE"/><use transform="matrix(0.05,0,0,0.05,15,0)" xlink:href="#bq"/></g><g id="D"><use transform="matrix(0.05,0,0,0.05,0,0)" xlink:href="#bU"/><use transform="matrix(0.05,0,0,0.05,5,0)" xlink:href="#bp"/><use transform="matrix(0.05,0,0,0.05,8.95,0)" xlink:href="#bv"/><use transform="matrix(0.05,0,0,0.05,17.95,0)" xlink:href="#bw"/><use transform="matrix(0.05,0,0,0.05,21.9,0)" xlink:href="#bo"/><use transform="matrix(0.05,0,0,0.05,31.899999999999995,0)" xlink:href="#bz"/></g><g id="E"><use transform="matrix(0.05,0,0,0.05,0,0)" xlink:href="#bS"/><use transform="matrix(0.05,0,0,0.05,10,0)" xlink:href="#bw"/><use transform="matrix(0.05,0,0,0.05,13.949999999999998,0)" xlink:href="#bT"/><use transform="matrix(0.05,0,0,0.05,19.9,0)" xlink:href="#bC"/><use transform="matrix(0.05,0,0,0.05,29.899999999999995,0)" xlink:href="#br"/></g><path d="M115-194c55 1 70 41 70 98S169 2 115 4C84 4 66-9 55-30l1 105H24l-1-265h31l2 30c10-21 28-34 59-34zm-8 174c40 0 45-34 45-75s-6-73-45-74c-42 0-51 32-51 76 0 43 10 73 51 73" id="bV"/><g id="F"><use transform="matrix(0.05,0,0,0.05,0,0)" xlink:href="#br"/><use transform="matrix(0.05,0,0,0.05,9,0)" xlink:href="#bV"/><use transform="matrix(0.05,0,0,0.05,19,0)" xlink:href="#bw"/><use transform="matrix(0.05,0,0,0.05,22.95,0)" xlink:href="#bN"/><use transform="matrix(0.05,0,0,0.05,31.950000000000003,0)" xlink:href="#bq"/><use transform="matrix(0.05,0,0,0.05,41.95,0)" xlink:href="#br"/></g><g id="G"><use transform="matrix(0.05,0,0,0.05,0,0)" xlink:href="#bx"/><use transform="matrix(0.05,0,0,0.05,10,0)" xlink:href="#bo"/></g><g id="H"><use transform="matrix(0.05,0,0,0.05,0,0)" xlink:href="#bx"/><use transform="matrix(0.05,0,0,0.05,10,0)" xlink:href="#bC"/><use transform="matrix(0.05,0,0,0.05,20,0)" xlink:href="#bA"/><use transform="matrix(0.05,0,0,0.05,30,0)" xlink:href="#bp"/><use transform="matrix(0.05,0,0,0.05,33.95,0)" xlink:href="#bu"/></g><g id="I"><use transform="matrix(0.05,0,0,0.05,0,0)" xlink:href="#bJ"/><use transform="matrix(0.05,0,0,0.05,12.950000000000001,0)" xlink:href="#bj"/><use transform="matrix(0.05,0,0,0.05,17.950000000000003,0)" xlink:href="#bi"/><use transform="matrix(0.05,0,0,0.05,27.950000000000003,0)" xlink:href="#bK"/><use transform="matrix(0.05,0,0,0.05,32.95,0)" xlink:href="#bL"/></g><g id="J"><use transform="matrix(0.05,0,0,0.05,0,0)" xlink:href="#bJ"/><use transform="matrix(0.05,0,0,0.05,12.950000000000001,0)" xlink:href="#bP"/><use transform="matrix(0.05,0,0,0.05,22.950000000000003,0)" xlink:href="#bQ"/></g><g id="K"><use transform="matrix(0.05,0,0,0.05,0,0)" xlink:href="#bs"/><use transform="matrix(0.05,0,0,0.05,9.950000000000001,0)" xlink:href="#bt"/><use transform="matrix(0.05,0,0,0.05,22.900000000000002,0)" xlink:href="#bq"/><use transform="matrix(0.05,0,0,0.05,32.900000000000006,0)" xlink:href="#bq"/><use transform="matrix(0.05,0,0,0.05,42.900000000000006,0)" xlink:href="#bu"/><use transform="matrix(0.05,0,0,0.05,47.900000000000006,0)" xlink:href="#bv"/></g><g id="L"><use transform="matrix(0.05,0,0,0.05,0,0)" xlink:href="#bw"/><use transform="matrix(0.05,0,0,0.05,3.95,0)" xlink:href="#br"/></g><use transform="matrix(0.05,0,0,0.05,0,0)" xlink:href="#bx" id="M"/><g id="N"><use transform="matrix(0.05,0,0,0.05,0,0)" xlink:href="#bt"/><use transform="matrix(0.05,0,0,0.05,12.950000000000001,0)" xlink:href="#bw"/><use transform="matrix(0.05,0,0,0.05,16.900000000000002,0)" xlink:href="#bo"/><use transform="matrix(0.05,0,0,0.05,26.900000000000002,0)" xlink:href="#bz"/><use transform="matrix(0.05,0,0,0.05,36.900000000000006,0)" xlink:href="#bq"/><use transform="matrix(0.05,0,0,0.05,46.900000000000006,0)" xlink:href="#bC"/></g><g id="O"><use transform="matrix(0.05,0,0,0.05,0,0)" xlink:href="#bS"/><use transform="matrix(0.05,0,0,0.05,10,0)" xlink:href="#bw"/><use transform="matrix(0.05,0,0,0.05,13.949999999999998,0)" xlink:href="#bT"/><use transform="matrix(0.05,0,0,0.05,19.9,0)" xlink:href="#bC"/></g><path d="M24 0v-248h195v40H76v63h132v40H76v65h150V0H24" id="bW"/><path d="M128 0H69L1-190h53L99-40l48-150h52" id="bX"/><path d="M88-194c31-1 46 15 58 34l-1-101h50l1 261h-48c-2-10 0-23-3-31C134-8 116 4 84 4 32 4 16-41 15-95c0-56 19-97 73-99zm17 164c33 0 40-30 41-66 1-37-9-64-41-64s-38 30-39 65c0 43 13 65 39 65" id="bY"/><path d="M135-194c87-1 58 113 63 194h-50c-7-57 23-157-34-157-59 0-34 97-39 157H25l-1-190h47c2 12-1 28 3 38 12-26 28-41 61-42" id="bZ"/><path d="M190-63c-7 42-38 67-86 67-59 0-84-38-90-98-12-110 154-137 174-36l-49 2c-2-19-15-32-35-32-30 0-35 28-38 64-6 74 65 87 74 30" id="ca"/><g id="P"><use transform="matrix(0.05,0,0,0.05,0,0)" xlink:href="#bW"/><use transform="matrix(0.05,0,0,0.05,12,0)" xlink:href="#bX"/><use transform="matrix(0.05,0,0,0.05,22,0)" xlink:href="#bK"/><use transform="matrix(0.05,0,0,0.05,27,0)" xlink:href="#bY"/><use transform="matrix(0.05,0,0,0.05,37.95,0)" xlink:href="#be"/><use transform="matrix(0.05,0,0,0.05,47.95,0)" xlink:href="#bZ"/><use transform="matrix(0.05,0,0,0.05,58.900000000000006,0)" xlink:href="#ca"/><use transform="matrix(0.05,0,0,0.05,68.9,0)" xlink:href="#be"/><use transform="matrix(0.05,0,0,0.05,78.9,0)" xlink:href="#bm"/></g><path d="M47-170H22l-4-78h33" id="cb"/><g id="Q"><use transform="matrix(0.05,0,0,0.05,0,0)" xlink:href="#bs"/><use transform="matrix(0.05,0,0,0.05,9.950000000000001,0)" xlink:href="#bt"/><use transform="matrix(0.05,0,0,0.05,22.900000000000002,0)" xlink:href="#bq"/><use transform="matrix(0.05,0,0,0.05,32.900000000000006,0)" xlink:href="#bq"/><use transform="matrix(0.05,0,0,0.05,42.900000000000006,0)" xlink:href="#bu"/><use transform="matrix(0.05,0,0,0.05,47.900000000000006,0)" xlink:href="#bv"/><use transform="matrix(0.05,0,0,0.05,56.900000000000006,0)" xlink:href="#cb"/><use transform="matrix(0.05,0,0,0.05,60.300000000000004,0)" xlink:href="#br"/></g><path d="M30-248c118-7 216 8 213 122C240-48 200 0 122 0H30v-248zM63-27c89 8 146-16 146-99s-60-101-146-95v194" id="cc"/><path d="M190 0L58-211 59 0H30v-248h39L202-35l-2-213h31V0h-41" id="cd"/><path d="M205 0l-28-72H64L36 0H1l101-248h38L239 0h-34zm-38-99l-47-123c-12 45-31 82-46 123h93" id="ce"/><g id="R"><use transform="matrix(0.05,0,0,0.05,0,0)" xlink:href="#cc"/><use transform="matrix(0.05,0,0,0.05,12.950000000000001,0)" xlink:href="#cd"/><use transform="matrix(0.05,0,0,0.05,25.900000000000002,0)" xlink:href="#ce"/></g><g id="S"><use transform="matrix(0.05,0,0,0.05,0,0)" xlink:href="#bs"/><use transform="matrix(0.05,0,0,0.05,8.950000000000001,0)" xlink:href="#bq"/><use transform="matrix(0.05,0,0,0.05,18.950000000000003,0)" xlink:href="#br"/><use transform="matrix(0.05,0,0,0.05,27.950000000000003,0)" xlink:href="#bu"/></g><g id="T"><use transform="matrix(0.05,0,0,0.05,0,0)" xlink:href="#bk"/><use transform="matrix(0.05,0,0,0.05,12.950000000000001,0)" xlink:href="#bq"/><use transform="matrix(0.05,0,0,0.05,22.950000000000003,0)" xlink:href="#br"/><use transform="matrix(0.05,0,0,0.05,31.950000000000003,0)" xlink:href="#bA"/><use transform="matrix(0.05,0,0,0.05,41.95,0)" xlink:href="#bp"/><use transform="matrix(0.05,0,0,0.05,45.900000000000006,0)" xlink:href="#bu"/><use transform="matrix(0.05,0,0,0.05,50.900000000000006,0)" xlink:href="#br"/></g><g id="U"><use transform="matrix(0.05,0,0,0.05,0,0)" xlink:href="#bE"/><use transform="matrix(0.05,0,0,0.05,10,0)" xlink:href="#bx"/><use transform="matrix(0.05,0,0,0.05,20,0)" xlink:href="#bo"/><use transform="matrix(0.05,0,0,0.05,30,0)" xlink:href="#bC"/><use transform="matrix(0.05,0,0,0.05,40,0)" xlink:href="#bw"/><use transform="matrix(0.05,0,0,0.05,43.95,0)" xlink:href="#bN"/><use transform="matrix(0.05,0,0,0.05,52.95,0)" xlink:href="#bx"/><use transform="matrix(0.05,0,0,0.05,62.95,0)" xlink:href="#bV"/><use transform="matrix(0.05,0,0,0.05,72.95,0)" xlink:href="#bV"/><use transform="matrix(0.05,0,0,0.05,82.95,0)" xlink:href="#bq"/><use transform="matrix(0.05,0,0,0.05,92.95,0)" xlink:href="#bC"/></g><g id="V"><use transform="matrix(0.05,0,0,0.05,0,0)" xlink:href="#bJ"/><use transform="matrix(0.05,0,0,0.05,12.950000000000001,0)" xlink:href="#bj"/><use transform="matrix(0.05,0,0,0.05,17.950000000000003,0)" xlink:href="#bi"/><use transform="matrix(0.05,0,0,0.05,27.950000000000003,0)" xlink:href="#bK"/><use transform="matrix(0.05,0,0,0.05,32.95,0)" xlink:href="#bL"/><use transform="matrix(0.05,0,0,0.05,48.95,0)" xlink:href="#bQ"/></g><g id="W"><use transform="matrix(0.05,0,0,0.05,0,0)" xlink:href="#bw"/><use transform="matrix(0.05,0,0,0.05,3.95,0)" xlink:href="#br"/></g><g id="X"><use transform="matrix(0.05,0,0,0.05,0,0)" xlink:href="#bV"/><use transform="matrix(0.05,0,0,0.05,10,0)" xlink:href="#bE"/><use transform="matrix(0.05,0,0,0.05,20,0)" xlink:href="#bv"/><use transform="matrix(0.05,0,0,0.05,29,0)" xlink:href="#br"/><use transform="matrix(0.05,0,0,0.05,38,0)" xlink:href="#bw"/><use transform="matrix(0.05,0,0,0.05,41.95,0)" xlink:href="#bN"/><use transform="matrix(0.05,0,0,0.05,50.95,0)" xlink:href="#bx"/><use transform="matrix(0.05,0,0,0.05,60.95,0)" xlink:href="#bp"/><use transform="matrix(0.05,0,0,0.05,64.9,0)" xlink:href="#bp"/><use transform="matrix(0.05,0,0,0.05,68.85000000000001,0)" xlink:href="#bv"/></g><g id="Y"><use transform="matrix(0.05,0,0,0.05,0,0)" xlink:href="#bx"/><use transform="matrix(0.05,0,0,0.05,10,0)" xlink:href="#bS"/><use transform="matrix(0.05,0,0,0.05,20,0)" xlink:href="#bp"/><use transform="matrix(0.05,0,0,0.05,23.95,0)" xlink:href="#bq"/></g><g id="Z"><use transform="matrix(0.05,0,0,0.05,0,0)" xlink:href="#bW"/><use transform="matrix(0.05,0,0,0.05,12,0)" xlink:href="#bX"/><use transform="matrix(0.05,0,0,0.05,22,0)" xlink:href="#bK"/><use transform="matrix(0.05,0,0,0.05,27,0)" xlink:href="#bY"/><use transform="matrix(0.05,0,0,0.05,37.95,0)" xlink:href="#be"/><use transform="matrix(0.05,0,0,0.05,47.95,0)" xlink:href="#bZ"/><use transform="matrix(0.05,0,0,0.05,58.900000000000006,0)" xlink:href="#ca"/><use transform="matrix(0.05,0,0,0.05,68.9,0)" xlink:href="#be"/><use transform="matrix(0.05,0,0,0.05,78.9,0)" xlink:href="#bm"/></g><g id="aa"><use transform="matrix(0.05,0,0,0.05,0,0)" xlink:href="#by"/><use transform="matrix(0.05,0,0,0.05,12,0)" xlink:href="#bE"/><use transform="matrix(0.05,0,0,0.05,22,0)" xlink:href="#bv"/><use transform="matrix(0.05,0,0,0.05,31,0)" xlink:href="#br"/><use transform="matrix(0.05,0,0,0.05,40,0)" xlink:href="#bw"/><use transform="matrix(0.05,0,0,0.05,43.95,0)" xlink:href="#bN"/><use transform="matrix(0.05,0,0,0.05,52.95,0)" xlink:href="#bx"/><use transform="matrix(0.05,0,0,0.05,62.95,0)" xlink:href="#bp"/></g><g id="ab"><use transform="matrix(0.05,0,0,0.05,0,0)" xlink:href="#bu"/><use transform="matrix(0.05,0,0,0.05,5,0)" xlink:href="#bq"/><use transform="matrix(0.05,0,0,0.05,15,0)" xlink:href="#br"/><use transform="matrix(0.05,0,0,0.05,24,0)" xlink:href="#bu"/></g><g id="ac"><use transform="matrix(0.05,0,0,0.05,0,0)" xlink:href="#bT"/><use transform="matrix(0.05,0,0,0.05,5.95,0)" xlink:href="#bq"/><use transform="matrix(0.05,0,0,0.05,15.949999999999998,0)" xlink:href="#bV"/><use transform="matrix(0.05,0,0,0.05,25.950000000000003,0)" xlink:href="#bD"/><use transform="matrix(0.05,0,0,0.05,35.95,0)" xlink:href="#bT"/><use transform="matrix(0.05,0,0,0.05,41.900000000000006,0)" xlink:href="#bu"/></g><path d="M238-95c0 69-44 99-111 99C63 4 22-25 22-93v-155h51v151c-1 38 19 59 55 60 90 1 49-130 58-211h52v153" id="cf"/><path d="M135-150c-39-12-60 13-60 57V0H25l-1-190h47c2 13-1 29 3 40 6-28 27-53 61-41v41" id="cg"/><g id="ae"><use transform="matrix(0.05,0,0,0.05,0,0)" xlink:href="#cf"/><use transform="matrix(0.05,0,0,0.05,12.950000000000001,0)" xlink:href="#bZ"/><use transform="matrix(0.05,0,0,0.05,23.900000000000002,0)" xlink:href="#bY"/><use transform="matrix(0.05,0,0,0.05,34.85,0)" xlink:href="#be"/><use transform="matrix(0.05,0,0,0.05,44.85,0)" xlink:href="#cg"/><use transform="matrix(0.05,0,0,0.05,51.85,0)" xlink:href="#bL"/><use transform="matrix(0.05,0,0,0.05,67.85,0)" xlink:href="#bK"/><use transform="matrix(0.05,0,0,0.05,72.85,0)" xlink:href="#bZ"/><use transform="matrix(0.05,0,0,0.05,83.8,0)" xlink:href="#be"/><use transform="matrix(0.05,0,0,0.05,93.8,0)" xlink:href="#bQ"/></g><g id="af"><use transform="matrix(0.05,0,0,0.05,0,0)" xlink:href="#bn"/><use transform="matrix(0.05,0,0,0.05,12.950000000000001,0)" xlink:href="#bo"/><use transform="matrix(0.05,0,0,0.05,22.950000000000003,0)" xlink:href="#bp"/><use transform="matrix(0.05,0,0,0.05,26.900000000000002,0)" xlink:href="#bq"/><use transform="matrix(0.05,0,0,0.05,36.900000000000006,0)" xlink:href="#br"/><use transform="matrix(0.05,0,0,0.05,45.900000000000006,0)" xlink:href="#br"/></g><g id="ag"><use transform="matrix(0.05,0,0,0.05,0,0)" xlink:href="#bu"/><use transform="matrix(0.05,0,0,0.05,5,0)" xlink:href="#bE"/><use transform="matrix(0.05,0,0,0.05,15,0)" xlink:href="#bq"/></g><g id="ah"><use transform="matrix(0.05,0,0,0.05,0,0)" xlink:href="#cc"/><use transform="matrix(0.05,0,0,0.05,12.950000000000001,0)" xlink:href="#cd"/><use transform="matrix(0.05,0,0,0.05,25.900000000000002,0)" xlink:href="#ce"/></g><g id="ai"><use transform="matrix(0.05,0,0,0.05,0,0)" xlink:href="#bu"/><use transform="matrix(0.05,0,0,0.05,5,0)" xlink:href="#bq"/><use transform="matrix(0.05,0,0,0.05,15,0)" xlink:href="#br"/><use transform="matrix(0.05,0,0,0.05,24,0)" xlink:href="#bu"/></g><g id="aj"><use transform="matrix(0.05,0,0,0.05,0,0)" xlink:href="#bt"/><use transform="matrix(0.05,0,0,0.05,12.950000000000001,0)" xlink:href="#bx"/><use transform="matrix(0.05,0,0,0.05,22.950000000000003,0)" xlink:href="#br"/></g><g id="ak"><use transform="matrix(0.05,0,0,0.05,0,0)" xlink:href="#bN"/><use transform="matrix(0.05,0,0,0.05,9,0)" xlink:href="#bD"/><use transform="matrix(0.05,0,0,0.05,19,0)" xlink:href="#bo"/><use transform="matrix(0.05,0,0,0.05,29,0)" xlink:href="#bu"/><use transform="matrix(0.05,0,0,0.05,34,0)" xlink:href="#bx"/><use transform="matrix(0.05,0,0,0.05,44,0)" xlink:href="#bR"/><use transform="matrix(0.05,0,0,0.05,58.95,0)" xlink:href="#bw"/><use transform="matrix(0.05,0,0,0.05,62.900000000000006,0)" xlink:href="#bo"/><use transform="matrix(0.05,0,0,0.05,72.9,0)" xlink:href="#bx"/><use transform="matrix(0.05,0,0,0.05,82.9,0)" xlink:href="#bu"/><use transform="matrix(0.05,0,0,0.05,87.9,0)" xlink:href="#bq"/><use transform="matrix(0.05,0,0,0.05,97.9,0)" xlink:href="#bC"/></g><g id="al"><use transform="matrix(0.05,0,0,0.05,0,0)" xlink:href="#bs"/><use transform="matrix(0.05,0,0,0.05,10.950000000000001,0)" xlink:href="#bE"/><use transform="matrix(0.05,0,0,0.05,20.950000000000003,0)" xlink:href="#bq"/></g><g id="am"><use transform="matrix(0.05,0,0,0.05,0,0)" xlink:href="#br"/><use transform="matrix(0.05,0,0,0.05,9,0)" xlink:href="#bx"/><use transform="matrix(0.05,0,0,0.05,19,0)" xlink:href="#bR"/><use transform="matrix(0.05,0,0,0.05,33.95,0)" xlink:href="#bV"/><use transform="matrix(0.05,0,0,0.05,43.95,0)" xlink:href="#bp"/><use transform="matrix(0.05,0,0,0.05,47.900000000000006,0)" xlink:href="#bq"/></g><g id="an"><use transform="matrix(0.05,0,0,0.05,0,0)" xlink:href="#bE"/><use transform="matrix(0.05,0,0,0.05,10,0)" xlink:href="#bx"/><use transform="matrix(0.05,0,0,0.05,20,0)" xlink:href="#bC"/></g><g id="ao"><use transform="matrix(0.05,0,0,0.05,0,0)" xlink:href="#bo"/><use transform="matrix(0.05,0,0,0.05,10,0)" xlink:href="#bD"/></g><path d="M16-82v-28h88v28H16" id="ch"/><g id="ap"><use transform="matrix(0.05,0,0,0.05,0,0)" xlink:href="#bN"/><use transform="matrix(0.05,0,0,0.05,9,0)" xlink:href="#bT"/><use transform="matrix(0.05,0,0,0.05,14.949999999999998,0)" xlink:href="#bD"/><use transform="matrix(0.05,0,0,0.05,24.95,0)" xlink:href="#br"/><use transform="matrix(0.05,0,0,0.05,33.95,0)" xlink:href="#br"/><use transform="matrix(0.05,0,0,0.05,42.95,0)" xlink:href="#ch"/><use transform="matrix(0.05,0,0,0.05,48.900000000000006,0)" xlink:href="#bN"/><use transform="matrix(0.05,0,0,0.05,57.900000000000006,0)" xlink:href="#bD"/><use transform="matrix(0.05,0,0,0.05,67.9,0)" xlink:href="#bo"/><use transform="matrix(0.05,0,0,0.05,77.9,0)" xlink:href="#bu"/><use transform="matrix(0.05,0,0,0.05,82.9,0)" xlink:href="#bx"/><use transform="matrix(0.05,0,0,0.05,92.9,0)" xlink:href="#bR"/><use transform="matrix(0.05,0,0,0.05,107.85000000000001,0)" xlink:href="#bw"/><use transform="matrix(0.05,0,0,0.05,111.80000000000001,0)" xlink:href="#bo"/><use transform="matrix(0.05,0,0,0.05,121.80000000000001,0)" xlink:href="#bx"/><use transform="matrix(0.05,0,0,0.05,131.8,0)" xlink:href="#bu"/><use transform="matrix(0.05,0,0,0.05,136.8,0)" xlink:href="#bw"/><use transform="matrix(0.05,0,0,0.05,140.75,0)" xlink:href="#bD"/><use transform="matrix(0.05,0,0,0.05,150.75,0)" xlink:href="#bo"/></g><g id="aq"><use transform="matrix(0.05,0,0,0.05,0,0)" xlink:href="#bC"/><use transform="matrix(0.05,0,0,0.05,10,0)" xlink:href="#bA"/><use transform="matrix(0.05,0,0,0.05,20,0)" xlink:href="#bT"/><use transform="matrix(0.05,0,0,0.05,25.950000000000003,0)" xlink:href="#bw"/><use transform="matrix(0.05,0,0,0.05,29.899999999999995,0)" xlink:href="#bo"/><use transform="matrix(0.05,0,0,0.05,39.9,0)" xlink:href="#bz"/></g><g id="ar"><use transform="matrix(0.05,0,0,0.05,0,0)" xlink:href="#bu"/><use transform="matrix(0.05,0,0,0.05,5,0)" xlink:href="#bq"/><use transform="matrix(0.05,0,0,0.05,15,0)" xlink:href="#br"/><use transform="matrix(0.05,0,0,0.05,24,0)" xlink:href="#bu"/></g><g id="as"><use transform="matrix(0.05,0,0,0.05,0,0)" xlink:href="#bW"/><use transform="matrix(0.05,0,0,0.05,12,0)" xlink:href="#bX"/><use transform="matrix(0.05,0,0,0.05,22,0)" xlink:href="#bK"/><use transform="matrix(0.05,0,0,0.05,27,0)" xlink:href="#bY"/><use transform="matrix(0.05,0,0,0.05,37.95,0)" xlink:href="#be"/><use transform="matrix(0.05,0,0,0.05,47.95,0)" xlink:href="#bZ"/><use transform="matrix(0.05,0,0,0.05,58.900000000000006,0)" xlink:href="#ca"/><use transform="matrix(0.05,0,0,0.05,68.9,0)" xlink:href="#be"/><use transform="matrix(0.05,0,0,0.05,78.9,0)" xlink:href="#bm"/></g><path d="M30 0v-248h33v221h125V0H30" id="ci"/><g id="at"><use transform="matrix(0.05,0,0,0.05,0,0)" xlink:href="#ci"/><use transform="matrix(0.05,0,0,0.05,10,0)" xlink:href="#bx"/><use transform="matrix(0.05,0,0,0.05,20,0)" xlink:href="#bS"/></g><g id="au"><use transform="matrix(0.05,0,0,0.05,0,0)" xlink:href="#by"/><use transform="matrix(0.05,0,0,0.05,12,0)" xlink:href="#bT"/><use transform="matrix(0.05,0,0,0.05,17.95,0)" xlink:href="#bD"/><use transform="matrix(0.05,0,0,0.05,27.950000000000003,0)" xlink:href="#bN"/><use transform="matrix(0.05,0,0,0.05,36.95,0)" xlink:href="#bq"/><use transform="matrix(0.05,0,0,0.05,46.95,0)" xlink:href="#bC"/><use transform="matrix(0.05,0,0,0.05,56.95,0)" xlink:href="#bA"/><use transform="matrix(0.05,0,0,0.05,66.95,0)" xlink:href="#bT"/><use transform="matrix(0.05,0,0,0.05,72.9,0)" xlink:href="#bq"/><use transform="matrix(0.05,0,0,0.05,82.9,0)" xlink:href="#br"/></g><path d="M144 0l-44-69L55 0H2l70-98-66-92h53l41 62 40-62h54l-67 91 71 99h-54" id="cj"/><g id="av"><use transform="matrix(0.05,0,0,0.05,0,0)" xlink:href="#bJ"/><use transform="matrix(0.05,0,0,0.05,12.950000000000001,0)" xlink:href="#bH"/><use transform="matrix(0.05,0,0,0.05,23.900000000000002,0)" xlink:href="#bZ"/><use transform="matrix(0.05,0,0,0.05,34.85,0)" xlink:href="#bh"/><use transform="matrix(0.05,0,0,0.05,40.800000000000004,0)" xlink:href="#be"/><use transform="matrix(0.05,0,0,0.05,50.800000000000004,0)" xlink:href="#cj"/><use transform="matrix(0.05,0,0,0.05,60.800000000000004,0)" xlink:href="#bh"/><use transform="matrix(0.05,0,0,0.05,66.75,0)" xlink:href="#bQ"/></g><g id="aw"><use transform="matrix(0.05,0,0,0.05,0,0)" xlink:href="#bs"/><use transform="matrix(0.05,0,0,0.05,9.950000000000001,0)" xlink:href="#bt"/><use transform="matrix(0.05,0,0,0.05,22.900000000000002,0)" xlink:href="#bq"/><use transform="matrix(0.05,0,0,0.05,32.900000000000006,0)" xlink:href="#bq"/><use transform="matrix(0.05,0,0,0.05,42.900000000000006,0)" xlink:href="#bu"/><use transform="matrix(0.05,0,0,0.05,47.900000000000006,0)" xlink:href="#bv"/></g><g id="ax"><use transform="matrix(0.05,0,0,0.05,0,0)" xlink:href="#bw"/><use transform="matrix(0.05,0,0,0.05,3.95,0)" xlink:href="#br"/></g><g id="ay"><use transform="matrix(0.05,0,0,0.05,0,0)" xlink:href="#bx"/><use transform="matrix(0.05,0,0,0.05,10,0)" xlink:href="#bo"/></g><g id="az"><use transform="matrix(0.05,0,0,0.05,0,0)" xlink:href="#bx"/><use transform="matrix(0.05,0,0,0.05,10,0)" xlink:href="#bo"/><use transform="matrix(0.05,0,0,0.05,20,0)" xlink:href="#bw"/><use transform="matrix(0.05,0,0,0.05,23.95,0)" xlink:href="#bR"/><use transform="matrix(0.05,0,0,0.05,38.9,0)" xlink:href="#bx"/><use transform="matrix(0.05,0,0,0.05,48.9,0)" xlink:href="#bp"/></g><path d="M24 0v-248h52V0H24" id="ck"/><path d="M121-226c-27-7-43 5-38 36h38v33H83V0H34v-157H6v-33h28c-9-59 32-81 87-68v32" id="cl"/><g id="aA"><use transform="matrix(0.05,0,0,0.05,0,0)" xlink:href="#ck"/><use transform="matrix(0.05,0,0,0.05,5,0)" xlink:href="#bZ"/><use transform="matrix(0.05,0,0,0.05,15.950000000000001,0)" xlink:href="#cl"/><use transform="matrix(0.05,0,0,0.05,21.900000000000002,0)" xlink:href="#be"/><use transform="matrix(0.05,0,0,0.05,31.900000000000002,0)" xlink:href="#cg"/><use transform="matrix(0.05,0,0,0.05,38.900000000000006,0)" xlink:href="#be"/><use transform="matrix(0.05,0,0,0.05,48.900000000000006,0)" xlink:href="#bZ"/><use transform="matrix(0.05,0,0,0.05,59.85,0)" xlink:href="#ca"/><use transform="matrix(0.05,0,0,0.05,69.85000000000001,0)" xlink:href="#be"/></g><g id="aB"><use transform="matrix(0.05,0,0,0.05,0,0)" xlink:href="#bd"/><use transform="matrix(0.05,0,0,0.05,12.950000000000001,0)" xlink:href="#bg"/><use transform="matrix(0.05,0,0,0.05,23.900000000000002,0)" xlink:href="#bj"/><use transform="matrix(0.05,0,0,0.05,28.900000000000002,0)" xlink:href="#be"/><use transform="matrix(0.05,0,0,0.05,38.900000000000006,0)" xlink:href="#bQ"/></g><path d="M33 0v-248h34V0H33" id="cm"/><g id="aC"><use transform="matrix(0.05,0,0,0.05,0,0)" xlink:href="#cm"/><use transform="matrix(0.05,0,0,0.05,5,0)" xlink:href="#bU"/></g><g id="aD"><use transform="matrix(0.05,0,0,0.05,0,0)" xlink:href="#bu"/><use transform="matrix(0.05,0,0,0.05,5,0)" xlink:href="#bt"/><use transform="matrix(0.05,0,0,0.05,17.950000000000003,0)" xlink:href="#bq"/><use transform="matrix(0.05,0,0,0.05,27.950000000000003,0)" xlink:href="#bq"/><use transform="matrix(0.05,0,0,0.05,37.95,0)" xlink:href="#bu"/><use transform="matrix(0.05,0,0,0.05,42.95,0)" xlink:href="#bv"/></g><use transform="matrix(0.05,0,0,0.05,0,0)" xlink:href="#bx" id="aE"/><g id="aF"><use transform="matrix(0.05,0,0,0.05,0,0)" xlink:href="#bS"/><use transform="matrix(0.05,0,0,0.05,10,0)" xlink:href="#bw"/><use transform="matrix(0.05,0,0,0.05,13.949999999999998,0)" xlink:href="#bT"/><use transform="matrix(0.05,0,0,0.05,19.9,0)" xlink:href="#bC"/></g><g id="aG"><use transform="matrix(0.05,0,0,0.05,0,0)" xlink:href="#bu"/><use transform="matrix(0.05,0,0,0.05,5,0)" xlink:href="#bE"/><use transform="matrix(0.05,0,0,0.05,15,0)" xlink:href="#bq"/><use transform="matrix(0.05,0,0,0.05,25,0)" xlink:href="#bo"/></g><g id="aH"><use transform="matrix(0.05,0,0,0.05,0,0)" xlink:href="#bw"/><use transform="matrix(0.05,0,0,0.05,3.95,0)" xlink:href="#bu"/></g><g id="aI"><use transform="matrix(0.05,0,0,0.05,0,0)" xlink:href="#bU"/><use transform="matrix(0.05,0,0,0.05,5,0)" xlink:href="#bp"/><use transform="matrix(0.05,0,0,0.05,8.95,0)" xlink:href="#bv"/></g><g id="aJ"><use transform="matrix(0.05,0,0,0.05,0,0)" xlink:href="#cm"/><use transform="matrix(0.05,0,0,0.05,5,0)" xlink:href="#bU"/></g><g id="aK"><use transform="matrix(0.05,0,0,0.05,0,0)" xlink:href="#bx"/><use transform="matrix(0.05,0,0,0.05,10,0)" xlink:href="#bp"/><use transform="matrix(0.05,0,0,0.05,13.949999999999998,0)" xlink:href="#bp"/></g><g id="aL"><use transform="matrix(0.05,0,0,0.05,0,0)" xlink:href="#bC"/><use transform="matrix(0.05,0,0,0.05,10,0)" xlink:href="#bD"/><use transform="matrix(0.05,0,0,0.05,20,0)" xlink:href="#bA"/><use transform="matrix(0.05,0,0,0.05,30,0)" xlink:href="#bS"/><use transform="matrix(0.05,0,0,0.05,40,0)" xlink:href="#bu"/><use transform="matrix(0.05,0,0,0.05,45,0)" xlink:href="#br"/></g><g id="aM"><use transform="matrix(0.05,0,0,0.05,0,0)" xlink:href="#bu"/><use transform="matrix(0.05,0,0,0.05,5,0)" xlink:href="#bE"/><use transform="matrix(0.05,0,0,0.05,15,0)" xlink:href="#bx"/><use transform="matrix(0.05,0,0,0.05,25,0)" xlink:href="#bu"/></g><g id="aN"><use transform="matrix(0.05,0,0,0.05,0,0)" xlink:href="#bV"/><use transform="matrix(0.05,0,0,0.05,10,0)" xlink:href="#bT"/><use transform="matrix(0.05,0,0,0.05,15.949999999999998,0)" xlink:href="#bq"/><use transform="matrix(0.05,0,0,0.05,25.950000000000003,0)" xlink:href="#bF"/><use transform="matrix(0.05,0,0,0.05,34.95,0)" xlink:href="#bq"/><use transform="matrix(0.05,0,0,0.05,44.95,0)" xlink:href="#bo"/><use transform="matrix(0.05,0,0,0.05,54.95,0)" xlink:href="#bu"/></g><use transform="matrix(0.05,0,0,0.05,0,0)" xlink:href="#bx" id="aO"/><g id="aP"><use transform="matrix(0.05,0,0,0.05,0,0)" xlink:href="#bt"/><use transform="matrix(0.05,0,0,0.05,12.950000000000001,0)" xlink:href="#bw"/><use transform="matrix(0.05,0,0,0.05,16.900000000000002,0)" xlink:href="#bo"/><use transform="matrix(0.05,0,0,0.05,26.900000000000002,0)" xlink:href="#bz"/><use transform="matrix(0.05,0,0,0.05,36.900000000000006,0)" xlink:href="#bq"/><use transform="matrix(0.05,0,0,0.05,46.900000000000006,0)" xlink:href="#bC"/></g><g id="aQ"><use transform="matrix(0.05,0,0,0.05,0,0)" xlink:href="#bU"/><use transform="matrix(0.05,0,0,0.05,5,0)" xlink:href="#bT"/><use transform="matrix(0.05,0,0,0.05,10.95,0)" xlink:href="#bD"/><use transform="matrix(0.05,0,0,0.05,20.95,0)" xlink:href="#bR"/></g><g id="aR"><use transform="matrix(0.05,0,0,0.05,0,0)" xlink:href="#bU"/><use transform="matrix(0.05,0,0,0.05,5,0)" xlink:href="#bp"/><use transform="matrix(0.05,0,0,0.05,8.95,0)" xlink:href="#bv"/><use transform="matrix(0.05,0,0,0.05,17.95,0)" xlink:href="#bw"/><use transform="matrix(0.05,0,0,0.05,21.9,0)" xlink:href="#bo"/><use transform="matrix(0.05,0,0,0.05,31.899999999999995,0)" xlink:href="#bz"/></g><g id="aS"><use transform="matrix(0.05,0,0,0.05,0,0)" xlink:href="#bE"/><use transform="matrix(0.05,0,0,0.05,10,0)" xlink:href="#bx"/><use transform="matrix(0.05,0,0,0.05,20,0)" xlink:href="#bF"/><use transform="matrix(0.05,0,0,0.05,29,0)" xlink:href="#bq"/></g><g id="aT"><use transform="matrix(0.05,0,0,0.05,0,0)" xlink:href="#bS"/><use transform="matrix(0.05,0,0,0.05,10,0)" xlink:href="#bq"/><use transform="matrix(0.05,0,0,0.05,20,0)" xlink:href="#bq"/><use transform="matrix(0.05,0,0,0.05,30,0)" xlink:href="#bo"/></g><g id="aU"><use transform="matrix(0.05,0,0,0.05,0,0)" xlink:href="#bT"/><use transform="matrix(0.05,0,0,0.05,5.95,0)" xlink:href="#bq"/><use transform="matrix(0.05,0,0,0.05,15.949999999999998,0)" xlink:href="#bR"/><use transform="matrix(0.05,0,0,0.05,30.899999999999995,0)" xlink:href="#bD"/><use transform="matrix(0.05,0,0,0.05,40.9,0)" xlink:href="#bF"/><use transform="matrix(0.05,0,0,0.05,49.9,0)" xlink:href="#bq"/><use transform="matrix(0.05,0,0,0.05,59.900000000000006,0)" xlink:href="#bC"/></g><g id="aV"><use transform="matrix(0.05,0,0,0.05,0,0)" xlink:href="#bu"/><use transform="matrix(0.05,0,0,0.05,5,0)" xlink:href="#bt"/><use transform="matrix(0.05,0,0,0.05,17.950000000000003,0)" xlink:href="#bq"/><use transform="matrix(0.05,0,0,0.05,27.950000000000003,0)" xlink:href="#bq"/><use transform="matrix(0.05,0,0,0.05,37.95,0)" xlink:href="#bu"/><use transform="matrix(0.05,0,0,0.05,42.95,0)" xlink:href="#bv"/></g><g id="aW"><use transform="matrix(0.05,0,0,0.05,0,0)" xlink:href="#bW"/><use transform="matrix(0.05,0,0,0.05,12,0)" xlink:href="#bX"/><use transform="matrix(0.05,0,0,0.05,22,0)" xlink:href="#bK"/><use transform="matrix(0.05,0,0,0.05,27,0)" xlink:href="#bY"/><use transform="matrix(0.05,0,0,0.05,37.95,0)" xlink:href="#be"/><use transform="matrix(0.05,0,0,0.05,47.95,0)" xlink:href="#bZ"/><use transform="matrix(0.05,0,0,0.05,58.900000000000006,0)" xlink:href="#ca"/><use transform="matrix(0.05,0,0,0.05,68.9,0)" xlink:href="#be"/><use transform="matrix(0.05,0,0,0.05,78.9,0)" xlink:href="#bm"/></g><g id="aX"><use transform="matrix(0.05,0,0,0.05,0,0)" xlink:href="#bO"/><use transform="matrix(0.05,0,0,0.05,10.950000000000001,0)" xlink:href="#bp"/><use transform="matrix(0.05,0,0,0.05,14.9,0)" xlink:href="#bv"/><use transform="matrix(0.05,0,0,0.05,23.900000000000002,0)" xlink:href="#bw"/><use transform="matrix(0.05,0,0,0.05,27.85,0)" xlink:href="#bo"/><use transform="matrix(0.05,0,0,0.05,37.85,0)" xlink:href="#bz"/></g><g id="aY"><use transform="matrix(0.05,0,0,0.05,0,0)" xlink:href="#bs"/><use transform="matrix(0.05,0,0,0.05,9.950000000000001,0)" xlink:href="#bt"/><use transform="matrix(0.05,0,0,0.05,22.900000000000002,0)" xlink:href="#bq"/><use transform="matrix(0.05,0,0,0.05,32.900000000000006,0)" xlink:href="#bq"/><use transform="matrix(0.05,0,0,0.05,42.900000000000006,0)" xlink:href="#bu"/><use transform="matrix(0.05,0,0,0.05,47.900000000000006,0)" xlink:href="#bv"/></g><path d="M185-189c-5-48-123-54-124 2 14 75 158 14 163 119 3 78-121 87-175 55-17-10-28-26-33-46l33-7c5 56 141 63 141-1 0-78-155-14-162-118-5-82 145-84 179-34 5 7 8 16 11 25" id="cn"/><g id="aZ"><use transform="matrix(0.05,0,0,0.05,0,0)" xlink:href="#cn"/><use transform="matrix(0.05,0,0,0.05,12,0)" xlink:href="#bw"/><use transform="matrix(0.05,0,0,0.05,15.949999999999998,0)" xlink:href="#bz"/><use transform="matrix(0.05,0,0,0.05,25.950000000000003,0)" xlink:href="#bE"/><use transform="matrix(0.05,0,0,0.05,35.95,0)" xlink:href="#bu"/><use transform="matrix(0.05,0,0,0.05,40.95,0)" xlink:href="#bw"/><use transform="matrix(0.05,0,0,0.05,44.900000000000006,0)" xlink:href="#bo"/><use transform="matrix(0.05,0,0,0.05,54.900000000000006,0)" xlink:href="#bz"/><use transform="matrix(0.05,0,0,0.05,64.9,0)" xlink:href="#br"/></g><g id="ba"><use transform="matrix(0.05,0,0,0.05,0,0)" xlink:href="#cf"/><use transform="matrix(0.05,0,0,0.05,12.950000000000001,0)" xlink:href="#bZ"/><use transform="matrix(0.05,0,0,0.05,23.900000000000002,0)" xlink:href="#bY"/><use transform="matrix(0.05,0,0,0.05,34.85,0)" xlink:href="#be"/><use transform="matrix(0.05,0,0,0.05,44.85,0)" xlink:href="#cg"/><use transform="matrix(0.05,0,0,0.05,51.85,0)" xlink:href="#ca"/><use transform="matrix(0.05,0,0,0.05,61.85,0)" xlink:href="#bg"/><use transform="matrix(0.05,0,0,0.05,72.8,0)" xlink:href="#bh"/><use transform="matrix(0.05,0,0,0.05,78.75,0)" xlink:href="#bQ"/></g><g id="bb"><use transform="matrix(0.05,0,0,0.05,0,0)" xlink:href="#bn"/><use transform="matrix(0.05,0,0,0.05,12.950000000000001,0)" xlink:href="#bo"/><use transform="matrix(0.05,0,0,0.05,22.950000000000003,0)" xlink:href="#bp"/><use transform="matrix(0.05,0,0,0.05,26.900000000000002,0)" xlink:href="#bq"/><use transform="matrix(0.05,0,0,0.05,36.900000000000006,0)" xlink:href="#br"/><use transform="matrix(0.05,0,0,0.05,45.900000000000006,0)" xlink:href="#br"/></g><path d="M24-231v-30h32v30H24zM-9 49c24 4 33-6 33-30v-209h32V24c2 40-23 58-65 49V49" id="co"/><g id="bc"><use transform="matrix(0.05,0,0,0.05,0,0)" xlink:href="#co"/><use transform="matrix(0.05,0,0,0.05,3.95,0)" xlink:href="#bA"/><use transform="matrix(0.05,0,0,0.05,13.949999999999998,0)" xlink:href="#bF"/><use transform="matrix(0.05,0,0,0.05,22.95,0)" xlink:href="#bq"/><use transform="matrix(0.05,0,0,0.05,32.95,0)" xlink:href="#bo"/><use transform="matrix(0.05,0,0,0.05,42.95,0)" xlink:href="#bw"/><use transform="matrix(0.05,0,0,0.05,46.900000000000006,0)" xlink:href="#bp"/><use transform="matrix(0.05,0,0,0.05,50.85000000000001,0)" xlink:href="#bq"/></g></defs></g></svg>