<svg xmlns="http://www.w3.org/2000/svg" xmlns:xlink="http://www.w3.org/1999/xlink" xmlns:lucid="lucid" width="1475.56" height="890"><g transform="translate(0 -818.8888888888888)" lucid:page-tab-id="0_0"><path d="M0 0h1475.56v890H0z" fill="#fff"/><path d="M1020 982c0 44.18-35.82 80-80 80s-80-35.82-80-80 35.82-80 80-80 80 35.82 80 80z" stroke="#000" stroke-width="2" fill="#fff"/><use xlink:href="#a" transform="matrix(1,0,0,1,865,906.9991526312914) translate(33.05 57)"/><use xlink:href="#b" transform="matrix(1,0,0,1,865,906.9991526312914) translate(0.42499999999998295 78.60000000000001)"/><use xlink:href="#c" transform="matrix(1,0,0,1,865,906.9991526312914) translate(74.725 78.60000000000001)"/><use xlink:href="#d" transform="matrix(1,0,0,1,865,906.9991526312914) translate(116.625 78.60000000000001)"/><use xlink:href="#e" transform="matrix(1,0,0,1,865,906.9991526312914) translate(45.05 100.20000000000002)"/><path d="M902.92 820l3.64 7.43 4.8 8.45 20 31.4 2.32 4.75 1.76 4.22 1.4 4 1.1 3.97.87 4.06.65 4.26.4 4.6.15 4.86" stroke="#000" stroke-width="2" fill="none"/><path d="M940 902l-6-13.75 9.23-.9z"/><path d="M941.02 902.03L940 902h-.68l-.4.02-6.38-14.63 11.97-1.18zm-5.55-12.92l4.22 9.68 2.26-10.3z"/><path d="M580 980c0 44.18-35.82 80-80 80s-80-35.82-80-80 35.82-80 80-80 80 35.82 80 80z" stroke="#000" stroke-width="2" fill="#fff"/><use xlink:href="#f" transform="matrix(1,0,0,1,425,904.9990400116106) translate(33.05 57)"/><use xlink:href="#g" transform="matrix(1,0,0,1,425,904.9990400116106) translate(24.549999999999997 78.60000000000001)"/><use xlink:href="#h" transform="matrix(1,0,0,1,425,904.9990400116106) translate(96.45 78.60000000000001)"/><use xlink:href="#i" transform="matrix(1,0,0,1,425,904.9990400116106) translate(51.55 100.20000000000002)"/><path d="M595.08 820l-4.17 3.33-4.8 3.43-5.75 3.66-7.36 4.16-11.76 5.82-29.85 13.95-5.5 3.1-3.97 2.53-3.14 2.24-2.6 2.06-2.2 1.94-1.9 1.88-1.66 1.82-1.48 1.8-1.32 1.8-1.2 1.8-1.07 1.84-.97 1.88-.87 1.93-.8 2.02-.7 2.1-.6 2.23-.5 2.38-.43 2.57-.3 2.8-.17 3.04-.03 1.9" stroke="#000" stroke-width="2" fill="none"/><path d="M506.52 886.5L500 900l-2.66-14.76z"/><path d="M508.02 885.7l-6.93 14.33-1.1-.03h-.68l-.33.02-2.9-15.96zm-7.58 11.1l4.58-9.5-6.46-.9z"/><path d="M533 1152.5c0 17.95-14.77 32.5-33 32.5s-33-14.55-33-32.5 14.77-32.5 33-32.5 33 14.55 33 32.5z" stroke="#000" stroke-width="2" fill="#ccc"/><path d="M500 1060v59" stroke="#000" stroke-width="2" fill="none"/><path d="M500 1060h.68l.32-.02v.02h-2v-.03zM500 1119l-4.64-14.27h9.28z"/><path d="M500.7 1120.05l-.7-.05-.72.02-5.3-16.3h12.03zm-3.96-14.32l3.26 10.03 3.26-10.03z"/><path d="M952 1104.23h170.36l20.3 20.3v81.24H952z" stroke="#82b3ce" stroke-width="2" fill="#99d2f2"/><path d="M1122.36 1104.23l20.3 20.3h-20.3z" fill="#82b3ce"/><use xlink:href="#j" transform="matrix(1,0,0,1,957,1109.2321012285452) translate(10.674999999999997 28)"/><use xlink:href="#k" transform="matrix(1,0,0,1,957,1109.2321012285452) translate(115.425 28)"/><use xlink:href="#l" transform="matrix(1,0,0,1,957,1109.2321012285452) translate(21.57499999999999 49.6)"/><use xlink:href="#m" transform="matrix(1,0,0,1,957,1109.2321012285452) translate(51.57499999999999 49.6)"/><use xlink:href="#n" transform="matrix(1,0,0,1,957,1109.2321012285452) translate(93.475 49.6)"/><use xlink:href="#o" transform="matrix(1,0,0,1,957,1109.2321012285452) translate(127.475 49.6)"/><use xlink:href="#p" transform="matrix(1,0,0,1,957,1109.2321012285452) translate(36.55 71.2)"/><path d="M980 1242h245v98H980z" stroke="#000" stroke-width="2" fill="#fff"/><use xlink:href="#q" transform="matrix(1,0,0,1,984.9999999999999,1246.9991526312913) translate(2.674999999999997 26)"/><use xlink:href="#r" transform="matrix(1,0,0,1,984.9999999999999,1246.9991526312913) translate(62.575 26)"/><use xlink:href="#c" transform="matrix(1,0,0,1,984.9999999999999,1246.9991526312913) translate(98.525 26)"/><use xlink:href="#s" transform="matrix(1,0,0,1,984.9999999999999,1246.9991526312913) translate(140.425 26)"/><use xlink:href="#t" transform="matrix(1,0,0,1,984.9999999999999,1246.9991526312913) translate(203.325 26)"/><use xlink:href="#u" transform="matrix(1,0,0,1,984.9999999999999,1246.9991526312913) translate(25.125 47.6)"/><use xlink:href="#v" transform="matrix(1,0,0,1,984.9999999999999,1246.9991526312913) translate(50.125 47.6)"/><use xlink:href="#w" transform="matrix(1,0,0,1,984.9999999999999,1246.9991526312913) translate(76.05 69.2)"/><use xlink:href="#x" transform="matrix(1,0,0,1,984.9999999999999,1246.9991526312913) translate(130.95 69.2)"/><path d="M1200 1462c0 44.18-35.82 80-80 80s-80-35.82-80-80 35.82-80 80-80 80 35.82 80 80z" stroke="#000" stroke-width="2" fill="#fff"/><use xlink:href="#y" transform="matrix(1,0,0,1,1045,1386.9991526312915) translate(33.05 67.8)"/><use xlink:href="#z" transform="matrix(1,0,0,1,1045,1386.9991526312915) translate(11.549999999999997 89.4)"/><use xlink:href="#A" transform="matrix(1,0,0,1,1045,1386.9991526312915) translate(46.55 89.4)"/><path d="M1102.5 1340l.23 3.9.68 3.65 1.2 3.82 2.4 5.17 7.32 14 1.25 4 .7 3.84.23 2.73" stroke="#000" stroke-width="2" fill="none"/><path d="M1101.53 1340.24l-.06-.24h1.03zM1116.5 1381.1l-8.4-12.4 8.9-2.58z"/><path d="M1117.47 1382.08l-1.5.05-9.48-14.02 11.54-3.32zm-7.78-12.8l5.9 8.72.35-10.54z"/><path d="M1047.33 1205.77l.07 1.2.2 1.1.32 1.1.46 1.07.64 1.1.88 1.2 1.23 1.32 1.83 1.55 2.98 1.98 6.43 3.23 19.7 8.78 2.97 1.98 1.83 1.54 1.23 1.32.88 1.2.64 1.1.46 1.1.32 1.07.2 1.1.07 1.2" stroke="#000" stroke-width="2" fill="none"/><path d="M1046.53 1206.36l-.44-.6h1.23zM1090.67 1241l-12.18-8.75 7.46-5.5z"/><path d="M1092.05 1242h-1.7l-13.57-9.75 9.7-7.1zm-11.86-9.76l8.55 6.15-3.3-10.02z"/><path d="M940 1062v.32l.03.3.04.32.06.3.07.32.08.3.1.32.14.32.14.32.18.34.2.34.23.36.27.37.32.4.37.42.44.44.52.47.62.52.77.56.93.64 1.18.7 1.53.82 2 .95 2.76 1.13 4 1.4 6.38 1.92 13.65 3.3 39.26 8.7 6.38 1.9 4 1.4 2.75 1.14 2 .95 1.52.82 1.2.7.93.65.76.57.63.52.53.48.44.44.37.42.32.4.28.37.23.36.2.34.17.34.15.33.13.32.1.3.1.32.06.3.06.32.04.3.02.3v.33" stroke="#000" stroke-width="2" fill="none"/><path d="M940 1062l-.7.7-.76-.75zM1039.67 1103.23l-13.36-6.83 6.58-6.55z"/><path d="M1041.3 1104.23h-1.87l-14.8-7.57 8.52-8.5zm-13.3-8.1l9.38 4.8-4.77-9.4z"/><path d="M1186 1616.5c0 17.95-14.77 32.5-33 32.5s-33-14.55-33-32.5 14.77-32.5 33-32.5 33 14.55 33 32.5z" stroke="#000" stroke-width="2" fill="#ccc"/><path d="M1120 1542l.16 2.75.45 2.46.72 2.3 1 2.28 1.46 2.4 2.22 2.85 5.74 5.63 7.8 7.5 2.42 3.1 1.6 2.65 1.14 2.58.82 2.64.48 2.6" stroke="#000" stroke-width="2" fill="none"/><path d="M1120 1542l-.94.34-.14-.37zM1146 1583.72l-10.28-10.93 8.38-3.96z"/><path d="M1147.12 1584.58l-1.04.13-.4.13-11.63-12.35 10.87-5.13zm-9.73-11.47l7.22 7.7-1.33-10.47z"/><path d="M786 980c0 44.18-35.82 80-80 80s-80-35.82-80-80 35.82-80 80-80 80 35.82 80 80z" stroke="#000" stroke-width="2" fill="#fff"/><g><use xlink:href="#B" transform="matrix(1,0,0,1,631,904.9990400116106) translate(33.05 57)"/><use xlink:href="#C" transform="matrix(1,0,0,1,631,904.9990400116106) translate(20.125 78.60000000000001)"/><use xlink:href="#D" transform="matrix(1,0,0,1,631,904.9990400116106) translate(72.975 78.60000000000001)"/><use xlink:href="#E" transform="matrix(1,0,0,1,631,904.9990400116106) translate(38.05 100.20000000000002)"/></g><path d="M739 1152.5c0 17.95-14.77 32.5-33 32.5s-33-14.55-33-32.5 14.77-32.5 33-32.5 33 14.55 33 32.5z" stroke="#000" stroke-width="2" fill="#ccc"/><path d="M706 1060v59" stroke="#000" stroke-width="2" fill="none"/><path d="M706 1060h.68l.32-.02v.02h-2v-.03zM706 1119l-4.64-14.27h9.28z"/><path d="M706.7 1120.05l-.7-.05-.72.02-5.3-16.3h12.03zm-3.96-14.32l3.26 10.03 3.26-10.03z"/><path d="M595.08 820l3.9 2.68 4.4 2.74 5.05 2.83 6 3.03 7.64 3.4 11.7 4.6 34.66 12.73 5.78 2.6 4.28 2.14 3.4 1.9 2.8 1.76 2.42 1.66 2.1 1.58 1.85 1.53 1.65 1.5 1.48 1.48 1.35 1.46 1.23 1.48 1.12 1.47 1.04 1.5.96 1.5.88 1.55.8 1.6.76 1.64.7 1.7.6 1.8.58 1.87.5 2 .43 2.1.36 2.26.26 2.44.18 2.64.06 2.86" stroke="#000" stroke-width="2" fill="none"/><path d="M706 900l-6.47-13.54 9.2-1.2z"/><path d="M707 900.03l-1-.03h-.68l-.42.02-6.86-14.37 11.92-1.57zm-5.97-12.75l4.55 9.5 1.9-10.36z"/><defs><path d="M24 0v-248h195v40H76v63h132v40H76v65h150V0H24" id="F"/><path d="M128 0H69L1-190h53L99-40l48-150h52" id="G"/><path d="M25-224v-37h50v37H25zM25 0v-190h50V0H25" id="H"/><path d="M88-194c31-1 46 15 58 34l-1-101h50l1 261h-48c-2-10 0-23-3-31C134-8 116 4 84 4 32 4 16-41 15-95c0-56 19-97 73-99zm17 164c33 0 40-30 41-66 1-37-9-64-41-64s-38 30-39 65c0 43 13 65 39 65" id="I"/><path d="M185-48c-13 30-37 53-82 52C43 2 14-33 14-96s30-98 90-98c62 0 83 45 84 108H66c0 31 8 55 39 56 18 0 30-7 34-22zm-45-69c5-46-57-63-70-21-2 6-4 13-4 21h74" id="J"/><path d="M135-194c87-1 58 113 63 194h-50c-7-57 23-157-34-157-59 0-34 97-39 157H25l-1-190h47c2 12-1 28 3 38 12-26 28-41 61-42" id="K"/><path d="M190-63c-7 42-38 67-86 67-59 0-84-38-90-98-12-110 154-137 174-36l-49 2c-2-19-15-32-35-32-30 0-35 28-38 64-6 74 65 87 74 30" id="L"/><path d="M33-154v-36h34v36H33zM33 0v-36h34V0H33" id="M"/><g id="a"><use transform="matrix(0.05,0,0,0.05,0,0)" xlink:href="#F"/><use transform="matrix(0.05,0,0,0.05,12,0)" xlink:href="#G"/><use transform="matrix(0.05,0,0,0.05,22,0)" xlink:href="#H"/><use transform="matrix(0.05,0,0,0.05,27,0)" xlink:href="#I"/><use transform="matrix(0.05,0,0,0.05,37.95,0)" xlink:href="#J"/><use transform="matrix(0.05,0,0,0.05,47.95,0)" xlink:href="#K"/><use transform="matrix(0.05,0,0,0.05,58.900000000000006,0)" xlink:href="#L"/><use transform="matrix(0.05,0,0,0.05,68.9,0)" xlink:href="#J"/><use transform="matrix(0.05,0,0,0.05,78.9,0)" xlink:href="#M"/></g><path d="M127-220V0H93v-220H8v-28h204v28h-85" id="N"/><path d="M206 0h-36l-40-164L89 0H53L-1-190h32L70-26l43-164h34l41 164 42-164h31" id="O"/><path d="M100-194c63 0 86 42 84 106H49c0 40 14 67 53 68 26 1 43-12 49-29l28 8c-11 28-37 45-77 45C44 4 14-33 15-96c1-61 26-98 85-98zm52 81c6-60-76-77-97-28-3 7-6 17-6 28h103" id="P"/><path d="M59-47c-2 24 18 29 38 22v24C64 9 27 4 27-40v-127H5v-23h24l9-43h21v43h35v23H59v120" id="Q"/><path d="M179-190L93 31C79 59 56 82 12 73V49c39 6 53-20 64-50L1-190h34L92-34l54-156h33" id="R"/><path d="M47-170H22l-4-78h33" id="S"/><path d="M135-143c-3-34-86-38-87 0 15 53 115 12 119 90S17 21 10-45l28-5c4 36 97 45 98 0-10-56-113-15-118-90-4-57 82-63 122-42 12 7 21 19 24 35" id="T"/><g id="b"><use transform="matrix(0.05,0,0,0.05,0,0)" xlink:href="#N"/><use transform="matrix(0.05,0,0,0.05,9.950000000000001,0)" xlink:href="#O"/><use transform="matrix(0.05,0,0,0.05,22.900000000000002,0)" xlink:href="#P"/><use transform="matrix(0.05,0,0,0.05,32.900000000000006,0)" xlink:href="#P"/><use transform="matrix(0.05,0,0,0.05,42.900000000000006,0)" xlink:href="#Q"/><use transform="matrix(0.05,0,0,0.05,47.900000000000006,0)" xlink:href="#R"/><use transform="matrix(0.05,0,0,0.05,56.900000000000006,0)" xlink:href="#S"/><use transform="matrix(0.05,0,0,0.05,60.300000000000004,0)" xlink:href="#T"/></g><path d="M30-248c118-7 216 8 213 122C240-48 200 0 122 0H30v-248zM63-27c89 8 146-16 146-99s-60-101-146-95v194" id="U"/><path d="M190 0L58-211 59 0H30v-248h39L202-35l-2-213h31V0h-41" id="V"/><path d="M205 0l-28-72H64L36 0H1l101-248h38L239 0h-34zm-38-99l-47-123c-12 45-31 82-46 123h93" id="W"/><g id="c"><use transform="matrix(0.05,0,0,0.05,0,0)" xlink:href="#U"/><use transform="matrix(0.05,0,0,0.05,12.950000000000001,0)" xlink:href="#V"/><use transform="matrix(0.05,0,0,0.05,25.900000000000002,0)" xlink:href="#W"/></g><g id="d"><use transform="matrix(0.05,0,0,0.05,0,0)" xlink:href="#N"/><use transform="matrix(0.05,0,0,0.05,8.950000000000001,0)" xlink:href="#P"/><use transform="matrix(0.05,0,0,0.05,18.950000000000003,0)" xlink:href="#T"/><use transform="matrix(0.05,0,0,0.05,27.950000000000003,0)" xlink:href="#Q"/></g><path d="M233-177c-1 41-23 64-60 70L243 0h-38l-65-103H63V0H30v-248c88 3 205-21 203 71zM63-129c60-2 137 13 137-47 0-61-80-42-137-45v92" id="X"/><path d="M84 4C-5 8 30-112 23-190h32v120c0 31 7 50 39 49 72-2 45-101 50-169h31l1 190h-30c-1-10 1-25-2-33-11 22-28 36-60 37" id="Y"/><path d="M24 0v-261h32V0H24" id="Z"/><g id="e"><use transform="matrix(0.05,0,0,0.05,0,0)" xlink:href="#X"/><use transform="matrix(0.05,0,0,0.05,12.950000000000001,0)" xlink:href="#P"/><use transform="matrix(0.05,0,0,0.05,22.950000000000003,0)" xlink:href="#T"/><use transform="matrix(0.05,0,0,0.05,31.950000000000003,0)" xlink:href="#Y"/><use transform="matrix(0.05,0,0,0.05,41.95,0)" xlink:href="#Z"/><use transform="matrix(0.05,0,0,0.05,45.900000000000006,0)" xlink:href="#Q"/><use transform="matrix(0.05,0,0,0.05,50.900000000000006,0)" xlink:href="#T"/></g><g id="f"><use transform="matrix(0.05,0,0,0.05,0,0)" xlink:href="#F"/><use transform="matrix(0.05,0,0,0.05,12,0)" xlink:href="#G"/><use transform="matrix(0.05,0,0,0.05,22,0)" xlink:href="#H"/><use transform="matrix(0.05,0,0,0.05,27,0)" xlink:href="#I"/><use transform="matrix(0.05,0,0,0.05,37.95,0)" xlink:href="#J"/><use transform="matrix(0.05,0,0,0.05,47.95,0)" xlink:href="#K"/><use transform="matrix(0.05,0,0,0.05,58.900000000000006,0)" xlink:href="#L"/><use transform="matrix(0.05,0,0,0.05,68.9,0)" xlink:href="#J"/><use transform="matrix(0.05,0,0,0.05,78.9,0)" xlink:href="#M"/></g><path d="M30-248c87 1 191-15 191 75 0 78-77 80-158 76V0H30v-248zm33 125c57 0 124 11 124-50 0-59-68-47-124-48v98" id="aa"/><path d="M106-169C34-169 62-67 57 0H25v-261h32l-1 103c12-21 28-36 61-36 89 0 53 116 60 194h-32v-121c2-32-8-49-39-48" id="ab"/><path d="M24-231v-30h32v30H24zM24 0v-190h32V0H24" id="ac"/><path d="M96-169c-40 0-48 33-48 73s9 75 48 75c24 0 41-14 43-38l32 2c-6 37-31 61-74 61-59 0-76-41-82-99-10-93 101-131 147-64 4 7 5 14 7 22l-32 3c-4-21-16-35-41-35" id="ad"/><path d="M141-36C126-15 110 5 73 4 37 3 15-17 15-53c-1-64 63-63 125-63 3-35-9-54-41-54-24 1-41 7-42 31l-33-3c5-37 33-52 76-52 45 0 72 20 72 64v82c-1 20 7 32 28 27v20c-31 9-61-2-59-35zM48-53c0 20 12 33 32 33 41-3 63-29 60-74-43 2-92-5-92 41" id="ae"/><g id="g"><use transform="matrix(0.05,0,0,0.05,0,0)" xlink:href="#aa"/><use transform="matrix(0.05,0,0,0.05,12,0)" xlink:href="#ab"/><use transform="matrix(0.05,0,0,0.05,22,0)" xlink:href="#R"/><use transform="matrix(0.05,0,0,0.05,31,0)" xlink:href="#T"/><use transform="matrix(0.05,0,0,0.05,40,0)" xlink:href="#ac"/><use transform="matrix(0.05,0,0,0.05,43.95,0)" xlink:href="#ad"/><use transform="matrix(0.05,0,0,0.05,52.95,0)" xlink:href="#ae"/><use transform="matrix(0.05,0,0,0.05,62.95,0)" xlink:href="#Z"/></g><g id="h"><use transform="matrix(0.05,0,0,0.05,0,0)" xlink:href="#Q"/><use transform="matrix(0.05,0,0,0.05,5,0)" xlink:href="#P"/><use transform="matrix(0.05,0,0,0.05,15,0)" xlink:href="#T"/><use transform="matrix(0.05,0,0,0.05,24,0)" xlink:href="#Q"/></g><path d="M114-163C36-179 61-72 57 0H25l-1-190h30c1 12-1 29 2 39 6-27 23-49 58-41v29" id="af"/><path d="M115-194c55 1 70 41 70 98S169 2 115 4C84 4 66-9 55-30l1 105H24l-1-265h31l2 30c10-21 28-34 59-34zm-8 174c40 0 45-34 45-75s-6-73-45-74c-42 0-51 32-51 76 0 43 10 73 51 73" id="ag"/><path d="M100-194c62-1 85 37 85 99 1 63-27 99-86 99S16-35 15-95c0-66 28-99 85-99zM99-20c44 1 53-31 53-75 0-43-8-75-51-75s-53 32-53 75 10 74 51 75" id="ah"/><g id="i"><use transform="matrix(0.05,0,0,0.05,0,0)" xlink:href="#af"/><use transform="matrix(0.05,0,0,0.05,5.95,0)" xlink:href="#P"/><use transform="matrix(0.05,0,0,0.05,15.949999999999998,0)" xlink:href="#ag"/><use transform="matrix(0.05,0,0,0.05,25.950000000000003,0)" xlink:href="#ah"/><use transform="matrix(0.05,0,0,0.05,35.95,0)" xlink:href="#af"/><use transform="matrix(0.05,0,0,0.05,41.900000000000006,0)" xlink:href="#Q"/></g><path d="M238-95c0 69-44 99-111 99C63 4 22-25 22-93v-155h51v151c-1 38 19 59 55 60 90 1 49-130 58-211h52v153" id="ai"/><path d="M135-150c-39-12-60 13-60 57V0H25l-1-190h47c2 13-1 29 3 40 6-28 27-53 61-41v41" id="aj"/><path d="M220-157c-53 9-28 100-34 157h-49v-107c1-27-5-49-29-50C55-147 81-57 75 0H25l-1-190h47c2 12-1 28 3 38 10-53 101-56 108 0 13-22 24-43 59-42 82 1 51 116 57 194h-49v-107c-1-25-5-48-29-50" id="ak"/><path d="M35-132v-50h50v50H35zM35 0v-49h50V0H35" id="al"/><g id="j"><use transform="matrix(0.05,0,0,0.05,0,0)" xlink:href="#ai"/><use transform="matrix(0.05,0,0,0.05,12.950000000000001,0)" xlink:href="#K"/><use transform="matrix(0.05,0,0,0.05,23.900000000000002,0)" xlink:href="#I"/><use transform="matrix(0.05,0,0,0.05,34.85,0)" xlink:href="#J"/><use transform="matrix(0.05,0,0,0.05,44.85,0)" xlink:href="#aj"/><use transform="matrix(0.05,0,0,0.05,51.85,0)" xlink:href="#ak"/><use transform="matrix(0.05,0,0,0.05,67.85,0)" xlink:href="#H"/><use transform="matrix(0.05,0,0,0.05,72.85,0)" xlink:href="#K"/><use transform="matrix(0.05,0,0,0.05,83.8,0)" xlink:href="#J"/><use transform="matrix(0.05,0,0,0.05,93.8,0)" xlink:href="#al"/></g><path d="M232-93c-1 65-40 97-104 97C67 4 28-28 28-90v-158h33c8 89-33 224 67 224 102 0 64-133 71-224h33v155" id="am"/><path d="M117-194c89-4 53 116 60 194h-32v-121c0-31-8-49-39-48C34-167 62-67 57 0H25l-1-190h30c1 10-1 24 2 32 11-22 29-35 61-36" id="an"/><g id="k"><use transform="matrix(0.05,0,0,0.05,0,0)" xlink:href="#am"/><use transform="matrix(0.05,0,0,0.05,12.950000000000001,0)" xlink:href="#an"/><use transform="matrix(0.05,0,0,0.05,22.950000000000003,0)" xlink:href="#Z"/><use transform="matrix(0.05,0,0,0.05,26.900000000000002,0)" xlink:href="#P"/><use transform="matrix(0.05,0,0,0.05,36.900000000000006,0)" xlink:href="#T"/><use transform="matrix(0.05,0,0,0.05,45.900000000000006,0)" xlink:href="#T"/></g><g id="l"><use transform="matrix(0.05,0,0,0.05,0,0)" xlink:href="#Q"/><use transform="matrix(0.05,0,0,0.05,5,0)" xlink:href="#ab"/><use transform="matrix(0.05,0,0,0.05,15,0)" xlink:href="#P"/></g><g id="m"><use transform="matrix(0.05,0,0,0.05,0,0)" xlink:href="#U"/><use transform="matrix(0.05,0,0,0.05,12.950000000000001,0)" xlink:href="#V"/><use transform="matrix(0.05,0,0,0.05,25.900000000000002,0)" xlink:href="#W"/></g><g id="n"><use transform="matrix(0.05,0,0,0.05,0,0)" xlink:href="#Q"/><use transform="matrix(0.05,0,0,0.05,5,0)" xlink:href="#P"/><use transform="matrix(0.05,0,0,0.05,15,0)" xlink:href="#T"/><use transform="matrix(0.05,0,0,0.05,24,0)" xlink:href="#Q"/></g><g id="o"><use transform="matrix(0.05,0,0,0.05,0,0)" xlink:href="#O"/><use transform="matrix(0.05,0,0,0.05,12.950000000000001,0)" xlink:href="#ae"/><use transform="matrix(0.05,0,0,0.05,22.950000000000003,0)" xlink:href="#T"/></g><path d="M210-169c-67 3-38 105-44 169h-31v-121c0-29-5-50-35-48C34-165 62-65 56 0H25l-1-190h30c1 10-1 24 2 32 10-44 99-50 107 0 11-21 27-35 58-36 85-2 47 119 55 194h-31v-121c0-29-5-49-35-48" id="ao"/><path d="M85-194c31 0 48 13 60 33l-1-100h32l1 261h-30c-2-10 0-23-3-31C134-8 116 4 85 4 32 4 16-35 15-94c0-66 23-100 70-100zm9 24c-40 0-46 34-46 75 0 40 6 74 45 74 42 0 51-32 51-76 0-42-9-74-50-73" id="ap"/><g id="p"><use transform="matrix(0.05,0,0,0.05,0,0)" xlink:href="#ad"/><use transform="matrix(0.05,0,0,0.05,9,0)" xlink:href="#ah"/><use transform="matrix(0.05,0,0,0.05,19,0)" xlink:href="#an"/><use transform="matrix(0.05,0,0,0.05,29,0)" xlink:href="#Q"/><use transform="matrix(0.05,0,0,0.05,34,0)" xlink:href="#ae"/><use transform="matrix(0.05,0,0,0.05,44,0)" xlink:href="#ao"/><use transform="matrix(0.05,0,0,0.05,58.95,0)" xlink:href="#ac"/><use transform="matrix(0.05,0,0,0.05,62.900000000000006,0)" xlink:href="#an"/><use transform="matrix(0.05,0,0,0.05,72.9,0)" xlink:href="#ae"/><use transform="matrix(0.05,0,0,0.05,82.9,0)" xlink:href="#Q"/><use transform="matrix(0.05,0,0,0.05,87.9,0)" xlink:href="#P"/><use transform="matrix(0.05,0,0,0.05,97.9,0)" xlink:href="#ap"/></g><path d="M67-125c0 53 21 87 73 88 37 1 54-22 65-47l45 17C233-25 199 4 140 4 58 4 20-42 15-125 8-235 124-281 211-232c18 10 29 29 36 50l-46 12c-8-25-30-41-62-41-52 0-71 34-72 86" id="aq"/><path d="M25 0v-261h50V0H25" id="ar"/><path d="M133-34C117-15 103 5 69 4 32 3 11-16 11-54c-1-60 55-63 116-61 1-26-3-47-28-47-18 1-26 9-28 27l-52-2c7-38 36-58 82-57s74 22 75 68l1 82c-1 14 12 18 25 15v27c-30 8-71 5-69-32zm-48 3c29 0 43-24 42-57-32 0-66-3-65 30 0 17 8 27 23 27" id="as"/><g id="q"><use transform="matrix(0.05,0,0,0.05,0,0)" xlink:href="#aq"/><use transform="matrix(0.05,0,0,0.05,12.950000000000001,0)" xlink:href="#ar"/><use transform="matrix(0.05,0,0,0.05,17.950000000000003,0)" xlink:href="#as"/><use transform="matrix(0.05,0,0,0.05,27.950000000000003,0)" xlink:href="#H"/><use transform="matrix(0.05,0,0,0.05,32.95,0)" xlink:href="#ak"/><use transform="matrix(0.05,0,0,0.05,48.95,0)" xlink:href="#al"/></g><g id="r"><use transform="matrix(0.05,0,0,0.05,0,0)" xlink:href="#N"/><use transform="matrix(0.05,0,0,0.05,10.950000000000001,0)" xlink:href="#ab"/><use transform="matrix(0.05,0,0,0.05,20.950000000000003,0)" xlink:href="#P"/></g><g id="s"><use transform="matrix(0.05,0,0,0.05,0,0)" xlink:href="#T"/><use transform="matrix(0.05,0,0,0.05,9,0)" xlink:href="#ae"/><use transform="matrix(0.05,0,0,0.05,19,0)" xlink:href="#ao"/><use transform="matrix(0.05,0,0,0.05,33.95,0)" xlink:href="#ag"/><use transform="matrix(0.05,0,0,0.05,43.95,0)" xlink:href="#Z"/><use transform="matrix(0.05,0,0,0.05,47.900000000000006,0)" xlink:href="#P"/></g><g id="t"><use transform="matrix(0.05,0,0,0.05,0,0)" xlink:href="#ab"/><use transform="matrix(0.05,0,0,0.05,10,0)" xlink:href="#ae"/><use transform="matrix(0.05,0,0,0.05,20,0)" xlink:href="#ap"/></g><g id="u"><use transform="matrix(0.05,0,0,0.05,0,0)" xlink:href="#an"/><use transform="matrix(0.05,0,0,0.05,10,0)" xlink:href="#ah"/></g><path d="M16-82v-28h88v28H16" id="at"/><g id="v"><use transform="matrix(0.05,0,0,0.05,0,0)" xlink:href="#ad"/><use transform="matrix(0.05,0,0,0.05,9,0)" xlink:href="#af"/><use transform="matrix(0.05,0,0,0.05,14.949999999999998,0)" xlink:href="#ah"/><use transform="matrix(0.05,0,0,0.05,24.95,0)" xlink:href="#T"/><use transform="matrix(0.05,0,0,0.05,33.95,0)" xlink:href="#T"/><use transform="matrix(0.05,0,0,0.05,42.95,0)" xlink:href="#at"/><use transform="matrix(0.05,0,0,0.05,48.900000000000006,0)" xlink:href="#ad"/><use transform="matrix(0.05,0,0,0.05,57.900000000000006,0)" xlink:href="#ah"/><use transform="matrix(0.05,0,0,0.05,67.9,0)" xlink:href="#an"/><use transform="matrix(0.05,0,0,0.05,77.9,0)" xlink:href="#Q"/><use transform="matrix(0.05,0,0,0.05,82.9,0)" xlink:href="#ae"/><use transform="matrix(0.05,0,0,0.05,92.9,0)" xlink:href="#ao"/><use transform="matrix(0.05,0,0,0.05,107.85000000000001,0)" xlink:href="#ac"/><use transform="matrix(0.05,0,0,0.05,111.80000000000001,0)" xlink:href="#an"/><use transform="matrix(0.05,0,0,0.05,121.80000000000001,0)" xlink:href="#ae"/><use transform="matrix(0.05,0,0,0.05,131.8,0)" xlink:href="#Q"/><use transform="matrix(0.05,0,0,0.05,136.8,0)" xlink:href="#ac"/><use transform="matrix(0.05,0,0,0.05,140.75,0)" xlink:href="#ah"/><use transform="matrix(0.05,0,0,0.05,150.75,0)" xlink:href="#an"/></g><path d="M177-190C167-65 218 103 67 71c-23-6-38-20-44-43l32-5c15 47 100 32 89-28v-30C133-14 115 1 83 1 29 1 15-40 15-95c0-56 16-97 71-98 29-1 48 16 59 35 1-10 0-23 2-32h30zM94-22c36 0 50-32 50-73 0-42-14-75-50-75-39 0-46 34-46 75s6 73 46 73" id="au"/><g id="w"><use transform="matrix(0.05,0,0,0.05,0,0)" xlink:href="#ap"/><use transform="matrix(0.05,0,0,0.05,10,0)" xlink:href="#Y"/><use transform="matrix(0.05,0,0,0.05,20,0)" xlink:href="#af"/><use transform="matrix(0.05,0,0,0.05,25.950000000000003,0)" xlink:href="#ac"/><use transform="matrix(0.05,0,0,0.05,29.899999999999995,0)" xlink:href="#an"/><use transform="matrix(0.05,0,0,0.05,39.9,0)" xlink:href="#au"/></g><g id="x"><use transform="matrix(0.05,0,0,0.05,0,0)" xlink:href="#Q"/><use transform="matrix(0.05,0,0,0.05,5,0)" xlink:href="#P"/><use transform="matrix(0.05,0,0,0.05,15,0)" xlink:href="#T"/><use transform="matrix(0.05,0,0,0.05,24,0)" xlink:href="#Q"/></g><g id="y"><use transform="matrix(0.05,0,0,0.05,0,0)" xlink:href="#F"/><use transform="matrix(0.05,0,0,0.05,12,0)" xlink:href="#G"/><use transform="matrix(0.05,0,0,0.05,22,0)" xlink:href="#H"/><use transform="matrix(0.05,0,0,0.05,27,0)" xlink:href="#I"/><use transform="matrix(0.05,0,0,0.05,37.95,0)" xlink:href="#J"/><use transform="matrix(0.05,0,0,0.05,47.95,0)" xlink:href="#K"/><use transform="matrix(0.05,0,0,0.05,58.900000000000006,0)" xlink:href="#L"/><use transform="matrix(0.05,0,0,0.05,68.9,0)" xlink:href="#J"/><use transform="matrix(0.05,0,0,0.05,78.9,0)" xlink:href="#M"/></g><path d="M30 0v-248h33v221h125V0H30" id="av"/><path d="M115-194c53 0 69 39 70 98 0 66-23 100-70 100C84 3 66-7 56-30L54 0H23l1-261h32v101c10-23 28-34 59-34zm-8 174c40 0 45-34 45-75 0-40-5-75-45-74-42 0-51 32-51 76 0 43 10 73 51 73" id="aw"/><g id="z"><use transform="matrix(0.05,0,0,0.05,0,0)" xlink:href="#av"/><use transform="matrix(0.05,0,0,0.05,10,0)" xlink:href="#ae"/><use transform="matrix(0.05,0,0,0.05,20,0)" xlink:href="#aw"/></g><g id="A"><use transform="matrix(0.05,0,0,0.05,0,0)" xlink:href="#aa"/><use transform="matrix(0.05,0,0,0.05,12,0)" xlink:href="#af"/><use transform="matrix(0.05,0,0,0.05,17.95,0)" xlink:href="#ah"/><use transform="matrix(0.05,0,0,0.05,27.950000000000003,0)" xlink:href="#ad"/><use transform="matrix(0.05,0,0,0.05,36.95,0)" xlink:href="#P"/><use transform="matrix(0.05,0,0,0.05,46.95,0)" xlink:href="#ap"/><use transform="matrix(0.05,0,0,0.05,56.95,0)" xlink:href="#Y"/><use transform="matrix(0.05,0,0,0.05,66.95,0)" xlink:href="#af"/><use transform="matrix(0.05,0,0,0.05,72.9,0)" xlink:href="#P"/><use transform="matrix(0.05,0,0,0.05,82.9,0)" xlink:href="#T"/></g><g id="B"><use transform="matrix(0.05,0,0,0.05,0,0)" xlink:href="#F"/><use transform="matrix(0.05,0,0,0.05,12,0)" xlink:href="#G"/><use transform="matrix(0.05,0,0,0.05,22,0)" xlink:href="#H"/><use transform="matrix(0.05,0,0,0.05,27,0)" xlink:href="#I"/><use transform="matrix(0.05,0,0,0.05,37.95,0)" xlink:href="#J"/><use transform="matrix(0.05,0,0,0.05,47.95,0)" xlink:href="#K"/><use transform="matrix(0.05,0,0,0.05,58.900000000000006,0)" xlink:href="#L"/><use transform="matrix(0.05,0,0,0.05,68.9,0)" xlink:href="#J"/><use transform="matrix(0.05,0,0,0.05,78.9,0)" xlink:href="#M"/></g><path d="M63-220v92h138v28H63V0H30v-248h175v28H63" id="ax"/><g id="C"><use transform="matrix(0.05,0,0,0.05,0,0)" xlink:href="#ax"/><use transform="matrix(0.05,0,0,0.05,10.950000000000001,0)" xlink:href="#Z"/><use transform="matrix(0.05,0,0,0.05,14.9,0)" xlink:href="#R"/><use transform="matrix(0.05,0,0,0.05,23.900000000000002,0)" xlink:href="#ac"/><use transform="matrix(0.05,0,0,0.05,27.85,0)" xlink:href="#an"/><use transform="matrix(0.05,0,0,0.05,37.85,0)" xlink:href="#au"/></g><g id="D"><use transform="matrix(0.05,0,0,0.05,0,0)" xlink:href="#N"/><use transform="matrix(0.05,0,0,0.05,9.950000000000001,0)" xlink:href="#O"/><use transform="matrix(0.05,0,0,0.05,22.900000000000002,0)" xlink:href="#P"/><use transform="matrix(0.05,0,0,0.05,32.900000000000006,0)" xlink:href="#P"/><use transform="matrix(0.05,0,0,0.05,42.900000000000006,0)" xlink:href="#Q"/><use transform="matrix(0.05,0,0,0.05,47.900000000000006,0)" xlink:href="#R"/></g><path d="M185-189c-5-48-123-54-124 2 14 75 158 14 163 119 3 78-121 87-175 55-17-10-28-26-33-46l33-7c5 56 141 63 141-1 0-78-155-14-162-118-5-82 145-84 179-34 5 7 8 16 11 25" id="ay"/><g id="E"><use transform="matrix(0.05,0,0,0.05,0,0)" xlink:href="#ay"/><use transform="matrix(0.05,0,0,0.05,12,0)" xlink:href="#ac"/><use transform="matrix(0.05,0,0,0.05,15.949999999999998,0)" xlink:href="#au"/><use transform="matrix(0.05,0,0,0.05,25.950000000000003,0)" xlink:href="#ab"/><use transform="matrix(0.05,0,0,0.05,35.95,0)" xlink:href="#Q"/><use transform="matrix(0.05,0,0,0.05,40.95,0)" xlink:href="#ac"/><use transform="matrix(0.05,0,0,0.05,44.900000000000006,0)" xlink:href="#an"/><use transform="matrix(0.05,0,0,0.05,54.900000000000006,0)" xlink:href="#au"/><use transform="matrix(0.05,0,0,0.05,64.9,0)" xlink:href="#T"/></g></defs></g></svg>