<svg xmlns="http://www.w3.org/2000/svg" xmlns:xlink="http://www.w3.org/1999/xlink" xmlns:lucid="lucid" width="1609.2" height="865.2"><g transform="translate(0 0)" lucid:page-tab-id="0_0"><path d="M0 0h1609.2v865.2H0z" fill="#fff"/><path d="M731.5 280h200l20 20v80h-220z" stroke="#d9be60" stroke-width="2" fill="#ffdf71"/><path d="M931.5 280l20 20h-20z" fill="#d9be60"/><use xlink:href="#a" transform="matrix(1,0,0,1,736.5,284.9990520062199) translate(22.69999999999999 37.8)"/><use xlink:href="#b" transform="matrix(1,0,0,1,736.5,284.9990520062199) translate(99.45 37.8)"/><use xlink:href="#c" transform="matrix(1,0,0,1,736.5,284.9990520062199) translate(132.4 37.8)"/><use xlink:href="#d" transform="matrix(1,0,0,1,736.5,284.9990520062199) translate(24.599999999999994 59.4)"/><use xlink:href="#e" transform="matrix(1,0,0,1,736.5,284.9990520062199) translate(86.5 59.4)"/><use xlink:href="#f" transform="matrix(1,0,0,1,736.5,284.9990520062199) translate(104.45 59.4)"/><use xlink:href="#g" transform="matrix(1,0,0,1,736.5,284.9990520062199) translate(119.45 59.4)"/><path d="M722.92 178l.05 2.1.14 1.98.25 1.9.32 1.85.4 1.78.48 1.76.57 1.7.65 1.7.75 1.7.85 1.7.97 1.7 1.1 1.74 1.25 1.8 1.43 1.83 1.66 1.93 1.93 2.04 2.3 2.2 2.83 2.43 3.55 2.78 4.82 3.4 7.86 4.96 28.6 17.04 4.83 3.4 3.56 2.76 2.8 2.43 2.32 2.2 1.95 2.04 1.66 1.93 1.43 1.84 1.25 1.8 1.1 1.73.97 1.7.85 1.7.75 1.7.65 1.7.57 1.7.48 1.75.4 1.8.32 1.83.23 1.92.15 2L812 280" stroke="#000" stroke-width="2" fill="none"/><path d="M721.93 178.2l-.03-.2h1.02zM812 280l-7.23-13.14 9.1-1.74z"/><path d="M813 280h-2.14l-7.63-13.86 11.8-2.26zm-6.7-12.42l5.1 9.24 1.3-10.46z"/><path d="M760 440h205.83v98H760z" stroke="#000" stroke-width="2" fill="#fff"/><use xlink:href="#h" transform="matrix(1,0,0,1,764.9999999999999,444.99905200621987) translate(9.150000000000006 26)"/><use xlink:href="#i" transform="matrix(1,0,0,1,764.9999999999999,444.99905200621987) translate(63.10000000000001 26)"/><use xlink:href="#j" transform="matrix(1,0,0,1,764.9999999999999,444.99905200621987) translate(97.00000000000001 26)"/><use xlink:href="#k" transform="matrix(1,0,0,1,764.9999999999999,444.99905200621987) translate(158.9 26)"/><use xlink:href="#l" transform="matrix(1,0,0,1,764.9999999999999,444.99905200621987) translate(176.85 26)"/><use xlink:href="#m" transform="matrix(1,0,0,1,764.9999999999999,444.99905200621987) translate(40.074999999999996 47.6)"/><use xlink:href="#n" transform="matrix(1,0,0,1,764.9999999999999,444.99905200621987) translate(110.92500000000001 47.6)"/><use xlink:href="#o" transform="matrix(1,0,0,1,764.9999999999999,444.99905200621987) translate(130.925 47.6)"/><use xlink:href="#p" transform="matrix(1,0,0,1,764.9999999999999,444.99905200621987) translate(22.125 69.2)"/><use xlink:href="#q" transform="matrix(1,0,0,1,764.9999999999999,444.99905200621987) translate(69.025 69.2)"/><use xlink:href="#r" transform="matrix(1,0,0,1,764.9999999999999,444.99905200621987) translate(112.925 69.2)"/><path d="M620 80h205.83v98H620z" stroke="#000" stroke-width="2" fill="#fff"/><use xlink:href="#h" transform="matrix(1,0,0,1,624.9999999999999,84.99905200621998) translate(56.574999999999996 36.8)"/><use xlink:href="#s" transform="matrix(1,0,0,1,624.9999999999999,84.99905200621998) translate(110.525 36.8)"/><use xlink:href="#t" transform="matrix(1,0,0,1,624.9999999999999,84.99905200621998) translate(4.674999999999997 58.4)"/><use xlink:href="#k" transform="matrix(1,0,0,1,624.9999999999999,84.99905200621998) translate(66.575 58.4)"/><use xlink:href="#u" transform="matrix(1,0,0,1,624.9999999999999,84.99905200621998) translate(84.525 58.4)"/><use xlink:href="#v" transform="matrix(1,0,0,1,624.9999999999999,84.99905200621998) translate(99.525 58.4)"/><use xlink:href="#w" transform="matrix(1,0,0,1,624.9999999999999,84.99905200621998) translate(161.425 58.4)"/><path d="M670 0l3.8 6.08 4.8 6.7 7.87 9.58 15.8 18.42 3.35 4.67 2.4 3.85 1.88 3.48 1.52 3.3 1.25 3.24 1.03 3.28.83 3.4.64 3.56.44 3.84.22 4.2V79" stroke="#000" stroke-width="2" fill="none"/><path d="M715.83 79l-6.28-13.62 9.2-1.1z"/><path d="M716.65 80h-1.46l-7.13-15.45L720 63.13zm-5.6-13.8l4.4 9.6 2.06-10.36z"/><path d="M841.5 380l.25 6.07.6 4.8.88 4.07 1.16 3.8 1.62 4.06 8.43 17.46 1.16 3.8.88 4.08.6 4.8.25 6.06" stroke="#000" stroke-width="2" fill="none"/><path d="M840.5 380.1v-.1h1zM857.33 439l-6.23-13.64 9.2-1.06z"/><path d="M858.15 440h-1.46l-7.08-15.48 11.94-1.37zm-5.57-13.8l4.38 9.58 2.1-10.33z"/><path d="M980 700c0 44.18-35.82 80-80 80s-80-35.82-80-80 35.82-80 80-80 80 35.82 80 80z" stroke="#000" stroke-width="2" fill="#fff"/><use xlink:href="#x" transform="matrix(1,0,0,1,825,624.9978520182196) translate(33.05 57)"/><use xlink:href="#y" transform="matrix(1,0,0,1,825,624.9978520182196) translate(0.42499999999998295 78.60000000000001)"/><use xlink:href="#z" transform="matrix(1,0,0,1,825,624.9978520182196) translate(74.725 78.60000000000001)"/><use xlink:href="#A" transform="matrix(1,0,0,1,825,624.9978520182196) translate(116.625 78.60000000000001)"/><use xlink:href="#B" transform="matrix(1,0,0,1,825,624.9978520182196) translate(45.05 100.20000000000002)"/><path d="M862.92 538l.1 3.9.33 3.46.48 3.15.63 2.92.77 2.74.92 2.63 1.08 2.56 1.27 2.58 1.52 2.67 1.9 2.9 2.58 3.47 5.3 6.2 8.6 9.86 2.6 3.46 1.9 2.9 1.52 2.66 1.27 2.57 1.07 2.58.9 2.63.78 2.74.63 2.92.5 3.14.3 3.47.12 3.9" stroke="#000" stroke-width="2" fill="none"/><path d="M861.93 538.13l-.02-.13h1.03zM900 620l-6.45-13.55 9.2-1.2z"/><path d="M901 620.03l-1-.03h-.68l-.42.02-6.84-14.38 11.92-1.56zm-5.95-12.76l4.53 9.52 1.93-10.38z"/><path d="M460 280h200l20 20v80H460z" stroke="#d9be60" stroke-width="2" fill="#ffdf71"/><path d="M660 280l20 20h-20z" fill="#d9be60"/><use xlink:href="#a" transform="matrix(1,0,0,1,465,284.9990520062199) translate(22.69999999999999 37.8)"/><use xlink:href="#b" transform="matrix(1,0,0,1,465,284.9990520062199) translate(99.45 37.8)"/><use xlink:href="#c" transform="matrix(1,0,0,1,465,284.9990520062199) translate(132.4 37.8)"/><use xlink:href="#d" transform="matrix(1,0,0,1,465,284.9990520062199) translate(13.599999999999994 59.4)"/><use xlink:href="#e" transform="matrix(1,0,0,1,465,284.9990520062199) translate(75.5 59.4)"/><use xlink:href="#C" transform="matrix(1,0,0,1,465,284.9990520062199) translate(93.45 59.4)"/><path d="M722.92 178l-.03 1.45-.1 1.4-.16 1.37-.2 1.33-.26 1.3-.3 1.28-.38 1.27-.43 1.26-.48 1.26-.57 1.26-.62 1.26-.7 1.3-.78 1.3-.9 1.32-1 1.37-1.12 1.4-1.28 1.48-1.47 1.55-1.7 1.62-1.96 1.73-2.34 1.88-2.78 2.05-3.44 2.3-4.38 2.67-6 3.3-9.75 4.82-38.4 17.78-6 3.3-4.4 2.67-3.42 2.3-2.8 2.05-2.3 1.87-1.98 1.73-1.7 1.62-1.46 1.54-1.3 1.46-1.12 1.4-1 1.38-.88 1.33-.8 1.3-.7 1.28-.62 1.27-.55 1.26-.5 1.26-.4 1.26-.38 1.27-.33 1.28-.26 1.3-.2 1.33-.14 1.36-.1 1.4-.02 1.46" stroke="#000" stroke-width="2" fill="none"/><path d="M723.9 178.24l-1-.24h1.05zM615.9 267.23L608.05 280l-1.14-14.96z"/><path d="M617.48 266.58L609.2 280h-2.16l-1.24-16.25zm-8.68 10.27l5.53-8.97-6.33-1.54z"/><path d="M452.17 440H658v98H452.17z" stroke="#000" stroke-width="2" fill="#fff"/><g><use xlink:href="#D" transform="matrix(1,0,0,1,457.16666666666686,444.9977393985389) translate(30.625 36.8)"/><use xlink:href="#j" transform="matrix(1,0,0,1,457.16666666666686,444.9977393985389) translate(90.525 36.8)"/><use xlink:href="#E" transform="matrix(1,0,0,1,457.16666666666686,444.9977393985389) translate(152.425 36.8)"/><use xlink:href="#F" transform="matrix(1,0,0,1,457.16666666666686,444.9977393985389) translate(39.599999999999994 58.4)"/><use xlink:href="#G" transform="matrix(1,0,0,1,457.16666666666686,444.9977393985389) translate(122.45 58.4)"/></g><path d="M570 380l-.2 4.53-.47 3.8-.7 3.3-.94 3.05-1.18 2.94-1.55 3.06-2.33 3.77-9.6 13.87-1.56 3.06-1.17 2.93-.92 3.05-.7 3.32-.5 3.8L548 439" stroke="#000" stroke-width="2" fill="none"/><path d="M571 380.16l-1-.16h1zM554.8 425.63L548 439l-2.35-14.82z"/><path d="M556.32 424.86l-7.7 15.14h-1.47l-2.7-17.02zm-7.8 10.94l4.77-9.4-6.45-1z"/><path d="M540 698c0 44.18-35.82 80-80 80s-80-35.82-80-80c0-44.2 35.82-80 80-80s80 35.8 80 80z" stroke="#000" stroke-width="2" fill="#fff"/><g><use xlink:href="#H" transform="matrix(1,0,0,1,385,622.9977393985389) translate(33.05 57)"/><use xlink:href="#I" transform="matrix(1,0,0,1,385,622.9977393985389) translate(24.549999999999997 78.60000000000001)"/><use xlink:href="#J" transform="matrix(1,0,0,1,385,622.9977393985389) translate(96.45 78.60000000000001)"/><use xlink:href="#K" transform="matrix(1,0,0,1,385,622.9977393985389) translate(51.55 100.20000000000002)"/></g><path d="M555.08 538l-.03 1.3-.1 1.25-.16 1.2-.23 1.2-.28 1.16-.35 1.16-.4 1.15-.5 1.15-.54 1.16-.63 1.18-.74 1.2-.85 1.23-1 1.28-1.14 1.34-1.35 1.4-1.6 1.52-1.94 1.64-2.37 1.8-3.02 2.04-3.96 2.4-5.67 3.03-10.3 4.8-31.12 13.7-5.67 3.03-3.96 2.4-3 2.04-2.38 1.8-1.93 1.64-1.6 1.5-1.36 1.42-1.15 1.33-1 1.3-.85 1.22-.74 1.2-.62 1.17-.56 1.14-.48 1.15-.4 1.13-.35 1.15-.3 1.17-.2 1.18-.17 1.2-.1 1.27-.03 1.3" stroke="#000" stroke-width="2" fill="none"/><path d="M556.03 538.3l-.95-.3h1.06zM468.85 605.9L460 618l.04-15z"/><path d="M470.47 605.37l-9.26 12.67-1.2-.04h-1l.05-16.38zm-9.46 9.55l6.23-8.5-6.2-2.04z"/><path d="M1020 276h300v126h-300z" stroke="#000" stroke-width="2" fill="#a3d977"/><path d="M1050 276v126m240-126v126" stroke="#000" stroke-width="2" fill="none"/><g><use xlink:href="#L" transform="matrix(1,0,0,1,1057.5,275.9990520062199) translate(28.69999999999999 23.39999999999999)"/><use xlink:href="#M" transform="matrix(1,0,0,1,1057.5,275.9990520062199) translate(113.55 23.39999999999999)"/><use xlink:href="#N" transform="matrix(1,0,0,1,1057.5,275.9990520062199) translate(163.4 23.39999999999999)"/><use xlink:href="#O" transform="matrix(1,0,0,1,1057.5,275.9990520062199) translate(178.4 23.39999999999999)"/><use xlink:href="#P" transform="matrix(1,0,0,1,1057.5,275.9990520062199) translate(28.025000000000006 44.99999999999999)"/><use xlink:href="#Q" transform="matrix(1,0,0,1,1057.5,275.9990520062199) translate(87.025 44.99999999999999)"/><use xlink:href="#R" transform="matrix(1,0,0,1,1057.5,275.9990520062199) translate(122.025 44.99999999999999)"/><use xlink:href="#S" transform="matrix(1,0,0,1,1057.5,275.9990520062199) translate(186.975 44.99999999999999)"/><use xlink:href="#T" transform="matrix(1,0,0,1,1057.5,275.9990520062199) translate(0.6999999999999886 66.6)"/><use xlink:href="#U" transform="matrix(1,0,0,1,1057.5,275.9990520062199) translate(62.599999999999994 66.6)"/><use xlink:href="#V" transform="matrix(1,0,0,1,1057.5,275.9990520062199) translate(97.5 66.6)"/><use xlink:href="#W" transform="matrix(1,0,0,1,1057.5,275.9990520062199) translate(138.4 66.6)"/><use xlink:href="#X" transform="matrix(1,0,0,1,1057.5,275.9990520062199) translate(185.3 66.6)"/><use xlink:href="#Y" transform="matrix(1,0,0,1,1057.5,275.9990520062199) translate(6.574999999999989 88.20000000000002)"/><use xlink:href="#Z" transform="matrix(1,0,0,1,1057.5,275.9990520062199) translate(51.57499999999999 88.20000000000002)"/><use xlink:href="#aa" transform="matrix(1,0,0,1,1057.5,275.9990520062199) translate(126.475 88.20000000000002)"/><use xlink:href="#ab" transform="matrix(1,0,0,1,1057.5,275.9990520062199) translate(166.475 88.20000000000002)"/><use xlink:href="#ac" transform="matrix(1,0,0,1,1057.5,275.9990520062199) translate(86.525 109.80000000000001)"/><use xlink:href="#ad" transform="matrix(1,0,0,1,1057.5,275.9990520062199) translate(120.525 109.80000000000001)"/></g><path d="M722.92 178v.34l.02.33.04.33.05.34.06.33.07.34.1.36.1.34.14.36.17.36.17.38.2.38.23.4.27.4.3.45.35.45.38.48.46.5.53.55.62.6.72.62.86.7 1.03.73 1.26.83 1.52.92 1.88 1.03 2.37 1.17 3.06 1.36 4.03 1.6 5.5 1.9 7.8 2.35 11.7 3 19.03 4 36.1 6 280.9 35.6 19.03 4 11.68 3 7.8 2.33 5.5 1.9 4.04 1.6 3.06 1.36 2.38 1.17 1.88 1.03 1.52.92 1.24.83 1.03.74.86.67.72.63.62.58.53.55.46.5.4.5.35.44.3.43.26.42.23.4.2.38.18.38.15.36.13.35.12.34.1.35.07.32.07.34.04.33.03.33.02.33v.34" stroke="#000" stroke-width="2" fill="none"/><path d="M722.13 178.62l-.48-.62h1.27zM1170 276l-12.44-8.38 7.3-5.7z"/><path d="M1171.06 276h-2.85l-12.34-8.32 9.47-7.4zm-11.8-8.44l8.75 5.9-3.6-9.92z"/><path d="M746 698c0 44.18-35.82 80-80 80s-80-35.82-80-80c0-44.2 35.82-80 80-80s80 35.8 80 80z" stroke="#000" stroke-width="2" fill="#fff"/><g><use xlink:href="#ae" transform="matrix(1,0,0,1,591,622.9977393985389) translate(33.05 57)"/><use xlink:href="#af" transform="matrix(1,0,0,1,591,622.9977393985389) translate(20.125 78.60000000000001)"/><use xlink:href="#ag" transform="matrix(1,0,0,1,591,622.9977393985389) translate(72.975 78.60000000000001)"/><use xlink:href="#ah" transform="matrix(1,0,0,1,591,622.9977393985389) translate(38.05 100.20000000000002)"/></g><path d="M555.08 538l.02.96.07.93.1.9.14.9.2.9.22.86.26.87.3.87.36.88.4.88.46.9.52.9.6.93.65.95.76 1 .87 1 1 1.1 1.13 1.13 1.33 1.2 1.57 1.3 1.85 1.4 2.25 1.54 2.77 1.72 3.53 1.98 4.7 2.35 6.85 3.06 13.62 5.32 31.5 11.82 6.85 3.05 4.7 2.36 3.53 1.98 2.77 1.72 2.25 1.54 1.86 1.4 1.56 1.3 1.33 1.2 1.15 1.13 1 1.08.85 1.03.76 1 .68.95.6.94.5.9.46.9.4.88.36.87.3.86.27.87.22.88.17.9.14.9.12.9.06.94.02.96" stroke="#000" stroke-width="2" fill="none"/><path d="M554.15 538.35l-.13-.35h1.07zM666 618l-9.34-11.74 8.68-3.25z"/><path d="M667 618.03l-1-.03h-.68l-.58.02-9.72-12.2 11.26-4.23zm-8.7-11.3l6.57 8.24-.47-10.54z"/><path d="M1203 472.5c0 17.95-14.77 32.5-33 32.5s-33-14.55-33-32.5 14.77-32.5 33-32.5 33 14.55 33 32.5z" stroke="#000" stroke-width="2" fill="#ccc"/><path d="M1170 402v37" stroke="#000" stroke-width="2" fill="none"/><path d="M1171 402h-2 2zM1170 439l-4.64-14.27h9.28z"/><path d="M1170.7 440.05l-.7-.05-.72.02-5.3-16.3h12.03zm-3.96-14.32l3.26 10.03 3.26-10.03z"/><defs><path d="M240-174c0 40-23 61-54 70L253 0h-59l-57-94H76V0H24v-248c93 4 217-23 216 74zM76-134c48-2 112 12 112-38 0-48-66-32-112-35v73" id="ai"/><path d="M185-48c-13 30-37 53-82 52C43 2 14-33 14-96s30-98 90-98c62 0 83 45 84 108H66c0 31 8 55 39 56 18 0 30-7 34-22zm-45-69c5-46-57-63-70-21-2 6-4 13-4 21h74" id="aj"/><path d="M135-194c52 0 70 43 70 98 0 56-19 99-73 100-30 1-46-15-58-35L72 0H24l1-261h50v104c11-23 29-37 60-37zM114-30c31 0 40-27 40-66 0-37-7-63-39-63s-41 28-41 65c0 36 8 64 40 64" id="ak"/><path d="M85 4C-2 5 27-109 22-190h50c7 57-23 150 33 157 60-5 35-97 40-157h50l1 190h-47c-2-12 1-28-3-38-12 25-28 42-61 42" id="al"/><path d="M115-3C79 11 28 4 28-45v-112H4v-33h27l15-45h31v45h36v33H77v99c-1 23 16 31 38 25v30" id="am"/><path d="M133-34C117-15 103 5 69 4 32 3 11-16 11-54c-1-60 55-63 116-61 1-26-3-47-28-47-18 1-26 9-28 27l-52-2c7-38 36-58 82-57s74 22 75 68l1 82c-1 14 12 18 25 15v27c-30 8-71 5-69-32zm-48 3c29 0 43-24 42-57-32 0-66-3-65 30 0 17 8 27 23 27" id="an"/><path d="M25 0v-261h50V0H25" id="ao"/><g id="a"><use transform="matrix(0.05,0,0,0.05,0,0)" xlink:href="#ai"/><use transform="matrix(0.05,0,0,0.05,12.950000000000001,0)" xlink:href="#aj"/><use transform="matrix(0.05,0,0,0.05,22.950000000000003,0)" xlink:href="#ak"/><use transform="matrix(0.05,0,0,0.05,33.900000000000006,0)" xlink:href="#al"/><use transform="matrix(0.05,0,0,0.05,44.85000000000001,0)" xlink:href="#am"/><use transform="matrix(0.05,0,0,0.05,50.80000000000001,0)" xlink:href="#am"/><use transform="matrix(0.05,0,0,0.05,56.750000000000014,0)" xlink:href="#an"/><use transform="matrix(0.05,0,0,0.05,66.75000000000001,0)" xlink:href="#ao"/></g><path d="M233-177c-1 41-23 64-60 70L243 0h-38l-65-103H63V0H30v-248c88 3 205-21 203 71zM63-129c60-2 137 13 137-47 0-61-80-42-137-45v92" id="ap"/><path d="M27 0v-27h64v-190l-56 39v-29l58-41h29v221h61V0H27" id="aq"/><path d="M33-154v-36h34v36H33zM33 0v-36h34V0H33" id="ar"/><g id="b"><use transform="matrix(0.05,0,0,0.05,0,0)" xlink:href="#ap"/><use transform="matrix(0.05,0,0,0.05,12.950000000000001,0)" xlink:href="#aq"/><use transform="matrix(0.05,0,0,0.05,22.950000000000003,0)" xlink:href="#ar"/></g><path d="M232-93c-1 65-40 97-104 97C67 4 28-28 28-90v-158h33c8 89-33 224 67 224 102 0 64-133 71-224h33v155" id="as"/><path d="M117-194c89-4 53 116 60 194h-32v-121c0-31-8-49-39-48C34-167 62-67 57 0H25l-1-190h30c1 10-1 24 2 32 11-22 29-35 61-36" id="at"/><path d="M24 0v-261h32V0H24" id="au"/><path d="M100-194c63 0 86 42 84 106H49c0 40 14 67 53 68 26 1 43-12 49-29l28 8c-11 28-37 45-77 45C44 4 14-33 15-96c1-61 26-98 85-98zm52 81c6-60-76-77-97-28-3 7-6 17-6 28h103" id="av"/><path d="M135-143c-3-34-86-38-87 0 15 53 115 12 119 90S17 21 10-45l28-5c4 36 97 45 98 0-10-56-113-15-118-90-4-57 82-63 122-42 12 7 21 19 24 35" id="aw"/><g id="c"><use transform="matrix(0.05,0,0,0.05,0,0)" xlink:href="#as"/><use transform="matrix(0.05,0,0,0.05,12.950000000000001,0)" xlink:href="#at"/><use transform="matrix(0.05,0,0,0.05,22.950000000000003,0)" xlink:href="#au"/><use transform="matrix(0.05,0,0,0.05,26.900000000000002,0)" xlink:href="#av"/><use transform="matrix(0.05,0,0,0.05,36.900000000000006,0)" xlink:href="#aw"/><use transform="matrix(0.05,0,0,0.05,45.900000000000006,0)" xlink:href="#aw"/></g><path d="M127-220V0H93v-220H8v-28h204v28h-85" id="ax"/><path d="M206 0h-36l-40-164L89 0H53L-1-190h32L70-26l43-164h34l41 164 42-164h31" id="ay"/><path d="M59-47c-2 24 18 29 38 22v24C64 9 27 4 27-40v-127H5v-23h24l9-43h21v43h35v23H59v120" id="az"/><path d="M179-190L93 31C79 59 56 82 12 73V49c39 6 53-20 64-50L1-190h34L92-34l54-156h33" id="aA"/><g id="d"><use transform="matrix(0.05,0,0,0.05,0,0)" xlink:href="#ax"/><use transform="matrix(0.05,0,0,0.05,9.950000000000001,0)" xlink:href="#ay"/><use transform="matrix(0.05,0,0,0.05,22.900000000000002,0)" xlink:href="#av"/><use transform="matrix(0.05,0,0,0.05,32.900000000000006,0)" xlink:href="#av"/><use transform="matrix(0.05,0,0,0.05,42.900000000000006,0)" xlink:href="#az"/><use transform="matrix(0.05,0,0,0.05,47.900000000000006,0)" xlink:href="#aA"/></g><path d="M24-231v-30h32v30H24zM24 0v-190h32V0H24" id="aB"/><g id="e"><use transform="matrix(0.05,0,0,0.05,0,0)" xlink:href="#aB"/><use transform="matrix(0.05,0,0,0.05,3.95,0)" xlink:href="#aw"/></g><path d="M141-36C126-15 110 5 73 4 37 3 15-17 15-53c-1-64 63-63 125-63 3-35-9-54-41-54-24 1-41 7-42 31l-33-3c5-37 33-52 76-52 45 0 72 20 72 64v82c-1 20 7 32 28 27v20c-31 9-61-2-59-35zM48-53c0 20 12 33 32 33 41-3 63-29 60-74-43 2-92-5-92 41" id="aC"/><use transform="matrix(0.05,0,0,0.05,0,0)" xlink:href="#aC" id="f"/><path d="M30-248c87 1 191-15 191 75 0 78-77 80-158 76V0H30v-248zm33 125c57 0 124 11 124-50 0-59-68-47-124-48v98" id="aD"/><path d="M177-190C167-65 218 103 67 71c-23-6-38-20-44-43l32-5c15 47 100 32 89-28v-30C133-14 115 1 83 1 29 1 15-40 15-95c0-56 16-97 71-98 29-1 48 16 59 35 1-10 0-23 2-32h30zM94-22c36 0 50-32 50-73 0-42-14-75-50-75-39 0-46 34-46 75s6 73 46 73" id="aE"/><path d="M84 4C-5 8 30-112 23-190h32v120c0 31 7 50 39 49 72-2 45-101 50-169h31l1 190h-30c-1-10 1-25-2-33-11 22-28 36-60 37" id="aF"/><g id="g"><use transform="matrix(0.05,0,0,0.05,0,0)" xlink:href="#aD"/><use transform="matrix(0.05,0,0,0.05,12,0)" xlink:href="#av"/><use transform="matrix(0.05,0,0,0.05,22,0)" xlink:href="#at"/><use transform="matrix(0.05,0,0,0.05,32,0)" xlink:href="#aE"/><use transform="matrix(0.05,0,0,0.05,42,0)" xlink:href="#aF"/><use transform="matrix(0.05,0,0,0.05,52,0)" xlink:href="#aB"/><use transform="matrix(0.05,0,0,0.05,55.95,0)" xlink:href="#at"/></g><path d="M67-125c0 53 21 87 73 88 37 1 54-22 65-47l45 17C233-25 199 4 140 4 58 4 20-42 15-125 8-235 124-281 211-232c18 10 29 29 36 50l-46 12c-8-25-30-41-62-41-52 0-71 34-72 86" id="aG"/><path d="M25-224v-37h50v37H25zM25 0v-190h50V0H25" id="aH"/><path d="M220-157c-53 9-28 100-34 157h-49v-107c1-27-5-49-29-50C55-147 81-57 75 0H25l-1-190h47c2 12-1 28 3 38 10-53 101-56 108 0 13-22 24-43 59-42 82 1 51 116 57 194h-49v-107c-1-25-5-48-29-50" id="aI"/><g id="h"><use transform="matrix(0.05,0,0,0.05,0,0)" xlink:href="#aG"/><use transform="matrix(0.05,0,0,0.05,12.950000000000001,0)" xlink:href="#ao"/><use transform="matrix(0.05,0,0,0.05,17.950000000000003,0)" xlink:href="#an"/><use transform="matrix(0.05,0,0,0.05,27.950000000000003,0)" xlink:href="#aH"/><use transform="matrix(0.05,0,0,0.05,32.95,0)" xlink:href="#aI"/></g><path d="M182-182c0 78-84 86-111 141h115V0H12c-6-101 99-100 120-180 1-22-12-31-33-32-23 0-32 14-35 34l-49-3c5-45 32-70 84-70 51 0 83 22 83 69" id="aJ"/><path d="M35-132v-50h50v50H35zM35 0v-49h50V0H35" id="aK"/><g id="i"><use transform="matrix(0.05,0,0,0.05,0,0)" xlink:href="#aG"/><use transform="matrix(0.05,0,0,0.05,12.950000000000001,0)" xlink:href="#aJ"/><use transform="matrix(0.05,0,0,0.05,22.950000000000003,0)" xlink:href="#aK"/></g><g id="j"><use transform="matrix(0.05,0,0,0.05,0,0)" xlink:href="#ax"/><use transform="matrix(0.05,0,0,0.05,9.950000000000001,0)" xlink:href="#ay"/><use transform="matrix(0.05,0,0,0.05,22.900000000000002,0)" xlink:href="#av"/><use transform="matrix(0.05,0,0,0.05,32.900000000000006,0)" xlink:href="#av"/><use transform="matrix(0.05,0,0,0.05,42.900000000000006,0)" xlink:href="#az"/><use transform="matrix(0.05,0,0,0.05,47.900000000000006,0)" xlink:href="#aA"/></g><g id="k"><use transform="matrix(0.05,0,0,0.05,0,0)" xlink:href="#aB"/><use transform="matrix(0.05,0,0,0.05,3.95,0)" xlink:href="#aw"/></g><use transform="matrix(0.05,0,0,0.05,0,0)" xlink:href="#aC" id="l"/><path d="M210-169c-67 3-38 105-44 169h-31v-121c0-29-5-50-35-48C34-165 62-65 56 0H25l-1-190h30c1 10-1 24 2 32 10-44 99-50 107 0 11-21 27-35 58-36 85-2 47 119 55 194h-31v-121c0-29-5-49-35-48" id="aL"/><path d="M115-194c53 0 69 39 70 98 0 66-23 100-70 100C84 3 66-7 56-30L54 0H23l1-261h32v101c10-23 28-34 59-34zm-8 174c40 0 45-34 45-75 0-40-5-75-45-74-42 0-51 32-51 76 0 43 10 73 51 73" id="aM"/><path d="M114-163C36-179 61-72 57 0H25l-1-190h30c1 12-1 29 2 39 6-27 23-49 58-41v29" id="aN"/><g id="m"><use transform="matrix(0.05,0,0,0.05,0,0)" xlink:href="#aL"/><use transform="matrix(0.05,0,0,0.05,14.950000000000001,0)" xlink:href="#av"/><use transform="matrix(0.05,0,0,0.05,24.950000000000003,0)" xlink:href="#aL"/><use transform="matrix(0.05,0,0,0.05,39.900000000000006,0)" xlink:href="#aM"/><use transform="matrix(0.05,0,0,0.05,49.900000000000006,0)" xlink:href="#av"/><use transform="matrix(0.05,0,0,0.05,59.900000000000006,0)" xlink:href="#aN"/></g><path d="M100-194c62-1 85 37 85 99 1 63-27 99-86 99S16-35 15-95c0-66 28-99 85-99zM99-20c44 1 53-31 53-75 0-43-8-75-51-75s-53 32-53 75 10 74 51 75" id="aO"/><path d="M101-234c-31-9-42 10-38 44h38v23H63V0H32v-167H5v-23h27c-7-52 17-82 69-68v24" id="aP"/><g id="n"><use transform="matrix(0.05,0,0,0.05,0,0)" xlink:href="#aO"/><use transform="matrix(0.05,0,0,0.05,10,0)" xlink:href="#aP"/></g><path d="M106-169C34-169 62-67 57 0H25v-261h32l-1 103c12-21 28-36 61-36 89 0 53 116 60 194h-32v-121c2-32-8-49-39-48" id="aQ"/><g id="o"><use transform="matrix(0.05,0,0,0.05,0,0)" xlink:href="#az"/><use transform="matrix(0.05,0,0,0.05,5,0)" xlink:href="#aQ"/><use transform="matrix(0.05,0,0,0.05,15,0)" xlink:href="#av"/></g><g id="p"><use transform="matrix(0.05,0,0,0.05,0,0)" xlink:href="#aP"/><use transform="matrix(0.05,0,0,0.05,5,0)" xlink:href="#au"/><use transform="matrix(0.05,0,0,0.05,8.95,0)" xlink:href="#aA"/><use transform="matrix(0.05,0,0,0.05,17.95,0)" xlink:href="#aB"/><use transform="matrix(0.05,0,0,0.05,21.9,0)" xlink:href="#at"/><use transform="matrix(0.05,0,0,0.05,31.899999999999995,0)" xlink:href="#aE"/></g><path d="M85-194c31 0 48 13 60 33l-1-100h32l1 261h-30c-2-10 0-23-3-31C134-8 116 4 85 4 32 4 16-35 15-94c0-66 23-100 70-100zm9 24c-40 0-46 34-46 75 0 40 6 74 45 74 42 0 51-32 51-76 0-42-9-74-50-73" id="aR"/><g id="q"><use transform="matrix(0.05,0,0,0.05,0,0)" xlink:href="#aM"/><use transform="matrix(0.05,0,0,0.05,10,0)" xlink:href="#aB"/><use transform="matrix(0.05,0,0,0.05,13.949999999999998,0)" xlink:href="#aN"/><use transform="matrix(0.05,0,0,0.05,19.9,0)" xlink:href="#aR"/><use transform="matrix(0.05,0,0,0.05,29.899999999999995,0)" xlink:href="#aw"/></g><path d="M115-194c55 1 70 41 70 98S169 2 115 4C84 4 66-9 55-30l1 105H24l-1-265h31l2 30c10-21 28-34 59-34zm-8 174c40 0 45-34 45-75s-6-73-45-74c-42 0-51 32-51 76 0 43 10 73 51 73" id="aS"/><path d="M96-169c-40 0-48 33-48 73s9 75 48 75c24 0 41-14 43-38l32 2c-6 37-31 61-74 61-59 0-76-41-82-99-10-93 101-131 147-64 4 7 5 14 7 22l-32 3c-4-21-16-35-41-35" id="aT"/><g id="r"><use transform="matrix(0.05,0,0,0.05,0,0)" xlink:href="#aw"/><use transform="matrix(0.05,0,0,0.05,9,0)" xlink:href="#aS"/><use transform="matrix(0.05,0,0,0.05,19,0)" xlink:href="#av"/><use transform="matrix(0.05,0,0,0.05,29,0)" xlink:href="#aT"/><use transform="matrix(0.05,0,0,0.05,38,0)" xlink:href="#aB"/><use transform="matrix(0.05,0,0,0.05,41.95,0)" xlink:href="#av"/><use transform="matrix(0.05,0,0,0.05,51.95,0)" xlink:href="#aw"/></g><g id="s"><use transform="matrix(0.05,0,0,0.05,0,0)" xlink:href="#aG"/><use transform="matrix(0.05,0,0,0.05,12.950000000000001,0)" xlink:href="#aJ"/><use transform="matrix(0.05,0,0,0.05,22.950000000000003,0)" xlink:href="#aK"/></g><g id="t"><use transform="matrix(0.05,0,0,0.05,0,0)" xlink:href="#ax"/><use transform="matrix(0.05,0,0,0.05,9.950000000000001,0)" xlink:href="#ay"/><use transform="matrix(0.05,0,0,0.05,22.900000000000002,0)" xlink:href="#av"/><use transform="matrix(0.05,0,0,0.05,32.900000000000006,0)" xlink:href="#av"/><use transform="matrix(0.05,0,0,0.05,42.900000000000006,0)" xlink:href="#az"/><use transform="matrix(0.05,0,0,0.05,47.900000000000006,0)" xlink:href="#aA"/></g><use transform="matrix(0.05,0,0,0.05,0,0)" xlink:href="#aC" id="u"/><g id="v"><use transform="matrix(0.05,0,0,0.05,0,0)" xlink:href="#ay"/><use transform="matrix(0.05,0,0,0.05,12.950000000000001,0)" xlink:href="#aB"/><use transform="matrix(0.05,0,0,0.05,16.900000000000002,0)" xlink:href="#at"/><use transform="matrix(0.05,0,0,0.05,26.900000000000002,0)" xlink:href="#aE"/><use transform="matrix(0.05,0,0,0.05,36.900000000000006,0)" xlink:href="#av"/><use transform="matrix(0.05,0,0,0.05,46.900000000000006,0)" xlink:href="#aR"/></g><g id="w"><use transform="matrix(0.05,0,0,0.05,0,0)" xlink:href="#aM"/><use transform="matrix(0.05,0,0,0.05,10,0)" xlink:href="#aB"/><use transform="matrix(0.05,0,0,0.05,13.949999999999998,0)" xlink:href="#aN"/><use transform="matrix(0.05,0,0,0.05,19.9,0)" xlink:href="#aR"/></g><path d="M24 0v-248h195v40H76v63h132v40H76v65h150V0H24" id="aU"/><path d="M128 0H69L1-190h53L99-40l48-150h52" id="aV"/><path d="M88-194c31-1 46 15 58 34l-1-101h50l1 261h-48c-2-10 0-23-3-31C134-8 116 4 84 4 32 4 16-41 15-95c0-56 19-97 73-99zm17 164c33 0 40-30 41-66 1-37-9-64-41-64s-38 30-39 65c0 43 13 65 39 65" id="aW"/><path d="M135-194c87-1 58 113 63 194h-50c-7-57 23-157-34-157-59 0-34 97-39 157H25l-1-190h47c2 12-1 28 3 38 12-26 28-41 61-42" id="aX"/><path d="M190-63c-7 42-38 67-86 67-59 0-84-38-90-98-12-110 154-137 174-36l-49 2c-2-19-15-32-35-32-30 0-35 28-38 64-6 74 65 87 74 30" id="aY"/><g id="x"><use transform="matrix(0.05,0,0,0.05,0,0)" xlink:href="#aU"/><use transform="matrix(0.05,0,0,0.05,12,0)" xlink:href="#aV"/><use transform="matrix(0.05,0,0,0.05,22,0)" xlink:href="#aH"/><use transform="matrix(0.05,0,0,0.05,27,0)" xlink:href="#aW"/><use transform="matrix(0.05,0,0,0.05,37.95,0)" xlink:href="#aj"/><use transform="matrix(0.05,0,0,0.05,47.95,0)" xlink:href="#aX"/><use transform="matrix(0.05,0,0,0.05,58.900000000000006,0)" xlink:href="#aY"/><use transform="matrix(0.05,0,0,0.05,68.9,0)" xlink:href="#aj"/><use transform="matrix(0.05,0,0,0.05,78.9,0)" xlink:href="#ar"/></g><path d="M47-170H22l-4-78h33" id="aZ"/><g id="y"><use transform="matrix(0.05,0,0,0.05,0,0)" xlink:href="#ax"/><use transform="matrix(0.05,0,0,0.05,9.950000000000001,0)" xlink:href="#ay"/><use transform="matrix(0.05,0,0,0.05,22.900000000000002,0)" xlink:href="#av"/><use transform="matrix(0.05,0,0,0.05,32.900000000000006,0)" xlink:href="#av"/><use transform="matrix(0.05,0,0,0.05,42.900000000000006,0)" xlink:href="#az"/><use transform="matrix(0.05,0,0,0.05,47.900000000000006,0)" xlink:href="#aA"/><use transform="matrix(0.05,0,0,0.05,56.900000000000006,0)" xlink:href="#aZ"/><use transform="matrix(0.05,0,0,0.05,60.300000000000004,0)" xlink:href="#aw"/></g><path d="M30-248c118-7 216 8 213 122C240-48 200 0 122 0H30v-248zM63-27c89 8 146-16 146-99s-60-101-146-95v194" id="ba"/><path d="M190 0L58-211 59 0H30v-248h39L202-35l-2-213h31V0h-41" id="bb"/><path d="M205 0l-28-72H64L36 0H1l101-248h38L239 0h-34zm-38-99l-47-123c-12 45-31 82-46 123h93" id="bc"/><g id="z"><use transform="matrix(0.05,0,0,0.05,0,0)" xlink:href="#ba"/><use transform="matrix(0.05,0,0,0.05,12.950000000000001,0)" xlink:href="#bb"/><use transform="matrix(0.05,0,0,0.05,25.900000000000002,0)" xlink:href="#bc"/></g><g id="A"><use transform="matrix(0.05,0,0,0.05,0,0)" xlink:href="#ax"/><use transform="matrix(0.05,0,0,0.05,8.950000000000001,0)" xlink:href="#av"/><use transform="matrix(0.05,0,0,0.05,18.950000000000003,0)" xlink:href="#aw"/><use transform="matrix(0.05,0,0,0.05,27.950000000000003,0)" xlink:href="#az"/></g><g id="B"><use transform="matrix(0.05,0,0,0.05,0,0)" xlink:href="#ap"/><use transform="matrix(0.05,0,0,0.05,12.950000000000001,0)" xlink:href="#av"/><use transform="matrix(0.05,0,0,0.05,22.950000000000003,0)" xlink:href="#aw"/><use transform="matrix(0.05,0,0,0.05,31.950000000000003,0)" xlink:href="#aF"/><use transform="matrix(0.05,0,0,0.05,41.95,0)" xlink:href="#au"/><use transform="matrix(0.05,0,0,0.05,45.900000000000006,0)" xlink:href="#az"/><use transform="matrix(0.05,0,0,0.05,50.900000000000006,0)" xlink:href="#aw"/></g><g id="C"><use transform="matrix(0.05,0,0,0.05,0,0)" xlink:href="#aQ"/><use transform="matrix(0.05,0,0,0.05,10,0)" xlink:href="#aC"/><use transform="matrix(0.05,0,0,0.05,20,0)" xlink:href="#at"/><use transform="matrix(0.05,0,0,0.05,30,0)" xlink:href="#aR"/><use transform="matrix(0.05,0,0,0.05,40,0)" xlink:href="#aB"/><use transform="matrix(0.05,0,0,0.05,43.95,0)" xlink:href="#aT"/><use transform="matrix(0.05,0,0,0.05,52.95,0)" xlink:href="#aC"/><use transform="matrix(0.05,0,0,0.05,62.95,0)" xlink:href="#aS"/><use transform="matrix(0.05,0,0,0.05,72.95,0)" xlink:href="#aS"/><use transform="matrix(0.05,0,0,0.05,82.95,0)" xlink:href="#av"/><use transform="matrix(0.05,0,0,0.05,92.95,0)" xlink:href="#aR"/></g><g id="D"><use transform="matrix(0.05,0,0,0.05,0,0)" xlink:href="#aG"/><use transform="matrix(0.05,0,0,0.05,12.950000000000001,0)" xlink:href="#ao"/><use transform="matrix(0.05,0,0,0.05,17.950000000000003,0)" xlink:href="#an"/><use transform="matrix(0.05,0,0,0.05,27.950000000000003,0)" xlink:href="#aH"/><use transform="matrix(0.05,0,0,0.05,32.95,0)" xlink:href="#aI"/><use transform="matrix(0.05,0,0,0.05,48.95,0)" xlink:href="#aK"/></g><g id="E"><use transform="matrix(0.05,0,0,0.05,0,0)" xlink:href="#aB"/><use transform="matrix(0.05,0,0,0.05,3.95,0)" xlink:href="#aw"/></g><g id="F"><use transform="matrix(0.05,0,0,0.05,0,0)" xlink:href="#aS"/><use transform="matrix(0.05,0,0,0.05,10,0)" xlink:href="#aQ"/><use transform="matrix(0.05,0,0,0.05,20,0)" xlink:href="#aA"/><use transform="matrix(0.05,0,0,0.05,29,0)" xlink:href="#aw"/><use transform="matrix(0.05,0,0,0.05,38,0)" xlink:href="#aB"/><use transform="matrix(0.05,0,0,0.05,41.95,0)" xlink:href="#aT"/><use transform="matrix(0.05,0,0,0.05,50.95,0)" xlink:href="#aC"/><use transform="matrix(0.05,0,0,0.05,60.95,0)" xlink:href="#au"/><use transform="matrix(0.05,0,0,0.05,64.9,0)" xlink:href="#au"/><use transform="matrix(0.05,0,0,0.05,68.85000000000001,0)" xlink:href="#aA"/></g><g id="G"><use transform="matrix(0.05,0,0,0.05,0,0)" xlink:href="#aC"/><use transform="matrix(0.05,0,0,0.05,10,0)" xlink:href="#aM"/><use transform="matrix(0.05,0,0,0.05,20,0)" xlink:href="#au"/><use transform="matrix(0.05,0,0,0.05,23.95,0)" xlink:href="#av"/></g><g id="H"><use transform="matrix(0.05,0,0,0.05,0,0)" xlink:href="#aU"/><use transform="matrix(0.05,0,0,0.05,12,0)" xlink:href="#aV"/><use transform="matrix(0.05,0,0,0.05,22,0)" xlink:href="#aH"/><use transform="matrix(0.05,0,0,0.05,27,0)" xlink:href="#aW"/><use transform="matrix(0.05,0,0,0.05,37.95,0)" xlink:href="#aj"/><use transform="matrix(0.05,0,0,0.05,47.95,0)" xlink:href="#aX"/><use transform="matrix(0.05,0,0,0.05,58.900000000000006,0)" xlink:href="#aY"/><use transform="matrix(0.05,0,0,0.05,68.9,0)" xlink:href="#aj"/><use transform="matrix(0.05,0,0,0.05,78.9,0)" xlink:href="#ar"/></g><g id="I"><use transform="matrix(0.05,0,0,0.05,0,0)" xlink:href="#aD"/><use transform="matrix(0.05,0,0,0.05,12,0)" xlink:href="#aQ"/><use transform="matrix(0.05,0,0,0.05,22,0)" xlink:href="#aA"/><use transform="matrix(0.05,0,0,0.05,31,0)" xlink:href="#aw"/><use transform="matrix(0.05,0,0,0.05,40,0)" xlink:href="#aB"/><use transform="matrix(0.05,0,0,0.05,43.95,0)" xlink:href="#aT"/><use transform="matrix(0.05,0,0,0.05,52.95,0)" xlink:href="#aC"/><use transform="matrix(0.05,0,0,0.05,62.95,0)" xlink:href="#au"/></g><g id="J"><use transform="matrix(0.05,0,0,0.05,0,0)" xlink:href="#az"/><use transform="matrix(0.05,0,0,0.05,5,0)" xlink:href="#av"/><use transform="matrix(0.05,0,0,0.05,15,0)" xlink:href="#aw"/><use transform="matrix(0.05,0,0,0.05,24,0)" xlink:href="#az"/></g><g id="K"><use transform="matrix(0.05,0,0,0.05,0,0)" xlink:href="#aN"/><use transform="matrix(0.05,0,0,0.05,5.95,0)" xlink:href="#av"/><use transform="matrix(0.05,0,0,0.05,15.949999999999998,0)" xlink:href="#aS"/><use transform="matrix(0.05,0,0,0.05,25.950000000000003,0)" xlink:href="#aO"/><use transform="matrix(0.05,0,0,0.05,35.95,0)" xlink:href="#aN"/><use transform="matrix(0.05,0,0,0.05,41.900000000000006,0)" xlink:href="#az"/></g><path d="M24 0v-248h52V0H24" id="bd"/><path d="M121-226c-27-7-43 5-38 36h38v33H83V0H34v-157H6v-33h28c-9-59 32-81 87-68v32" id="be"/><path d="M135-150c-39-12-60 13-60 57V0H25l-1-190h47c2 13-1 29 3 40 6-28 27-53 61-41v41" id="bf"/><g id="L"><use transform="matrix(0.05,0,0,0.05,0,0)" xlink:href="#bd"/><use transform="matrix(0.05,0,0,0.05,5,0)" xlink:href="#aX"/><use transform="matrix(0.05,0,0,0.05,15.950000000000001,0)" xlink:href="#be"/><use transform="matrix(0.05,0,0,0.05,21.900000000000002,0)" xlink:href="#aj"/><use transform="matrix(0.05,0,0,0.05,31.900000000000002,0)" xlink:href="#bf"/><use transform="matrix(0.05,0,0,0.05,38.900000000000006,0)" xlink:href="#aj"/><use transform="matrix(0.05,0,0,0.05,48.900000000000006,0)" xlink:href="#aX"/><use transform="matrix(0.05,0,0,0.05,59.85,0)" xlink:href="#aY"/><use transform="matrix(0.05,0,0,0.05,69.85000000000001,0)" xlink:href="#aj"/></g><g id="M"><use transform="matrix(0.05,0,0,0.05,0,0)" xlink:href="#ai"/><use transform="matrix(0.05,0,0,0.05,12.950000000000001,0)" xlink:href="#al"/><use transform="matrix(0.05,0,0,0.05,23.900000000000002,0)" xlink:href="#ao"/><use transform="matrix(0.05,0,0,0.05,28.900000000000002,0)" xlink:href="#aj"/><use transform="matrix(0.05,0,0,0.05,38.900000000000006,0)" xlink:href="#aK"/></g><path d="M33 0v-248h34V0H33" id="bg"/><g id="N"><use transform="matrix(0.05,0,0,0.05,0,0)" xlink:href="#bg"/><use transform="matrix(0.05,0,0,0.05,5,0)" xlink:href="#aP"/></g><g id="O"><use transform="matrix(0.05,0,0,0.05,0,0)" xlink:href="#aC"/><use transform="matrix(0.05,0,0,0.05,10,0)" xlink:href="#au"/><use transform="matrix(0.05,0,0,0.05,13.949999999999998,0)" xlink:href="#au"/></g><g id="P"><use transform="matrix(0.05,0,0,0.05,0,0)" xlink:href="#aR"/><use transform="matrix(0.05,0,0,0.05,10,0)" xlink:href="#aO"/><use transform="matrix(0.05,0,0,0.05,20,0)" xlink:href="#aF"/><use transform="matrix(0.05,0,0,0.05,30,0)" xlink:href="#aM"/><use transform="matrix(0.05,0,0,0.05,40,0)" xlink:href="#az"/><use transform="matrix(0.05,0,0,0.05,45,0)" xlink:href="#aw"/></g><g id="Q"><use transform="matrix(0.05,0,0,0.05,0,0)" xlink:href="#az"/><use transform="matrix(0.05,0,0,0.05,5,0)" xlink:href="#aQ"/><use transform="matrix(0.05,0,0,0.05,15,0)" xlink:href="#aC"/><use transform="matrix(0.05,0,0,0.05,25,0)" xlink:href="#az"/></g><path d="M108 0H70L1-190h34L89-25l56-165h34" id="bh"/><g id="R"><use transform="matrix(0.05,0,0,0.05,0,0)" xlink:href="#aS"/><use transform="matrix(0.05,0,0,0.05,10,0)" xlink:href="#aN"/><use transform="matrix(0.05,0,0,0.05,15.949999999999998,0)" xlink:href="#av"/><use transform="matrix(0.05,0,0,0.05,25.950000000000003,0)" xlink:href="#bh"/><use transform="matrix(0.05,0,0,0.05,34.95,0)" xlink:href="#av"/><use transform="matrix(0.05,0,0,0.05,44.95,0)" xlink:href="#at"/><use transform="matrix(0.05,0,0,0.05,54.95,0)" xlink:href="#az"/></g><use transform="matrix(0.05,0,0,0.05,0,0)" xlink:href="#aC" id="S"/><g id="T"><use transform="matrix(0.05,0,0,0.05,0,0)" xlink:href="#ay"/><use transform="matrix(0.05,0,0,0.05,12.950000000000001,0)" xlink:href="#aB"/><use transform="matrix(0.05,0,0,0.05,16.900000000000002,0)" xlink:href="#at"/><use transform="matrix(0.05,0,0,0.05,26.900000000000002,0)" xlink:href="#aE"/><use transform="matrix(0.05,0,0,0.05,36.900000000000006,0)" xlink:href="#av"/><use transform="matrix(0.05,0,0,0.05,46.900000000000006,0)" xlink:href="#aR"/></g><g id="U"><use transform="matrix(0.05,0,0,0.05,0,0)" xlink:href="#aM"/><use transform="matrix(0.05,0,0,0.05,10,0)" xlink:href="#aB"/><use transform="matrix(0.05,0,0,0.05,13.949999999999998,0)" xlink:href="#aN"/><use transform="matrix(0.05,0,0,0.05,19.9,0)" xlink:href="#aR"/></g><g id="V"><use transform="matrix(0.05,0,0,0.05,0,0)" xlink:href="#aP"/><use transform="matrix(0.05,0,0,0.05,5,0)" xlink:href="#aN"/><use transform="matrix(0.05,0,0,0.05,10.95,0)" xlink:href="#aO"/><use transform="matrix(0.05,0,0,0.05,20.95,0)" xlink:href="#aL"/></g><g id="W"><use transform="matrix(0.05,0,0,0.05,0,0)" xlink:href="#aP"/><use transform="matrix(0.05,0,0,0.05,5,0)" xlink:href="#au"/><use transform="matrix(0.05,0,0,0.05,8.95,0)" xlink:href="#aA"/><use transform="matrix(0.05,0,0,0.05,17.95,0)" xlink:href="#aB"/><use transform="matrix(0.05,0,0,0.05,21.9,0)" xlink:href="#at"/><use transform="matrix(0.05,0,0,0.05,31.899999999999995,0)" xlink:href="#aE"/></g><g id="X"><use transform="matrix(0.05,0,0,0.05,0,0)" xlink:href="#aQ"/><use transform="matrix(0.05,0,0,0.05,10,0)" xlink:href="#aC"/><use transform="matrix(0.05,0,0,0.05,20,0)" xlink:href="#bh"/><use transform="matrix(0.05,0,0,0.05,29,0)" xlink:href="#av"/></g><g id="Y"><use transform="matrix(0.05,0,0,0.05,0,0)" xlink:href="#aM"/><use transform="matrix(0.05,0,0,0.05,10,0)" xlink:href="#av"/><use transform="matrix(0.05,0,0,0.05,20,0)" xlink:href="#av"/><use transform="matrix(0.05,0,0,0.05,30,0)" xlink:href="#at"/></g><g id="Z"><use transform="matrix(0.05,0,0,0.05,0,0)" xlink:href="#aN"/><use transform="matrix(0.05,0,0,0.05,5.95,0)" xlink:href="#av"/><use transform="matrix(0.05,0,0,0.05,15.949999999999998,0)" xlink:href="#aL"/><use transform="matrix(0.05,0,0,0.05,30.899999999999995,0)" xlink:href="#aO"/><use transform="matrix(0.05,0,0,0.05,40.9,0)" xlink:href="#bh"/><use transform="matrix(0.05,0,0,0.05,49.9,0)" xlink:href="#av"/><use transform="matrix(0.05,0,0,0.05,59.900000000000006,0)" xlink:href="#aR"/></g><g id="aa"><use transform="matrix(0.05,0,0,0.05,0,0)" xlink:href="#az"/><use transform="matrix(0.05,0,0,0.05,5,0)" xlink:href="#aQ"/><use transform="matrix(0.05,0,0,0.05,15,0)" xlink:href="#av"/><use transform="matrix(0.05,0,0,0.05,25,0)" xlink:href="#at"/></g><g id="ab"><use transform="matrix(0.05,0,0,0.05,0,0)" xlink:href="#az"/><use transform="matrix(0.05,0,0,0.05,5,0)" xlink:href="#ay"/><use transform="matrix(0.05,0,0,0.05,17.950000000000003,0)" xlink:href="#av"/><use transform="matrix(0.05,0,0,0.05,27.950000000000003,0)" xlink:href="#av"/><use transform="matrix(0.05,0,0,0.05,37.95,0)" xlink:href="#az"/><use transform="matrix(0.05,0,0,0.05,42.95,0)" xlink:href="#aA"/></g><g id="ac"><use transform="matrix(0.05,0,0,0.05,0,0)" xlink:href="#aT"/><use transform="matrix(0.05,0,0,0.05,9,0)" xlink:href="#aC"/><use transform="matrix(0.05,0,0,0.05,19,0)" xlink:href="#at"/></g><g id="ad"><use transform="matrix(0.05,0,0,0.05,0,0)" xlink:href="#aP"/><use transform="matrix(0.05,0,0,0.05,5,0)" xlink:href="#au"/><use transform="matrix(0.05,0,0,0.05,8.95,0)" xlink:href="#aA"/></g><g id="ae"><use transform="matrix(0.05,0,0,0.05,0,0)" xlink:href="#aU"/><use transform="matrix(0.05,0,0,0.05,12,0)" xlink:href="#aV"/><use transform="matrix(0.05,0,0,0.05,22,0)" xlink:href="#aH"/><use transform="matrix(0.05,0,0,0.05,27,0)" xlink:href="#aW"/><use transform="matrix(0.05,0,0,0.05,37.95,0)" xlink:href="#aj"/><use transform="matrix(0.05,0,0,0.05,47.95,0)" xlink:href="#aX"/><use transform="matrix(0.05,0,0,0.05,58.900000000000006,0)" xlink:href="#aY"/><use transform="matrix(0.05,0,0,0.05,68.9,0)" xlink:href="#aj"/><use transform="matrix(0.05,0,0,0.05,78.9,0)" xlink:href="#ar"/></g><path d="M63-220v92h138v28H63V0H30v-248h175v28H63" id="bi"/><g id="af"><use transform="matrix(0.05,0,0,0.05,0,0)" xlink:href="#bi"/><use transform="matrix(0.05,0,0,0.05,10.950000000000001,0)" xlink:href="#au"/><use transform="matrix(0.05,0,0,0.05,14.9,0)" xlink:href="#aA"/><use transform="matrix(0.05,0,0,0.05,23.900000000000002,0)" xlink:href="#aB"/><use transform="matrix(0.05,0,0,0.05,27.85,0)" xlink:href="#at"/><use transform="matrix(0.05,0,0,0.05,37.85,0)" xlink:href="#aE"/></g><g id="ag"><use transform="matrix(0.05,0,0,0.05,0,0)" xlink:href="#ax"/><use transform="matrix(0.05,0,0,0.05,9.950000000000001,0)" xlink:href="#ay"/><use transform="matrix(0.05,0,0,0.05,22.900000000000002,0)" xlink:href="#av"/><use transform="matrix(0.05,0,0,0.05,32.900000000000006,0)" xlink:href="#av"/><use transform="matrix(0.05,0,0,0.05,42.900000000000006,0)" xlink:href="#az"/><use transform="matrix(0.05,0,0,0.05,47.900000000000006,0)" xlink:href="#aA"/></g><path d="M185-189c-5-48-123-54-124 2 14 75 158 14 163 119 3 78-121 87-175 55-17-10-28-26-33-46l33-7c5 56 141 63 141-1 0-78-155-14-162-118-5-82 145-84 179-34 5 7 8 16 11 25" id="bj"/><g id="ah"><use transform="matrix(0.05,0,0,0.05,0,0)" xlink:href="#bj"/><use transform="matrix(0.05,0,0,0.05,12,0)" xlink:href="#aB"/><use transform="matrix(0.05,0,0,0.05,15.949999999999998,0)" xlink:href="#aE"/><use transform="matrix(0.05,0,0,0.05,25.950000000000003,0)" xlink:href="#aQ"/><use transform="matrix(0.05,0,0,0.05,35.95,0)" xlink:href="#az"/><use transform="matrix(0.05,0,0,0.05,40.95,0)" xlink:href="#aB"/><use transform="matrix(0.05,0,0,0.05,44.900000000000006,0)" xlink:href="#at"/><use transform="matrix(0.05,0,0,0.05,54.900000000000006,0)" xlink:href="#aE"/><use transform="matrix(0.05,0,0,0.05,64.9,0)" xlink:href="#aw"/></g></defs></g></svg>