<svg xmlns="http://www.w3.org/2000/svg" xmlns:xlink="http://www.w3.org/1999/xlink" xmlns:lucid="lucid" width="1360" height="1760"><g transform="translate(0 0)" lucid:page-tab-id="-_Ld8Fbylb_N"><path d="M675.75 240.5h200l20 20v80h-220z" stroke="#d9be60" stroke-width="2" fill="#ffdf71"/><path d="M875.75 240.5v20h20" fill="#d9be60"/><use xlink:href="#a" transform="matrix(1,0,0,1,680.75,245.50290250721616) translate(22.69999999999999 37.8)"/><use xlink:href="#b" transform="matrix(1,0,0,1,680.75,245.50290250721616) translate(99.45 37.8)"/><use xlink:href="#c" transform="matrix(1,0,0,1,680.75,245.50290250721616) translate(132.4 37.8)"/><use xlink:href="#d" transform="matrix(1,0,0,1,680.75,245.50290250721616) translate(24.599999999999994 59.4)"/><use xlink:href="#e" transform="matrix(1,0,0,1,680.75,245.50290250721616) translate(86.5 59.4)"/><use xlink:href="#f" transform="matrix(1,0,0,1,680.75,245.50290250721616) translate(104.45 59.4)"/><use xlink:href="#g" transform="matrix(1,0,0,1,680.75,245.50290250721616) translate(119.45 59.4)"/><path d="M650 179v.6l.06.6.07.6.1.56.12.57.15.57.18.57.2.58.26.58.3.6.3.6.4.62.42.63.5.67.56.7.66.72.76.77.9.83 1.06.88 1.27.96 1.54 1.07 1.92 1.17 2.4 1.33 3.14 1.55 4.3 1.86 6.4 2.43 12.14 3.94 37.62 11.36 6.38 2.42 4.3 1.87 3.14 1.53 2.4 1.33 1.78 1.1" stroke="#000" stroke-width="2" fill="none"/><path d="M650.86 178.5l-1.72 1-.88-1.5h2.3zM753.82 236.84l-11.94-9.08 7.62-5.28z"/><path d="M755.66 239.5l-15.48-11.78 9.88-6.85zm-12.08-11.7l8.4 6.38-3.04-10.1z"/><path d="M703 380.5h205.83v98H703z" stroke="#000" stroke-width="2" fill="#fff"/><use xlink:href="#h" transform="matrix(1,0,0,1,707.9999999999999,385.5043988872217) translate(9.150000000000006 26)"/><use xlink:href="#i" transform="matrix(1,0,0,1,707.9999999999999,385.5043988872217) translate(63.10000000000001 26)"/><use xlink:href="#j" transform="matrix(1,0,0,1,707.9999999999999,385.5043988872217) translate(97.00000000000001 26)"/><use xlink:href="#k" transform="matrix(1,0,0,1,707.9999999999999,385.5043988872217) translate(158.9 26)"/><use xlink:href="#l" transform="matrix(1,0,0,1,707.9999999999999,385.5043988872217) translate(176.85 26)"/><use xlink:href="#m" transform="matrix(1,0,0,1,707.9999999999999,385.5043988872217) translate(40.074999999999996 47.6)"/><use xlink:href="#n" transform="matrix(1,0,0,1,707.9999999999999,385.5043988872217) translate(110.92500000000001 47.6)"/><use xlink:href="#o" transform="matrix(1,0,0,1,707.9999999999999,385.5043988872217) translate(130.925 47.6)"/><use xlink:href="#p" transform="matrix(1,0,0,1,707.9999999999999,385.5043988872217) translate(27.125 69.2)"/><use xlink:href="#q" transform="matrix(1,0,0,1,707.9999999999999,385.5043988872217) translate(74.025 69.2)"/><use xlink:href="#r" transform="matrix(1,0,0,1,707.9999999999999,385.5043988872217) translate(117.925 69.2)"/><path d="M547.08 80h205.84v98H547.08z" stroke="#000" stroke-width="2" fill="#fff"/><use xlink:href="#h" transform="matrix(1,0,0,1,552.0833333333334,85) translate(56.574999999999996 36.8)"/><use xlink:href="#s" transform="matrix(1,0,0,1,552.0833333333334,85) translate(110.525 36.8)"/><use xlink:href="#t" transform="matrix(1,0,0,1,552.0833333333334,85) translate(4.674999999999997 58.4)"/><use xlink:href="#k" transform="matrix(1,0,0,1,552.0833333333334,85) translate(66.575 58.4)"/><use xlink:href="#u" transform="matrix(1,0,0,1,552.0833333333334,85) translate(84.525 58.4)"/><use xlink:href="#v" transform="matrix(1,0,0,1,552.0833333333334,85) translate(99.525 58.4)"/><use xlink:href="#w" transform="matrix(1,0,0,1,552.0833333333334,85) translate(161.425 58.4)"/><path d="M785.75 341.5l.26 4.2.67 3.35 1 2.93 1.5 2.98 5.1 7.78" stroke="#000" stroke-width="2" fill="none"/><path d="M786.7 341.24l-1.9.53-.36-1.27h2.07zM799.23 376.46l-9.2-11.84 8.72-3.15z"/><path d="M800.33 379.5l-11.94-15.35 11.3-4.1zm-8.67-14.4l6.47 8.32-.34-10.54z"/><path d="M940 605.27c0 44.18-35.82 80-80 80s-80-35.82-80-80 35.82-80 80-80 80 35.82 80 80z" stroke="#000" stroke-width="2" fill="#fff"/><use xlink:href="#x" transform="matrix(1,0,0,1,785,530.2702503019678) translate(33.05 57)"/><use xlink:href="#y" transform="matrix(1,0,0,1,785,530.2702503019678) translate(0.42499999999998295 78.60000000000001)"/><use xlink:href="#z" transform="matrix(1,0,0,1,785,530.2702503019678) translate(74.725 78.60000000000001)"/><use xlink:href="#A" transform="matrix(1,0,0,1,785,530.2702503019678) translate(116.625 78.60000000000001)"/><use xlink:href="#B" transform="matrix(1,0,0,1,785,530.2702503019678) translate(45.05 100.20000000000002)"/><path d="M805.92 479.5l.05 1.25.17 1.17.26 1.13.38 1.12.5 1.1.63 1.16.83 1.2 1.07 1.27 1.42 1.42 1.97 1.62 2.9 1.98 4.97 2.74 28.75 13.2.2.14" stroke="#000" stroke-width="2" fill="none"/><path d="M806.78 479l-1.73 1-.88-1.5h2.32zM858.15 521.62l-11.97-9.04 7.6-5.3z"/><path d="M860 524.27l-15.52-11.73 9.85-6.88zm-12.12-11.66l8.4 6.36-3.06-10.1z"/><path d="M404.25 240.5h200l20 20v80h-220z" stroke="#d9be60" stroke-width="2" fill="#ffdf71"/><path d="M604.25 240.5v20h20" fill="#d9be60"/><g><use xlink:href="#a" transform="matrix(1,0,0,1,409.25,245.50290250721616) translate(22.69999999999999 37.8)"/><use xlink:href="#b" transform="matrix(1,0,0,1,409.25,245.50290250721616) translate(99.45 37.8)"/><use xlink:href="#c" transform="matrix(1,0,0,1,409.25,245.50290250721616) translate(132.4 37.8)"/><use xlink:href="#d" transform="matrix(1,0,0,1,409.25,245.50290250721616) translate(13.599999999999994 59.4)"/><use xlink:href="#e" transform="matrix(1,0,0,1,409.25,245.50290250721616) translate(75.5 59.4)"/><use xlink:href="#C" transform="matrix(1,0,0,1,409.25,245.50290250721616) translate(93.45 59.4)"/></g><path d="M650 179l-.02.72-.05.7-.1.7-.12.66-.14.67-.2.67-.23.67-.28.67-.32.7-.37.68-.43.72-.5.74-.6.8-.66.8-.8.85-.93.9-1.12 1-1.35 1.05-1.66 1.18-2.07 1.3-2.68 1.52-3.6 1.8-5.2 2.24-8.82 3.28-41.22 13.74-5.2 2.25-3.6 1.8-2.68 1.5-2.08 1.33-.33.23" stroke="#000" stroke-width="2" fill="none"/><path d="M650.88 179.48l-1.76-.96.3-.52h2.27zM566.5 227.38l-11.68 9.4 3.92-14.47z"/><path d="M568.2 227.3l-15.15 12.2 5.08-18.78zm-11.6 6.78l8.2-6.6-5.46-3.58z"/><path d="M395.17 380.5H601v98H395.17z" stroke="#000" stroke-width="2" fill="#fff"/><g><use xlink:href="#D" transform="matrix(1,0,0,1,400.16666666666686,385.50308627954075) translate(30.625 36.8)"/><use xlink:href="#j" transform="matrix(1,0,0,1,400.16666666666686,385.50308627954075) translate(90.525 36.8)"/><use xlink:href="#E" transform="matrix(1,0,0,1,400.16666666666686,385.50308627954075) translate(152.425 36.8)"/><use xlink:href="#F" transform="matrix(1,0,0,1,400.16666666666686,385.50308627954075) translate(39.599999999999994 58.4)"/><use xlink:href="#G" transform="matrix(1,0,0,1,400.16666666666686,385.50308627954075) translate(122.45 58.4)"/></g><path d="M514.25 341.5l-.18 2.8-.47 2.38-.75 2.2-1.05 2.1-1.5 2.24-2.43 2.7-8.76 8.06" stroke="#000" stroke-width="2" fill="none"/><path d="M515.17 341.88l-1.84-.76.25-.62h2.16zM503.2 366.14l-10.7 10.5 2.5-14.8z"/><path d="M504.9 365.9L491 379.5l3.24-19.18zm-10.9 7.87l7.53-7.4-5.78-3z"/><path d="M500 603.27c0 44.18-35.82 80-80 80s-80-35.82-80-80 35.82-80 80-80 80 35.82 80 80z" stroke="#000" stroke-width="2" fill="#fff"/><g><use xlink:href="#H" transform="matrix(1,0,0,1,345,528.2701376822871) translate(33.05 57)"/><use xlink:href="#I" transform="matrix(1,0,0,1,345,528.2701376822871) translate(24.549999999999997 78.60000000000001)"/><use xlink:href="#J" transform="matrix(1,0,0,1,345,528.2701376822871) translate(96.45 78.60000000000001)"/><use xlink:href="#K" transform="matrix(1,0,0,1,345,528.2701376822871) translate(51.55 100.20000000000002)"/></g><path d="M498.08 479.5v.56l-.07.54-.07.53-.12.52-.15.53-.2.53-.23.55-.3.55-.34.57-.42.6-.5.64-.62.7-.76.73-.95.8-1.2.9-1.6 1.04-2.14 1.2-3.1 1.5-4.78 1.92-9.5 3.1-33.45 9.88-4.8 1.94-.88.42" stroke="#000" stroke-width="2" fill="none"/><path d="M498.86 480.13l-1.55-1.26.3-.37h2.58zM435.4 512.76l-13.17 7.16 6.45-13.54z"/><path d="M437.1 513l-17.1 9.27 8.37-17.56zm-12.65 4.58l9.27-5.04-4.73-4.48z"/><path d="M706 603.27c0 44.18-35.82 80-80 80s-80-35.82-80-80 35.82-80 80-80 80 35.82 80 80z" stroke="#000" stroke-width="2" fill="#fff"/><g><use xlink:href="#L" transform="matrix(1,0,0,1,551,528.2701376822871) translate(33.05 57)"/><use xlink:href="#M" transform="matrix(1,0,0,1,551,528.2701376822871) translate(20.125 78.60000000000001)"/><use xlink:href="#N" transform="matrix(1,0,0,1,551,528.2701376822871) translate(72.975 78.60000000000001)"/><use xlink:href="#O" transform="matrix(1,0,0,1,551,528.2701376822871) translate(38.05 100.20000000000002)"/></g><path d="M498.08 479.5v.23l.02.22.03.22.03.22.04.2.05.22.06.23.1.22.07.23.1.23.1.23.14.25.15.26.16.26.2.27.22.27.24.3.28.3.32.33.38.35.43.38.52.4.6.45.73.48.88.54 1.1.6 1.37.67 1.74.78 2.3.9 3.14 1.1 4.47 1.33 6.97 1.78L538 496.7l61.1 11.12 6.97 1.77 4.48 1.33 1.88.66" stroke="#000" stroke-width="2" fill="none"/><path d="M498.75 478.76l-1.34 1.48-1.9-1.74h2.97zM623.46 520.27l-14.08-5.18 5.74-7.3z"/><path d="M626 522.27l-18.26-6.72 7.44-9.45zm-14.98-7.65l9.9 3.65-5.87-8.77z"/><defs><path d="M240-174c0 40-23 61-54 70L253 0h-59l-57-94H76V0H24v-248c93 4 217-23 216 74zM76-134c48-2 112 12 112-38 0-48-66-32-112-35v73" id="P"/><path d="M185-48c-13 30-37 53-82 52C43 2 14-33 14-96s30-98 90-98c62 0 83 45 84 108H66c0 31 8 55 39 56 18 0 30-7 34-22zm-45-69c5-46-57-63-70-21-2 6-4 13-4 21h74" id="Q"/><path d="M135-194c52 0 70 43 70 98 0 56-19 99-73 100-30 1-46-15-58-35L72 0H24l1-261h50v104c11-23 29-37 60-37zM114-30c31 0 40-27 40-66 0-37-7-63-39-63s-41 28-41 65c0 36 8 64 40 64" id="R"/><path d="M85 4C-2 5 27-109 22-190h50c7 57-23 150 33 157 60-5 35-97 40-157h50l1 190h-47c-2-12 1-28-3-38-12 25-28 42-61 42" id="S"/><path d="M115-3C79 11 28 4 28-45v-112H4v-33h27l15-45h31v45h36v33H77v99c-1 23 16 31 38 25v30" id="T"/><path d="M133-34C117-15 103 5 69 4 32 3 11-16 11-54c-1-60 55-63 116-61 1-26-3-47-28-47-18 1-26 9-28 27l-52-2c7-38 36-58 82-57s74 22 75 68l1 82c-1 14 12 18 25 15v27c-30 8-71 5-69-32zm-48 3c29 0 43-24 42-57-32 0-66-3-65 30 0 17 8 27 23 27" id="U"/><path d="M25 0v-261h50V0H25" id="V"/><g id="a"><use transform="matrix(0.05,0,0,0.05,0,0)" xlink:href="#P"/><use transform="matrix(0.05,0,0,0.05,12.950000000000001,0)" xlink:href="#Q"/><use transform="matrix(0.05,0,0,0.05,22.950000000000003,0)" xlink:href="#R"/><use transform="matrix(0.05,0,0,0.05,33.900000000000006,0)" xlink:href="#S"/><use transform="matrix(0.05,0,0,0.05,44.85000000000001,0)" xlink:href="#T"/><use transform="matrix(0.05,0,0,0.05,50.80000000000001,0)" xlink:href="#T"/><use transform="matrix(0.05,0,0,0.05,56.750000000000014,0)" xlink:href="#U"/><use transform="matrix(0.05,0,0,0.05,66.75000000000001,0)" xlink:href="#V"/></g><path d="M233-177c-1 41-23 64-60 70L243 0h-38l-65-103H63V0H30v-248c88 3 205-21 203 71zM63-129c60-2 137 13 137-47 0-61-80-42-137-45v92" id="W"/><path d="M27 0v-27h64v-190l-56 39v-29l58-41h29v221h61V0H27" id="X"/><path d="M33-154v-36h34v36H33zM33 0v-36h34V0H33" id="Y"/><g id="b"><use transform="matrix(0.05,0,0,0.05,0,0)" xlink:href="#W"/><use transform="matrix(0.05,0,0,0.05,12.950000000000001,0)" xlink:href="#X"/><use transform="matrix(0.05,0,0,0.05,22.950000000000003,0)" xlink:href="#Y"/></g><path d="M232-93c-1 65-40 97-104 97C67 4 28-28 28-90v-158h33c8 89-33 224 67 224 102 0 64-133 71-224h33v155" id="Z"/><path d="M117-194c89-4 53 116 60 194h-32v-121c0-31-8-49-39-48C34-167 62-67 57 0H25l-1-190h30c1 10-1 24 2 32 11-22 29-35 61-36" id="aa"/><path d="M24 0v-261h32V0H24" id="ab"/><path d="M100-194c63 0 86 42 84 106H49c0 40 14 67 53 68 26 1 43-12 49-29l28 8c-11 28-37 45-77 45C44 4 14-33 15-96c1-61 26-98 85-98zm52 81c6-60-76-77-97-28-3 7-6 17-6 28h103" id="ac"/><path d="M135-143c-3-34-86-38-87 0 15 53 115 12 119 90S17 21 10-45l28-5c4 36 97 45 98 0-10-56-113-15-118-90-4-57 82-63 122-42 12 7 21 19 24 35" id="ad"/><g id="c"><use transform="matrix(0.05,0,0,0.05,0,0)" xlink:href="#Z"/><use transform="matrix(0.05,0,0,0.05,12.950000000000001,0)" xlink:href="#aa"/><use transform="matrix(0.05,0,0,0.05,22.950000000000003,0)" xlink:href="#ab"/><use transform="matrix(0.05,0,0,0.05,26.900000000000002,0)" xlink:href="#ac"/><use transform="matrix(0.05,0,0,0.05,36.900000000000006,0)" xlink:href="#ad"/><use transform="matrix(0.05,0,0,0.05,45.900000000000006,0)" xlink:href="#ad"/></g><path d="M127-220V0H93v-220H8v-28h204v28h-85" id="ae"/><path d="M206 0h-36l-40-164L89 0H53L-1-190h32L70-26l43-164h34l41 164 42-164h31" id="af"/><path d="M59-47c-2 24 18 29 38 22v24C64 9 27 4 27-40v-127H5v-23h24l9-43h21v43h35v23H59v120" id="ag"/><path d="M179-190L93 31C79 59 56 82 12 73V49c39 6 53-20 64-50L1-190h34L92-34l54-156h33" id="ah"/><g id="d"><use transform="matrix(0.05,0,0,0.05,0,0)" xlink:href="#ae"/><use transform="matrix(0.05,0,0,0.05,9.950000000000001,0)" xlink:href="#af"/><use transform="matrix(0.05,0,0,0.05,22.900000000000002,0)" xlink:href="#ac"/><use transform="matrix(0.05,0,0,0.05,32.900000000000006,0)" xlink:href="#ac"/><use transform="matrix(0.05,0,0,0.05,42.900000000000006,0)" xlink:href="#ag"/><use transform="matrix(0.05,0,0,0.05,47.900000000000006,0)" xlink:href="#ah"/></g><path d="M24-231v-30h32v30H24zM24 0v-190h32V0H24" id="ai"/><g id="e"><use transform="matrix(0.05,0,0,0.05,0,0)" xlink:href="#ai"/><use transform="matrix(0.05,0,0,0.05,3.95,0)" xlink:href="#ad"/></g><path d="M141-36C126-15 110 5 73 4 37 3 15-17 15-53c-1-64 63-63 125-63 3-35-9-54-41-54-24 1-41 7-42 31l-33-3c5-37 33-52 76-52 45 0 72 20 72 64v82c-1 20 7 32 28 27v20c-31 9-61-2-59-35zM48-53c0 20 12 33 32 33 41-3 63-29 60-74-43 2-92-5-92 41" id="aj"/><use transform="matrix(0.05,0,0,0.05,0,0)" xlink:href="#aj" id="f"/><path d="M30-248c87 1 191-15 191 75 0 78-77 80-158 76V0H30v-248zm33 125c57 0 124 11 124-50 0-59-68-47-124-48v98" id="ak"/><path d="M177-190C167-65 218 103 67 71c-23-6-38-20-44-43l32-5c15 47 100 32 89-28v-30C133-14 115 1 83 1 29 1 15-40 15-95c0-56 16-97 71-98 29-1 48 16 59 35 1-10 0-23 2-32h30zM94-22c36 0 50-32 50-73 0-42-14-75-50-75-39 0-46 34-46 75s6 73 46 73" id="al"/><path d="M84 4C-5 8 30-112 23-190h32v120c0 31 7 50 39 49 72-2 45-101 50-169h31l1 190h-30c-1-10 1-25-2-33-11 22-28 36-60 37" id="am"/><g id="g"><use transform="matrix(0.05,0,0,0.05,0,0)" xlink:href="#ak"/><use transform="matrix(0.05,0,0,0.05,12,0)" xlink:href="#ac"/><use transform="matrix(0.05,0,0,0.05,22,0)" xlink:href="#aa"/><use transform="matrix(0.05,0,0,0.05,32,0)" xlink:href="#al"/><use transform="matrix(0.05,0,0,0.05,42,0)" xlink:href="#am"/><use transform="matrix(0.05,0,0,0.05,52,0)" xlink:href="#ai"/><use transform="matrix(0.05,0,0,0.05,55.95,0)" xlink:href="#aa"/></g><path d="M67-125c0 53 21 87 73 88 37 1 54-22 65-47l45 17C233-25 199 4 140 4 58 4 20-42 15-125 8-235 124-281 211-232c18 10 29 29 36 50l-46 12c-8-25-30-41-62-41-52 0-71 34-72 86" id="an"/><path d="M25-224v-37h50v37H25zM25 0v-190h50V0H25" id="ao"/><path d="M220-157c-53 9-28 100-34 157h-49v-107c1-27-5-49-29-50C55-147 81-57 75 0H25l-1-190h47c2 12-1 28 3 38 10-53 101-56 108 0 13-22 24-43 59-42 82 1 51 116 57 194h-49v-107c-1-25-5-48-29-50" id="ap"/><g id="h"><use transform="matrix(0.05,0,0,0.05,0,0)" xlink:href="#an"/><use transform="matrix(0.05,0,0,0.05,12.950000000000001,0)" xlink:href="#V"/><use transform="matrix(0.05,0,0,0.05,17.950000000000003,0)" xlink:href="#U"/><use transform="matrix(0.05,0,0,0.05,27.950000000000003,0)" xlink:href="#ao"/><use transform="matrix(0.05,0,0,0.05,32.95,0)" xlink:href="#ap"/></g><path d="M182-182c0 78-84 86-111 141h115V0H12c-6-101 99-100 120-180 1-22-12-31-33-32-23 0-32 14-35 34l-49-3c5-45 32-70 84-70 51 0 83 22 83 69" id="aq"/><path d="M35-132v-50h50v50H35zM35 0v-49h50V0H35" id="ar"/><g id="i"><use transform="matrix(0.05,0,0,0.05,0,0)" xlink:href="#an"/><use transform="matrix(0.05,0,0,0.05,12.950000000000001,0)" xlink:href="#aq"/><use transform="matrix(0.05,0,0,0.05,22.950000000000003,0)" xlink:href="#ar"/></g><g id="j"><use transform="matrix(0.05,0,0,0.05,0,0)" xlink:href="#ae"/><use transform="matrix(0.05,0,0,0.05,9.950000000000001,0)" xlink:href="#af"/><use transform="matrix(0.05,0,0,0.05,22.900000000000002,0)" xlink:href="#ac"/><use transform="matrix(0.05,0,0,0.05,32.900000000000006,0)" xlink:href="#ac"/><use transform="matrix(0.05,0,0,0.05,42.900000000000006,0)" xlink:href="#ag"/><use transform="matrix(0.05,0,0,0.05,47.900000000000006,0)" xlink:href="#ah"/></g><g id="k"><use transform="matrix(0.05,0,0,0.05,0,0)" xlink:href="#ai"/><use transform="matrix(0.05,0,0,0.05,3.95,0)" xlink:href="#ad"/></g><use transform="matrix(0.05,0,0,0.05,0,0)" xlink:href="#aj" id="l"/><path d="M210-169c-67 3-38 105-44 169h-31v-121c0-29-5-50-35-48C34-165 62-65 56 0H25l-1-190h30c1 10-1 24 2 32 10-44 99-50 107 0 11-21 27-35 58-36 85-2 47 119 55 194h-31v-121c0-29-5-49-35-48" id="as"/><path d="M115-194c53 0 69 39 70 98 0 66-23 100-70 100C84 3 66-7 56-30L54 0H23l1-261h32v101c10-23 28-34 59-34zm-8 174c40 0 45-34 45-75 0-40-5-75-45-74-42 0-51 32-51 76 0 43 10 73 51 73" id="at"/><path d="M114-163C36-179 61-72 57 0H25l-1-190h30c1 12-1 29 2 39 6-27 23-49 58-41v29" id="au"/><g id="m"><use transform="matrix(0.05,0,0,0.05,0,0)" xlink:href="#as"/><use transform="matrix(0.05,0,0,0.05,14.950000000000001,0)" xlink:href="#ac"/><use transform="matrix(0.05,0,0,0.05,24.950000000000003,0)" xlink:href="#as"/><use transform="matrix(0.05,0,0,0.05,39.900000000000006,0)" xlink:href="#at"/><use transform="matrix(0.05,0,0,0.05,49.900000000000006,0)" xlink:href="#ac"/><use transform="matrix(0.05,0,0,0.05,59.900000000000006,0)" xlink:href="#au"/></g><path d="M100-194c62-1 85 37 85 99 1 63-27 99-86 99S16-35 15-95c0-66 28-99 85-99zM99-20c44 1 53-31 53-75 0-43-8-75-51-75s-53 32-53 75 10 74 51 75" id="av"/><path d="M101-234c-31-9-42 10-38 44h38v23H63V0H32v-167H5v-23h27c-7-52 17-82 69-68v24" id="aw"/><g id="n"><use transform="matrix(0.05,0,0,0.05,0,0)" xlink:href="#av"/><use transform="matrix(0.05,0,0,0.05,10,0)" xlink:href="#aw"/></g><path d="M106-169C34-169 62-67 57 0H25v-261h32l-1 103c12-21 28-36 61-36 89 0 53 116 60 194h-32v-121c2-32-8-49-39-48" id="ax"/><g id="o"><use transform="matrix(0.05,0,0,0.05,0,0)" xlink:href="#ag"/><use transform="matrix(0.05,0,0,0.05,5,0)" xlink:href="#ax"/><use transform="matrix(0.05,0,0,0.05,15,0)" xlink:href="#ac"/></g><g id="p"><use transform="matrix(0.05,0,0,0.05,0,0)" xlink:href="#aw"/><use transform="matrix(0.05,0,0,0.05,5,0)" xlink:href="#ab"/><use transform="matrix(0.05,0,0,0.05,8.95,0)" xlink:href="#ah"/><use transform="matrix(0.05,0,0,0.05,17.95,0)" xlink:href="#ai"/><use transform="matrix(0.05,0,0,0.05,21.9,0)" xlink:href="#aa"/><use transform="matrix(0.05,0,0,0.05,31.899999999999995,0)" xlink:href="#al"/></g><path d="M85-194c31 0 48 13 60 33l-1-100h32l1 261h-30c-2-10 0-23-3-31C134-8 116 4 85 4 32 4 16-35 15-94c0-66 23-100 70-100zm9 24c-40 0-46 34-46 75 0 40 6 74 45 74 42 0 51-32 51-76 0-42-9-74-50-73" id="ay"/><g id="q"><use transform="matrix(0.05,0,0,0.05,0,0)" xlink:href="#at"/><use transform="matrix(0.05,0,0,0.05,10,0)" xlink:href="#ai"/><use transform="matrix(0.05,0,0,0.05,13.949999999999998,0)" xlink:href="#au"/><use transform="matrix(0.05,0,0,0.05,19.9,0)" xlink:href="#ay"/><use transform="matrix(0.05,0,0,0.05,29.899999999999995,0)" xlink:href="#ad"/></g><path d="M115-194c55 1 70 41 70 98S169 2 115 4C84 4 66-9 55-30l1 105H24l-1-265h31l2 30c10-21 28-34 59-34zm-8 174c40 0 45-34 45-75s-6-73-45-74c-42 0-51 32-51 76 0 43 10 73 51 73" id="az"/><path d="M96-169c-40 0-48 33-48 73s9 75 48 75c24 0 41-14 43-38l32 2c-6 37-31 61-74 61-59 0-76-41-82-99-10-93 101-131 147-64 4 7 5 14 7 22l-32 3c-4-21-16-35-41-35" id="aA"/><g id="r"><use transform="matrix(0.05,0,0,0.05,0,0)" xlink:href="#ad"/><use transform="matrix(0.05,0,0,0.05,9,0)" xlink:href="#az"/><use transform="matrix(0.05,0,0,0.05,19,0)" xlink:href="#ai"/><use transform="matrix(0.05,0,0,0.05,22.95,0)" xlink:href="#aA"/><use transform="matrix(0.05,0,0,0.05,31.950000000000003,0)" xlink:href="#ac"/><use transform="matrix(0.05,0,0,0.05,41.95,0)" xlink:href="#ad"/></g><g id="s"><use transform="matrix(0.05,0,0,0.05,0,0)" xlink:href="#an"/><use transform="matrix(0.05,0,0,0.05,12.950000000000001,0)" xlink:href="#aq"/><use transform="matrix(0.05,0,0,0.05,22.950000000000003,0)" xlink:href="#ar"/></g><g id="t"><use transform="matrix(0.05,0,0,0.05,0,0)" xlink:href="#ae"/><use transform="matrix(0.05,0,0,0.05,9.950000000000001,0)" xlink:href="#af"/><use transform="matrix(0.05,0,0,0.05,22.900000000000002,0)" xlink:href="#ac"/><use transform="matrix(0.05,0,0,0.05,32.900000000000006,0)" xlink:href="#ac"/><use transform="matrix(0.05,0,0,0.05,42.900000000000006,0)" xlink:href="#ag"/><use transform="matrix(0.05,0,0,0.05,47.900000000000006,0)" xlink:href="#ah"/></g><use transform="matrix(0.05,0,0,0.05,0,0)" xlink:href="#aj" id="u"/><g id="v"><use transform="matrix(0.05,0,0,0.05,0,0)" xlink:href="#af"/><use transform="matrix(0.05,0,0,0.05,12.950000000000001,0)" xlink:href="#ai"/><use transform="matrix(0.05,0,0,0.05,16.900000000000002,0)" xlink:href="#aa"/><use transform="matrix(0.05,0,0,0.05,26.900000000000002,0)" xlink:href="#al"/><use transform="matrix(0.05,0,0,0.05,36.900000000000006,0)" xlink:href="#ac"/><use transform="matrix(0.05,0,0,0.05,46.900000000000006,0)" xlink:href="#ay"/></g><g id="w"><use transform="matrix(0.05,0,0,0.05,0,0)" xlink:href="#at"/><use transform="matrix(0.05,0,0,0.05,10,0)" xlink:href="#ai"/><use transform="matrix(0.05,0,0,0.05,13.949999999999998,0)" xlink:href="#au"/><use transform="matrix(0.05,0,0,0.05,19.9,0)" xlink:href="#ay"/></g><path d="M24 0v-248h195v40H76v63h132v40H76v65h150V0H24" id="aB"/><path d="M128 0H69L1-190h53L99-40l48-150h52" id="aC"/><path d="M88-194c31-1 46 15 58 34l-1-101h50l1 261h-48c-2-10 0-23-3-31C134-8 116 4 84 4 32 4 16-41 15-95c0-56 19-97 73-99zm17 164c33 0 40-30 41-66 1-37-9-64-41-64s-38 30-39 65c0 43 13 65 39 65" id="aD"/><path d="M135-194c87-1 58 113 63 194h-50c-7-57 23-157-34-157-59 0-34 97-39 157H25l-1-190h47c2 12-1 28 3 38 12-26 28-41 61-42" id="aE"/><path d="M190-63c-7 42-38 67-86 67-59 0-84-38-90-98-12-110 154-137 174-36l-49 2c-2-19-15-32-35-32-30 0-35 28-38 64-6 74 65 87 74 30" id="aF"/><g id="x"><use transform="matrix(0.05,0,0,0.05,0,0)" xlink:href="#aB"/><use transform="matrix(0.05,0,0,0.05,12,0)" xlink:href="#aC"/><use transform="matrix(0.05,0,0,0.05,22,0)" xlink:href="#ao"/><use transform="matrix(0.05,0,0,0.05,27,0)" xlink:href="#aD"/><use transform="matrix(0.05,0,0,0.05,37.95,0)" xlink:href="#Q"/><use transform="matrix(0.05,0,0,0.05,47.95,0)" xlink:href="#aE"/><use transform="matrix(0.05,0,0,0.05,58.900000000000006,0)" xlink:href="#aF"/><use transform="matrix(0.05,0,0,0.05,68.9,0)" xlink:href="#Q"/><use transform="matrix(0.05,0,0,0.05,78.9,0)" xlink:href="#Y"/></g><path d="M47-170H22l-4-78h33" id="aG"/><g id="y"><use transform="matrix(0.05,0,0,0.05,0,0)" xlink:href="#ae"/><use transform="matrix(0.05,0,0,0.05,9.950000000000001,0)" xlink:href="#af"/><use transform="matrix(0.05,0,0,0.05,22.900000000000002,0)" xlink:href="#ac"/><use transform="matrix(0.05,0,0,0.05,32.900000000000006,0)" xlink:href="#ac"/><use transform="matrix(0.05,0,0,0.05,42.900000000000006,0)" xlink:href="#ag"/><use transform="matrix(0.05,0,0,0.05,47.900000000000006,0)" xlink:href="#ah"/><use transform="matrix(0.05,0,0,0.05,56.900000000000006,0)" xlink:href="#aG"/><use transform="matrix(0.05,0,0,0.05,60.300000000000004,0)" xlink:href="#ad"/></g><path d="M30-248c118-7 216 8 213 122C240-48 200 0 122 0H30v-248zM63-27c89 8 146-16 146-99s-60-101-146-95v194" id="aH"/><path d="M190 0L58-211 59 0H30v-248h39L202-35l-2-213h31V0h-41" id="aI"/><path d="M205 0l-28-72H64L36 0H1l101-248h38L239 0h-34zm-38-99l-47-123c-12 45-31 82-46 123h93" id="aJ"/><g id="z"><use transform="matrix(0.05,0,0,0.05,0,0)" xlink:href="#aH"/><use transform="matrix(0.05,0,0,0.05,12.950000000000001,0)" xlink:href="#aI"/><use transform="matrix(0.05,0,0,0.05,25.900000000000002,0)" xlink:href="#aJ"/></g><g id="A"><use transform="matrix(0.05,0,0,0.05,0,0)" xlink:href="#ae"/><use transform="matrix(0.05,0,0,0.05,8.950000000000001,0)" xlink:href="#ac"/><use transform="matrix(0.05,0,0,0.05,18.950000000000003,0)" xlink:href="#ad"/><use transform="matrix(0.05,0,0,0.05,27.950000000000003,0)" xlink:href="#ag"/></g><g id="B"><use transform="matrix(0.05,0,0,0.05,0,0)" xlink:href="#W"/><use transform="matrix(0.05,0,0,0.05,12.950000000000001,0)" xlink:href="#ac"/><use transform="matrix(0.05,0,0,0.05,22.950000000000003,0)" xlink:href="#ad"/><use transform="matrix(0.05,0,0,0.05,31.950000000000003,0)" xlink:href="#am"/><use transform="matrix(0.05,0,0,0.05,41.95,0)" xlink:href="#ab"/><use transform="matrix(0.05,0,0,0.05,45.900000000000006,0)" xlink:href="#ag"/><use transform="matrix(0.05,0,0,0.05,50.900000000000006,0)" xlink:href="#ad"/></g><g id="C"><use transform="matrix(0.05,0,0,0.05,0,0)" xlink:href="#ax"/><use transform="matrix(0.05,0,0,0.05,10,0)" xlink:href="#aj"/><use transform="matrix(0.05,0,0,0.05,20,0)" xlink:href="#aa"/><use transform="matrix(0.05,0,0,0.05,30,0)" xlink:href="#ay"/><use transform="matrix(0.05,0,0,0.05,40,0)" xlink:href="#ai"/><use transform="matrix(0.05,0,0,0.05,43.95,0)" xlink:href="#aA"/><use transform="matrix(0.05,0,0,0.05,52.95,0)" xlink:href="#aj"/><use transform="matrix(0.05,0,0,0.05,62.95,0)" xlink:href="#az"/><use transform="matrix(0.05,0,0,0.05,72.95,0)" xlink:href="#az"/><use transform="matrix(0.05,0,0,0.05,82.95,0)" xlink:href="#ac"/><use transform="matrix(0.05,0,0,0.05,92.95,0)" xlink:href="#ay"/></g><g id="D"><use transform="matrix(0.05,0,0,0.05,0,0)" xlink:href="#an"/><use transform="matrix(0.05,0,0,0.05,12.950000000000001,0)" xlink:href="#V"/><use transform="matrix(0.05,0,0,0.05,17.950000000000003,0)" xlink:href="#U"/><use transform="matrix(0.05,0,0,0.05,27.950000000000003,0)" xlink:href="#ao"/><use transform="matrix(0.05,0,0,0.05,32.95,0)" xlink:href="#ap"/><use transform="matrix(0.05,0,0,0.05,48.95,0)" xlink:href="#ar"/></g><g id="E"><use transform="matrix(0.05,0,0,0.05,0,0)" xlink:href="#ai"/><use transform="matrix(0.05,0,0,0.05,3.95,0)" xlink:href="#ad"/></g><g id="F"><use transform="matrix(0.05,0,0,0.05,0,0)" xlink:href="#az"/><use transform="matrix(0.05,0,0,0.05,10,0)" xlink:href="#ax"/><use transform="matrix(0.05,0,0,0.05,20,0)" xlink:href="#ah"/><use transform="matrix(0.05,0,0,0.05,29,0)" xlink:href="#ad"/><use transform="matrix(0.05,0,0,0.05,38,0)" xlink:href="#ai"/><use transform="matrix(0.05,0,0,0.05,41.95,0)" xlink:href="#aA"/><use transform="matrix(0.05,0,0,0.05,50.95,0)" xlink:href="#aj"/><use transform="matrix(0.05,0,0,0.05,60.95,0)" xlink:href="#ab"/><use transform="matrix(0.05,0,0,0.05,64.9,0)" xlink:href="#ab"/><use transform="matrix(0.05,0,0,0.05,68.85000000000001,0)" xlink:href="#ah"/></g><g id="G"><use transform="matrix(0.05,0,0,0.05,0,0)" xlink:href="#aj"/><use transform="matrix(0.05,0,0,0.05,10,0)" xlink:href="#at"/><use transform="matrix(0.05,0,0,0.05,20,0)" xlink:href="#ab"/><use transform="matrix(0.05,0,0,0.05,23.95,0)" xlink:href="#ac"/></g><g id="H"><use transform="matrix(0.05,0,0,0.05,0,0)" xlink:href="#aB"/><use transform="matrix(0.05,0,0,0.05,12,0)" xlink:href="#aC"/><use transform="matrix(0.05,0,0,0.05,22,0)" xlink:href="#ao"/><use transform="matrix(0.05,0,0,0.05,27,0)" xlink:href="#aD"/><use transform="matrix(0.05,0,0,0.05,37.95,0)" xlink:href="#Q"/><use transform="matrix(0.05,0,0,0.05,47.95,0)" xlink:href="#aE"/><use transform="matrix(0.05,0,0,0.05,58.900000000000006,0)" xlink:href="#aF"/><use transform="matrix(0.05,0,0,0.05,68.9,0)" xlink:href="#Q"/><use transform="matrix(0.05,0,0,0.05,78.9,0)" xlink:href="#Y"/></g><g id="I"><use transform="matrix(0.05,0,0,0.05,0,0)" xlink:href="#ak"/><use transform="matrix(0.05,0,0,0.05,12,0)" xlink:href="#ax"/><use transform="matrix(0.05,0,0,0.05,22,0)" xlink:href="#ah"/><use transform="matrix(0.05,0,0,0.05,31,0)" xlink:href="#ad"/><use transform="matrix(0.05,0,0,0.05,40,0)" xlink:href="#ai"/><use transform="matrix(0.05,0,0,0.05,43.95,0)" xlink:href="#aA"/><use transform="matrix(0.05,0,0,0.05,52.95,0)" xlink:href="#aj"/><use transform="matrix(0.05,0,0,0.05,62.95,0)" xlink:href="#ab"/></g><g id="J"><use transform="matrix(0.05,0,0,0.05,0,0)" xlink:href="#ag"/><use transform="matrix(0.05,0,0,0.05,5,0)" xlink:href="#ac"/><use transform="matrix(0.05,0,0,0.05,15,0)" xlink:href="#ad"/><use transform="matrix(0.05,0,0,0.05,24,0)" xlink:href="#ag"/></g><g id="K"><use transform="matrix(0.05,0,0,0.05,0,0)" xlink:href="#au"/><use transform="matrix(0.05,0,0,0.05,5.95,0)" xlink:href="#ac"/><use transform="matrix(0.05,0,0,0.05,15.949999999999998,0)" xlink:href="#az"/><use transform="matrix(0.05,0,0,0.05,25.950000000000003,0)" xlink:href="#av"/><use transform="matrix(0.05,0,0,0.05,35.95,0)" xlink:href="#au"/><use transform="matrix(0.05,0,0,0.05,41.900000000000006,0)" xlink:href="#ag"/></g><g id="L"><use transform="matrix(0.05,0,0,0.05,0,0)" xlink:href="#aB"/><use transform="matrix(0.05,0,0,0.05,12,0)" xlink:href="#aC"/><use transform="matrix(0.05,0,0,0.05,22,0)" xlink:href="#ao"/><use transform="matrix(0.05,0,0,0.05,27,0)" xlink:href="#aD"/><use transform="matrix(0.05,0,0,0.05,37.95,0)" xlink:href="#Q"/><use transform="matrix(0.05,0,0,0.05,47.95,0)" xlink:href="#aE"/><use transform="matrix(0.05,0,0,0.05,58.900000000000006,0)" xlink:href="#aF"/><use transform="matrix(0.05,0,0,0.05,68.9,0)" xlink:href="#Q"/><use transform="matrix(0.05,0,0,0.05,78.9,0)" xlink:href="#Y"/></g><path d="M63-220v92h138v28H63V0H30v-248h175v28H63" id="aK"/><g id="M"><use transform="matrix(0.05,0,0,0.05,0,0)" xlink:href="#aK"/><use transform="matrix(0.05,0,0,0.05,10.950000000000001,0)" xlink:href="#ab"/><use transform="matrix(0.05,0,0,0.05,14.9,0)" xlink:href="#ah"/><use transform="matrix(0.05,0,0,0.05,23.900000000000002,0)" xlink:href="#ai"/><use transform="matrix(0.05,0,0,0.05,27.85,0)" xlink:href="#aa"/><use transform="matrix(0.05,0,0,0.05,37.85,0)" xlink:href="#al"/></g><g id="N"><use transform="matrix(0.05,0,0,0.05,0,0)" xlink:href="#ae"/><use transform="matrix(0.05,0,0,0.05,9.950000000000001,0)" xlink:href="#af"/><use transform="matrix(0.05,0,0,0.05,22.900000000000002,0)" xlink:href="#ac"/><use transform="matrix(0.05,0,0,0.05,32.900000000000006,0)" xlink:href="#ac"/><use transform="matrix(0.05,0,0,0.05,42.900000000000006,0)" xlink:href="#ag"/><use transform="matrix(0.05,0,0,0.05,47.900000000000006,0)" xlink:href="#ah"/></g><path d="M185-189c-5-48-123-54-124 2 14 75 158 14 163 119 3 78-121 87-175 55-17-10-28-26-33-46l33-7c5 56 141 63 141-1 0-78-155-14-162-118-5-82 145-84 179-34 5 7 8 16 11 25" id="aL"/><g id="O"><use transform="matrix(0.05,0,0,0.05,0,0)" xlink:href="#aL"/><use transform="matrix(0.05,0,0,0.05,12,0)" xlink:href="#ai"/><use transform="matrix(0.05,0,0,0.05,15.949999999999998,0)" xlink:href="#al"/><use transform="matrix(0.05,0,0,0.05,25.950000000000003,0)" xlink:href="#ax"/><use transform="matrix(0.05,0,0,0.05,35.95,0)" xlink:href="#ag"/><use transform="matrix(0.05,0,0,0.05,40.95,0)" xlink:href="#ai"/><use transform="matrix(0.05,0,0,0.05,44.900000000000006,0)" xlink:href="#aa"/><use transform="matrix(0.05,0,0,0.05,54.900000000000006,0)" xlink:href="#al"/><use transform="matrix(0.05,0,0,0.05,64.9,0)" xlink:href="#ad"/></g></defs></g></svg>