<svg xmlns="http://www.w3.org/2000/svg" xmlns:xlink="http://www.w3.org/1999/xlink" xmlns:lucid="lucid" width="1166" height="445"><g transform="translate(-151 -1999)" lucid:page-tab-id="lijG_qHrHR5s"><path d="M0 0h1360v3456H0z" fill="#fff"/><path d="M800 2216.95c0 49.7-40.3 90-90 90s-90-40.3-90-90 40.3-90 90-90 90 40.3 90 90z" stroke="#c92d39" stroke-width="2" fill="#fff"/><use xlink:href="#a" transform="matrix(1,0,0,1,640,2126.9524401678136) translate(57.5 82.80000000000001)"/><use xlink:href="#b" transform="matrix(1,0,0,1,640,2126.9524401678136) translate(23.049999999999997 104.4)"/><use xlink:href="#c" transform="matrix(1,0,0,1,640,2126.9524401678136) translate(84 104.4)"/><path d="M380 2216.95c0 49.7-40.3 90-90 90s-90-40.3-90-90 40.3-90 90-90 90 40.3 90 90z" stroke="#c92d39" stroke-width="2" fill="#fff"/><use xlink:href="#d" transform="matrix(1,0,0,1,220,2126.9524401678136) translate(57.5 82.80000000000001)"/><use xlink:href="#e" transform="matrix(1,0,0,1,220,2126.9524401678136) translate(39.025 104.4)"/><use xlink:href="#f" transform="matrix(1,0,0,1,220,2126.9524401678136) translate(73.025 104.4)"/><path d="M380 2126.95h240v171.07H380z" stroke="#000" stroke-opacity="0" stroke-width="2" fill="#fff" fill-opacity="0"/><use xlink:href="#g" transform="matrix(1,0,0,1,385,2131.9524401678136) translate(38.70771604938281 27.311111111111167)"/><use xlink:href="#h" transform="matrix(1,0,0,1,385,2131.9524401678136) translate(103.86141975308644 27.311111111111167)"/><use xlink:href="#i" transform="matrix(1,0,0,1,385,2131.9524401678136) translate(12.60895061728408 67.57777777777778)"/><use xlink:href="#j" transform="matrix(1,0,0,1,385,2131.9524401678136) translate(187.657098765432 67.57777777777778)"/><use xlink:href="#k" transform="matrix(1,0,0,1,385,2131.9524401678136) translate(42.38950617283959 107.8444444444444)"/><use xlink:href="#l" transform="matrix(1,0,0,1,385,2131.9524401678136) translate(101.85740740740742 107.8444444444444)"/><use xlink:href="#m" transform="matrix(1,0,0,1,385,2131.9524401678136) translate(39.5932098765433 148.11111111111103)"/><path d="M500.87 2059.12l4.53.26 5.67.54 5.67.78 5.68 1.03 5.7 1.27 5.7 1.54 5.74 1.8 5.75 2.07 5.78 2.37 5.8 2.66 5.8 2.96 5.8 3.27 5.82 3.6 5.8 3.96 5.77 4.3 5.72 4.63 5.64 4.98 5.55 5.33 5.4 5.67 5.28 5.98 5.08 6.28 4.86 6.55 4.6 6.78 3.25 5.25-1.7 1.05-3.23-5.2-4.56-6.72-4.8-6.47-5.03-6.22-5.2-5.9-5.38-5.6-5.5-5.28-5.57-4.94-5.66-4.58-5.7-4.24-5.73-3.9-5.73-3.57-5.74-3.25-5.73-2.92-5.72-2.62-5.7-2.32-5.66-2.05-5.65-1.77-5.63-1.52-5.6-1.25-5.6-1.02-5.6-.77-5.6-.53-4.45-.25-2.82-.06v-2zm-40.84 5.95l-5.1 1.2-7.3 2.04-7.37 2.42-7.43 2.77-7.42 3.12-7.37 3.48-7.26 3.8-7.1 4.1-6.9 4.4-6.66 4.63-6.35 4.84-6.05 5-5.7 5.16-5.38 5.26-5 5.34-4.67 5.4-4.3 5.45-3.97 5.45-3.1 4.66-1.66-1.1 3.12-4.7 4-5.52 4.37-5.5 4.72-5.48 5.07-5.4 5.42-5.33 5.78-5.2 6.1-5.07 6.44-4.9 6.7-4.66 6.98-4.44 7.18-4.15 7.34-3.84 7.45-3.5 7.5-3.17 7.5-2.8 7.46-2.43 7.37-2.07 5.6-1.32z" fill="#c92d39"/><path d="M345.6 2143.6l-.6.9-1.6-1.2.54-.82zM637.7 2156.9l-10.88-10.3 8.15-4.43z" fill="#c92d39"/><path d="M639.25 2159.76l-14.12-13.4 10.57-5.73zm-10.74-12.95l7.66 7.27-1.93-10.37z" fill="#c92d39"/><use xlink:href="#n" transform="matrix(1,0,0,1,460.0312080573049,2050.09828386875) translate(0 14.4)"/><path d="M351.26 2309.7l2.57 4.25 2.74 4.12 2.92 4 3.1 3.92 3.28 3.8 3.47 3.7 3.68 3.58 3.88 3.5 4.1 3.38 4.33 3.27 4.55 3.16 4.8 3.03 5.03 2.9 5.3 2.76 5.54 2.6 5.8 2.43 6.07 2.25 6.33 2.04 6.57 1.83 6.8 1.6 7.04 1.33 7.25 1.07 7.4.77 7.6.47 3.3.06v2l-3.4-.07-7.66-.48-7.5-.8-7.33-1.06-7.1-1.36-6.9-1.6-6.65-1.86-6.4-2.07-6.14-2.28-5.87-2.48-5.62-2.64-5.35-2.8-5.1-2.94-4.87-3.08-4.62-3.2-4.4-3.33-4.15-3.44-3.94-3.56-3.74-3.65-3.53-3.77-3.35-3.87-3.15-3.97-2.97-4.1-2.8-4.18-2.6-4.3-.92-1.67 1.76-.97zm290.68-31.56l-2.8 5.67-3.5 6.36-3.7 6.13-3.93 5.9-4.14 5.73-4.37 5.52-4.6 5.34-4.84 5.14-5.06 4.96-5.3 4.77-5.52 4.58-5.77 4.38-6 4.18-6.24 3.98-6.48 3.75-6.7 3.5-6.94 3.27-7.13 3-7.32 2.74-7.5 2.44-7.66 2.15-7.77 1.82-6 1.15v-2.03l5.58-1.07 7.7-1.8 7.56-2.13 7.42-2.42 7.25-2.7 7.06-2.97 6.85-3.23 6.63-3.47 6.42-3.7 6.17-3.93 5.93-4.13 5.7-4.34 5.47-4.53 5.23-4.7 5-4.9 4.77-5.1 4.55-5.27 4.32-5.46 4.1-5.65 3.88-5.85 3.66-6.06 3.46-6.28 2.8-5.62z" fill="#c92d39"/><path d="M642.2 2277.62l-.27.55-1.8-.9.65-1.3zM353.28 2305.73l-8.4 3.9-1.8-14.9z" fill="#c92d39"/><path d="M354.95 2306.06l-10.9 5.05-2.33-19.3zm-9.25 2.08l5.9-2.74-7.16-7.73z" fill="#c92d39"/><g><use xlink:href="#n" transform="matrix(1,0,0,1,474.6954940922598,2365.252555751833) translate(0 14.4)"/></g><path d="M1270 2210c0 49.7-40.3 90-90 90s-90-40.3-90-90 40.3-90 90-90 90 40.3 90 90z" stroke="#000" stroke-width="2" fill="#fff"/><g><use xlink:href="#o" transform="matrix(1,0,0,1,1110,2120) translate(57.5 82.80000000000001)"/><use xlink:href="#p" transform="matrix(1,0,0,1,1110,2120) translate(10.574999999999996 104.4)"/><use xlink:href="#q" transform="matrix(1,0,0,1,1110,2120) translate(64.475 104.4)"/></g><path d="M860 2132.5h240v160H860z" stroke="#000" stroke-opacity="0" stroke-width="2" fill="#fff" fill-opacity="0"/><g><use xlink:href="#r" transform="matrix(1,0,0,1,865,2137.485773501147) translate(11.423765432098861 58.02222222222223)"/><use xlink:href="#s" transform="matrix(1,0,0,1,865,2137.485773501147) translate(49.03425925925932 58.02222222222223)"/><use xlink:href="#t" transform="matrix(1,0,0,1,865,2137.485773501147) translate(143.35524691358023 58.02222222222223)"/><use xlink:href="#u" transform="matrix(1,0,0,1,865,2137.485773501147) translate(30.287962962963036 108.95555555555552)"/><use xlink:href="#v" transform="matrix(1,0,0,1,865,2137.485773501147) translate(77.44845679012349 108.95555555555552)"/></g><defs><path fill="#c92d39" d="M101-251c82-7 93 87 43 132L82-64C71-53 59-42 53-27h129V0H18c2-99 128-94 128-182 0-28-16-43-45-43s-46 15-49 41l-32-3c6-41 34-60 81-64" id="w"/><path fill="#c92d39" d="M33 0v-38h34V0H33" id="x"/><path fill="#c92d39" d="M101-251c68 0 85 55 85 127S166 4 100 4C33 4 14-52 14-124c0-73 17-127 87-127zm-1 229c47 0 54-49 54-102s-4-102-53-102c-51 0-55 48-55 102 0 53 5 102 54 102" id="y"/><g id="a"><use transform="matrix(0.05,0,0,0.05,0,0)" xlink:href="#w"/><use transform="matrix(0.05,0,0,0.05,10,0)" xlink:href="#x"/><use transform="matrix(0.05,0,0,0.05,15,0)" xlink:href="#y"/></g><path fill="#c92d39" d="M160-131c35 5 61 23 61 61C221 17 115-2 30 0v-248c76 3 177-17 177 60 0 33-19 50-47 57zm-97-11c50-1 110 9 110-42 0-47-63-36-110-37v79zm0 115c55-2 124 14 124-45 0-56-70-42-124-44v89" id="z"/><path fill="#c92d39" d="M84 4C-5 8 30-112 23-190h32v120c0 31 7 50 39 49 72-2 45-101 50-169h31l1 190h-30c-1-10 1-25-2-33-11 22-28 36-60 37" id="A"/><path fill="#c92d39" d="M115-194c53 0 69 39 70 98 0 66-23 100-70 100C84 3 66-7 56-30L54 0H23l1-261h32v101c10-23 28-34 59-34zm-8 174c40 0 45-34 45-75 0-40-5-75-45-74-42 0-51 32-51 76 0 43 10 73 51 73" id="B"/><path fill="#c92d39" d="M24 0v-261h32V0H24" id="C"/><path fill="#c92d39" d="M100-194c63 0 86 42 84 106H49c0 40 14 67 53 68 26 1 43-12 49-29l28 8c-11 28-37 45-77 45C44 4 14-33 15-96c1-61 26-98 85-98zm52 81c6-60-76-77-97-28-3 7-6 17-6 28h103" id="D"/><g id="b"><use transform="matrix(0.05,0,0,0.05,0,0)" xlink:href="#z"/><use transform="matrix(0.05,0,0,0.05,12,0)" xlink:href="#A"/><use transform="matrix(0.05,0,0,0.05,22,0)" xlink:href="#B"/><use transform="matrix(0.05,0,0,0.05,32,0)" xlink:href="#B"/><use transform="matrix(0.05,0,0,0.05,42,0)" xlink:href="#C"/><use transform="matrix(0.05,0,0,0.05,45.95,0)" xlink:href="#D"/></g><path fill="#c92d39" d="M185-189c-5-48-123-54-124 2 14 75 158 14 163 119 3 78-121 87-175 55-17-10-28-26-33-46l33-7c5 56 141 63 141-1 0-78-155-14-162-118-5-82 145-84 179-34 5 7 8 16 11 25" id="E"/><path fill="#c92d39" d="M100-194c62-1 85 37 85 99 1 63-27 99-86 99S16-35 15-95c0-66 28-99 85-99zM99-20c44 1 53-31 53-75 0-43-8-75-51-75s-53 32-53 75 10 74 51 75" id="F"/><path fill="#c92d39" d="M114-163C36-179 61-72 57 0H25l-1-190h30c1 12-1 29 2 39 6-27 23-49 58-41v29" id="G"/><path fill="#c92d39" d="M59-47c-2 24 18 29 38 22v24C64 9 27 4 27-40v-127H5v-23h24l9-43h21v43h35v23H59v120" id="H"/><g id="c"><use transform="matrix(0.05,0,0,0.05,0,0)" xlink:href="#E"/><use transform="matrix(0.05,0,0,0.05,12,0)" xlink:href="#F"/><use transform="matrix(0.05,0,0,0.05,22,0)" xlink:href="#G"/><use transform="matrix(0.05,0,0,0.05,27.950000000000003,0)" xlink:href="#H"/></g><path fill="#c92d39" d="M27 0v-27h64v-190l-56 39v-29l58-41h29v221h61V0H27" id="I"/><g id="d"><use transform="matrix(0.05,0,0,0.05,0,0)" xlink:href="#I"/><use transform="matrix(0.05,0,0,0.05,10,0)" xlink:href="#x"/><use transform="matrix(0.05,0,0,0.05,15,0)" xlink:href="#y"/></g><path fill="#c92d39" d="M143 4C61 4 22-44 18-125c-5-107 100-154 193-111 17 8 29 25 37 43l-32 9c-13-25-37-40-76-40-61 0-88 39-88 99 0 61 29 100 91 101 35 0 62-11 79-27v-45h-74v-28h105v86C228-13 192 4 143 4" id="J"/><g id="e"><use transform="matrix(0.05,0,0,0.05,0,0)" xlink:href="#J"/><use transform="matrix(0.05,0,0,0.05,14,0)" xlink:href="#D"/><use transform="matrix(0.05,0,0,0.05,24,0)" xlink:href="#H"/></g><path fill="#c92d39" d="M30 0v-248h33v221h125V0H30" id="K"/><path fill="#c92d39" d="M24-231v-30h32v30H24zM24 0v-190h32V0H24" id="L"/><path fill="#c92d39" d="M135-143c-3-34-86-38-87 0 15 53 115 12 119 90S17 21 10-45l28-5c4 36 97 45 98 0-10-56-113-15-118-90-4-57 82-63 122-42 12 7 21 19 24 35" id="M"/><g id="f"><use transform="matrix(0.05,0,0,0.05,0,0)" xlink:href="#K"/><use transform="matrix(0.05,0,0,0.05,10,0)" xlink:href="#L"/><use transform="matrix(0.05,0,0,0.05,13.949999999999998,0)" xlink:href="#M"/><use transform="matrix(0.05,0,0,0.05,22.95,0)" xlink:href="#H"/></g><path fill="#c92d39" d="M199 0l-22-63H83L61 0H9l90-248h61L250 0h-51zm-33-102l-36-108c-10 38-24 72-36 108h72" id="N"/><path fill="#c92d39" d="M135-150c-39-12-60 13-60 57V0H25l-1-190h47c2 13-1 29 3 40 6-28 27-53 61-41v41" id="O"/><path fill="#c92d39" d="M185-48c-13 30-37 53-82 52C43 2 14-33 14-96s30-98 90-98c62 0 83 45 84 108H66c0 31 8 55 39 56 18 0 30-7 34-22zm-45-69c5-46-57-63-70-21-2 6-4 13-4 21h74" id="P"/><g id="g"><use transform="matrix(0.09320987654320977,0,0,0.09320987654320977,0,0)" xlink:href="#N"/><use transform="matrix(0.09320987654320977,0,0,0.09320987654320977,24.14135802469133,0)" xlink:href="#O"/><use transform="matrix(0.09320987654320977,0,0,0.09320987654320977,37.190740740740694,0)" xlink:href="#P"/></g><path fill="#c92d39" d="M115-3C79 11 28 4 28-45v-112H4v-33h27l15-45h31v45h36v33H77v99c-1 23 16 31 38 25v30" id="Q"/><path fill="#c92d39" d="M114-157C55-157 80-60 75 0H25v-261h50l-1 109c12-26 28-41 61-42 86-1 58 113 63 194h-50c-7-57 23-157-34-157" id="R"/><path fill="#c92d39" d="M137-138c1-29-70-34-71-4 15 46 118 7 119 86 1 83-164 76-172 9l43-7c4 19 20 25 44 25 33 8 57-30 24-41C81-84 22-81 20-136c-2-80 154-74 161-7" id="S"/><g id="h"><use transform="matrix(0.09320987654320977,0,0,0.09320987654320977,0,0)" xlink:href="#Q"/><use transform="matrix(0.09320987654320977,0,0,0.09320987654320977,11.091975308641961,0)" xlink:href="#R"/><use transform="matrix(0.09320987654320977,0,0,0.09320987654320977,31.5049382716049,0)" xlink:href="#P"/><use transform="matrix(0.09320987654320977,0,0,0.09320987654320977,50.14691358024685,0)" xlink:href="#S"/><use transform="matrix(0.09320987654320977,0,0,0.09320987654320977,68.7888888888888,0)" xlink:href="#P"/></g><path fill="#c92d39" d="M135-194c53 0 70 44 70 98 0 56-19 98-73 100-31 1-45-17-59-34 3 33 2 69 2 105H25l-1-265h48c2 10 0 23 3 31 11-24 29-35 60-35zM114-30c33 0 39-31 40-66 0-38-9-64-40-64-56 0-55 130 0 130" id="T"/><path fill="#c92d39" d="M110-194c64 0 96 36 96 99 0 64-35 99-97 99-61 0-95-36-95-99 0-62 34-99 96-99zm-1 164c35 0 45-28 45-65 0-40-10-65-43-65-34 0-45 26-45 65 0 36 10 65 43 65" id="U"/><path fill="#c92d39" d="M190-63c-7 42-38 67-86 67-59 0-84-38-90-98-12-110 154-137 174-36l-49 2c-2-19-15-32-35-32-30 0-35 28-38 64-6 74 65 87 74 30" id="V"/><g id="i"><use transform="matrix(0.09320987654320977,0,0,0.09320987654320977,0,0)" xlink:href="#T"/><use transform="matrix(0.09320987654320977,0,0,0.09320987654320977,20.41296296296294,0)" xlink:href="#O"/><use transform="matrix(0.09320987654320977,0,0,0.09320987654320977,33.46234567901231,0)" xlink:href="#U"/><use transform="matrix(0.09320987654320977,0,0,0.09320987654320977,53.87530864197525,0)" xlink:href="#V"/><use transform="matrix(0.09320987654320977,0,0,0.09320987654320977,72.51728395061721,0)" xlink:href="#P"/><use transform="matrix(0.09320987654320977,0,0,0.09320987654320977,91.15925925925916,0)" xlink:href="#S"/><use transform="matrix(0.09320987654320977,0,0,0.09320987654320977,109.8012345679011,0)" xlink:href="#S"/><use transform="matrix(0.09320987654320977,0,0,0.09320987654320977,128.44320987654305,0)" xlink:href="#P"/><use transform="matrix(0.09320987654320977,0,0,0.09320987654320977,147.085185185185,0)" xlink:href="#S"/></g><path fill="#c92d39" d="M25-224v-37h50v37H25zM25 0v-190h50V0H25" id="W"/><path fill="#c92d39" d="M135-194c87-1 58 113 63 194h-50c-7-57 23-157-34-157-59 0-34 97-39 157H25l-1-190h47c2 12-1 28 3 38 12-26 28-41 61-42" id="X"/><g id="j"><use transform="matrix(0.09320987654320977,0,0,0.09320987654320977,0,0)" xlink:href="#W"/><use transform="matrix(0.09320987654320977,0,0,0.09320987654320977,9.320987654320977,0)" xlink:href="#X"/></g><g id="k"><use transform="matrix(0.09320987654320977,0,0,0.09320987654320977,0,0)" xlink:href="#Q"/><use transform="matrix(0.09320987654320977,0,0,0.09320987654320977,11.091975308641961,0)" xlink:href="#R"/><use transform="matrix(0.09320987654320977,0,0,0.09320987654320977,31.5049382716049,0)" xlink:href="#P"/></g><path fill="#c92d39" d="M133-34C117-15 103 5 69 4 32 3 11-16 11-54c-1-60 55-63 116-61 1-26-3-47-28-47-18 1-26 9-28 27l-52-2c7-38 36-58 82-57s74 22 75 68l1 82c-1 14 12 18 25 15v27c-30 8-71 5-69-32zm-48 3c29 0 43-24 42-57-32 0-66-3-65 30 0 17 8 27 23 27" id="Y"/><path fill="#c92d39" d="M220-157c-53 9-28 100-34 157h-49v-107c1-27-5-49-29-50C55-147 81-57 75 0H25l-1-190h47c2 12-1 28 3 38 10-53 101-56 108 0 13-22 24-43 59-42 82 1 51 116 57 194h-49v-107c-1-25-5-48-29-50" id="Z"/><g id="l"><use transform="matrix(0.09320987654320977,0,0,0.09320987654320977,0,0)" xlink:href="#S"/><use transform="matrix(0.09320987654320977,0,0,0.09320987654320977,18.641975308641953,0)" xlink:href="#Y"/><use transform="matrix(0.09320987654320977,0,0,0.09320987654320977,37.28395061728391,0)" xlink:href="#Z"/><use transform="matrix(0.09320987654320977,0,0,0.09320987654320977,67.11111111111103,0)" xlink:href="#P"/></g><path fill="#c92d39" d="M123 10C108 53 80 86 19 72V37c35 8 53-11 59-39L3-190h52l48 148c12-52 28-100 44-148h51" id="aa"/><path fill="#c92d39" d="M110-251c83-7 118 89 53 130-17 10-36 21-38 46H78c2-56 65-53 71-103 2-21-15-35-38-34-25 1-41 14-44 38l-50-2c6-48 39-70 93-75zM77 0v-47h51V0H77" id="ab"/><g id="m"><use transform="matrix(0.09320987654320977,0,0,0.09320987654320977,0,0)" xlink:href="#Z"/><use transform="matrix(0.09320987654320977,0,0,0.09320987654320977,29.827160493827126,0)" xlink:href="#P"/><use transform="matrix(0.09320987654320977,0,0,0.09320987654320977,48.469135802469076,0)" xlink:href="#Z"/><use transform="matrix(0.09320987654320977,0,0,0.09320987654320977,78.2962962962962,0)" xlink:href="#U"/><use transform="matrix(0.09320987654320977,0,0,0.09320987654320977,98.70925925925914,0)" xlink:href="#O"/><use transform="matrix(0.09320987654320977,0,0,0.09320987654320977,111.7586419753085,0)" xlink:href="#aa"/><use transform="matrix(0.09320987654320977,0,0,0.09320987654320977,130.40061728395045,0)" xlink:href="#ab"/></g><path fill="#c92d39" d="M30-248c118-7 216 8 213 122C240-48 200 0 122 0H30v-248zM63-27c89 8 146-16 146-99s-60-101-146-95v194" id="ac"/><path fill="#c92d39" d="M141-36C126-15 110 5 73 4 37 3 15-17 15-53c-1-64 63-63 125-63 3-35-9-54-41-54-24 1-41 7-42 31l-33-3c5-37 33-52 76-52 45 0 72 20 72 64v82c-1 20 7 32 28 27v20c-31 9-61-2-59-35zM48-53c0 20 12 33 32 33 41-3 63-29 60-74-43 2-92-5-92 41" id="ad"/><g id="n"><use transform="matrix(0.05,0,0,0.05,0,0)" xlink:href="#ac"/><use transform="matrix(0.05,0,0,0.05,12.950000000000001,0)" xlink:href="#ad"/><use transform="matrix(0.05,0,0,0.05,22.950000000000003,0)" xlink:href="#H"/><use transform="matrix(0.05,0,0,0.05,27.950000000000003,0)" xlink:href="#ad"/></g><path d="M27 0v-27h64v-190l-56 39v-29l58-41h29v221h61V0H27" id="ae"/><path d="M33 0v-38h34V0H33" id="af"/><path d="M101-251c68 0 85 55 85 127S166 4 100 4C33 4 14-52 14-124c0-73 17-127 87-127zm-1 229c47 0 54-49 54-102s-4-102-53-102c-51 0-55 48-55 102 0 53 5 102 54 102" id="ag"/><g id="o"><use transform="matrix(0.05,0,0,0.05,0,0)" xlink:href="#ae"/><use transform="matrix(0.05,0,0,0.05,10,0)" xlink:href="#af"/><use transform="matrix(0.05,0,0,0.05,15,0)" xlink:href="#ag"/></g><path d="M185-189c-5-48-123-54-124 2 14 75 158 14 163 119 3 78-121 87-175 55-17-10-28-26-33-46l33-7c5 56 141 63 141-1 0-78-155-14-162-118-5-82 145-84 179-34 5 7 8 16 11 25" id="ah"/><path d="M100-194c62-1 85 37 85 99 1 63-27 99-86 99S16-35 15-95c0-66 28-99 85-99zM99-20c44 1 53-31 53-75 0-43-8-75-51-75s-53 32-53 75 10 74 51 75" id="ai"/><path d="M114-163C36-179 61-72 57 0H25l-1-190h30c1 12-1 29 2 39 6-27 23-49 58-41v29" id="aj"/><path d="M59-47c-2 24 18 29 38 22v24C64 9 27 4 27-40v-127H5v-23h24l9-43h21v43h35v23H59v120" id="ak"/><path d="M100-194c63 0 86 42 84 106H49c0 40 14 67 53 68 26 1 43-12 49-29l28 8c-11 28-37 45-77 45C44 4 14-33 15-96c1-61 26-98 85-98zm52 81c6-60-76-77-97-28-3 7-6 17-6 28h103" id="al"/><g id="p"><use transform="matrix(0.05,0,0,0.05,0,0)" xlink:href="#ah"/><use transform="matrix(0.05,0,0,0.05,12,0)" xlink:href="#ai"/><use transform="matrix(0.05,0,0,0.05,22,0)" xlink:href="#aj"/><use transform="matrix(0.05,0,0,0.05,27.950000000000003,0)" xlink:href="#ak"/><use transform="matrix(0.05,0,0,0.05,32.95,0)" xlink:href="#al"/><use transform="matrix(0.05,0,0,0.05,42.95,0)" xlink:href="#aj"/></g><path d="M30-248c87 1 191-15 191 75 0 78-77 80-158 76V0H30v-248zm33 125c57 0 124 11 124-50 0-59-68-47-124-48v98" id="am"/><path d="M96-169c-40 0-48 33-48 73s9 75 48 75c24 0 41-14 43-38l32 2c-6 37-31 61-74 61-59 0-76-41-82-99-10-93 101-131 147-64 4 7 5 14 7 22l-32 3c-4-21-16-35-41-35" id="an"/><path d="M135-143c-3-34-86-38-87 0 15 53 115 12 119 90S17 21 10-45l28-5c4 36 97 45 98 0-10-56-113-15-118-90-4-57 82-63 122-42 12 7 21 19 24 35" id="ao"/><g id="q"><use transform="matrix(0.05,0,0,0.05,0,0)" xlink:href="#am"/><use transform="matrix(0.05,0,0,0.05,12,0)" xlink:href="#aj"/><use transform="matrix(0.05,0,0,0.05,17.95,0)" xlink:href="#ai"/><use transform="matrix(0.05,0,0,0.05,27.950000000000003,0)" xlink:href="#an"/><use transform="matrix(0.05,0,0,0.05,36.95,0)" xlink:href="#al"/><use transform="matrix(0.05,0,0,0.05,46.95,0)" xlink:href="#ao"/><use transform="matrix(0.05,0,0,0.05,55.95,0)" xlink:href="#ao"/></g><path d="M24 0v-248h52V0H24" id="ap"/><path d="M121-226c-27-7-43 5-38 36h38v33H83V0H34v-157H6v-33h28c-9-59 32-81 87-68v32" id="aq"/><g id="r"><use transform="matrix(0.11790123456790114,0,0,0.11790123456790114,0,0)" xlink:href="#ap"/><use transform="matrix(0.11790123456790114,0,0,0.11790123456790114,11.790123456790113,0)" xlink:href="#aq"/></g><path d="M123 10C108 53 80 86 19 72V37c35 8 53-11 59-39L3-190h52l48 148c12-52 28-100 44-148h51" id="ar"/><path d="M185-48c-13 30-37 53-82 52C43 2 14-33 14-96s30-98 90-98c62 0 83 45 84 108H66c0 31 8 55 39 56 18 0 30-7 34-22zm-45-69c5-46-57-63-70-21-2 6-4 13-4 21h74" id="as"/><path d="M137-138c1-29-70-34-71-4 15 46 118 7 119 86 1 83-164 76-172 9l43-7c4 19 20 25 44 25 33 8 57-30 24-41C81-84 22-81 20-136c-2-80 154-74 161-7" id="at"/><path d="M76-54c-1 42 2 86-19 110H24C36 42 46 24 48 0H25v-54h51" id="au"/><g id="s"><use transform="matrix(0.11790123456790114,0,0,0.11790123456790114,0,0)" xlink:href="#ar"/><use transform="matrix(0.11790123456790114,0,0,0.11790123456790114,23.580246913580226,0)" xlink:href="#as"/><use transform="matrix(0.11790123456790114,0,0,0.11790123456790114,47.16049382716045,0)" xlink:href="#at"/><use transform="matrix(0.11790123456790114,0,0,0.11790123456790114,70.74074074074068,0)" xlink:href="#au"/></g><path d="M115-3C79 11 28 4 28-45v-112H4v-33h27l15-45h31v45h36v33H77v99c-1 23 16 31 38 25v30" id="av"/><path d="M114-157C55-157 80-60 75 0H25v-261h50l-1 109c12-26 28-41 61-42 86-1 58 113 63 194h-50c-7-57 23-157-34-157" id="aw"/><path d="M25-224v-37h50v37H25zM25 0v-190h50V0H25" id="ax"/><g id="t"><use transform="matrix(0.11790123456790114,0,0,0.11790123456790114,0,0)" xlink:href="#av"/><use transform="matrix(0.11790123456790114,0,0,0.11790123456790114,14.030246913580235,0)" xlink:href="#aw"/><use transform="matrix(0.11790123456790114,0,0,0.11790123456790114,39.850617283950584,0)" xlink:href="#ax"/><use transform="matrix(0.11790123456790114,0,0,0.11790123456790114,51.640740740740696,0)" xlink:href="#at"/></g><g id="u"><use transform="matrix(0.11790123456790114,0,0,0.11790123456790114,0,0)" xlink:href="#ax"/><use transform="matrix(0.11790123456790114,0,0,0.11790123456790114,11.790123456790113,0)" xlink:href="#at"/></g><path d="M182-130c37 4 62 22 62 59C244 23 116-4 24 0v-248c84 5 203-23 205 63 0 31-19 50-47 55zM76-148c40-3 101 13 101-30 0-44-60-28-101-31v61zm0 110c48-3 116 14 116-37 0-48-69-32-116-35v72" id="ay"/><path d="M135-150c-39-12-60 13-60 57V0H25l-1-190h47c2 13-1 29 3 40 6-28 27-53 61-41v41" id="az"/><g id="v"><use transform="matrix(0.11790123456790114,0,0,0.11790123456790114,0,0)" xlink:href="#ay"/><use transform="matrix(0.11790123456790114,0,0,0.11790123456790114,30.536419753086395,0)" xlink:href="#as"/><use transform="matrix(0.11790123456790114,0,0,0.11790123456790114,54.11666666666662,0)" xlink:href="#av"/><use transform="matrix(0.11790123456790114,0,0,0.11790123456790114,68.14691358024686,0)" xlink:href="#av"/><use transform="matrix(0.11790123456790114,0,0,0.11790123456790114,82.1771604938271,0)" xlink:href="#as"/><use transform="matrix(0.11790123456790114,0,0,0.11790123456790114,105.75740740740733,0)" xlink:href="#az"/></g></defs></g></svg>