<svg xmlns="http://www.w3.org/2000/svg" xmlns:xlink="http://www.w3.org/1999/xlink" xmlns:lucid="lucid" width="1360" height="1034"><g transform="translate(0 0)" lucid:page-tab-id="lijG_qHrHR5s"><path d="M0 0h1360v1760H0z" fill="#fff"/><path d="M120 131.57h160v120H120z" stroke="#c92d39" stroke-width="2" fill="#fff"/><use xlink:href="#a" transform="matrix(1,0,0,1,125,136.573039140294) translate(42.05 47.8)"/><use xlink:href="#b" transform="matrix(1,0,0,1,125,136.573039140294) translate(37.05 69.4)"/><path d="M460 151.57h200v100H460z" fill="#fff"/><path d="M460 151.57h200m0 100H460" stroke="#c92d39" stroke-width="2" fill="#fff"/><use xlink:href="#c" transform="matrix(1,0,0,1,480,151.573039140294) translate(61.025 42.8)"/><use xlink:href="#d" transform="matrix(1,0,0,1,480,151.573039140294) translate(58.525 64.4)"/><path d="M399.98 60.2l6.5.96 6.5 1.24 6.5 1.5 6.45 1.8 6.4 2.08 6.33 2.35 6.24 2.62 6.14 2.88 6 3.13 5.88 3.4 5.72 3.6 5.56 3.87 5.38 4.07 5.2 4.3 5 4.5 4.8 4.68 4.6 4.9 4.37 5.05 4.17 5.25 3.95 5.43 3.73 5.6.28.48-1.7 1.04-.27-.44-3.67-5.53-3.9-5.36-4.12-5.2-4.32-5-4.53-4.82-4.74-4.63-4.93-4.44-5.13-4.23-5.32-4.02-5.48-3.8-5.65-3.6-5.8-3.33-5.95-3.1-6.06-2.84-6.17-2.6-6.26-2.3-6.32-2.06-6.37-1.77-6.4-1.5-6.43-1.22-6.42-.94-2.66-.3v-2zm-40.86 2.4l-3.1.48-5.94 1.13-5.85 1.4-5.74 1.6-5.65 1.84-5.54 2.06-5.42 2.3-5.33 2.5-5.22 2.74-5.12 2.96-5 3.2-4.92 3.4-4.8 3.67-4.72 3.9-4.62 4.17-4.5 4.43-4.43 4.7-4.3 5.02-4.22 5.3-4.1 5.68-3.46 5.2-1.67-1.1 3.48-5.24 4.16-5.73 4.25-5.38 4.37-5.08 4.48-4.77 4.57-4.5 4.68-4.2 4.78-3.97 4.88-3.7 5-3.48 5.07-3.23 5.2-3 5.3-2.8 5.4-2.54 5.5-2.32 5.62-2.1 5.7-1.86 5.83-1.63 5.93-1.4 6.02-1.15 3.44-.5z" fill="#c92d39"/><path d="M257.13 130.27l-.2.3h-2.4l.94-1.4zM522.22 147.74l-10.97-10.23 8.1-4.48z" fill="#c92d39"/><path d="M523.8 150.57l-14.24-13.27 10.52-5.82zm-10.86-12.85l7.7 7.2-2-10.36z" fill="#c92d39"/><use xlink:href="#e" transform="matrix(1,0,0,1,359.12347748240995,49.25509641293699) translate(0 14.4)"/><path d="M246.4 272.46l2.88 4.74 3.07 4.6 3.27 4.5 3.47 4.38 3.67 4.26 3.9 4.14 4.1 4 4.32 3.9 4.54 3.75 4.76 3.6 5 3.47 5.2 3.3 5.43 3.14 5.65 2.95 5.86 2.74 6.06 2.54 6.25 2.32 6.43 2.08 6.58 1.84 6.72 1.57 6.83 1.28 6.93 1.02 2.78.3v2l-3.02-.3-7-1.04-6.92-1.32-6.8-1.6-6.66-1.84-6.5-2.1-6.33-2.36-6.14-2.57-5.93-2.8-5.73-2.98-5.5-3.18-5.3-3.35-5.04-3.5-4.84-3.67-4.6-3.8-4.4-3.95-4.16-4.07-3.95-4.2-3.75-4.32-3.52-4.45-3.32-4.55-3.1-4.68-2.92-4.8-1.97-3.58 1.76-.98zm277.84-18.54l-2.87 5.78-3.5 6.38-3.67 6.07-3.84 5.8-4 5.5-4.17 5.27-4.34 5.02-4.5 4.8-4.64 4.55-4.8 4.34-5 4.12-5.14 3.9-5.3 3.7-5.5 3.5-5.64 3.26-5.8 3.04-6 2.82-6.13 2.58-6.3 2.35-6.44 2.1-6.58 1.85-6.72 1.58-6.83 1.3-6.94 1.04-1.54.16v-2l1.28-.15 6.85-1 6.74-1.3 6.64-1.56 6.5-1.83 6.37-2.08 6.22-2.32 6.06-2.55 5.9-2.78 5.75-3 5.57-3.23 5.4-3.44 5.25-3.65 5.08-3.86 4.92-4.08 4.75-4.28 4.6-4.5 4.43-4.73 4.27-4.95 4.1-5.2 3.97-5.45 3.8-5.72 3.62-6 3.46-6.3 2.85-5.75z" fill="#c92d39"/><path d="M524.23 253.94l-1.8-.9.24-.47h2.24zM247.4 266.6l-8.44 3.83-1.68-14.9z" fill="#c92d39"/><path d="M249.07 266.93l-10.95 4.97-2.18-19.33zm-9.27 2.02l5.93-2.7-7.1-7.78z" fill="#c92d39"/><use xlink:href="#e" transform="matrix(1,0,0,1,360.11157497065324,334.0983235942311) translate(0 14.4)"/><path d="M260 171.1h240v60.94H260z" stroke="#000" stroke-opacity="0" stroke-width="2" fill="#fff" fill-opacity="0"/><use xlink:href="#f" transform="matrix(1,0,0,1,265,176.10637247362735) translate(41.42962962962969 33.98888888888888)"/><path d="M355 408.83l-3.18.6-6.34 1.5-6.25 1.75-6.14 2-6.04 2.25-5.92 2.5-5.8 2.73-5.65 2.96-5.55 3.2-5.4 3.44-5.28 3.68-5.14 3.9-5 4.16-4.9 4.4-4.73 4.65-4.6 4.92-4.48 5.18-4.33 5.48-4.2 5.77-3.5 5.28-1.66-1.1 3.52-5.32 4.24-5.84 4.38-5.54 4.52-5.25 4.67-4.98 4.8-4.7 4.94-4.46 5.08-4.22 5.2-3.96 5.36-3.72 5.48-3.48 5.6-3.25 5.74-3 5.87-2.77 6-2.53 6.1-2.27 6.22-2.03 6.33-1.77 6.42-1.52 3.6-.7zm43.08-4.3l6.73.7 6.7.98 6.6 1.27 6.56 1.53 6.45 1.8 6.36 2.05 6.2 2.3 6.1 2.56 5.9 2.8 5.77 3 5.6 3.2 5.4 3.44 5.24 3.63 5.04 3.82 4.85 4 4.66 4.18 4.47 4.35 4.26 4.53 4.06 4.7 3.86 4.87 3.67 5.04 3.06 4.6-1.67 1.12-3.04-4.58-3.63-4.98-3.82-4.8-4-4.64-4.2-4.47-4.4-4.3-4.6-4.12-4.78-3.94-4.98-3.77-5.17-3.6-5.34-3.37-5.53-3.18-5.7-2.97-5.83-2.75-6-2.5-6.14-2.3-6.26-2.02-6.37-1.76-6.47-1.5-6.54-1.25-6.6-.98-6.64-.7-4.97-.3v-2z" fill="#c92d39"/><path d="M252.62 479.16l-.2.3h-2.4l.93-1.4zM522.2 487.75l-11-10.2 8.1-4.5z" fill="#c92d39"/><path d="M523.8 490.57l-14.3-13.2 10.5-5.88zm-10.9-12.8l7.73 7.15-2.05-10.34z" fill="#c92d39"/><use xlink:href="#e" transform="matrix(1,0,0,1,355.00053248552973,394.5749632422816) translate(0 14.4)"/><path d="M524.24 593.92l-2.93 5.9-3.52 6.44-3.65 6.05-3.8 5.7-3.9 5.4-4.02 5.1-4.13 4.8-4.26 4.53-4.36 4.3-4.5 4.03-4.6 3.8-4.7 3.6-4.85 3.37-4.96 3.15-5.08 2.94-5.2 2.72-5.34 2.5-5.45 2.3-5.58 2.1-5.7 1.84-5.83 1.63-5.95 1.4-6.05 1.17-6.17.9-6.26.68-2.68.17v-2l2.5-.17 6.2-.65 6.07-.9 5.98-1.15 5.87-1.37 5.74-1.6 5.63-1.84 5.5-2.05 5.38-2.27 5.26-2.48 5.13-2.7 5-2.88 4.9-3.1 4.75-3.33 4.66-3.53 4.54-3.75 4.43-4 4.3-4.22 4.2-4.48 4.1-4.74 3.97-5 3.86-5.33 3.74-5.63 3.6-5.98 3.5-6.35 2.9-5.87zm-267.07 9.3l3.15 5.2 3.37 5.07 3.58 4.92 3.8 4.8 4.04 4.66 4.25 4.52 4.47 4.37 4.68 4.2 4.9 4.05 5.1 3.87 5.3 3.66 5.48 3.48 5.66 3.27 5.84 3.05 5.98 2.8 6.12 2.58 6.23 2.3 6.33 2.07 6.4 1.78 6.46 1.5 4.5.86v2.04l-4.9-.93-6.55-1.53-6.5-1.8-6.4-2.1-6.3-2.33-6.2-2.6-6.06-2.86-5.9-3.08-5.74-3.3-5.56-3.53-5.37-3.73-5.16-3.9-4.96-4.1-4.73-4.27-4.53-4.43-4.3-4.58-4.1-4.72-3.85-4.87-3.65-5-3.42-5.14-3.2-5.28-2.96-5.38 1.76-.96z" fill="#c92d39"/><path d="M524.68 593.02l-.45.92-1.8-.9.46-.9zM257.18 595.56l-8.47 3.78-1.56-14.92z" fill="#c92d39"/><path d="M258.84 595.92l-10.98 4.9-2.04-19.35zm-9.28 1.95l5.95-2.66-7.05-7.82z" fill="#c92d39"/><use xlink:href="#e" transform="matrix(1,0,0,1,362.8057451684924,668.7063902577743) translate(0 14.4)"/><path d="M260 511.1h240v60.94H260z" stroke="#000" stroke-opacity="0" stroke-width="2" fill="#fff" fill-opacity="0"/><use xlink:href="#f" transform="matrix(1,0,0,1,265,516.1063724736268) translate(41.42962962962969 33.98888888888888)"/><path d="M460 491.57h200v100H460z" fill="#fff"/><path d="M460 491.57h200m0 100H460" stroke="#c92d39" stroke-width="2" fill="#fff"/><use xlink:href="#c" transform="matrix(1,0,0,1,480,491.57303914029353) translate(61.025 42.8)"/><use xlink:href="#g" transform="matrix(1,0,0,1,480,491.57303914029353) translate(51.025 64.4)"/><use xlink:href="#h" transform="matrix(1,0,0,1,480,491.57303914029353) translate(98.975 64.4)"/><path d="M100 480.47h200v100H100z" fill="#fff"/><path d="M100 480.47h200m0 100H100" stroke="#c92d39" stroke-width="2" fill="#fff"/><use xlink:href="#c" transform="matrix(1,0,0,1,120,480.4666666666667) translate(61.025 42.8)"/><use xlink:href="#g" transform="matrix(1,0,0,1,120,480.4666666666667) translate(51.025 64.4)"/><use xlink:href="#i" transform="matrix(1,0,0,1,120,480.4666666666667) translate(98.975 64.4)"/><path d="M993.02 81.1l-1.26.3-6.58 1.83-6.5 2.12-6.4 2.4-6.33 2.65-6.2 2.93-6.1 3.2-5.95 3.44-5.83 3.7-5.68 3.96-5.55 4.2-5.4 4.48-5.22 4.73-5.08 4.98-4.9 5.25-4.76 5.52-4.6 5.8-4.4 6.07-3.7 5.56-1.66-1.1 3.7-5.6 4.47-6.15 4.64-5.86 4.8-5.6 4.98-5.3 5.14-5.03 5.3-4.78 5.45-4.53L935 106l5.77-4 5.9-3.74 6.02-3.5 6.15-3.22 6.3-2.96 6.38-2.7 6.5-2.42 6.57-2.14 6.66-1.87 1.76-.4zm45.53-6.7l6.65.42 6.56.68 6.47.95 6.36 1.2 6.23 1.47 6.1 1.7 5.97 1.93 5.8 2.15 5.66 2.37 5.5 2.58 5.3 2.78 5.17 2.97 5 3.15 4.8 3.34 4.64 3.5 4.48 3.7 4.3 3.87 4.13 4.04 3.97 4.23 3.8 4.4 3.63 4.57 3.46 4.75 2.5 3.78-1.65 1.1-2.5-3.73-3.42-4.7-3.57-4.5-3.74-4.33-3.9-4.15-4.08-4-4.24-3.8-4.4-3.64-4.58-3.47-4.75-3.28-4.9-3.1-5.1-2.94-5.24-2.74-5.4-2.54-5.6-2.34-5.72-2.12-5.88-1.9-6.03-1.7-6.15-1.42-6.28-1.2-6.4-.93-6.47-.7-6.56-.4-6.63-.13-.87.02v-2l.87-.03z" fill="#c92d39"/><path d="M892.62 154.18l-.57.86-1.67-1.1.57-.86zM1161.7 152.77l-11.03-10.15 8.07-4.55z" fill="#c92d39"/><path d="M1163.3 155.6l-14.32-13.18 10.47-5.9zm-10.94-12.8l7.76 7.15-2.08-10.33z" fill="#c92d39"/><use xlink:href="#e" transform="matrix(1,0,0,1,993.0193352082225,65.72472818273742) translate(0 14.4)"/><path d="M904.58 293.93l3 4.93 3.14 4.74 3.32 4.56 3.48 4.4 3.65 4.2 3.8 4.05 3.96 3.9 4.12 3.7 4.28 3.53 4.43 3.36 4.6 3.17 4.72 3 4.88 2.8 5.03 2.64 5.15 2.43 5.3 2.22 5.4 2 5.54 1.8 5.63 1.57 5.73 1.34 5.82 1.1 5.88.88 4.3.44v2l-4.54-.46-5.98-.88-5.9-1.12-5.8-1.36-5.73-1.6-5.6-1.8-5.5-2.05-5.36-2.24-5.24-2.46-5.1-2.66-4.95-2.86-4.8-3.04-4.66-3.23-4.5-3.4-4.35-3.6-4.18-3.75-4.03-3.94-3.86-4.1-3.7-4.27-3.53-4.46-3.37-4.63-3.2-4.8-3.03-5-2.75-5 1.75-.97zm259.66-25l-3.24 6.54-3.86 7.04-4.02 6.66-4.17 6.28-4.3 5.94-4.45 5.62-4.58 5.3-4.7 5.02-4.82 4.73-4.95 4.46-5.06 4.2-5.18 3.93-5.28 3.68-5.38 3.43-5.5 3.17-5.57 2.92-5.68 2.68-5.76 2.42-5.84 2.18-5.9 1.92-6 1.68-6.02 1.4-6.07 1.18-.22.03v-2.02l5.9-1.12 5.93-1.4 5.9-1.65 5.83-1.9 5.76-2.14 5.68-2.4 5.6-2.63 5.5-2.88 5.42-3.13 5.32-3.38 5.2-3.63 5.1-3.87 5-4.13 4.88-4.4 4.77-4.68 4.63-4.95 4.53-5.25 4.4-5.55 4.25-5.87 4.13-6.22 3.98-6.57 3.83-6.95 3.22-6.5z" fill="#c92d39"/><path d="M1164.68 268.04l-.45.92-1.8-.9.46-.9zM904.8 286.66l-8.46 3.78-1.58-14.9z" fill="#c92d39"/><path d="M906.47 287.02l-10.98 4.9-2.06-19.35zm-9.28 1.95l5.94-2.66-7.07-7.82z" fill="#c92d39"/><use xlink:href="#e" transform="matrix(1,0,0,1,1009.7557516466464,351.43821227232047) translate(0 14.4)"/><path d="M900 186.13h240v60.93H900z" stroke="#000" stroke-opacity="0" stroke-width="2" fill="#fff" fill-opacity="0"/><use xlink:href="#f" transform="matrix(1,0,0,1,905.0000000000001,191.12748790882284) translate(41.42962962962969 33.98888888888888)"/><path d="M780 151.57h160v120H780z" stroke="#c92d39" stroke-width="2" fill="#fff"/><use xlink:href="#a" transform="matrix(1,0,0,1,785,156.573039140294) translate(42.05 47.8)"/><use xlink:href="#j" transform="matrix(1,0,0,1,785,156.573039140294) translate(29.549999999999997 69.4)"/><use xlink:href="#i" transform="matrix(1,0,0,1,785,156.573039140294) translate(110.45 69.4)"/><path d="M1120 156.6h160v120h-160z" stroke="#c92d39" stroke-width="2" fill="#fff"/><use xlink:href="#a" transform="matrix(1,0,0,1,1125,161.59415457548948) translate(42.05 47.8)"/><use xlink:href="#j" transform="matrix(1,0,0,1,1125,161.59415457548948) translate(29.549999999999997 69.4)"/><use xlink:href="#h" transform="matrix(1,0,0,1,1125,161.59415457548948) translate(110.45 69.4)"/><path d="M940 510c0 49.7-40.3 90-90 90s-90-40.3-90-90 40.3-90 90-90 90 40.3 90 90z" stroke="#c92d39" stroke-width="2" fill="#fff"/><use xlink:href="#k" transform="matrix(1,0,0,1,780,420) translate(57.5 82.80000000000001)"/><use xlink:href="#l" transform="matrix(1,0,0,1,780,420) translate(37.525 104.4)"/><path d="M1100 460h200v100h-200z" fill="#fff"/><path d="M1100 460h200m0 100h-200" stroke="#c92d39" stroke-width="2" fill="#fff"/><use xlink:href="#m" transform="matrix(1,0,0,1,1120,460) translate(61.025 42.8)"/><use xlink:href="#d" transform="matrix(1,0,0,1,1120,460) translate(58.525 64.4)"/><path d="M923.9 591.57l7.95 7.8 7.7 6.98 7.47 6.2 7.22 5.5 6.98 4.9 6.76 4.3 6.55 3.8 6.33 3.33 6.15 2.9 5.98 2.54 5.8 2.17 5.67 1.84 5.52 1.56 5.4 1.28 5.3 1.02 5.2.77 2.84.3v2.02l-3.1-.34-5.27-.8-5.38-1.03-5.48-1.3-5.6-1.57-5.74-1.88-5.9-2.2-6.03-2.56-6.23-2.95-6.4-3.37-6.63-3.84-6.83-4.36-7.04-4.92-7.3-5.56-7.52-6.26-7.76-7.02-8-7.88-.46-.48 1.46-1.36zm250.37-29.18l-6.76 10.14-7.05 9.68-6.8 8.54-6.56 7.58-6.35 6.72-6.14 6-5.94 5.34-5.8 4.77-5.64 4.27-5.5 3.82-5.4 3.4-5.3 3.05-5.2 2.72-5.13 2.4-5.08 2.12-5 1.85-5 1.6-4.93 1.37-4.04.93v-2.05l3.53-.82 4.86-1.35 4.9-1.58 4.93-1.83 4.98-2.08 5.05-2.38 5.13-2.67 5.22-3 5.32-3.36 5.45-3.78 5.58-4.22 5.72-4.72 5.9-5.3 6.08-5.92 6.28-6.67 6.5-7.5 6.76-8.5 7-9.6 6.75-10.12z" fill="#c92d39"/><path d="M1174.26 562.4l-1.66-1.1.2-.3h2.4zM925.5 587.94l-6.84 6.25-6.2-13.68z" fill="#c92d39"/><path d="M927.2 587.75l-8.9 8.1-8-17.72zm-8.2 4.77l4.82-4.4-9.17-5.2z" fill="#c92d39"/><use xlink:href="#e" transform="matrix(1,0,0,1,1028.7110342516678,639.4651605511334) translate(0 14.4)"/><path d="M900 479.7h240v111.87H900z" stroke="#000" stroke-opacity="0" stroke-width="2" fill="#fff" fill-opacity="0"/><g><use xlink:href="#n" transform="matrix(1,0,0,1,905.0000000000001,484.7063724736271) translate(52.68919753086428 37.5777777777778)"/><use xlink:href="#o" transform="matrix(1,0,0,1,905.0000000000001,484.7063724736271) translate(68.62808641975315 77.84444444444442)"/></g><path d="M610 830c0 49.7-40.3 90-90 90s-90-40.3-90-90 40.3-90 90-90 90 40.3 90 90z" stroke="#c92d39" stroke-width="2" fill="#fff"/><g><use xlink:href="#k" transform="matrix(1,0,0,1,450,740) translate(57.5 82.80000000000001)"/><use xlink:href="#l" transform="matrix(1,0,0,1,450,740) translate(37.525 104.4)"/></g><path d="M584.18 904.78l3.9 6.1 4.05 5.73 4.15 5.43 4.28 5.12 4.4 4.84 4.5 4.56 4.66 4.3 4.77 4.1 4.9 3.84 5.03 3.62 5.18 3.4 5.33 3.2 5.48 2.97 5.64 2.75 5.8 2.55 5.95 2.32 6.1 2.1 6.3 1.86 6.48 1.63 6.64 1.4 6.8 1.1 6.98.85 7.12.56 6.75.26v2l-6.87-.25-7.2-.56-7.06-.86-6.9-1.13-6.7-1.4-6.56-1.64-6.37-1.88-6.2-2.12-6.03-2.36-5.87-2.57-5.7-2.8-5.56-3.02-5.4-3.23-5.25-3.45-5.1-3.67-4.98-3.9-4.84-4.13-4.7-4.38-4.58-4.64-4.45-4.9-4.33-5.18-4.2-5.48-4.1-5.8-3.94-6.18-3.3-5.66 1.72-1zm288.48-7.72l-1.15 2-3.25 5.2-3.54 5.16-3.82 5.1-4.1 5-4.42 4.96-4.7 4.85-5.02 4.76-5.33 4.63-5.6 4.5-5.94 4.35-6.2 4.18-6.5 3.97-6.76 3.76-7 3.5-7.2 3.25-7.37 2.96-7.53 2.68-7.64 2.34-7.7 2.03-7.77 1.7-.78.12v-2.03l.38-.07 7.68-1.67 7.63-2 7.57-2.32 7.45-2.64 7.3-2.93 7.13-3.2 6.92-3.48 6.67-3.72 6.43-3.93 6.14-4.12 5.87-4.3 5.56-4.46 5.26-4.6 4.94-4.7 4.66-4.8 4.35-4.87 4.06-4.95 3.78-5.03 3.5-5.08 3.22-5.13 1.12-1.97zM580.9 899.17l-1.72 1-.42-.72 1.54-1.33zM876.38 897.74l-8.3-4.12 10.48-10.72z" fill="#c92d39"/><path d="M877.17 899.25l-10.77-5.34L880 880zm-7.42-5.9l5.84 2.88 1.53-10.43z" fill="#c92d39"/><g><use xlink:href="#e" transform="matrix(1,0,0,1,715.3694665313541,968.8779420220945) translate(0 14.4)"/></g><path d="M610 800h240v130.8H610z" stroke="#000" stroke-opacity="0" stroke-width="2" fill="#fff" fill-opacity="0"/><g><use xlink:href="#p" transform="matrix(1,0,0,1,615,805) translate(43.4614197530865 26.944444444444485)"/><use xlink:href="#q" transform="matrix(1,0,0,1,615,805) translate(78.74135802469141 67.21111111111111)"/><use xlink:href="#r" transform="matrix(1,0,0,1,615,805) translate(71.33117283950622 107.47777777777773)"/></g><defs><path fill="#c92d39" d="M30 0v-248h187v28H63v79h144v27H63v87h162V0H30" id="s"/><path fill="#c92d39" d="M141 0L90-78 38 0H4l68-98-65-92h35l48 74 47-74h35l-64 92 68 98h-35" id="t"/><path fill="#c92d39" d="M59-47c-2 24 18 29 38 22v24C64 9 27 4 27-40v-127H5v-23h24l9-43h21v43h35v23H59v120" id="u"/><path fill="#c92d39" d="M100-194c63 0 86 42 84 106H49c0 40 14 67 53 68 26 1 43-12 49-29l28 8c-11 28-37 45-77 45C44 4 14-33 15-96c1-61 26-98 85-98zm52 81c6-60-76-77-97-28-3 7-6 17-6 28h103" id="v"/><path fill="#c92d39" d="M114-163C36-179 61-72 57 0H25l-1-190h30c1 12-1 29 2 39 6-27 23-49 58-41v29" id="w"/><path fill="#c92d39" d="M117-194c89-4 53 116 60 194h-32v-121c0-31-8-49-39-48C34-167 62-67 57 0H25l-1-190h30c1 10-1 24 2 32 11-22 29-35 61-36" id="x"/><path fill="#c92d39" d="M141-36C126-15 110 5 73 4 37 3 15-17 15-53c-1-64 63-63 125-63 3-35-9-54-41-54-24 1-41 7-42 31l-33-3c5-37 33-52 76-52 45 0 72 20 72 64v82c-1 20 7 32 28 27v20c-31 9-61-2-59-35zM48-53c0 20 12 33 32 33 41-3 63-29 60-74-43 2-92-5-92 41" id="y"/><path fill="#c92d39" d="M24 0v-261h32V0H24" id="z"/><g id="a"><use transform="matrix(0.05,0,0,0.05,0,0)" xlink:href="#s"/><use transform="matrix(0.05,0,0,0.05,12,0)" xlink:href="#t"/><use transform="matrix(0.05,0,0,0.05,21,0)" xlink:href="#u"/><use transform="matrix(0.05,0,0,0.05,26,0)" xlink:href="#v"/><use transform="matrix(0.05,0,0,0.05,36,0)" xlink:href="#w"/><use transform="matrix(0.05,0,0,0.05,41.95,0)" xlink:href="#x"/><use transform="matrix(0.05,0,0,0.05,51.95,0)" xlink:href="#y"/><use transform="matrix(0.05,0,0,0.05,61.95,0)" xlink:href="#z"/></g><path fill="#c92d39" d="M33 0v-248h34V0H33" id="A"/><path fill="#c92d39" d="M96-169c-40 0-48 33-48 73s9 75 48 75c24 0 41-14 43-38l32 2c-6 37-31 61-74 61-59 0-76-41-82-99-10-93 101-131 147-64 4 7 5 14 7 22l-32 3c-4-21-16-35-41-35" id="B"/><path fill="#c92d39" d="M100-194c62-1 85 37 85 99 1 63-27 99-86 99S16-35 15-95c0-66 28-99 85-99zM99-20c44 1 53-31 53-75 0-43-8-75-51-75s-53 32-53 75 10 74 51 75" id="C"/><g id="b"><use transform="matrix(0.05,0,0,0.05,0,0)" xlink:href="#A"/><use transform="matrix(0.05,0,0,0.05,5,0)" xlink:href="#x"/><use transform="matrix(0.05,0,0,0.05,15,0)" xlink:href="#u"/><use transform="matrix(0.05,0,0,0.05,20,0)" xlink:href="#v"/><use transform="matrix(0.05,0,0,0.05,30,0)" xlink:href="#w"/><use transform="matrix(0.05,0,0,0.05,35.95,0)" xlink:href="#y"/><use transform="matrix(0.05,0,0,0.05,45.95,0)" xlink:href="#B"/><use transform="matrix(0.05,0,0,0.05,54.95,0)" xlink:href="#u"/><use transform="matrix(0.05,0,0,0.05,59.95,0)" xlink:href="#C"/><use transform="matrix(0.05,0,0,0.05,69.95,0)" xlink:href="#w"/></g><path fill="#c92d39" d="M30-248c118-7 216 8 213 122C240-48 200 0 122 0H30v-248zM63-27c89 8 146-16 146-99s-60-101-146-95v194" id="D"/><g id="c"><use transform="matrix(0.05,0,0,0.05,0,0)" xlink:href="#D"/><use transform="matrix(0.05,0,0,0.05,12.950000000000001,0)" xlink:href="#y"/><use transform="matrix(0.05,0,0,0.05,22.950000000000003,0)" xlink:href="#u"/><use transform="matrix(0.05,0,0,0.05,27.950000000000003,0)" xlink:href="#y"/></g><path fill="#c92d39" d="M185-189c-5-48-123-54-124 2 14 75 158 14 163 119 3 78-121 87-175 55-17-10-28-26-33-46l33-7c5 56 141 63 141-1 0-78-155-14-162-118-5-82 145-84 179-34 5 7 8 16 11 25" id="E"/><g id="d"><use transform="matrix(0.05,0,0,0.05,0,0)" xlink:href="#E"/><use transform="matrix(0.05,0,0,0.05,12,0)" xlink:href="#u"/><use transform="matrix(0.05,0,0,0.05,17,0)" xlink:href="#C"/><use transform="matrix(0.05,0,0,0.05,27,0)" xlink:href="#w"/><use transform="matrix(0.05,0,0,0.05,32.95,0)" xlink:href="#v"/></g><g id="e"><use transform="matrix(0.05,0,0,0.05,0,0)" xlink:href="#D"/><use transform="matrix(0.05,0,0,0.05,12.950000000000001,0)" xlink:href="#y"/><use transform="matrix(0.05,0,0,0.05,22.950000000000003,0)" xlink:href="#u"/><use transform="matrix(0.05,0,0,0.05,27.950000000000003,0)" xlink:href="#y"/></g><path fill="#c92d39" d="M275 0h-61l-44-196L126 0H64L0-248h53L97-49l45-199h58l43 199 44-199h52" id="F"/><path fill="#c92d39" d="M135-150c-39-12-60 13-60 57V0H25l-1-190h47c2 13-1 29 3 40 6-28 27-53 61-41v41" id="G"/><path fill="#c92d39" d="M110-194c64 0 96 36 96 99 0 64-35 99-97 99-61 0-95-36-95-99 0-62 34-99 96-99zm-1 164c35 0 45-28 45-65 0-40-10-65-43-65-34 0-45 26-45 65 0 36 10 65 43 65" id="H"/><path fill="#c92d39" d="M135-194c87-1 58 113 63 194h-50c-7-57 23-157-34-157-59 0-34 97-39 157H25l-1-190h47c2 12-1 28 3 38 12-26 28-41 61-42" id="I"/><path fill="#c92d39" d="M195-6C206 82 75 100 31 46c-4-6-6-13-8-21l49-6c3 16 16 24 34 25 40 0 42-37 40-79-11 22-30 35-61 35-53 0-70-43-70-97 0-56 18-96 73-97 30 0 46 14 59 34l2-30h47zm-90-29c32 0 41-27 41-63 0-35-9-62-40-62-32 0-39 29-40 63 0 36 9 62 39 62" id="J"/><path fill="#c92d39" d="M80-75H40l-6-173h52zM34 0v-47h51V0H34" id="K"/><g id="f"><use transform="matrix(0.11790123456790114,0,0,0.11790123456790114,0,0)" xlink:href="#F"/><use transform="matrix(0.11790123456790114,0,0,0.11790123456790114,39.14320987654318,0)" xlink:href="#G"/><use transform="matrix(0.11790123456790114,0,0,0.11790123456790114,55.649382716049345,0)" xlink:href="#H"/><use transform="matrix(0.11790123456790114,0,0,0.11790123456790114,81.4697530864197,0)" xlink:href="#I"/><use transform="matrix(0.11790123456790114,0,0,0.11790123456790114,107.29012345679004,0)" xlink:href="#J"/><use transform="matrix(0.11790123456790114,0,0,0.11790123456790114,133.11049382716038,0)" xlink:href="#K"/></g><g id="g"><use transform="matrix(0.05,0,0,0.05,0,0)" xlink:href="#E"/><use transform="matrix(0.05,0,0,0.05,12,0)" xlink:href="#u"/><use transform="matrix(0.05,0,0,0.05,17,0)" xlink:href="#C"/><use transform="matrix(0.05,0,0,0.05,27,0)" xlink:href="#w"/><use transform="matrix(0.05,0,0,0.05,32.95,0)" xlink:href="#v"/></g><path fill="#c92d39" d="M101-251c82-7 93 87 43 132L82-64C71-53 59-42 53-27h129V0H18c2-99 128-94 128-182 0-28-16-43-45-43s-46 15-49 41l-32-3c6-41 34-60 81-64" id="L"/><use transform="matrix(0.05,0,0,0.05,0,0)" xlink:href="#L" id="h"/><path fill="#c92d39" d="M27 0v-27h64v-190l-56 39v-29l58-41h29v221h61V0H27" id="M"/><use transform="matrix(0.05,0,0,0.05,0,0)" xlink:href="#M" id="i"/><g id="j"><use transform="matrix(0.05,0,0,0.05,0,0)" xlink:href="#A"/><use transform="matrix(0.05,0,0,0.05,5,0)" xlink:href="#x"/><use transform="matrix(0.05,0,0,0.05,15,0)" xlink:href="#u"/><use transform="matrix(0.05,0,0,0.05,20,0)" xlink:href="#v"/><use transform="matrix(0.05,0,0,0.05,30,0)" xlink:href="#w"/><use transform="matrix(0.05,0,0,0.05,35.95,0)" xlink:href="#y"/><use transform="matrix(0.05,0,0,0.05,45.95,0)" xlink:href="#B"/><use transform="matrix(0.05,0,0,0.05,54.95,0)" xlink:href="#u"/><use transform="matrix(0.05,0,0,0.05,59.95,0)" xlink:href="#C"/><use transform="matrix(0.05,0,0,0.05,69.95,0)" xlink:href="#w"/></g><path fill="#c92d39" d="M33 0v-38h34V0H33" id="N"/><path fill="#c92d39" d="M101-251c68 0 85 55 85 127S166 4 100 4C33 4 14-52 14-124c0-73 17-127 87-127zm-1 229c47 0 54-49 54-102s-4-102-53-102c-51 0-55 48-55 102 0 53 5 102 54 102" id="O"/><g id="k"><use transform="matrix(0.05,0,0,0.05,0,0)" xlink:href="#M"/><use transform="matrix(0.05,0,0,0.05,10,0)" xlink:href="#N"/><use transform="matrix(0.05,0,0,0.05,15,0)" xlink:href="#O"/></g><path fill="#c92d39" d="M30-248c87 1 191-15 191 75 0 78-77 80-158 76V0H30v-248zm33 125c57 0 124 11 124-50 0-59-68-47-124-48v98" id="P"/><path fill="#c92d39" d="M135-143c-3-34-86-38-87 0 15 53 115 12 119 90S17 21 10-45l28-5c4 36 97 45 98 0-10-56-113-15-118-90-4-57 82-63 122-42 12 7 21 19 24 35" id="Q"/><g id="l"><use transform="matrix(0.05,0,0,0.05,0,0)" xlink:href="#P"/><use transform="matrix(0.05,0,0,0.05,12,0)" xlink:href="#w"/><use transform="matrix(0.05,0,0,0.05,17.95,0)" xlink:href="#C"/><use transform="matrix(0.05,0,0,0.05,27.950000000000003,0)" xlink:href="#B"/><use transform="matrix(0.05,0,0,0.05,36.95,0)" xlink:href="#v"/><use transform="matrix(0.05,0,0,0.05,46.95,0)" xlink:href="#Q"/><use transform="matrix(0.05,0,0,0.05,55.95,0)" xlink:href="#Q"/></g><g id="m"><use transform="matrix(0.05,0,0,0.05,0,0)" xlink:href="#D"/><use transform="matrix(0.05,0,0,0.05,12.950000000000001,0)" xlink:href="#y"/><use transform="matrix(0.05,0,0,0.05,22.950000000000003,0)" xlink:href="#u"/><use transform="matrix(0.05,0,0,0.05,27.950000000000003,0)" xlink:href="#y"/></g><path fill="#c92d39" d="M230 0l2-204L168 0h-37L68-204 70 0H24v-248h70l56 185 57-185h69V0h-46" id="R"/><path fill="#c92d39" d="M25-224v-37h50v37H25zM25 0v-190h50V0H25" id="S"/><path fill="#c92d39" d="M137-138c1-29-70-34-71-4 15 46 118 7 119 86 1 83-164 76-172 9l43-7c4 19 20 25 44 25 33 8 57-30 24-41C81-84 22-81 20-136c-2-80 154-74 161-7" id="T"/><g id="n"><use transform="matrix(0.09320987654320977,0,0,0.09320987654320977,0,0)" xlink:href="#R"/><use transform="matrix(0.09320987654320977,0,0,0.09320987654320977,27.86975308641972,0)" xlink:href="#S"/><use transform="matrix(0.09320987654320977,0,0,0.09320987654320977,37.190740740740694,0)" xlink:href="#T"/><use transform="matrix(0.09320987654320977,0,0,0.09320987654320977,55.83271604938265,0)" xlink:href="#T"/><use transform="matrix(0.09320987654320977,0,0,0.09320987654320977,74.4746913580246,0)" xlink:href="#S"/><use transform="matrix(0.09320987654320977,0,0,0.09320987654320977,83.79567901234557,0)" xlink:href="#I"/><use transform="matrix(0.09320987654320977,0,0,0.09320987654320977,104.20864197530852,0)" xlink:href="#J"/></g><path fill="#c92d39" d="M135-194c53 0 70 44 70 98 0 56-19 98-73 100-31 1-45-17-59-34 3 33 2 69 2 105H25l-1-265h48c2 10 0 23 3 31 11-24 29-35 60-35zM114-30c33 0 39-31 40-66 0-38-9-64-40-64-56 0-55 130 0 130" id="U"/><path fill="#c92d39" d="M85 4C-2 5 27-109 22-190h50c7 57-23 150 33 157 60-5 35-97 40-157h50l1 190h-47c-2-12 1-28-3-38-12 25-28 42-61 42" id="V"/><path fill="#c92d39" d="M115-3C79 11 28 4 28-45v-112H4v-33h27l15-45h31v45h36v33H77v99c-1 23 16 31 38 25v30" id="W"/><g id="o"><use transform="matrix(0.09320987654320977,0,0,0.09320987654320977,0,0)" xlink:href="#S"/><use transform="matrix(0.09320987654320977,0,0,0.09320987654320977,9.320987654320977,0)" xlink:href="#I"/><use transform="matrix(0.09320987654320977,0,0,0.09320987654320977,29.733950617283917,0)" xlink:href="#U"/><use transform="matrix(0.09320987654320977,0,0,0.09320987654320977,50.14691358024687,0)" xlink:href="#V"/><use transform="matrix(0.09320987654320977,0,0,0.09320987654320977,70.5598765432098,0)" xlink:href="#W"/><use transform="matrix(0.09320987654320977,0,0,0.09320987654320977,81.65185185185176,0)" xlink:href="#K"/></g><path fill="#c92d39" d="M24-248c120-7 223 5 221 122C244-46 201 0 124 0H24v-248zM76-40c74 7 117-18 117-86 0-67-45-88-117-82v168" id="X"/><path fill="#c92d39" d="M133-34C117-15 103 5 69 4 32 3 11-16 11-54c-1-60 55-63 116-61 1-26-3-47-28-47-18 1-26 9-28 27l-52-2c7-38 36-58 82-57s74 22 75 68l1 82c-1 14 12 18 25 15v27c-30 8-71 5-69-32zm-48 3c29 0 43-24 42-57-32 0-66-3-65 30 0 17 8 27 23 27" id="Y"/><path fill="#c92d39" d="M25 0v-261h50V0H25" id="Z"/><g id="p"><use transform="matrix(0.09320987654320977,0,0,0.09320987654320977,0,0)" xlink:href="#X"/><use transform="matrix(0.09320987654320977,0,0,0.09320987654320977,24.14135802469133,0)" xlink:href="#Y"/><use transform="matrix(0.09320987654320977,0,0,0.09320987654320977,42.78333333333328,0)" xlink:href="#I"/><use transform="matrix(0.09320987654320977,0,0,0.09320987654320977,63.19629629629622,0)" xlink:href="#J"/><use transform="matrix(0.09320987654320977,0,0,0.09320987654320977,83.60925925925916,0)" xlink:href="#Z"/><use transform="matrix(0.09320987654320977,0,0,0.09320987654320977,92.93024691358013,0)" xlink:href="#S"/><use transform="matrix(0.09320987654320977,0,0,0.09320987654320977,102.25123456790111,0)" xlink:href="#I"/><use transform="matrix(0.09320987654320977,0,0,0.09320987654320977,122.66419753086406,0)" xlink:href="#J"/></g><g id="q"><use transform="matrix(0.09320987654320977,0,0,0.09320987654320977,0,0)" xlink:href="#X"/><use transform="matrix(0.09320987654320977,0,0,0.09320987654320977,24.14135802469133,0)" xlink:href="#Y"/><use transform="matrix(0.09320987654320977,0,0,0.09320987654320977,42.78333333333328,0)" xlink:href="#W"/><use transform="matrix(0.09320987654320977,0,0,0.09320987654320977,53.875308641975245,0)" xlink:href="#Y"/></g><path fill="#c92d39" d="M76-208v77h127v40H76V0H24v-248h183v40H76" id="aa"/><path fill="#c92d39" d="M231 0h-52l-39-155L100 0H48L-1-190h46L77-45c9-52 24-97 36-145h53l37 145 32-145h46" id="ab"/><g id="r"><use transform="matrix(0.09320987654320977,0,0,0.09320987654320977,0,0)" xlink:href="#aa"/><use transform="matrix(0.09320987654320977,0,0,0.09320987654320977,20.41296296296294,0)" xlink:href="#Z"/><use transform="matrix(0.09320987654320977,0,0,0.09320987654320977,29.733950617283917,0)" xlink:href="#H"/><use transform="matrix(0.09320987654320977,0,0,0.09320987654320977,50.14691358024687,0)" xlink:href="#ab"/><use transform="matrix(0.09320987654320977,0,0,0.09320987654320977,76.24567901234559,0)" xlink:href="#K"/></g></defs></g></svg>