<svg xmlns="http://www.w3.org/2000/svg" xmlns:xlink="http://www.w3.org/1999/xlink" xmlns:lucid="lucid" width="1260" height="475"><g transform="translate(-100 -1175)" lucid:page-tab-id="lijG_qHrHR5s"><path d="M0 0h1360v1760H0z" fill="#fff"/><path d="M690 1457.68c0 49.7-40.3 90-90 90s-90-40.3-90-90 40.3-90 90-90 90 40.3 90 90z" stroke="#c92d39" stroke-width="2" fill="#fff"/><use xlink:href="#a" transform="matrix(1,0,0,1,530,1367.6781043941207) translate(57.5 82.80000000000001)"/><use xlink:href="#b" transform="matrix(1,0,0,1,530,1367.6781043941207) translate(37.525 104.4)"/><path d="M140 1387.68h160v120H140z" stroke="#c92d39" stroke-width="2" fill="#fff"/><use xlink:href="#c" transform="matrix(1,0,0,1,145,1392.6781043941207) translate(42.05 47.8)"/><use xlink:href="#d" transform="matrix(1,0,0,1,145,1392.6781043941207) translate(37.05 69.4)"/><path d="M343 1324.68l-6.6 2.8-6.75 3.22-6.9 3.66-7.1 4.13-7.32 4.68-7.54 5.3-7.8 5.96-8.1 6.75-8.4 7.63-8.78 8.67-8.5 9.12-1.46-1.36 8.52-9.16 8.83-8.72 8.5-7.7 8.14-6.8 7.87-6.03 7.62-5.34 7.37-4.7 7.17-4.2 6.98-3.7 6.83-3.23 3.37-1.44h5.25zm100.23-6.7l6.66 2.14 6.78 2.5 6.92 2.87 7.08 3.3 7.24 3.74 7.42 4.24 7.6 4.8 7.82 5.37 8.02 6.04 8.24 6.75 8.46 7.56 5.48 5.34-1.4 1.43-5.44-5.3-8.4-7.5-8.17-6.7-7.96-6-7.75-5.33-7.54-4.74-7.34-4.2-7.17-3.72-7-3.26-6.85-2.84-6.7-2.47-6.6-2.1-.86-.24v-2.07z" fill="#c92d39"/><path d="M259.24 1386.6l-2.8.08 1.34-1.44zM540.85 1384.35l-13.23-7.06 6.67-6.44z" fill="#c92d39"/><path d="M543.1 1386.68l-17.17-9.16 8.66-8.34zm-13.8-9.63l9.3 4.97-4.6-9.5z" fill="#c92d39"/><use xlink:href="#e" transform="matrix(1,0,0,1,324.8882354917874,1302.632498433542) translate(0 14.4)"/><use xlink:href="#f" transform="matrix(1,0,0,1,324.8882354917874,1302.632498433542) translate(68.95 14.4)"/><path d="M561.58 1541.6l-5.62 5.42-6.62 5.87-6.87 5.6-7.12 5.3-7.36 5.04-7.57 4.72-7.77 4.4-7.95 4.08-8.08 3.74-8.22 3.38-8.3 3.02-8.4 2.65-8.4 2.28-8.38 1.9-8.36 1.54-8.3 1.16-8.17.8-4.87.27v-2l4.7-.27 8.1-.8 8.2-1.13 8.3-1.52 8.3-1.88 8.32-2.26 8.3-2.6 8.23-3 8.14-3.35 8.02-3.7 7.87-4.04 7.7-4.36 7.5-4.68 7.28-4.98 7.06-5.26 6.8-5.55 6.56-5.8 5.6-5.4zm-276.84-11.72l3.02 5.07 3.17 4.86 3.33 4.66 3.48 4.47 3.64 4.28 3.8 4.1 3.96 3.95 4.13 3.77 4.3 3.62 4.47 3.45 4.67 3.28 4.86 3.13 5.05 2.98 5.26 2.8 5.47 2.62 5.68 2.44 5.9 2.24 6.13 2.04 6.36 1.83 6.57 1.6 6.8 1.35 2.5.4v2l-2.84-.43-6.9-1.37-6.66-1.62-6.43-1.85-6.2-2.06-5.98-2.28-5.76-2.48-5.54-2.66-5.33-2.83-5.12-3-4.9-3.2-4.74-3.33-4.55-3.5-4.35-3.67-4.2-3.83-4-4-3.87-4.17-3.7-4.34-3.52-4.54-3.38-4.72-3.22-4.93-3.06-5.14-2.6-4.8 1.76-.95z" fill="#c92d39"/><path d="M560.92 1539.88l1.68.74-1.04 1-1.4-1.44.47-.44zM285.12 1522.8l-8.47 3.76-1.55-14.92z" fill="#c92d39"/><path d="M286.78 1523.15l-11 4.88-2-19.35zm-9.28 1.93l5.96-2.64-7.05-7.85z" fill="#c92d39"/><use xlink:href="#g" transform="matrix(1,0,0,1,387.2823696210853,1591.0165109559716) translate(0 14.4)"/><path d="M280 1340h240v60.93H280z" stroke="#000" stroke-opacity="0" stroke-width="2" fill="#fff" fill-opacity="0"/><use xlink:href="#h" transform="matrix(1,0,0,1,285,1345) translate(49.97746913580252 33.98888888888888)"/><path d="M349.95 1274.9l-11.1 4.7-12.08 5.7-13 6.8-13.67 7.92-13.95 8.87-13.74 9.56-13 9.88-11.8 9.78-10.36 9.34-8.8 8.64-7.34 7.8-6 6.97-4.88 6.15-3.94 5.42-2.62 3.96-1.67-1.1 2.64-4 3.98-5.48 4.93-6.22 6.06-7.03 7.4-7.87 8.87-8.7 10.42-9.4 11.87-9.83 13.07-9.93 13.8-9.6 14.02-8.93 13.74-7.94 13.07-6.86 12.18-5.74 11.16-4.7 3.18-1.2h5.72zm130.15.5l9.87 4.7 10.7 5.63 11.6 6.74 12.47 7.98 13.28 9.3 13.86 10.58 14 11.65 13.45 12.2 8.57 8.43-1.4 1.43-8.54-8.4-13.4-12.14-13.93-11.6-13.8-10.54-13.2-9.25-12.4-7.92-11.53-6.7-10.63-5.6-9.8-4.65-9-3.83-4.1-1.53h5.58z" fill="#c92d39"/><path d="M203.67 1386.38l-.2.3h-2.4l.94-1.4zM597.76 1364.34l-13.2-7.1 6.68-6.4z" fill="#c92d39"/><path d="M600 1366.68l-17.14-9.2 8.68-8.32zm-13.77-9.66l9.3 4.98-4.6-9.5z" fill="#c92d39"/><use xlink:href="#i" transform="matrix(1,0,0,1,372.94153380162084,1255.2716012660203) translate(0 14.4)"/><use xlink:href="#j" transform="matrix(1,0,0,1,313.34398649106987,1250.2651985675352) translate(0 14.4)"/><path d="M1310 1451.97c0 49.7-40.3 90-90 90s-90-40.3-90-90 40.3-90 90-90 90 40.3 90 90z" stroke="#000" stroke-width="2" fill="#fff"/><use xlink:href="#k" transform="matrix(1,0,0,1,1150,1361.9673389499535) translate(57.5 82.80000000000001)"/><use xlink:href="#l" transform="matrix(1,0,0,1,1150,1361.9673389499535) translate(37.525 104.4)"/><path d="M760 1381.97h160v120H760z" stroke="#000" stroke-width="2" fill="#fff"/><use xlink:href="#m" transform="matrix(1,0,0,1,765,1386.9673389499535) translate(42.05 47.8)"/><use xlink:href="#n" transform="matrix(1,0,0,1,765,1386.9673389499535) translate(37.05 69.4)"/><path d="M1011.28 1303.04l-4.8.9-7.1 1.7-6.98 1.94-6.83 2.23-6.68 2.5-6.54 2.75-6.38 3-6.23 3.27-6.07 3.52-5.93 3.76-5.77 4.03-5.63 4.28-5.5 4.55-5.32 4.8-5.2 5.1-5.04 5.4-4.92 5.68-4.75 6-4.6 6.36-3.9 5.88-1.68-1.1 3.93-5.93 4.66-6.42 4.8-6.07 4.96-5.75 5.1-5.44 5.26-5.15 5.4-4.86 5.54-4.6 5.7-4.33 5.84-4.06 6-3.8 6.15-3.57 6.3-3.3 6.44-3.05 6.6-2.78 6.77-2.52 6.92-2.25 7.06-1.98 7.2-1.7 5.2-1zm96.57 5.85l7.87 2.9 7.77 3.26 7.64 3.6 7.5 3.9 7.37 4.25 7.2 4.56 7 4.86 6.8 5.16 6.6 5.45 5.43 4.88-1.34 1.5-5.4-4.86-6.54-5.4-6.74-5.1-6.93-4.8-7.13-4.52-7.28-4.2-7.45-3.88-7.58-3.55-7.7-3.24-7.77-2.9-5.12-1.64v-2.1z"/><path d="M897.13 1380.66l-.2.3h-2.4l.94-1.4zM1189.1 1363.3l-13.34-6.88 6.6-6.52z"/><path d="M1191.36 1365.6l-17.28-8.93 8.55-8.45zm-13.92-9.44l9.37 4.84-4.72-9.42z"/><use xlink:href="#o" transform="matrix(1,0,0,1,1011.2836417623629,1288.6774608162389) translate(0 14.4)"/><path d="M1181.58 1535.9l-5.62 5.4-6.62 5.88-6.87 5.6-7.12 5.32-7.36 5.03-7.57 4.72-7.77 4.4-7.95 4.08-8.08 3.74-8.22 3.38-8.3 3.02-8.4 2.65-8.4 2.28-8.38 1.9-8.36 1.53-8.3 1.16-8.17.8-4.87.26v-2l4.7-.27 8.1-.8 8.2-1.15 8.3-1.5 8.3-1.9 8.32-2.25 8.3-2.62 8.23-3 8.14-3.35 8.02-3.7 7.87-4.03 7.7-4.37 7.5-4.68 7.28-4.98 7.06-5.27 6.8-5.54 6.56-5.8 5.6-5.4zm-276.84-11.73l3.02 5.07 3.17 4.86 3.33 4.65 3.48 4.47 3.64 4.28 3.8 4.1 3.96 3.94 4.13 3.77 4.3 3.63 4.47 3.45 4.67 3.3 4.86 3.12 5.05 2.97 5.26 2.8 5.47 2.62 5.68 2.43 5.9 2.24 6.13 2.04 6.36 1.84 6.57 1.6 6.8 1.35 2.5.38v2.02l-2.84-.44-6.9-1.37-6.66-1.63-6.43-1.85-6.2-2.06-5.98-2.28-5.76-2.47-5.54-2.65-5.33-2.83-5.12-3-4.9-3.2-4.74-3.33-4.55-3.52-4.35-3.66-4.2-3.83-4-4-3.87-4.18-3.7-4.34-3.52-4.53-3.38-4.72-3.22-4.93-3.06-5.15-2.6-4.8 1.76-.95z"/><path d="M1180.92 1534.17l1.68.74-1.04 1-1.4-1.43.47-.44zM905.12 1517.1l-8.47 3.75-1.55-14.92z"/><path d="M906.78 1517.44l-11 4.88-2-19.35zm-9.28 1.93l5.96-2.64-7.05-7.85z"/><use xlink:href="#p" transform="matrix(1,0,0,1,1007.2823696210852,1585.3057455118044) translate(0 14.4)"/><path d="M1011.28 1303.04l-4.8.9-7.1 1.7-6.98 1.94-6.83 2.23-6.68 2.5-6.54 2.75-6.38 3-6.23 3.27-6.07 3.52-5.93 3.76-5.77 4.03-5.63 4.28-5.5 4.55-5.32 4.8-5.2 5.1-5.04 5.4-4.92 5.68-4.75 6-4.6 6.36-3.9 5.88-1.68-1.1 3.93-5.93 4.66-6.42 4.8-6.07 4.96-5.75 5.1-5.44 5.26-5.15 5.4-4.86 5.54-4.6 5.7-4.33 5.84-4.06 6-3.8 6.15-3.57 6.3-3.3 6.44-3.05 6.6-2.78 6.77-2.52 6.92-2.25 7.06-1.98 7.2-1.7 5.2-1zm96.57 5.85l7.87 2.9 7.77 3.26 7.64 3.6 7.5 3.9 7.37 4.25 7.2 4.56 7 4.86 6.8 5.16 6.6 5.45 5.43 4.88-1.34 1.5-5.4-4.86-6.54-5.4-6.74-5.1-6.93-4.8-7.13-4.52-7.28-4.2-7.45-3.88-7.58-3.55-7.7-3.24-7.77-2.9-5.12-1.64v-2.1z"/><path d="M897.13 1380.66l-.56.86-1.67-1.1.57-.86zM1189.1 1363.3l-13.34-6.88 6.6-6.52z"/><path d="M1191.36 1365.6l-17.28-8.93 8.55-8.45zm-13.92-9.44l9.37 4.84-4.72-9.42z"/><g><use xlink:href="#q" transform="matrix(1,0,0,1,1021.1720436146466,1289.657451474794) translate(0 14.4)"/></g><path d="M920 1411.5h240v60.93H920z" stroke="#000" stroke-opacity="0" stroke-width="2" fill="#fff" fill-opacity="0"/><g><use xlink:href="#r" transform="matrix(1,0,0,1,925,1416.5006722832868) translate(46.85308641975314 33.98888888888888)"/></g><defs><path fill="#c92d39" d="M27 0v-27h64v-190l-56 39v-29l58-41h29v221h61V0H27" id="s"/><path fill="#c92d39" d="M33 0v-38h34V0H33" id="t"/><path fill="#c92d39" d="M101-251c68 0 85 55 85 127S166 4 100 4C33 4 14-52 14-124c0-73 17-127 87-127zm-1 229c47 0 54-49 54-102s-4-102-53-102c-51 0-55 48-55 102 0 53 5 102 54 102" id="u"/><g id="a"><use transform="matrix(0.05,0,0,0.05,0,0)" xlink:href="#s"/><use transform="matrix(0.05,0,0,0.05,10,0)" xlink:href="#t"/><use transform="matrix(0.05,0,0,0.05,15,0)" xlink:href="#u"/></g><path fill="#c92d39" d="M30-248c87 1 191-15 191 75 0 78-77 80-158 76V0H30v-248zm33 125c57 0 124 11 124-50 0-59-68-47-124-48v98" id="v"/><path fill="#c92d39" d="M114-163C36-179 61-72 57 0H25l-1-190h30c1 12-1 29 2 39 6-27 23-49 58-41v29" id="w"/><path fill="#c92d39" d="M100-194c62-1 85 37 85 99 1 63-27 99-86 99S16-35 15-95c0-66 28-99 85-99zM99-20c44 1 53-31 53-75 0-43-8-75-51-75s-53 32-53 75 10 74 51 75" id="x"/><path fill="#c92d39" d="M96-169c-40 0-48 33-48 73s9 75 48 75c24 0 41-14 43-38l32 2c-6 37-31 61-74 61-59 0-76-41-82-99-10-93 101-131 147-64 4 7 5 14 7 22l-32 3c-4-21-16-35-41-35" id="y"/><path fill="#c92d39" d="M100-194c63 0 86 42 84 106H49c0 40 14 67 53 68 26 1 43-12 49-29l28 8c-11 28-37 45-77 45C44 4 14-33 15-96c1-61 26-98 85-98zm52 81c6-60-76-77-97-28-3 7-6 17-6 28h103" id="z"/><path fill="#c92d39" d="M135-143c-3-34-86-38-87 0 15 53 115 12 119 90S17 21 10-45l28-5c4 36 97 45 98 0-10-56-113-15-118-90-4-57 82-63 122-42 12 7 21 19 24 35" id="A"/><g id="b"><use transform="matrix(0.05,0,0,0.05,0,0)" xlink:href="#v"/><use transform="matrix(0.05,0,0,0.05,12,0)" xlink:href="#w"/><use transform="matrix(0.05,0,0,0.05,17.95,0)" xlink:href="#x"/><use transform="matrix(0.05,0,0,0.05,27.950000000000003,0)" xlink:href="#y"/><use transform="matrix(0.05,0,0,0.05,36.95,0)" xlink:href="#z"/><use transform="matrix(0.05,0,0,0.05,46.95,0)" xlink:href="#A"/><use transform="matrix(0.05,0,0,0.05,55.95,0)" xlink:href="#A"/></g><path fill="#c92d39" d="M30 0v-248h187v28H63v79h144v27H63v87h162V0H30" id="B"/><path fill="#c92d39" d="M141 0L90-78 38 0H4l68-98-65-92h35l48 74 47-74h35l-64 92 68 98h-35" id="C"/><path fill="#c92d39" d="M59-47c-2 24 18 29 38 22v24C64 9 27 4 27-40v-127H5v-23h24l9-43h21v43h35v23H59v120" id="D"/><path fill="#c92d39" d="M117-194c89-4 53 116 60 194h-32v-121c0-31-8-49-39-48C34-167 62-67 57 0H25l-1-190h30c1 10-1 24 2 32 11-22 29-35 61-36" id="E"/><path fill="#c92d39" d="M141-36C126-15 110 5 73 4 37 3 15-17 15-53c-1-64 63-63 125-63 3-35-9-54-41-54-24 1-41 7-42 31l-33-3c5-37 33-52 76-52 45 0 72 20 72 64v82c-1 20 7 32 28 27v20c-31 9-61-2-59-35zM48-53c0 20 12 33 32 33 41-3 63-29 60-74-43 2-92-5-92 41" id="F"/><path fill="#c92d39" d="M24 0v-261h32V0H24" id="G"/><g id="c"><use transform="matrix(0.05,0,0,0.05,0,0)" xlink:href="#B"/><use transform="matrix(0.05,0,0,0.05,12,0)" xlink:href="#C"/><use transform="matrix(0.05,0,0,0.05,21,0)" xlink:href="#D"/><use transform="matrix(0.05,0,0,0.05,26,0)" xlink:href="#z"/><use transform="matrix(0.05,0,0,0.05,36,0)" xlink:href="#w"/><use transform="matrix(0.05,0,0,0.05,41.95,0)" xlink:href="#E"/><use transform="matrix(0.05,0,0,0.05,51.95,0)" xlink:href="#F"/><use transform="matrix(0.05,0,0,0.05,61.95,0)" xlink:href="#G"/></g><path fill="#c92d39" d="M33 0v-248h34V0H33" id="H"/><g id="d"><use transform="matrix(0.05,0,0,0.05,0,0)" xlink:href="#H"/><use transform="matrix(0.05,0,0,0.05,5,0)" xlink:href="#E"/><use transform="matrix(0.05,0,0,0.05,15,0)" xlink:href="#D"/><use transform="matrix(0.05,0,0,0.05,20,0)" xlink:href="#z"/><use transform="matrix(0.05,0,0,0.05,30,0)" xlink:href="#w"/><use transform="matrix(0.05,0,0,0.05,35.95,0)" xlink:href="#F"/><use transform="matrix(0.05,0,0,0.05,45.95,0)" xlink:href="#y"/><use transform="matrix(0.05,0,0,0.05,54.95,0)" xlink:href="#D"/><use transform="matrix(0.05,0,0,0.05,59.95,0)" xlink:href="#x"/><use transform="matrix(0.05,0,0,0.05,69.95,0)" xlink:href="#w"/></g><path fill="#c92d39" d="M185-189c-5-48-123-54-124 2 14 75 158 14 163 119 3 78-121 87-175 55-17-10-28-26-33-46l33-7c5 56 141 63 141-1 0-78-155-14-162-118-5-82 145-84 179-34 5 7 8 16 11 25" id="I"/><path fill="#c92d39" d="M24-231v-30h32v30H24zM24 0v-190h32V0H24" id="J"/><g id="e"><use transform="matrix(0.05,0,0,0.05,0,0)" xlink:href="#I"/><use transform="matrix(0.05,0,0,0.05,12,0)" xlink:href="#z"/><use transform="matrix(0.05,0,0,0.05,22,0)" xlink:href="#A"/><use transform="matrix(0.05,0,0,0.05,31,0)" xlink:href="#A"/><use transform="matrix(0.05,0,0,0.05,40,0)" xlink:href="#J"/><use transform="matrix(0.05,0,0,0.05,43.95,0)" xlink:href="#x"/><use transform="matrix(0.05,0,0,0.05,53.95,0)" xlink:href="#E"/></g><path fill="#c92d39" d="M127-220V0H93v-220H8v-28h204v28h-85" id="K"/><path fill="#c92d39" d="M143 0L79-87 56-68V0H24v-261h32v163l83-92h37l-77 82L181 0h-38" id="L"/><g id="f"><use transform="matrix(0.05,0,0,0.05,0,0)" xlink:href="#K"/><use transform="matrix(0.05,0,0,0.05,8.950000000000001,0)" xlink:href="#x"/><use transform="matrix(0.05,0,0,0.05,18.950000000000003,0)" xlink:href="#L"/><use transform="matrix(0.05,0,0,0.05,27.950000000000003,0)" xlink:href="#z"/><use transform="matrix(0.05,0,0,0.05,37.95,0)" xlink:href="#E"/></g><path fill="#c92d39" d="M30-248c118-7 216 8 213 122C240-48 200 0 122 0H30v-248zM63-27c89 8 146-16 146-99s-60-101-146-95v194" id="M"/><g id="g"><use transform="matrix(0.05,0,0,0.05,0,0)" xlink:href="#M"/><use transform="matrix(0.05,0,0,0.05,12.950000000000001,0)" xlink:href="#F"/><use transform="matrix(0.05,0,0,0.05,22.950000000000003,0)" xlink:href="#D"/><use transform="matrix(0.05,0,0,0.05,27.950000000000003,0)" xlink:href="#F"/></g><path fill="#c92d39" d="M199 0l-22-63H83L61 0H9l90-248h61L250 0h-51zm-33-102l-36-108c-10 38-24 72-36 108h72" id="N"/><path fill="#c92d39" d="M128 0H69L1-190h53L99-40l48-150h52" id="O"/><path fill="#c92d39" d="M110-194c64 0 96 36 96 99 0 64-35 99-97 99-61 0-95-36-95-99 0-62 34-99 96-99zm-1 164c35 0 45-28 45-65 0-40-10-65-43-65-34 0-45 26-45 65 0 36 10 65 43 65" id="P"/><path fill="#c92d39" d="M25-224v-37h50v37H25zM25 0v-190h50V0H25" id="Q"/><path fill="#c92d39" d="M88-194c31-1 46 15 58 34l-1-101h50l1 261h-48c-2-10 0-23-3-31C134-8 116 4 84 4 32 4 16-41 15-95c0-56 19-97 73-99zm17 164c33 0 40-30 41-66 1-37-9-64-41-64s-38 30-39 65c0 43 13 65 39 65" id="R"/><path fill="#c92d39" d="M80-75H40l-6-173h52zM34 0v-47h51V0H34" id="S"/><g id="h"><use transform="matrix(0.11790123456790114,0,0,0.11790123456790114,0,0)" xlink:href="#N"/><use transform="matrix(0.11790123456790114,0,0,0.11790123456790114,29.003703703703682,0)" xlink:href="#O"/><use transform="matrix(0.11790123456790114,0,0,0.11790123456790114,52.583950617283904,0)" xlink:href="#P"/><use transform="matrix(0.11790123456790114,0,0,0.11790123456790114,78.40432098765424,0)" xlink:href="#Q"/><use transform="matrix(0.11790123456790114,0,0,0.11790123456790114,90.19444444444436,0)" xlink:href="#R"/><use transform="matrix(0.11790123456790114,0,0,0.11790123456790114,116.01481481481471,0)" xlink:href="#S"/></g><path fill="#c92d39" d="M232-93c-1 65-40 97-104 97C67 4 28-28 28-90v-158h33c8 89-33 224 67 224 102 0 64-133 71-224h33v155" id="T"/><path fill="#c92d39" d="M210-169c-67 3-38 105-44 169h-31v-121c0-29-5-50-35-48C34-165 62-65 56 0H25l-1-190h30c1 10-1 24 2 32 10-44 99-50 107 0 11-21 27-35 58-36 85-2 47 119 55 194h-31v-121c0-29-5-49-35-48" id="U"/><path fill="#c92d39" d="M0 4l72-265h28L28 4H0" id="V"/><path fill="#c92d39" d="M206 0h-36l-40-164L89 0H53L-1-190h32L70-26l43-164h34l41 164 42-164h31" id="W"/><path fill="#c92d39" d="M85-194c31 0 48 13 60 33l-1-100h32l1 261h-30c-2-10 0-23-3-31C134-8 116 4 85 4 32 4 16-35 15-94c0-66 23-100 70-100zm9 24c-40 0-46 34-46 75 0 40 6 74 45 74 42 0 51-32 51-76 0-42-9-74-50-73" id="X"/><g id="j"><use transform="matrix(0.05,0,0,0.05,0,0)" xlink:href="#T"/><use transform="matrix(0.05,0,0,0.05,12.950000000000001,0)" xlink:href="#A"/><use transform="matrix(0.05,0,0,0.05,21.950000000000003,0)" xlink:href="#z"/><use transform="matrix(0.05,0,0,0.05,31.950000000000003,0)" xlink:href="#w"/><use transform="matrix(0.05,0,0,0.05,37.900000000000006,0)" xlink:href="#E"/><use transform="matrix(0.05,0,0,0.05,47.900000000000006,0)" xlink:href="#F"/><use transform="matrix(0.05,0,0,0.05,57.900000000000006,0)" xlink:href="#U"/><use transform="matrix(0.05,0,0,0.05,72.85000000000001,0)" xlink:href="#z"/><use transform="matrix(0.05,0,0,0.05,82.85000000000001,0)" xlink:href="#V"/><use transform="matrix(0.05,0,0,0.05,87.85000000000001,0)" xlink:href="#v"/><use transform="matrix(0.05,0,0,0.05,99.85000000000001,0)" xlink:href="#F"/><use transform="matrix(0.05,0,0,0.05,109.85000000000001,0)" xlink:href="#A"/><use transform="matrix(0.05,0,0,0.05,118.85000000000001,0)" xlink:href="#A"/><use transform="matrix(0.05,0,0,0.05,127.85000000000001,0)" xlink:href="#W"/><use transform="matrix(0.05,0,0,0.05,140.8,0)" xlink:href="#x"/><use transform="matrix(0.05,0,0,0.05,150.8,0)" xlink:href="#w"/><use transform="matrix(0.05,0,0,0.05,156.75,0)" xlink:href="#X"/></g><path d="M27 0v-27h64v-190l-56 39v-29l58-41h29v221h61V0H27" id="Y"/><path d="M33 0v-38h34V0H33" id="Z"/><path d="M101-251c68 0 85 55 85 127S166 4 100 4C33 4 14-52 14-124c0-73 17-127 87-127zm-1 229c47 0 54-49 54-102s-4-102-53-102c-51 0-55 48-55 102 0 53 5 102 54 102" id="aa"/><g id="k"><use transform="matrix(0.05,0,0,0.05,0,0)" xlink:href="#Y"/><use transform="matrix(0.05,0,0,0.05,10,0)" xlink:href="#Z"/><use transform="matrix(0.05,0,0,0.05,15,0)" xlink:href="#aa"/></g><path d="M30-248c87 1 191-15 191 75 0 78-77 80-158 76V0H30v-248zm33 125c57 0 124 11 124-50 0-59-68-47-124-48v98" id="ab"/><path d="M114-163C36-179 61-72 57 0H25l-1-190h30c1 12-1 29 2 39 6-27 23-49 58-41v29" id="ac"/><path d="M100-194c62-1 85 37 85 99 1 63-27 99-86 99S16-35 15-95c0-66 28-99 85-99zM99-20c44 1 53-31 53-75 0-43-8-75-51-75s-53 32-53 75 10 74 51 75" id="ad"/><path d="M96-169c-40 0-48 33-48 73s9 75 48 75c24 0 41-14 43-38l32 2c-6 37-31 61-74 61-59 0-76-41-82-99-10-93 101-131 147-64 4 7 5 14 7 22l-32 3c-4-21-16-35-41-35" id="ae"/><path d="M100-194c63 0 86 42 84 106H49c0 40 14 67 53 68 26 1 43-12 49-29l28 8c-11 28-37 45-77 45C44 4 14-33 15-96c1-61 26-98 85-98zm52 81c6-60-76-77-97-28-3 7-6 17-6 28h103" id="af"/><path d="M135-143c-3-34-86-38-87 0 15 53 115 12 119 90S17 21 10-45l28-5c4 36 97 45 98 0-10-56-113-15-118-90-4-57 82-63 122-42 12 7 21 19 24 35" id="ag"/><g id="l"><use transform="matrix(0.05,0,0,0.05,0,0)" xlink:href="#ab"/><use transform="matrix(0.05,0,0,0.05,12,0)" xlink:href="#ac"/><use transform="matrix(0.05,0,0,0.05,17.95,0)" xlink:href="#ad"/><use transform="matrix(0.05,0,0,0.05,27.950000000000003,0)" xlink:href="#ae"/><use transform="matrix(0.05,0,0,0.05,36.95,0)" xlink:href="#af"/><use transform="matrix(0.05,0,0,0.05,46.95,0)" xlink:href="#ag"/><use transform="matrix(0.05,0,0,0.05,55.95,0)" xlink:href="#ag"/></g><path d="M30 0v-248h187v28H63v79h144v27H63v87h162V0H30" id="ah"/><path d="M141 0L90-78 38 0H4l68-98-65-92h35l48 74 47-74h35l-64 92 68 98h-35" id="ai"/><path d="M59-47c-2 24 18 29 38 22v24C64 9 27 4 27-40v-127H5v-23h24l9-43h21v43h35v23H59v120" id="aj"/><path d="M117-194c89-4 53 116 60 194h-32v-121c0-31-8-49-39-48C34-167 62-67 57 0H25l-1-190h30c1 10-1 24 2 32 11-22 29-35 61-36" id="ak"/><path d="M141-36C126-15 110 5 73 4 37 3 15-17 15-53c-1-64 63-63 125-63 3-35-9-54-41-54-24 1-41 7-42 31l-33-3c5-37 33-52 76-52 45 0 72 20 72 64v82c-1 20 7 32 28 27v20c-31 9-61-2-59-35zM48-53c0 20 12 33 32 33 41-3 63-29 60-74-43 2-92-5-92 41" id="al"/><path d="M24 0v-261h32V0H24" id="am"/><g id="m"><use transform="matrix(0.05,0,0,0.05,0,0)" xlink:href="#ah"/><use transform="matrix(0.05,0,0,0.05,12,0)" xlink:href="#ai"/><use transform="matrix(0.05,0,0,0.05,21,0)" xlink:href="#aj"/><use transform="matrix(0.05,0,0,0.05,26,0)" xlink:href="#af"/><use transform="matrix(0.05,0,0,0.05,36,0)" xlink:href="#ac"/><use transform="matrix(0.05,0,0,0.05,41.95,0)" xlink:href="#ak"/><use transform="matrix(0.05,0,0,0.05,51.95,0)" xlink:href="#al"/><use transform="matrix(0.05,0,0,0.05,61.95,0)" xlink:href="#am"/></g><path d="M33 0v-248h34V0H33" id="an"/><g id="n"><use transform="matrix(0.05,0,0,0.05,0,0)" xlink:href="#an"/><use transform="matrix(0.05,0,0,0.05,5,0)" xlink:href="#ak"/><use transform="matrix(0.05,0,0,0.05,15,0)" xlink:href="#aj"/><use transform="matrix(0.05,0,0,0.05,20,0)" xlink:href="#af"/><use transform="matrix(0.05,0,0,0.05,30,0)" xlink:href="#ac"/><use transform="matrix(0.05,0,0,0.05,35.95,0)" xlink:href="#al"/><use transform="matrix(0.05,0,0,0.05,45.95,0)" xlink:href="#ae"/><use transform="matrix(0.05,0,0,0.05,54.95,0)" xlink:href="#aj"/><use transform="matrix(0.05,0,0,0.05,59.95,0)" xlink:href="#ad"/><use transform="matrix(0.05,0,0,0.05,69.95,0)" xlink:href="#ac"/></g><path d="M212-179c-10-28-35-45-73-45-59 0-87 40-87 99 0 60 29 101 89 101 43 0 62-24 78-52l27 14C228-24 195 4 139 4 59 4 22-46 18-125c-6-104 99-153 187-111 19 9 31 26 39 46" id="ao"/><path d="M85-194c31 0 48 13 60 33l-1-100h32l1 261h-30c-2-10 0-23-3-31C134-8 116 4 85 4 32 4 16-35 15-94c0-66 23-100 70-100zm9 24c-40 0-46 34-46 75 0 40 6 74 45 74 42 0 51-32 51-76 0-42-9-74-50-73" id="ap"/><path d="M24-231v-30h32v30H24zM24 0v-190h32V0H24" id="aq"/><g id="o"><use transform="matrix(0.05,0,0,0.05,0,0)" xlink:href="#ao"/><use transform="matrix(0.05,0,0,0.05,12.950000000000001,0)" xlink:href="#ac"/><use transform="matrix(0.05,0,0,0.05,18.900000000000002,0)" xlink:href="#af"/><use transform="matrix(0.05,0,0,0.05,28.900000000000002,0)" xlink:href="#ap"/><use transform="matrix(0.05,0,0,0.05,38.900000000000006,0)" xlink:href="#af"/><use transform="matrix(0.05,0,0,0.05,48.900000000000006,0)" xlink:href="#ak"/><use transform="matrix(0.05,0,0,0.05,58.900000000000006,0)" xlink:href="#aj"/><use transform="matrix(0.05,0,0,0.05,63.900000000000006,0)" xlink:href="#aq"/><use transform="matrix(0.05,0,0,0.05,67.85000000000001,0)" xlink:href="#al"/><use transform="matrix(0.05,0,0,0.05,77.85000000000001,0)" xlink:href="#am"/><use transform="matrix(0.05,0,0,0.05,81.80000000000001,0)" xlink:href="#ag"/></g><path d="M30-248c118-7 216 8 213 122C240-48 200 0 122 0H30v-248zM63-27c89 8 146-16 146-99s-60-101-146-95v194" id="ar"/><g id="p"><use transform="matrix(0.05,0,0,0.05,0,0)" xlink:href="#ar"/><use transform="matrix(0.05,0,0,0.05,12.950000000000001,0)" xlink:href="#al"/><use transform="matrix(0.05,0,0,0.05,22.950000000000003,0)" xlink:href="#aj"/><use transform="matrix(0.05,0,0,0.05,27.950000000000003,0)" xlink:href="#al"/></g><path d="M182-130c37 4 62 22 62 59C244 23 116-4 24 0v-248c84 5 203-23 205 63 0 31-19 50-47 55zM76-148c40-3 101 13 101-30 0-44-60-28-101-31v61zm0 110c48-3 116 14 116-37 0-48-69-32-116-35v72" id="as"/><path d="M185-48c-13 30-37 53-82 52C43 2 14-33 14-96s30-98 90-98c62 0 83 45 84 108H66c0 31 8 55 39 56 18 0 30-7 34-22zm-45-69c5-46-57-63-70-21-2 6-4 13-4 21h74" id="at"/><path d="M115-3C79 11 28 4 28-45v-112H4v-33h27l15-45h31v45h36v33H77v99c-1 23 16 31 38 25v30" id="au"/><path d="M135-150c-39-12-60 13-60 57V0H25l-1-190h47c2 13-1 29 3 40 6-28 27-53 61-41v41" id="av"/><path d="M80-75H40l-6-173h52zM34 0v-47h51V0H34" id="aw"/><g id="r"><use transform="matrix(0.11790123456790114,0,0,0.11790123456790114,0,0)" xlink:href="#as"/><use transform="matrix(0.11790123456790114,0,0,0.11790123456790114,30.536419753086395,0)" xlink:href="#at"/><use transform="matrix(0.11790123456790114,0,0,0.11790123456790114,54.11666666666662,0)" xlink:href="#au"/><use transform="matrix(0.11790123456790114,0,0,0.11790123456790114,68.14691358024686,0)" xlink:href="#au"/><use transform="matrix(0.11790123456790114,0,0,0.11790123456790114,82.1771604938271,0)" xlink:href="#at"/><use transform="matrix(0.11790123456790114,0,0,0.11790123456790114,105.75740740740733,0)" xlink:href="#av"/><use transform="matrix(0.11790123456790114,0,0,0.11790123456790114,122.26358024691348,0)" xlink:href="#aw"/></g></defs></g></svg>