<svg xmlns="http://www.w3.org/2000/svg" xmlns:xlink="http://www.w3.org/1999/xlink" xmlns:lucid="lucid" width="546" height="346"><g transform="translate(-379 -695)" lucid:page-tab-id="lijG_qHrHR5s"><path d="M0 0h1360v1760H0z" fill="#fff"/><path d="M524.24 593.92l-2.93 5.9-3.52 6.44-3.65 6.05-3.8 5.7-3.9 5.4-4.02 5.1-4.13 4.8-4.26 4.53-4.36 4.3-4.5 4.03-4.6 3.8-4.7 3.6-4.85 3.37-4.96 3.15-5.08 2.94-5.2 2.72-5.34 2.5-5.45 2.3-5.58 2.1-5.7 1.84-5.83 1.63-5.95 1.4-6.05 1.17-6.17.9-6.26.68-2.68.17v-2l2.5-.17 6.2-.65 6.07-.9 5.98-1.15 5.87-1.37 5.74-1.6 5.63-1.84 5.5-2.05 5.38-2.27 5.26-2.48 5.13-2.7 5-2.88 4.9-3.1 4.75-3.33 4.66-3.53 4.54-3.75 4.43-4 4.3-4.22 4.2-4.48 4.1-4.74 3.97-5 3.86-5.33 3.74-5.63 3.6-5.98 3.5-6.35 2.9-5.87zm-267.07 9.3l3.15 5.2 3.37 5.07 3.58 4.92 3.8 4.8 4.04 4.66 4.25 4.52 4.47 4.37 4.68 4.2 4.9 4.05 5.1 3.87 5.3 3.66 5.48 3.48 5.66 3.27 5.84 3.05 5.98 2.8 6.12 2.58 6.23 2.3 6.33 2.07 6.4 1.78 6.46 1.5 4.5.86v2.04l-4.9-.93-6.55-1.53-6.5-1.8-6.4-2.1-6.3-2.33-6.2-2.6-6.06-2.86-5.9-3.08-5.74-3.3-5.56-3.53-5.37-3.73-5.16-3.9-4.96-4.1-4.73-4.27-4.53-4.43-4.3-4.58-4.1-4.72-3.85-4.87-3.65-5-3.42-5.14-3.2-5.28-2.96-5.38 1.76-.96z" fill="#c92d39"/><path d="M524.68 593.02l-.45.92-1.8-.9.46-.9zM257.18 595.56l-8.47 3.78-1.56-14.92z" fill="#c92d39"/><path d="M258.84 595.92l-10.98 4.9-2.04-19.35zm-9.28 1.95l5.95-2.66-7.05-7.82z" fill="#c92d39"/><use xlink:href="#a" transform="matrix(1,0,0,1,362.8057451684924,668.7063902577743) translate(0 14.4)"/><path d="M610 830c0 49.7-40.3 90-90 90s-90-40.3-90-90 40.3-90 90-90 90 40.3 90 90z" stroke="#c92d39" stroke-width="2" fill="#fff"/><use xlink:href="#b" transform="matrix(1,0,0,1,450,740) translate(57.5 82.80000000000001)"/><use xlink:href="#c" transform="matrix(1,0,0,1,450,740) translate(37.525 104.4)"/><path d="M584.18 904.78l3.9 6.1 4.05 5.73 4.15 5.43 4.28 5.12 4.4 4.84 4.5 4.56 4.66 4.3 4.77 4.1 4.9 3.84 5.03 3.62 5.18 3.4 5.33 3.2 5.48 2.97 5.64 2.75 5.8 2.55 5.95 2.32 6.1 2.1 6.3 1.86 6.48 1.63 6.64 1.4 6.8 1.1 6.98.85 7.12.56 6.75.26v2l-6.87-.25-7.2-.56-7.06-.86-6.9-1.13-6.7-1.4-6.56-1.64-6.37-1.88-6.2-2.12-6.03-2.36-5.87-2.57-5.7-2.8-5.56-3.02-5.4-3.23-5.25-3.45-5.1-3.67-4.98-3.9-4.84-4.13-4.7-4.38-4.58-4.64-4.45-4.9-4.33-5.18-4.2-5.48-4.1-5.8-3.94-6.18-3.3-5.66 1.72-1zm288.48-7.72l-1.15 2-3.25 5.2-3.54 5.16-3.82 5.1-4.1 5-4.42 4.96-4.7 4.85-5.02 4.76-5.33 4.63-5.6 4.5-5.94 4.35-6.2 4.18-6.5 3.97-6.76 3.76-7 3.5-7.2 3.25-7.37 2.96-7.53 2.68-7.64 2.34-7.7 2.03-7.77 1.7-.78.12v-2.03l.38-.07 7.68-1.67 7.63-2 7.57-2.32 7.45-2.64 7.3-2.93 7.13-3.2 6.92-3.48 6.67-3.72 6.43-3.93 6.14-4.12 5.87-4.3 5.56-4.46 5.26-4.6 4.94-4.7 4.66-4.8 4.35-4.87 4.06-4.95 3.78-5.03 3.5-5.08 3.22-5.13 1.12-1.97zM580.9 899.17l-1.72 1-.42-.72 1.54-1.33zM876.38 897.74l-8.3-4.12 10.48-10.72z" fill="#c92d39"/><path d="M877.17 899.25l-10.77-5.34L880 880zm-7.42-5.9l5.84 2.88 1.53-10.43z" fill="#c92d39"/><use xlink:href="#a" transform="matrix(1,0,0,1,715.3694665313541,968.8779420220945) translate(0 14.4)"/><path d="M610 800h240v130.8H610z" stroke="#000" stroke-opacity="0" stroke-width="2" fill="#fff" fill-opacity="0"/><use xlink:href="#d" transform="matrix(1,0,0,1,615,805) translate(43.4614197530865 26.944444444444485)"/><use xlink:href="#e" transform="matrix(1,0,0,1,615,805) translate(78.74135802469141 67.21111111111111)"/><use xlink:href="#f" transform="matrix(1,0,0,1,615,805) translate(71.33117283950622 107.47777777777773)"/><defs><path fill="#c92d39" d="M30-248c118-7 216 8 213 122C240-48 200 0 122 0H30v-248zM63-27c89 8 146-16 146-99s-60-101-146-95v194" id="g"/><path fill="#c92d39" d="M141-36C126-15 110 5 73 4 37 3 15-17 15-53c-1-64 63-63 125-63 3-35-9-54-41-54-24 1-41 7-42 31l-33-3c5-37 33-52 76-52 45 0 72 20 72 64v82c-1 20 7 32 28 27v20c-31 9-61-2-59-35zM48-53c0 20 12 33 32 33 41-3 63-29 60-74-43 2-92-5-92 41" id="h"/><path fill="#c92d39" d="M59-47c-2 24 18 29 38 22v24C64 9 27 4 27-40v-127H5v-23h24l9-43h21v43h35v23H59v120" id="i"/><g id="a"><use transform="matrix(0.05,0,0,0.05,0,0)" xlink:href="#g"/><use transform="matrix(0.05,0,0,0.05,12.950000000000001,0)" xlink:href="#h"/><use transform="matrix(0.05,0,0,0.05,22.950000000000003,0)" xlink:href="#i"/><use transform="matrix(0.05,0,0,0.05,27.950000000000003,0)" xlink:href="#h"/></g><path fill="#c92d39" d="M27 0v-27h64v-190l-56 39v-29l58-41h29v221h61V0H27" id="j"/><path fill="#c92d39" d="M33 0v-38h34V0H33" id="k"/><path fill="#c92d39" d="M101-251c68 0 85 55 85 127S166 4 100 4C33 4 14-52 14-124c0-73 17-127 87-127zm-1 229c47 0 54-49 54-102s-4-102-53-102c-51 0-55 48-55 102 0 53 5 102 54 102" id="l"/><g id="b"><use transform="matrix(0.05,0,0,0.05,0,0)" xlink:href="#j"/><use transform="matrix(0.05,0,0,0.05,10,0)" xlink:href="#k"/><use transform="matrix(0.05,0,0,0.05,15,0)" xlink:href="#l"/></g><path fill="#c92d39" d="M30-248c87 1 191-15 191 75 0 78-77 80-158 76V0H30v-248zm33 125c57 0 124 11 124-50 0-59-68-47-124-48v98" id="m"/><path fill="#c92d39" d="M114-163C36-179 61-72 57 0H25l-1-190h30c1 12-1 29 2 39 6-27 23-49 58-41v29" id="n"/><path fill="#c92d39" d="M100-194c62-1 85 37 85 99 1 63-27 99-86 99S16-35 15-95c0-66 28-99 85-99zM99-20c44 1 53-31 53-75 0-43-8-75-51-75s-53 32-53 75 10 74 51 75" id="o"/><path fill="#c92d39" d="M96-169c-40 0-48 33-48 73s9 75 48 75c24 0 41-14 43-38l32 2c-6 37-31 61-74 61-59 0-76-41-82-99-10-93 101-131 147-64 4 7 5 14 7 22l-32 3c-4-21-16-35-41-35" id="p"/><path fill="#c92d39" d="M100-194c63 0 86 42 84 106H49c0 40 14 67 53 68 26 1 43-12 49-29l28 8c-11 28-37 45-77 45C44 4 14-33 15-96c1-61 26-98 85-98zm52 81c6-60-76-77-97-28-3 7-6 17-6 28h103" id="q"/><path fill="#c92d39" d="M135-143c-3-34-86-38-87 0 15 53 115 12 119 90S17 21 10-45l28-5c4 36 97 45 98 0-10-56-113-15-118-90-4-57 82-63 122-42 12 7 21 19 24 35" id="r"/><g id="c"><use transform="matrix(0.05,0,0,0.05,0,0)" xlink:href="#m"/><use transform="matrix(0.05,0,0,0.05,12,0)" xlink:href="#n"/><use transform="matrix(0.05,0,0,0.05,17.95,0)" xlink:href="#o"/><use transform="matrix(0.05,0,0,0.05,27.950000000000003,0)" xlink:href="#p"/><use transform="matrix(0.05,0,0,0.05,36.95,0)" xlink:href="#q"/><use transform="matrix(0.05,0,0,0.05,46.95,0)" xlink:href="#r"/><use transform="matrix(0.05,0,0,0.05,55.95,0)" xlink:href="#r"/></g><path fill="#c92d39" d="M24-248c120-7 223 5 221 122C244-46 201 0 124 0H24v-248zM76-40c74 7 117-18 117-86 0-67-45-88-117-82v168" id="s"/><path fill="#c92d39" d="M133-34C117-15 103 5 69 4 32 3 11-16 11-54c-1-60 55-63 116-61 1-26-3-47-28-47-18 1-26 9-28 27l-52-2c7-38 36-58 82-57s74 22 75 68l1 82c-1 14 12 18 25 15v27c-30 8-71 5-69-32zm-48 3c29 0 43-24 42-57-32 0-66-3-65 30 0 17 8 27 23 27" id="t"/><path fill="#c92d39" d="M135-194c87-1 58 113 63 194h-50c-7-57 23-157-34-157-59 0-34 97-39 157H25l-1-190h47c2 12-1 28 3 38 12-26 28-41 61-42" id="u"/><path fill="#c92d39" d="M195-6C206 82 75 100 31 46c-4-6-6-13-8-21l49-6c3 16 16 24 34 25 40 0 42-37 40-79-11 22-30 35-61 35-53 0-70-43-70-97 0-56 18-96 73-97 30 0 46 14 59 34l2-30h47zm-90-29c32 0 41-27 41-63 0-35-9-62-40-62-32 0-39 29-40 63 0 36 9 62 39 62" id="v"/><path fill="#c92d39" d="M25 0v-261h50V0H25" id="w"/><path fill="#c92d39" d="M25-224v-37h50v37H25zM25 0v-190h50V0H25" id="x"/><g id="d"><use transform="matrix(0.09320987654320977,0,0,0.09320987654320977,0,0)" xlink:href="#s"/><use transform="matrix(0.09320987654320977,0,0,0.09320987654320977,24.14135802469133,0)" xlink:href="#t"/><use transform="matrix(0.09320987654320977,0,0,0.09320987654320977,42.78333333333328,0)" xlink:href="#u"/><use transform="matrix(0.09320987654320977,0,0,0.09320987654320977,63.19629629629622,0)" xlink:href="#v"/><use transform="matrix(0.09320987654320977,0,0,0.09320987654320977,83.60925925925916,0)" xlink:href="#w"/><use transform="matrix(0.09320987654320977,0,0,0.09320987654320977,92.93024691358013,0)" xlink:href="#x"/><use transform="matrix(0.09320987654320977,0,0,0.09320987654320977,102.25123456790111,0)" xlink:href="#u"/><use transform="matrix(0.09320987654320977,0,0,0.09320987654320977,122.66419753086406,0)" xlink:href="#v"/></g><path fill="#c92d39" d="M115-3C79 11 28 4 28-45v-112H4v-33h27l15-45h31v45h36v33H77v99c-1 23 16 31 38 25v30" id="y"/><g id="e"><use transform="matrix(0.09320987654320977,0,0,0.09320987654320977,0,0)" xlink:href="#s"/><use transform="matrix(0.09320987654320977,0,0,0.09320987654320977,24.14135802469133,0)" xlink:href="#t"/><use transform="matrix(0.09320987654320977,0,0,0.09320987654320977,42.78333333333328,0)" xlink:href="#y"/><use transform="matrix(0.09320987654320977,0,0,0.09320987654320977,53.875308641975245,0)" xlink:href="#t"/></g><path fill="#c92d39" d="M76-208v77h127v40H76V0H24v-248h183v40H76" id="z"/><path fill="#c92d39" d="M110-194c64 0 96 36 96 99 0 64-35 99-97 99-61 0-95-36-95-99 0-62 34-99 96-99zm-1 164c35 0 45-28 45-65 0-40-10-65-43-65-34 0-45 26-45 65 0 36 10 65 43 65" id="A"/><path fill="#c92d39" d="M231 0h-52l-39-155L100 0H48L-1-190h46L77-45c9-52 24-97 36-145h53l37 145 32-145h46" id="B"/><path fill="#c92d39" d="M80-75H40l-6-173h52zM34 0v-47h51V0H34" id="C"/><g id="f"><use transform="matrix(0.09320987654320977,0,0,0.09320987654320977,0,0)" xlink:href="#z"/><use transform="matrix(0.09320987654320977,0,0,0.09320987654320977,20.41296296296294,0)" xlink:href="#w"/><use transform="matrix(0.09320987654320977,0,0,0.09320987654320977,29.733950617283917,0)" xlink:href="#A"/><use transform="matrix(0.09320987654320977,0,0,0.09320987654320977,50.14691358024687,0)" xlink:href="#B"/><use transform="matrix(0.09320987654320977,0,0,0.09320987654320977,76.24567901234559,0)" xlink:href="#C"/></g></defs></g></svg>