<svg xmlns="http://www.w3.org/2000/svg" xmlns:xlink="http://www.w3.org/1999/xlink" xmlns:lucid="lucid" width="1204" height="381"><g transform="translate(-95 -2593)" lucid:page-tab-id="lijG_qHrHR5s"><path d="M0 0h1360v3456H0z" fill="#fff"/><path d="M960 2776.95c0 49.7-40.3 90-90 90s-90-40.3-90-90 40.3-90 90-90 90 40.3 90 90z" stroke="#c92d39" stroke-width="2" fill="#fff"/><use xlink:href="#a" transform="matrix(1,0,0,1,800,2686.9524401678136) translate(57.5 82.80000000000001)"/><use xlink:href="#b" transform="matrix(1,0,0,1,800,2686.9524401678136) translate(23.049999999999997 104.4)"/><use xlink:href="#c" transform="matrix(1,0,0,1,800,2686.9524401678136) translate(84 104.4)"/><path d="M540 2776.95c0 49.7-40.3 90-90 90s-90-40.3-90-90 40.3-90 90-90 90 40.3 90 90z" stroke="#c92d39" stroke-width="2" fill="#fff"/><use xlink:href="#d" transform="matrix(1,0,0,1,380,2686.9524401678136) translate(57.5 82.80000000000001)"/><use xlink:href="#e" transform="matrix(1,0,0,1,380,2686.9524401678136) translate(39.025 104.4)"/><use xlink:href="#f" transform="matrix(1,0,0,1,380,2686.9524401678136) translate(73.025 104.4)"/><path d="M716.87 2633.43l5.8 2.96 5.82 3.27 5.8 3.6 5.8 3.96 5.77 4.3 5.72 4.63 5.64 4.98 5.55 5.33 5.4 5.67 5.28 5.98 5.08 6.28 4.86 6.55 4.6 6.78 3.25 5.25-1.7 1.05-3.23-5.2-4.56-6.72-4.8-6.47-5.03-6.22-5.2-5.9-5.38-5.6-5.5-5.28-5.57-4.94-5.66-4.58-5.7-4.24-5.73-3.9-5.73-3.57-5.74-3.25-5.73-2.92-5.72-2.62-2.22-.9h5.04zm-124.04.06l-7.42 3.12-7.37 3.48-7.26 3.8-7.1 4.1-6.9 4.4-6.66 4.63-6.35 4.84-6.05 5-5.7 5.16-5.38 5.26-5 5.34-4.67 5.4-4.3 5.45-3.97 5.45-3.1 4.66-1.66-1.1 3.12-4.7 4-5.52 4.37-5.5 4.72-5.48 5.07-5.4 5.42-5.33 5.78-5.2 6.1-5.07 6.44-4.9 6.7-4.66 6.98-4.44 7.18-4.15 7.34-3.84 7.45-3.5 7.33-3.1h5.7zM505.6 2703.6l-.6.9-1.6-1.2.54-.82zM797.7 2716.9l-10.88-10.3 8.15-4.43z" fill="#c92d39"/><path d="M799.25 2719.76l-14.12-13.4 10.57-5.73zm-10.74-12.95l7.66 7.27-1.93-10.37z" fill="#c92d39"/><use xlink:href="#g" transform="matrix(1,0,0,1,546.1312080573049,2610.09828386875) translate(0 14.4)"/><use xlink:href="#h" transform="matrix(1,0,0,1,546.1312080573049,2610.09828386875) translate(30 14.4)"/><use xlink:href="#i" transform="matrix(1,0,0,1,546.1312080573049,2610.09828386875) translate(69.85 14.4)"/><use xlink:href="#j" transform="matrix(1,0,0,1,546.1312080573049,2610.09828386875) translate(147.8 14.4)"/><path d="M511.26 2869.7l2.57 4.25 2.74 4.12 2.92 4 3.1 3.92 3.28 3.8 3.47 3.7 3.68 3.58 3.88 3.5 4.1 3.38 4.33 3.27 4.55 3.16 4.8 3.03 5.03 2.9 5.3 2.76 5.54 2.6 5.8 2.43 3.04 1.12h-5.52l-4.13-1.73-5.62-2.64-5.35-2.8-5.1-2.94-4.87-3.08-4.62-3.2-4.4-3.33-4.15-3.44-3.94-3.56-3.74-3.65-3.53-3.77-3.35-3.87-3.15-3.97-2.97-4.1-2.8-4.18-2.6-4.3-.92-1.67 1.76-.97zm290.68-31.56l-2.8 5.67-3.5 6.36-3.7 6.13-3.93 5.9-4.14 5.73-4.37 5.52-4.6 5.34-4.84 5.14-5.06 4.96-5.3 4.77-5.52 4.58-5.77 4.38-6 4.18-6.24 3.98-6.48 3.75-6.7 3.5-6.94 3.27-7.13 3-2.52.95h-5.77l.32-.1 7.25-2.7 7.06-2.97 6.85-3.23 6.63-3.47 6.42-3.7 6.17-3.93 5.93-4.13 5.7-4.34 5.47-4.53 5.23-4.7 5-4.9 4.77-5.1 4.55-5.27 4.32-5.46 4.1-5.65 3.88-5.85 3.66-6.06 3.46-6.28 2.8-5.62z" fill="#c92d39"/><path d="M802.2 2837.62l-.27.55-1.8-.9.65-1.3zM513.28 2865.73l-8.4 3.9-1.8-14.9z" fill="#c92d39"/><path d="M514.95 2866.06l-10.9 5.05-2.33-19.3zm-9.25 2.08l5.9-2.74-7.16-7.73z" fill="#c92d39"/><use xlink:href="#k" transform="matrix(1,0,0,1,547.72049409226,2925.252555751833) translate(0 14.4)"/><use xlink:href="#l" transform="matrix(1,0,0,1,547.72049409226,2925.252555751833) translate(30 14.4)"/><use xlink:href="#i" transform="matrix(1,0,0,1,547.72049409226,2925.252555751833) translate(96 14.4)"/><use xlink:href="#j" transform="matrix(1,0,0,1,547.72049409226,2925.252555751833) translate(173.95 14.4)"/><path d="M540 2740h240v60.93H540z" stroke="#000" stroke-opacity="0" stroke-width="2" fill="#fff" fill-opacity="0"/><g><use xlink:href="#m" transform="matrix(1,0,0,1,545,2745) translate(49.97746913580252 33.98888888888888)"/></g><path d="M640.16 2738.6l-1.57 1.24-67.82-84.77 1.56-1.25z" fill="#c92d39"/><path d="M641.28 2740h-2.56l-.14-.18 1.56-1.25zM574.55 2650.77l-7.24 5.8-5.28-14.04z" fill="#c92d39"/><path d="M576.25 2650.7l-9.4 7.5L560 2640zm-8.5 4.22l5.1-4.07-8.8-5.8zM641.43 2802.3l-64.16 103.48-1.7-1.05 64.16-103.47z" fill="#c92d39"/><path d="M641.42 2802.33l-1.7-1.05.2-.35h2.36zM579.83 2908.55l-11.46 9.68 3.58-14.57z" fill="#c92d39"/><path d="M581.53 2908.42l-14.86 12.56 4.64-18.9zm-11.45 7.06l8.05-6.8-5.54-3.44z" fill="#c92d39"/><defs><path fill="#c92d39" d="M101-251c82-7 93 87 43 132L82-64C71-53 59-42 53-27h129V0H18c2-99 128-94 128-182 0-28-16-43-45-43s-46 15-49 41l-32-3c6-41 34-60 81-64" id="n"/><path fill="#c92d39" d="M33 0v-38h34V0H33" id="o"/><path fill="#c92d39" d="M101-251c68 0 85 55 85 127S166 4 100 4C33 4 14-52 14-124c0-73 17-127 87-127zm-1 229c47 0 54-49 54-102s-4-102-53-102c-51 0-55 48-55 102 0 53 5 102 54 102" id="p"/><g id="a"><use transform="matrix(0.05,0,0,0.05,0,0)" xlink:href="#n"/><use transform="matrix(0.05,0,0,0.05,10,0)" xlink:href="#o"/><use transform="matrix(0.05,0,0,0.05,15,0)" xlink:href="#p"/></g><path fill="#c92d39" d="M160-131c35 5 61 23 61 61C221 17 115-2 30 0v-248c76 3 177-17 177 60 0 33-19 50-47 57zm-97-11c50-1 110 9 110-42 0-47-63-36-110-37v79zm0 115c55-2 124 14 124-45 0-56-70-42-124-44v89" id="q"/><path fill="#c92d39" d="M84 4C-5 8 30-112 23-190h32v120c0 31 7 50 39 49 72-2 45-101 50-169h31l1 190h-30c-1-10 1-25-2-33-11 22-28 36-60 37" id="r"/><path fill="#c92d39" d="M115-194c53 0 69 39 70 98 0 66-23 100-70 100C84 3 66-7 56-30L54 0H23l1-261h32v101c10-23 28-34 59-34zm-8 174c40 0 45-34 45-75 0-40-5-75-45-74-42 0-51 32-51 76 0 43 10 73 51 73" id="s"/><path fill="#c92d39" d="M24 0v-261h32V0H24" id="t"/><path fill="#c92d39" d="M100-194c63 0 86 42 84 106H49c0 40 14 67 53 68 26 1 43-12 49-29l28 8c-11 28-37 45-77 45C44 4 14-33 15-96c1-61 26-98 85-98zm52 81c6-60-76-77-97-28-3 7-6 17-6 28h103" id="u"/><g id="b"><use transform="matrix(0.05,0,0,0.05,0,0)" xlink:href="#q"/><use transform="matrix(0.05,0,0,0.05,12,0)" xlink:href="#r"/><use transform="matrix(0.05,0,0,0.05,22,0)" xlink:href="#s"/><use transform="matrix(0.05,0,0,0.05,32,0)" xlink:href="#s"/><use transform="matrix(0.05,0,0,0.05,42,0)" xlink:href="#t"/><use transform="matrix(0.05,0,0,0.05,45.95,0)" xlink:href="#u"/></g><path fill="#c92d39" d="M185-189c-5-48-123-54-124 2 14 75 158 14 163 119 3 78-121 87-175 55-17-10-28-26-33-46l33-7c5 56 141 63 141-1 0-78-155-14-162-118-5-82 145-84 179-34 5 7 8 16 11 25" id="v"/><path fill="#c92d39" d="M100-194c62-1 85 37 85 99 1 63-27 99-86 99S16-35 15-95c0-66 28-99 85-99zM99-20c44 1 53-31 53-75 0-43-8-75-51-75s-53 32-53 75 10 74 51 75" id="w"/><path fill="#c92d39" d="M114-163C36-179 61-72 57 0H25l-1-190h30c1 12-1 29 2 39 6-27 23-49 58-41v29" id="x"/><path fill="#c92d39" d="M59-47c-2 24 18 29 38 22v24C64 9 27 4 27-40v-127H5v-23h24l9-43h21v43h35v23H59v120" id="y"/><g id="c"><use transform="matrix(0.05,0,0,0.05,0,0)" xlink:href="#v"/><use transform="matrix(0.05,0,0,0.05,12,0)" xlink:href="#w"/><use transform="matrix(0.05,0,0,0.05,22,0)" xlink:href="#x"/><use transform="matrix(0.05,0,0,0.05,27.950000000000003,0)" xlink:href="#y"/></g><path fill="#c92d39" d="M27 0v-27h64v-190l-56 39v-29l58-41h29v221h61V0H27" id="z"/><g id="d"><use transform="matrix(0.05,0,0,0.05,0,0)" xlink:href="#z"/><use transform="matrix(0.05,0,0,0.05,10,0)" xlink:href="#o"/><use transform="matrix(0.05,0,0,0.05,15,0)" xlink:href="#p"/></g><path fill="#c92d39" d="M143 4C61 4 22-44 18-125c-5-107 100-154 193-111 17 8 29 25 37 43l-32 9c-13-25-37-40-76-40-61 0-88 39-88 99 0 61 29 100 91 101 35 0 62-11 79-27v-45h-74v-28h105v86C228-13 192 4 143 4" id="A"/><g id="e"><use transform="matrix(0.05,0,0,0.05,0,0)" xlink:href="#A"/><use transform="matrix(0.05,0,0,0.05,14,0)" xlink:href="#u"/><use transform="matrix(0.05,0,0,0.05,24,0)" xlink:href="#y"/></g><path fill="#c92d39" d="M30 0v-248h33v221h125V0H30" id="B"/><path fill="#c92d39" d="M24-231v-30h32v30H24zM24 0v-190h32V0H24" id="C"/><path fill="#c92d39" d="M135-143c-3-34-86-38-87 0 15 53 115 12 119 90S17 21 10-45l28-5c4 36 97 45 98 0-10-56-113-15-118-90-4-57 82-63 122-42 12 7 21 19 24 35" id="D"/><g id="f"><use transform="matrix(0.05,0,0,0.05,0,0)" xlink:href="#B"/><use transform="matrix(0.05,0,0,0.05,10,0)" xlink:href="#C"/><use transform="matrix(0.05,0,0,0.05,13.949999999999998,0)" xlink:href="#D"/><use transform="matrix(0.05,0,0,0.05,22.95,0)" xlink:href="#y"/></g><g id="g"><use transform="matrix(0.05,0,0,0.05,0,0)" xlink:href="#z"/><use transform="matrix(0.05,0,0,0.05,10,0)" xlink:href="#o"/><use transform="matrix(0.05,0,0,0.05,15,0)" xlink:href="#p"/></g><path fill="#c92d39" d="M63-220v92h138v28H63V0H30v-248h175v28H63" id="E"/><g id="h"><use transform="matrix(0.05,0,0,0.05,0,0)" xlink:href="#E"/><use transform="matrix(0.05,0,0,0.05,10.950000000000001,0)" xlink:href="#C"/><use transform="matrix(0.05,0,0,0.05,14.9,0)" xlink:href="#x"/><use transform="matrix(0.05,0,0,0.05,20.85,0)" xlink:href="#D"/><use transform="matrix(0.05,0,0,0.05,29.85,0)" xlink:href="#y"/></g><path fill="#c92d39" d="M240 0l2-218c-23 76-54 145-80 218h-23L58-218 59 0H30v-248h44l77 211c21-75 51-140 76-211h43V0h-30" id="F"/><path fill="#c92d39" d="M141-36C126-15 110 5 73 4 37 3 15-17 15-53c-1-64 63-63 125-63 3-35-9-54-41-54-24 1-41 7-42 31l-33-3c5-37 33-52 76-52 45 0 72 20 72 64v82c-1 20 7 32 28 27v20c-31 9-61-2-59-35zM48-53c0 20 12 33 32 33 41-3 63-29 60-74-43 2-92-5-92 41" id="G"/><path fill="#c92d39" d="M177-190C167-65 218 103 67 71c-23-6-38-20-44-43l32-5c15 47 100 32 89-28v-30C133-14 115 1 83 1 29 1 15-40 15-95c0-56 16-97 71-98 29-1 48 16 59 35 1-10 0-23 2-32h30zM94-22c36 0 50-32 50-73 0-42-14-75-50-75-39 0-46 34-46 75s6 73 46 73" id="H"/><g id="i"><use transform="matrix(0.05,0,0,0.05,0,0)" xlink:href="#F"/><use transform="matrix(0.05,0,0,0.05,14.950000000000001,0)" xlink:href="#u"/><use transform="matrix(0.05,0,0,0.05,24.950000000000003,0)" xlink:href="#D"/><use transform="matrix(0.05,0,0,0.05,33.95,0)" xlink:href="#D"/><use transform="matrix(0.05,0,0,0.05,42.95,0)" xlink:href="#G"/><use transform="matrix(0.05,0,0,0.05,52.95,0)" xlink:href="#H"/><use transform="matrix(0.05,0,0,0.05,62.95,0)" xlink:href="#u"/></g><path fill="#c92d39" d="M30-248c118-7 216 8 213 122C240-48 200 0 122 0H30v-248zM63-27c89 8 146-16 146-99s-60-101-146-95v194" id="I"/><g id="j"><use transform="matrix(0.05,0,0,0.05,0,0)" xlink:href="#I"/><use transform="matrix(0.05,0,0,0.05,12.950000000000001,0)" xlink:href="#G"/><use transform="matrix(0.05,0,0,0.05,22.950000000000003,0)" xlink:href="#y"/><use transform="matrix(0.05,0,0,0.05,27.950000000000003,0)" xlink:href="#G"/></g><g id="k"><use transform="matrix(0.05,0,0,0.05,0,0)" xlink:href="#n"/><use transform="matrix(0.05,0,0,0.05,10,0)" xlink:href="#o"/><use transform="matrix(0.05,0,0,0.05,15,0)" xlink:href="#p"/></g><path fill="#c92d39" d="M96-169c-40 0-48 33-48 73s9 75 48 75c24 0 41-14 43-38l32 2c-6 37-31 61-74 61-59 0-76-41-82-99-10-93 101-131 147-64 4 7 5 14 7 22l-32 3c-4-21-16-35-41-35" id="J"/><path fill="#c92d39" d="M117-194c89-4 53 116 60 194h-32v-121c0-31-8-49-39-48C34-167 62-67 57 0H25l-1-190h30c1 10-1 24 2 32 11-22 29-35 61-36" id="K"/><path fill="#c92d39" d="M85-194c31 0 48 13 60 33l-1-100h32l1 261h-30c-2-10 0-23-3-31C134-8 116 4 85 4 32 4 16-35 15-94c0-66 23-100 70-100zm9 24c-40 0-46 34-46 75 0 40 6 74 45 74 42 0 51-32 51-76 0-42-9-74-50-73" id="L"/><g id="l"><use transform="matrix(0.05,0,0,0.05,0,0)" xlink:href="#v"/><use transform="matrix(0.05,0,0,0.05,12,0)" xlink:href="#u"/><use transform="matrix(0.05,0,0,0.05,22,0)" xlink:href="#J"/><use transform="matrix(0.05,0,0,0.05,31,0)" xlink:href="#w"/><use transform="matrix(0.05,0,0,0.05,41,0)" xlink:href="#K"/><use transform="matrix(0.05,0,0,0.05,51,0)" xlink:href="#L"/></g><path fill="#c92d39" d="M199 0l-22-63H83L61 0H9l90-248h61L250 0h-51zm-33-102l-36-108c-10 38-24 72-36 108h72" id="M"/><path fill="#c92d39" d="M128 0H69L1-190h53L99-40l48-150h52" id="N"/><path fill="#c92d39" d="M110-194c64 0 96 36 96 99 0 64-35 99-97 99-61 0-95-36-95-99 0-62 34-99 96-99zm-1 164c35 0 45-28 45-65 0-40-10-65-43-65-34 0-45 26-45 65 0 36 10 65 43 65" id="O"/><path fill="#c92d39" d="M25-224v-37h50v37H25zM25 0v-190h50V0H25" id="P"/><path fill="#c92d39" d="M88-194c31-1 46 15 58 34l-1-101h50l1 261h-48c-2-10 0-23-3-31C134-8 116 4 84 4 32 4 16-41 15-95c0-56 19-97 73-99zm17 164c33 0 40-30 41-66 1-37-9-64-41-64s-38 30-39 65c0 43 13 65 39 65" id="Q"/><path fill="#c92d39" d="M80-75H40l-6-173h52zM34 0v-47h51V0H34" id="R"/><g id="m"><use transform="matrix(0.11790123456790114,0,0,0.11790123456790114,0,0)" xlink:href="#M"/><use transform="matrix(0.11790123456790114,0,0,0.11790123456790114,29.003703703703682,0)" xlink:href="#N"/><use transform="matrix(0.11790123456790114,0,0,0.11790123456790114,52.583950617283904,0)" xlink:href="#O"/><use transform="matrix(0.11790123456790114,0,0,0.11790123456790114,78.40432098765424,0)" xlink:href="#P"/><use transform="matrix(0.11790123456790114,0,0,0.11790123456790114,90.19444444444436,0)" xlink:href="#Q"/><use transform="matrix(0.11790123456790114,0,0,0.11790123456790114,116.01481481481471,0)" xlink:href="#R"/></g></defs></g></svg>