<svg xmlns="http://www.w3.org/2000/svg" xmlns:xlink="http://www.w3.org/1999/xlink" width="180.9" height="252"><g transform="translate(-386.99540544428936 -179.00219998129154)"><path d="M0 0h1360v1760H0z" fill="#fff"/><path d="M530 190l-20 26.63-10.25 15.03-6.15 9.94-4.04 7.24-2.84 5.65-2.07 4.63-1.57 4-1.22 3.54-.97 3.28-.8 3.16-.62 3.2-.53 3.42-.46 4.2-1.17 18.75-.44 6.76-.15 6.14.1 5.9.38 5.83.62 5.94.92 6.17 1.27 6.56 1.68 7.07 2.2 7.8 2.9 8.76 3.8 10.06 5.08 11.88 6.92 14.44L510 420" fill="none"/><path d="M530 190l-6.28 8.37m-6.28 8.36l-7.43 9.9-4.8 7.05m-5.87 8.66l-5.73 9.26-4.04 7.24-.78 1.55m-4.42 9.47l-1.28 3.25-1.22 3.55-.97 3.28-.8 3.16-.62 3.2-.53 3.42-.03.27m-.83 10.42l-.77 12.25-.44 6.76-.06 1.87m.04 10.45l.35 5.55.62 5.94.92 6.17.6 3.1m2.27 10.2l.08.33 2.2 7.8 2.9 8.76 1.14 3.03m3.82 9.74l3.92 9.17 4.73 9.87m4.7 9.35L510 420" stroke="#9b0d28" stroke-width="2" fill="none"/><path fill="#fff" d="M398 290.06h158.9v21.6H398z"/><use xlink:href="#a" transform="matrix(1,0,0,1,397.99540544428936,290.0558404672419) translate(0 14.4)"/><use xlink:href="#b" transform="matrix(1,0,0,1,397.99540544428936,290.0558404672419) translate(81.95 14.4)"/><defs><path d="M30-248c118-7 216 8 213 122C240-48 200 0 122 0H30v-248zM63-27c89 8 146-16 146-99s-60-101-146-95v194" id="c"/><path d="M141-36C126-15 110 5 73 4 37 3 15-17 15-53c-1-64 63-63 125-63 3-35-9-54-41-54-24 1-41 7-42 31l-33-3c5-37 33-52 76-52 45 0 72 20 72 64v82c-1 20 7 32 28 27v20c-31 9-61-2-59-35zM48-53c0 20 12 33 32 33 41-3 63-29 60-74-43 2-92-5-92 41" id="d"/><path d="M59-47c-2 24 18 29 38 22v24C64 9 27 4 27-40v-127H5v-23h24l9-43h21v43h35v23H59v120" id="e"/><path d="M115-194c53 0 69 39 70 98 0 66-23 100-70 100C84 3 66-7 56-30L54 0H23l1-261h32v101c10-23 28-34 59-34zm-8 174c40 0 45-34 45-75 0-40-5-75-45-74-42 0-51 32-51 76 0 43 10 73 51 73" id="f"/><path d="M135-143c-3-34-86-38-87 0 15 53 115 12 119 90S17 21 10-45l28-5c4 36 97 45 98 0-10-56-113-15-118-90-4-57 82-63 122-42 12 7 21 19 24 35" id="g"/><path d="M100-194c63 0 86 42 84 106H49c0 40 14 67 53 68 26 1 43-12 49-29l28 8c-11 28-37 45-77 45C44 4 14-33 15-96c1-61 26-98 85-98zm52 81c6-60-76-77-97-28-3 7-6 17-6 28h103" id="h"/><g id="a"><use transform="matrix(0.05,0,0,0.05,0,0)" xlink:href="#c"/><use transform="matrix(0.05,0,0,0.05,12.950000000000001,0)" xlink:href="#d"/><use transform="matrix(0.05,0,0,0.05,22.950000000000003,0)" xlink:href="#e"/><use transform="matrix(0.05,0,0,0.05,27.950000000000003,0)" xlink:href="#d"/><use transform="matrix(0.05,0,0,0.05,37.95,0)" xlink:href="#f"/><use transform="matrix(0.05,0,0,0.05,47.95,0)" xlink:href="#d"/><use transform="matrix(0.05,0,0,0.05,57.95,0)" xlink:href="#g"/><use transform="matrix(0.05,0,0,0.05,66.95,0)" xlink:href="#h"/></g><path d="M160-131c35 5 61 23 61 61C221 17 115-2 30 0v-248c76 3 177-17 177 60 0 33-19 50-47 57zm-97-11c50-1 110 9 110-42 0-47-63-36-110-37v79zm0 115c55-2 124 14 124-45 0-56-70-42-124-44v89" id="i"/><path d="M100-194c62-1 85 37 85 99 1 63-27 99-86 99S16-35 15-95c0-66 28-99 85-99zM99-20c44 1 53-31 53-75 0-43-8-75-51-75s-53 32-53 75 10 74 51 75" id="j"/><path d="M84 4C-5 8 30-112 23-190h32v120c0 31 7 50 39 49 72-2 45-101 50-169h31l1 190h-30c-1-10 1-25-2-33-11 22-28 36-60 37" id="k"/><path d="M117-194c89-4 53 116 60 194h-32v-121c0-31-8-49-39-48C34-167 62-67 57 0H25l-1-190h30c1 10-1 24 2 32 11-22 29-35 61-36" id="l"/><path d="M85-194c31 0 48 13 60 33l-1-100h32l1 261h-30c-2-10 0-23-3-31C134-8 116 4 85 4 32 4 16-35 15-94c0-66 23-100 70-100zm9 24c-40 0-46 34-46 75 0 40 6 74 45 74 42 0 51-32 51-76 0-42-9-74-50-73" id="m"/><path d="M114-163C36-179 61-72 57 0H25l-1-190h30c1 12-1 29 2 39 6-27 23-49 58-41v29" id="n"/><path d="M179-190L93 31C79 59 56 82 12 73V49c39 6 53-20 64-50L1-190h34L92-34l54-156h33" id="o"/><g id="b"><use transform="matrix(0.05,0,0,0.05,0,0)" xlink:href="#i"/><use transform="matrix(0.05,0,0,0.05,12,0)" xlink:href="#j"/><use transform="matrix(0.05,0,0,0.05,22,0)" xlink:href="#k"/><use transform="matrix(0.05,0,0,0.05,32,0)" xlink:href="#l"/><use transform="matrix(0.05,0,0,0.05,42,0)" xlink:href="#m"/><use transform="matrix(0.05,0,0,0.05,52,0)" xlink:href="#d"/><use transform="matrix(0.05,0,0,0.05,62,0)" xlink:href="#n"/><use transform="matrix(0.05,0,0,0.05,67.95,0)" xlink:href="#o"/></g></defs></g></svg>