<svg xmlns="http://www.w3.org/2000/svg" xmlns:xlink="http://www.w3.org/1999/xlink" width="290.42" height="121.04"><g transform="translate(-460.58131028040657 -91.28987849364354)"><path d="M0 0h1360v1760H0z" fill="#fff"/><path d="M471.58 169.64l13.22-11.4 11.25-8.92 9.77-7.1 8.63-5.72 7.73-4.68 7.03-3.85 6.46-3.2 5.98-2.65 5.6-2.2 5.27-1.85 5.02-1.5 4.8-1.24 4.64-.98 4.5-.75 4.38-.55 4.3-.36 4.28-.2 4.24.02 4.26.18 4.28.36 4.36.56 2.55.4 4.67.92 4.83 1.17 5.07 1.46 5.36 1.8 5.76 2.2 6.27 2.73 7 3.4 8.04 4.35 9.64 5.77 12.5 8.23 19.74 14.3L720 181.34" stroke="#000" stroke-width="2" fill="none"/><path d="M720 181.33l-14.1-5.08 5.67-7.33z" stroke="#000" stroke-width="2"/><path fill="#fff" d="M552.75 102.3h89.3v21.6h-89.3z"/><use xlink:href="#a" transform="matrix(1,0,0,1,552.7492744071747,102.28987849364354) translate(0 14.4)"/><use xlink:href="#b" transform="matrix(1,0,0,1,552.7492744071747,102.28987849364354) translate(40.35 14.4)"/><defs><path d="M185-189c-5-48-123-54-124 2 14 75 158 14 163 119 3 78-121 87-175 55-17-10-28-26-33-46l33-7c5 56 141 63 141-1 0-78-155-14-162-118-5-82 145-84 179-34 5 7 8 16 11 25" id="c"/><path d="M140-251c81 0 123 46 123 126C263-53 228-8 163 1c7 30 30 48 69 40v23c-55 16-95-15-103-61C56-3 17-48 17-125c0-80 42-126 123-126zm0 227c63 0 89-41 89-101s-29-99-89-99c-61 0-89 39-89 99S79-25 140-24" id="d"/><path d="M30 0v-248h33v221h125V0H30" id="e"/><g id="a"><use transform="matrix(0.05,0,0,0.05,0,0)" xlink:href="#c"/><use transform="matrix(0.05,0,0,0.05,12,0)" xlink:href="#d"/><use transform="matrix(0.05,0,0,0.05,26,0)" xlink:href="#e"/></g><path d="M84 4C-5 8 30-112 23-190h32v120c0 31 7 50 39 49 72-2 45-101 50-169h31l1 190h-30c-1-10 1-25-2-33-11 22-28 36-60 37" id="f"/><path d="M100-194c63 0 86 42 84 106H49c0 40 14 67 53 68 26 1 43-12 49-29l28 8c-11 28-37 45-77 45C44 4 14-33 15-96c1-61 26-98 85-98zm52 81c6-60-76-77-97-28-3 7-6 17-6 28h103" id="g"/><path d="M114-163C36-179 61-72 57 0H25l-1-190h30c1 12-1 29 2 39 6-27 23-49 58-41v29" id="h"/><path d="M179-190L93 31C79 59 56 82 12 73V49c39 6 53-20 64-50L1-190h34L92-34l54-156h33" id="i"/><g id="b"><use transform="matrix(0.05,0,0,0.05,0,0)" xlink:href="#d"/><use transform="matrix(0.05,0,0,0.05,14,0)" xlink:href="#f"/><use transform="matrix(0.05,0,0,0.05,24,0)" xlink:href="#g"/><use transform="matrix(0.05,0,0,0.05,34,0)" xlink:href="#h"/><use transform="matrix(0.05,0,0,0.05,39.95,0)" xlink:href="#i"/></g></defs></g></svg>