<svg xmlns="http://www.w3.org/2000/svg" xmlns:xlink="http://www.w3.org/1999/xlink" xmlns:lucid="lucid" width="240" height="140"><g transform="translate(-960 -140)" lucid:page-tab-id="0yyJVbV5FG0N"><path d="M0 0h1360v1760H0z" fill="#fff"/><path d="M980 160h200v100H980z" fill="#fff"/><path d="M980 160h200m0 100H980" stroke="#494949" stroke-width="2" fill="#fff"/><use xlink:href="#a" transform="matrix(1,0,0,1,1000,160) translate(37.05 53.6)"/><use xlink:href="#b" transform="matrix(1,0,0,1,1000,160) translate(80 53.6)"/><defs><path fill="#494949" d="M30-248c118-7 216 8 213 122C240-48 200 0 122 0H30v-248zM63-27c89 8 146-16 146-99s-60-101-146-95v194" id="c"/><path fill="#494949" d="M141-36C126-15 110 5 73 4 37 3 15-17 15-53c-1-64 63-63 125-63 3-35-9-54-41-54-24 1-41 7-42 31l-33-3c5-37 33-52 76-52 45 0 72 20 72 64v82c-1 20 7 32 28 27v20c-31 9-61-2-59-35zM48-53c0 20 12 33 32 33 41-3 63-29 60-74-43 2-92-5-92 41" id="d"/><path fill="#494949" d="M59-47c-2 24 18 29 38 22v24C64 9 27 4 27-40v-127H5v-23h24l9-43h21v43h35v23H59v120" id="e"/><g id="a"><use transform="matrix(0.05,0,0,0.05,0,0)" xlink:href="#c"/><use transform="matrix(0.05,0,0,0.05,12.950000000000001,0)" xlink:href="#d"/><use transform="matrix(0.05,0,0,0.05,22.950000000000003,0)" xlink:href="#e"/><use transform="matrix(0.05,0,0,0.05,27.950000000000003,0)" xlink:href="#d"/></g><path fill="#494949" d="M185-189c-5-48-123-54-124 2 14 75 158 14 163 119 3 78-121 87-175 55-17-10-28-26-33-46l33-7c5 56 141 63 141-1 0-78-155-14-162-118-5-82 145-84 179-34 5 7 8 16 11 25" id="f"/><path fill="#494949" d="M100-194c62-1 85 37 85 99 1 63-27 99-86 99S16-35 15-95c0-66 28-99 85-99zM99-20c44 1 53-31 53-75 0-43-8-75-51-75s-53 32-53 75 10 74 51 75" id="g"/><path fill="#494949" d="M114-163C36-179 61-72 57 0H25l-1-190h30c1 12-1 29 2 39 6-27 23-49 58-41v29" id="h"/><path fill="#494949" d="M100-194c63 0 86 42 84 106H49c0 40 14 67 53 68 26 1 43-12 49-29l28 8c-11 28-37 45-77 45C44 4 14-33 15-96c1-61 26-98 85-98zm52 81c6-60-76-77-97-28-3 7-6 17-6 28h103" id="i"/><g id="b"><use transform="matrix(0.05,0,0,0.05,0,0)" xlink:href="#f"/><use transform="matrix(0.05,0,0,0.05,12,0)" xlink:href="#e"/><use transform="matrix(0.05,0,0,0.05,17,0)" xlink:href="#g"/><use transform="matrix(0.05,0,0,0.05,27,0)" xlink:href="#h"/><use transform="matrix(0.05,0,0,0.05,32.95,0)" xlink:href="#i"/></g></defs></g></svg>