<svg xmlns="http://www.w3.org/2000/svg" xmlns:xlink="http://www.w3.org/1999/xlink" width="580" height="220"><g transform="translate(-480 -120)"><path d="M0 0h1360v1760H0z" fill="#fff"/><path d="M620 200h240v60H620z" fill="none"/><use xlink:href="#a" transform="matrix(1,0,0,1,625,205) translate(101.525 28.6)"/><path d="M500 180h200v100H500z" fill="#fff"/><path d="M500 180h200m0 100H500" stroke="#000" stroke-width="2" fill="#fff"/><use xlink:href="#b" transform="matrix(1,0,0,1,520,180) translate(37.05 53.6)"/><use xlink:href="#c" transform="matrix(1,0,0,1,520,180) translate(80 53.6)"/><path d="M1040 140H800v60h240" stroke="#000" stroke-width="2" fill="#fff"/><path d="M848 140v60" stroke="#000" stroke-width="2" fill="none"/><path d="M800 140h240v60H800z" fill="none"/><use xlink:href="#d" transform="matrix(1,0,0,1,812,152) translate(12 23.4)"/><use xlink:href="#b" transform="matrix(1,0,0,1,860,152) translate(41.05 21.6)"/><use xlink:href="#c" transform="matrix(1,0,0,1,860,152) translate(84 21.6)"/><path d="M1040 260H800v60h240" stroke="#000" stroke-width="2" fill="#fff"/><path d="M800 260h240v60H800z" fill="none"/><g><use xlink:href="#b" transform="matrix(1,0,0,1,848,272) translate(29.049999999999997 21.6)"/><use xlink:href="#c" transform="matrix(1,0,0,1,848,272) translate(72 21.6)"/></g><defs><path d="M140-251c80 0 125 45 125 126S219 4 139 4C58 4 15-44 15-125s44-126 125-126zm-1 214c52 0 73-35 73-88 0-50-21-86-72-86-52 0-73 35-73 86s22 88 72 88" id="e"/><path d="M240-174c0 40-23 61-54 70L253 0h-59l-57-94H76V0H24v-248c93 4 217-23 216 74zM76-134c48-2 112 12 112-38 0-48-66-32-112-35v73" id="f"/><g id="a"><use transform="matrix(0.05,0,0,0.05,0,0)" xlink:href="#e"/><use transform="matrix(0.05,0,0,0.05,14,0)" xlink:href="#f"/></g><path d="M30-248c118-7 216 8 213 122C240-48 200 0 122 0H30v-248zM63-27c89 8 146-16 146-99s-60-101-146-95v194" id="g"/><path d="M141-36C126-15 110 5 73 4 37 3 15-17 15-53c-1-64 63-63 125-63 3-35-9-54-41-54-24 1-41 7-42 31l-33-3c5-37 33-52 76-52 45 0 72 20 72 64v82c-1 20 7 32 28 27v20c-31 9-61-2-59-35zM48-53c0 20 12 33 32 33 41-3 63-29 60-74-43 2-92-5-92 41" id="h"/><path d="M59-47c-2 24 18 29 38 22v24C64 9 27 4 27-40v-127H5v-23h24l9-43h21v43h35v23H59v120" id="i"/><g id="b"><use transform="matrix(0.05,0,0,0.05,0,0)" xlink:href="#g"/><use transform="matrix(0.05,0,0,0.05,12.950000000000001,0)" xlink:href="#h"/><use transform="matrix(0.05,0,0,0.05,22.950000000000003,0)" xlink:href="#i"/><use transform="matrix(0.05,0,0,0.05,27.950000000000003,0)" xlink:href="#h"/></g><path d="M185-189c-5-48-123-54-124 2 14 75 158 14 163 119 3 78-121 87-175 55-17-10-28-26-33-46l33-7c5 56 141 63 141-1 0-78-155-14-162-118-5-82 145-84 179-34 5 7 8 16 11 25" id="j"/><path d="M100-194c62-1 85 37 85 99 1 63-27 99-86 99S16-35 15-95c0-66 28-99 85-99zM99-20c44 1 53-31 53-75 0-43-8-75-51-75s-53 32-53 75 10 74 51 75" id="k"/><path d="M114-163C36-179 61-72 57 0H25l-1-190h30c1 12-1 29 2 39 6-27 23-49 58-41v29" id="l"/><path d="M100-194c63 0 86 42 84 106H49c0 40 14 67 53 68 26 1 43-12 49-29l28 8c-11 28-37 45-77 45C44 4 14-33 15-96c1-61 26-98 85-98zm52 81c6-60-76-77-97-28-3 7-6 17-6 28h103" id="m"/><g id="c"><use transform="matrix(0.05,0,0,0.05,0,0)" xlink:href="#j"/><use transform="matrix(0.05,0,0,0.05,12,0)" xlink:href="#i"/><use transform="matrix(0.05,0,0,0.05,17,0)" xlink:href="#k"/><use transform="matrix(0.05,0,0,0.05,27,0)" xlink:href="#l"/><use transform="matrix(0.05,0,0,0.05,32.95,0)" xlink:href="#m"/></g></defs></g></svg>