<svg xmlns="http://www.w3.org/2000/svg" xmlns:xlink="http://www.w3.org/1999/xlink" xmlns:lucid="lucid" width="1000" height="520"><g transform="translate(-300 -380)" lucid:page-tab-id="-myJSOURJ9QM"><path d="M0 0h1360v1760H0z" fill="#fff"/><path d="M780 650c0 49.7-40.3 90-90 90s-90-40.3-90-90 40.3-90 90-90 90 40.3 90 90z" stroke="#000" stroke-width="2" fill="#fff"/><use xlink:href="#a" transform="matrix(1,0,0,1,620,560) translate(57.5 82.80000000000001)"/><use xlink:href="#b" transform="matrix(1,0,0,1,620,560) translate(39.525 104.4)"/><path d="M320 400h160v120H320z" stroke="#494949" stroke-width="2" fill="#fff"/><use xlink:href="#c" transform="matrix(1,0,0,1,325,405) translate(44 58.6)"/><path d="M880 400h160v120H880z" stroke="#494949" stroke-width="2" fill="#fff"/><use xlink:href="#d" transform="matrix(1,0,0,1,885,405) translate(43.05 58.6)"/><path d="M880 760h160v120H880z" stroke="#494949" stroke-width="2" fill="#fff"/><use xlink:href="#e" transform="matrix(1,0,0,1,885,765) translate(39.05 47.8)"/><use xlink:href="#f" transform="matrix(1,0,0,1,885,765) translate(38.525 69.4)"/><path d="M320 760h160v120H320z" stroke="#494949" stroke-width="2" fill="#fff"/><use xlink:href="#g" transform="matrix(1,0,0,1,325,765) translate(22.124999999999993 58.6)"/><path d="M599.8 493.2l2.75 3.17 2.77 3.5 2.83 3.9 2.9 4.37 3 4.97 3.14 5.72 3.3 6.7 3.56 7.98 3.87 9.78 4.3 12.38.66 2.22-1.92.57-.66-2.17-4.27-12.3-3.83-9.7-3.52-7.92-3.28-6.6-3.1-5.65-2.96-4.9-2.85-4.3-2.77-3.8-2.73-3.45-2.7-3.12-1.7-1.83h2.74zm-93.2-33.73l14.45.88 10.36 1.08 8.16 1.2 6.75 1.28 5.8 1.37 5.08 1.42 4.57 1.47 4.15 1.54 3.3 1.4h-5.3l-2.8-1.04-4.5-1.46-5-1.4-5.7-1.33-6.68-1.27-8.06-1.18-10.27-1.07-14.38-.9-24.54-.43.04-2z" fill="#494949"/><path d="M482.05 459.02l-.04 2-1-.02v-2zM636.26 572.8l-8.5-12.36 8.9-2.63z" fill="#494949"/><path d="M637.18 575.9l-11-16.03 11.52-3.4zm-7.8-14.9l5.96 8.7.3-10.54z" fill="#494949"/><use xlink:href="#h" transform="matrix(1,0,0,1,534.4843139995977,471.09806876853094) translate(0 14.4)"/><path d="M486.4 615.5l5.02 3.5 5.37 3.4 5.72 3.3 6.1 3.2 6.5 3.06 6.9 2.9 7.3 2.7 7.67 2.5 8.03 2.24 8.4 1.97 8.7 1.66 8.96 1.32 9.16.97 9.33.58 8.42.18-.04 2-8.48-.18-9.4-.6-9.27-.96-9.04-1.34-8.8-1.67-8.46-2-8.13-2.26-7.74-2.5-7.37-2.75-6.98-2.93-6.57-3.1-6.2-3.24-5.8-3.35-5.44-3.44-5.07-3.53-4.76-3.6-1.14-.96h3.2zm-47.32-72l.98 4.62 1.15 4.5 1.34 4.38 1.5 4.3 1.67 4.23 1.86 4.15 2.02 4.08 2.22 4.03 2.4 3.96 2.6 3.92 2.83 3.88 1.12 1.4h-2.55l-.16-.2-2.87-3.93-2.66-4-2.43-4.04-2.26-4.1-2.05-4.17-1.88-4.23-1.7-4.3-1.53-4.38-1.35-4.47-1.2-4.58-.98-4.68-.73-4.3 1.96-.33zM599.03 649l-.03 1v1l-1.05-.02.04-2zM441.93 538.1l-9.25.7 3.56-14.57z" fill="#494949"/><path d="M443.38 539l-12 .9L436 521zm-9.4-1.3l6.5-.5-4-9.75z" fill="#494949"/><use xlink:href="#i" transform="matrix(1,0,0,1,418.01118534314077,590.9732692102253) translate(0 14.4)"/><path d="M457.84 713.5l-5.05 8.33-5.7 10.4-5.16 10.4-1.8-.9 5.18-10.44 5.74-10.47 5.1-8.4 2.43-3.7h2.4zM598.02 651l-20.76.4-14.07.86-10.55 1.1-8.5 1.25-7.17 1.37-6.23 1.45-5.55 1.55-5.02 1.63-4.63 1.72-4.32 1.82-4.08 1.9-3.88 2.05-3.75 2.16-3.63 2.3-3.58 2.48-3.52 2.68-3.52 2.9-3.54 3.2-3.37 3.3h-2.76l1.12-1.2 3.65-3.56 3.6-3.25 3.58-2.96 3.6-2.73 3.63-2.52 3.7-2.35 3.82-2.2 3.96-2.08 4.16-1.96 4.4-1.85 4.7-1.76 5.1-1.66 5.63-1.56 6.32-1.48 7.24-1.38 8.6-1.26 10.63-1.1 14.15-.88 20.8-.4z" fill="#494949"/><path d="M599 650v1l-1 .02-.05-2 1.08-.02zM444.84 745.02l-10.16 11.04 1.73-14.9z" fill="#494949"/><path d="M446.5 744.7L433.34 759l2.25-19.32zm-10.47 8.42l7.14-7.76-5.92-2.72z" fill="#494949"/><use xlink:href="#j" transform="matrix(1,0,0,1,427.1285202114481,687.1426977899923) translate(0 14.4)"/><path d="M554.2 799.82l-4.8 3.04-4.68 2.7-4.62 2.42-4.6 2.17-4.63 1.94-4.7 1.74-4.8 1.56-4.93 1.37-5.12 1.2-5.35 1.03-5.64.83-6 .63-6.4.4-5.9.12-.05-2 5.87-.12 6.32-.4 5.9-.62 5.57-.82 5.27-1 5.05-1.18 4.85-1.36 4.72-1.53 4.6-1.72 4.57-1.9 4.5-2.14 4.56-2.4 4.6-2.65 2.85-1.8h3.67zm65.26-66.1l-7.33 8.9-18.67 21.8-9.6 10.26-3.13 3.07h-2.86l4.56-4.47 9.54-10.2 18.62-21.75 7.32-8.9z" fill="#494949"/><path d="M482.05 820.98L481 821v-2l1-.02zM622.9 735.25l-7.15-5.9 12.65-8.06z" fill="#494949"/><path d="M623.33 736.9l-9.28-7.65 16.4-10.46zm-5.88-7.44l5.03 4.14 3.86-9.8z" fill="#494949"/><use xlink:href="#k" transform="matrix(1,0,0,1,509.57226116434015,777.7467958432759) translate(0 14.4)"/><path d="M756.45 502.9l-3.85 3.82-3.7 4-3.53 4.17-3.4 4.36-3.28 4.58-3.14 4.8-3 5.07-2.9 5.35-2.74 5.66-2.6 6-2.48 6.4-2 5.88-1.88-.64 2-5.93 2.5-6.46 2.64-6.07 2.8-5.73 2.9-5.42 3.06-5.13 3.18-4.9 3.32-4.64 3.45-4.43 3.6-4.24 3.76-4.07 3.9-3.9.64-.56h2.96zm104.14-41.22l-5.36.38-9.55 1.1-8.88 1.37-8.26 1.64-7.7 1.88-7.22 2.07-6.75 2.26-6.37 2.42-5.98 2.57-3.94 1.9h-4.4l1.8-.96 5.72-2.75 6.06-2.6 6.43-2.45 6.85-2.3 7.3-2.1 7.78-1.88 8.34-1.66 8.95-1.4 9.64-1.1 5.38-.37z" fill="#494949"/><path d="M719.86 562.95l-.33.96-1.9-.6.33-1zM875.77 460.12l-14.1 5.16-.33-9.26z" fill="#494949"/><path d="M879 460l-18.27 6.7-.44-12.02zm-16.37 3.87l9.9-3.63-10.14-2.88z" fill="#494949"/><use xlink:href="#i" transform="matrix(1,0,0,1,719.5930199757836,479.2668982819413) translate(0 14.4)"/><path d="M870.83 607.22l-10.65 3.7-14.14 4.25-22.06 5.6-27 5.88-.43-1.95 26.97-5.86 22-5.6 14.05-4.23 5.5-1.9h6.06zm71.48-85.2l-.06 3.34-.25 4.08-.42 3.83-.53 3.63-.66 3.44-.78 3.3-.88 3.14-.98 3.03-1.1 2.93-1.18 2.84-1.3 2.76-1.4 2.7-1.54 2.64-1.65 2.6-1.8 2.57-1.93 2.55-2.1 2.52-2.27 2.53-2.48 2.53-2.7 2.54-2.98 2.57-1.78 1.4h-3.27l.55-.4 3.22-2.56 2.9-2.5 2.66-2.5 2.4-2.46 2.23-2.47 2.05-2.45 1.9-2.48 1.73-2.5 1.6-2.53 1.5-2.58 1.36-2.62 1.25-2.68 1.16-2.76 1.07-2.85.96-2.95.86-3.07.74-3.2.64-3.36.52-3.55.4-3.75.24-4 .07-3.3z" fill="#494949"/><path d="M942.3 522.05l-2-.04.03-1h2zM796.77 630.4l-14.93-1.5 12.96-7.54z" fill="#494949"/><path d="M798.04 631.55l-19.36-1.95 16.8-9.8zM785 628.23l10.5 1.05-1.4-6.37z" fill="#494949"/><use xlink:href="#l" transform="matrix(1,0,0,1,863.4937591650632,585.4998625593162) translate(0 14.4)"/><path d="M902.5 716.24l1.7 1.9 1.57 1.88 1.45 1.9 1.34 1.94 1.25 1.96 1.16 2 1.08 2.05.98 2.1.92 2.17.83 2.25.76 2.32.68 2.44.6 2.55.52 2.7.42 2.85.32 3.02.2 3.24.05 2.48-2 .04-.04-2.42-.2-3.16-.3-2.94-.4-2.77-.5-2.6-.6-2.48-.65-2.35-.72-2.26-.8-2.16-.88-2.1-.96-2.02-1.03-1.98-1.1-1.92-1.2-1.9-1.3-1.86-1.4-1.84-1.5-1.83-1.65-1.82-1.78-1.8-1.22-1.15h2.9zm-76.4-33.94l19.6 4.97 11.1 3.34 7.03 2.45h-6.1l-1.55-.54-11.02-3.3-19.54-4.96-29.6-6.85.46-1.96z" fill="#494949"/><path d="M918.33 759h-2l-.02-1 2-.05zM794.23 680.7l-12.85-7.73 14.94-1.3z" fill="#494949"/><path d="M794.9 682.27l-16.67-10.03 19.38-1.68zm-10.37-8.57l9.04 5.44 1.47-6.35z" fill="#494949"/><use xlink:href="#m" transform="matrix(1,0,0,1,831.5191890588397,693.0502100430261) translate(0 14.4)"/><path d="M799.64 797.75l4.74 2.87 4.76 2.63 4.84 2.4 4.93 2.2 5.08 2 5.23 1.84 5.44 1.63 5.68 1.46 5.98 1.27 6.34 1.07 6.78.86 1.2.1-.18 2-1.23-.1-6.85-.88-6.42-1.1-6.07-1.28-5.76-1.48-5.5-1.67-5.32-1.86-5.14-2.04-5-2.24-4.92-2.44-4.85-2.67-4.8-2.9-4.8-3.2-.65-.48h3.55zm-54.44-56.82l7.13 10.28 6.4 8.47 5.9 7.14 5.5 6.15 1.2 1.22h-2.78l-5.45-6.06-5.94-7.2-6.45-8.5-7.17-10.37-7.73-12.2 1.7-1.08zM737.5 728.77l-1.68 1.07-.56-.9 1.7-1.02zM875.77 819.84l-14.48 3.94.44-9.26z" fill="#494949"/><path d="M879 820l-18.77 5.1.58-12zm-16.64 2.45l10.18-2.77-9.86-3.74z" fill="#494949"/><use xlink:href="#i" transform="matrix(1,0,0,1,730.2285249046887,774.1720701204174) translate(0 14.4)"/><path d="M560 520h260v240H560z" fill-opacity="0"/><path d="M603.33 520h43.34m21.66 0h43.34m21.66 0h43.34m21.66 0H820v20m0 20v40m0 20v40m0 20v40m0 20v20h-21.67m-21.66 0h-43.34m-21.66 0h-43.34m-21.66 0h-43.34m-21.66 0H560v-20m0-20v-40m0-20v-40m0-20v-40m0-20v-20h21.67" stroke="#ff8f80" stroke-width="2" fill="none"/><defs><path d="M27 0v-27h64v-190l-56 39v-29l58-41h29v221h61V0H27" id="n"/><path d="M33 0v-38h34V0H33" id="o"/><path d="M101-251c68 0 85 55 85 127S166 4 100 4C33 4 14-52 14-124c0-73 17-127 87-127zm-1 229c47 0 54-49 54-102s-4-102-53-102c-51 0-55 48-55 102 0 53 5 102 54 102" id="p"/><g id="a"><use transform="matrix(0.05,0,0,0.05,0,0)" xlink:href="#n"/><use transform="matrix(0.05,0,0,0.05,10,0)" xlink:href="#o"/><use transform="matrix(0.05,0,0,0.05,15,0)" xlink:href="#p"/></g><path d="M212-179c-10-28-35-45-73-45-59 0-87 40-87 99 0 60 29 101 89 101 43 0 62-24 78-52l27 14C228-24 195 4 139 4 59 4 22-46 18-125c-6-104 99-153 187-111 19 9 31 26 39 46" id="q"/><path d="M141-36C126-15 110 5 73 4 37 3 15-17 15-53c-1-64 63-63 125-63 3-35-9-54-41-54-24 1-41 7-42 31l-33-3c5-37 33-52 76-52 45 0 72 20 72 64v82c-1 20 7 32 28 27v20c-31 9-61-2-59-35zM48-53c0 20 12 33 32 33 41-3 63-29 60-74-43 2-92-5-92 41" id="r"/><path d="M117-194c89-4 53 116 60 194h-32v-121c0-31-8-49-39-48C34-167 62-67 57 0H25l-1-190h30c1 10-1 24 2 32 11-22 29-35 61-36" id="s"/><path d="M108 0H70L1-190h34L89-25l56-165h34" id="t"/><path d="M135-143c-3-34-86-38-87 0 15 53 115 12 119 90S17 21 10-45l28-5c4 36 97 45 98 0-10-56-113-15-118-90-4-57 82-63 122-42 12 7 21 19 24 35" id="u"/><g id="b"><use transform="matrix(0.05,0,0,0.05,0,0)" xlink:href="#q"/><use transform="matrix(0.05,0,0,0.05,12.950000000000001,0)" xlink:href="#r"/><use transform="matrix(0.05,0,0,0.05,22.950000000000003,0)" xlink:href="#s"/><use transform="matrix(0.05,0,0,0.05,32.95,0)" xlink:href="#t"/><use transform="matrix(0.05,0,0,0.05,41.95,0)" xlink:href="#r"/><use transform="matrix(0.05,0,0,0.05,51.95,0)" xlink:href="#u"/></g><path fill="#494949" d="M185-189c-5-48-123-54-124 2 14 75 158 14 163 119 3 78-121 87-175 55-17-10-28-26-33-46l33-7c5 56 141 63 141-1 0-78-155-14-162-118-5-82 145-84 179-34 5 7 8 16 11 25" id="v"/><path fill="#494949" d="M59-47c-2 24 18 29 38 22v24C64 9 27 4 27-40v-127H5v-23h24l9-43h21v43h35v23H59v120" id="w"/><path fill="#494949" d="M84 4C-5 8 30-112 23-190h32v120c0 31 7 50 39 49 72-2 45-101 50-169h31l1 190h-30c-1-10 1-25-2-33-11 22-28 36-60 37" id="x"/><path fill="#494949" d="M85-194c31 0 48 13 60 33l-1-100h32l1 261h-30c-2-10 0-23-3-31C134-8 116 4 85 4 32 4 16-35 15-94c0-66 23-100 70-100zm9 24c-40 0-46 34-46 75 0 40 6 74 45 74 42 0 51-32 51-76 0-42-9-74-50-73" id="y"/><path fill="#494949" d="M100-194c63 0 86 42 84 106H49c0 40 14 67 53 68 26 1 43-12 49-29l28 8c-11 28-37 45-77 45C44 4 14-33 15-96c1-61 26-98 85-98zm52 81c6-60-76-77-97-28-3 7-6 17-6 28h103" id="z"/><path fill="#494949" d="M117-194c89-4 53 116 60 194h-32v-121c0-31-8-49-39-48C34-167 62-67 57 0H25l-1-190h30c1 10-1 24 2 32 11-22 29-35 61-36" id="A"/><g id="c"><use transform="matrix(0.05,0,0,0.05,0,0)" xlink:href="#v"/><use transform="matrix(0.05,0,0,0.05,12,0)" xlink:href="#w"/><use transform="matrix(0.05,0,0,0.05,17,0)" xlink:href="#x"/><use transform="matrix(0.05,0,0,0.05,27,0)" xlink:href="#y"/><use transform="matrix(0.05,0,0,0.05,37,0)" xlink:href="#z"/><use transform="matrix(0.05,0,0,0.05,47,0)" xlink:href="#A"/><use transform="matrix(0.05,0,0,0.05,57,0)" xlink:href="#w"/></g><path fill="#494949" d="M127-220V0H93v-220H8v-28h204v28h-85" id="B"/><path fill="#494949" d="M141-36C126-15 110 5 73 4 37 3 15-17 15-53c-1-64 63-63 125-63 3-35-9-54-41-54-24 1-41 7-42 31l-33-3c5-37 33-52 76-52 45 0 72 20 72 64v82c-1 20 7 32 28 27v20c-31 9-61-2-59-35zM48-53c0 20 12 33 32 33 41-3 63-29 60-74-43 2-92-5-92 41" id="C"/><path fill="#494949" d="M96-169c-40 0-48 33-48 73s9 75 48 75c24 0 41-14 43-38l32 2c-6 37-31 61-74 61-59 0-76-41-82-99-10-93 101-131 147-64 4 7 5 14 7 22l-32 3c-4-21-16-35-41-35" id="D"/><path fill="#494949" d="M106-169C34-169 62-67 57 0H25v-261h32l-1 103c12-21 28-36 61-36 89 0 53 116 60 194h-32v-121c2-32-8-49-39-48" id="E"/><path fill="#494949" d="M114-163C36-179 61-72 57 0H25l-1-190h30c1 12-1 29 2 39 6-27 23-49 58-41v29" id="F"/><g id="d"><use transform="matrix(0.05,0,0,0.05,0,0)" xlink:href="#B"/><use transform="matrix(0.05,0,0,0.05,8.950000000000001,0)" xlink:href="#z"/><use transform="matrix(0.05,0,0,0.05,18.950000000000003,0)" xlink:href="#C"/><use transform="matrix(0.05,0,0,0.05,28.950000000000003,0)" xlink:href="#D"/><use transform="matrix(0.05,0,0,0.05,37.95,0)" xlink:href="#E"/><use transform="matrix(0.05,0,0,0.05,47.95,0)" xlink:href="#z"/><use transform="matrix(0.05,0,0,0.05,57.95,0)" xlink:href="#F"/></g><path fill="#494949" d="M24-231v-30h32v30H24zM24 0v-190h32V0H24" id="G"/><path fill="#494949" d="M177-190C167-65 218 103 67 71c-23-6-38-20-44-43l32-5c15 47 100 32 89-28v-30C133-14 115 1 83 1 29 1 15-40 15-95c0-56 16-97 71-98 29-1 48 16 59 35 1-10 0-23 2-32h30zM94-22c36 0 50-32 50-73 0-42-14-75-50-75-39 0-46 34-46 75s6 73 46 73" id="H"/><g id="e"><use transform="matrix(0.05,0,0,0.05,0,0)" xlink:href="#B"/><use transform="matrix(0.05,0,0,0.05,8.950000000000001,0)" xlink:href="#z"/><use transform="matrix(0.05,0,0,0.05,18.950000000000003,0)" xlink:href="#C"/><use transform="matrix(0.05,0,0,0.05,28.950000000000003,0)" xlink:href="#D"/><use transform="matrix(0.05,0,0,0.05,37.95,0)" xlink:href="#E"/><use transform="matrix(0.05,0,0,0.05,47.95,0)" xlink:href="#G"/><use transform="matrix(0.05,0,0,0.05,51.900000000000006,0)" xlink:href="#A"/><use transform="matrix(0.05,0,0,0.05,61.900000000000006,0)" xlink:href="#H"/></g><path fill="#494949" d="M205 0l-28-72H64L36 0H1l101-248h38L239 0h-34zm-38-99l-47-123c-12 45-31 82-46 123h93" id="I"/><path fill="#494949" d="M135-143c-3-34-86-38-87 0 15 53 115 12 119 90S17 21 10-45l28-5c4 36 97 45 98 0-10-56-113-15-118-90-4-57 82-63 122-42 12 7 21 19 24 35" id="J"/><g id="f"><use transform="matrix(0.05,0,0,0.05,0,0)" xlink:href="#I"/><use transform="matrix(0.05,0,0,0.05,12,0)" xlink:href="#J"/><use transform="matrix(0.05,0,0,0.05,21,0)" xlink:href="#J"/><use transform="matrix(0.05,0,0,0.05,30,0)" xlink:href="#G"/><use transform="matrix(0.05,0,0,0.05,33.95,0)" xlink:href="#J"/><use transform="matrix(0.05,0,0,0.05,42.95,0)" xlink:href="#w"/><use transform="matrix(0.05,0,0,0.05,47.95,0)" xlink:href="#C"/><use transform="matrix(0.05,0,0,0.05,57.95,0)" xlink:href="#A"/><use transform="matrix(0.05,0,0,0.05,67.95,0)" xlink:href="#w"/></g><path fill="#494949" d="M210-169c-67 3-38 105-44 169h-31v-121c0-29-5-50-35-48C34-165 62-65 56 0H25l-1-190h30c1 10-1 24 2 32 10-44 99-50 107 0 11-21 27-35 58-36 85-2 47 119 55 194h-31v-121c0-29-5-49-35-48" id="K"/><path fill="#494949" d="M100-194c62-1 85 37 85 99 1 63-27 99-86 99S16-35 15-95c0-66 28-99 85-99zM99-20c44 1 53-31 53-75 0-43-8-75-51-75s-53 32-53 75 10 74 51 75" id="L"/><g id="g"><use transform="matrix(0.05,0,0,0.05,0,0)" xlink:href="#I"/><use transform="matrix(0.05,0,0,0.05,12,0)" xlink:href="#y"/><use transform="matrix(0.05,0,0,0.05,22,0)" xlink:href="#K"/><use transform="matrix(0.05,0,0,0.05,36.95,0)" xlink:href="#G"/><use transform="matrix(0.05,0,0,0.05,40.900000000000006,0)" xlink:href="#A"/><use transform="matrix(0.05,0,0,0.05,50.900000000000006,0)" xlink:href="#G"/><use transform="matrix(0.05,0,0,0.05,54.85,0)" xlink:href="#J"/><use transform="matrix(0.05,0,0,0.05,63.85,0)" xlink:href="#w"/><use transform="matrix(0.05,0,0,0.05,68.85000000000001,0)" xlink:href="#F"/><use transform="matrix(0.05,0,0,0.05,74.80000000000001,0)" xlink:href="#C"/><use transform="matrix(0.05,0,0,0.05,84.80000000000001,0)" xlink:href="#w"/><use transform="matrix(0.05,0,0,0.05,89.80000000000001,0)" xlink:href="#L"/><use transform="matrix(0.05,0,0,0.05,99.80000000000001,0)" xlink:href="#F"/></g><g id="h"><use transform="matrix(0.05,0,0,0.05,0,0)" xlink:href="#I"/><use transform="matrix(0.05,0,0,0.05,12,0)" xlink:href="#J"/><use transform="matrix(0.05,0,0,0.05,21,0)" xlink:href="#J"/><use transform="matrix(0.05,0,0,0.05,30,0)" xlink:href="#G"/><use transform="matrix(0.05,0,0,0.05,33.95,0)" xlink:href="#H"/><use transform="matrix(0.05,0,0,0.05,43.95,0)" xlink:href="#A"/><use transform="matrix(0.05,0,0,0.05,53.95,0)" xlink:href="#K"/><use transform="matrix(0.05,0,0,0.05,68.9,0)" xlink:href="#z"/><use transform="matrix(0.05,0,0,0.05,78.9,0)" xlink:href="#A"/><use transform="matrix(0.05,0,0,0.05,88.9,0)" xlink:href="#w"/><use transform="matrix(0.05,0,0,0.05,93.9,0)" xlink:href="#J"/></g><path fill="#494949" d="M212-179c-10-28-35-45-73-45-59 0-87 40-87 99 0 60 29 101 89 101 43 0 62-24 78-52l27 14C228-24 195 4 139 4 59 4 22-46 18-125c-6-104 99-153 187-111 19 9 31 26 39 46" id="M"/><path fill="#494949" d="M101-234c-31-9-42 10-38 44h38v23H63V0H32v-167H5v-23h27c-7-52 17-82 69-68v24" id="N"/><g id="i"><use transform="matrix(0.05,0,0,0.05,0,0)" xlink:href="#M"/><use transform="matrix(0.05,0,0,0.05,12.950000000000001,0)" xlink:href="#L"/><use transform="matrix(0.05,0,0,0.05,22.950000000000003,0)" xlink:href="#A"/><use transform="matrix(0.05,0,0,0.05,32.95,0)" xlink:href="#N"/><use transform="matrix(0.05,0,0,0.05,37.95,0)" xlink:href="#G"/><use transform="matrix(0.05,0,0,0.05,41.900000000000006,0)" xlink:href="#F"/><use transform="matrix(0.05,0,0,0.05,47.85000000000001,0)" xlink:href="#K"/><use transform="matrix(0.05,0,0,0.05,62.80000000000001,0)" xlink:href="#C"/><use transform="matrix(0.05,0,0,0.05,72.80000000000001,0)" xlink:href="#w"/><use transform="matrix(0.05,0,0,0.05,77.80000000000001,0)" xlink:href="#G"/><use transform="matrix(0.05,0,0,0.05,81.75000000000001,0)" xlink:href="#L"/><use transform="matrix(0.05,0,0,0.05,91.75000000000001,0)" xlink:href="#A"/></g><path fill="#494949" d="M233-177c-1 41-23 64-60 70L243 0h-38l-65-103H63V0H30v-248c88 3 205-21 203 71zM63-129c60-2 137 13 137-47 0-61-80-42-137-45v92" id="O"/><path fill="#494949" d="M115-194c55 1 70 41 70 98S169 2 115 4C84 4 66-9 55-30l1 105H24l-1-265h31l2 30c10-21 28-34 59-34zm-8 174c40 0 45-34 45-75s-6-73-45-74c-42 0-51 32-51 76 0 43 10 73 51 73" id="P"/><g id="j"><use transform="matrix(0.05,0,0,0.05,0,0)" xlink:href="#O"/><use transform="matrix(0.05,0,0,0.05,12.950000000000001,0)" xlink:href="#z"/><use transform="matrix(0.05,0,0,0.05,22.950000000000003,0)" xlink:href="#J"/><use transform="matrix(0.05,0,0,0.05,31.950000000000003,0)" xlink:href="#P"/><use transform="matrix(0.05,0,0,0.05,41.95,0)" xlink:href="#L"/><use transform="matrix(0.05,0,0,0.05,51.95,0)" xlink:href="#A"/><use transform="matrix(0.05,0,0,0.05,61.95,0)" xlink:href="#J"/><use transform="matrix(0.05,0,0,0.05,70.95,0)" xlink:href="#z"/></g><g id="k"><use transform="matrix(0.05,0,0,0.05,0,0)" xlink:href="#M"/><use transform="matrix(0.05,0,0,0.05,12.950000000000001,0)" xlink:href="#L"/><use transform="matrix(0.05,0,0,0.05,22.950000000000003,0)" xlink:href="#A"/><use transform="matrix(0.05,0,0,0.05,32.95,0)" xlink:href="#N"/><use transform="matrix(0.05,0,0,0.05,37.95,0)" xlink:href="#G"/><use transform="matrix(0.05,0,0,0.05,41.900000000000006,0)" xlink:href="#H"/><use transform="matrix(0.05,0,0,0.05,51.900000000000006,0)" xlink:href="#x"/><use transform="matrix(0.05,0,0,0.05,61.900000000000006,0)" xlink:href="#F"/><use transform="matrix(0.05,0,0,0.05,67.85000000000001,0)" xlink:href="#C"/><use transform="matrix(0.05,0,0,0.05,77.85000000000001,0)" xlink:href="#w"/><use transform="matrix(0.05,0,0,0.05,82.85000000000001,0)" xlink:href="#G"/><use transform="matrix(0.05,0,0,0.05,86.80000000000001,0)" xlink:href="#L"/><use transform="matrix(0.05,0,0,0.05,96.80000000000001,0)" xlink:href="#A"/><use transform="matrix(0.05,0,0,0.05,106.80000000000001,0)" xlink:href="#J"/></g><path fill="#494949" d="M143 4C61 4 22-44 18-125c-5-107 100-154 193-111 17 8 29 25 37 43l-32 9c-13-25-37-40-76-40-61 0-88 39-88 99 0 61 29 100 91 101 35 0 62-11 79-27v-45h-74v-28h105v86C228-13 192 4 143 4" id="Q"/><g id="l"><use transform="matrix(0.05,0,0,0.05,0,0)" xlink:href="#Q"/><use transform="matrix(0.05,0,0,0.05,14,0)" xlink:href="#F"/><use transform="matrix(0.05,0,0,0.05,19.95,0)" xlink:href="#C"/><use transform="matrix(0.05,0,0,0.05,29.950000000000003,0)" xlink:href="#y"/><use transform="matrix(0.05,0,0,0.05,39.95,0)" xlink:href="#z"/><use transform="matrix(0.05,0,0,0.05,49.95,0)" xlink:href="#J"/></g><g id="m"><use transform="matrix(0.05,0,0,0.05,0,0)" xlink:href="#I"/><use transform="matrix(0.05,0,0,0.05,12,0)" xlink:href="#J"/><use transform="matrix(0.05,0,0,0.05,21,0)" xlink:href="#J"/><use transform="matrix(0.05,0,0,0.05,30,0)" xlink:href="#z"/><use transform="matrix(0.05,0,0,0.05,40,0)" xlink:href="#J"/><use transform="matrix(0.05,0,0,0.05,49,0)" xlink:href="#J"/><use transform="matrix(0.05,0,0,0.05,58,0)" xlink:href="#K"/><use transform="matrix(0.05,0,0,0.05,72.95,0)" xlink:href="#z"/><use transform="matrix(0.05,0,0,0.05,82.95,0)" xlink:href="#A"/><use transform="matrix(0.05,0,0,0.05,92.95,0)" xlink:href="#w"/><use transform="matrix(0.05,0,0,0.05,97.95,0)" xlink:href="#J"/></g></defs></g></svg>