<svg xmlns="http://www.w3.org/2000/svg" xmlns:xlink="http://www.w3.org/1999/xlink" xmlns:lucid="lucid" width="1000" height="542"><g transform="translate(-220 -209)" lucid:page-tab-id="y3OJzS_9pOpF"><path d="M0 0h1360v1760H0z" fill="#fff"/><path d="M800 470c0 49.7-40.3 90-90 90s-90-40.3-90-90 40.3-90 90-90 90 40.3 90 90z" stroke="#000" stroke-width="2" fill="#fff"/><use xlink:href="#a" transform="matrix(1,0,0,1,640,380) translate(57.5 72)"/><use xlink:href="#b" transform="matrix(1,0,0,1,640,380) translate(39.525 93.60000000000001)"/><use xlink:href="#c" transform="matrix(1,0,0,1,640,380) translate(33.2 115.20000000000002)"/><use xlink:href="#d" transform="matrix(1,0,0,1,640,380) translate(74.8 115.20000000000002)"/><path d="M240 400h160v120H240z" stroke="#494949" stroke-width="2" fill="#fff"/><use xlink:href="#e" transform="matrix(1,0,0,1,245,405) translate(44 58.6)"/><path d="M449.02 338.45l-5.16 2.42-5.18 2.7-5.2 3-5.22 3.3-5.27 3.65-5.33 4.03-5.38 4.44-5.45 4.87-5.5 5.37-5.56 5.9-5.63 6.5-5.66 7.12-5.1 7.02-1.62-1.18 5.14-7.05 5.7-7.2 5.68-6.54 5.62-5.96 5.56-5.43 5.5-4.93 5.44-4.5 5.4-4.07 5.33-3.7 5.3-3.35 5.27-3.03 5.25-2.74 3.6-1.68h4.97zm118.23.04l9.13 3.85 9.76 4.62 10.5 5.5 11.32 6.57 12.3 7.84 13.45 9.4 9.6 7.3-1.2 1.6-9.57-7.3-13.38-9.33-12.23-7.8-11.26-6.52-10.4-5.47-9.7-4.58-9.05-3.83-7.88-2.95h5.7z" fill="#494949"/><path d="M379.4 398.76l-.16.24h-2.48l1.04-1.42zM654.65 393.9l-14.05-5.27 5.77-7.25z" fill="#494949"/><path d="M657.18 395.9l-18.22-6.8 7.5-9.42zm-14.94-7.72l9.88 3.7-5.82-8.8z" fill="#494949"/><use xlink:href="#f" transform="matrix(1,0,0,1,435.52423953359005,315.80237011076497) translate(0 14.4)"/><use xlink:href="#g" transform="matrix(1,0,0,1,435.52423953359005,315.80237011076497) translate(46.85 14.4)"/><use xlink:href="#h" transform="matrix(1,0,0,1,435.52423953359005,315.80237011076497) translate(118.80000000000001 14.4)"/><path d="M372.18 537.03l9.35 9.05 9.23 8.22 9.1 7.45 8.97 6.73 8.82 6.06 8.67 5.43 8.52 4.86 8.36 4.3 8.2 3.8 8.06 3.34 7.8 2.86h-5.82l-2.7-1-8.14-3.36-8.28-3.84-8.43-4.35-8.6-4.9-8.75-5.47-8.9-6.1-9.02-6.77-9.17-7.5-9.3-8.28-9.4-9.1-2.97-3.14 1.44-1.36zm282.46 6.45l-4.53 5.8-5.23 6.14-5.32 5.73-5.38 5.33-5.45 4.97-5.5 4.6-5.6 4.3-5.62 3.96-5.7 3.67-5.75 3.37-5.83 3.1-5.9 2.8-4.4 1.9h-5.46l3.16-1.2 5.9-2.52 5.8-2.78 5.75-3.05 5.7-3.34 5.6-3.6 5.58-3.93 5.5-4.23 5.45-4.56 5.4-4.9 5.3-5.28 5.27-5.67 5.2-6.1 4.5-5.75z" fill="#494949"/><path d="M653.77 541.56l1.5 1.1-.64.84-1.58-1.23.63-.8zM371.25 530.75l-6.82 6.28-6.24-13.65z" fill="#494949"/><path d="M372.94 530.56l-8.85 8.13L356 521zm-8.18 4.8l4.8-4.4-9.18-5.2z" fill="#494949"/><use xlink:href="#f" transform="matrix(1,0,0,1,436.71767306420304,599.1284234631178) translate(0 14.4)"/><use xlink:href="#i" transform="matrix(1,0,0,1,436.71767306420304,599.1284234631178) translate(46.85 14.4)"/><use xlink:href="#h" transform="matrix(1,0,0,1,436.71767306420304,599.1284234631178) translate(132.8 14.4)"/><path d="M1000 420h200v100h-200z" fill="#fff"/><path d="M1000 420h200m0 100h-200" stroke="#494949" stroke-width="2" fill="#fff"/><use xlink:href="#j" transform="matrix(1,0,0,1,1020,420) translate(13.049999999999997 42.8)"/><use xlink:href="#k" transform="matrix(1,0,0,1,1020,420) translate(80.05 42.8)"/><use xlink:href="#l" transform="matrix(1,0,0,1,1020,420) translate(67.525 64.4)"/><path d="M975.17 340.1l6.66 2.3 6.6 2.6 6.6 2.9 6.55 3.2 6.53 3.57 6.53 3.9 6.5 4.3 6.5 4.68 6.52 5.12 6.5 5.58 6.54 6.08 6.54 6.64 6.56 7.23 4.56 5.47-1.53 1.28-4.54-5.44-6.5-7.16-6.5-6.57-6.47-6.03-6.45-5.52-6.44-5.07-6.44-4.64-6.44-4.23-6.44-3.87-6.46-3.5-6.48-3.2-6.5-2.86-6.54-2.56-6.58-2.27-1.28-.36v-2.1zm-91.2-1.33l-1.45.32-7.7 2-7.76 2.38-7.85 2.77-7.9 3.16-7.95 3.6-7.97 4-8 4.43-7.96 4.87-7.93 5.3-7.87 5.77-7.77 6.2-7.63 6.65-7.48 7.08-6.6 6.8-1.43-1.4 6.63-6.82 7.53-7.14 7.7-6.7 7.83-6.25 7.94-5.83 8-5.36 8.04-4.9 8.06-4.48 8.06-4.04 8.02-3.6 8-3.2 7.9-2.8 7.86-2.4 7.78-2.04 1.92-.42z" fill="#494949"/><path d="M774.17 404.08l-.7.72-1.47-1.36.74-.75zM1073.37 416.43l-12.35-8.5 7.36-5.65z" fill="#494949"/><path d="M1075.33 419l-16-11.04 9.54-7.3zm-12.6-11.13l8.67 6-3.5-9.96z" fill="#494949"/><use xlink:href="#m" transform="matrix(1,0,0,1,883.9834707199984,322.42806371261577) translate(0 14.4)"/><use xlink:href="#n" transform="matrix(1,0,0,1,883.9834707199984,322.42806371261577) translate(40.35 14.4)"/><path d="M784.12 551.35l6.27 5.8 6.58 5.6 6.92 5.4 7.23 5.15 7.5 4.9 7.77 4.63 7.98 4.3 8.18 4 8.33 3.62 8.43 3.27 8.5 2.88 8.53 2.5 8.52 2.12 2.93.6v2.04l-3.36-.68-8.6-2.14-8.6-2.53-8.6-2.9-8.5-3.3-8.42-3.67-8.25-4-8.06-4.36-7.83-4.67-7.57-4.95-7.3-5.2-6.98-5.46-6.66-5.67-6.33-5.84-.47-.5 1.4-1.4zm290.3-29l-3.12 6.1-3.74 6.6-3.87 6.2-4 5.87-4.14 5.53-4.26 5.22-4.37 4.94-4.5 4.68-4.64 4.42-4.78 4.2-4.9 3.94-5.06 3.73-5.2 3.5-5.35 3.3-5.5 3.1-5.7 2.87-5.85 2.66-6.04 2.45-6.23 2.22-6.43 2-6.03 1.6v-2.07l5.5-1.45 6.34-1.97 6.15-2.2 5.96-2.4 5.78-2.64 5.6-2.84 5.46-3.05 5.28-3.25 5.13-3.47 5-3.68 4.83-3.9 4.7-4.12 4.58-4.37 4.46-4.6 4.32-4.88 4.2-5.16 4.08-5.46 3.95-5.8 3.84-6.13 3.7-6.52 3.1-6.06z" fill="#494949"/><path d="M1074.42 522.37l-1.78-.9.24-.47h2.24zM785.66 547.7l-6.75 6.35-6.4-13.56z" fill="#494949"/><path d="M787.35 547.5l-8.76 8.22-8.3-17.6zm-8.12 4.88l4.74-4.46-9.24-5.08z" fill="#494949"/><g><use xlink:href="#o" transform="matrix(1,0,0,1,887.8061816333833,600.6519427407854) translate(0 14.4)"/><use xlink:href="#p" transform="matrix(1,0,0,1,887.8061816333833,600.6519427407854) translate(55.900000000000006 14.4)"/></g><path d="M501 739h-2v-19.2h2zm0-38.37h-2v-38.37h2zm0-57.56h-2v-22.34h2zm0-57.55h-2v-38.37h2zm0-57.56h-2V490.8h2zm0-58.76h-2v-37.16h2zm0-56.35h-2v-38.37h2zm0-57.55h-2v-17.9h2zm0-57.56h-2v-38.37h2zm0-57.55h-2V221h2z" fill="#ff8f80"/><path d="M501 740h-2v-1.03h2zM501 221.03h-2V220h2z" fill="#ff8f80"/><g><use xlink:href="#q" transform="matrix(1,0,0,1,428.55,469.2) translate(0 14.4)"/><use xlink:href="#r" transform="matrix(1,0,0,1,428.55,469.2) translate(65.95 14.4)"/></g><defs><path d="M27 0v-27h64v-190l-56 39v-29l58-41h29v221h61V0H27" id="s"/><path d="M33 0v-38h34V0H33" id="t"/><path d="M101-251c68 0 85 55 85 127S166 4 100 4C33 4 14-52 14-124c0-73 17-127 87-127zm-1 229c47 0 54-49 54-102s-4-102-53-102c-51 0-55 48-55 102 0 53 5 102 54 102" id="u"/><g id="a"><use transform="matrix(0.05,0,0,0.05,0,0)" xlink:href="#s"/><use transform="matrix(0.05,0,0,0.05,10,0)" xlink:href="#t"/><use transform="matrix(0.05,0,0,0.05,15,0)" xlink:href="#u"/></g><path d="M212-179c-10-28-35-45-73-45-59 0-87 40-87 99 0 60 29 101 89 101 43 0 62-24 78-52l27 14C228-24 195 4 139 4 59 4 22-46 18-125c-6-104 99-153 187-111 19 9 31 26 39 46" id="v"/><path d="M141-36C126-15 110 5 73 4 37 3 15-17 15-53c-1-64 63-63 125-63 3-35-9-54-41-54-24 1-41 7-42 31l-33-3c5-37 33-52 76-52 45 0 72 20 72 64v82c-1 20 7 32 28 27v20c-31 9-61-2-59-35zM48-53c0 20 12 33 32 33 41-3 63-29 60-74-43 2-92-5-92 41" id="w"/><path d="M117-194c89-4 53 116 60 194h-32v-121c0-31-8-49-39-48C34-167 62-67 57 0H25l-1-190h30c1 10-1 24 2 32 11-22 29-35 61-36" id="x"/><path d="M108 0H70L1-190h34L89-25l56-165h34" id="y"/><path d="M135-143c-3-34-86-38-87 0 15 53 115 12 119 90S17 21 10-45l28-5c4 36 97 45 98 0-10-56-113-15-118-90-4-57 82-63 122-42 12 7 21 19 24 35" id="z"/><g id="b"><use transform="matrix(0.05,0,0,0.05,0,0)" xlink:href="#v"/><use transform="matrix(0.05,0,0,0.05,12.950000000000001,0)" xlink:href="#w"/><use transform="matrix(0.05,0,0,0.05,22.950000000000003,0)" xlink:href="#x"/><use transform="matrix(0.05,0,0,0.05,32.95,0)" xlink:href="#y"/><use transform="matrix(0.05,0,0,0.05,41.95,0)" xlink:href="#w"/><use transform="matrix(0.05,0,0,0.05,51.95,0)" xlink:href="#z"/></g><path d="M266 0h-40l-56-210L115 0H75L2-248h35L96-30l15-64 43-154h32l59 218 59-218h35" id="A"/><path d="M100-194c63 0 86 42 84 106H49c0 40 14 67 53 68 26 1 43-12 49-29l28 8c-11 28-37 45-77 45C44 4 14-33 15-96c1-61 26-98 85-98zm52 81c6-60-76-77-97-28-3 7-6 17-6 28h103" id="B"/><path d="M115-194c53 0 69 39 70 98 0 66-23 100-70 100C84 3 66-7 56-30L54 0H23l1-261h32v101c10-23 28-34 59-34zm-8 174c40 0 45-34 45-75 0-40-5-75-45-74-42 0-51 32-51 76 0 43 10 73 51 73" id="C"/><g id="c"><use transform="matrix(0.05,0,0,0.05,0,0)" xlink:href="#A"/><use transform="matrix(0.05,0,0,0.05,16.599999999999998,0)" xlink:href="#B"/><use transform="matrix(0.05,0,0,0.05,26.599999999999994,0)" xlink:href="#C"/></g><path d="M205 0l-28-72H64L36 0H1l101-248h38L239 0h-34zm-38-99l-47-123c-12 45-31 82-46 123h93" id="D"/><path d="M115-194c55 1 70 41 70 98S169 2 115 4C84 4 66-9 55-30l1 105H24l-1-265h31l2 30c10-21 28-34 59-34zm-8 174c40 0 45-34 45-75s-6-73-45-74c-42 0-51 32-51 76 0 43 10 73 51 73" id="E"/><g id="d"><use transform="matrix(0.05,0,0,0.05,0,0)" xlink:href="#D"/><use transform="matrix(0.05,0,0,0.05,12,0)" xlink:href="#E"/><use transform="matrix(0.05,0,0,0.05,22,0)" xlink:href="#E"/></g><path fill="#494949" d="M185-189c-5-48-123-54-124 2 14 75 158 14 163 119 3 78-121 87-175 55-17-10-28-26-33-46l33-7c5 56 141 63 141-1 0-78-155-14-162-118-5-82 145-84 179-34 5 7 8 16 11 25" id="F"/><path fill="#494949" d="M59-47c-2 24 18 29 38 22v24C64 9 27 4 27-40v-127H5v-23h24l9-43h21v43h35v23H59v120" id="G"/><path fill="#494949" d="M84 4C-5 8 30-112 23-190h32v120c0 31 7 50 39 49 72-2 45-101 50-169h31l1 190h-30c-1-10 1-25-2-33-11 22-28 36-60 37" id="H"/><path fill="#494949" d="M85-194c31 0 48 13 60 33l-1-100h32l1 261h-30c-2-10 0-23-3-31C134-8 116 4 85 4 32 4 16-35 15-94c0-66 23-100 70-100zm9 24c-40 0-46 34-46 75 0 40 6 74 45 74 42 0 51-32 51-76 0-42-9-74-50-73" id="I"/><path fill="#494949" d="M100-194c63 0 86 42 84 106H49c0 40 14 67 53 68 26 1 43-12 49-29l28 8c-11 28-37 45-77 45C44 4 14-33 15-96c1-61 26-98 85-98zm52 81c6-60-76-77-97-28-3 7-6 17-6 28h103" id="J"/><path fill="#494949" d="M117-194c89-4 53 116 60 194h-32v-121c0-31-8-49-39-48C34-167 62-67 57 0H25l-1-190h30c1 10-1 24 2 32 11-22 29-35 61-36" id="K"/><g id="e"><use transform="matrix(0.05,0,0,0.05,0,0)" xlink:href="#F"/><use transform="matrix(0.05,0,0,0.05,12,0)" xlink:href="#G"/><use transform="matrix(0.05,0,0,0.05,17,0)" xlink:href="#H"/><use transform="matrix(0.05,0,0,0.05,27,0)" xlink:href="#I"/><use transform="matrix(0.05,0,0,0.05,37,0)" xlink:href="#J"/><use transform="matrix(0.05,0,0,0.05,47,0)" xlink:href="#K"/><use transform="matrix(0.05,0,0,0.05,57,0)" xlink:href="#G"/></g><path fill="#494949" d="M63-220v92h138v28H63V0H30v-248h175v28H63" id="L"/><path fill="#494949" d="M100-194c62-1 85 37 85 99 1 63-27 99-86 99S16-35 15-95c0-66 28-99 85-99zM99-20c44 1 53-31 53-75 0-43-8-75-51-75s-53 32-53 75 10 74 51 75" id="M"/><path fill="#494949" d="M114-163C36-179 61-72 57 0H25l-1-190h30c1 12-1 29 2 39 6-27 23-49 58-41v29" id="N"/><path fill="#494949" d="M210-169c-67 3-38 105-44 169h-31v-121c0-29-5-50-35-48C34-165 62-65 56 0H25l-1-190h30c1 10-1 24 2 32 10-44 99-50 107 0 11-21 27-35 58-36 85-2 47 119 55 194h-31v-121c0-29-5-49-35-48" id="O"/><g id="f"><use transform="matrix(0.05,0,0,0.05,0,0)" xlink:href="#L"/><use transform="matrix(0.05,0,0,0.05,10.950000000000001,0)" xlink:href="#M"/><use transform="matrix(0.05,0,0,0.05,20.950000000000003,0)" xlink:href="#N"/><use transform="matrix(0.05,0,0,0.05,26.900000000000002,0)" xlink:href="#O"/></g><path fill="#494949" d="M233-177c-1 41-23 64-60 70L243 0h-38l-65-103H63V0H30v-248c88 3 205-21 203 71zM63-129c60-2 137 13 137-47 0-61-80-42-137-45v92" id="P"/><path fill="#494949" d="M145-31C134-9 116 4 85 4 32 4 16-35 15-94c0-59 17-99 70-100 32-1 48 14 60 33 0-11-1-24 2-32h30l-1 268h-32zM93-21c41 0 51-33 51-76s-8-73-50-73c-40 0-46 35-46 75s5 74 45 74" id="Q"/><path fill="#494949" d="M135-143c-3-34-86-38-87 0 15 53 115 12 119 90S17 21 10-45l28-5c4 36 97 45 98 0-10-56-113-15-118-90-4-57 82-63 122-42 12 7 21 19 24 35" id="R"/><g id="g"><use transform="matrix(0.05,0,0,0.05,0,0)" xlink:href="#P"/><use transform="matrix(0.05,0,0,0.05,12.950000000000001,0)" xlink:href="#J"/><use transform="matrix(0.05,0,0,0.05,22.950000000000003,0)" xlink:href="#Q"/><use transform="matrix(0.05,0,0,0.05,32.95,0)" xlink:href="#H"/><use transform="matrix(0.05,0,0,0.05,42.95,0)" xlink:href="#J"/><use transform="matrix(0.05,0,0,0.05,52.95,0)" xlink:href="#R"/><use transform="matrix(0.05,0,0,0.05,61.95,0)" xlink:href="#G"/></g><path fill="#494949" d="M30-248c118-7 216 8 213 122C240-48 200 0 122 0H30v-248zM63-27c89 8 146-16 146-99s-60-101-146-95v194" id="S"/><path fill="#494949" d="M141-36C126-15 110 5 73 4 37 3 15-17 15-53c-1-64 63-63 125-63 3-35-9-54-41-54-24 1-41 7-42 31l-33-3c5-37 33-52 76-52 45 0 72 20 72 64v82c-1 20 7 32 28 27v20c-31 9-61-2-59-35zM48-53c0 20 12 33 32 33 41-3 63-29 60-74-43 2-92-5-92 41" id="T"/><g id="h"><use transform="matrix(0.05,0,0,0.05,0,0)" xlink:href="#S"/><use transform="matrix(0.05,0,0,0.05,12.950000000000001,0)" xlink:href="#T"/><use transform="matrix(0.05,0,0,0.05,22.950000000000003,0)" xlink:href="#G"/><use transform="matrix(0.05,0,0,0.05,27.950000000000003,0)" xlink:href="#T"/></g><path fill="#494949" d="M115-194c55 1 70 41 70 98S169 2 115 4C84 4 66-9 55-30l1 105H24l-1-265h31l2 30c10-21 28-34 59-34zm-8 174c40 0 45-34 45-75s-6-73-45-74c-42 0-51 32-51 76 0 43 10 73 51 73" id="U"/><g id="i"><use transform="matrix(0.05,0,0,0.05,0,0)" xlink:href="#P"/><use transform="matrix(0.05,0,0,0.05,12.950000000000001,0)" xlink:href="#J"/><use transform="matrix(0.05,0,0,0.05,22.950000000000003,0)" xlink:href="#R"/><use transform="matrix(0.05,0,0,0.05,31.950000000000003,0)" xlink:href="#U"/><use transform="matrix(0.05,0,0,0.05,41.95,0)" xlink:href="#M"/><use transform="matrix(0.05,0,0,0.05,51.95,0)" xlink:href="#K"/><use transform="matrix(0.05,0,0,0.05,61.95,0)" xlink:href="#R"/><use transform="matrix(0.05,0,0,0.05,70.95,0)" xlink:href="#J"/></g><g id="j"><use transform="matrix(0.05,0,0,0.05,0,0)" xlink:href="#F"/><use transform="matrix(0.05,0,0,0.05,12,0)" xlink:href="#G"/><use transform="matrix(0.05,0,0,0.05,17,0)" xlink:href="#H"/><use transform="matrix(0.05,0,0,0.05,27,0)" xlink:href="#I"/><use transform="matrix(0.05,0,0,0.05,37,0)" xlink:href="#J"/><use transform="matrix(0.05,0,0,0.05,47,0)" xlink:href="#K"/><use transform="matrix(0.05,0,0,0.05,57,0)" xlink:href="#G"/></g><path fill="#494949" d="M96-169c-40 0-48 33-48 73s9 75 48 75c24 0 41-14 43-38l32 2c-6 37-31 61-74 61-59 0-76-41-82-99-10-93 101-131 147-64 4 7 5 14 7 22l-32 3c-4-21-16-35-41-35" id="V"/><g id="k"><use transform="matrix(0.05,0,0,0.05,0,0)" xlink:href="#P"/><use transform="matrix(0.05,0,0,0.05,12.950000000000001,0)" xlink:href="#J"/><use transform="matrix(0.05,0,0,0.05,22.950000000000003,0)" xlink:href="#V"/><use transform="matrix(0.05,0,0,0.05,31.950000000000003,0)" xlink:href="#M"/><use transform="matrix(0.05,0,0,0.05,41.95,0)" xlink:href="#N"/><use transform="matrix(0.05,0,0,0.05,47.900000000000006,0)" xlink:href="#I"/><use transform="matrix(0.05,0,0,0.05,57.900000000000006,0)" xlink:href="#R"/></g><path fill="#494949" d="M160-131c35 5 61 23 61 61C221 17 115-2 30 0v-248c76 3 177-17 177 60 0 33-19 50-47 57zm-97-11c50-1 110 9 110-42 0-47-63-36-110-37v79zm0 115c55-2 124 14 124-45 0-56-70-42-124-44v89" id="W"/><g id="l"><use transform="matrix(0.05,0,0,0.05,0,0)" xlink:href="#S"/><use transform="matrix(0.05,0,0,0.05,12.950000000000001,0)" xlink:href="#W"/></g><path fill="#494949" d="M140-251c81 0 123 46 123 126C263-53 228-8 163 1c7 30 30 48 69 40v23c-55 16-95-15-103-61C56-3 17-48 17-125c0-80 42-126 123-126zm0 227c63 0 89-41 89-101s-29-99-89-99c-61 0-89 39-89 99S79-25 140-24" id="X"/><path fill="#494949" d="M30 0v-248h33v221h125V0H30" id="Y"/><g id="m"><use transform="matrix(0.05,0,0,0.05,0,0)" xlink:href="#F"/><use transform="matrix(0.05,0,0,0.05,12,0)" xlink:href="#X"/><use transform="matrix(0.05,0,0,0.05,26,0)" xlink:href="#Y"/></g><path fill="#494949" d="M179-190L93 31C79 59 56 82 12 73V49c39 6 53-20 64-50L1-190h34L92-34l54-156h33" id="Z"/><g id="n"><use transform="matrix(0.05,0,0,0.05,0,0)" xlink:href="#X"/><use transform="matrix(0.05,0,0,0.05,14,0)" xlink:href="#H"/><use transform="matrix(0.05,0,0,0.05,24,0)" xlink:href="#J"/><use transform="matrix(0.05,0,0,0.05,34,0)" xlink:href="#N"/><use transform="matrix(0.05,0,0,0.05,39.95,0)" xlink:href="#Z"/></g><path fill="#494949" d="M24 0v-261h32V0H24" id="aa"/><g id="o"><use transform="matrix(0.05,0,0,0.05,0,0)" xlink:href="#P"/><use transform="matrix(0.05,0,0,0.05,12.950000000000001,0)" xlink:href="#J"/><use transform="matrix(0.05,0,0,0.05,22.950000000000003,0)" xlink:href="#R"/><use transform="matrix(0.05,0,0,0.05,31.950000000000003,0)" xlink:href="#H"/><use transform="matrix(0.05,0,0,0.05,41.95,0)" xlink:href="#aa"/><use transform="matrix(0.05,0,0,0.05,45.900000000000006,0)" xlink:href="#G"/></g><g id="p"><use transform="matrix(0.05,0,0,0.05,0,0)" xlink:href="#F"/><use transform="matrix(0.05,0,0,0.05,12,0)" xlink:href="#J"/><use transform="matrix(0.05,0,0,0.05,22,0)" xlink:href="#G"/></g><path fill="#494949" d="M33 0v-248h34V0H33" id="ab"/><g id="q"><use transform="matrix(0.05,0,0,0.05,0,0)" xlink:href="#ab"/><use transform="matrix(0.05,0,0,0.05,5,0)" xlink:href="#K"/><use transform="matrix(0.05,0,0,0.05,15,0)" xlink:href="#G"/><use transform="matrix(0.05,0,0,0.05,20,0)" xlink:href="#J"/><use transform="matrix(0.05,0,0,0.05,30,0)" xlink:href="#N"/><use transform="matrix(0.05,0,0,0.05,35.95,0)" xlink:href="#K"/><use transform="matrix(0.05,0,0,0.05,45.95,0)" xlink:href="#J"/><use transform="matrix(0.05,0,0,0.05,55.95,0)" xlink:href="#G"/></g><g id="r"><use transform="matrix(0.05,0,0,0.05,0,0)" xlink:href="#W"/><use transform="matrix(0.05,0,0,0.05,12,0)" xlink:href="#M"/><use transform="matrix(0.05,0,0,0.05,22,0)" xlink:href="#H"/><use transform="matrix(0.05,0,0,0.05,32,0)" xlink:href="#K"/><use transform="matrix(0.05,0,0,0.05,42,0)" xlink:href="#I"/><use transform="matrix(0.05,0,0,0.05,52,0)" xlink:href="#T"/><use transform="matrix(0.05,0,0,0.05,62,0)" xlink:href="#N"/><use transform="matrix(0.05,0,0,0.05,67.95,0)" xlink:href="#Z"/></g></defs></g></svg>