<svg xmlns="http://www.w3.org/2000/svg" xmlns:xlink="http://www.w3.org/1999/xlink" xmlns:lucid="lucid" width="1140" height="722"><g transform="translate(-220 -29)" lucid:page-tab-id="A8OJ~wpuNMB~"><path d="M0 0h1360v1760H0z" fill="#fff"/><path d="M800 470c0 49.7-40.3 90-90 90s-90-40.3-90-90 40.3-90 90-90 90 40.3 90 90z" stroke="#000" stroke-width="2" fill="#fff"/><use xlink:href="#a" transform="matrix(1,0,0,1,640,380) translate(57.5 72)"/><use xlink:href="#b" transform="matrix(1,0,0,1,640,380) translate(39.525 93.60000000000001)"/><use xlink:href="#c" transform="matrix(1,0,0,1,640,380) translate(17.799999999999997 115.20000000000002)"/><use xlink:href="#d" transform="matrix(1,0,0,1,640,380) translate(69.3 115.20000000000002)"/><path d="M240 400h160v120H240z" stroke="#494949" stroke-width="2" fill="#fff"/><use xlink:href="#e" transform="matrix(1,0,0,1,245,405) translate(44 58.6)"/><path d="M449.02 338.45l-5.16 2.42-5.18 2.7-5.2 3-5.22 3.3-5.27 3.65-5.33 4.03-5.38 4.44-5.45 4.87-5.5 5.37-5.56 5.9-5.63 6.5-5.66 7.12-5.1 7.02-1.62-1.18 5.14-7.05 5.7-7.2 5.68-6.54 5.62-5.96 5.56-5.43 5.5-4.93 5.44-4.5 5.4-4.07 5.33-3.7 5.3-3.35 5.27-3.03 5.25-2.74 3.6-1.68h4.97zm118.23.04l9.13 3.85 9.76 4.62 10.5 5.5 11.32 6.57 12.3 7.84 13.45 9.4 9.6 7.3-1.2 1.6-9.57-7.3-13.38-9.33-12.23-7.8-11.26-6.52-10.4-5.47-9.7-4.58-9.05-3.83-7.88-2.95h5.7z" fill="#494949"/><path d="M379.4 398.76l-.16.24h-2.48l1.04-1.42zM654.65 393.9l-14.05-5.27 5.77-7.25z" fill="#494949"/><path d="M657.18 395.9l-18.22-6.8 7.5-9.42zm-14.94-7.72l9.88 3.7-5.82-8.8z" fill="#494949"/><use xlink:href="#f" transform="matrix(1,0,0,1,435.52423953359005,315.80237011076497) translate(0 14.4)"/><use xlink:href="#g" transform="matrix(1,0,0,1,435.52423953359005,315.80237011076497) translate(46.85 14.4)"/><use xlink:href="#h" transform="matrix(1,0,0,1,435.52423953359005,315.80237011076497) translate(118.80000000000001 14.4)"/><path d="M372.18 537.03l9.35 9.05 9.23 8.22 9.1 7.45 8.97 6.73 8.82 6.06 8.67 5.43 8.52 4.86 8.36 4.3 8.2 3.8 8.06 3.34 7.8 2.86h-5.82l-2.7-1-8.14-3.36-8.28-3.84-8.43-4.35-8.6-4.9-8.75-5.47-8.9-6.1-9.02-6.77-9.17-7.5-9.3-8.28-9.4-9.1-2.97-3.14 1.44-1.36zm282.46 6.45l-4.53 5.8-5.23 6.14-5.32 5.73-5.38 5.33-5.45 4.97-5.5 4.6-5.6 4.3-5.62 3.96-5.7 3.67-5.75 3.37-5.83 3.1-5.9 2.8-4.4 1.9h-5.46l3.16-1.2 5.9-2.52 5.8-2.78 5.75-3.05 5.7-3.34 5.6-3.6 5.58-3.93 5.5-4.23 5.45-4.56 5.4-4.9 5.3-5.28 5.27-5.67 5.2-6.1 4.5-5.75z" fill="#494949"/><path d="M653.77 541.56l1.5 1.1-.64.84-1.58-1.23.63-.8zM371.25 530.75l-6.82 6.28-6.24-13.65z" fill="#494949"/><path d="M372.94 530.56l-8.85 8.13L356 521zm-8.18 4.8l4.8-4.4-9.18-5.2z" fill="#494949"/><use xlink:href="#f" transform="matrix(1,0,0,1,436.7176730642029,599.1284234631178) translate(0 14.4)"/><use xlink:href="#i" transform="matrix(1,0,0,1,436.7176730642029,599.1284234631178) translate(46.85 14.4)"/><use xlink:href="#h" transform="matrix(1,0,0,1,436.7176730642029,599.1284234631178) translate(132.8 14.4)"/><path d="M960 600h200v100H960z" fill="#fff"/><path d="M960 600h200m0 100H960" stroke="#494949" stroke-width="2" fill="#fff"/><use xlink:href="#j" transform="matrix(1,0,0,1,980,600) translate(14.349999999999994 53.6)"/><use xlink:href="#k" transform="matrix(1,0,0,1,980,600) translate(65.85 53.6)"/><use xlink:href="#l" transform="matrix(1,0,0,1,980,600) translate(122.75 53.6)"/><path d="M941.3 522.24l8.47 8.1 9.7 10.1 11.48 12.98 14.1 17.4 9.44 12.7-1.6 1.18-9.43-12.66-14.05-17.32-11.4-12.93-9.66-10.04-8.4-8.05-7.53-6.6h3.02zm-88.45-45.07l10.35 2.28 8.17 2.17 7.06 2.2 6.43 2.3 6.05 2.45 5.86 2.66 5.76 2.93 2.4 1.34h-4.17l-4.86-2.47-5.78-2.62-5.97-2.42-6.36-2.27-7-2.16-8.07-2.15-10.25-2.27-50.65-8 .32-1.96z" fill="#494949"/><path d="M802.17 469.17l-.3 1.98-.9-.14.03-1v-1zM1002.75 596.4l-12.2-8.74 7.47-5.5z" fill="#494949"/><path d="M1004.67 599l-15.82-11.33 9.68-7.13zm-12.42-11.35l8.58 6.14-3.33-10.02z" fill="#494949"/><use xlink:href="#m" transform="matrix(1,0,0,1,885.2386623505615,495.4983619675515) translate(0 14.4)"/><use xlink:href="#n" transform="matrix(1,0,0,1,885.2386623505615,495.4983619675515) translate(33.85 14.4)"/><path d="M959.33 651.25l-10.83 3.26-9.9 2.55-8.53 1.8-7.52 1.28-6.76.85-6.17.5-5.7.25h-5.3l-5.03-.22-4.8-.4-4.62-.58-4.48-.76-4.4-.94-4.34-1.12-4.33-1.3-4.35-1.53-4.4-1.75-1.9-.85h5.17l1.83.72 4.27 1.5 4.25 1.27 4.26 1.1 4.3.92 4.42.74 4.53.58 4.72.4 4.95.2h5.23l5.6-.22 6.1-.5 6.66-.85 7.44-1.25 8.45-1.8 9.82-2.5 10.78-3.27zm-171.76-55.82l14.7 15.1 10.4 9.78 8.26 7.17 4.02 3.2h-3.2l-2.1-1.66-8.33-7.2-10.45-9.86-14.76-15.15-26.4-29.65 1.5-1.33z" fill="#494949"/><path d="M960 651.04l-.7.2-.57-1.9 1.27-.38zM763.3 562.7l-7 6.08-5.88-13.8z" fill="#494949"/><path d="M764.98 562.54l-9.06 7.9-7.62-17.9zm-8.3 4.58l4.9-4.28-9.03-5.43z" fill="#494949"/><use xlink:href="#o" transform="matrix(1,0,0,1,780.3068166028236,630.6660123142608) translate(0 14.4)"/><path d="M1020 230c0 49.7-40.3 90-90 90s-90-40.3-90-90 40.3-90 90-90 90 40.3 90 90z" stroke="#000" stroke-width="2" fill="#fff"/><use xlink:href="#p" transform="matrix(1,0,0,1,860,140) translate(57.5 61.19999999999999)"/><use xlink:href="#b" transform="matrix(1,0,0,1,860,140) translate(39.525 82.8)"/><use xlink:href="#q" transform="matrix(1,0,0,1,860,140) translate(26.074999999999996 104.4)"/><use xlink:href="#d" transform="matrix(1,0,0,1,860,140) translate(43.55 126)"/><path d="M734.36 291.67l-3.1 5.37-2.93 5.62-2.77 5.9-2.58 6.12-2.38 6.4-2.15 6.6-1.9 6.84-1.65 7.04-1.38 7.22-1.1 7.37-.78 7.52-.48 7.62-.14 6.72-2-.04.14-6.77.5-7.7.8-7.6 1.1-7.46 1.38-7.3 1.67-7.12 1.94-6.9 2.18-6.7 2.4-6.47 2.6-6.22 2.8-5.96 3-5.7 3.13-5.43 2.1-3.33h2.38zm86.27-59.34l-4.97.84-4.84 1.03-4.73 1.2-4.65 1.4-4.55 1.6-4.46 1.76-4.4 1.96-4.3 2.14-4.25 2.33-4.2 2.52-4.1 2.73-4.04 2.94-3.98 3.15-3.9 3.37-3.84 3.6-.78.8h-2.8l2.18-2.23 3.9-3.67 3.96-3.43 4.05-3.2 4.1-3 4.2-2.77 4.24-2.57 4.3-2.37 4.4-2.2 4.46-1.98 4.55-1.8 4.63-1.6 4.72-1.44 4.82-1.23 4.92-1.05 5-.84z" fill="#494949"/><path d="M711.02 378l-.02 1.03-1-.03h-1l.02-1.05zM835.77 230.23l-13.9 5.65-.66-9.24z" fill="#494949"/><path d="M839 230l-18.02 7.33-.87-12zm-16.22 4.44l9.76-3.97-10.23-2.53z" fill="#494949"/><use xlink:href="#r" transform="matrix(1,0,0,1,661.2718072956391,265.7104486087259) translate(0 14.4)"/><use xlink:href="#s" transform="matrix(1,0,0,1,661.2718072956391,265.7104486087259) translate(71.95 14.4)"/><path d="M1140 140h200v100h-200z" fill="#fff"/><path d="M1140 140h200m0 100h-200" stroke="#494949" stroke-width="2" fill="#fff"/><use xlink:href="#t" transform="matrix(1,0,0,1,1160,140) translate(35.55 53.6)"/><use xlink:href="#u" transform="matrix(1,0,0,1,1160,140) translate(99.5 53.6)"/><path d="M1111.22 69.22l-5.8.7-10.05 1.6-10.07 2.07-9.96 2.47-9.7 2.85-9.3 3.17-8.85 3.4-8.3 3.63-7.74 3.77-7.15 3.85-6.55 3.9-6.02 3.94-5.48 3.9-5 3.9-4.53 3.87-4.12 3.8-3.74 3.76-3.4 3.7-3.05 3.66-2.77 3.6-2.5 3.54-2.27 3.5-2.04 3.48-1.37 2.58-1.77-.94 1.4-2.6 2.08-3.56 2.3-3.58 2.56-3.62 2.83-3.66 3.12-3.72 3.44-3.77 3.8-3.8 4.2-3.88 4.6-3.9 5.05-3.96 5.55-3.96 6.1-3.97 6.63-3.96 7.22-3.88 7.8-3.8 8.38-3.66 8.92-3.45 9.4-3.2 9.77-2.86 10.04-2.5 10.15-2.08 10.14-1.63 6.08-.73zm85.78 7.32l3.85 1.75 3.55 1.78 3.26 1.83 3.02 1.86 2.78 1.88 2.57 1.9 2.38 1.9 2.22 1.95 2.05 1.95 1.9 1.97 1.8 2 1.64 2.03 1.54 2.05 1.43 2.1 1.33 2.1 1.22 2.17 1.14 2.2 1.04 2.28.96 2.32.86 2.38.78 2.46.28 1.05-1.93.52-.27-1-.75-2.38-.84-2.3-.93-2.25-1-2.2-1.1-2.13-1.2-2.1-1.27-2.04-1.38-2-1.5-2-1.6-1.96-1.7-1.94-1.86-1.92-2-1.9-2.13-1.87-2.32-1.88-2.5-1.85-2.7-1.83-2.95-1.8-3.2-1.8-3.46-1.74-3.8-1.72-.35-.14h.67v-1.9zM971.46 147.87l-.48.9-1.78-.9.5-.94zM1239.58 135.8l-6.44-13.56 9.2-1.2z" fill="#494949"/><path d="M1240 139l-8.35-17.57 11.92-1.55zm-5.36-15.94l4.52 9.52 1.94-10.36z" fill="#494949"/><use xlink:href="#v" transform="matrix(1,0,0,1,1111.2190153557508,56.636628206153645) translate(0 14.4)"/><use xlink:href="#w" transform="matrix(1,0,0,1,1111.2190153557508,56.636628206153645) translate(40.35 14.4)"/><path d="M1028.5 291.68l7.8 3.47 8.45 3.35 9.04 3.14 9.5 2.88 9.9 2.54 10.1 2.14 9.6 1.62v2.03l-9.97-1.68-10.18-2.17-9.97-2.56-9.6-2.9-9.12-3.17-8.53-3.37-7.88-3.5-6.24-3.1.9-1.8zm202.48-49.66l-.05 2.43-.2 3.26-.33 3.1-.44 2.96-.54 2.82-.63 2.7-.74 2.62-.82 2.52-.9 2.43-1 2.37-1.08 2.3-1.17 2.24-1.27 2.2-1.36 2.13-1.46 2.1-1.56 2.06-1.7 2.03-1.8 2-1.93 1.97-2.07 1.95-2.23 1.93-2.4 1.9-2.6 1.9-2.8 1.86-3.04 1.84-3.3 1.8-3.55 1.78-3.87 1.72-4.22 1.67-4.6 1.6-1.5.47v-2.1l.9-.26 4.5-1.56 4.16-1.64 3.8-1.7 3.5-1.72 3.2-1.77 2.96-1.78 2.73-1.82 2.53-1.83 2.34-1.86 2.17-1.86 2-1.9 1.9-1.9 1.74-1.96 1.63-1.97 1.52-1.98 1.4-2.04 1.32-2.07 1.22-2.1 1.13-2.17 1.05-2.23.96-2.28.87-2.36.8-2.44.7-2.52.62-2.63.52-2.74.4-2.87.33-3.02.2-3.18.05-2.38z" fill="#494949"/><path d="M1230.98 242.05l-2-.04.02-1h2zM1023.33 285l-4.66 8-10-11.18z" fill="#494949"/><path d="M1024.9 284.3l-6.06 10.4-12.96-14.5zm-6.4 7l3.28-5.62-10.3-2.23z" fill="#494949"/><g><use xlink:href="#x" transform="matrix(1,0,0,1,1092.890868819443,303.46042004833913) translate(0 14.4)"/><use xlink:href="#y" transform="matrix(1,0,0,1,1092.890868819443,303.46042004833913) translate(55.900000000000006 14.4)"/></g><path d="M871.44 420.95l-3.03 1.4-3.27 1.33-3.6 1.3-3.95 1.23-4.43 1.2-5.02 1.12-5.8 1.04-6.8.93-8.17.76-10.14.53-6.68.06-.02-2 6.64-.07 10.05-.53 8.1-.77 6.73-.9 5.7-1.04 4.94-1.1 4.35-1.17 3.88-1.23 3.5-1.26 3.2-1.3.43-.2h4.66zm59.18-98.67l-13.85 39.86-4.34 10.67-3.3 7.23-2.8 5.52-2.52 4.5-2.35 3.8-2.24 3.3-1.14 1.56h-2.5l2.02-2.7 2.2-3.23 2.3-3.74 2.5-4.42 2.76-5.44 3.26-7.14 4.3-10.58 13.83-39.82z" fill="#494949"/><path d="M930 321h1.06l-.45 1.3-1.88-.66.23-.67zM809.47 435.48l-14.2-4.83 14.32-4.44z" fill="#494949"/><path d="M810.45 436.87l-18.42-6.26 18.58-5.76zm-11.95-6.18l10 3.4.07-6.53z" fill="#494949"/><g><use xlink:href="#z" transform="matrix(1,0,0,1,797.4807719027644,398.7143154013831) translate(0 14.4)"/><use xlink:href="#s" transform="matrix(1,0,0,1,797.4807719027644,398.7143154013831) translate(85.95 14.4)"/></g><path d="M501 739h-2v-19.2h2zm0-38.37h-2v-38.37h2zm0-57.56h-2v-22.34h2zm0-57.55h-2v-38.37h2zm0-57.56h-2V490.8h2zm0-58.76h-2v-37.16h2zm0-56.35h-2v-38.37h2zm0-57.55h-2v-17.9h2zm0-57.56h-2v-38.37h2zm0-57.55h-2V221h2z" fill="#ff8f80"/><path d="M501 740h-2v-1.03h2zM501 221.03h-2V220h2z" fill="#ff8f80"/><g><use xlink:href="#A" transform="matrix(1,0,0,1,428.55,469.2) translate(0 14.4)"/><use xlink:href="#B" transform="matrix(1,0,0,1,428.55,469.2) translate(65.95 14.4)"/></g><path d="M1081 419h-2v-21h2zm0-42h-2v-42h2zm0-63h-2v-42h2zm0-63h-2v-35.4h2zm0-78.6h-2V146h2zm0-47.4h-2V83h2zm0-63h-2V41h2z" fill="#ff8f80"/><path d="M1081 420h-2v-1.03h2zM1081 41.03h-2V40h2z" fill="#ff8f80"/><g><use xlink:href="#C" transform="matrix(1,0,0,1,1039.025,172.40000000000003) translate(0 14.4)"/><use xlink:href="#D" transform="matrix(1,0,0,1,1039.025,172.40000000000003) translate(0 36)"/><use xlink:href="#B" transform="matrix(1,0,0,1,1039.025,172.40000000000003) translate(5 36)"/></g><defs><path d="M27 0v-27h64v-190l-56 39v-29l58-41h29v221h61V0H27" id="E"/><path d="M33 0v-38h34V0H33" id="F"/><path d="M101-251c68 0 85 55 85 127S166 4 100 4C33 4 14-52 14-124c0-73 17-127 87-127zm-1 229c47 0 54-49 54-102s-4-102-53-102c-51 0-55 48-55 102 0 53 5 102 54 102" id="G"/><g id="a"><use transform="matrix(0.05,0,0,0.05,0,0)" xlink:href="#E"/><use transform="matrix(0.05,0,0,0.05,10,0)" xlink:href="#F"/><use transform="matrix(0.05,0,0,0.05,15,0)" xlink:href="#G"/></g><path d="M212-179c-10-28-35-45-73-45-59 0-87 40-87 99 0 60 29 101 89 101 43 0 62-24 78-52l27 14C228-24 195 4 139 4 59 4 22-46 18-125c-6-104 99-153 187-111 19 9 31 26 39 46" id="H"/><path d="M141-36C126-15 110 5 73 4 37 3 15-17 15-53c-1-64 63-63 125-63 3-35-9-54-41-54-24 1-41 7-42 31l-33-3c5-37 33-52 76-52 45 0 72 20 72 64v82c-1 20 7 32 28 27v20c-31 9-61-2-59-35zM48-53c0 20 12 33 32 33 41-3 63-29 60-74-43 2-92-5-92 41" id="I"/><path d="M117-194c89-4 53 116 60 194h-32v-121c0-31-8-49-39-48C34-167 62-67 57 0H25l-1-190h30c1 10-1 24 2 32 11-22 29-35 61-36" id="J"/><path d="M108 0H70L1-190h34L89-25l56-165h34" id="K"/><path d="M135-143c-3-34-86-38-87 0 15 53 115 12 119 90S17 21 10-45l28-5c4 36 97 45 98 0-10-56-113-15-118-90-4-57 82-63 122-42 12 7 21 19 24 35" id="L"/><g id="b"><use transform="matrix(0.05,0,0,0.05,0,0)" xlink:href="#H"/><use transform="matrix(0.05,0,0,0.05,12.950000000000001,0)" xlink:href="#I"/><use transform="matrix(0.05,0,0,0.05,22.950000000000003,0)" xlink:href="#J"/><use transform="matrix(0.05,0,0,0.05,32.95,0)" xlink:href="#K"/><use transform="matrix(0.05,0,0,0.05,41.95,0)" xlink:href="#I"/><use transform="matrix(0.05,0,0,0.05,51.95,0)" xlink:href="#L"/></g><path d="M197 0v-115H63V0H30v-248h33v105h134v-105h34V0h-34" id="M"/><path d="M127-220V0H93v-220H8v-28h204v28h-85" id="N"/><path d="M30-248c87 1 191-15 191 75 0 78-77 80-158 76V0H30v-248zm33 125c57 0 124 11 124-50 0-59-68-47-124-48v98" id="O"/><g id="c"><use transform="matrix(0.05,0,0,0.05,0,0)" xlink:href="#M"/><use transform="matrix(0.05,0,0,0.05,12.950000000000001,0)" xlink:href="#N"/><use transform="matrix(0.05,0,0,0.05,23.900000000000002,0)" xlink:href="#N"/><use transform="matrix(0.05,0,0,0.05,34.85,0)" xlink:href="#O"/></g><path d="M185-189c-5-48-123-54-124 2 14 75 158 14 163 119 3 78-121 87-175 55-17-10-28-26-33-46l33-7c5 56 141 63 141-1 0-78-155-14-162-118-5-82 145-84 179-34 5 7 8 16 11 25" id="P"/><path d="M100-194c63 0 86 42 84 106H49c0 40 14 67 53 68 26 1 43-12 49-29l28 8c-11 28-37 45-77 45C44 4 14-33 15-96c1-61 26-98 85-98zm52 81c6-60-76-77-97-28-3 7-6 17-6 28h103" id="Q"/><path d="M114-163C36-179 61-72 57 0H25l-1-190h30c1 12-1 29 2 39 6-27 23-49 58-41v29" id="R"/><g id="d"><use transform="matrix(0.05,0,0,0.05,0,0)" xlink:href="#P"/><use transform="matrix(0.05,0,0,0.05,12,0)" xlink:href="#Q"/><use transform="matrix(0.05,0,0,0.05,22,0)" xlink:href="#R"/><use transform="matrix(0.05,0,0,0.05,27.950000000000003,0)" xlink:href="#K"/><use transform="matrix(0.05,0,0,0.05,36.95,0)" xlink:href="#Q"/><use transform="matrix(0.05,0,0,0.05,46.95,0)" xlink:href="#R"/></g><path fill="#494949" d="M185-189c-5-48-123-54-124 2 14 75 158 14 163 119 3 78-121 87-175 55-17-10-28-26-33-46l33-7c5 56 141 63 141-1 0-78-155-14-162-118-5-82 145-84 179-34 5 7 8 16 11 25" id="S"/><path fill="#494949" d="M59-47c-2 24 18 29 38 22v24C64 9 27 4 27-40v-127H5v-23h24l9-43h21v43h35v23H59v120" id="T"/><path fill="#494949" d="M84 4C-5 8 30-112 23-190h32v120c0 31 7 50 39 49 72-2 45-101 50-169h31l1 190h-30c-1-10 1-25-2-33-11 22-28 36-60 37" id="U"/><path fill="#494949" d="M85-194c31 0 48 13 60 33l-1-100h32l1 261h-30c-2-10 0-23-3-31C134-8 116 4 85 4 32 4 16-35 15-94c0-66 23-100 70-100zm9 24c-40 0-46 34-46 75 0 40 6 74 45 74 42 0 51-32 51-76 0-42-9-74-50-73" id="V"/><path fill="#494949" d="M100-194c63 0 86 42 84 106H49c0 40 14 67 53 68 26 1 43-12 49-29l28 8c-11 28-37 45-77 45C44 4 14-33 15-96c1-61 26-98 85-98zm52 81c6-60-76-77-97-28-3 7-6 17-6 28h103" id="W"/><path fill="#494949" d="M117-194c89-4 53 116 60 194h-32v-121c0-31-8-49-39-48C34-167 62-67 57 0H25l-1-190h30c1 10-1 24 2 32 11-22 29-35 61-36" id="X"/><g id="e"><use transform="matrix(0.05,0,0,0.05,0,0)" xlink:href="#S"/><use transform="matrix(0.05,0,0,0.05,12,0)" xlink:href="#T"/><use transform="matrix(0.05,0,0,0.05,17,0)" xlink:href="#U"/><use transform="matrix(0.05,0,0,0.05,27,0)" xlink:href="#V"/><use transform="matrix(0.05,0,0,0.05,37,0)" xlink:href="#W"/><use transform="matrix(0.05,0,0,0.05,47,0)" xlink:href="#X"/><use transform="matrix(0.05,0,0,0.05,57,0)" xlink:href="#T"/></g><path fill="#494949" d="M63-220v92h138v28H63V0H30v-248h175v28H63" id="Y"/><path fill="#494949" d="M100-194c62-1 85 37 85 99 1 63-27 99-86 99S16-35 15-95c0-66 28-99 85-99zM99-20c44 1 53-31 53-75 0-43-8-75-51-75s-53 32-53 75 10 74 51 75" id="Z"/><path fill="#494949" d="M114-163C36-179 61-72 57 0H25l-1-190h30c1 12-1 29 2 39 6-27 23-49 58-41v29" id="aa"/><path fill="#494949" d="M210-169c-67 3-38 105-44 169h-31v-121c0-29-5-50-35-48C34-165 62-65 56 0H25l-1-190h30c1 10-1 24 2 32 10-44 99-50 107 0 11-21 27-35 58-36 85-2 47 119 55 194h-31v-121c0-29-5-49-35-48" id="ab"/><g id="f"><use transform="matrix(0.05,0,0,0.05,0,0)" xlink:href="#Y"/><use transform="matrix(0.05,0,0,0.05,10.950000000000001,0)" xlink:href="#Z"/><use transform="matrix(0.05,0,0,0.05,20.950000000000003,0)" xlink:href="#aa"/><use transform="matrix(0.05,0,0,0.05,26.900000000000002,0)" xlink:href="#ab"/></g><path fill="#494949" d="M233-177c-1 41-23 64-60 70L243 0h-38l-65-103H63V0H30v-248c88 3 205-21 203 71zM63-129c60-2 137 13 137-47 0-61-80-42-137-45v92" id="ac"/><path fill="#494949" d="M145-31C134-9 116 4 85 4 32 4 16-35 15-94c0-59 17-99 70-100 32-1 48 14 60 33 0-11-1-24 2-32h30l-1 268h-32zM93-21c41 0 51-33 51-76s-8-73-50-73c-40 0-46 35-46 75s5 74 45 74" id="ad"/><path fill="#494949" d="M135-143c-3-34-86-38-87 0 15 53 115 12 119 90S17 21 10-45l28-5c4 36 97 45 98 0-10-56-113-15-118-90-4-57 82-63 122-42 12 7 21 19 24 35" id="ae"/><g id="g"><use transform="matrix(0.05,0,0,0.05,0,0)" xlink:href="#ac"/><use transform="matrix(0.05,0,0,0.05,12.950000000000001,0)" xlink:href="#W"/><use transform="matrix(0.05,0,0,0.05,22.950000000000003,0)" xlink:href="#ad"/><use transform="matrix(0.05,0,0,0.05,32.95,0)" xlink:href="#U"/><use transform="matrix(0.05,0,0,0.05,42.95,0)" xlink:href="#W"/><use transform="matrix(0.05,0,0,0.05,52.95,0)" xlink:href="#ae"/><use transform="matrix(0.05,0,0,0.05,61.95,0)" xlink:href="#T"/></g><path fill="#494949" d="M30-248c118-7 216 8 213 122C240-48 200 0 122 0H30v-248zM63-27c89 8 146-16 146-99s-60-101-146-95v194" id="af"/><path fill="#494949" d="M141-36C126-15 110 5 73 4 37 3 15-17 15-53c-1-64 63-63 125-63 3-35-9-54-41-54-24 1-41 7-42 31l-33-3c5-37 33-52 76-52 45 0 72 20 72 64v82c-1 20 7 32 28 27v20c-31 9-61-2-59-35zM48-53c0 20 12 33 32 33 41-3 63-29 60-74-43 2-92-5-92 41" id="ag"/><g id="h"><use transform="matrix(0.05,0,0,0.05,0,0)" xlink:href="#af"/><use transform="matrix(0.05,0,0,0.05,12.950000000000001,0)" xlink:href="#ag"/><use transform="matrix(0.05,0,0,0.05,22.950000000000003,0)" xlink:href="#T"/><use transform="matrix(0.05,0,0,0.05,27.950000000000003,0)" xlink:href="#ag"/></g><path fill="#494949" d="M115-194c55 1 70 41 70 98S169 2 115 4C84 4 66-9 55-30l1 105H24l-1-265h31l2 30c10-21 28-34 59-34zm-8 174c40 0 45-34 45-75s-6-73-45-74c-42 0-51 32-51 76 0 43 10 73 51 73" id="ah"/><g id="i"><use transform="matrix(0.05,0,0,0.05,0,0)" xlink:href="#ac"/><use transform="matrix(0.05,0,0,0.05,12.950000000000001,0)" xlink:href="#W"/><use transform="matrix(0.05,0,0,0.05,22.950000000000003,0)" xlink:href="#ae"/><use transform="matrix(0.05,0,0,0.05,31.950000000000003,0)" xlink:href="#ah"/><use transform="matrix(0.05,0,0,0.05,41.95,0)" xlink:href="#Z"/><use transform="matrix(0.05,0,0,0.05,51.95,0)" xlink:href="#X"/><use transform="matrix(0.05,0,0,0.05,61.95,0)" xlink:href="#ae"/><use transform="matrix(0.05,0,0,0.05,70.95,0)" xlink:href="#W"/></g><path fill="#494949" d="M197 0v-115H63V0H30v-248h33v105h134v-105h34V0h-34" id="ai"/><path fill="#494949" d="M127-220V0H93v-220H8v-28h204v28h-85" id="aj"/><path fill="#494949" d="M30-248c87 1 191-15 191 75 0 78-77 80-158 76V0H30v-248zm33 125c57 0 124 11 124-50 0-59-68-47-124-48v98" id="ak"/><g id="j"><use transform="matrix(0.05,0,0,0.05,0,0)" xlink:href="#ai"/><use transform="matrix(0.05,0,0,0.05,12.950000000000001,0)" xlink:href="#aj"/><use transform="matrix(0.05,0,0,0.05,23.900000000000002,0)" xlink:href="#aj"/><use transform="matrix(0.05,0,0,0.05,34.85,0)" xlink:href="#ak"/></g><path fill="#494949" d="M212-179c-10-28-35-45-73-45-59 0-87 40-87 99 0 60 29 101 89 101 43 0 62-24 78-52l27 14C228-24 195 4 139 4 59 4 22-46 18-125c-6-104 99-153 187-111 19 9 31 26 39 46" id="al"/><path fill="#494949" d="M101-234c-31-9-42 10-38 44h38v23H63V0H32v-167H5v-23h27c-7-52 17-82 69-68v24" id="am"/><path fill="#494949" d="M24-231v-30h32v30H24zM24 0v-190h32V0H24" id="an"/><path fill="#494949" d="M177-190C167-65 218 103 67 71c-23-6-38-20-44-43l32-5c15 47 100 32 89-28v-30C133-14 115 1 83 1 29 1 15-40 15-95c0-56 16-97 71-98 29-1 48 16 59 35 1-10 0-23 2-32h30zM94-22c36 0 50-32 50-73 0-42-14-75-50-75-39 0-46 34-46 75s6 73 46 73" id="ao"/><g id="k"><use transform="matrix(0.05,0,0,0.05,0,0)" xlink:href="#al"/><use transform="matrix(0.05,0,0,0.05,12.950000000000001,0)" xlink:href="#Z"/><use transform="matrix(0.05,0,0,0.05,22.950000000000003,0)" xlink:href="#X"/><use transform="matrix(0.05,0,0,0.05,32.95,0)" xlink:href="#am"/><use transform="matrix(0.05,0,0,0.05,37.95,0)" xlink:href="#an"/><use transform="matrix(0.05,0,0,0.05,41.900000000000006,0)" xlink:href="#ao"/></g><path fill="#494949" d="M24 0v-261h32V0H24" id="ap"/><g id="l"><use transform="matrix(0.05,0,0,0.05,0,0)" xlink:href="#am"/><use transform="matrix(0.05,0,0,0.05,5,0)" xlink:href="#an"/><use transform="matrix(0.05,0,0,0.05,8.95,0)" xlink:href="#ap"/><use transform="matrix(0.05,0,0,0.05,12.899999999999999,0)" xlink:href="#W"/></g><g id="m"><use transform="matrix(0.05,0,0,0.05,0,0)" xlink:href="#Y"/><use transform="matrix(0.05,0,0,0.05,10.950000000000001,0)" xlink:href="#an"/><use transform="matrix(0.05,0,0,0.05,14.9,0)" xlink:href="#ap"/><use transform="matrix(0.05,0,0,0.05,18.85,0)" xlink:href="#W"/></g><g id="n"><use transform="matrix(0.05,0,0,0.05,0,0)" xlink:href="#aa"/><use transform="matrix(0.05,0,0,0.05,5.95,0)" xlink:href="#W"/><use transform="matrix(0.05,0,0,0.05,15.949999999999998,0)" xlink:href="#ag"/><use transform="matrix(0.05,0,0,0.05,25.950000000000003,0)" xlink:href="#V"/></g><g id="o"><use transform="matrix(0.05,0,0,0.05,0,0)" xlink:href="#al"/><use transform="matrix(0.05,0,0,0.05,12.950000000000001,0)" xlink:href="#Z"/><use transform="matrix(0.05,0,0,0.05,22.950000000000003,0)" xlink:href="#X"/><use transform="matrix(0.05,0,0,0.05,32.95,0)" xlink:href="#am"/><use transform="matrix(0.05,0,0,0.05,37.95,0)" xlink:href="#an"/><use transform="matrix(0.05,0,0,0.05,41.900000000000006,0)" xlink:href="#ao"/><use transform="matrix(0.05,0,0,0.05,51.900000000000006,0)" xlink:href="#U"/><use transform="matrix(0.05,0,0,0.05,61.900000000000006,0)" xlink:href="#aa"/><use transform="matrix(0.05,0,0,0.05,67.85000000000001,0)" xlink:href="#ag"/><use transform="matrix(0.05,0,0,0.05,77.85000000000001,0)" xlink:href="#T"/><use transform="matrix(0.05,0,0,0.05,82.85000000000001,0)" xlink:href="#an"/><use transform="matrix(0.05,0,0,0.05,86.80000000000001,0)" xlink:href="#Z"/><use transform="matrix(0.05,0,0,0.05,96.80000000000001,0)" xlink:href="#X"/><use transform="matrix(0.05,0,0,0.05,106.80000000000001,0)" xlink:href="#ae"/></g><path d="M101-251c82-7 93 87 43 132L82-64C71-53 59-42 53-27h129V0H18c2-99 128-94 128-182 0-28-16-43-45-43s-46 15-49 41l-32-3c6-41 34-60 81-64" id="aq"/><g id="p"><use transform="matrix(0.05,0,0,0.05,0,0)" xlink:href="#aq"/><use transform="matrix(0.05,0,0,0.05,10,0)" xlink:href="#F"/><use transform="matrix(0.05,0,0,0.05,15,0)" xlink:href="#G"/></g><path d="M205 0l-28-72H64L36 0H1l101-248h38L239 0h-34zm-38-99l-47-123c-12 45-31 82-46 123h93" id="ar"/><path d="M115-194c55 1 70 41 70 98S169 2 115 4C84 4 66-9 55-30l1 105H24l-1-265h31l2 30c10-21 28-34 59-34zm-8 174c40 0 45-34 45-75s-6-73-45-74c-42 0-51 32-51 76 0 43 10 73 51 73" id="as"/><path d="M24 0v-261h32V0H24" id="at"/><path d="M24-231v-30h32v30H24zM24 0v-190h32V0H24" id="au"/><path d="M96-169c-40 0-48 33-48 73s9 75 48 75c24 0 41-14 43-38l32 2c-6 37-31 61-74 61-59 0-76-41-82-99-10-93 101-131 147-64 4 7 5 14 7 22l-32 3c-4-21-16-35-41-35" id="av"/><path d="M59-47c-2 24 18 29 38 22v24C64 9 27 4 27-40v-127H5v-23h24l9-43h21v43h35v23H59v120" id="aw"/><path d="M100-194c62-1 85 37 85 99 1 63-27 99-86 99S16-35 15-95c0-66 28-99 85-99zM99-20c44 1 53-31 53-75 0-43-8-75-51-75s-53 32-53 75 10 74 51 75" id="ax"/><g id="q"><use transform="matrix(0.05,0,0,0.05,0,0)" xlink:href="#ar"/><use transform="matrix(0.05,0,0,0.05,12,0)" xlink:href="#as"/><use transform="matrix(0.05,0,0,0.05,22,0)" xlink:href="#as"/><use transform="matrix(0.05,0,0,0.05,32,0)" xlink:href="#at"/><use transform="matrix(0.05,0,0,0.05,35.95,0)" xlink:href="#au"/><use transform="matrix(0.05,0,0,0.05,39.900000000000006,0)" xlink:href="#av"/><use transform="matrix(0.05,0,0,0.05,48.900000000000006,0)" xlink:href="#I"/><use transform="matrix(0.05,0,0,0.05,58.900000000000006,0)" xlink:href="#aw"/><use transform="matrix(0.05,0,0,0.05,63.900000000000006,0)" xlink:href="#au"/><use transform="matrix(0.05,0,0,0.05,67.85000000000001,0)" xlink:href="#ax"/><use transform="matrix(0.05,0,0,0.05,77.85000000000001,0)" xlink:href="#J"/></g><g id="r"><use transform="matrix(0.05,0,0,0.05,0,0)" xlink:href="#ac"/><use transform="matrix(0.05,0,0,0.05,12.950000000000001,0)" xlink:href="#W"/><use transform="matrix(0.05,0,0,0.05,22.950000000000003,0)" xlink:href="#ad"/><use transform="matrix(0.05,0,0,0.05,32.95,0)" xlink:href="#U"/><use transform="matrix(0.05,0,0,0.05,42.95,0)" xlink:href="#W"/><use transform="matrix(0.05,0,0,0.05,52.95,0)" xlink:href="#ae"/><use transform="matrix(0.05,0,0,0.05,61.95,0)" xlink:href="#T"/></g><g id="s"><use transform="matrix(0.05,0,0,0.05,0,0)" xlink:href="#ak"/><use transform="matrix(0.05,0,0,0.05,12,0)" xlink:href="#ag"/><use transform="matrix(0.05,0,0,0.05,22,0)" xlink:href="#aa"/><use transform="matrix(0.05,0,0,0.05,27.950000000000003,0)" xlink:href="#ag"/><use transform="matrix(0.05,0,0,0.05,37.95,0)" xlink:href="#ab"/><use transform="matrix(0.05,0,0,0.05,52.900000000000006,0)" xlink:href="#W"/><use transform="matrix(0.05,0,0,0.05,62.900000000000006,0)" xlink:href="#T"/><use transform="matrix(0.05,0,0,0.05,67.9,0)" xlink:href="#W"/><use transform="matrix(0.05,0,0,0.05,77.9,0)" xlink:href="#aa"/><use transform="matrix(0.05,0,0,0.05,83.85000000000001,0)" xlink:href="#ae"/></g><path fill="#494949" d="M143 4C61 4 22-44 18-125c-5-107 100-154 193-111 17 8 29 25 37 43l-32 9c-13-25-37-40-76-40-61 0-88 39-88 99 0 61 29 100 91 101 35 0 62-11 79-27v-45h-74v-28h105v86C228-13 192 4 143 4" id="ay"/><g id="t"><use transform="matrix(0.05,0,0,0.05,0,0)" xlink:href="#ay"/><use transform="matrix(0.05,0,0,0.05,14,0)" xlink:href="#aa"/><use transform="matrix(0.05,0,0,0.05,19.95,0)" xlink:href="#ag"/><use transform="matrix(0.05,0,0,0.05,29.950000000000003,0)" xlink:href="#V"/><use transform="matrix(0.05,0,0,0.05,39.95,0)" xlink:href="#W"/><use transform="matrix(0.05,0,0,0.05,49.95,0)" xlink:href="#ae"/></g><path fill="#494949" d="M160-131c35 5 61 23 61 61C221 17 115-2 30 0v-248c76 3 177-17 177 60 0 33-19 50-47 57zm-97-11c50-1 110 9 110-42 0-47-63-36-110-37v79zm0 115c55-2 124 14 124-45 0-56-70-42-124-44v89" id="az"/><g id="u"><use transform="matrix(0.05,0,0,0.05,0,0)" xlink:href="#af"/><use transform="matrix(0.05,0,0,0.05,12.950000000000001,0)" xlink:href="#az"/></g><path fill="#494949" d="M140-251c81 0 123 46 123 126C263-53 228-8 163 1c7 30 30 48 69 40v23c-55 16-95-15-103-61C56-3 17-48 17-125c0-80 42-126 123-126zm0 227c63 0 89-41 89-101s-29-99-89-99c-61 0-89 39-89 99S79-25 140-24" id="aA"/><path fill="#494949" d="M30 0v-248h33v221h125V0H30" id="aB"/><g id="v"><use transform="matrix(0.05,0,0,0.05,0,0)" xlink:href="#S"/><use transform="matrix(0.05,0,0,0.05,12,0)" xlink:href="#aA"/><use transform="matrix(0.05,0,0,0.05,26,0)" xlink:href="#aB"/></g><path fill="#494949" d="M179-190L93 31C79 59 56 82 12 73V49c39 6 53-20 64-50L1-190h34L92-34l54-156h33" id="aC"/><g id="w"><use transform="matrix(0.05,0,0,0.05,0,0)" xlink:href="#ad"/><use transform="matrix(0.05,0,0,0.05,10,0)" xlink:href="#U"/><use transform="matrix(0.05,0,0,0.05,20,0)" xlink:href="#W"/><use transform="matrix(0.05,0,0,0.05,30,0)" xlink:href="#aa"/><use transform="matrix(0.05,0,0,0.05,35.95,0)" xlink:href="#aC"/></g><g id="x"><use transform="matrix(0.05,0,0,0.05,0,0)" xlink:href="#ac"/><use transform="matrix(0.05,0,0,0.05,12.950000000000001,0)" xlink:href="#W"/><use transform="matrix(0.05,0,0,0.05,22.950000000000003,0)" xlink:href="#ae"/><use transform="matrix(0.05,0,0,0.05,31.950000000000003,0)" xlink:href="#U"/><use transform="matrix(0.05,0,0,0.05,41.95,0)" xlink:href="#ap"/><use transform="matrix(0.05,0,0,0.05,45.900000000000006,0)" xlink:href="#T"/></g><g id="y"><use transform="matrix(0.05,0,0,0.05,0,0)" xlink:href="#S"/><use transform="matrix(0.05,0,0,0.05,12,0)" xlink:href="#W"/><use transform="matrix(0.05,0,0,0.05,22,0)" xlink:href="#T"/></g><g id="z"><use transform="matrix(0.05,0,0,0.05,0,0)" xlink:href="#ac"/><use transform="matrix(0.05,0,0,0.05,12.950000000000001,0)" xlink:href="#W"/><use transform="matrix(0.05,0,0,0.05,22.950000000000003,0)" xlink:href="#ae"/><use transform="matrix(0.05,0,0,0.05,31.950000000000003,0)" xlink:href="#ah"/><use transform="matrix(0.05,0,0,0.05,41.95,0)" xlink:href="#Z"/><use transform="matrix(0.05,0,0,0.05,51.95,0)" xlink:href="#X"/><use transform="matrix(0.05,0,0,0.05,61.95,0)" xlink:href="#ae"/><use transform="matrix(0.05,0,0,0.05,70.95,0)" xlink:href="#W"/></g><path fill="#494949" d="M33 0v-248h34V0H33" id="aD"/><g id="A"><use transform="matrix(0.05,0,0,0.05,0,0)" xlink:href="#aD"/><use transform="matrix(0.05,0,0,0.05,5,0)" xlink:href="#X"/><use transform="matrix(0.05,0,0,0.05,15,0)" xlink:href="#T"/><use transform="matrix(0.05,0,0,0.05,20,0)" xlink:href="#W"/><use transform="matrix(0.05,0,0,0.05,30,0)" xlink:href="#aa"/><use transform="matrix(0.05,0,0,0.05,35.95,0)" xlink:href="#X"/><use transform="matrix(0.05,0,0,0.05,45.95,0)" xlink:href="#W"/><use transform="matrix(0.05,0,0,0.05,55.95,0)" xlink:href="#T"/></g><g id="B"><use transform="matrix(0.05,0,0,0.05,0,0)" xlink:href="#az"/><use transform="matrix(0.05,0,0,0.05,12,0)" xlink:href="#Z"/><use transform="matrix(0.05,0,0,0.05,22,0)" xlink:href="#U"/><use transform="matrix(0.05,0,0,0.05,32,0)" xlink:href="#X"/><use transform="matrix(0.05,0,0,0.05,42,0)" xlink:href="#V"/><use transform="matrix(0.05,0,0,0.05,52,0)" xlink:href="#ag"/><use transform="matrix(0.05,0,0,0.05,62,0)" xlink:href="#aa"/><use transform="matrix(0.05,0,0,0.05,67.95,0)" xlink:href="#aC"/></g><path fill="#494949" d="M115-194c53 0 69 39 70 98 0 66-23 100-70 100C84 3 66-7 56-30L54 0H23l1-261h32v101c10-23 28-34 59-34zm-8 174c40 0 45-34 45-75 0-40-5-75-45-74-42 0-51 32-51 76 0 43 10 73 51 73" id="aE"/><g id="C"><use transform="matrix(0.05,0,0,0.05,0,0)" xlink:href="#af"/><use transform="matrix(0.05,0,0,0.05,12.950000000000001,0)" xlink:href="#ag"/><use transform="matrix(0.05,0,0,0.05,22.950000000000003,0)" xlink:href="#T"/><use transform="matrix(0.05,0,0,0.05,27.950000000000003,0)" xlink:href="#ag"/><use transform="matrix(0.05,0,0,0.05,37.95,0)" xlink:href="#aE"/><use transform="matrix(0.05,0,0,0.05,47.95,0)" xlink:href="#ag"/><use transform="matrix(0.05,0,0,0.05,57.95,0)" xlink:href="#ae"/><use transform="matrix(0.05,0,0,0.05,66.95,0)" xlink:href="#W"/></g></defs></g></svg>