<svg xmlns="http://www.w3.org/2000/svg" xmlns:xlink="http://www.w3.org/1999/xlink" width="200" height="180"><g transform="translate(-120 -120)"><path d="M0 0h1360v1760H0z" fill="#fff"/><path d="M140 140h180v140H140z" stroke="#000" stroke-width="2" fill="#fff"/><use xlink:href="#a" transform="matrix(1,0,0,1,160,140) translate(12.074999999999996 73.60000000000001)"/><use xlink:href="#b" transform="matrix(1,0,0,1,160,140) translate(82.975 73.60000000000001)"/><defs><path d="M30 0v-248h187v28H63v79h144v27H63v87h162V0H30" id="c"/><path d="M141 0L90-78 38 0H4l68-98-65-92h35l48 74 47-74h35l-64 92 68 98h-35" id="d"/><path d="M59-47c-2 24 18 29 38 22v24C64 9 27 4 27-40v-127H5v-23h24l9-43h21v43h35v23H59v120" id="e"/><path d="M100-194c63 0 86 42 84 106H49c0 40 14 67 53 68 26 1 43-12 49-29l28 8c-11 28-37 45-77 45C44 4 14-33 15-96c1-61 26-98 85-98zm52 81c6-60-76-77-97-28-3 7-6 17-6 28h103" id="f"/><path d="M114-163C36-179 61-72 57 0H25l-1-190h30c1 12-1 29 2 39 6-27 23-49 58-41v29" id="g"/><path d="M117-194c89-4 53 116 60 194h-32v-121c0-31-8-49-39-48C34-167 62-67 57 0H25l-1-190h30c1 10-1 24 2 32 11-22 29-35 61-36" id="h"/><path d="M141-36C126-15 110 5 73 4 37 3 15-17 15-53c-1-64 63-63 125-63 3-35-9-54-41-54-24 1-41 7-42 31l-33-3c5-37 33-52 76-52 45 0 72 20 72 64v82c-1 20 7 32 28 27v20c-31 9-61-2-59-35zM48-53c0 20 12 33 32 33 41-3 63-29 60-74-43 2-92-5-92 41" id="i"/><path d="M24 0v-261h32V0H24" id="j"/><g id="a"><use transform="matrix(0.05,0,0,0.05,0,0)" xlink:href="#c"/><use transform="matrix(0.05,0,0,0.05,12,0)" xlink:href="#d"/><use transform="matrix(0.05,0,0,0.05,21,0)" xlink:href="#e"/><use transform="matrix(0.05,0,0,0.05,26,0)" xlink:href="#f"/><use transform="matrix(0.05,0,0,0.05,36,0)" xlink:href="#g"/><use transform="matrix(0.05,0,0,0.05,41.95,0)" xlink:href="#h"/><use transform="matrix(0.05,0,0,0.05,51.95,0)" xlink:href="#i"/><use transform="matrix(0.05,0,0,0.05,61.95,0)" xlink:href="#j"/></g><path d="M24-231v-30h32v30H24zM24 0v-190h32V0H24" id="k"/><path d="M179-190L93 31C79 59 56 82 12 73V49c39 6 53-20 64-50L1-190h34L92-34l54-156h33" id="l"/><g id="b"><use transform="matrix(0.05,0,0,0.05,0,0)" xlink:href="#c"/><use transform="matrix(0.05,0,0,0.05,12,0)" xlink:href="#h"/><use transform="matrix(0.05,0,0,0.05,22,0)" xlink:href="#e"/><use transform="matrix(0.05,0,0,0.05,27,0)" xlink:href="#k"/><use transform="matrix(0.05,0,0,0.05,30.950000000000003,0)" xlink:href="#e"/><use transform="matrix(0.05,0,0,0.05,35.95,0)" xlink:href="#l"/></g></defs></g></svg>