<svg xmlns="http://www.w3.org/2000/svg" xmlns:xlink="http://www.w3.org/1999/xlink" xmlns:lucid="lucid" width="1000" height="542"><g transform="translate(-220 -209)" lucid:page-tab-id="fwPJ4yNBRPRX"><path d="M0 0h1360v1760H0z" fill="#fff"/><path d="M800 470c0 49.7-40.3 90-90 90s-90-40.3-90-90 40.3-90 90-90 90 40.3 90 90z" stroke="#000" stroke-width="7" fill="#fff"/><use xlink:href="#a" transform="matrix(1,0,0,1,640,380) translate(57.5 72)"/><use xlink:href="#b" transform="matrix(1,0,0,1,640,380) translate(38.05 93.60000000000001)"/><use xlink:href="#c" transform="matrix(1,0,0,1,640,380) translate(31.299999999999997 115.20000000000002)"/><use xlink:href="#d" transform="matrix(1,0,0,1,640,380) translate(73.85 115.20000000000002)"/><path d="M240 400h160v120H240z" stroke="#494949" stroke-width="7" fill="#fff"/><use xlink:href="#e" transform="matrix(1,0,0,1,245,405) translate(41.625 58.6)"/><path d="M456.88 336.02l-4.87 2.04-4.87 2.28-4.9 2.56-4.94 2.84-5 3.15-5.05 3.5-5.12 3.87-5.22 4.3-5.3 4.77-5.42 5.3-5.54 5.88-5.67 6.55-5.8 7.3-3.9 5.36-5.66-4.12 4-5.47 5.98-7.53 5.86-6.77 5.74-6.1 5.64-5.5 5.53-4.96 5.44-4.5 5.34-4.05 5.3-3.66 5.23-3.32 5.2-2.98 2.92-1.53H459zm118.36 1.44l9.76 4.6 10.53 5.54 11.42 6.63 12.48 7.95 13.72 9.58 1.8 1.38-4.23 5.56-1.7-1.3-13.48-9.4-12.22-7.8-11.17-6.47-10.27-5.4-9.5-4.48-8.83-3.73-8.26-3.1-5.52-1.8h20.18z" fill="#494949"/><path d="M385.32 395.66l-.6.84h-8.67l3.6-4.96zM646.8 386.88l-14.07-5.16 5.72-7.3z" fill="#494949"/><path d="M655.73 393.87L627 383.35l11.67-14.87z" fill="#494949"/><use xlink:href="#f" transform="matrix(1,0,0,1,432.05586757058194,313.6297622835495) translate(0 14.4)"/><use xlink:href="#g" transform="matrix(1,0,0,1,432.05586757058194,313.6297622835495) translate(49.900000000000006 14.4)"/><use xlink:href="#h" transform="matrix(1,0,0,1,432.05586757058194,313.6297622835495) translate(125.70000000000002 14.4)"/><path d="M373.9 539.8l9.45 9.15 9.3 8.27 9.1 7.46 8.94 6.7 8.75 6.02 8.6 5.38 8.4 4.8 8.22 4.23 8.05 3.75 7.9 3.26 6.94 2.55h-5.83l-1.85-.67-7.96-3.3-8.13-3.77-8.3-4.27-8.5-4.83-8.64-5.43-8.84-6.06-9-6.75-9.18-7.5-9.35-8.33-9.5-9.2-3.24-3.4 1.45-1.38zm279.22 5.67l-4.66 5.95-5.35 6.27-5.4 5.82-5.46 5.4-5.5 5.02-5.55 4.65-5.6 4.28-5.65 3.97-5.68 3.66-5.73 3.36-5.78 3.06-5.83 2.8-3.85 1.63h-5.4l2.62-.98 5.8-2.5 5.76-2.73 5.7-3.03 5.66-3.3 5.62-3.6 5.57-3.93 5.53-4.24 5.5-4.6 5.43-4.96 5.4-5.34 5.35-5.77 5.3-6.2 4.64-5.93z" fill="#494949"/><path d="M652.23 543.52l1.52 1.14-.65.83-1.57-1.25.62-.8zM372.73 533.26l-6.83 6.27-6.24-13.65z" fill="#494949"/><path d="M374.42 533.06l-8.86 8.14-8.08-17.7zm-8.2 4.8l4.82-4.4-9.2-5.2z" fill="#494949"/><use xlink:href="#i" transform="matrix(1,0,0,1,436.6133033636554,601.3530229984965) translate(0 14.4)"/><use xlink:href="#j" transform="matrix(1,0,0,1,436.6133033636554,601.3530229984965) translate(46.85 14.4)"/><use xlink:href="#k" transform="matrix(1,0,0,1,436.6133033636554,601.3530229984965) translate(132.8 14.4)"/><path d="M1000 420h200v100h-200z" fill="#fff"/><path d="M1000 420h200m0 100h-200" stroke="#494949" stroke-width="2" fill="#fff"/><use xlink:href="#l" transform="matrix(1,0,0,1,1020,420) translate(13.049999999999997 42.8)"/><use xlink:href="#m" transform="matrix(1,0,0,1,1020,420) translate(80.05 42.8)"/><use xlink:href="#n" transform="matrix(1,0,0,1,1020,420) translate(67.525 64.4)"/><path d="M980.85 341.44l6.62 2.6 6.6 2.9 6.57 3.23 6.56 3.57 6.56 3.94 6.56 4.32 6.56 4.73 6.58 5.17 6.6 5.65 6.62 6.17 6.65 6.74 6.67 7.35 4.87 5.86-1.53 1.28-4.85-5.8-6.63-7.3-6.58-6.68-6.57-6.1-6.54-5.6-6.52-5.13-6.5-4.68-6.48-4.28-6.5-3.9-6.48-3.52-6.5-3.2-6.5-2.87-6.56-2.56-5.7-1.96v-2.12zm-95.7-3.9l-2.5.56-7.54 1.97-7.62 2.33-7.7 2.72-7.74 3.1-7.8 3.5-7.82 3.94-7.84 4.35-7.84 4.8-7.82 5.24-7.76 5.7-7.68 6.13-7.57 6.6-7.43 7.03-6.6 6.8-1.43-1.4 6.62-6.82 7.5-7.1 7.64-6.65 7.75-6.2 7.83-5.73 7.88-5.28 7.9-4.84 7.93-4.4 7.9-3.96 7.86-3.54 7.83-3.14 7.76-2.74 7.7-2.36 7.63-2 2.96-.63z" fill="#494949"/><path d="M775.9 402.27l-.7.72-1.47-1.37.73-.75zM1073.37 416.43l-12.34-8.53 7.36-5.62z" fill="#494949"/><path d="M1075.33 419l-16-11.06 9.55-7.3zm-12.6-11.14l8.68 6-3.5-9.95z" fill="#494949"/><use xlink:href="#o" transform="matrix(1,0,0,1,885.1555584938853,321.5913093852481) translate(0 14.4)"/><use xlink:href="#p" transform="matrix(1,0,0,1,885.1555584938853,321.5913093852481) translate(40.35 14.4)"/><path d="M785.74 553.18l6.22 5.75 6.54 5.55 6.83 5.34 7.13 5.1 7.4 4.82 7.62 4.54 7.85 4.23 8.02 3.92 8.17 3.56 8.27 3.2 8.33 2.83 8.37 2.47 8.36 2.08 4.1.84v2.03l-4.55-.93-8.43-2.1-8.44-2.48-8.42-2.86-8.34-3.23-8.25-3.6-8.1-3.94-7.9-4.28-7.7-4.58-7.47-4.88-7.2-5.14-6.9-5.38-6.6-5.6-6.28-5.82-.44-.44 1.43-1.4zm288.7-30.83l-3.2 6.2-3.8 6.7-3.92 6.3-4.06 5.95-4.2 5.6-4.3 5.3-4.43 5-4.57 4.74-4.7 4.47-4.8 4.24-4.97 4-5.1 3.76-5.26 3.55-5.4 3.32-5.55 3.1-5.73 2.9-5.9 2.68-6.05 2.46-6.25 2.24-6.44 2-3.96 1.05v-2.08l3.4-.9 6.37-1.98 6.17-2.2 6-2.43 5.8-2.63 5.65-2.85 5.48-3.07 5.33-3.28 5.18-3.5 5.03-3.72 4.9-3.94 4.75-4.16 4.63-4.42 4.5-4.67 4.4-4.94 4.25-5.22 4.13-5.54 4.02-5.87 3.88-6.23 3.75-6.62 3.17-6.18z" fill="#494949"/><path d="M1074.42 522.37l-1.78-.9.24-.47h2.24zM787.32 549.57l-6.75 6.36-6.4-13.57z" fill="#494949"/><path d="M789 549.36l-8.75 8.24-8.3-17.6zm-8.12 4.9l4.75-4.47-9.25-5.08z" fill="#494949"/><g><use xlink:href="#q" transform="matrix(1,0,0,1,888.971908828772,601.5828838073351) translate(0 14.4)"/><use xlink:href="#r" transform="matrix(1,0,0,1,888.971908828772,601.5828838073351) translate(55.900000000000006 14.4)"/></g><path d="M501 739h-2v-19.2h2zm0-38.37h-2v-38.37h2zm0-57.56h-2v-20.12h2zm0-57.55h-2v-38.37h2zm0-57.56h-2V490.8h2zm0-58.76h-2v-37.16h2zm0-56.35h-2v-38.37h2zm0-57.55h-2v-20.07h2zm0-57.56h-2v-38.37h2zm0-57.55h-2V221h2z" fill="#ff8f80"/><path d="M501 740h-2v-1.03h2zM501 221.03h-2V220h2z" fill="#ff8f80"/><g><use xlink:href="#s" transform="matrix(1,0,0,1,428.55,469.2) translate(0 14.4)"/><use xlink:href="#t" transform="matrix(1,0,0,1,428.55,469.2) translate(65.95 14.4)"/></g><defs><path d="M23 0v-37h61v-169l-59 37v-38l62-41h46v211h57V0H23" id="u"/><path d="M24 0v-54h51V0H24" id="v"/><path d="M101-251c68 0 84 54 84 127C185-50 166 4 99 4S15-52 14-124c-1-75 17-127 87-127zm-1 216c37-5 36-46 36-89s4-89-36-89c-39 0-36 45-36 89 0 43-3 85 36 89" id="w"/><g id="a"><use transform="matrix(0.05,0,0,0.05,0,0)" xlink:href="#u"/><use transform="matrix(0.05,0,0,0.05,10,0)" xlink:href="#v"/><use transform="matrix(0.05,0,0,0.05,15,0)" xlink:href="#w"/></g><path d="M67-125c0 53 21 87 73 88 37 1 54-22 65-47l45 17C233-25 199 4 140 4 58 4 20-42 15-125 8-235 124-281 211-232c18 10 29 29 36 50l-46 12c-8-25-30-41-62-41-52 0-71 34-72 86" id="x"/><path d="M133-34C117-15 103 5 69 4 32 3 11-16 11-54c-1-60 55-63 116-61 1-26-3-47-28-47-18 1-26 9-28 27l-52-2c7-38 36-58 82-57s74 22 75 68l1 82c-1 14 12 18 25 15v27c-30 8-71 5-69-32zm-48 3c29 0 43-24 42-57-32 0-66-3-65 30 0 17 8 27 23 27" id="y"/><path d="M135-194c87-1 58 113 63 194h-50c-7-57 23-157-34-157-59 0-34 97-39 157H25l-1-190h47c2 12-1 28 3 38 12-26 28-41 61-42" id="z"/><path d="M128 0H69L1-190h53L99-40l48-150h52" id="A"/><path d="M137-138c1-29-70-34-71-4 15 46 118 7 119 86 1 83-164 76-172 9l43-7c4 19 20 25 44 25 33 8 57-30 24-41C81-84 22-81 20-136c-2-80 154-74 161-7" id="B"/><g id="b"><use transform="matrix(0.05,0,0,0.05,0,0)" xlink:href="#x"/><use transform="matrix(0.05,0,0,0.05,12.950000000000001,0)" xlink:href="#y"/><use transform="matrix(0.05,0,0,0.05,22.950000000000003,0)" xlink:href="#z"/><use transform="matrix(0.05,0,0,0.05,33.900000000000006,0)" xlink:href="#A"/><use transform="matrix(0.05,0,0,0.05,43.900000000000006,0)" xlink:href="#y"/><use transform="matrix(0.05,0,0,0.05,53.900000000000006,0)" xlink:href="#B"/></g><path d="M275 0h-61l-44-196L126 0H64L0-248h53L97-49l45-199h58l43 199 44-199h52" id="C"/><path d="M185-48c-13 30-37 53-82 52C43 2 14-33 14-96s30-98 90-98c62 0 83 45 84 108H66c0 31 8 55 39 56 18 0 30-7 34-22zm-45-69c5-46-57-63-70-21-2 6-4 13-4 21h74" id="D"/><path d="M135-194c52 0 70 43 70 98 0 56-19 99-73 100-30 1-46-15-58-35L72 0H24l1-261h50v104c11-23 29-37 60-37zM114-30c31 0 40-27 40-66 0-37-7-63-39-63s-41 28-41 65c0 36 8 64 40 64" id="E"/><g id="c"><use transform="matrix(0.05,0,0,0.05,0,0)" xlink:href="#C"/><use transform="matrix(0.05,0,0,0.05,16.599999999999998,0)" xlink:href="#D"/><use transform="matrix(0.05,0,0,0.05,26.599999999999994,0)" xlink:href="#E"/></g><path d="M199 0l-22-63H83L61 0H9l90-248h61L250 0h-51zm-33-102l-36-108c-10 38-24 72-36 108h72" id="F"/><path d="M135-194c53 0 70 44 70 98 0 56-19 98-73 100-31 1-45-17-59-34 3 33 2 69 2 105H25l-1-265h48c2 10 0 23 3 31 11-24 29-35 60-35zM114-30c33 0 39-31 40-66 0-38-9-64-40-64-56 0-55 130 0 130" id="G"/><g id="d"><use transform="matrix(0.05,0,0,0.05,0,0)" xlink:href="#F"/><use transform="matrix(0.05,0,0,0.05,12.950000000000001,0)" xlink:href="#G"/><use transform="matrix(0.05,0,0,0.05,23.900000000000002,0)" xlink:href="#G"/></g><path fill="#494949" d="M169-182c-1-43-94-46-97-3 18 66 151 10 154 114 3 95-165 93-204 36-6-8-10-19-12-30l50-8c3 46 112 56 116 5-17-69-150-10-154-114-4-87 153-88 188-35 5 8 8 18 10 28" id="H"/><path fill="#494949" d="M115-3C79 11 28 4 28-45v-112H4v-33h27l15-45h31v45h36v33H77v99c-1 23 16 31 38 25v30" id="I"/><path fill="#494949" d="M85 4C-2 5 27-109 22-190h50c7 57-23 150 33 157 60-5 35-97 40-157h50l1 190h-47c-2-12 1-28-3-38-12 25-28 42-61 42" id="J"/><path fill="#494949" d="M88-194c31-1 46 15 58 34l-1-101h50l1 261h-48c-2-10 0-23-3-31C134-8 116 4 84 4 32 4 16-41 15-95c0-56 19-97 73-99zm17 164c33 0 40-30 41-66 1-37-9-64-41-64s-38 30-39 65c0 43 13 65 39 65" id="K"/><path fill="#494949" d="M185-48c-13 30-37 53-82 52C43 2 14-33 14-96s30-98 90-98c62 0 83 45 84 108H66c0 31 8 55 39 56 18 0 30-7 34-22zm-45-69c5-46-57-63-70-21-2 6-4 13-4 21h74" id="L"/><path fill="#494949" d="M135-194c87-1 58 113 63 194h-50c-7-57 23-157-34-157-59 0-34 97-39 157H25l-1-190h47c2 12-1 28 3 38 12-26 28-41 61-42" id="M"/><g id="e"><use transform="matrix(0.05,0,0,0.05,0,0)" xlink:href="#H"/><use transform="matrix(0.05,0,0,0.05,12,0)" xlink:href="#I"/><use transform="matrix(0.05,0,0,0.05,17.95,0)" xlink:href="#J"/><use transform="matrix(0.05,0,0,0.05,28.899999999999995,0)" xlink:href="#K"/><use transform="matrix(0.05,0,0,0.05,39.85,0)" xlink:href="#L"/><use transform="matrix(0.05,0,0,0.05,49.85,0)" xlink:href="#M"/><use transform="matrix(0.05,0,0,0.05,60.800000000000004,0)" xlink:href="#I"/></g><path fill="#494949" d="M76-208v77h127v40H76V0H24v-248h183v40H76" id="N"/><path fill="#494949" d="M110-194c64 0 96 36 96 99 0 64-35 99-97 99-61 0-95-36-95-99 0-62 34-99 96-99zm-1 164c35 0 45-28 45-65 0-40-10-65-43-65-34 0-45 26-45 65 0 36 10 65 43 65" id="O"/><path fill="#494949" d="M135-150c-39-12-60 13-60 57V0H25l-1-190h47c2 13-1 29 3 40 6-28 27-53 61-41v41" id="P"/><path fill="#494949" d="M220-157c-53 9-28 100-34 157h-49v-107c1-27-5-49-29-50C55-147 81-57 75 0H25l-1-190h47c2 12-1 28 3 38 10-53 101-56 108 0 13-22 24-43 59-42 82 1 51 116 57 194h-49v-107c-1-25-5-48-29-50" id="Q"/><g id="f"><use transform="matrix(0.05,0,0,0.05,0,0)" xlink:href="#N"/><use transform="matrix(0.05,0,0,0.05,10.950000000000001,0)" xlink:href="#O"/><use transform="matrix(0.05,0,0,0.05,21.900000000000002,0)" xlink:href="#P"/><use transform="matrix(0.05,0,0,0.05,28.900000000000002,0)" xlink:href="#Q"/></g><path fill="#494949" d="M240-174c0 40-23 61-54 70L253 0h-59l-57-94H76V0H24v-248c93 4 217-23 216 74zM76-134c48-2 112 12 112-38 0-48-66-32-112-35v73" id="R"/><path fill="#494949" d="M84 4C32 4 15-41 15-95c0-55 18-99 73-99 29 0 47 12 58 34l2-30h48l-1 265h-49V-32C136-9 114 4 84 4zm21-34c32 0 41-29 41-66 0-36-9-64-40-64-33 0-39 30-40 65 0 43 13 65 39 65" id="S"/><path fill="#494949" d="M137-138c1-29-70-34-71-4 15 46 118 7 119 86 1 83-164 76-172 9l43-7c4 19 20 25 44 25 33 8 57-30 24-41C81-84 22-81 20-136c-2-80 154-74 161-7" id="T"/><g id="g"><use transform="matrix(0.05,0,0,0.05,0,0)" xlink:href="#R"/><use transform="matrix(0.05,0,0,0.05,12.950000000000001,0)" xlink:href="#L"/><use transform="matrix(0.05,0,0,0.05,22.950000000000003,0)" xlink:href="#S"/><use transform="matrix(0.05,0,0,0.05,33.900000000000006,0)" xlink:href="#J"/><use transform="matrix(0.05,0,0,0.05,44.85000000000001,0)" xlink:href="#L"/><use transform="matrix(0.05,0,0,0.05,54.85,0)" xlink:href="#T"/><use transform="matrix(0.05,0,0,0.05,64.85000000000001,0)" xlink:href="#I"/></g><path fill="#494949" d="M24-248c120-7 223 5 221 122C244-46 201 0 124 0H24v-248zM76-40c74 7 117-18 117-86 0-67-45-88-117-82v168" id="U"/><path fill="#494949" d="M133-34C117-15 103 5 69 4 32 3 11-16 11-54c-1-60 55-63 116-61 1-26-3-47-28-47-18 1-26 9-28 27l-52-2c7-38 36-58 82-57s74 22 75 68l1 82c-1 14 12 18 25 15v27c-30 8-71 5-69-32zm-48 3c29 0 43-24 42-57-32 0-66-3-65 30 0 17 8 27 23 27" id="V"/><g id="h"><use transform="matrix(0.05,0,0,0.05,0,0)" xlink:href="#U"/><use transform="matrix(0.05,0,0,0.05,12.950000000000001,0)" xlink:href="#V"/><use transform="matrix(0.05,0,0,0.05,22.950000000000003,0)" xlink:href="#I"/><use transform="matrix(0.05,0,0,0.05,28.900000000000002,0)" xlink:href="#V"/></g><path fill="#494949" d="M63-220v92h138v28H63V0H30v-248h175v28H63" id="W"/><path fill="#494949" d="M100-194c62-1 85 37 85 99 1 63-27 99-86 99S16-35 15-95c0-66 28-99 85-99zM99-20c44 1 53-31 53-75 0-43-8-75-51-75s-53 32-53 75 10 74 51 75" id="X"/><path fill="#494949" d="M114-163C36-179 61-72 57 0H25l-1-190h30c1 12-1 29 2 39 6-27 23-49 58-41v29" id="Y"/><path fill="#494949" d="M210-169c-67 3-38 105-44 169h-31v-121c0-29-5-50-35-48C34-165 62-65 56 0H25l-1-190h30c1 10-1 24 2 32 10-44 99-50 107 0 11-21 27-35 58-36 85-2 47 119 55 194h-31v-121c0-29-5-49-35-48" id="Z"/><g id="i"><use transform="matrix(0.05,0,0,0.05,0,0)" xlink:href="#W"/><use transform="matrix(0.05,0,0,0.05,10.950000000000001,0)" xlink:href="#X"/><use transform="matrix(0.05,0,0,0.05,20.950000000000003,0)" xlink:href="#Y"/><use transform="matrix(0.05,0,0,0.05,26.900000000000002,0)" xlink:href="#Z"/></g><path fill="#494949" d="M233-177c-1 41-23 64-60 70L243 0h-38l-65-103H63V0H30v-248c88 3 205-21 203 71zM63-129c60-2 137 13 137-47 0-61-80-42-137-45v92" id="aa"/><path fill="#494949" d="M100-194c63 0 86 42 84 106H49c0 40 14 67 53 68 26 1 43-12 49-29l28 8c-11 28-37 45-77 45C44 4 14-33 15-96c1-61 26-98 85-98zm52 81c6-60-76-77-97-28-3 7-6 17-6 28h103" id="ab"/><path fill="#494949" d="M135-143c-3-34-86-38-87 0 15 53 115 12 119 90S17 21 10-45l28-5c4 36 97 45 98 0-10-56-113-15-118-90-4-57 82-63 122-42 12 7 21 19 24 35" id="ac"/><path fill="#494949" d="M115-194c55 1 70 41 70 98S169 2 115 4C84 4 66-9 55-30l1 105H24l-1-265h31l2 30c10-21 28-34 59-34zm-8 174c40 0 45-34 45-75s-6-73-45-74c-42 0-51 32-51 76 0 43 10 73 51 73" id="ad"/><path fill="#494949" d="M117-194c89-4 53 116 60 194h-32v-121c0-31-8-49-39-48C34-167 62-67 57 0H25l-1-190h30c1 10-1 24 2 32 11-22 29-35 61-36" id="ae"/><g id="j"><use transform="matrix(0.05,0,0,0.05,0,0)" xlink:href="#aa"/><use transform="matrix(0.05,0,0,0.05,12.950000000000001,0)" xlink:href="#ab"/><use transform="matrix(0.05,0,0,0.05,22.950000000000003,0)" xlink:href="#ac"/><use transform="matrix(0.05,0,0,0.05,31.950000000000003,0)" xlink:href="#ad"/><use transform="matrix(0.05,0,0,0.05,41.95,0)" xlink:href="#X"/><use transform="matrix(0.05,0,0,0.05,51.95,0)" xlink:href="#ae"/><use transform="matrix(0.05,0,0,0.05,61.95,0)" xlink:href="#ac"/><use transform="matrix(0.05,0,0,0.05,70.95,0)" xlink:href="#ab"/></g><path fill="#494949" d="M30-248c118-7 216 8 213 122C240-48 200 0 122 0H30v-248zM63-27c89 8 146-16 146-99s-60-101-146-95v194" id="af"/><path fill="#494949" d="M141-36C126-15 110 5 73 4 37 3 15-17 15-53c-1-64 63-63 125-63 3-35-9-54-41-54-24 1-41 7-42 31l-33-3c5-37 33-52 76-52 45 0 72 20 72 64v82c-1 20 7 32 28 27v20c-31 9-61-2-59-35zM48-53c0 20 12 33 32 33 41-3 63-29 60-74-43 2-92-5-92 41" id="ag"/><path fill="#494949" d="M59-47c-2 24 18 29 38 22v24C64 9 27 4 27-40v-127H5v-23h24l9-43h21v43h35v23H59v120" id="ah"/><g id="k"><use transform="matrix(0.05,0,0,0.05,0,0)" xlink:href="#af"/><use transform="matrix(0.05,0,0,0.05,12.950000000000001,0)" xlink:href="#ag"/><use transform="matrix(0.05,0,0,0.05,22.950000000000003,0)" xlink:href="#ah"/><use transform="matrix(0.05,0,0,0.05,27.950000000000003,0)" xlink:href="#ag"/></g><path fill="#494949" d="M185-189c-5-48-123-54-124 2 14 75 158 14 163 119 3 78-121 87-175 55-17-10-28-26-33-46l33-7c5 56 141 63 141-1 0-78-155-14-162-118-5-82 145-84 179-34 5 7 8 16 11 25" id="ai"/><path fill="#494949" d="M84 4C-5 8 30-112 23-190h32v120c0 31 7 50 39 49 72-2 45-101 50-169h31l1 190h-30c-1-10 1-25-2-33-11 22-28 36-60 37" id="aj"/><path fill="#494949" d="M85-194c31 0 48 13 60 33l-1-100h32l1 261h-30c-2-10 0-23-3-31C134-8 116 4 85 4 32 4 16-35 15-94c0-66 23-100 70-100zm9 24c-40 0-46 34-46 75 0 40 6 74 45 74 42 0 51-32 51-76 0-42-9-74-50-73" id="ak"/><g id="l"><use transform="matrix(0.05,0,0,0.05,0,0)" xlink:href="#ai"/><use transform="matrix(0.05,0,0,0.05,12,0)" xlink:href="#ah"/><use transform="matrix(0.05,0,0,0.05,17,0)" xlink:href="#aj"/><use transform="matrix(0.05,0,0,0.05,27,0)" xlink:href="#ak"/><use transform="matrix(0.05,0,0,0.05,37,0)" xlink:href="#ab"/><use transform="matrix(0.05,0,0,0.05,47,0)" xlink:href="#ae"/><use transform="matrix(0.05,0,0,0.05,57,0)" xlink:href="#ah"/></g><path fill="#494949" d="M96-169c-40 0-48 33-48 73s9 75 48 75c24 0 41-14 43-38l32 2c-6 37-31 61-74 61-59 0-76-41-82-99-10-93 101-131 147-64 4 7 5 14 7 22l-32 3c-4-21-16-35-41-35" id="al"/><g id="m"><use transform="matrix(0.05,0,0,0.05,0,0)" xlink:href="#aa"/><use transform="matrix(0.05,0,0,0.05,12.950000000000001,0)" xlink:href="#ab"/><use transform="matrix(0.05,0,0,0.05,22.950000000000003,0)" xlink:href="#al"/><use transform="matrix(0.05,0,0,0.05,31.950000000000003,0)" xlink:href="#X"/><use transform="matrix(0.05,0,0,0.05,41.95,0)" xlink:href="#Y"/><use transform="matrix(0.05,0,0,0.05,47.900000000000006,0)" xlink:href="#ak"/><use transform="matrix(0.05,0,0,0.05,57.900000000000006,0)" xlink:href="#ac"/></g><path fill="#494949" d="M160-131c35 5 61 23 61 61C221 17 115-2 30 0v-248c76 3 177-17 177 60 0 33-19 50-47 57zm-97-11c50-1 110 9 110-42 0-47-63-36-110-37v79zm0 115c55-2 124 14 124-45 0-56-70-42-124-44v89" id="am"/><g id="n"><use transform="matrix(0.05,0,0,0.05,0,0)" xlink:href="#af"/><use transform="matrix(0.05,0,0,0.05,12.950000000000001,0)" xlink:href="#am"/></g><path fill="#494949" d="M140-251c81 0 123 46 123 126C263-53 228-8 163 1c7 30 30 48 69 40v23c-55 16-95-15-103-61C56-3 17-48 17-125c0-80 42-126 123-126zm0 227c63 0 89-41 89-101s-29-99-89-99c-61 0-89 39-89 99S79-25 140-24" id="an"/><path fill="#494949" d="M30 0v-248h33v221h125V0H30" id="ao"/><g id="o"><use transform="matrix(0.05,0,0,0.05,0,0)" xlink:href="#ai"/><use transform="matrix(0.05,0,0,0.05,12,0)" xlink:href="#an"/><use transform="matrix(0.05,0,0,0.05,26,0)" xlink:href="#ao"/></g><path fill="#494949" d="M179-190L93 31C79 59 56 82 12 73V49c39 6 53-20 64-50L1-190h34L92-34l54-156h33" id="ap"/><g id="p"><use transform="matrix(0.05,0,0,0.05,0,0)" xlink:href="#an"/><use transform="matrix(0.05,0,0,0.05,14,0)" xlink:href="#aj"/><use transform="matrix(0.05,0,0,0.05,24,0)" xlink:href="#ab"/><use transform="matrix(0.05,0,0,0.05,34,0)" xlink:href="#Y"/><use transform="matrix(0.05,0,0,0.05,39.95,0)" xlink:href="#ap"/></g><path fill="#494949" d="M24 0v-261h32V0H24" id="aq"/><g id="q"><use transform="matrix(0.05,0,0,0.05,0,0)" xlink:href="#aa"/><use transform="matrix(0.05,0,0,0.05,12.950000000000001,0)" xlink:href="#ab"/><use transform="matrix(0.05,0,0,0.05,22.950000000000003,0)" xlink:href="#ac"/><use transform="matrix(0.05,0,0,0.05,31.950000000000003,0)" xlink:href="#aj"/><use transform="matrix(0.05,0,0,0.05,41.95,0)" xlink:href="#aq"/><use transform="matrix(0.05,0,0,0.05,45.900000000000006,0)" xlink:href="#ah"/></g><g id="r"><use transform="matrix(0.05,0,0,0.05,0,0)" xlink:href="#ai"/><use transform="matrix(0.05,0,0,0.05,12,0)" xlink:href="#ab"/><use transform="matrix(0.05,0,0,0.05,22,0)" xlink:href="#ah"/></g><path fill="#494949" d="M33 0v-248h34V0H33" id="ar"/><g id="s"><use transform="matrix(0.05,0,0,0.05,0,0)" xlink:href="#ar"/><use transform="matrix(0.05,0,0,0.05,5,0)" xlink:href="#ae"/><use transform="matrix(0.05,0,0,0.05,15,0)" xlink:href="#ah"/><use transform="matrix(0.05,0,0,0.05,20,0)" xlink:href="#ab"/><use transform="matrix(0.05,0,0,0.05,30,0)" xlink:href="#Y"/><use transform="matrix(0.05,0,0,0.05,35.95,0)" xlink:href="#ae"/><use transform="matrix(0.05,0,0,0.05,45.95,0)" xlink:href="#ab"/><use transform="matrix(0.05,0,0,0.05,55.95,0)" xlink:href="#ah"/></g><g id="t"><use transform="matrix(0.05,0,0,0.05,0,0)" xlink:href="#am"/><use transform="matrix(0.05,0,0,0.05,12,0)" xlink:href="#X"/><use transform="matrix(0.05,0,0,0.05,22,0)" xlink:href="#aj"/><use transform="matrix(0.05,0,0,0.05,32,0)" xlink:href="#ae"/><use transform="matrix(0.05,0,0,0.05,42,0)" xlink:href="#ak"/><use transform="matrix(0.05,0,0,0.05,52,0)" xlink:href="#ag"/><use transform="matrix(0.05,0,0,0.05,62,0)" xlink:href="#Y"/><use transform="matrix(0.05,0,0,0.05,67.95,0)" xlink:href="#ap"/></g></defs></g></svg>