<svg xmlns="http://www.w3.org/2000/svg" xmlns:xlink="http://www.w3.org/1999/xlink" xmlns:lucid="lucid" width="859" height="618"><g transform="translate(-255 -988)" lucid:page-tab-id="y3OJzS_9pOpF"><path d="M0 0h1360v1760H0z" fill="#fff"/><path d="M780 1350c0 49.7-40.3 90-90 90s-90-40.3-90-90 40.3-90 90-90 90 40.3 90 90z" stroke="#000" stroke-width="2" fill="#fff"/><use xlink:href="#a" transform="matrix(1,0,0,1,620,1260) translate(57.5 72)"/><use xlink:href="#b" transform="matrix(1,0,0,1,620,1260) translate(28.025 93.60000000000001)"/><use xlink:href="#c" transform="matrix(1,0,0,1,620,1260) translate(55.5 115.20000000000002)"/><path d="M320 1100h160v120H320z" stroke="#494949" stroke-width="2" fill="#fff"/><use xlink:href="#d" transform="matrix(1,0,0,1,325,1105) translate(42.05 47.8)"/><use xlink:href="#e" transform="matrix(1,0,0,1,325,1105) translate(31.074999999999996 69.4)"/><path d="M880 1100h160v120H880z" stroke="#494949" stroke-width="2" fill="#fff"/><use xlink:href="#f" transform="matrix(1,0,0,1,885,1105) translate(8.099999999999994 47.8)"/><use xlink:href="#g" transform="matrix(1,0,0,1,885,1105) translate(59.05 47.8)"/><use xlink:href="#h" transform="matrix(1,0,0,1,885,1105) translate(60.5 69.4)"/><path d="M620.5 1225.5l3.56 8 3.87 9.78 4.3 12.38.66 2.22-1.92.57-.66-2.17-4.27-12.3-3.83-9.7-3.52-7.92-2.34-4.72h2.23zm-113.9-66.03l14.45.88 10.36 1.08 8.16 1.2 6.75 1.28 5.8 1.37 5.08 1.42 4.57 1.47 4.15 1.54 3.83 1.62 3.57 1.68 3.37 1.76 3.2 1.85 3.06 1.95 2.95 2.05 2.87 2.18 2.8 2.32 2.78 2.5 2.74 2.68 2.73 2.9 2.75 3.2 2.77 3.5.12.16h-2.54l-1.9-2.4-2.7-3.1-2.66-2.86-2.68-2.63-2.7-2.43-2.75-2.27-2.8-2.13-2.88-2-3-1.9-3.12-1.8-3.3-1.73-3.48-1.65-3.76-1.58-4.07-1.5-4.5-1.47-5-1.4-5.7-1.33-6.68-1.27-8.06-1.18-10.27-1.07-14.38-.9-24.54-.43.04-2z" fill="#494949"/><path d="M482.05 1159.02l-.04 2-1-.02v-2zM636.26 1272.8l-8.5-12.36 8.9-2.63z" fill="#494949"/><path d="M637.18 1275.9l-11-16.03 11.52-3.4zm-7.8-14.9l5.96 8.7.3-10.54z" fill="#494949"/><use xlink:href="#i" transform="matrix(1,0,0,1,565.5641034279311,1200.0399505535304) translate(0 14.4)"/><use xlink:href="#j" transform="matrix(1,0,0,1,565.5641034279311,1200.0399505535304) translate(45 14.4)"/><path d="M447.53 1392.93l-4.57 4.12-4.48 4.38-4.4 4.7-4.35 5.03-4.3 5.43-4.27 5.86-4.25 6.4-4.23 7-3.8 6.94-1.76-.97 3.84-6.97 4.28-7.07 4.3-6.48 4.32-5.94 4.35-5.5 4.4-5.1 4.45-4.75 4.54-4.44 4.62-4.2 2.34-1.92h3.14zm150.5-41.9l-22.75.43-17.3 1.08-13.88 1.45-11.7 1.7-10.16 1.94-9.03 2.12-8.13 2.27-7.44 2.4-6.87 2.57-2.1.88h-5.15l.04-.02 6.5-2.72 6.94-2.6 7.52-2.43 8.22-2.28 9.1-2.13 10.25-1.96 11.78-1.74 13.97-1.46 17.38-1.07 22.78-.45z" fill="#494949"/><path d="M599 1350v1l-1 .02-.05-2 1.08-.02zM411.74 1445.22l-10.34 10.86 1.98-14.87z" fill="#494949"/><path d="M413.4 1444.9L400 1459l2.57-19.28zm-10.6 8.26l7.27-7.64-5.88-2.8z" fill="#494949"/><use xlink:href="#k" transform="matrix(1,0,0,1,419.87305185362254,1367.878059952879) translate(0 14.4)"/><use xlink:href="#j" transform="matrix(1,0,0,1,419.87305185362254,1367.878059952879) translate(43.9 14.4)"/><path d="M537.02 1505.6l-3.98 1.12-5.75 1.35-5.68 1.08-5.57.83-5.47.57-5.35.34-4.2.08-.05-2 4.17-.1 5.26-.32 5.4-.57 5.5-.82 5.57-1.06 5.67-1.33 4.48-1.27zm87.45-69.22l-.6 1.18-2.26 4.12-2.5 4.16-2.8 4.2-3.05 4.2-3.33 4.2-3.62 4.2-3.9 4.16-4.2 4.1-4.48 4.03-4.73 3.92-5 3.78-5.2 3.6-3.83 2.45v-1.83h-.85l3.58-2.27 5.13-3.57 4.92-3.72 4.67-3.86 4.4-3.97 4.14-4.05 3.85-4.1 3.58-4.13 3.28-4.14 3-4.14 2.74-4.13 2.48-4.1 2.23-4.04.57-1.14z" fill="#494949"/><path d="M501.05 1510.98l-1.05.02v-2l1-.02zM628.23 1436.76l-8.6-3.45 9.62-11.5z" fill="#494949"/><path d="M629.14 1438.2l-11.16-4.48 12.47-14.93zm-7.86-5.3l6.05 2.42.7-10.52z" fill="#494949"/><use xlink:href="#l" transform="matrix(1,0,0,1,537.0244594164575,1486.8464810498651) translate(0 14.4)"/><path d="M756.45 1202.9l-3.85 3.82-3.7 4-3.53 4.17-3.4 4.36-3.28 4.58-3.14 4.8-3 5.07-2.9 5.35-2.74 5.66-2.6 6-2.48 6.4-2 5.88-1.88-.64 2-5.93 2.5-6.46 2.64-6.07 2.8-5.73 2.9-5.42 3.06-5.13 3.18-4.9 3.32-4.64 3.45-4.43 3.6-4.24 3.76-4.07 3.9-3.9.64-.56h2.96zm104.14-41.22l-5.36.38-9.55 1.1-8.88 1.37-8.26 1.64-7.7 1.88-7.22 2.07-6.75 2.26-6.37 2.42-5.98 2.57-3.94 1.9h-4.4l1.8-.96 5.72-2.75 6.06-2.6 6.43-2.45 6.85-2.3 7.3-2.1 7.78-1.88 8.34-1.66 8.95-1.4 9.64-1.1 5.38-.37z" fill="#494949"/><path d="M719.86 1262.95l-.33.96-1.9-.6.33-1zM875.77 1160.12l-14.1 5.16-.33-9.26z" fill="#494949"/><path d="M879 1160l-18.27 6.7-.44-12.02zm-16.37 3.87l9.9-3.63-10.14-2.88z" fill="#494949"/><use xlink:href="#f" transform="matrix(1,0,0,1,726.0180199757834,1179.2668982819414) translate(0 14.4)"/><use xlink:href="#m" transform="matrix(1,0,0,1,726.0180199757834,1179.2668982819414) translate(50.95 14.4)"/><path d="M870.68 1393.15l2.04 1 2.24 1.23 2.16 1.37 2.07 1.5 2 1.64 1.95 1.8 1.9 1.96 1.88 2.17 1.84 2.4 1.8 2.7 1.78 3.02 1.75 3.4 1.72 3.9 1.67 4.5 1.6 5.22 1.5 6.18 1.34 7.4 1.1 9.03.68 11.2.03 13.22h-2l-.03-13.14-.68-11.1-1.08-8.9-1.32-7.3-1.48-6.06-1.57-5.12-1.63-4.38-1.67-3.78-1.7-3.3-1.72-2.92-1.74-2.6-1.76-2.3-1.8-2.1-1.82-1.88-1.87-1.72-1.93-1.56-1.98-1.43-2.06-1.3-2.14-1.2-1.94-.93-4.65-1.96h5.15zm-73.13-21.5l5.94.76v2.03l-6.15-.8-.72-.05.15-2z" fill="#494949"/><path d="M903.75 1479h-2v-1.02h2zM795.64 1377.2l-14.18-4.9 14.35-4.37z" fill="#494949"/><path d="M796.62 1378.6l-18.4-6.36 18.62-5.67zm-11.92-6.24l9.97 3.44.12-6.5z" fill="#494949"/><use xlink:href="#n" transform="matrix(1,0,0,1,803.4921986234219,1371.4083258110836) translate(0 14.4)"/><use xlink:href="#o" transform="matrix(1,0,0,1,803.4921986234219,1371.4083258110836) translate(43.95 14.4)"/><path d="M753.63 1481.97l4.16 8.6 3.83 7 3.47 5.62 3.1 4.47 2.8 3.6 2.5 2.9 2.24 2.35 2.04 1.93 1.86 1.58 1.72 1.3 1.58 1.08 1.48.9.1.06 13.94 7.4 9.16 4.07 7.85 2.9 7.53 2.2 7.8 1.74 8.58 1.33 2.24.2-.18 2-2.3-.22-8.72-1.34-7.92-1.77-7.66-2.25-7.98-2.94-9.28-4.13-14.03-7.43-.14-.08-1.55-.95-1.67-1.15-1.8-1.36-1.93-1.66-2.12-2-2.32-2.43-2.56-2.96-2.84-3.68-3.17-4.57-3.53-5.7-3.9-7.1-4.2-8.7-1.8-4.3h2.17zm-14.8-44.67l2.7 10.92 2.64 8.67h-2.1l-2.46-8.15-2.7-11.02-1.58-8.12 1.96-.37z" fill="#494949"/><path d="M737.3 1429.25l-1.98.38-.12-.65 1.82-1.1zM856.77 1545l-14.5 3.87.5-9.26z" fill="#494949"/><path d="M860 1545.16l-18.8 5.03.64-12zm-16.65 2.4l10.2-2.74-9.86-3.78z" fill="#494949"/><use xlink:href="#p" transform="matrix(1,0,0,1,705.934783330674,1456.8879170124392) translate(0 14.4)"/><use xlink:href="#q" transform="matrix(1,0,0,1,705.934783330674,1456.8879170124392) translate(33.85 14.4)"/><path d="M860 1480h200v100H860z" fill="#fff"/><path d="M860 1480h200m0 100H860" stroke="#494949" stroke-width="2" fill="#fff"/><use xlink:href="#p" transform="matrix(1,0,0,1,880,1480) translate(33.099999999999994 53.6)"/><use xlink:href="#r" transform="matrix(1,0,0,1,880,1480) translate(66.94999999999999 53.6)"/><path d="M300 1460h200v100H300z" fill="#fff"/><path d="M300 1460h200m0 100H300" stroke="#494949" stroke-width="2" fill="#fff"/><use xlink:href="#s" transform="matrix(1,0,0,1,320,1460) translate(47.074999999999996 53.6)"/><path d="M512 1245.22l-10.6 14.56-1.62-1.18 10.6-14.56zm31.75-43.68l-21.17 29.12-1.62-1.18 21.17-29.1zm31.77-43.67l-21.18 29.1-1.62-1.16 20.45-28.1h2.1zm31.76-43.68l-.22.3h-2.48l1.08-1.5zm31.76-43.7l-21.17 29.13-1.62-1.17 21.18-29.12zm21.18-29.1l-10.6 14.56-1.6-1.18 10.58-14.56z" fill="#ff8f80"/><path d="M501.4 1259.76l-.6.82-1.6-1.17.6-.82zM660.8 1040.6l-.6.82-1.6-1.18.6-.83z" fill="#ff8f80"/><g><use xlink:href="#t" transform="matrix(1,0,0,1,551.6368513828675,1114.4962043485575) translate(0 14.4)"/><use xlink:href="#u" transform="matrix(1,0,0,1,551.6368513828675,1114.4962043485575) translate(0 36)"/></g><path d="M620.45 1538.66l-1.8.9-9.92-19.86 1.8-.9zm-19.85-39.7l-1.8.9-19.84-39.7 1.8-.9zm-59.56-119.1l-1.78.9-19.85-39.7 1.8-.9zm-29.77-59.56l-1.8.9-9.92-19.85 1.8-.9z" fill="#ff8f80"/><path d="M501.35 1300.47l-1.78.9-.46-.92 1.8-.9zM620.9 1539.55l-1.8.9-.45-.92 1.8-.9z" fill="#ff8f80"/><g><use xlink:href="#v" transform="matrix(1,0,0,1,521.5258999910001,1398.4017999820003) translate(0 14.4)"/><use xlink:href="#u" transform="matrix(1,0,0,1,521.5258999910001,1398.4017999820003) translate(0 36)"/></g><path d="M773.33 1545.3l-11.92 14.56-1.54-1.27 11.92-14.57zm35.74-43.7l-23.83 29.13-1.55-1.27 23.82-29.12zm11.92-14.56l-1.56-1.27 11.6-14.17h2.58zm59.56-72.82l-11.6 14.18h-2.58l12.63-15.44zm35.75-43.7l-23.82 29.14-1.55-1.27 23.83-29.13zm23.84-29.1l-11.92 14.55-1.55-1.27 11.92-14.56z" fill="#ff8f80"/><path d="M761.43 1559.84l-.65.8-1.55-1.28.65-.8zM940.77 1340.63l-.65.8-1.55-1.27.65-.8z" fill="#ff8f80"/><g><use xlink:href="#w" transform="matrix(1,0,0,1,811.5248499790004,1428.3983500165) translate(27.005000000000003 14.4)"/><use xlink:href="#u" transform="matrix(1,0,0,1,811.5248499790004,1428.3983500165) translate(0.005000000000002558 36)"/></g><defs><path d="M27 0v-27h64v-190l-56 39v-29l58-41h29v221h61V0H27" id="x"/><path d="M33 0v-38h34V0H33" id="y"/><path d="M101-251c68 0 85 55 85 127S166 4 100 4C33 4 14-52 14-124c0-73 17-127 87-127zm-1 229c47 0 54-49 54-102s-4-102-53-102c-51 0-55 48-55 102 0 53 5 102 54 102" id="z"/><g id="a"><use transform="matrix(0.05,0,0,0.05,0,0)" xlink:href="#x"/><use transform="matrix(0.05,0,0,0.05,10,0)" xlink:href="#y"/><use transform="matrix(0.05,0,0,0.05,15,0)" xlink:href="#z"/></g><path d="M30-248c87 1 191-15 191 75 0 78-77 80-158 76V0H30v-248zm33 125c57 0 124 11 124-50 0-59-68-47-124-48v98" id="A"/><path d="M24 0v-261h32V0H24" id="B"/><path d="M141-36C126-15 110 5 73 4 37 3 15-17 15-53c-1-64 63-63 125-63 3-35-9-54-41-54-24 1-41 7-42 31l-33-3c5-37 33-52 76-52 45 0 72 20 72 64v82c-1 20 7 32 28 27v20c-31 9-61-2-59-35zM48-53c0 20 12 33 32 33 41-3 63-29 60-74-43 2-92-5-92 41" id="C"/><path d="M179-190L93 31C79 59 56 82 12 73V49c39 6 53-20 64-50L1-190h34L92-34l54-156h33" id="D"/><path d="M135-143c-3-34-86-38-87 0 15 53 115 12 119 90S17 21 10-45l28-5c4 36 97 45 98 0-10-56-113-15-118-90-4-57 82-63 122-42 12 7 21 19 24 35" id="E"/><path d="M100-194c62-1 85 37 85 99 1 63-27 99-86 99S16-35 15-95c0-66 28-99 85-99zM99-20c44 1 53-31 53-75 0-43-8-75-51-75s-53 32-53 75 10 74 51 75" id="F"/><path d="M84 4C-5 8 30-112 23-190h32v120c0 31 7 50 39 49 72-2 45-101 50-169h31l1 190h-30c-1-10 1-25-2-33-11 22-28 36-60 37" id="G"/><path d="M117-194c89-4 53 116 60 194h-32v-121c0-31-8-49-39-48C34-167 62-67 57 0H25l-1-190h30c1 10-1 24 2 32 11-22 29-35 61-36" id="H"/><path d="M85-194c31 0 48 13 60 33l-1-100h32l1 261h-30c-2-10 0-23-3-31C134-8 116 4 85 4 32 4 16-35 15-94c0-66 23-100 70-100zm9 24c-40 0-46 34-46 75 0 40 6 74 45 74 42 0 51-32 51-76 0-42-9-74-50-73" id="I"/><g id="b"><use transform="matrix(0.05,0,0,0.05,0,0)" xlink:href="#A"/><use transform="matrix(0.05,0,0,0.05,12,0)" xlink:href="#B"/><use transform="matrix(0.05,0,0,0.05,15.949999999999998,0)" xlink:href="#C"/><use transform="matrix(0.05,0,0,0.05,25.950000000000003,0)" xlink:href="#D"/><use transform="matrix(0.05,0,0,0.05,34.95,0)" xlink:href="#E"/><use transform="matrix(0.05,0,0,0.05,43.95,0)" xlink:href="#F"/><use transform="matrix(0.05,0,0,0.05,53.95,0)" xlink:href="#G"/><use transform="matrix(0.05,0,0,0.05,63.95,0)" xlink:href="#H"/><use transform="matrix(0.05,0,0,0.05,73.95,0)" xlink:href="#I"/></g><path d="M205 0l-28-72H64L36 0H1l101-248h38L239 0h-34zm-38-99l-47-123c-12 45-31 82-46 123h93" id="J"/><path d="M33 0v-248h34V0H33" id="K"/><g id="c"><use transform="matrix(0.05,0,0,0.05,0,0)" xlink:href="#J"/><use transform="matrix(0.05,0,0,0.05,12,0)" xlink:href="#A"/><use transform="matrix(0.05,0,0,0.05,24,0)" xlink:href="#K"/></g><path fill="#494949" d="M30 0v-248h187v28H63v79h144v27H63v87h162V0H30" id="L"/><path fill="#494949" d="M141 0L90-78 38 0H4l68-98-65-92h35l48 74 47-74h35l-64 92 68 98h-35" id="M"/><path fill="#494949" d="M59-47c-2 24 18 29 38 22v24C64 9 27 4 27-40v-127H5v-23h24l9-43h21v43h35v23H59v120" id="N"/><path fill="#494949" d="M100-194c63 0 86 42 84 106H49c0 40 14 67 53 68 26 1 43-12 49-29l28 8c-11 28-37 45-77 45C44 4 14-33 15-96c1-61 26-98 85-98zm52 81c6-60-76-77-97-28-3 7-6 17-6 28h103" id="O"/><path fill="#494949" d="M114-163C36-179 61-72 57 0H25l-1-190h30c1 12-1 29 2 39 6-27 23-49 58-41v29" id="P"/><path fill="#494949" d="M117-194c89-4 53 116 60 194h-32v-121c0-31-8-49-39-48C34-167 62-67 57 0H25l-1-190h30c1 10-1 24 2 32 11-22 29-35 61-36" id="Q"/><path fill="#494949" d="M141-36C126-15 110 5 73 4 37 3 15-17 15-53c-1-64 63-63 125-63 3-35-9-54-41-54-24 1-41 7-42 31l-33-3c5-37 33-52 76-52 45 0 72 20 72 64v82c-1 20 7 32 28 27v20c-31 9-61-2-59-35zM48-53c0 20 12 33 32 33 41-3 63-29 60-74-43 2-92-5-92 41" id="R"/><path fill="#494949" d="M24 0v-261h32V0H24" id="S"/><g id="d"><use transform="matrix(0.05,0,0,0.05,0,0)" xlink:href="#L"/><use transform="matrix(0.05,0,0,0.05,12,0)" xlink:href="#M"/><use transform="matrix(0.05,0,0,0.05,21,0)" xlink:href="#N"/><use transform="matrix(0.05,0,0,0.05,26,0)" xlink:href="#O"/><use transform="matrix(0.05,0,0,0.05,36,0)" xlink:href="#P"/><use transform="matrix(0.05,0,0,0.05,41.95,0)" xlink:href="#Q"/><use transform="matrix(0.05,0,0,0.05,51.95,0)" xlink:href="#R"/><use transform="matrix(0.05,0,0,0.05,61.95,0)" xlink:href="#S"/></g><path fill="#494949" d="M205 0l-28-72H64L36 0H1l101-248h38L239 0h-34zm-38-99l-47-123c-12 45-31 82-46 123h93" id="T"/><path fill="#494949" d="M115-194c55 1 70 41 70 98S169 2 115 4C84 4 66-9 55-30l1 105H24l-1-265h31l2 30c10-21 28-34 59-34zm-8 174c40 0 45-34 45-75s-6-73-45-74c-42 0-51 32-51 76 0 43 10 73 51 73" id="U"/><path fill="#494949" d="M24-231v-30h32v30H24zM24 0v-190h32V0H24" id="V"/><path fill="#494949" d="M96-169c-40 0-48 33-48 73s9 75 48 75c24 0 41-14 43-38l32 2c-6 37-31 61-74 61-59 0-76-41-82-99-10-93 101-131 147-64 4 7 5 14 7 22l-32 3c-4-21-16-35-41-35" id="W"/><path fill="#494949" d="M100-194c62-1 85 37 85 99 1 63-27 99-86 99S16-35 15-95c0-66 28-99 85-99zM99-20c44 1 53-31 53-75 0-43-8-75-51-75s-53 32-53 75 10 74 51 75" id="X"/><g id="e"><use transform="matrix(0.05,0,0,0.05,0,0)" xlink:href="#T"/><use transform="matrix(0.05,0,0,0.05,12,0)" xlink:href="#U"/><use transform="matrix(0.05,0,0,0.05,22,0)" xlink:href="#U"/><use transform="matrix(0.05,0,0,0.05,32,0)" xlink:href="#S"/><use transform="matrix(0.05,0,0,0.05,35.95,0)" xlink:href="#V"/><use transform="matrix(0.05,0,0,0.05,39.900000000000006,0)" xlink:href="#W"/><use transform="matrix(0.05,0,0,0.05,48.900000000000006,0)" xlink:href="#R"/><use transform="matrix(0.05,0,0,0.05,58.900000000000006,0)" xlink:href="#N"/><use transform="matrix(0.05,0,0,0.05,63.900000000000006,0)" xlink:href="#V"/><use transform="matrix(0.05,0,0,0.05,67.85000000000001,0)" xlink:href="#X"/><use transform="matrix(0.05,0,0,0.05,77.85000000000001,0)" xlink:href="#Q"/></g><path fill="#494949" d="M84 4C-5 8 30-112 23-190h32v120c0 31 7 50 39 49 72-2 45-101 50-169h31l1 190h-30c-1-10 1-25-2-33-11 22-28 36-60 37" id="Y"/><path fill="#494949" d="M85-194c31 0 48 13 60 33l-1-100h32l1 261h-30c-2-10 0-23-3-31C134-8 116 4 85 4 32 4 16-35 15-94c0-66 23-100 70-100zm9 24c-40 0-46 34-46 75 0 40 6 74 45 74 42 0 51-32 51-76 0-42-9-74-50-73" id="Z"/><g id="f"><use transform="matrix(0.05,0,0,0.05,0,0)" xlink:href="#T"/><use transform="matrix(0.05,0,0,0.05,12,0)" xlink:href="#Y"/><use transform="matrix(0.05,0,0,0.05,22,0)" xlink:href="#Z"/><use transform="matrix(0.05,0,0,0.05,32,0)" xlink:href="#V"/><use transform="matrix(0.05,0,0,0.05,35.95,0)" xlink:href="#X"/></g><path fill="#494949" d="M233-177c-1 41-23 64-60 70L243 0h-38l-65-103H63V0H30v-248c88 3 205-21 203 71zM63-129c60-2 137 13 137-47 0-61-80-42-137-45v92" id="aa"/><path fill="#494949" d="M177-190C167-65 218 103 67 71c-23-6-38-20-44-43l32-5c15 47 100 32 89-28v-30C133-14 115 1 83 1 29 1 15-40 15-95c0-56 16-97 71-98 29-1 48 16 59 35 1-10 0-23 2-32h30zM94-22c36 0 50-32 50-73 0-42-14-75-50-75-39 0-46 34-46 75s6 73 46 73" id="ab"/><g id="g"><use transform="matrix(0.05,0,0,0.05,0,0)" xlink:href="#aa"/><use transform="matrix(0.05,0,0,0.05,12.950000000000001,0)" xlink:href="#O"/><use transform="matrix(0.05,0,0,0.05,22.950000000000003,0)" xlink:href="#Q"/><use transform="matrix(0.05,0,0,0.05,32.95,0)" xlink:href="#Z"/><use transform="matrix(0.05,0,0,0.05,42.95,0)" xlink:href="#O"/><use transform="matrix(0.05,0,0,0.05,52.95,0)" xlink:href="#P"/><use transform="matrix(0.05,0,0,0.05,58.900000000000006,0)" xlink:href="#V"/><use transform="matrix(0.05,0,0,0.05,62.85,0)" xlink:href="#Q"/><use transform="matrix(0.05,0,0,0.05,72.85000000000001,0)" xlink:href="#ab"/></g><path fill="#494949" d="M30-248c87 1 191-15 191 75 0 78-77 80-158 76V0H30v-248zm33 125c57 0 124 11 124-50 0-59-68-47-124-48v98" id="ac"/><path fill="#494949" d="M33 0v-248h34V0H33" id="ad"/><g id="h"><use transform="matrix(0.05,0,0,0.05,0,0)" xlink:href="#T"/><use transform="matrix(0.05,0,0,0.05,12,0)" xlink:href="#ac"/><use transform="matrix(0.05,0,0,0.05,24,0)" xlink:href="#ad"/></g><g id="i"><use transform="matrix(0.05,0,0,0.05,0,0)" xlink:href="#ad"/><use transform="matrix(0.05,0,0,0.05,5,0)" xlink:href="#Q"/><use transform="matrix(0.05,0,0,0.05,15,0)" xlink:href="#U"/><use transform="matrix(0.05,0,0,0.05,25,0)" xlink:href="#Y"/><use transform="matrix(0.05,0,0,0.05,35,0)" xlink:href="#N"/></g><path fill="#494949" d="M185-189c-5-48-123-54-124 2 14 75 158 14 163 119 3 78-121 87-175 55-17-10-28-26-33-46l33-7c5 56 141 63 141-1 0-78-155-14-162-118-5-82 145-84 179-34 5 7 8 16 11 25" id="ae"/><g id="j"><use transform="matrix(0.05,0,0,0.05,0,0)" xlink:href="#ae"/><use transform="matrix(0.05,0,0,0.05,12,0)" xlink:href="#N"/><use transform="matrix(0.05,0,0,0.05,17,0)" xlink:href="#P"/><use transform="matrix(0.05,0,0,0.05,22.95,0)" xlink:href="#V"/><use transform="matrix(0.05,0,0,0.05,26.899999999999995,0)" xlink:href="#Q"/><use transform="matrix(0.05,0,0,0.05,36.9,0)" xlink:href="#ab"/></g><path fill="#494949" d="M135-143c-3-34-86-38-87 0 15 53 115 12 119 90S17 21 10-45l28-5c4 36 97 45 98 0-10-56-113-15-118-90-4-57 82-63 122-42 12 7 21 19 24 35" id="af"/><g id="k"><use transform="matrix(0.05,0,0,0.05,0,0)" xlink:href="#T"/><use transform="matrix(0.05,0,0,0.05,12,0)" xlink:href="#S"/><use transform="matrix(0.05,0,0,0.05,15.949999999999998,0)" xlink:href="#V"/><use transform="matrix(0.05,0,0,0.05,19.9,0)" xlink:href="#R"/><use transform="matrix(0.05,0,0,0.05,29.899999999999995,0)" xlink:href="#af"/></g><path fill="#494949" d="M30-248c118-7 216 8 213 122C240-48 200 0 122 0H30v-248zM63-27c89 8 146-16 146-99s-60-101-146-95v194" id="ag"/><g id="l"><use transform="matrix(0.05,0,0,0.05,0,0)" xlink:href="#ag"/><use transform="matrix(0.05,0,0,0.05,12.950000000000001,0)" xlink:href="#R"/><use transform="matrix(0.05,0,0,0.05,22.950000000000003,0)" xlink:href="#N"/><use transform="matrix(0.05,0,0,0.05,27.950000000000003,0)" xlink:href="#R"/></g><g id="m"><use transform="matrix(0.05,0,0,0.05,0,0)" xlink:href="#ag"/><use transform="matrix(0.05,0,0,0.05,12.950000000000001,0)" xlink:href="#R"/><use transform="matrix(0.05,0,0,0.05,22.950000000000003,0)" xlink:href="#N"/><use transform="matrix(0.05,0,0,0.05,27.950000000000003,0)" xlink:href="#R"/></g><path fill="#494949" d="M266 0h-40l-56-210L115 0H75L2-248h35L96-30l15-64 43-154h32l59 218 59-218h35" id="ah"/><path fill="#494949" d="M137 0h-34L2-248h35l83 218 83-218h36" id="ai"/><g id="n"><use transform="matrix(0.05,0,0,0.05,0,0)" xlink:href="#ah"/><use transform="matrix(0.05,0,0,0.05,16.3,0)" xlink:href="#T"/><use transform="matrix(0.05,0,0,0.05,26.950000000000003,0)" xlink:href="#ai"/></g><path fill="#494949" d="M63-220v92h138v28H63V0H30v-248h175v28H63" id="aj"/><g id="o"><use transform="matrix(0.05,0,0,0.05,0,0)" xlink:href="#aj"/><use transform="matrix(0.05,0,0,0.05,10.950000000000001,0)" xlink:href="#V"/><use transform="matrix(0.05,0,0,0.05,14.9,0)" xlink:href="#S"/><use transform="matrix(0.05,0,0,0.05,18.85,0)" xlink:href="#O"/></g><g id="p"><use transform="matrix(0.05,0,0,0.05,0,0)" xlink:href="#aj"/><use transform="matrix(0.05,0,0,0.05,10.950000000000001,0)" xlink:href="#V"/><use transform="matrix(0.05,0,0,0.05,14.9,0)" xlink:href="#S"/><use transform="matrix(0.05,0,0,0.05,18.85,0)" xlink:href="#O"/></g><path fill="#494949" d="M190 0L58-211 59 0H30v-248h39L202-35l-2-213h31V0h-41" id="ak"/><path fill="#494949" d="M210-169c-67 3-38 105-44 169h-31v-121c0-29-5-50-35-48C34-165 62-65 56 0H25l-1-190h30c1 10-1 24 2 32 10-44 99-50 107 0 11-21 27-35 58-36 85-2 47 119 55 194h-31v-121c0-29-5-49-35-48" id="al"/><g id="q"><use transform="matrix(0.05,0,0,0.05,0,0)" xlink:href="#ak"/><use transform="matrix(0.05,0,0,0.05,12.950000000000001,0)" xlink:href="#R"/><use transform="matrix(0.05,0,0,0.05,22.950000000000003,0)" xlink:href="#al"/><use transform="matrix(0.05,0,0,0.05,37.900000000000006,0)" xlink:href="#O"/></g><path fill="#494949" d="M179-190L93 31C79 59 56 82 12 73V49c39 6 53-20 64-50L1-190h34L92-34l54-156h33" id="am"/><g id="r"><use transform="matrix(0.05,0,0,0.05,0,0)" xlink:href="#ae"/><use transform="matrix(0.05,0,0,0.05,12,0)" xlink:href="#am"/><use transform="matrix(0.05,0,0,0.05,21,0)" xlink:href="#af"/><use transform="matrix(0.05,0,0,0.05,30,0)" xlink:href="#N"/><use transform="matrix(0.05,0,0,0.05,35,0)" xlink:href="#O"/><use transform="matrix(0.05,0,0,0.05,45,0)" xlink:href="#al"/></g><g id="s"><use transform="matrix(0.05,0,0,0.05,0,0)" xlink:href="#aa"/><use transform="matrix(0.05,0,0,0.05,12.950000000000001,0)" xlink:href="#O"/><use transform="matrix(0.05,0,0,0.05,22.950000000000003,0)" xlink:href="#ab"/><use transform="matrix(0.05,0,0,0.05,32.95,0)" xlink:href="#V"/><use transform="matrix(0.05,0,0,0.05,36.900000000000006,0)" xlink:href="#af"/><use transform="matrix(0.05,0,0,0.05,45.900000000000006,0)" xlink:href="#N"/><use transform="matrix(0.05,0,0,0.05,50.900000000000006,0)" xlink:href="#P"/><use transform="matrix(0.05,0,0,0.05,56.85,0)" xlink:href="#am"/></g><g id="t"><use transform="matrix(0.05,0,0,0.05,0,0)" xlink:href="#T"/><use transform="matrix(0.05,0,0,0.05,12,0)" xlink:href="#U"/><use transform="matrix(0.05,0,0,0.05,22,0)" xlink:href="#U"/></g><path fill="#494949" d="M160-131c35 5 61 23 61 61C221 17 115-2 30 0v-248c76 3 177-17 177 60 0 33-19 50-47 57zm-97-11c50-1 110 9 110-42 0-47-63-36-110-37v79zm0 115c55-2 124 14 124-45 0-56-70-42-124-44v89" id="an"/><g id="u"><use transform="matrix(0.05,0,0,0.05,0,0)" xlink:href="#an"/><use transform="matrix(0.05,0,0,0.05,12,0)" xlink:href="#X"/><use transform="matrix(0.05,0,0,0.05,22,0)" xlink:href="#Y"/><use transform="matrix(0.05,0,0,0.05,32,0)" xlink:href="#Q"/><use transform="matrix(0.05,0,0,0.05,42,0)" xlink:href="#Z"/><use transform="matrix(0.05,0,0,0.05,52,0)" xlink:href="#R"/><use transform="matrix(0.05,0,0,0.05,62,0)" xlink:href="#P"/><use transform="matrix(0.05,0,0,0.05,67.95,0)" xlink:href="#am"/></g><g id="v"><use transform="matrix(0.05,0,0,0.05,0,0)" xlink:href="#aa"/><use transform="matrix(0.05,0,0,0.05,12.950000000000001,0)" xlink:href="#O"/><use transform="matrix(0.05,0,0,0.05,22.950000000000003,0)" xlink:href="#ab"/><use transform="matrix(0.05,0,0,0.05,32.95,0)" xlink:href="#V"/><use transform="matrix(0.05,0,0,0.05,36.900000000000006,0)" xlink:href="#af"/><use transform="matrix(0.05,0,0,0.05,45.900000000000006,0)" xlink:href="#N"/><use transform="matrix(0.05,0,0,0.05,50.900000000000006,0)" xlink:href="#P"/><use transform="matrix(0.05,0,0,0.05,56.85,0)" xlink:href="#am"/></g><g id="w"><use transform="matrix(0.05,0,0,0.05,0,0)" xlink:href="#aj"/><use transform="matrix(0.05,0,0,0.05,10.950000000000001,0)" xlink:href="#ae"/></g></defs></g></svg>