<svg xmlns="http://www.w3.org/2000/svg" xmlns:xlink="http://www.w3.org/1999/xlink" xmlns:lucid="lucid" width="852" height="584"><g transform="translate(-262 -1029)" lucid:page-tab-id="y3OJzS_9pOpF"><path d="M0 0h1360v1760H0z" fill="#fff"/><path d="M780 1350c0 49.7-40.3 90-90 90s-90-40.3-90-90 40.3-90 90-90 90 40.3 90 90z" stroke="#000" stroke-width="2" fill="#fff"/><use xlink:href="#a" transform="matrix(1,0,0,1,620,1260) translate(57.5 72)"/><use xlink:href="#b" transform="matrix(1,0,0,1,620,1260) translate(28.025 93.60000000000001)"/><use xlink:href="#c" transform="matrix(1,0,0,1,620,1260) translate(55.5 115.20000000000002)"/><path d="M320 1100h160v120H320z" stroke="#494949" stroke-width="2" fill="#fff"/><use xlink:href="#d" transform="matrix(1,0,0,1,325,1105) translate(42.05 47.8)"/><use xlink:href="#e" transform="matrix(1,0,0,1,325,1105) translate(31.074999999999996 69.4)"/><path d="M880 1100h160v120H880z" stroke="#494949" stroke-width="2" fill="#fff"/><use xlink:href="#f" transform="matrix(1,0,0,1,885,1105) translate(8.099999999999994 47.8)"/><use xlink:href="#g" transform="matrix(1,0,0,1,885,1105) translate(59.05 47.8)"/><use xlink:href="#h" transform="matrix(1,0,0,1,885,1105) translate(60.5 69.4)"/><path d="M599.8 1193.2l2.75 3.17 2.77 3.5 2.83 3.9 2.9 4.37 3 4.97 3.14 5.72 3.3 6.7 3.56 7.98 3.87 9.78 4.3 12.38.66 2.22-1.92.57-.66-2.17-4.27-12.3-3.83-9.7-3.52-7.92-3.28-6.6-3.1-5.65-2.96-4.9-2.85-4.3-2.77-3.8-2.73-3.45-2.7-3.12-1.7-1.83h2.74zm-93.2-33.73l14.45.88 10.36 1.08 8.16 1.2 6.75 1.28 5.8 1.37 5.08 1.42 4.57 1.47 4.15 1.54 3.3 1.4h-5.3l-2.8-1.04-4.5-1.46-5-1.4-5.7-1.33-6.68-1.27-8.06-1.18-10.27-1.07-14.38-.9-24.54-.43.04-2z" fill="#494949"/><path d="M482.05 1159.02l-.04 2-1-.02v-2zM636.26 1272.8l-8.5-12.36 8.9-2.63z" fill="#494949"/><path d="M637.18 1275.9l-11-16.03 11.52-3.4zm-7.8-14.9l5.96 8.7.3-10.54z" fill="#494949"/><use xlink:href="#i" transform="matrix(1,0,0,1,539.9843139995978,1171.098068768531) translate(0 14.4)"/><use xlink:href="#j" transform="matrix(1,0,0,1,539.9843139995978,1171.098068768531) translate(45 14.4)"/><path d="M447.53 1392.93l-4.57 4.12-4.48 4.38-4.4 4.7-4.35 5.03-4.3 5.43-4.27 5.86-4.25 6.4-4.23 7-3.8 6.94-1.76-.97 3.84-6.97 4.28-7.07 4.3-6.48 4.32-5.94 4.35-5.5 4.4-5.1 4.45-4.75 4.54-4.44 4.62-4.2 2.34-1.92h3.14zm150.5-41.9l-22.75.43-17.3 1.08-13.88 1.45-11.7 1.7-10.16 1.94-9.03 2.12-8.13 2.27-7.44 2.4-6.87 2.57-2.1.88h-5.15l.04-.02 6.5-2.72 6.94-2.6 7.52-2.43 8.22-2.28 9.1-2.13 10.25-1.96 11.78-1.74 13.97-1.46 17.38-1.07 22.78-.45z" fill="#494949"/><path d="M599 1350v1l-1 .02-.05-2 1.08-.02zM411.74 1445.22l-10.34 10.86 1.98-14.87z" fill="#494949"/><path d="M413.4 1444.9L400 1459l2.57-19.28zm-10.6 8.26l7.27-7.64-5.88-2.8z" fill="#494949"/><use xlink:href="#k" transform="matrix(1,0,0,1,419.87305185362254,1367.878059952879) translate(0 14.4)"/><use xlink:href="#j" transform="matrix(1,0,0,1,419.87305185362254,1367.878059952879) translate(43.9 14.4)"/><path d="M560.57 1495.3h2.62l-1.03.55-5.78 2.72-5.84 2.45-5.86 2.18-5.85 1.9-5.8 1.62-5.76 1.35-5.68 1.08-5.57.83-5.47.57-5.35.34-4.2.08-.05-2 4.17-.1 5.26-.32 5.4-.57 5.5-.82 5.57-1.06 5.67-1.33 5.73-1.62 5.77-1.87 5.78-2.14 5.76-2.42 5-2.35zm63.9-58.92l-.6 1.18-2.26 4.12-2.5 4.16-2.8 4.2-3.05 4.2-3.33 4.2-3.62 4.2-3.9 4.16-4.2 4.1-3.12 2.8h-3.02l.36-.28 4.4-3.97 4.14-4.05 3.85-4.1 3.58-4.13 3.28-4.14 3-4.14 2.74-4.13 2.48-4.1 2.23-4.04.57-1.14z" fill="#494949"/><path d="M501.05 1510.98l-1.05.02v-2l1-.02zM628.23 1436.76l-8.6-3.45 9.62-11.5z" fill="#494949"/><path d="M629.14 1438.2l-11.16-4.48 12.47-14.93zm-7.86-5.3l6.05 2.42.7-10.52z" fill="#494949"/><use xlink:href="#l" transform="matrix(1,0,0,1,560.5695146244185,1473.713054135868) translate(0 14.4)"/><path d="M756.45 1202.9l-3.85 3.82-3.7 4-3.53 4.17-3.4 4.36-3.28 4.58-3.14 4.8-3 5.07-2.9 5.35-2.74 5.66-2.6 6-2.48 6.4-2 5.88-1.88-.64 2-5.93 2.5-6.46 2.64-6.07 2.8-5.73 2.9-5.42 3.06-5.13 3.18-4.9 3.32-4.64 3.45-4.43 3.6-4.24 3.76-4.07 3.9-3.9.64-.56h2.96zm104.14-41.22l-5.36.38-9.55 1.1-8.88 1.37-8.26 1.64-7.7 1.88-7.22 2.07-6.75 2.26-6.37 2.42-5.98 2.57-3.94 1.9h-4.4l1.8-.96 5.72-2.75 6.06-2.6 6.43-2.45 6.85-2.3 7.3-2.1 7.78-1.88 8.34-1.66 8.95-1.4 9.64-1.1 5.38-.37z" fill="#494949"/><path d="M719.86 1262.95l-.33.96-1.9-.6.33-1zM875.77 1160.12l-14.1 5.16-.33-9.26z" fill="#494949"/><path d="M879 1160l-18.27 6.7-.44-12.02zm-16.37 3.87l9.9-3.63-10.14-2.88z" fill="#494949"/><use xlink:href="#f" transform="matrix(1,0,0,1,726.0180199757834,1179.2668982819414) translate(0 14.4)"/><use xlink:href="#m" transform="matrix(1,0,0,1,726.0180199757834,1179.2668982819414) translate(50.95 14.4)"/><path d="M887.13 1409l3.34 2.7 3.2 2.8 3.12 3 3.03 3.15 2.98 3.38 2.97 3.64 2.93 3.95 2.94 4.3 2.94 4.75 2.98 5.28 3.03 5.92 2.65 5.8-1.82.84-2.64-5.75-3-5.85-2.94-5.2-2.9-4.68-2.9-4.24-2.87-3.88-2.9-3.57-2.94-3.32-2.98-3.1-3.06-2.92-3.14-2.77-3.27-2.63-3.42-2.54-1.6-1.1h3.48zm-66.2-27.55l14.76 3.9h-7.86l-7.4-1.96-24.45-5.87.45-1.95z" fill="#494949"/><path d="M923.85 1459h-2.2l-.23-.52 1.8-.83zM794.17 1380.83l-12.8-7.83 14.96-1.2z" fill="#494949"/><path d="M794.82 1382.4l-16.6-10.16 19.4-1.53zm-10.3-8.65l9 5.5 1.5-6.33z" fill="#494949"/><use xlink:href="#n" transform="matrix(1,0,0,1,827.0539957435183,1385.3407675554688) translate(0 14.4)"/><use xlink:href="#o" transform="matrix(1,0,0,1,827.0539957435183,1385.3407675554688) translate(43.95 14.4)"/><path d="M805.55 1494.3l5.16 2.3 5.38 2.13 5.62 1.97 5.93 1.8 6.3 1.6 6.74 1.45 7.3 1.23 7.93 1 5.7.5-.17 1.98-5.74-.48-8.04-1.02-7.36-1.25-6.83-1.44-6.38-1.64-6.02-1.82-5.7-2-5.44-2.15-5.24-2.34-5.07-2.5-2.48-1.38h4.22zm-62.88-57.37l5.4 7.78 5.15 6.8 4.96 6.02 4.83 5.38 4.74 4.83 3.07 2.9h-2.9l-1.56-1.47-4.8-4.9-4.87-5.43-5.02-6.08-5.2-6.87-5.44-7.84-5.2-8.22 1.7-1.07z" fill="#494949"/><path d="M737.5 1428.77l-1.68 1.07-.56-.9 1.7-1.02zM876.77 1509.87l-14.44 4.07.37-9.27z" fill="#494949"/><path d="M880 1510l-18.73 5.27.48-12zm-16.62 2.6l10.15-2.86-9.9-3.65z" fill="#494949"/><g><use xlink:href="#p" transform="matrix(1,0,0,1,741.3264572583578,1470.6243198390016) translate(0 14.4)"/><use xlink:href="#q" transform="matrix(1,0,0,1,741.3264572583578,1470.6243198390016) translate(33.85 14.4)"/></g><path d="M880 1460h200v100H880z" fill="#fff"/><path d="M880 1460h200m0 100H880" stroke="#494949" stroke-width="2" fill="#fff"/><g><use xlink:href="#p" transform="matrix(1,0,0,1,900,1460) translate(33.099999999999994 53.6)"/><use xlink:href="#r" transform="matrix(1,0,0,1,900,1460) translate(66.94999999999999 53.6)"/></g><path d="M300 1460h200v100H300z" fill="#fff"/><path d="M300 1460h200m0 100H300" stroke="#494949" stroke-width="2" fill="#fff"/><g><use xlink:href="#s" transform="matrix(1,0,0,1,320,1460) translate(47.074999999999996 53.6)"/></g><defs><path d="M27 0v-27h64v-190l-56 39v-29l58-41h29v221h61V0H27" id="t"/><path d="M33 0v-38h34V0H33" id="u"/><path d="M101-251c68 0 85 55 85 127S166 4 100 4C33 4 14-52 14-124c0-73 17-127 87-127zm-1 229c47 0 54-49 54-102s-4-102-53-102c-51 0-55 48-55 102 0 53 5 102 54 102" id="v"/><g id="a"><use transform="matrix(0.05,0,0,0.05,0,0)" xlink:href="#t"/><use transform="matrix(0.05,0,0,0.05,10,0)" xlink:href="#u"/><use transform="matrix(0.05,0,0,0.05,15,0)" xlink:href="#v"/></g><path d="M30-248c87 1 191-15 191 75 0 78-77 80-158 76V0H30v-248zm33 125c57 0 124 11 124-50 0-59-68-47-124-48v98" id="w"/><path d="M24 0v-261h32V0H24" id="x"/><path d="M141-36C126-15 110 5 73 4 37 3 15-17 15-53c-1-64 63-63 125-63 3-35-9-54-41-54-24 1-41 7-42 31l-33-3c5-37 33-52 76-52 45 0 72 20 72 64v82c-1 20 7 32 28 27v20c-31 9-61-2-59-35zM48-53c0 20 12 33 32 33 41-3 63-29 60-74-43 2-92-5-92 41" id="y"/><path d="M179-190L93 31C79 59 56 82 12 73V49c39 6 53-20 64-50L1-190h34L92-34l54-156h33" id="z"/><path d="M135-143c-3-34-86-38-87 0 15 53 115 12 119 90S17 21 10-45l28-5c4 36 97 45 98 0-10-56-113-15-118-90-4-57 82-63 122-42 12 7 21 19 24 35" id="A"/><path d="M100-194c62-1 85 37 85 99 1 63-27 99-86 99S16-35 15-95c0-66 28-99 85-99zM99-20c44 1 53-31 53-75 0-43-8-75-51-75s-53 32-53 75 10 74 51 75" id="B"/><path d="M84 4C-5 8 30-112 23-190h32v120c0 31 7 50 39 49 72-2 45-101 50-169h31l1 190h-30c-1-10 1-25-2-33-11 22-28 36-60 37" id="C"/><path d="M117-194c89-4 53 116 60 194h-32v-121c0-31-8-49-39-48C34-167 62-67 57 0H25l-1-190h30c1 10-1 24 2 32 11-22 29-35 61-36" id="D"/><path d="M85-194c31 0 48 13 60 33l-1-100h32l1 261h-30c-2-10 0-23-3-31C134-8 116 4 85 4 32 4 16-35 15-94c0-66 23-100 70-100zm9 24c-40 0-46 34-46 75 0 40 6 74 45 74 42 0 51-32 51-76 0-42-9-74-50-73" id="E"/><g id="b"><use transform="matrix(0.05,0,0,0.05,0,0)" xlink:href="#w"/><use transform="matrix(0.05,0,0,0.05,12,0)" xlink:href="#x"/><use transform="matrix(0.05,0,0,0.05,15.949999999999998,0)" xlink:href="#y"/><use transform="matrix(0.05,0,0,0.05,25.950000000000003,0)" xlink:href="#z"/><use transform="matrix(0.05,0,0,0.05,34.95,0)" xlink:href="#A"/><use transform="matrix(0.05,0,0,0.05,43.95,0)" xlink:href="#B"/><use transform="matrix(0.05,0,0,0.05,53.95,0)" xlink:href="#C"/><use transform="matrix(0.05,0,0,0.05,63.95,0)" xlink:href="#D"/><use transform="matrix(0.05,0,0,0.05,73.95,0)" xlink:href="#E"/></g><path d="M205 0l-28-72H64L36 0H1l101-248h38L239 0h-34zm-38-99l-47-123c-12 45-31 82-46 123h93" id="F"/><path d="M33 0v-248h34V0H33" id="G"/><g id="c"><use transform="matrix(0.05,0,0,0.05,0,0)" xlink:href="#F"/><use transform="matrix(0.05,0,0,0.05,12,0)" xlink:href="#w"/><use transform="matrix(0.05,0,0,0.05,24,0)" xlink:href="#G"/></g><path fill="#494949" d="M30 0v-248h187v28H63v79h144v27H63v87h162V0H30" id="H"/><path fill="#494949" d="M141 0L90-78 38 0H4l68-98-65-92h35l48 74 47-74h35l-64 92 68 98h-35" id="I"/><path fill="#494949" d="M59-47c-2 24 18 29 38 22v24C64 9 27 4 27-40v-127H5v-23h24l9-43h21v43h35v23H59v120" id="J"/><path fill="#494949" d="M100-194c63 0 86 42 84 106H49c0 40 14 67 53 68 26 1 43-12 49-29l28 8c-11 28-37 45-77 45C44 4 14-33 15-96c1-61 26-98 85-98zm52 81c6-60-76-77-97-28-3 7-6 17-6 28h103" id="K"/><path fill="#494949" d="M114-163C36-179 61-72 57 0H25l-1-190h30c1 12-1 29 2 39 6-27 23-49 58-41v29" id="L"/><path fill="#494949" d="M117-194c89-4 53 116 60 194h-32v-121c0-31-8-49-39-48C34-167 62-67 57 0H25l-1-190h30c1 10-1 24 2 32 11-22 29-35 61-36" id="M"/><path fill="#494949" d="M141-36C126-15 110 5 73 4 37 3 15-17 15-53c-1-64 63-63 125-63 3-35-9-54-41-54-24 1-41 7-42 31l-33-3c5-37 33-52 76-52 45 0 72 20 72 64v82c-1 20 7 32 28 27v20c-31 9-61-2-59-35zM48-53c0 20 12 33 32 33 41-3 63-29 60-74-43 2-92-5-92 41" id="N"/><path fill="#494949" d="M24 0v-261h32V0H24" id="O"/><g id="d"><use transform="matrix(0.05,0,0,0.05,0,0)" xlink:href="#H"/><use transform="matrix(0.05,0,0,0.05,12,0)" xlink:href="#I"/><use transform="matrix(0.05,0,0,0.05,21,0)" xlink:href="#J"/><use transform="matrix(0.05,0,0,0.05,26,0)" xlink:href="#K"/><use transform="matrix(0.05,0,0,0.05,36,0)" xlink:href="#L"/><use transform="matrix(0.05,0,0,0.05,41.95,0)" xlink:href="#M"/><use transform="matrix(0.05,0,0,0.05,51.95,0)" xlink:href="#N"/><use transform="matrix(0.05,0,0,0.05,61.95,0)" xlink:href="#O"/></g><path fill="#494949" d="M205 0l-28-72H64L36 0H1l101-248h38L239 0h-34zm-38-99l-47-123c-12 45-31 82-46 123h93" id="P"/><path fill="#494949" d="M115-194c55 1 70 41 70 98S169 2 115 4C84 4 66-9 55-30l1 105H24l-1-265h31l2 30c10-21 28-34 59-34zm-8 174c40 0 45-34 45-75s-6-73-45-74c-42 0-51 32-51 76 0 43 10 73 51 73" id="Q"/><path fill="#494949" d="M24-231v-30h32v30H24zM24 0v-190h32V0H24" id="R"/><path fill="#494949" d="M96-169c-40 0-48 33-48 73s9 75 48 75c24 0 41-14 43-38l32 2c-6 37-31 61-74 61-59 0-76-41-82-99-10-93 101-131 147-64 4 7 5 14 7 22l-32 3c-4-21-16-35-41-35" id="S"/><path fill="#494949" d="M100-194c62-1 85 37 85 99 1 63-27 99-86 99S16-35 15-95c0-66 28-99 85-99zM99-20c44 1 53-31 53-75 0-43-8-75-51-75s-53 32-53 75 10 74 51 75" id="T"/><g id="e"><use transform="matrix(0.05,0,0,0.05,0,0)" xlink:href="#P"/><use transform="matrix(0.05,0,0,0.05,12,0)" xlink:href="#Q"/><use transform="matrix(0.05,0,0,0.05,22,0)" xlink:href="#Q"/><use transform="matrix(0.05,0,0,0.05,32,0)" xlink:href="#O"/><use transform="matrix(0.05,0,0,0.05,35.95,0)" xlink:href="#R"/><use transform="matrix(0.05,0,0,0.05,39.900000000000006,0)" xlink:href="#S"/><use transform="matrix(0.05,0,0,0.05,48.900000000000006,0)" xlink:href="#N"/><use transform="matrix(0.05,0,0,0.05,58.900000000000006,0)" xlink:href="#J"/><use transform="matrix(0.05,0,0,0.05,63.900000000000006,0)" xlink:href="#R"/><use transform="matrix(0.05,0,0,0.05,67.85000000000001,0)" xlink:href="#T"/><use transform="matrix(0.05,0,0,0.05,77.85000000000001,0)" xlink:href="#M"/></g><path fill="#494949" d="M84 4C-5 8 30-112 23-190h32v120c0 31 7 50 39 49 72-2 45-101 50-169h31l1 190h-30c-1-10 1-25-2-33-11 22-28 36-60 37" id="U"/><path fill="#494949" d="M85-194c31 0 48 13 60 33l-1-100h32l1 261h-30c-2-10 0-23-3-31C134-8 116 4 85 4 32 4 16-35 15-94c0-66 23-100 70-100zm9 24c-40 0-46 34-46 75 0 40 6 74 45 74 42 0 51-32 51-76 0-42-9-74-50-73" id="V"/><g id="f"><use transform="matrix(0.05,0,0,0.05,0,0)" xlink:href="#P"/><use transform="matrix(0.05,0,0,0.05,12,0)" xlink:href="#U"/><use transform="matrix(0.05,0,0,0.05,22,0)" xlink:href="#V"/><use transform="matrix(0.05,0,0,0.05,32,0)" xlink:href="#R"/><use transform="matrix(0.05,0,0,0.05,35.95,0)" xlink:href="#T"/></g><path fill="#494949" d="M233-177c-1 41-23 64-60 70L243 0h-38l-65-103H63V0H30v-248c88 3 205-21 203 71zM63-129c60-2 137 13 137-47 0-61-80-42-137-45v92" id="W"/><path fill="#494949" d="M177-190C167-65 218 103 67 71c-23-6-38-20-44-43l32-5c15 47 100 32 89-28v-30C133-14 115 1 83 1 29 1 15-40 15-95c0-56 16-97 71-98 29-1 48 16 59 35 1-10 0-23 2-32h30zM94-22c36 0 50-32 50-73 0-42-14-75-50-75-39 0-46 34-46 75s6 73 46 73" id="X"/><g id="g"><use transform="matrix(0.05,0,0,0.05,0,0)" xlink:href="#W"/><use transform="matrix(0.05,0,0,0.05,12.950000000000001,0)" xlink:href="#K"/><use transform="matrix(0.05,0,0,0.05,22.950000000000003,0)" xlink:href="#M"/><use transform="matrix(0.05,0,0,0.05,32.95,0)" xlink:href="#V"/><use transform="matrix(0.05,0,0,0.05,42.95,0)" xlink:href="#K"/><use transform="matrix(0.05,0,0,0.05,52.95,0)" xlink:href="#L"/><use transform="matrix(0.05,0,0,0.05,58.900000000000006,0)" xlink:href="#R"/><use transform="matrix(0.05,0,0,0.05,62.85,0)" xlink:href="#M"/><use transform="matrix(0.05,0,0,0.05,72.85000000000001,0)" xlink:href="#X"/></g><path fill="#494949" d="M30-248c87 1 191-15 191 75 0 78-77 80-158 76V0H30v-248zm33 125c57 0 124 11 124-50 0-59-68-47-124-48v98" id="Y"/><path fill="#494949" d="M33 0v-248h34V0H33" id="Z"/><g id="h"><use transform="matrix(0.05,0,0,0.05,0,0)" xlink:href="#P"/><use transform="matrix(0.05,0,0,0.05,12,0)" xlink:href="#Y"/><use transform="matrix(0.05,0,0,0.05,24,0)" xlink:href="#Z"/></g><g id="i"><use transform="matrix(0.05,0,0,0.05,0,0)" xlink:href="#Z"/><use transform="matrix(0.05,0,0,0.05,5,0)" xlink:href="#M"/><use transform="matrix(0.05,0,0,0.05,15,0)" xlink:href="#Q"/><use transform="matrix(0.05,0,0,0.05,25,0)" xlink:href="#U"/><use transform="matrix(0.05,0,0,0.05,35,0)" xlink:href="#J"/></g><path fill="#494949" d="M185-189c-5-48-123-54-124 2 14 75 158 14 163 119 3 78-121 87-175 55-17-10-28-26-33-46l33-7c5 56 141 63 141-1 0-78-155-14-162-118-5-82 145-84 179-34 5 7 8 16 11 25" id="aa"/><g id="j"><use transform="matrix(0.05,0,0,0.05,0,0)" xlink:href="#aa"/><use transform="matrix(0.05,0,0,0.05,12,0)" xlink:href="#J"/><use transform="matrix(0.05,0,0,0.05,17,0)" xlink:href="#L"/><use transform="matrix(0.05,0,0,0.05,22.95,0)" xlink:href="#R"/><use transform="matrix(0.05,0,0,0.05,26.899999999999995,0)" xlink:href="#M"/><use transform="matrix(0.05,0,0,0.05,36.9,0)" xlink:href="#X"/></g><path fill="#494949" d="M135-143c-3-34-86-38-87 0 15 53 115 12 119 90S17 21 10-45l28-5c4 36 97 45 98 0-10-56-113-15-118-90-4-57 82-63 122-42 12 7 21 19 24 35" id="ab"/><g id="k"><use transform="matrix(0.05,0,0,0.05,0,0)" xlink:href="#P"/><use transform="matrix(0.05,0,0,0.05,12,0)" xlink:href="#O"/><use transform="matrix(0.05,0,0,0.05,15.949999999999998,0)" xlink:href="#R"/><use transform="matrix(0.05,0,0,0.05,19.9,0)" xlink:href="#N"/><use transform="matrix(0.05,0,0,0.05,29.899999999999995,0)" xlink:href="#ab"/></g><path fill="#494949" d="M30-248c118-7 216 8 213 122C240-48 200 0 122 0H30v-248zM63-27c89 8 146-16 146-99s-60-101-146-95v194" id="ac"/><g id="l"><use transform="matrix(0.05,0,0,0.05,0,0)" xlink:href="#ac"/><use transform="matrix(0.05,0,0,0.05,12.950000000000001,0)" xlink:href="#N"/><use transform="matrix(0.05,0,0,0.05,22.950000000000003,0)" xlink:href="#J"/><use transform="matrix(0.05,0,0,0.05,27.950000000000003,0)" xlink:href="#N"/></g><g id="m"><use transform="matrix(0.05,0,0,0.05,0,0)" xlink:href="#ac"/><use transform="matrix(0.05,0,0,0.05,12.950000000000001,0)" xlink:href="#N"/><use transform="matrix(0.05,0,0,0.05,22.950000000000003,0)" xlink:href="#J"/><use transform="matrix(0.05,0,0,0.05,27.950000000000003,0)" xlink:href="#N"/></g><path fill="#494949" d="M266 0h-40l-56-210L115 0H75L2-248h35L96-30l15-64 43-154h32l59 218 59-218h35" id="ad"/><path fill="#494949" d="M137 0h-34L2-248h35l83 218 83-218h36" id="ae"/><g id="n"><use transform="matrix(0.05,0,0,0.05,0,0)" xlink:href="#ad"/><use transform="matrix(0.05,0,0,0.05,16.3,0)" xlink:href="#P"/><use transform="matrix(0.05,0,0,0.05,26.950000000000003,0)" xlink:href="#ae"/></g><path fill="#494949" d="M63-220v92h138v28H63V0H30v-248h175v28H63" id="af"/><g id="o"><use transform="matrix(0.05,0,0,0.05,0,0)" xlink:href="#af"/><use transform="matrix(0.05,0,0,0.05,10.950000000000001,0)" xlink:href="#R"/><use transform="matrix(0.05,0,0,0.05,14.9,0)" xlink:href="#O"/><use transform="matrix(0.05,0,0,0.05,18.85,0)" xlink:href="#K"/></g><g id="p"><use transform="matrix(0.05,0,0,0.05,0,0)" xlink:href="#af"/><use transform="matrix(0.05,0,0,0.05,10.950000000000001,0)" xlink:href="#R"/><use transform="matrix(0.05,0,0,0.05,14.9,0)" xlink:href="#O"/><use transform="matrix(0.05,0,0,0.05,18.85,0)" xlink:href="#K"/></g><path fill="#494949" d="M190 0L58-211 59 0H30v-248h39L202-35l-2-213h31V0h-41" id="ag"/><path fill="#494949" d="M210-169c-67 3-38 105-44 169h-31v-121c0-29-5-50-35-48C34-165 62-65 56 0H25l-1-190h30c1 10-1 24 2 32 10-44 99-50 107 0 11-21 27-35 58-36 85-2 47 119 55 194h-31v-121c0-29-5-49-35-48" id="ah"/><g id="q"><use transform="matrix(0.05,0,0,0.05,0,0)" xlink:href="#ag"/><use transform="matrix(0.05,0,0,0.05,12.950000000000001,0)" xlink:href="#N"/><use transform="matrix(0.05,0,0,0.05,22.950000000000003,0)" xlink:href="#ah"/><use transform="matrix(0.05,0,0,0.05,37.900000000000006,0)" xlink:href="#K"/></g><path fill="#494949" d="M179-190L93 31C79 59 56 82 12 73V49c39 6 53-20 64-50L1-190h34L92-34l54-156h33" id="ai"/><g id="r"><use transform="matrix(0.05,0,0,0.05,0,0)" xlink:href="#aa"/><use transform="matrix(0.05,0,0,0.05,12,0)" xlink:href="#ai"/><use transform="matrix(0.05,0,0,0.05,21,0)" xlink:href="#ab"/><use transform="matrix(0.05,0,0,0.05,30,0)" xlink:href="#J"/><use transform="matrix(0.05,0,0,0.05,35,0)" xlink:href="#K"/><use transform="matrix(0.05,0,0,0.05,45,0)" xlink:href="#ah"/></g><g id="s"><use transform="matrix(0.05,0,0,0.05,0,0)" xlink:href="#W"/><use transform="matrix(0.05,0,0,0.05,12.950000000000001,0)" xlink:href="#K"/><use transform="matrix(0.05,0,0,0.05,22.950000000000003,0)" xlink:href="#X"/><use transform="matrix(0.05,0,0,0.05,32.95,0)" xlink:href="#R"/><use transform="matrix(0.05,0,0,0.05,36.900000000000006,0)" xlink:href="#ab"/><use transform="matrix(0.05,0,0,0.05,45.900000000000006,0)" xlink:href="#J"/><use transform="matrix(0.05,0,0,0.05,50.900000000000006,0)" xlink:href="#L"/><use transform="matrix(0.05,0,0,0.05,56.85,0)" xlink:href="#ai"/></g></defs></g></svg>