<svg xmlns="http://www.w3.org/2000/svg" xmlns:xlink="http://www.w3.org/1999/xlink" xmlns:lucid="lucid" width="847" height="510"><g transform="translate(-275 -971)" lucid:page-tab-id="-myJSOURJ9QM"><path d="M0 0h1360v1760H0z" fill="#fff"/><path d="M790 1330c0 49.7-40.3 90-90 90s-90-40.3-90-90 40.3-90 90-90 90 40.3 90 90z" stroke="#000" stroke-width="2" fill="#fff"/><use xlink:href="#a" transform="matrix(1,0,0,1,630,1240) translate(57.5 72)"/><use xlink:href="#b" transform="matrix(1,0,0,1,630,1240) translate(28.025 93.60000000000001)"/><use xlink:href="#c" transform="matrix(1,0,0,1,630,1240) translate(55.5 115.20000000000002)"/><path d="M330 1080h160v120H330z" stroke="#494949" stroke-width="2" fill="#fff"/><use xlink:href="#d" transform="matrix(1,0,0,1,335,1085) translate(42.05 47.8)"/><use xlink:href="#e" transform="matrix(1,0,0,1,335,1085) translate(31.074999999999996 69.4)"/><path d="M890 1080h160v120H890z" stroke="#494949" stroke-width="2" fill="#fff"/><use xlink:href="#f" transform="matrix(1,0,0,1,895,1085) translate(8.099999999999994 47.8)"/><use xlink:href="#g" transform="matrix(1,0,0,1,895,1085) translate(59.05 47.8)"/><use xlink:href="#h" transform="matrix(1,0,0,1,895,1085) translate(60.5 69.4)"/><path d="M609.8 1173.2l2.75 3.17 2.77 3.5 2.83 3.9 2.9 4.37 3 4.97 3.14 5.72 3.3 6.7 3.56 7.98 3.87 9.78 4.3 12.38.66 2.22-1.92.57-.66-2.17-4.27-12.3-3.83-9.7-3.52-7.92-3.28-6.6-3.1-5.65-2.96-4.9-2.85-4.3-2.77-3.8-2.73-3.45-2.7-3.12-1.7-1.83h2.74zm-93.2-33.73l14.45.88 10.36 1.08 8.16 1.2 6.75 1.28 5.8 1.37 5.08 1.42 4.57 1.47 4.15 1.54 3.3 1.4h-5.3l-2.8-1.04-4.5-1.46-5-1.4-5.7-1.33-6.68-1.27-8.06-1.18-10.27-1.07-14.38-.9-24.54-.43.04-2z" fill="#494949"/><path d="M492.05 1139.02l-.04 2-1-.02v-2zM646.26 1252.8l-8.5-12.36 8.9-2.63z" fill="#494949"/><path d="M647.18 1255.9l-11-16.03 11.52-3.4zm-7.8-14.9l5.96 8.7.3-10.54z" fill="#494949"/><use xlink:href="#i" transform="matrix(1,0,0,1,549.9843139995978,1151.098068768531) translate(0 14.4)"/><use xlink:href="#j" transform="matrix(1,0,0,1,549.9843139995978,1151.098068768531) translate(45 14.4)"/><path d="M766.45 1182.9l-3.85 3.82-3.7 4-3.53 4.17-3.4 4.36-3.28 4.58-3.14 4.8-3 5.07-2.9 5.35-2.74 5.66-2.6 6-2.48 6.4-2 5.88-1.88-.64 2-5.93 2.5-6.46 2.64-6.07 2.8-5.73 2.9-5.42 3.06-5.13 3.18-4.9 3.32-4.64 3.45-4.43 3.6-4.24 3.76-4.07 3.9-3.9.64-.56h2.96zm104.14-41.22l-5.36.38-9.55 1.1-8.88 1.37-8.26 1.64-7.7 1.88-7.22 2.07-6.75 2.26-6.37 2.42-5.98 2.57-3.94 1.9h-4.4l1.8-.96 5.72-2.75 6.06-2.6 6.43-2.45 6.85-2.3 7.3-2.1 7.78-1.88 8.34-1.66 8.95-1.4 9.64-1.1 5.38-.37z" fill="#494949"/><path d="M729.86 1242.95l-.33.96-1.9-.6.33-1zM885.77 1140.12l-14.1 5.16-.33-9.26z" fill="#494949"/><path d="M889 1140l-18.27 6.7-.44-12.02zm-16.37 3.87l9.9-3.63-10.14-2.88z" fill="#494949"/><g><use xlink:href="#f" transform="matrix(1,0,0,1,736.0180199757835,1159.2668982819414) translate(0 14.4)"/><use xlink:href="#k" transform="matrix(1,0,0,1,736.0180199757835,1159.2668982819414) translate(50.95 14.4)"/></g><defs><path d="M27 0v-27h64v-190l-56 39v-29l58-41h29v221h61V0H27" id="l"/><path d="M33 0v-38h34V0H33" id="m"/><path d="M101-251c68 0 85 55 85 127S166 4 100 4C33 4 14-52 14-124c0-73 17-127 87-127zm-1 229c47 0 54-49 54-102s-4-102-53-102c-51 0-55 48-55 102 0 53 5 102 54 102" id="n"/><g id="a"><use transform="matrix(0.05,0,0,0.05,0,0)" xlink:href="#l"/><use transform="matrix(0.05,0,0,0.05,10,0)" xlink:href="#m"/><use transform="matrix(0.05,0,0,0.05,15,0)" xlink:href="#n"/></g><path d="M30-248c87 1 191-15 191 75 0 78-77 80-158 76V0H30v-248zm33 125c57 0 124 11 124-50 0-59-68-47-124-48v98" id="o"/><path d="M24 0v-261h32V0H24" id="p"/><path d="M141-36C126-15 110 5 73 4 37 3 15-17 15-53c-1-64 63-63 125-63 3-35-9-54-41-54-24 1-41 7-42 31l-33-3c5-37 33-52 76-52 45 0 72 20 72 64v82c-1 20 7 32 28 27v20c-31 9-61-2-59-35zM48-53c0 20 12 33 32 33 41-3 63-29 60-74-43 2-92-5-92 41" id="q"/><path d="M179-190L93 31C79 59 56 82 12 73V49c39 6 53-20 64-50L1-190h34L92-34l54-156h33" id="r"/><path d="M135-143c-3-34-86-38-87 0 15 53 115 12 119 90S17 21 10-45l28-5c4 36 97 45 98 0-10-56-113-15-118-90-4-57 82-63 122-42 12 7 21 19 24 35" id="s"/><path d="M100-194c62-1 85 37 85 99 1 63-27 99-86 99S16-35 15-95c0-66 28-99 85-99zM99-20c44 1 53-31 53-75 0-43-8-75-51-75s-53 32-53 75 10 74 51 75" id="t"/><path d="M84 4C-5 8 30-112 23-190h32v120c0 31 7 50 39 49 72-2 45-101 50-169h31l1 190h-30c-1-10 1-25-2-33-11 22-28 36-60 37" id="u"/><path d="M117-194c89-4 53 116 60 194h-32v-121c0-31-8-49-39-48C34-167 62-67 57 0H25l-1-190h30c1 10-1 24 2 32 11-22 29-35 61-36" id="v"/><path d="M85-194c31 0 48 13 60 33l-1-100h32l1 261h-30c-2-10 0-23-3-31C134-8 116 4 85 4 32 4 16-35 15-94c0-66 23-100 70-100zm9 24c-40 0-46 34-46 75 0 40 6 74 45 74 42 0 51-32 51-76 0-42-9-74-50-73" id="w"/><g id="b"><use transform="matrix(0.05,0,0,0.05,0,0)" xlink:href="#o"/><use transform="matrix(0.05,0,0,0.05,12,0)" xlink:href="#p"/><use transform="matrix(0.05,0,0,0.05,15.949999999999998,0)" xlink:href="#q"/><use transform="matrix(0.05,0,0,0.05,25.950000000000003,0)" xlink:href="#r"/><use transform="matrix(0.05,0,0,0.05,34.95,0)" xlink:href="#s"/><use transform="matrix(0.05,0,0,0.05,43.95,0)" xlink:href="#t"/><use transform="matrix(0.05,0,0,0.05,53.95,0)" xlink:href="#u"/><use transform="matrix(0.05,0,0,0.05,63.95,0)" xlink:href="#v"/><use transform="matrix(0.05,0,0,0.05,73.95,0)" xlink:href="#w"/></g><path d="M205 0l-28-72H64L36 0H1l101-248h38L239 0h-34zm-38-99l-47-123c-12 45-31 82-46 123h93" id="x"/><path d="M33 0v-248h34V0H33" id="y"/><g id="c"><use transform="matrix(0.05,0,0,0.05,0,0)" xlink:href="#x"/><use transform="matrix(0.05,0,0,0.05,12,0)" xlink:href="#o"/><use transform="matrix(0.05,0,0,0.05,24,0)" xlink:href="#y"/></g><path fill="#494949" d="M30 0v-248h187v28H63v79h144v27H63v87h162V0H30" id="z"/><path fill="#494949" d="M141 0L90-78 38 0H4l68-98-65-92h35l48 74 47-74h35l-64 92 68 98h-35" id="A"/><path fill="#494949" d="M59-47c-2 24 18 29 38 22v24C64 9 27 4 27-40v-127H5v-23h24l9-43h21v43h35v23H59v120" id="B"/><path fill="#494949" d="M100-194c63 0 86 42 84 106H49c0 40 14 67 53 68 26 1 43-12 49-29l28 8c-11 28-37 45-77 45C44 4 14-33 15-96c1-61 26-98 85-98zm52 81c6-60-76-77-97-28-3 7-6 17-6 28h103" id="C"/><path fill="#494949" d="M114-163C36-179 61-72 57 0H25l-1-190h30c1 12-1 29 2 39 6-27 23-49 58-41v29" id="D"/><path fill="#494949" d="M117-194c89-4 53 116 60 194h-32v-121c0-31-8-49-39-48C34-167 62-67 57 0H25l-1-190h30c1 10-1 24 2 32 11-22 29-35 61-36" id="E"/><path fill="#494949" d="M141-36C126-15 110 5 73 4 37 3 15-17 15-53c-1-64 63-63 125-63 3-35-9-54-41-54-24 1-41 7-42 31l-33-3c5-37 33-52 76-52 45 0 72 20 72 64v82c-1 20 7 32 28 27v20c-31 9-61-2-59-35zM48-53c0 20 12 33 32 33 41-3 63-29 60-74-43 2-92-5-92 41" id="F"/><path fill="#494949" d="M24 0v-261h32V0H24" id="G"/><g id="d"><use transform="matrix(0.05,0,0,0.05,0,0)" xlink:href="#z"/><use transform="matrix(0.05,0,0,0.05,12,0)" xlink:href="#A"/><use transform="matrix(0.05,0,0,0.05,21,0)" xlink:href="#B"/><use transform="matrix(0.05,0,0,0.05,26,0)" xlink:href="#C"/><use transform="matrix(0.05,0,0,0.05,36,0)" xlink:href="#D"/><use transform="matrix(0.05,0,0,0.05,41.95,0)" xlink:href="#E"/><use transform="matrix(0.05,0,0,0.05,51.95,0)" xlink:href="#F"/><use transform="matrix(0.05,0,0,0.05,61.95,0)" xlink:href="#G"/></g><path fill="#494949" d="M205 0l-28-72H64L36 0H1l101-248h38L239 0h-34zm-38-99l-47-123c-12 45-31 82-46 123h93" id="H"/><path fill="#494949" d="M115-194c55 1 70 41 70 98S169 2 115 4C84 4 66-9 55-30l1 105H24l-1-265h31l2 30c10-21 28-34 59-34zm-8 174c40 0 45-34 45-75s-6-73-45-74c-42 0-51 32-51 76 0 43 10 73 51 73" id="I"/><path fill="#494949" d="M24-231v-30h32v30H24zM24 0v-190h32V0H24" id="J"/><path fill="#494949" d="M96-169c-40 0-48 33-48 73s9 75 48 75c24 0 41-14 43-38l32 2c-6 37-31 61-74 61-59 0-76-41-82-99-10-93 101-131 147-64 4 7 5 14 7 22l-32 3c-4-21-16-35-41-35" id="K"/><path fill="#494949" d="M100-194c62-1 85 37 85 99 1 63-27 99-86 99S16-35 15-95c0-66 28-99 85-99zM99-20c44 1 53-31 53-75 0-43-8-75-51-75s-53 32-53 75 10 74 51 75" id="L"/><g id="e"><use transform="matrix(0.05,0,0,0.05,0,0)" xlink:href="#H"/><use transform="matrix(0.05,0,0,0.05,12,0)" xlink:href="#I"/><use transform="matrix(0.05,0,0,0.05,22,0)" xlink:href="#I"/><use transform="matrix(0.05,0,0,0.05,32,0)" xlink:href="#G"/><use transform="matrix(0.05,0,0,0.05,35.95,0)" xlink:href="#J"/><use transform="matrix(0.05,0,0,0.05,39.900000000000006,0)" xlink:href="#K"/><use transform="matrix(0.05,0,0,0.05,48.900000000000006,0)" xlink:href="#F"/><use transform="matrix(0.05,0,0,0.05,58.900000000000006,0)" xlink:href="#B"/><use transform="matrix(0.05,0,0,0.05,63.900000000000006,0)" xlink:href="#J"/><use transform="matrix(0.05,0,0,0.05,67.85000000000001,0)" xlink:href="#L"/><use transform="matrix(0.05,0,0,0.05,77.85000000000001,0)" xlink:href="#E"/></g><path fill="#494949" d="M84 4C-5 8 30-112 23-190h32v120c0 31 7 50 39 49 72-2 45-101 50-169h31l1 190h-30c-1-10 1-25-2-33-11 22-28 36-60 37" id="M"/><path fill="#494949" d="M85-194c31 0 48 13 60 33l-1-100h32l1 261h-30c-2-10 0-23-3-31C134-8 116 4 85 4 32 4 16-35 15-94c0-66 23-100 70-100zm9 24c-40 0-46 34-46 75 0 40 6 74 45 74 42 0 51-32 51-76 0-42-9-74-50-73" id="N"/><g id="f"><use transform="matrix(0.05,0,0,0.05,0,0)" xlink:href="#H"/><use transform="matrix(0.05,0,0,0.05,12,0)" xlink:href="#M"/><use transform="matrix(0.05,0,0,0.05,22,0)" xlink:href="#N"/><use transform="matrix(0.05,0,0,0.05,32,0)" xlink:href="#J"/><use transform="matrix(0.05,0,0,0.05,35.95,0)" xlink:href="#L"/></g><path fill="#494949" d="M233-177c-1 41-23 64-60 70L243 0h-38l-65-103H63V0H30v-248c88 3 205-21 203 71zM63-129c60-2 137 13 137-47 0-61-80-42-137-45v92" id="O"/><path fill="#494949" d="M177-190C167-65 218 103 67 71c-23-6-38-20-44-43l32-5c15 47 100 32 89-28v-30C133-14 115 1 83 1 29 1 15-40 15-95c0-56 16-97 71-98 29-1 48 16 59 35 1-10 0-23 2-32h30zM94-22c36 0 50-32 50-73 0-42-14-75-50-75-39 0-46 34-46 75s6 73 46 73" id="P"/><g id="g"><use transform="matrix(0.05,0,0,0.05,0,0)" xlink:href="#O"/><use transform="matrix(0.05,0,0,0.05,12.950000000000001,0)" xlink:href="#C"/><use transform="matrix(0.05,0,0,0.05,22.950000000000003,0)" xlink:href="#E"/><use transform="matrix(0.05,0,0,0.05,32.95,0)" xlink:href="#N"/><use transform="matrix(0.05,0,0,0.05,42.95,0)" xlink:href="#C"/><use transform="matrix(0.05,0,0,0.05,52.95,0)" xlink:href="#D"/><use transform="matrix(0.05,0,0,0.05,58.900000000000006,0)" xlink:href="#J"/><use transform="matrix(0.05,0,0,0.05,62.85,0)" xlink:href="#E"/><use transform="matrix(0.05,0,0,0.05,72.85000000000001,0)" xlink:href="#P"/></g><path fill="#494949" d="M30-248c87 1 191-15 191 75 0 78-77 80-158 76V0H30v-248zm33 125c57 0 124 11 124-50 0-59-68-47-124-48v98" id="Q"/><path fill="#494949" d="M33 0v-248h34V0H33" id="R"/><g id="h"><use transform="matrix(0.05,0,0,0.05,0,0)" xlink:href="#H"/><use transform="matrix(0.05,0,0,0.05,12,0)" xlink:href="#Q"/><use transform="matrix(0.05,0,0,0.05,24,0)" xlink:href="#R"/></g><g id="i"><use transform="matrix(0.05,0,0,0.05,0,0)" xlink:href="#R"/><use transform="matrix(0.05,0,0,0.05,5,0)" xlink:href="#E"/><use transform="matrix(0.05,0,0,0.05,15,0)" xlink:href="#I"/><use transform="matrix(0.05,0,0,0.05,25,0)" xlink:href="#M"/><use transform="matrix(0.05,0,0,0.05,35,0)" xlink:href="#B"/></g><path fill="#494949" d="M185-189c-5-48-123-54-124 2 14 75 158 14 163 119 3 78-121 87-175 55-17-10-28-26-33-46l33-7c5 56 141 63 141-1 0-78-155-14-162-118-5-82 145-84 179-34 5 7 8 16 11 25" id="S"/><g id="j"><use transform="matrix(0.05,0,0,0.05,0,0)" xlink:href="#S"/><use transform="matrix(0.05,0,0,0.05,12,0)" xlink:href="#B"/><use transform="matrix(0.05,0,0,0.05,17,0)" xlink:href="#D"/><use transform="matrix(0.05,0,0,0.05,22.95,0)" xlink:href="#J"/><use transform="matrix(0.05,0,0,0.05,26.899999999999995,0)" xlink:href="#E"/><use transform="matrix(0.05,0,0,0.05,36.9,0)" xlink:href="#P"/></g><path fill="#494949" d="M30-248c118-7 216 8 213 122C240-48 200 0 122 0H30v-248zM63-27c89 8 146-16 146-99s-60-101-146-95v194" id="T"/><g id="k"><use transform="matrix(0.05,0,0,0.05,0,0)" xlink:href="#T"/><use transform="matrix(0.05,0,0,0.05,12.950000000000001,0)" xlink:href="#F"/><use transform="matrix(0.05,0,0,0.05,22.950000000000003,0)" xlink:href="#B"/><use transform="matrix(0.05,0,0,0.05,27.950000000000003,0)" xlink:href="#F"/></g></defs></g></svg>