<svg xmlns="http://www.w3.org/2000/svg" xmlns:xlink="http://www.w3.org/1999/xlink" width="520" height="220"><g transform="translate(-480 -100)"><path d="M0 0h1360v1760H0z" fill="#fff"/><path d="M680 210c0 49.7-40.3 90-90 90s-90-40.3-90-90 40.3-90 90-90 90 40.3 90 90z" stroke="#000" stroke-width="2" fill="#fff"/><use xlink:href="#a" transform="matrix(1,0,0,1,520,120) translate(57.5 82.80000000000001)"/><use xlink:href="#b" transform="matrix(1,0,0,1,520,120) translate(37.525 104.4)"/><path d="M964 130c8.84 0 16 7.16 16 16v128c0 8.84-7.16 16-16 16H796c-8.84 0-16-7.16-16-16V146c0-8.84 7.16-16 16-16z" stroke="#000" stroke-width="2" fill="#fff"/><path d="M780 178h200" stroke="#000" stroke-width="2" fill="none"/><use xlink:href="#c" transform="matrix(1,0,0,1,800,130) translate(67.5 27.6)"/><use xlink:href="#b" transform="matrix(1,0,0,1,800,188) translate(47.525 49.6)"/><path d="M600 180h240v60H600z" fill="none"/><use xlink:href="#d" transform="matrix(1,0,0,1,605,185) translate(101.525 28.6)"/><defs><path d="M27 0v-27h64v-190l-56 39v-29l58-41h29v221h61V0H27" id="e"/><path d="M33 0v-38h34V0H33" id="f"/><path d="M101-251c68 0 85 55 85 127S166 4 100 4C33 4 14-52 14-124c0-73 17-127 87-127zm-1 229c47 0 54-49 54-102s-4-102-53-102c-51 0-55 48-55 102 0 53 5 102 54 102" id="g"/><g id="a"><use transform="matrix(0.05,0,0,0.05,0,0)" xlink:href="#e"/><use transform="matrix(0.05,0,0,0.05,10,0)" xlink:href="#f"/><use transform="matrix(0.05,0,0,0.05,15,0)" xlink:href="#g"/></g><path d="M30-248c87 1 191-15 191 75 0 78-77 80-158 76V0H30v-248zm33 125c57 0 124 11 124-50 0-59-68-47-124-48v98" id="h"/><path d="M114-163C36-179 61-72 57 0H25l-1-190h30c1 12-1 29 2 39 6-27 23-49 58-41v29" id="i"/><path d="M100-194c62-1 85 37 85 99 1 63-27 99-86 99S16-35 15-95c0-66 28-99 85-99zM99-20c44 1 53-31 53-75 0-43-8-75-51-75s-53 32-53 75 10 74 51 75" id="j"/><path d="M96-169c-40 0-48 33-48 73s9 75 48 75c24 0 41-14 43-38l32 2c-6 37-31 61-74 61-59 0-76-41-82-99-10-93 101-131 147-64 4 7 5 14 7 22l-32 3c-4-21-16-35-41-35" id="k"/><path d="M100-194c63 0 86 42 84 106H49c0 40 14 67 53 68 26 1 43-12 49-29l28 8c-11 28-37 45-77 45C44 4 14-33 15-96c1-61 26-98 85-98zm52 81c6-60-76-77-97-28-3 7-6 17-6 28h103" id="l"/><path d="M135-143c-3-34-86-38-87 0 15 53 115 12 119 90S17 21 10-45l28-5c4 36 97 45 98 0-10-56-113-15-118-90-4-57 82-63 122-42 12 7 21 19 24 35" id="m"/><g id="b"><use transform="matrix(0.05,0,0,0.05,0,0)" xlink:href="#h"/><use transform="matrix(0.05,0,0,0.05,12,0)" xlink:href="#i"/><use transform="matrix(0.05,0,0,0.05,17.95,0)" xlink:href="#j"/><use transform="matrix(0.05,0,0,0.05,27.950000000000003,0)" xlink:href="#k"/><use transform="matrix(0.05,0,0,0.05,36.95,0)" xlink:href="#l"/><use transform="matrix(0.05,0,0,0.05,46.95,0)" xlink:href="#m"/><use transform="matrix(0.05,0,0,0.05,55.95,0)" xlink:href="#m"/></g><g id="c"><use transform="matrix(0.05,0,0,0.05,0,0)" xlink:href="#e"/><use transform="matrix(0.05,0,0,0.05,10,0)" xlink:href="#f"/><use transform="matrix(0.05,0,0,0.05,15,0)" xlink:href="#g"/></g><path d="M140-251c80 0 125 45 125 126S219 4 139 4C58 4 15-44 15-125s44-126 125-126zm-1 214c52 0 73-35 73-88 0-50-21-86-72-86-52 0-73 35-73 86s22 88 72 88" id="n"/><path d="M240-174c0 40-23 61-54 70L253 0h-59l-57-94H76V0H24v-248c93 4 217-23 216 74zM76-134c48-2 112 12 112-38 0-48-66-32-112-35v73" id="o"/><g id="d"><use transform="matrix(0.05,0,0,0.05,0,0)" xlink:href="#n"/><use transform="matrix(0.05,0,0,0.05,14,0)" xlink:href="#o"/></g></defs></g></svg>